<svg id="Layer_1" data-name="Layer 1" xmlns="http://www.w3.org/2000/svg" viewBox="0 0 2231.36406 1584.35239"><defs><style>.cls-1{fill:#ebf2f9;}.cls-2{fill:#163560;}.cls-3{fill:#e49963;}.cls-4{fill:#4a75cb;}.cls-5{fill:#a6c7f9;}.cls-6{fill:#e58638;}.cls-7{fill:#ee9849;}.cls-8{fill:#1c468a;}.cls-9{fill:#739af0;}.cls-10{fill:#d68d5d;}.cls-11{fill:#2b478b;}.cls-12{fill:#d2e4ff;}.cls-13{fill:#f3f9ff;}.cls-14{fill:#82b378;}.cls-15{fill:#fff;}.cls-16{fill:#202f4e;}</style></defs><path class="cls-1" d="M2373.73242,878.75928c-97.86133-83.47559-215.83789-586.897-619.98926-324.7002C1544.9375,689.52441,1192.84424,437.76321,901.415,524.72168,633.77289,604.582,607.97357,867.69733,633.87061,953.43408c8.90527,29.48248,6.878,26.83588,10.21832,58.66162,1.84692,17.59717,12.70636,134.5835-44.52368,251.81739-69.8512,143.08789-163.52176,127.55529-184.78263,232.60864-14.57745,72.02954,15.22086,149.68091,60.335,196.82214,68.16488,71.22754,167.66629,69.01026,313.8345,67.95679,158.60705-1.14307,317.36035,8.41138,475.83044,1.72278,282.34888-11.91712,565.19849-1.641,847.79553-2.98926h0s325.47657-7.43652,460.665-186.86035C2718.7207,1380.09375,2626.502,1094.375,2373.73242,878.75928Z" transform="translate(-411.05066 -181.0679)"/><path class="cls-2" d="M1243.0898,1713.5771s2.834,45.7149,11.6788,46.3702c1.1767.0869,44.8584.0869,44.8584.0869l55.7617-.3233s-.3653-13.4355-16.6641-16.2763c-16.2998-2.8399-43.582-14.295-53.4551-35.8379C1274.8818,1684.9326,1243.0898,1713.5771,1243.0898,1713.5771Z" transform="translate(-411.05066 -181.0679)"/><path class="cls-3" d="M1222.9932,1180.0859s24.292,6.2393,39.7343,1.587c15.4434-4.6524,42.0205,2.9882,46.3008,8.6191s2.708,7.8682-4.9297,9.8115c-7.6377,1.9434-34.6963,13.4844-52.4795,6.8047s-40.9775-6.9228-40.9775-6.9228Z" transform="translate(-411.05066 -181.0679)"/><path class="cls-4" d="M1013.04488,969.0635s27.29012,193.9551,72.4766,211.3281c22.2969,8.5713,120.83592,28.002,149.98442,29.9541,0,0,7.1406-5.793,5.4013-29.3711,0,0-103.2402-37.9023-117.9062-58.5146-21.82812-30.6768,13.55078-125.3243-13.83892-154.1358C1081.77148,939.5127,1035.64058,927.1299,1013.04488,969.0635Z" transform="translate(-411.05066 -181.0679)"/><path class="cls-5" d="M1016.53128,1716.3877v-42.2871h-66.5772a3.27527,3.27527,0,0,1-3.2666-3.2666v-6.7754a3.27592,3.27592,0,0,1,3.2666-3.2666h66.5772V1420.0674a12.31708,12.31708,0,0,1,12.2812-12.2813h13.1748a12.31717,12.31717,0,0,1,12.2813,12.2813V1660.792h66.5771a3.27736,3.27736,0,0,1,3.2676,3.2666v6.7754a3.27671,3.27671,0,0,1-3.2676,3.2666h-66.5771v42.2871c48.1709,3.6416,86.7646,20.9834,97.5918,43.3906H918.93948C929.76558,1737.3711,968.36038,1720.0293,1016.53128,1716.3877Z" transform="translate(-411.05066 -181.0679)"/><path class="cls-6" d="M1022.24218,1377.6895a339.98689,339.98689,0,0,0,26.6572,38.1406c29.3301,37.0263,61.2569,67.5556,66.8194,96.414a130.70266,130.70266,0,0,0,5.15622,18.4707c2.32228,6.6104,5.19338,13.5606,8.50778,20.7461,12.4463,27.0362,31.0586,57.3291,49.6426,84.8653,32.125,47.6025,62.333,87.3232,62.333,87.3232l55.3994-2.3613c-2.2187-5.5518-26.3808-71.2793-58.7041-151.6016-13.126-32.6074-27.083-67.291-40.54883-100.7383q-2.691-6.7002-5.3633-13.3242c-4.11719-10.2373-8.16889-20.3125-12.125-30.124-30.35058-75.4219-54.5244-135.4795-54.5244-135.4795s-121.3047-45.9521-133.9024-16.1758C981.20208,1298.3965,989.66308,1322.4482,1022.24218,1377.6895Z" transform="translate(-411.05066 -181.0679)"/><path class="cls-2" d="M1114.80858,1582.9785s-38.5332,24.7608-34.794,32.8018c.4971,1.0703,21.792,39.2099,21.792,39.2099l27.4659,48.5293s11.5537-6.8681,6.0879-22.4853c-5.4659-15.6153-8.7647-45.0205,5.2324-64.1436C1155.31638,1596.7725,1114.80858,1582.9785,1114.80858,1582.9785Z" transform="translate(-411.05066 -181.0679)"/><path class="cls-7" d="M1166.94528,1268.21s152.26082,94.8437,169.25782,158.581c16.9961,63.7373-202.54392,199.711-202.54392,199.711s-24.0791-21.2461-28.3281-36.8262c0,0,99.23532-118.8906,120.76172-145.541,13.2197-16.3682-195.47372-56.6612-220.9678-96.3194-25.49512-39.6591-16.36822-73.0273-16.36822-73.0273Z" transform="translate(-411.05066 -181.0679)"/><path class="cls-8" d="M468.53722,1208.9311h311.623a11.3311,11.3311,0,0,1,11.3311,11.3311v62.3242a11.332,11.332,0,0,1-11.332,11.332H468.53822a11.3321,11.3321,0,0,1-11.3321-11.3321v-62.3241A11.3311,11.3311,0,0,1,468.53722,1208.9311Z"/><path class="cls-3" d="M1096.53708,935.8164a85.93105,85.93105,0,0,1,23.1953,21.0205c-36.4765,9.4356-96.9472-24.3662-96.9472-24.3662s23.4794-15.7764,32.1777-50.4414q.6606-2.6235,1.1953-5.3774a109.52837,109.52837,0,0,0,1.9746-18.9805l16.7568,15.0107,27.8633,24.9624a239.23157,239.23157,0,0,1-4.1181,28.1748Q1097.72653,930.4834,1096.53708,935.8164Z" transform="translate(-411.05066 -181.0679)"/><path class="cls-9" d="M984.33108,1107.9014c5.2246,70.2744-3.5625,177.1113,2.3642,195.6211,5.1162,15.9697,65.3154,6.5175,88.5801,1.1845,8.6113-1.9726,19.042-4.792,29.8144-8.124,30.0469-9.3047,62.7881-22.5898,66.3008-32.4531a8.24667,8.24667,0,0,0,.3242-1.1348,9.02381,9.02381,0,0,0-.0625-4.1338c-1.1718-5.0263-5.6835-10.4668-6.2148-22.914-.5947-13.8985-.5049-30.2647-1.0273-47.8643-.0274-1.9814-.0538-4.1426-.2696-6.1152l-.0097-.7207c-.0088-.3789-.0176-.7481-.0264-1.126-.5049-19.627-1.5313-40.2617-2.7207-60.7266-.75678-12.8525-1.6299-25.58-2.6387-37.7754-2.62108-31.4795-6.1523-59.4736-10.8262-77.1728-7.6386-28.8496-24.4814-47.666-39.8125-61.4561l-11.0878-9.5107c-12.375,2.7012-27.003.9092-40.2344-5.3594-14.3213-6.8008-19.2656-11.6738-21.7608-9.8359C1001.94918,943.8008,978.16108,1021.9922,984.33108,1107.9014Z" transform="translate(-411.05066 -181.0679)"/><path class="cls-4" d="M1104.918,1296.7236c30.04678-9.3047,62.78808-22.5898,66.30078-32.4531a8.27784,8.27784,0,0,0,.32422-1.1348c-.01762-1.3779-.03522-2.7558-.06252-4.1337-1.1709-5.0264-5.6836-10.4668-6.2149-22.9141-.5947-13.8984-.5049-30.2647-1.0273-47.8643-.0274-1.9814-.0537-4.1425-.2705-6.1152l-.00878-.7207c-.00882-.3789-.01762-.7481-.02642-1.126l-113.499-51.4756S1043.89448,1220.2627,1104.918,1296.7236Z" transform="translate(-411.05066 -181.0679)"/><path class="cls-10" d="M1102.75288,897.6445a239.23157,239.23157,0,0,1-4.1181,28.1748c-27.2071-8.791-39.55078-33.3662-43.6719-43.79-1.17188-2.9448-1.6807-4.7651-1.6807-4.7651s1.0557-.2281,2.876-.6123c3.8242-.8135,11.0264-2.3409,18.7314-3.9698Z" transform="translate(-411.05066 -181.0679)"/><path class="cls-3" d="M1113.76758,897.3711s-59.7754,6.7422-63.4014-30.5474c-3.625-37.29-13.78218-61.5337,24.2295-67.4155,38.0117-5.8813,46.82232,7.626,51.0596,19.7783C1129.89258,831.3389,1129.22358,894.6563,1113.76758,897.3711Z" transform="translate(-411.05066 -181.0679)"/><path class="cls-11" d="M1050.624,869.397s3.79008-49.4986,58.20218-54.6255c37.2695-3.5117,16.4912-35.5889,12.5185-40.7051,0,0-28.55468,3.915-57.8232,8.751C1002.08788,792.9678,1044.59078,861.6914,1050.624,869.397Z" transform="translate(-411.05066 -181.0679)"/><rect class="cls-4" x="1362.0924" y="1089.00607" width="5.50175" height="144.06105" transform="translate(1893.03187 2505.95453) rotate(-161.99911)"/><rect class="cls-4" x="1194.13994" y="1219.73532" width="151.17419" height="9.04357" transform="translate(2101.9684 2294.28358) rotate(-178.77629)"/><path class="cls-3" d="M1210.4912,1209.9043s23.457,8.8799,39.3184,5.958c15.8613-2.9209,41.4345,7.6025,45.0674,13.6719,3.6328,6.0674,1.8251,8.1181-5.9805,9.207-7.8057,1.0899-35.9717,9.5781-52.9102.9785-16.9394-8.5996-39.96483-11.3984-39.96483-11.3984Z" transform="translate(-411.05066 -181.0679)"/><path class="cls-9" d="M1025.08788,977.0225s5.7402,195.7812,48.7373,218.0293c21.21482,10.9785,117.01169,41.1543,145.76662,46.3076,0,0,7.7363-4.9698,8.6064-28.5967,0,0-98.43162-49.0527-110.73632-71.1572-18.3125-32.8955,27.2852-123.0655,3.2383-154.7217C1096.65428,955.2285,1052.16888,937.835,1025.08788,977.0225Z" transform="translate(-411.05066 -181.0679)"/><path class="cls-12" d="M1372.9687,181.0679h779.9737A98.5576,98.5576,0,0,1,2251.5,279.6255V1346.0679a98.5571,98.5571,0,0,1-98.5571,98.5571H1372.9692a98.5571,98.5571,0,0,1-98.5571-98.5571V279.6245A98.5566,98.5566,0,0,1,1372.9687,181.0679Z" transform="translate(3114.86144 1444.625) rotate(180)"/><rect class="cls-13" x="1370.4209" y="313.4927" width="786.6709" height="1003.2309" transform="translate(3116.46204 1449.1484) rotate(180)"/><path class="cls-7" d="M2045.5352,1272.6875h0a41.507,41.507,0,0,1-41.5059-41.5068V657.3193a41.50621,41.50621,0,0,1,41.5059-41.5063h0a41.50555,41.50555,0,0,1,41.5058,41.5063v573.8614A41.5063,41.5063,0,0,1,2045.5352,1272.6875Z" transform="translate(-411.05066 -181.0679)"/><path class="cls-7" d="M1909.5371,1272.6875h0a41.50694,41.50694,0,0,1-41.5058-41.5068V474.2217a41.50621,41.50621,0,0,1,41.5058-41.5064h0a41.50642,41.50642,0,0,1,41.5068,41.5064v756.959A41.50715,41.50715,0,0,1,1909.5371,1272.6875Z" transform="translate(-411.05066 -181.0679)"/><path class="cls-7" d="M1761.1436,1272.6875h0a41.50717,41.50717,0,0,1-41.5069-41.5068V816.1714a41.50644,41.50644,0,0,1,41.5069-41.5064h0a41.50621,41.50621,0,0,1,41.5058,41.5064v415.0093A41.50694,41.50694,0,0,1,1761.1436,1272.6875Z" transform="translate(-411.05066 -181.0679)"/><path class="cls-7" d="M1616.7461,1272.6875h0a41.50715,41.50715,0,0,1-41.5068-41.5068V586.3638a41.50642,41.50642,0,0,1,41.5068-41.5064h0a41.5063,41.5063,0,0,1,41.5059,41.5064v644.8169A41.507,41.507,0,0,1,1616.7461,1272.6875Z" transform="translate(-411.05066 -181.0679)"/><path class="cls-7" d="M1513.1035,913.6479v317.5328a41.507,41.507,0,0,1-41.5063,41.5068h0a41.50706,41.50706,0,0,1-41.5064-41.5068V913.6479a41.50632,41.50632,0,0,1,41.5064-41.5063h0A41.5063,41.5063,0,0,1,1513.1035,913.6479Z" transform="translate(-411.05066 -181.0679)"/><path class="cls-5" d="M1579.1777,493.4521h70.3008a7.2725,7.2725,0,1,1,0,14.545h-70.3008a7.2725,7.2725,0,1,1,0-14.545Z" transform="translate(-411.05066 -181.0679)"/><path class="cls-5" d="M1633.4668,519.916h16.0117a7.27245,7.27245,0,1,1,0,14.5449h-16.0117a7.27245,7.27245,0,1,1,0-14.5449Z" transform="translate(-411.05066 -181.0679)"/><path class="cls-5" d="M1868.8662,381.8291h70.3008a7.27245,7.27245,0,1,1,0,14.5449h-70.3008a7.27245,7.27245,0,0,1,0-14.5449Z" transform="translate(-411.05066 -181.0679)"/><path class="cls-5" d="M1923.1563,408.293h16.0107a7.29363,7.29363,0,0,1,7.2725,7.2724h0a7.29372,7.29372,0,0,1-7.2725,7.2725h-16.0107a7.29458,7.29458,0,0,1-7.2735-7.2725h0A7.29449,7.29449,0,0,1,1923.1563,408.293Z" transform="translate(-411.05066 -181.0679)"/><path class="cls-5" d="M2009.4688,564.8042h70.3007a7.27245,7.27245,0,0,1,0,14.5449h-70.3007a7.27245,7.27245,0,1,1,0-14.5449Z" transform="translate(-411.05066 -181.0679)"/><path class="cls-5" d="M2063.7578,591.2681h16.0117a7.29278,7.29278,0,0,1,7.2715,7.2724h0a7.29286,7.29286,0,0,1-7.2715,7.2725h-16.0117a7.29363,7.29363,0,0,1-7.2724-7.2725h0A7.29355,7.29355,0,0,1,2063.7578,591.2681Z" transform="translate(-411.05066 -181.0679)"/><path class="cls-5" d="M1725.9922,723.73h70.3008a7.27245,7.27245,0,1,1,0,14.5449h-70.3008a7.27245,7.27245,0,1,1,0-14.5449Z" transform="translate(-411.05066 -181.0679)"/><path class="cls-5" d="M1780.2822,750.1938h16.0108a7.29449,7.29449,0,0,1,7.2734,7.2725h0a7.29449,7.29449,0,0,1-7.2734,7.2725h-16.0108a7.29363,7.29363,0,0,1-7.2724-7.2725h0A7.29363,7.29363,0,0,1,1780.2822,750.1938Z" transform="translate(-411.05066 -181.0679)"/><path class="cls-5" d="M1436.4463,820.9111h70.3017a7.2727,7.2727,0,0,1,0,14.5454h-70.3017a7.2727,7.2727,0,0,1,0-14.5454Z" transform="translate(-411.05066 -181.0679)"/><path class="cls-5" d="M1490.7363,847.375h16.0117a7.2727,7.2727,0,0,1,0,14.5454h-16.0117a7.2727,7.2727,0,0,1,0-14.5454Z" transform="translate(-411.05066 -181.0679)"/><path class="cls-11" d="M1471.5977,800.2222a25.83325,25.83325,0,1,1,25.833-25.833A25.86264,25.86264,0,0,1,1471.5977,800.2222Zm0-41.6665a15.83325,15.83325,0,1,0,15.833,15.8335A15.85127,15.85127,0,0,0,1471.5977,758.5557Z" transform="translate(-411.05066 -181.0679)"/><path class="cls-11" d="M1460.5977,758.5557a4.98486,4.98486,0,0,1-3.5357-1.4644l-77.6338-77.6328H748.72708a5,5,0,1,1,0-10H1383.5713l80.561,80.5615a5.00005,5.00005,0,0,1-3.5346,8.5357Z" transform="translate(-411.05066 -181.0679)"/><path class="cls-11" d="M1620.1572,1344.9473a25.833,25.833,0,1,1,25.833-25.833A25.86217,25.86217,0,0,1,1620.1572,1344.9473Zm0-41.666a15.833,15.833,0,1,0,15.833,15.833A15.85165,15.85165,0,0,0,1620.1572,1303.2813Z" transform="translate(-411.05066 -181.0679)"/><path class="cls-11" d="M2333.0273,1424.0449H1708.1826l-80.5605-80.5615a4.99981,4.99981,0,0,1,7.0703-7.0713l77.6318,77.6328h620.7031a5,5,0,0,1,0,10Z" transform="translate(-411.05066 -181.0679)"/><path class="cls-11" d="M1905.916,361.8315a25.83325,25.83325,0,1,1,25.833-25.833A25.86275,25.86275,0,0,1,1905.916,361.8315Zm0-41.6665a15.83325,15.83325,0,1,0,15.833,15.8335A15.85208,15.85208,0,0,0,1905.916,320.165Z" transform="translate(-411.05066 -181.0679)"/><path class="cls-11" d="M1894.916,320.165a4.98169,4.98169,0,0,1-3.5351-1.4643l-77.6338-77.6328H1183.0454a5,5,0,0,1,0-10h634.8433l80.5625,80.5615a5,5,0,0,1-3.5352,8.5356Z" transform="translate(-411.05066 -181.0679)"/><path class="cls-9" d="M1170.2363,657.8892H755.89358a12.66707,12.66707,0,0,1-12.6665-12.667h0a12.66665,12.66665,0,0,1,12.6665-12.6665H1170.2363a12.66628,12.66628,0,0,1,12.666,12.6665h0A12.66671,12.66671,0,0,1,1170.2363,657.8892Z" transform="translate(-411.05066 -181.0679)"/><path class="cls-9" d="M1170.2363,617.8892H915.89358a12.66707,12.66707,0,0,1-12.6665-12.667h0a12.66665,12.66665,0,0,1,12.6665-12.6665H1170.2363a12.66628,12.66628,0,0,1,12.666,12.6665h0A12.66671,12.66671,0,0,1,1170.2363,617.8892Z" transform="translate(-411.05066 -181.0679)"/><path class="cls-9" d="M1170.2363,577.8892H915.89358a12.66707,12.66707,0,0,1-12.6665-12.667h0a12.66665,12.66665,0,0,1,12.6665-12.6665H1170.2363a12.66628,12.66628,0,0,1,12.666,12.6665h0A12.66671,12.66671,0,0,1,1170.2363,577.8892Z" transform="translate(-411.05066 -181.0679)"/><path class="cls-9" d="M1601.6611,216.9111H1187.3188a12.66639,12.66639,0,0,1-12.6665-12.6665h0a12.66682,12.66682,0,0,1,12.6665-12.667h414.3423a12.66665,12.66665,0,0,1,12.666,12.667h0A12.66622,12.66622,0,0,1,1601.6611,216.9111Z" transform="translate(-411.05066 -181.0679)"/><circle class="cls-14" cx="1908.3633" cy="1549.20607" r="90.16698" transform="translate(-947.55811 1622.10068) rotate(-45)"/><path class="cls-15" d="M1908.3613,1472.9844a76.21867,76.21867,0,0,1,54.3223,129.6855l-54.3223-53.4638-71.2226,27.1845a76.27086,76.27086,0,0,1,71.2226-103.4062Z" transform="translate(-411.05066 -181.0679)"/><path class="cls-14" d="M1919.501,1510.5117h32.4443a2.32464,2.32464,0,0,1,2.3174,2.3184h0a2.32358,2.32358,0,0,1-2.3174,2.3164H1919.501a2.32358,2.32358,0,0,1-2.3174-2.3164h0A2.32464,2.32464,0,0,1,1919.501,1510.5117Z" transform="translate(-411.05066 -181.0679)"/><path class="cls-14" d="M1919.501,1517.8506h32.4443a2.31785,2.31785,0,0,1,0,4.6357H1919.501a2.31785,2.31785,0,0,1,0-4.6357Z" transform="translate(-411.05066 -181.0679)"/><path class="cls-14" d="M1938.5469,1525.1895h13.3984a2.31735,2.31735,0,1,1,0,4.6347h-13.3984a2.31735,2.31735,0,0,1,0-4.6347Z" transform="translate(-411.05066 -181.0679)"/><polygon class="cls-14" points="1418.352 1325.821 1454.019 1290.155 1418.352 1290.155 1418.352 1325.821"/><circle class="cls-14" cx="2212.85963" cy="1549.20607" r="90.16697" transform="translate(144.29575 3501.07913) rotate(-87.14471)"/><path class="cls-15" d="M2136.6426,1549.2061a76.21625,76.21625,0,1,1,29.9883,60.6015l46.2255-60.6015-71.2236,27.1845A76.09007,76.09007,0,0,1,2136.6426,1549.2061Z" transform="translate(-411.05066 -181.0679)"/><path class="cls-14" d="M2224.6211,1510.5117h32.4443a2.32464,2.32464,0,0,1,2.3174,2.3184h0a2.32358,2.32358,0,0,1-2.3174,2.3164h-32.4443a2.32358,2.32358,0,0,1-2.3174-2.3164h0A2.32464,2.32464,0,0,1,2224.6211,1510.5117Z" transform="translate(-411.05066 -181.0679)"/><path class="cls-14" d="M2224.6211,1517.8506h32.4443a2.31785,2.31785,0,0,1,0,4.6357h-32.4443a2.31785,2.31785,0,0,1,0-4.6357Z" transform="translate(-411.05066 -181.0679)"/><path class="cls-14" d="M2243.667,1525.1895h13.3984a2.31735,2.31735,0,1,1,0,4.6347H2243.667a2.31735,2.31735,0,1,1,0-4.6347Z" transform="translate(-411.05066 -181.0679)"/><polygon class="cls-14" points="1723.352 1325.821 1759.019 1290.155 1723.352 1290.155 1723.352 1325.821"/><path class="cls-16" d="M2542.9521,1763.0234H458.332a2.99862,2.99862,0,0,1-2.98971-2.9882h0a2.99906,2.99906,0,0,1,2.98971-2.9903H2542.9521a2.99832,2.99832,0,0,1,2.9893,2.9903h0A2.99788,2.99788,0,0,1,2542.9521,1763.0234Z" transform="translate(-411.05066 -181.0679)"/></svg>