<svg id="OBJECTS" xmlns="http://www.w3.org/2000/svg" viewBox="0 0 387.22627 465.70883"><defs><style>.cls-1{fill:#541126;}.cls-2{fill:#f9cab4;}.cls-3{fill:#ff4d4d;}.cls-4{fill:#302218;}.cls-5,.cls-8{fill:none;stroke-linecap:round;stroke-linejoin:round;stroke-width:0.5px;}.cls-5{stroke:#302218;}.cls-6{fill:#ffc34a;}.cls-7{fill:#9fc9bb;}.cls-8{stroke:#fffde3;}.cls-9{fill:#7b733d;}.cls-10{fill:#cbc47a;}.cls-11{fill:#86304a;}.cls-12{fill:#f0865f;}.cls-13{fill:#e26640;}.cls-14{fill:#994f31;}</style></defs><path class="cls-1" d="M242.48268,68.048s3.0145-33.0652,39.535-33.7509c36.5204-.6858,66.3435,58.083,54.9795,208.9173,0,0-25.6637,27.2469-61.7916,14.282C239.07758,244.5314,242.48268,68.048,242.48268,68.048Z" transform="translate(-54.99796 -34.29117)"/><path class="cls-2" d="M249.94828,74.6813c-10.9188,0-19.0355,1.2513-25.0245,2.9513a23.8429,23.8429,0,0,0-17.1566,21.209c-.4845,6.4261-.8529,12.9844-.8529,12.9844s-10.19479-5.4584-13.56669,13.339c-3.5838,19.9791,9.8468,20.3685,9.8468,20.3685s.53161,10.7755,4.23729,17.8566c4.6106,8.8106,14.9181,12.9733,14.9181,12.9733l-.7891,25.0216s10.9352,28.9439,28.3877,29.3987c17.4519-.4548,28.3875-29.3987,28.3875-29.3987l-.7891-25.0216s10.3075-4.1627,14.9181-12.9733c3.7059-7.0811,4.2374-17.8566,4.2374-17.8566s13.43072-.3894,9.8468-20.3685c-3.3718-18.7974-13.5668-13.339-13.5668-13.339s-.3684-6.5583-.8527-12.9844a23.84327,23.84327,0,0,0-17.1567-21.209C268.984,75.9326,260.86718,74.6813,249.94828,74.6813Z" transform="translate(-54.99796 -34.29117)"/><path class="cls-3" d="M249.94828,168.1238c12.4564,0,17.7501-10.3721,17.7501-10.3721-15.06938-3.1117-17.7501,1.1425-17.7501,1.1425s-2.6807-4.2542-17.7499-1.1425C232.19838,157.7517,237.49218,168.1238,249.94828,168.1238Z" transform="translate(-54.99796 -34.29117)"/><path class="cls-4" d="M227.26268,179.0151s22.6664,10.7668,45.3328,0c0,0-4.619,13.6483-22.6664,13.6483C231.882,192.6634,227.26268,179.0151,227.26268,179.0151Z" transform="translate(-54.99796 -34.29117)"/><path class="cls-5" d="M296.407,139.3187s3.45088-2.3308,2.33718-5.2883c-1.1136-2.9576-3.71618-2.0539-3.8169-5.2446" transform="translate(-54.99796 -34.29117)"/><path class="cls-5" d="M295.48228,118.5972s5.756-2.6576,6.9665,8.1942" transform="translate(-54.99796 -34.29117)"/><path class="cls-5" d="M203.11549,139.3187s-3.4509-2.3308-2.3372-5.2883c1.1138-2.9576,3.71639-2.0539,3.81689-5.2446" transform="translate(-54.99796 -34.29117)"/><path class="cls-5" d="M204.04018,118.5972s-5.756-2.6576-6.96649,8.1942" transform="translate(-54.99796 -34.29117)"/><path class="cls-5" d="M241.52528,141.1608s-5.8692,4.2787-.3788,8.1787" transform="translate(-54.99796 -34.29117)"/><path class="cls-5" d="M258.75008,149.3395c5.4905-3.9-.3785-8.1787-.3785-8.1787s-3.8942-2.5436-3.2609-10.5903" transform="translate(-54.99796 -34.29117)"/><path class="cls-5" d="M244.34348,148.172a2.89458,2.89458,0,0,1,3.5192.0818" transform="translate(-54.99796 -34.29117)"/><path class="cls-5" d="M252.08548,148.172a2.89489,2.89489,0,0,1,3.5194.0818" transform="translate(-54.99796 -34.29117)"/><path class="cls-5" d="M266.36668,158.338s-16.4853,11.1471-32.8748,0" transform="translate(-54.99796 -34.29117)"/><path class="cls-4" d="M238.92168,132.8863a23.62088,23.62088,0,0,0-5.7983-5.0387,14.51806,14.51806,0,0,0-7.0065-2.1948,15.53484,15.53484,0,0,0-7.1673,1.5714,33.62491,33.62491,0,0,0-6.5131,4.1059l-.0904.0706a.62773.62773,0,0,1-.88108-.1086.68843.68843,0,0,1-.053-.0799l-1.69562-3.0317a.37653.37653,0,0,1,.6198-.4225l2.202,2.6867-1.02418-.1179a23.59474,23.59474,0,0,1,6.49208-5.0356,15.66925,15.66925,0,0,1,8.2243-1.8741,14.92027,14.92027,0,0,1,7.89562,2.9193,18.92507,18.92507,0,0,1,5.43168,6.1524.375.375,0,0,1-.617.4206Z" transform="translate(-54.99796 -34.29117)"/><path class="cls-4" d="M212.91058,125.851l1.9658,2.5806a.68361.68361,0,0,1-1.0876.8285.72977.72977,0,0,1-.068-.1094l-1.447-2.9035a.37667.37667,0,0,1,.6368-.3962Z" transform="translate(-54.99796 -34.29117)"/><path class="cls-4" d="M215.74718,124.4092l1.7464,2.2587a.64094.64094,0,0,1-1.0141.7841.69232.69232,0,0,1-.0634-.0998l-1.302-2.5409a.3766.3766,0,0,1,.6331-.4021Z" transform="translate(-54.99796 -34.29117)"/><path class="cls-4" d="M260.11158,132.488a18.98518,18.98518,0,0,1,5.4386-6.1429,14.96824,14.96824,0,0,1,7.8914-2.9223,15.6338,15.6338,0,0,1,8.2248,1.8664,23.50624,23.50624,0,0,1,6.4891,5.0381l-1.0248.1174,2.2019-2.6867a.37653.37653,0,0,1,.6198.4225l-1.6955,3.0317a.6286.6286,0,0,1-.932.1903l-.093-.0729a33.43385,33.43385,0,0,0-6.5085-4.1072,15.489,15.489,0,0,0-7.1656-1.5641,14.57752,14.57752,0,0,0-7.00578,2.1986,23.72792,23.72792,0,0,0-5.80532,5.0302l-.0189.0227a.375.375,0,0,1-.6162-.4218Z" transform="translate(-54.99796 -34.29117)"/><path class="cls-4" d="M287.395,126.2472l-1.44692,2.9035a.68361.68361,0,1,1-1.2237-.6098.72942.72942,0,0,1,.068-.1093l1.9658-2.5806a.37668.37668,0,0,1,.63682.3962Z" transform="translate(-54.99796 -34.29117)"/><path class="cls-4" d="M284.55468,124.8113l-1.3021,2.5409a.64089.64089,0,1,1-1.1407-.5846.67713.67713,0,0,1,.0633-.0997l1.7464-2.2587a.3766.3766,0,0,1,.6331.4021Z" transform="translate(-54.99796 -34.29117)"/><path class="cls-1" d="M292.98228,111.826c-10.9646-18.794-29.0241-30.5205-29.0241-30.5205s-33.0858,6.3478-57.0439,30.5205a7.25383,7.25383,0,0,0-2.8741-.7236c-2.18318-11.4045-2.30459-39.3446,28.86882-48.515a56.62958,56.62958,0,0,1,36.14678,1.1055c13.855,5.2931,29.689,17.8095,27.4959,47.4054A9.49521,9.49521,0,0,0,292.98228,111.826Z" transform="translate(-54.99796 -34.29117)"/><path class="cls-1" d="M213.30128,114.5879a14.99306,14.99306,0,0,1,4.469-4.3173,19.556,19.556,0,0,1,5.7281-2.4686,22.198,22.198,0,0,1,6.21662-.5119c1.04328.0294,2.03528.2596,3.05678.3894q1.48125.3558,2.9234.8079a2.9868,2.9868,0,0,1,1.9521,3.7769,3.05422,3.05422,0,0,1-3.5457,2.0299l-.2424-.0536a42.9514,42.9514,0,0,0-4.7207-.9215,20.80509,20.80509,0,0,0-4.6878-.1122,17.83216,17.83216,0,0,0-4.6043,1.0347,18.45856,18.45856,0,0,0-4.2395,2.2041l-.2166.1514a1.48929,1.48929,0,0,1-2.0678-.3538A1.46833,1.46833,0,0,1,213.30128,114.5879Z" transform="translate(-54.99796 -34.29117)"/><path class="cls-1" d="M286.59788,114.5844a14.90344,14.90344,0,0,0-4.425-4.3162,19.2645,19.2645,0,0,0-5.6724-2.4668,21.77787,21.77787,0,0,0-6.1564-.5101,30.3612,30.3612,0,0,0-3.0272.3905c-.9782.2376-1.9423.5049-2.8955.8087a3.01223,3.01223,0,0,0,1.5769,5.8064l.2398-.054a42.30556,42.30556,0,0,1,4.6756-.9229,20.39551,20.39551,0,0,1,4.6425-.1133,17.512,17.512,0,0,1,4.55982,1.0332,18.20888,18.20888,0,0,1,4.198,2.2029l.21448.1512a1.4671,1.4671,0,0,0,2.0694-2.0096Z" transform="translate(-54.99796 -34.29117)"/><path class="cls-6" d="M253.52148,60.2946s3.8597-10.4202,20.507-4.2326c15.0762,5.6036,9.7699,16.5711,9.7699,16.5711S274.02848,61.4966,253.52148,60.2946Z" transform="translate(-54.99796 -34.29117)"/><path class="cls-5" d="M283.79838,72.6331s15.2557,11.0527,12.8418,37.4022" transform="translate(-54.99796 -34.29117)"/><path class="cls-3" d="M303.76188,137.9109a2.0016,2.0016,0,1,1-2.0016-2.0016A2.00158,2.00158,0,0,1,303.76188,137.9109Z" transform="translate(-54.99796 -34.29117)"/><path class="cls-3" d="M199.66979,137.9109a2.00155,2.00155,0,1,1-2.0016-2.0016A2.00152,2.00152,0,0,1,199.66979,137.9109Z" transform="translate(-54.99796 -34.29117)"/><path class="cls-2" d="M378.93188,263.8641s33.3876,52.1499,38.3646,71.8114c0,0,3.62352,15.1845-25.0017,25.6088-20.2399,7.3708-53.4774-56.9885-53.4774-56.9885S368.22378,287.8288,378.93188,263.8641Z" transform="translate(-54.99796 -34.29117)"/><path class="cls-7" d="M330.47228,211.897c9.1426,6.0608,32.7412,23.5749,48.4596,51.9671,0,0-13.2756,46.9306-53.80888,58.238,0,0-16.28952-26.1219-24.17632-42.4593,0,0-12.162-69.4525,17.8321-71.0817A19.37038,19.37038,0,0,1,330.47228,211.897Z" transform="translate(-54.99796 -34.29117)"/><path class="cls-5" d="M403.55778,305.041s-32.0073-61.4038-54.4501-78.4713" transform="translate(-54.99796 -34.29117)"/><path class="cls-5" d="M364.80408,292.3642s-14.8664,23.5817-39.68108,29.7379" transform="translate(-54.99796 -34.29117)"/><path class="cls-5" d="M320.17758,314.0007s42.3381-22.2546,52.37142-60.5054" transform="translate(-54.99796 -34.29117)"/><path class="cls-2" d="M121.45629,263.8641s-38.5804,60.4229-43.5574,80.0844c0,0,1.5692,6.9115,30.1944,17.3358,20.2399,7.3708,53.4774-56.9885,53.4774-56.9885S132.16439,287.8288,121.45629,263.8641Z" transform="translate(-54.99796 -34.29117)"/><path class="cls-7" d="M169.91589,211.897c-9.1427,6.0608-32.7412,23.5749-48.4596,51.9671,0,0,13.2756,46.9306,53.8088,58.238,0,0,16.2895-26.1219,24.1763-42.4593,0,0,12.162-69.4525-17.832-71.0817A19.37,19.37,0,0,0,169.91589,211.897Z" transform="translate(-54.99796 -34.29117)"/><path class="cls-5" d="M96.83039,305.041s32.0072-61.4038,54.45-78.4713" transform="translate(-54.99796 -34.29117)"/><path class="cls-5" d="M135.584,292.3642s14.86639,23.5817,39.68109,29.7379" transform="translate(-54.99796 -34.29117)"/><path class="cls-5" d="M180.21049,314.0007s-42.338-22.2546-52.3713-60.5054" transform="translate(-54.99796 -34.29117)"/><path class="cls-7" d="M332.08078,344.3759c-6.5992-36.6027.9101-61.6686.9101-61.6686.10112-16.0475,19.3887-52.4324,8.1249-62.9935-14.74-13.8203-35.3983-18.0193-35.3983-18.0193a268.85566,268.85566,0,0,0-27.4659-2.9843l-28.3225,27.9193-28.2935-27.622c-5.8513.4356-11.9029,1.0133-18.11919,1.7607,0,0-25.3142,3.2491-38.8008,14.7636-11.1565,9.5251-1.7413,33.5733,9.1562,67.1755,0,0,2.0203,25.4214-5.5741,61.33a19.29059,19.29059,0,0,0,16.4618,23.1053c27.49469,3.4751,78.01409,7.5048,131.07259-.1116A19.35937,19.35937,0,0,0,332.08078,344.3759Z" transform="translate(-54.99796 -34.29117)"/><line class="cls-5" x1="195.19612" y1="196.95703" x2="195.19612" y2="337.07733"/><path class="cls-5" d="M329.38708,316.9313s-1.5058-11.38,4.0526-40.6948" transform="translate(-54.99796 -34.29117)"/><path class="cls-5" d="M171.05709,328.9398s5.0538-27.2341,1.5383-62.3896" transform="translate(-54.99796 -34.29117)"/><path class="cls-7" d="M208.512,200.2006l4.08018-15.1897,37.3369,41.6186,37.1475-41.6186,3.846,14.7526s.1876,29.932-28.582,50.6091l-12.3582-19.1244-9.8193,19.1244S217.98718,243.4245,208.512,200.2006Z" transform="translate(-54.99796 -34.29117)"/><path class="cls-5" d="M240.37478,250.3726s-22.1759-6.9481-31.6511-50.172" transform="translate(-54.99796 -34.29117)"/><polyline class="cls-5" points="207.554 216.081 195.196 196.957 187.803 211.356"/><path class="cls-5" d="M291.13438,199.7635s.1608,25.6667-22.66,45.8834" transform="translate(-54.99796 -34.29117)"/><line class="cls-5" x1="195.14282" y1="192.33833" x2="220.59404" y2="163.82383"/><line class="cls-5" x1="157.80593" y1="150.71973" x2="182.42152" y2="178.15813"/><path class="cls-1" d="M175.24889,363.869S148.224,398.2427,145.81339,500H350.20378s4.6045-90.327-26.0176-136.5582C324.18618,363.4418,249.90428,378.771,175.24889,363.869Z" transform="translate(-54.99796 -34.29117)"/><line class="cls-8" x1="194.90632" y1="464.88893" x2="194.90632" y2="405.89033"/><line class="cls-8" x1="186.87604" y1="405.89033" x2="202.93672" y2="405.89033"/><path class="cls-9" d="M314.28088,287.5902s6.5774-2.3949,5.48112-9.5954c-1.09622-7.2005,1.58978-10.4134,5.84968-7.8431,4.26,2.5703,9.7411-3.0523,9.4975-10.6026s7.7954-8.9961,11.0841-3.3735c3.28872,5.6225,7.43,4.8193,10.3533,0,2.9232-4.8194,9.7442-9.1568,11.2059.3212,1.4616,9.4781.3654,13.0123,5.3593,13.6549s9.74422,9.1097-2.0707,19.7358c-11.8149,10.6262-11.8444,20.1976-23.5837,20.3116C335.71818,310.3131,304.902,301.9764,314.28088,287.5902Z" transform="translate(-54.99796 -34.29117)"/><path class="cls-5" d="M367.75248,256.4968c1.4616,9.4781.3654,13.0123,5.3593,13.6549s9.74422,9.1097-2.0707,19.7358" transform="translate(-54.99796 -34.29117)"/><path class="cls-5" d="M335.10918,259.5491c-.2436-7.5503,7.7954-8.9961,11.0841-3.3735,3.28872,5.6225,7.43,4.8193,10.3533,0,2.19242-3.6146,6.5773-6.958,9.24942-4.4053" transform="translate(-54.99796 -34.29117)"/><path class="cls-5" d="M314.28088,287.5902s6.5774-2.3949,5.48112-9.5954c-1.09622-7.2005,1.58978-10.4134,5.84968-7.8431" transform="translate(-54.99796 -34.29117)"/><path class="cls-10" d="M318.02478,301.1383s-2.5029-9.8433,3.1558-12.5703c5.6588-2.727,3.6388-6.3968,4.4311-9.4417.7924-3.045,4.71-2.3274,8.41-2.3274s3.7-11.7691,8.1617-12.3432,5.55,5.454,10.447,2.5835,5.8764-6.0281,8.9234-5.167c3.0471.8612.8706,11.3386,5.8765,13.4914,5.0058,2.1529,5.65872,9.56-1.85,16.7644-7.5088,7.2044-7.2911,16.3098-15.77928,18.0723C341.31278,311.9627,321.61518,304.2365,318.02478,301.1383Z" transform="translate(-54.99796 -34.29117)"/><path class="cls-5" d="M337.52118,271.7167c1.1096-3.2619,2.2145-6.946,4.6622-7.261,4.4617-.5741,5.55,5.454,10.447,2.5835s5.8764-6.0281,8.9234-5.167c3.0471.8612.8706,11.3386,5.8765,13.4914,5.0058,2.1529,5.65872,9.56-1.85,16.7644" transform="translate(-54.99796 -34.29117)"/><path class="cls-5" d="M318.02478,301.1383s-2.5029-9.8433,3.1558-12.5703c5.6588-2.727,3.6388-6.3968,4.4311-9.4417.7924-3.045,4.71-2.3274,8.41-2.3274" transform="translate(-54.99796 -34.29117)"/><path class="cls-9" d="M324.22768,303.5133s-1.9588-9.007,1.8499-10.2538c3.8088-1.2469,7.088-2.1777,7.9513-7.1663.8634-4.9885,5.2163-7.4285,9.02512-6.2803a8.93192,8.93192,0,0,0,10.12048-3.4446c2.6117-3.4446,8.9234-1.8039,9.0323,2.758.1088,4.5618,3.8747,3.472.64222,12.3644s-6.62752,18.3191-14.24512,18.6061C340.98638,310.3839,327.05708,307.8378,324.22768,303.5133Z" transform="translate(-54.99796 -34.29117)"/><path class="cls-5" d="M334.02888,286.0932c.8634-4.9885,5.2163-7.4285,9.02512-6.2803a8.93192,8.93192,0,0,0,10.12048-3.4446c2.6117-3.4446,8.9234-1.8039,9.0323,2.758" transform="translate(-54.99796 -34.29117)"/><path class="cls-5" d="M324.22768,303.5133s-1.9588-9.007,1.8499-10.2538c2.2026-.7211,4.2281-1.3364,5.7117-2.692" transform="translate(-54.99796 -34.29117)"/><path class="cls-10" d="M328.53578,308.7473s-1.5307-7.0385,1.4457-8.0129c2.9764-.9743,5.5388-1.7017,6.21352-5.6001.67468-3.8983,4.07628-5.805,7.05268-4.9077a6.97984,6.97984,0,0,0,7.9087-2.6918c2.0409-2.6918,6.9732-1.4097,7.0583,2.1552.085,3.5649,3.0279,2.7132.5018,9.6622-2.526,6.949-5.179,14.3155-11.1318,14.5398S330.74678,312.1267,328.53578,308.7473Z" transform="translate(-54.99796 -34.29117)"/><path class="cls-5" d="M343.24768,290.2266a6.97984,6.97984,0,0,0,7.9087-2.6918c2.0409-2.6918,6.9732-1.4097,7.0583,2.1552.085,3.5649,3.0279,2.7132.5018,9.6622" transform="translate(-54.99796 -34.29117)"/><path class="cls-5" d="M328.53578,308.7473s-1.5307-7.0385,1.4457-8.0129c2.9764-.9743,5.5388-1.7017,6.21352-5.6001" transform="translate(-54.99796 -34.29117)"/><path class="cls-1" d="M391.12988,281.4807s5.2744-10.7946.2093-17.4449a.95218.95218,0,0,0-.5551-.3502c-.9342-.2047-3.5346-.5484-5.2383,1.4393a.96851.96851,0,0,0-.0535,1.1875c1.3554,1.9232,5.4626,8.5472,2.59272,14.6576C388.085,280.97,390.05108,284.2176,391.12988,281.4807Z" transform="translate(-54.99796 -34.29117)"/><path class="cls-10" d="M380.87978,276.6287s-15.9839-9.3781-24.8084,7.5203c-8.4797,16.2384-10.86,45.0929,14.49662,42.1938a6.66737,6.66737,0,0,1,5.47708,1.8653c18.3164,17.7728,34.0421-6.5366,37.2361-24.5752,3.3237-18.7718-15.0615-21.0988-15.0615-21.0988S387.99528,281.5467,380.87978,276.6287Z" transform="translate(-54.99796 -34.29117)"/><path class="cls-5" d="M391.03058,281.1129a35.20035,35.20035,0,0,1-9.5515-4.0838,13.95742,13.95742,0,0,0-1.6758-.9485c-3.7304-1.7363-16.28228-6.1972-23.7319,8.0684" transform="translate(-54.99796 -34.29117)"/><path class="cls-5" d="M409.97618,288.7078c-4.5748-5.2647-11.7565-6.1737-11.7565-6.1737" transform="translate(-54.99796 -34.29117)"/><path class="cls-5" d="M401.47718,328.2316c6.0202-6.2268,10.3005-16.1075,11.804-24.5987" transform="translate(-54.99796 -34.29117)"/><path class="cls-5" d="M370.568,326.3428a6.66737,6.66737,0,0,1,5.47708,1.8653c6.059,5.8792,11.8345,7.1535,16.9667,5.5731" transform="translate(-54.99796 -34.29117)"/><path class="cls-9" d="M244.44618,274.3056s-21.5067,39.4402-7.5679,54.0123c13.9388,14.5722,22.091-26.5099,28.8592-37.4497,6.7681-10.9397,27.3823-25.9989,19.26252-39.5238C276.88028,237.8196,261.997,240.9951,244.44618,274.3056Z" transform="translate(-54.99796 -34.29117)"/><path class="cls-5" d="M240.40638,282.6939c-5.4557,12.4029-13.423,35.2795-3.5281,45.624,13.9388,14.5722,22.091-26.5099,28.8592-37.4497,3.8058-6.1515,11.9897-13.6057,16.9809-21.3571" transform="translate(-54.99796 -34.29117)"/><path class="cls-5" d="M285,251.3444c-8.11972-13.5248-23.003-10.3493-40.55382,22.9612" transform="translate(-54.99796 -34.29117)"/><path class="cls-10" d="M238.08628,323.1164a8.11126,8.11126,0,0,1-2.281-7.3023c.5576-2.7991,2.537-4.9083,3.9168-7.3139,2.7704-4.8301-.2376-10.4576,1.4534-15.5612,1.7376-5.2446,6.7261-8.2308,9.9758-12.4131a13.3742,13.3742,0,0,0,2.7812-7.4476,24.85279,24.85279,0,0,1,1.8168-8.396c2.7356-5.9868,8.0513-10.2852,13.1319-14.2294,1.2064-.9366,2.8102.8324,1.5943,1.7763-4.3662,3.3897-8.926,6.9757-11.7362,11.8345a18.25234,18.25234,0,0,0-2.31,7.7814,19.41891,19.41891,0,0,1-1.7589,7.6643c-2.40638,4.5777-7.1072,7.304-9.9239,11.5625a11.22225,11.22225,0,0,0-1.7628,7.0176c.1121,2.4945.6022,5.0015.2412,7.4974-.4276,2.9568-2.1646,5.1504-3.7102,7.6049-1.7274,2.7432-2.1324,5.8783.348,8.3303,1.0931,1.0806-.6871,2.6711-1.7764,1.5943Z" transform="translate(-54.99796 -34.29117)"/><path class="cls-10" d="M245.30138,319.4445a7.71139,7.71139,0,0,1,1.5932-3.4561,21.50066,21.50066,0,0,0,2.2275-2.7462c1.2402-2.1806,1.0315-4.8819.7927-7.2823a29.77274,29.77274,0,0,1-.2555-7.1977,13.47836,13.47836,0,0,1,3.1945-6.7565c3.2213-3.824,8.3008-6.6049,10.1395-11.4521.99772-2.63.77272-5.502,1.1396-8.2476a19.6143,19.6143,0,0,1,2.5668-7.3884c3.1102-5.2762,8.2449-8.9945,13.1838-12.4214,1.2453-.8641,2.8553.9014,1.5944,1.7763-4.373,3.0343-8.9362,6.2513-11.9834,10.7028a17.40276,17.40276,0,0,0-2.9527,7.2676c-.3913,2.6583-.2347,5.3782-.937,7.9927-1.3733,5.1126-5.9443,8.2063-9.4983,11.7473a13.43927,13.43927,0,0,0-3.9243,6.2091c-.5576,2.3246-.1818,4.7765.0541,7.1176.263,2.6108.5038,5.3933-.4724,7.8966-1.0292,2.6395-3.6335,4.1196-4.1893,6.9674-.2942,1.5078-2.5641.7615-2.2732-.7291Z" transform="translate(-54.99796 -34.29117)"/><path class="cls-9" d="M257.39178,298.8725s17.75822-41.2639,37.8267-39.2906c20.0684,1.9734-7.2239,33.7433-11.6542,45.8205-4.4302,12.0772-3.556,37.5911-19.209,39.5498C248.70228,346.911,242.015,333.2407,257.39178,298.8725Z" transform="translate(-54.99796 -34.29117)"/><path class="cls-5" d="M261.49848,290.5168c6.39152-11.9476,19.4736-32.3357,33.72-30.9349,20.0684,1.9734-7.2239,33.7433-11.6542,45.8205-2.4911,6.7912-3.3051,17.831-6.3235,26.5422" transform="translate(-54.99796 -34.29117)"/><path class="cls-5" d="M264.35528,344.9522c-15.653,1.9588-22.34028-11.7115-6.9635-46.0797" transform="translate(-54.99796 -34.29117)"/><path class="cls-10" d="M291.87138,263.7428a8.11072,8.11072,0,0,0-7.1533,2.7122c-1.8583,2.1663-2.29608,5.0255-3.3373,7.5959-2.0905,5.1609-8.3747,6.2674-11.3467,10.7478-3.054,4.604-2.3247,10.3721-3.6097,15.5103a13.37462,13.37462,0,0,1-4.14338,6.785,24.854,24.854,0,0,0-5.48472,6.6114c-3.0221,5.8474-3.12328,12.6827-3.0909,19.1146.00762,1.5272,2.3894,1.6973,2.38162.1581-.02782-5.5275-.02052-11.3285,2.068-16.5384a18.25267,18.25267,0,0,1,4.69678-6.6202,19.41753,19.41753,0,0,0,4.9448-6.1142c2.1165-4.7187,1.3603-10.1,2.9725-14.9446a11.22249,11.22249,0,0,1,4.4335-5.7182c2.0319-1.4513,4.3069-2.6131,6.0479-4.4375,2.0626-2.1614,2.7164-4.882,3.6937-7.613,1.0922-3.0522,3.309-5.3058,6.7691-4.8676,1.5249.1931,1.67772-2.1892.1581-2.3816Z" transform="translate(-54.99796 -34.29117)"/><path class="cls-10" d="M293.43538,271.686a7.71252,7.71252,0,0,0-1.736,3.3866,21.49289,21.49289,0,0,1-.7859,3.4475c-.9503,2.3217-3.20448,3.8248-5.2406,5.1183a29.77132,29.77132,0,0,0-5.8208,4.2414,13.47863,13.47863,0,0,0-3.3445,6.6835c-1.0207,4.8947-.07358,10.6077-2.75258,15.046-1.45362,2.4083-3.85222,4.0039-5.786,5.987a19.61427,19.61427,0,0,0-4.229,6.5798c-2.23182,5.7035-1.98832,12.0384-1.63642,18.0396.0888,1.513,2.4715,1.6901,2.3817.1581-.3116-5.3135-.5968-10.8894,1.025-16.0344a17.40482,17.40482,0,0,1,3.8958-6.8088c1.8501-1.9485,4.0868-3.504,5.7105-5.6702,3.175-4.236,2.788-9.7419,3.3805-14.7238a13.44023,13.44023,0,0,1,2.4634-6.9199c1.4849-1.8734,3.6461-3.091,5.6336-4.3504,2.2165-1.4043,4.5545-2.9322,5.9216-5.2453,1.4416-2.439.9987-5.4015,2.8964-7.5965,1.0048-1.1621-.9834-2.4874-1.9767-1.3385Z" transform="translate(-54.99796 -34.29117)"/><path class="cls-9" d="M97.92819,290.0378s12.82381-3.5403,10.6865-14.1846,3.0995-15.3938,11.4051-11.5942c8.3055,3.7996,18.9919-4.5121,18.517-15.6735-.475-11.1614,15.1985-13.2987,21.6104-4.987s14.4861,7.1243,20.1855,0c5.6995-7.1243,18.9982-13.5362,21.8479.475,2.84969,14.0111.71241,19.2356,10.449,20.1855s18.9982,13.4666-4.0371,29.1749-23.09289,29.8574-45.98059,30.0259S79.64249,311.3044,97.92819,290.0378Z" transform="translate(-54.99796 -34.29117)"/><path class="cls-5" d="M202.18059,244.0735c2.84969,14.0111.71241,19.2356,10.449,20.1855s18.9982,13.4666-4.0371,29.1749" transform="translate(-54.99796 -34.29117)"/><path class="cls-5" d="M138.53679,248.5855c-.475-11.1614,15.1985-13.2987,21.6104-4.987s14.4861,7.1243,20.1855,0c4.2746-5.3432,12.8238-10.2857,18.0334-6.5121" transform="translate(-54.99796 -34.29117)"/><path class="cls-5" d="M97.92819,290.0378s12.82381-3.5403,10.6865-14.1846,3.0995-15.3938,11.4051-11.5942" transform="translate(-54.99796 -34.29117)"/><path class="cls-10" d="M105.22759,310.0654s-4.8799-14.551,6.1529-18.5822,7.0944-9.4561,8.6393-13.9574c1.5448-4.5013,9.1829-3.4404,16.3967-3.4404,7.2137,0,7.2137-17.3979,15.9127-18.2466,8.6989-.8487,10.8206,8.0624,20.3682,3.819,9.54761-4.2433,11.4572-8.9111,17.3979-7.638,5.94071,1.273,1.6974,16.7613,11.4571,19.9439,9.75979,3.1825,11.03279,14.1321-3.6068,24.7822-14.6397,10.65-14.2154,24.1103-30.76459,26.7156S112.22779,314.6455,105.22759,310.0654Z" transform="translate(-54.99796 -34.29117)"/><path class="cls-5" d="M143.23939,266.5725c2.1634-4.822,4.31761-10.2681,9.0898-10.7337,8.6989-.8487,10.8206,8.0624,20.3682,3.819,9.54761-4.2433,11.4572-8.9111,17.3979-7.638,5.94071,1.273,1.6974,16.7613,11.4571,19.9439,9.75979,3.1825,11.03279,14.1321-3.6068,24.7822" transform="translate(-54.99796 -34.29117)"/><path class="cls-5" d="M105.22759,310.0654s-4.8799-14.551,6.1529-18.5822,7.0944-9.4561,8.6393-13.9574c1.5448-4.5013,9.1829-3.4404,16.3967-3.4404" transform="translate(-54.99796 -34.29117)"/><path class="cls-9" d="M117.32129,313.5764s-3.8191-13.3147,3.6068-15.1579c7.426-1.8432,13.8192-3.2192,15.5025-10.5936,1.6832-7.3745,10.17-10.9813,17.5959-9.284,7.426,1.6974,14.6397,0,19.7318-5.0921,5.092-5.092,17.3978-2.6667,17.61,4.077s7.5544,5.1326,1.2521,18.278c-6.3022,13.1454-12.92139,27.0805-27.7732,27.5048C149.99529,323.733,122.83769,319.9691,117.32129,313.5764Z" transform="translate(-54.99796 -34.29117)"/><path class="cls-5" d="M136.43059,287.8249c1.6832-7.3745,10.17-10.9813,17.5959-9.284,7.426,1.6974,14.6397,0,19.7318-5.0921,5.092-5.092,17.3978-2.6667,17.61,4.077" transform="translate(-54.99796 -34.29117)"/><path class="cls-5" d="M117.32129,313.5764s-3.8191-13.3147,3.6068-15.1579c4.2944-1.0659,8.2434-1.9756,11.13591-3.9794" transform="translate(-54.99796 -34.29117)"/><path class="cls-10" d="M125.72069,321.3137s-2.9844-10.4049,2.8186-11.8452c5.803-1.4404,10.7991-2.5157,12.1144-8.2785,1.3154-5.7627,7.9474-8.5813,13.7505-7.2549,5.803,1.3264,11.4402,0,15.4194-3.9792s13.5956-2.0839,13.76141,3.1859c.16579,5.2699,5.90339,4.0109.97849,14.2834-4.925,10.2725-10.09749,21.1621-21.70349,21.4937C151.25389,329.2505,130.03149,326.3092,125.72069,321.3137Z" transform="translate(-54.99796 -34.29117)"/><path class="cls-5" d="M154.40419,293.9351c5.803,1.3264,11.4402,0,15.4194-3.9792s13.5956-2.0839,13.76141,3.1859c.16579,5.2699,5.90339,4.0109.97849,14.2834" transform="translate(-54.99796 -34.29117)"/><path class="cls-5" d="M125.72069,321.3137s-2.9844-10.4049,2.8186-11.8452c5.803-1.4404,10.7991-2.5157,12.1144-8.2785" transform="translate(-54.99796 -34.29117)"/><path class="cls-3" d="M188.50929,302.0436c.682,16.3957-7.9616,32.941-28.452,30.922-20.4249,4.099-30.24-12.0563-30.922-28.452-.6821-16.3957,6.3516-30.7633,28.452-30.922C180.90559,270.9161,187.82719,285.648,188.50929,302.0436Z" transform="translate(-54.99796 -34.29117)"/><path class="cls-9" d="M154.39319,279.8734c-.3645-1.5281,1.4944-3.6295,1.4944-3.6295a11.13816,11.13816,0,0,1,5.5238,2.9254,24.71549,24.71549,0,0,1,6.87361-1.0618c-1.23811,2.8475-4.80841,4.6721-4.80841,4.6721.656,2.138,1.3419,5.3051,1.3419,5.3051-5.2007-.0668-7.2603-3.0794-7.2603-3.0794-2.5737,3.6192-8.1338,4.1817-8.1338,4.1817a7.0607,7.0607,0,0,1,2.6841-5.0206s-3.9004-1.477-4.90649-2.6956C147.202,281.4708,152.34529,279.2205,154.39319,279.8734Z" transform="translate(-54.99796 -34.29117)"/><path class="cls-5" d="M172.106,274.5861s11.38,1.7671,15.36459,18.8485" transform="translate(-54.99796 -34.29117)"/><path class="cls-5" d="M129.14429,300.1638s-2.7372,18.2855,12.1269,29.7831c0,0,7.22181,4.8861,18.7861,3.0187" transform="translate(-54.99796 -34.29117)"/><path class="cls-11" d="M90.41229,281.4706s.5068-9.2238,2.2299-14.4946c0,0-1.0136-3.0409-3.8517-.4055,0,0-3.7504,8.3116-1.9259,15.8124C88.68919,289.8836,90.169,284.5809,90.41229,281.4706Z" transform="translate(-54.99796 -34.29117)"/><path class="cls-6" d="M137.98349,342.5971s10.2697-27.885-17.73849-43.523c0,0-8.63591-5.1348-12.83711-9.3361-4.2013-4.2012-7.0021-14.7043-19.6058-11.6701-12.6038,3.0343-5.6017,15.8714-11.9035,28.7085-6.3019,12.8371-2.3489,62.8186,30.8008,60.9242C134.95909,366.0857,137.98349,342.5971,137.98349,342.5971Z" transform="translate(-54.99796 -34.29117)"/><path class="cls-5" d="M137.98349,342.5971s10.2697-27.885-17.73849-43.523c0,0-8.63591-5.1348-12.83711-9.3361-4.2013-4.2012-7.0021-14.7043-19.6058-11.6701-12.6038,3.0343-5.6017,15.8714-11.9035,28.7085-3.3015,6.7253-3.7885,23.6454,1.2629,37.96" transform="translate(-54.99796 -34.29117)"/><path class="cls-3" d="M148.991,326.4454c-3.35931,16.0623-15.79631,29.9828-35.166,23.0008-20.80641-1.0348-26.36021-19.1037-23.00081-35.166,3.3593-16.0623,13.7014-28.2665,35.166-23.0008C149.25259,294.4037,152.35029,310.3831,148.991,326.4454Z" transform="translate(-54.99796 -34.29117)"/><path class="cls-9" d="M121.35319,296.5861c.0213-1.5708,2.33881-3.1522,2.33881-3.1522a11.13836,11.13836,0,0,1,4.63779,4.1906,24.71275,24.71275,0,0,1,6.924.6562c-1.8985,2.4569-5.8072,3.3503-5.8072,3.3503.1116,2.2336,0,5.4722,0,5.4722-5.02559-1.3401-6.2835-4.7658-6.2835-4.7658-3.3826,2.8776-8.9109,2.0595-8.9109,2.0595a7.06066,7.06066,0,0,1,3.8333-4.2092s-3.4192-2.3883-4.0956-3.8164C113.98989,296.3713,119.52789,295.451,121.35319,296.5861Z" transform="translate(-54.99796 -34.29117)"/><path class="cls-5" d="M91.89959,310.0654s-7.1377,17.056,4.4532,31.8476c0,0,5.8031,6.5078,17.47221,7.5332" transform="translate(-54.99796 -34.29117)"/><path class="cls-5" d="M128.37169,291.6577s7.5877,1.0248,11.4501,4.1461c0,0,10.59921,4.5037,10.2734,22.0407" transform="translate(-54.99796 -34.29117)"/><path class="cls-11" d="M164.84179,302.3633s-.50679-9.2239-2.2299-14.4947c0,0,1.0136-3.0408,3.8517-.4054,0,0,3.75041,8.3116,1.9259,15.8124C166.565,310.7763,165.08509,305.4736,164.84179,302.3633Z" transform="translate(-54.99796 -34.29117)"/><path class="cls-10" d="M117.27059,363.4898s-10.2697-27.885,17.7385-43.523c0,0,8.63591-5.1348,12.8372-9.3361,4.2012-4.2012,7.002-14.7043,19.60571-11.6701,12.60379,3.0342,5.60169,15.8714,11.90359,28.7085,6.3018,12.8371,2.3488,62.8185-30.8008,60.9242C120.295,386.9784,117.27059,363.4898,117.27059,363.4898Z" transform="translate(-54.99796 -34.29117)"/><path class="cls-5" d="M117.27059,363.4898s-10.2697-27.885,17.7385-43.523c0,0,8.63591-5.1348,12.8372-9.3361,4.2012-4.2012,7.002-14.7043,19.60571-11.6701,12.60379,3.0342,5.60169,15.8714,11.90359,28.7085,3.3015,6.7253,3.78841,23.6454-1.2629,37.96" transform="translate(-54.99796 -34.29117)"/><circle class="cls-6" cx="156.72333" cy="255.25043" r="15.5414"/><path class="cls-5" d="M196.17989,289.5416a15.5414,15.5414,0,1,1,31.08279,0" transform="translate(-54.99796 -34.29117)"/><circle class="cls-5" cx="153.48104" cy="246.77633" r="1.216"/><circle class="cls-5" cx="162.25363" cy="251.37973" r="1.216"/><circle class="cls-5" cx="160.69023" cy="245.56033" r="1.216"/><circle class="cls-6" cx="235.49854" cy="292.02095" r="15.5414" transform="translate(-160.00402 100.27371) rotate(-26.29901)"/><path class="cls-5" d="M232.97738,307.3565a15.54141,15.54141,0,0,1,5.0423-30.6711" transform="translate(-54.99796 -34.29117)"/><path class="cls-5" d="M226.808,292.6457a1.216,1.216,0,1,1-1.39722,1.0026A1.216,1.216,0,0,1,226.808,292.6457Z" transform="translate(-54.99796 -34.29117)"/><path class="cls-5" d="M232.77348,284.7361a1.216,1.216,0,1,1-1.3971,1.0026A1.21594,1.21594,0,0,1,232.77348,284.7361Z" transform="translate(-54.99796 -34.29117)"/><path class="cls-5" d="M226.77748,285.3348a1.216,1.216,0,1,1-1.3971,1.0026A1.216,1.216,0,0,1,226.77748,285.3348Z" transform="translate(-54.99796 -34.29117)"/><path class="cls-12" d="M167.46089,325.6723s18.6493-34.464,51.81769-32.4843c33.1685,1.9797,48.5219-12.0259,57.4439.504,8.9219,12.5299,22.0359,28.007-.2381,40.5679S151.37769,379.8953,167.46089,325.6723Z" transform="translate(-54.99796 -34.29117)"/><path class="cls-5" d="M276.72248,293.692c8.9219,12.5299,22.0359,28.007-.2381,40.5679" transform="translate(-54.99796 -34.29117)"/><path class="cls-5" d="M167.46089,325.6723s18.6493-34.464,51.81769-32.4843c24.6136,1.4691,39.4168-5.8646,49.0615-4.625" transform="translate(-54.99796 -34.29117)"/><path class="cls-13" d="M263.49188,298.1429c.1656,1.1917-1.6434,2.4278-4.0405,2.7609s-4.4746-.3629-4.6402-1.5546,1.6434-2.4278,4.0405-2.7609S263.32628,296.9512,263.49188,298.1429Z" transform="translate(-54.99796 -34.29117)"/><path class="cls-13" d="M207.62438,304.8694c.16562,1.1917-1.64338,2.4277-4.04049,2.7608-2.3971.3332-4.4746-.3629-4.6402-1.5546s1.6434-2.4278,4.0405-2.7609S207.45878,303.6777,207.62438,304.8694Z" transform="translate(-54.99796 -34.29117)"/><path class="cls-13" d="M222.89878,319.2394c.1656,1.1917-1.6434,2.4278-4.0405,2.7609s-4.4746-.3629-4.6402-1.5546,1.6434-2.4278,4.0405-2.7609S222.73318,318.0477,222.89878,319.2394Z" transform="translate(-54.99796 -34.29117)"/><path class="cls-13" d="M240.17648,302.4774c.2798,2.0137-2.777,4.1024-6.8276,4.6653s-7.5611-.6132-7.84088-2.627c-.27982-2.0137,2.777-4.1024,6.82758-4.6653C236.38608,299.2876,239.89658,300.4637,240.17648,302.4774Z" transform="translate(-54.99796 -34.29117)"/><path class="cls-13" d="M262.69858,319.6855c.5167,3.7181-5.1274,7.5747-12.6064,8.614-7.4789,1.0393-13.9607-1.1323-14.4774-4.8504-.5166-3.7181,5.1274-7.5747,12.6064-8.614S262.18188,315.9674,262.69858,319.6855Z" transform="translate(-54.99796 -34.29117)"/><path class="cls-13" d="M203.64719,321.9146c.51669,3.7181-5.1274,7.5747-12.6064,8.614-7.4789,1.0393-13.9607-1.1323-14.4774-4.8504-.5166-3.7181,5.1274-7.5747,12.6064-8.614S203.13049,318.1965,203.64719,321.9146Z" transform="translate(-54.99796 -34.29117)"/><line class="cls-5" x1="219.61372" y1="267.93763" x2="224.99532" y2="272.27993"/><line class="cls-5" x1="222.46722" y1="267.54113" x2="221.53052" y2="272.76143"/><path class="cls-9" d="M416.08128,275.1465s2.8441-7.9366,2.501-9.8652c-.343-1.9286,3.58172-.6371,3.94472,1.0037.36288,1.6409,1.65338,1.4824,3.61708.8488,1.9637-.6335,4.1573.1132,4.4146,1.5597.25732,1.4464,1.2507,1.8382,3.7181,1.3282s3.00022.8875,3.2697,2.4028c.2696,1.5154,2.01152.9213,3.1824.713,1.171-.2083,2.61312,2.3064.13512,3.9552-2.47792,1.6488-7.75412,5.814-8.43932,9.6164C431.73958,290.5115,413.82758,279.212,416.08128,275.1465Z" transform="translate(-54.99796 -34.29117)"/><path class="cls-12" d="M372.50938,372.6267a2.2842,2.2842,0,0,0,3.8254,2.093c12.8455-12.3824,45.7969-45.0278,55.949-63.5825,12.7083-23.2267-5.63578-32.9166-5.63578-32.9166s-18.05192-10.2238-30.76022,13.0029C385.73578,309.7782,376.01088,355.1318,372.50938,372.6267Z" transform="translate(-54.99796 -34.29117)"/><path class="cls-13" d="M432.28378,311.1372a71.53771,71.53771,0,0,0-14.4221-9.3912,98.79554,98.79554,0,0,1,12.1099,13.2631S431.91718,311.82,432.28378,311.1372Z" transform="translate(-54.99796 -34.29117)"/><path class="cls-13" d="M388.78648,308.3001a77.35219,77.35219,0,0,1,13.7756,9.2405s-6.397-.8173-15.0264-5.4663C387.53568,312.0743,388.51178,309.1013,388.78648,308.3001Z" transform="translate(-54.99796 -34.29117)"/><path class="cls-13" d="M401.76228,283.0123s4.9962,1.1682,13.2203,5.7731a36.277,36.277,0,0,0-10.1312-8.5361A39.3115,39.3115,0,0,0,401.76228,283.0123Z" transform="translate(-54.99796 -34.29117)"/><path class="cls-13" d="M397.34368,353.7006a79.7009,79.7009,0,0,0-6.8835-8.95,40.60525,40.60525,0,0,1,9.7271,5.9721Z" transform="translate(-54.99796 -34.29117)"/><path class="cls-5" d="M376.33478,374.7197c12.8455-12.3824,45.7969-45.0278,55.949-63.5825" transform="translate(-54.99796 -34.29117)"/><path class="cls-5" d="M372.50938,372.6267" transform="translate(-54.99796 -34.29117)"/><path class="cls-5" d="M426.648,278.2206s-18.05192-10.2238-30.76022,13.0029c-1.9997,3.6547-10.9477,25.7078-13.9426,40.1855" transform="translate(-54.99796 -34.29117)"/><path class="cls-6" d="M305.58718,270.5613s-22.1893,6.0213-29.2897,45.3227c-5.9676,33.0312,27.3202,51.568,47.161,49.7149,19.8407-1.8532,8.9147-15.7203,4.22152-17.2691s-24.93842-15.9132-21.59252-31.6852c3.3459-15.7719,18.976-31.3178,11.7526-42.4212,0,0-.2138-.9956,6.0261-6.5146a1.268,1.268,0,0,0,.38782-1.3047c-.37992-1.2302-1.52592-3.7052-4.91872-6.228a1.16881,1.16881,0,0,0-1.6614.3447,68.8756,68.8756,0,0,0-5.60488,10.271A12.25012,12.25012,0,0,0,305.58718,270.5613Z" transform="translate(-54.99796 -34.29117)"/><path class="cls-5" d="M319.69978,358.785a75.09,75.09,0,0,0,9.0367,1.5867" transform="translate(-54.99796 -34.29117)"/><path class="cls-5" d="M286.03768,311.2447c-2.8149,18.9619,5.0817,38.1833,28.4564,46.044" transform="translate(-54.99796 -34.29117)"/><path class="cls-5" d="M305.58718,270.5613s5.236-1.6052,9.4047,1.9181" transform="translate(-54.99796 -34.29117)"/><path class="cls-5" d="M310.48388,304.6464s-5.2918,10.3262-4.7347,16.5925c.428,4.8149,2.3549,9.5709,6.3674,14.5408" transform="translate(-54.99796 -34.29117)"/><path class="cls-5" d="M277.79548,308.9024s-5.8571,18.1654,2.1874,32.4133" transform="translate(-54.99796 -34.29117)"/><path class="cls-5" d="M322.42688,263.109a10.70946,10.70946,0,0,1,1.82712,3.2951c.23778,1.2911-.75012,1.3817-1.38122,2.1942" transform="translate(-54.99796 -34.29117)"/><path class="cls-5" d="M331.21278,363.6695s-9.4704,5.1617-25.1024-.6833" transform="translate(-54.99796 -34.29117)"/><path class="cls-5" d="M317.43528,341.3653s5.3908,4.8482,10.24472,6.9645a11.719,11.719,0,0,1,5.12408,4.3565" transform="translate(-54.99796 -34.29117)"/><path class="cls-5" d="M309.77278,273.6567s-14.3889,5.033-21.9395,29.6823" transform="translate(-54.99796 -34.29117)"/><path class="cls-6" d="M347.98488,282.0551s-22.1978-5.9899-48.1481,24.3678c-21.8102,25.5145-2.4126,58.3081,15.65522,66.7131s15.62568-9.0796,12.35388-12.7837c-3.2717-3.7041-13.5107-26.3176-2.66788-38.2501,10.84288-11.9324,32.17948-17.475,31.54108-30.7059,0,0,.3174-.9675,8.48892-2.5867a1.26809,1.26809,0,0,0,.99278-.9311c.2923-1.2539.5508-3.9691-1.10678-7.8586a1.169,1.169,0,0,0-1.60862-.5401,68.87789,68.87789,0,0,0-10.0195,6.043A12.24933,12.24933,0,0,0,347.98488,282.0551Z" transform="translate(-54.99796 -34.29117)"/><path class="cls-5" d="M315.68228,365.3566a75.116,75.116,0,0,0,7.0034,5.9272" transform="translate(-54.99796 -34.29117)"/><path class="cls-5" d="M310.58728,307.3285c-11.9929,14.9549-14.8667,35.5354,1.3542,54.1108" transform="translate(-54.99796 -34.29117)"/><path class="cls-5" d="M347.98488,282.0551s5.3309,1.2543,7.15412,6.399" transform="translate(-54.99796 -34.29117)"/><path class="cls-5" d="M335.025,313.9583s-9.777,6.2485-12.45592,11.9407c-2.0584,4.3737-2.7928,9.4524-1.83408,15.7675" transform="translate(-54.99796 -34.29117)"/><path class="cls-5" d="M325.11968,286.5347S292.937,300.46,290.19458,330.2428" transform="translate(-54.99796 -34.29117)"/><path class="cls-5" d="M366.28468,284.1116a10.71,10.71,0,0,1-.0839,3.7669c-.44578,1.2348-1.3445.8149-2.2992,1.1983" transform="translate(-54.99796 -34.29117)"/><path class="cls-5" d="M323.16108,375.3803s-10.7809-.3184-21.3323-13.2486" transform="translate(-54.99796 -34.29117)"/><path class="cls-5" d="M322.51118,349.172s2.2104,6.9051,5.3347,11.1803a11.71922,11.71922,0,0,1,2.228,6.346" transform="translate(-54.99796 -34.29117)"/><path class="cls-5" d="M350.03838,286.8388s-14.9635-2.9098-33.9139,14.5683" transform="translate(-54.99796 -34.29117)"/><path class="cls-1" d="M347.18988,305.5338s-1.41-11.9313-9.2691-14.7802a.95256.95256,0,0,0-.6563.0062c-.8963.3337-3.2686,1.4526-3.6249,4.0462a.96876.96876,0,0,0,.598,1.0274c2.1808.883,9.2203,4.2285,10.1158,10.9196C344.35338,306.753,347.76468,308.4189,347.18988,305.5338Z" transform="translate(-54.99796 -34.29117)"/><path class="cls-3" d="M335.94508,307.0041s-18.516.7694-16.7859,19.7546c1.6624,18.2435,15.2837,43.7917,35.0326,27.6256a6.66708,6.66708,0,0,1,5.6148-1.3971c25.0222,5.0255,25.0819-23.9269,18.0007-40.8221-7.3691-17.582-24.08628-9.5842-24.08628-9.5842S344.59018,307.2864,335.94508,307.0041Z" transform="translate(-54.99796 -34.29117)"/><path class="cls-5" d="M346.90718,305.2783a35.19514,35.19514,0,0,1-10.2414,1.738,13.98272,13.98272,0,0,0-1.9225.1098c-4.0764.56-17.0446,3.6053-15.5841,19.6326" transform="translate(-54.99796 -34.29117)"/><path class="cls-5" d="M366.94788,301.4062c-6.6968-1.9494-13.22688,1.1747-13.22688,1.1747" transform="translate(-54.99796 -34.29117)"/><path class="cls-5" d="M381.20138,339.2374c1.6902-8.4947-.0608-19.1193-3.3941-27.0723" transform="translate(-54.99796 -34.29117)"/><path class="cls-5" d="M354.19178,354.3843a6.66708,6.66708,0,0,1,5.6148-1.3971c8.2773,1.6624,13.823-.3932,17.2822-4.5006" transform="translate(-54.99796 -34.29117)"/><path class="cls-14" d="M368.319,447.0138H129.08739c-26.58,0-48.6598-18.8816-50.6251-43.2923l-5.2644-65.3898,350.93279.9663-5.1866,64.4235C416.97878,428.1322,394.89908,447.0138,368.319,447.0138Z" transform="translate(-54.99796 -34.29117)"/><rect class="cls-14" x="7.66123" y="297.54513" width="372.08799" height="17.5266" rx="3.0653"/><line class="cls-5" x1="16.73823" y1="315.07173" x2="347.82182" y2="315.07173"/><line class="cls-5" x1="323.40662" y1="315.07173" x2="273.67592" y2="412.72263"/><line class="cls-5" x1="367.74242" y1="315.07173" x2="318.01172" y2="412.72263"/><line class="cls-5" x1="234.73504" y1="315.07173" x2="185.00432" y2="412.72263"/><line class="cls-5" x1="279.07082" y1="315.07173" x2="229.34012" y2="412.72263"/><line class="cls-5" x1="146.06353" y1="315.07173" x2="96.33273" y2="412.72263"/><line class="cls-5" x1="190.39922" y1="315.07173" x2="140.66853" y2="412.72263"/><line class="cls-5" x1="57.39193" y1="315.07173" x2="25.14363" y2="378.39423"/><line class="cls-5" x1="101.72773" y1="315.07173" x2="53.94823" y2="408.89123"/><path class="cls-5" d="M409.98088,426.9757s-11.2556,7.6648-26.7664,0c0,0-28.565,11.8759-44.3971,0,0,0-24.3889,9.8706-44.2745,0,0,0-25.4975,11.2743-44.3488,0,0,0-26.5893,10.0712-43.776,0,0,0-25.65408,11.0738-44.88259,0,0,0-26.2878,10.6728-44.7162,0,0,0-14.7725,3.257-29.4995,0" transform="translate(-54.99796 -34.29117)"/><path class="cls-5" d="M424.39278,399.3878s-11.2556,7.6648-26.7664,0c0,0-28.565,11.8759-44.3971,0,0,0-24.389,9.8706-44.2745,0,0,0-25.4975,11.2743-44.34878,0,0,0-26.58932,10.0712-43.77612,0,0,0-25.654,11.0738-44.88249,0,0,0-26.2878,10.6728-44.7162,0,0,0-24.5568,6.9562-44.3175,0" transform="translate(-54.99796 -34.29117)"/><path class="cls-5" d="M410.24718,374.3478s-28.5649,11.876-44.3971,0c0,0-24.3889,9.8707-44.2745,0,0,0-25.4975,11.2744-44.3488,0,0,0-26.5892,10.0712-43.776,0,0,0-25.6541,11.0738-44.88249,0,0,0-26.2879,10.6728-44.71629,0,0,0-24.55681,6.9562-44.31751,0,0,0-8.8211,2.5246-22.7149,1.0125" transform="translate(-54.99796 -34.29117)"/><path class="cls-2" d="M72.56839,423.7238s22.60161-4.9346,15.145-17.3798c0,0,5.6178-3.4925,5.19961-8.9456-.41861-5.4541-3.12891-6.1041-3.12891-6.1041s6.0057-3.5344,5.0041-9.1131c-1.0015-5.5776-7.4684-6.8209-7.4684-6.8209s5.7985-6.4587-.906-10.4529c-6.7036-3.994-12.8045-.2215-17.023,1.5093-4.219,1.7304-18.87179,12.7861-11.6071,17.6486,0,0-7.0253,8.9925,2.1994,13.5312,0,0-8.4917,13.7115,2.4616,16.7969a9.1491,9.1491,0,0,0,.4688,7.6502C65.03129,426.2508,71.01289,424.3102,72.56839,423.7238Z" transform="translate(-54.99796 -34.29117)"/><path class="cls-5" d="M58.22679,375.3233c-2.55879,3.2289-3.6296,6.5879-.41879,8.7371,0,0-7.02511,8.9923,2.19949,13.531,0,0-8.4916,13.7115,2.4616,16.7969a9.14955,9.14955,0,0,0,.4688,7.6502c2.1177,4.2073,8.0995,2.2666,9.6549,1.6802" transform="translate(-54.99796 -34.29117)"/><path class="cls-5" d="M87.71339,406.344s5.6178-3.4925,5.19961-8.9456c-.41861-5.4541-3.12891-6.1041-3.12891-6.1041s6.0057-3.5344,5.0041-9.1131c-1.0015-5.5776-7.4684-6.8209-7.4684-6.8209s5.7985-6.4587-.906-10.4529c-6.7036-3.994-12.8045-.2215-17.023,1.5093" transform="translate(-54.99796 -34.29117)"/><line class="cls-5" x1="32.71543" y1="372.05283" x2="10.92783" y2="378.30973"/><line class="cls-5" x1="34.78613" y1="357.00313" x2="10.55204" y2="363.52043"/><line class="cls-5" x1="32.32183" y1="341.06913" x2="9.39543" y2="349.48893"/><path class="cls-3" d="M77.36129,368.3058a27.1138,27.1138,0,0,0,1.8975,5.4093,1.56821,1.56821,0,0,0,1.7856.8187c1.65961-.4286,4.4209-1.5958,4.135-4.5899-.3581-3.7518-4.0249-4.8557-6.9485-3.4578A1.59645,1.59645,0,0,0,77.36129,368.3058Z" transform="translate(-54.99796 -34.29117)"/><path class="cls-3" d="M83.89949,381.8149a27.11246,27.11246,0,0,0,1.6747,5.4824,1.56817,1.56817,0,0,0,1.7506.891c1.6758-.3604,4.4825-1.4138,4.3193-4.417-.2045-3.7633-3.82309-5.0162-6.8014-3.739A1.59636,1.59636,0,0,0,83.89949,381.8149Z" transform="translate(-54.99796 -34.29117)"/><path class="cls-3" d="M83.10339,397.5533a24.01579,24.01579,0,0,0,1.4838,4.8572,1.3893,1.3893,0,0,0,1.5509.7894c1.4847-.3193,3.9713-1.2526,3.8267-3.9134-.1811-3.3341-3.387-4.4442-6.02579-3.3126A1.41442,1.41442,0,0,0,83.10339,397.5533Z" transform="translate(-54.99796 -34.29117)"/><path class="cls-3" d="M81.934,410.3763a20.212,20.212,0,0,0,1.24869,4.0877,1.16937,1.16937,0,0,0,1.3052.6644c1.2495-.2688,3.34211-1.0542,3.2205-3.2934-.1525-2.8059-2.8505-3.7401-5.0711-2.7878A1.19039,1.19039,0,0,0,81.934,410.3763Z" transform="translate(-54.99796 -34.29117)"/><path class="cls-2" d="M423.122,423.5223s-22.90282-3.263-16.37942-16.2218c0,0-5.8588-3.0709-5.8418-8.54.0173-5.4701,2.6727-6.3172,2.6727-6.3172s-6.2488-3.0843-5.6592-8.7215c.5895-5.636,6.9478-7.3504,6.9478-7.3504s-6.2567-6.0159.1367-10.4912c6.3926-4.475,12.7538-1.1602,17.0879.2564,4.3346,1.4162,19.7589,11.3672,12.8705,16.7495,0,0,7.6661,8.4528-1.2007,13.6561,0,0,9.4747,13.0515-1.2226,16.9322a9.14962,9.14962,0,0,1,.0937,7.664C430.82408,425.4896,424.71628,423.9931,423.122,423.5223Z" transform="translate(-54.99796 -34.29117)"/><path class="cls-5" d="M433.87408,374.2002c2.7887,3.0325,4.1031,6.3038,1.0586,8.6828,0,0,7.6659,8.4527-1.2009,13.6559,0,0,9.4746,13.0516-1.2227,16.9322a9.14918,9.14918,0,0,1,.0937,7.664c-1.8033,4.3513-7.9113,2.8547-9.5056,2.384" transform="translate(-54.99796 -34.29117)"/><path class="cls-5" d="M406.74258,407.3005s-5.8588-3.0709-5.8418-8.54c.0173-5.4701,2.6727-6.3172,2.6727-6.3172s-6.2488-3.0843-5.6592-8.7215c.5895-5.636,6.9478-7.3504,6.9478-7.3504s-6.2567-6.0159.1367-10.4912c6.3926-4.475,12.7538-1.1602,17.0879.2564" transform="translate(-54.99796 -34.29117)"/><line class="cls-5" x1="351.74462" y1="373.00933" x2="373.93262" y2="377.65093"/><line class="cls-5" x1="348.57552" y1="358.15213" x2="373.22242" y2="362.87393"/><line class="cls-5" x1="349.86412" y1="342.08023" x2="373.34652" y2="348.79543"/><path class="cls-3" d="M414.27618,368.6053a27.11386,27.11386,0,0,1-1.4955,5.534,1.56828,1.56828,0,0,1-1.72068.9475c-1.68662-.3057-4.526-1.2672-4.46072-4.2742.082-3.768,3.6579-5.1379,6.6762-3.9583A1.59641,1.59641,0,0,1,414.27618,368.6053Z" transform="translate(-54.99796 -34.29117)"/><path class="cls-3" d="M408.74678,382.5577a27.11252,27.11252,0,0,1-1.268,5.5905,1.5685,1.5685,0,0,1-1.6806,1.0171c-1.6976-.2366-4.574-1.0812-4.6316-4.0883-.0722-3.7682,3.4447-5.2832,6.5087-4.2279A1.59646,1.59646,0,0,1,408.74678,382.5577Z" transform="translate(-54.99796 -34.29117)"/><path class="cls-3" d="M410.69538,398.1953a24.02136,24.02136,0,0,1-1.1235,4.9529,1.38926,1.38926,0,0,1-1.48888.9011c-1.504-.2095-4.05242-.9578-4.10352-3.6221-.0639-3.3384,3.0519-4.6807,5.7666-3.7457A1.41449,1.41449,0,0,1,410.69538,398.1953Z" transform="translate(-54.99796 -34.29117)"/><path class="cls-3" d="M412.80228,410.898a20.21246,20.21246,0,0,1-.9454,4.1682,1.16927,1.16927,0,0,1-1.253.7584c-1.2658-.1764-3.4104-.8062-3.4534-3.0483-.0538-2.8095,2.5684-3.9391,4.8529-3.1523A1.19033,1.19033,0,0,1,412.80228,410.898Z" transform="translate(-54.99796 -34.29117)"/></svg>