<svg id="OBJECTS" xmlns="http://www.w3.org/2000/svg" viewBox="0 0 870.24548 912.5177"><defs><style>.cls-1{fill:#546d0f;}.cls-2{fill:#677c18;}.cls-3{fill:#728e19;}.cls-4{fill:#97aa26;}.cls-5{fill:#dd6b2a;}.cls-6{fill:#e05828;}.cls-7{fill:#e29856;}.cls-8{fill:#ce4328;}.cls-9{fill:#dbcf9c;}.cls-10{fill:#eae0b5;}.cls-11{fill:#ddd3a6;}.cls-12{fill:#bcad6c;}.cls-13{fill:#5067d8;}.cls-14{fill:#455fba;}.cls-15{fill:#b2a364;}.cls-16{fill:#a5975b;}.cls-17{fill:#fff;}.cls-18{fill:#f7f0d2;}.cls-19{fill:#839b1f;}.cls-20{fill:#bcad6d;opacity:0.2;}.cls-21{fill:#6583ef;}.cls-22{fill:#e5a5a5;}.cls-23{fill:#d38c8c;}.cls-24{fill:#ce4e30;}.cls-25{fill:#eaa296;}.cls-26{fill:#e08b82;}.cls-27{fill:#f9cdbb;}.cls-28{fill:#1f0c3d;}.cls-29{fill:#250e51;}.cls-30{fill:#bf3421;}.cls-31{fill:#e0503d;}.cls-32{fill:none;stroke:#ce4328;stroke-miterlimit:10;}.cls-33{fill:#feac00;}.cls-34{fill:#e89c2d;}.cls-35{fill:#30115b;}.cls-36{fill:#e5856e;}.cls-37{fill:#935328;}.cls-38{fill:#a55d2d;}.cls-39{fill:#874c23;}.cls-40{fill:#aa6933;}.cls-41{fill:#5f2ca8;}.cls-42{fill:#55299b;}.cls-43{fill:#6a38ba;}.cls-44{fill:#efefa8;}.cls-45{fill:#e0de94;}.cls-46{fill:#49630b;}.cls-47{fill:#466d0f;}.cls-48{fill:#527c11;}.cls-49{fill:#ce0704;}.cls-50{fill:#a11;}.cls-51{fill:#dd361f;}.cls-52{fill:#5c6622;}.cls-53{fill:#667c14;}.cls-54{fill:#a5bf36;}.cls-55{fill:#8ba520;}.cls-56{fill:#96a82a;}.cls-57{fill:#becc3a;}.cls-58{fill:#99ad27;}.cls-59{fill:#e9b02a;}.cls-60{fill:#637f0d;}.cls-61{fill:#f7d48f;}.cls-62{fill:#b77437;}.cls-63{fill:#c6813c;}.cls-64{fill:#d2731c;}.cls-65{fill:#c47618;}.cls-66{fill:#bf6216;}.cls-67{fill:#e5a82e;}.cls-68{fill:#a0642e;}.cls-69{fill:#8e511e;}.cls-70{fill:#647228;}</style></defs><path class="cls-1" d="M1014.12458,619.3991a76.27072,76.27072,0,0,0-28.5813-23.1718c-19.0134-9.0096-22.5132-3.8407-30.1732-4.6696-7.6599-.8288-16.54608-2.7639-16.2389,5.0843.3074,7.8482,11.2485,6.5556,15.3256,15.3149,4.077,8.7592,18.9611,6.534,24.1599,11.4485C983.81548,628.3197,1002.69138,630.9621,1014.12458,619.3991Z" transform="translate(-939.12344 -166.8961)"/><path class="cls-2" d="M978.28748,616.6076c6.0953-3.9212,18.6822-2.293,24.58252-1.2369-7.51852-2.846-15.36022-5.6323-22.67552-8.1443-5.14448-1.2572-17.14548-3.658-22.99048-.3944a.17533.17533,0,0,1-.17052-.3064c4.9721-2.776,14.0213-1.6107,19.95052-.3955-15.71-5.3378-28.25462-9.1947-28.54822-9.2845a.35073.35073,0,0,1,.2058-.6706c.2997.0918,13.365,4.1093,29.5436,9.6248a40.84329,40.84329,0,0,1-12.3991-11.7788.17526.17526,0,0,1,.2954-.1887c.0593.0927,5.538,8.5602,14.2518,12.7023,6.6923,2.2979,13.8293,4.8266,20.76272,7.4226a83.88368,83.88368,0,0,1-15.63652-12.28.17527.17527,0,0,1,.2513-.2444c.094.0966,8.7376,8.9224,17.876,13.4636,13.6524,5.1828,26.18822,10.5526,32.5015,14.8274a.35041.35041,0,1,1-.3931.5802c-6.0523-4.0981-17.8778-9.2155-30.9154-14.2063-4.3274-.8674-19.5914-3.5129-26.3023.8044a.17524.17524,0,0,1-.19-.2945Z" transform="translate(-939.12344 -166.8961)"/><path class="cls-1" d="M1028.81168,614.0635a66.18118,66.18118,0,0,1-19.5516-25.2406c-7.45008-16.6679-2.8987-19.6045-3.4702-26.2655-.5715-6.6611-2.0792-14.4073,4.7233-13.9896s5.4705,9.8843,12.9909,13.5898c7.5202,3.7056,5.3034,16.5748,9.4665,21.1794C1037.13378,587.9418,1039.06278,604.3677,1028.81168,614.0635Z" transform="translate(-939.12344 -166.8961)"/><path class="cls-2" d="M1027.07988,582.9208c-3.5191,5.2122-2.3488,16.1627-1.5463,21.3018-2.3241-6.5772-4.5905-13.4337-6.6288-19.8282-.9917-4.4871-2.8432-14.9442.1005-19.9521a.15219.15219,0,0,0-.2626-.1539c-2.5039,4.2599-1.6673,12.1327-.7271,17.2998-4.3281-13.7313-7.4327-24.6883-7.505-24.9447a.30427.30427,0,0,0-.58558.1656c.07378.2618,3.30758,11.6735,7.781,25.8147a35.44482,35.44482,0,0,0-9.97972-10.9831.15211.15211,0,0,0-.1694.2527c.0793.0532,7.3195,4.969,10.74512,12.6081,1.86458,5.8499,3.921,12.09,6.03948,18.1549a72.78805,72.78805,0,0,0-10.352-13.8014.15214.15214,0,0,0-.2169.2134c.082.0834,7.5721,7.7516,11.3358,15.7668,4.2334,11.9434,8.6505,22.9218,12.2373,28.481a.30432.30432,0,0,0,.3791.1128.313.313,0,0,0,.0413-.0223.30442.30442,0,0,0,.0906-.4204c-3.43868-5.3294-7.6505-15.6866-11.7291-27.093-.6693-3.7707-2.6704-17.0635,1.204-22.8022a.15195.15195,0,0,0-.2517-.1703Z" transform="translate(-939.12344 -166.8961)"/><path class="cls-3" d="M1011.908,612.683s-19.828-5.3251-37.50052-23.394c-17.6724-18.0689-13.1712-24.0661-17.1098-32.4416-3.9385-8.3753-9.6134-17.7106-.5796-20.4325,9.0338-2.7217,11.8467,10.2101,23.3903,11.4132,11.5435,1.2032,14.8403,18.9782,22.4558,22.9597C1010.17978,574.7694,1020.56688,595.1736,1011.908,612.683Z" transform="translate(-939.12344 -166.8961)"/><path class="cls-4" d="M994.71508,573.074c-2.0685,8.4568,4.7058,22.1151,8.214,28.4032-6.1742-7.4255-12.4072-15.2414-18.1224-22.5667-3.4409-5.3509-10.8633-18.0414-9.4438-25.9569a.2107.2107,0,0,0-.41488-.0738c-1.207,6.7333,3.65708,16.5549,7.35728,22.8134C970.096,559.9394,960.80688,547.2011,960.59,546.903a.42123.42123,0,0,0-.68112.4958c.2217.3045,9.8968,13.5714,22.4914,29.7877a49.062,49.062,0,0,0-18.22928-9.4731.21058.21058,0,0,0-.09882.4094c.1286.031,11.8891,2.9402,20.0031,11.2159,5.2283,6.7016,10.8929,13.8179,16.5543,20.6766-8.6515-7.5375-19.9308-12.8904-20.0653-12.9539a.21056.21056,0,0,0-.1792.3811c.1465.0688,13.5524,6.4322,22.28592,15.0343,11.22808,13.4774,22.23208,25.6137,29.55738,31.1113a.42089.42089,0,1,0,.5051-.6734c-7.0226-5.2704-17.4618-16.6985-28.23148-29.5531-2.67842-4.5753-11.65542-20.8761-9.37822-30.1872a.21043.21043,0,0,0-.4087-.1004Z" transform="translate(-939.12344 -166.8961)"/><path class="cls-5" d="M1027.89148,613.8174a29.03946,29.03946,0,0,0-10.4337,32.0016c5.9484,21.0296,81.52822,64.3328,114.11922,57.9752,32.591-6.3575,11.71478-26.3433-3.215-37.2595-14.92962-10.9161-56.87642-57.6089-72.84362-59.8018A39.20866,39.20866,0,0,0,1027.89148,613.8174Z" transform="translate(-939.12344 -166.8961)"/><path class="cls-6" d="M1131.577,703.7942c16.253-3.1705,19.20588-9.7304,16.23338-16.8646,2.0511,7.6348-4.3262,15.3165-36.271,9.4823-31.9479-5.8344-92.3653-42.9949-87.6739-67.9578,3.8423-20.4448,27.9726-21.944,28.3232-22.0089a39.53087,39.53087,0,0,0-24.2973,7.3724,29.03869,29.03869,0,0,0-10.4335,32.0013C1023.40618,666.8486,1098.98608,710.1518,1131.577,703.7942Z" transform="translate(-939.12344 -166.8961)"/><path class="cls-7" d="M1068.00528,620.1703s32.0279,23.7777,56.1052,48.3952C1124.11048,668.5655,1081.57958,636.2023,1068.00528,620.1703Z" transform="translate(-939.12344 -166.8961)"/><path class="cls-8" d="M1031.76428,663.4113l-.043-.7855,14.6982-23.0703c-12.67648,9.4728-15.1313,19.2754-15.6057,23.0484C1031.123,662.872,1031.44678,663.142,1031.76428,663.4113Z" transform="translate(-939.12344 -166.8961)"/><path class="cls-8" d="M1092.52048,633.5409q-1.00515-.933-2.0099-1.8554c-3.6211,2.9464-11.5219,10.0228-13.96158,17.4766Z" transform="translate(-939.12344 -166.8961)"/><path class="cls-8" d="M1119.96748,684.3144l13.8547-13.5506q-1.13355-.93225-2.2674-1.8153C1128.91428,671.4989,1122.65618,677.9558,1119.96748,684.3144Z" transform="translate(-939.12344 -166.8961)"/><path class="cls-8" d="M1091.05118,697.0917l9.1427-23.7542c-6.1767,6.0413-9.9024,16.7295-11.6281,22.8102C1089.39588,696.4685,1090.22468,696.7858,1091.05118,697.0917Z" transform="translate(-939.12344 -166.8961)"/><rect class="cls-9" x="1077.15314" y="446.77778" width="84.95429" height="149.09474" transform="translate(1410.6354 244.26717) rotate(149.91488)"/><rect class="cls-10" x="1109.21555" y="428.57202" width="83.68" height="149.09482" transform="translate(1460.12614 194.55568) rotate(149.9149)"/><polygon class="cls-11" points="210.766 250.745 167.522 212.962 95.116 254.909 138.359 292.693 210.766 250.745"/><polygon class="cls-12" points="95.116 254.909 138.359 292.693 106.383 311.218 95.116 254.909"/><rect class="cls-13" x="1023.27907" y="381.02358" width="83.67992" height="21.23854" transform="translate(1243.94858 29.69853) rotate(149.91487)"/><rect class="cls-13" x="1109.45682" y="457.41092" width="83.67999" height="92.24976" transform="translate(1460.78489 195.21157) rotate(149.91491)"/><rect class="cls-14" x="1081.22184" y="487.48757" width="36.31795" height="92.24976" transform="matrix(-0.86528, 0.50129, -0.50129, -0.86528, 1379.02374, 277.33533)"/><polygon class="cls-15" points="95.116 254.909 129.271 295.243 106.383 311.218 95.116 254.909"/><polygon class="cls-16" points="129.271 295.243 138.359 292.693 106.383 311.218 129.271 295.243"/><polygon class="cls-13" points="137.233 326.974 183.379 406.627 167.667 415.73 121.423 335.908 137.233 326.974"/><circle class="cls-17" cx="1151.8735" cy="504.53125" r="26.59956" transform="translate(-1041.64122 248.93989) rotate(-19.60934)"/><path class="cls-11" d="M1783.9971,511.4932c-2.8476-14.0027,10.4945-35.4639,10.4945-35.4639l-45.3352-30.0125s-14.5457,20.6644-28.5483,23.5119c-14.0028,2.8476-31.2554,32.3949-40.0865,45.7347-8.4874,12.8205-54.3168,82.0479-57.8725,87.4188a.77722.77722,0,0,0-.3491.2621c-1.6502,2.4927,14.2831,15.9471,35.588,30.0512,21.3049,14.1042,39.9136,23.5171,41.5638,21.0244,0,0,49.2684-74.4219,58.0995-87.7617S1786.8446,525.4959,1783.9971,511.4932Z" transform="translate(-939.12344 -166.8961)"/><path class="cls-18" d="M1775.8474,508.5503c-1.6781-8.2516,2.8729-20.6827,2.8729-20.6827l-34.3022-22.7086s-9.6663,9.0447-17.9179,10.7228c-8.2516,1.678-17.0857,10.7732-26.4451,24.9108-9.3593,14.1377-66.9276,101.097-66.9276,101.097-1.3202,1.9942,11.7549,12.9751,29.2039,24.5266s32.6644,19.2992,33.9846,17.3051c0,0,57.5683-86.9593,66.9276-101.097S1777.5254,516.8019,1775.8474,508.5503Z" transform="translate(-939.12344 -166.8961)"/><ellipse class="cls-19" cx="1706.15495" cy="560.21885" rx="32.2542" ry="28.2995" transform="translate(-641.91398 1506.73303) rotate(-56.49501)"/><path class="cls-20" d="M1794.4916,476.0293l-45.3352-30.0125s-1.2932,1.8335-3.4683,4.4756v.002s10.2885,9.904,30.1477,23.0511c0,0-2.1153,5.2048-4.0665,12.0503-1.9513,6.8455-16.117,5.6902-26.1971-.983,0,0,27.4286,17.4024,21.9482,32.5448-5.4804,15.1425-77.2304,116.6599-77.2304,116.6599s-29.4747-5.3755-67.99-30.8732c-1.6502,2.4927,14.2831,15.9471,35.588,30.0513,21.3049,14.1041,39.9137,23.517,41.5638,21.0243,0,0,49.2684-74.4219,58.0995-87.7617,8.8312-13.3398,29.2933-40.7623,26.4458-54.765C1781.1495,497.4905,1794.4916,476.0293,1794.4916,476.0293Z" transform="translate(-939.12344 -166.8961)"/><path class="cls-13" d="M1752.2793,436.9413l-6.0336,9.1141c-.3764.5685,10.3653,8.3424,23.9921,17.3636,13.6269,9.0211,24.9787,15.8734,25.355,15.3049l6.0337-9.1141Z" transform="translate(-939.12344 -166.8961)"/><path class="cls-14" d="M1768.1119,462.0058q1.05075.70095,2.1259,1.4132c13.6269,9.0212,24.9787,15.8734,25.355,15.3049l6.0337-9.1141-26.8022-17.7434Z" transform="translate(-939.12344 -166.8961)"/><path class="cls-21" d="M1801.6265,469.6098c-.3763.5685-11.7282-6.2838-25.355-15.305-13.6268-9.0211-24.3685-16.7951-23.9922-17.3635.3764-.5685,11.7282,6.2837,25.3551,15.3049C1791.2612,461.2674,1802.0028,469.0413,1801.6265,469.6098Z" transform="translate(-939.12344 -166.8961)"/><path class="cls-22" d="M1311.25307,373.9312s-10.22679-13.9974-27.42559-6.6973c-17.96748,7.6264-17.96748,37.7445-3.6194,58.1678s40.13582,27.2096,46.14652,21.1989Z" transform="translate(-939.12344 -166.8961)"/><path class="cls-23" d="M1311.403,435.6649a31.03353,31.03353,0,0,1-19.53122-15.0047c-7.2982-12.7632-14.7252-31.7797-5.1257-38.8626,9.5991-7.083,16.4955,6.6169,18.4527,10.4378,1.95722,3.821,2.7959,25.2563,2.7959,25.2563s-7.3614-.0423-5.1814,5.3121C1304.99328,428.1584,1311.403,435.6649,1311.403,435.6649Z" transform="translate(-939.12344 -166.8961)"/><path class="cls-24" d="M1312.96167,435.3654c-4.346-4.3755-10.72959-12.474-9.36219-15.5945.4836-1.1037,2.0587-1.6315,4.6099-1.5159h.0297a.75973.75973,0,0,0,.0295-1.5189c-3.269-.1304-5.301.6911-6.0604,2.4266-1.7709,4.0404,4.604,11.7827,7.91439,15.4138-13.073-3.8655-22.85649-19.4305-25.96809-33.6515-1.91348-8.7363-.8604-15.7194,2.7439-18.22a8.26987,8.26987,0,0,1,7.2204-1.4953c6.33322,1.8512,10.4301,11.513,10.4715,11.6108a.75865.75865,0,0,0,1.4002-.5845c-.1749-.4272-4.4142-10.424-11.44148-12.4827a9.70079,9.70079,0,0,0-8.51682,1.7055c-4.1828,2.9014-5.4406,10.2997-3.361,19.7893,3.4085,15.5859,14.6779,32.7469,29.61689,35.3988a.67712.67712,0,0,0,.1335.0119.75878.75878,0,0,0,.5401-1.2934Z" transform="translate(-939.12344 -166.8961)"/><path class="cls-22" d="M1506.8396,373.9312s10.2271-13.9974,27.4259-6.6973c17.9675,7.6264,17.9675,37.7445,3.6194,58.1678s-40.1358,27.2096-46.1465,21.1989Z" transform="translate(-939.12344 -166.8961)"/><path class="cls-23" d="M1506.6897,435.6649a31.03444,31.03444,0,0,0,19.5315-15.0047c7.2982-12.7632,14.7249-31.7797,5.1258-38.8626-9.5992-7.083-16.4959,6.6169-18.4528,10.4378-1.9572,3.821-2.7959,25.2563-2.7959,25.2563s7.3613-.0423,5.1814,5.3121C1513.0997,428.1584,1506.6897,435.6649,1506.6897,435.6649Z" transform="translate(-939.12344 -166.8961)"/><path class="cls-24" d="M1505.1313,435.3654c4.3457-4.3755,10.7296-12.474,9.3619-15.5945-.4833-1.1037-2.0587-1.6315-4.6096-1.5159h-.0298a.75974.75974,0,0,1-.0297-1.5189c3.2692-.1304,5.3012.6911,6.0604,2.4266,1.7712,4.0404-4.6038,11.7827-7.9144,15.4138,13.0733-3.8655,22.8566-19.4305,25.9684-33.6515,1.9133-8.7363.8604-15.7194-2.7439-18.22a8.27009,8.27009,0,0,0-7.2204-1.4953c-6.3335,1.8512-10.4301,11.513-10.4715,11.6108a.75865.75865,0,0,1-1.4002-.5845c.1749-.4272,4.4141-10.424,11.4415-12.4827a9.70093,9.70093,0,0,1,8.5168,1.7055c4.1828,2.9014,5.4403,10.2997,3.361,19.7893-3.4085,15.5859-14.6782,32.7469-29.6172,35.3988a.67712.67712,0,0,1-.1335.0119.75878.75878,0,0,1-.5398-1.2934Z" transform="translate(-939.12344 -166.8961)"/><path class="cls-25" d="M1457.3992,484.3016s-27.8156,11.6532-48.3527,11.6532c-20.5373,0-48.3526-11.6532-48.3526-11.6532,0,19.1933-20.907,51.4104-20.907,51.4104l69.2596,79.8574,69.2592-79.8574S1457.3992,503.4949,1457.3992,484.3016Z" transform="translate(-939.12344 -166.8961)"/><path class="cls-26" d="M1458.3774,492.3682a38.56692,38.56692,0,0,1-.9782-8.0666s-27.8156,11.6532-48.3527,11.6532c-20.5373,0-48.3526-11.6532-48.3526-11.6532,0,19.1933-20.907,51.4104-20.907,51.4104l53.9509,62.2062h15.3085c-48.3979-48.3979-49.3321-87.4623-49.3321-87.4623C1417.6836,534.8959,1458.3755,492.3701,1458.3774,492.3682Z" transform="translate(-939.12344 -166.8961)"/><path class="cls-27" d="M1506.7615,371.2409c-2.9086-36.2578-15.3173-70.3829-15.3173-70.3829l-82.4045-25.0121-82.4046,25.0121s-12.40953,34.1251-15.31723,70.3829c-2.90849,36.2581,16.28673,99.4671,43.044,117.693a136.50676,136.50676,0,0,0,54.6778,21.522,136.51085,136.51085,0,0,0,54.6777-21.522C1490.4742,470.708,1509.67,407.499,1506.7615,371.2409Z" transform="translate(-939.12344 -166.8961)"/><path class="cls-25" d="M1506.7615,371.241c-2.9086-36.2579-15.3173-70.383-15.3173-70.383l-82.4045-25.0121-82.4046,25.0121s-12.40953,34.1251-15.31723,70.383c-2.90859,36.2581,16.28673,99.467,43.044,117.6929a129.23587,129.23587,0,0,0,17.8852,10.156c-17.8118-9.2614-34.3141-24.6873-40.7296-55.6719-6.4156-30.9846,5.2706-81.2869,5.2706-81.2869,19.171-1.0694,56.9776-15.7715,56.9776-15.7715l-.8093,5.6135c36.3116,5.3462,80.7717-17.3753,80.7717-17.3753-2.4058,22.7215,15.7715,34.7507,15.7715,34.7507l5.1205-6.1027,12.2315,9.2847C1506.8236,372.0982,1506.7955,371.6659,1506.7615,371.241Z" transform="translate(-939.12344 -166.8961)"/><path class="cls-28" d="M1311.16377,373.8141s-3.05789,36.0476,13.48973,71.01c0,0-4.6486-40.8065,0-81.5783Z" transform="translate(-939.12344 -166.8961)"/><path class="cls-28" d="M1506.9155,373.8141s3.0579,36.0476-13.4896,71.01c0,0,4.6482-54.3514,0-95.1232Z" transform="translate(-939.12344 -166.8961)"/><path class="cls-29" d="M1525.1381,298.6585s-38.4453-72.8572-118.0374-72.8572c-79.592,0-114.16162,72.8572-114.16162,72.8572-16.654,34.3318-17.5575,73.084-17.5575,73.084,18.0437-9.2343,35.78229,2.0716,35.78229,2.0716,17.04513-7.3957,35.78433-38.548,35.78433-38.548l-7.1612,19.5159c21.5014,4.6801,70.7864-20.7583,70.7864-20.7583l-6.4804,14.0734c37.2902,3.8736,77.3872-28.4689,77.3872-28.4689-8.0194,26.464,4.0097,41.7009,4.0097,41.7009l7.936-11.6282c-1.6873,14.836,13.4767,24.1367,13.4767,24.1367a42.79915,42.79915,0,0,1,32.5882-3.3611C1539.4908,340.3287,1525.1381,298.6585,1525.1381,298.6585Z" transform="translate(-939.12344 -166.8961)"/><path class="cls-29" d="M1325.6083,447.2042c-6.8973,4.7163-29.89572-1.6574-43.91722-19.7985l-.0047-.0001s5.9917,30.1563,27.9114,37.6411c0,0,8.60022,30.4539,41.45672,21.3752h.0016C1341.1238,478.1065,1332.3738,463.7145,1325.6083,447.2042Z" transform="translate(-939.12344 -166.8961)"/><path class="cls-29" d="M1525.2794,438.3054c-12.886,9.6357-27.5487,12.5039-32.8058,8.8919-6.7659,16.5133-15.5169,30.9081-25.4504,39.2246h.0335s17.64,5.8646,29.3931-5.8885c0,0,33.6226-7.2188,28.8404-42.2275Z" transform="translate(-939.12344 -166.8961)"/><path class="cls-28" d="M1525.1381,298.6585s-38.4453-72.8572-118.0374-72.8572c-79.592,0-114.16162,72.8572-114.16162,72.8572q-1.76085,3.62985-3.2895,7.3109c.0197-.0073,104.00282-38.8262,237.792-.13C1526.0627,301.3442,1525.1381,298.6585,1525.1381,298.6585Z" transform="translate(-939.12344 -166.8961)"/><path class="cls-30" d="M1518.7171,235.6894c-6.8129-18.9272-11.6178-26.9347-55.5389-47.68182-43.9205-20.74708-54.1395-21.11148-54.1395-21.11148s-10.219.3644-54.1398,21.11148-48.72572,28.75462-55.53872,47.68182c-6.81318,18.9271-6.4211,62.969-6.4211,62.969s37.30052-14.9234,116.09962-14.9234,116.0993,14.9234,116.0993,14.9234S1525.5303,254.6165,1518.7171,235.6894Z" transform="translate(-939.12344 -166.8961)"/><circle class="cls-17" cx="469.92296" cy="55.2438" r="28.5289"/><path class="cls-8" d="M1409.0387,283.735c78.7991,0,116.0993,14.9234,116.0993,14.9234l.0003.0006.0155-.0006,10.8261-25.49V259.4435s-72.4555-26.6661-126.9333-26.6661c-54.4782,0-126.93372,26.6661-126.93372,26.6661v13.7249l10.8262,25.49S1330.2396,283.735,1409.0387,283.735Z" transform="translate(-939.12344 -166.8961)"/><path class="cls-31" d="M1409.0466,232.7774c-54.4782,0-126.93372,26.6661-126.93372,26.6661v13.7249l.0363.0855c.7754-.2852,72.71342-26.6533,126.89742-26.6533,54.1839,0,126.1217,26.3681,126.8973,26.6533l.036-.0855V259.4435S1463.5244,232.7774,1409.0466,232.7774Z" transform="translate(-939.12344 -166.8961)"/><path class="cls-32" d="M1361.7221,211.7712" transform="translate(-939.12344 -166.8961)"/><path class="cls-33" d="M1578.7269,568.1001c-24.677-15.937-111.1149-51.3838-111.1149-51.3838-11.3794,54.0074-58.5657,81.2019-58.5657,81.2019s-47.1863-27.1945-58.5657-81.2019c0,0-86.43792,35.4468-111.11492,51.3838l-92.0243,189.1897,105.9052,94.0807V1049.814H1564.846V851.3705l105.9052-94.0807Z" transform="translate(-939.12344 -166.8961)"/><path class="cls-34" d="M1350.4806,516.7163c-6.6147,84.3388,58.5591,81.2019,58.5591,81.2019C1354.565,574.2696,1350.4806,516.7163,1350.4806,516.7163Z" transform="translate(-939.12344 -166.8961)"/><path class="cls-34" d="M1410.5734,597.9182s65.1735,3.1369,58.5591-81.2019C1469.1325,516.7163,1465.0479,574.2696,1410.5734,597.9182Z" transform="translate(-939.12344 -166.8961)"/><polygon class="cls-34" points="319.093 456.899 332.61 663.105 314.123 627.581 314.123 684.474 314.123 882.918 353.024 882.918 353.024 469.237 333.573 576.856 319.093 456.899"/><polygon class="cls-34" points="607.353 663.105 620.871 456.899 606.39 576.856 586.94 469.237 586.94 882.918 625.84 882.918 625.84 684.474 625.84 627.581 607.353 663.105"/><path class="cls-17" d="M1409.0441,597.9167c.1966-.0634,79.5447-25.7196,58.5613-81.2004,0,0-17.4636,52.923-58.5623,81.1994-41.0992-28.2764-58.5625-81.1994-58.5625-81.1994-20.9835,55.4808,58.3649,81.137,58.561,81.2004l-.0019.0015.0034-.001.0032.001Z" transform="translate(-939.12344 -166.8961)"/><path class="cls-17" d="M1162.88018,749.3064a1.00728,1.00728,0,1,0-1.2585,1.5731l77.6285,62.2062a1.00728,1.00728,0,1,0,1.2585-1.5731Z" transform="translate(-939.12344 -166.8961)"/><path class="cls-17" d="M1656.6503,749.4637a1.01427,1.01427,0,0,0-1.4157-.1573l-77.6305,62.2062a1.00728,1.00728,0,0,0,1.2585,1.5731l77.6304-62.2062A1.00862,1.00862,0,0,0,1656.6503,749.4637Z" transform="translate(-939.12344 -166.8961)"/><path class="cls-35" d="M1324.6535,388.7028s8.8127-14.4774,25.7913-16.7508c16.9788-2.2734,30.85,4.6575,35.711,2.7987,4.8611-1.859,1.0782-15.8345-7.7376-16.1243,0,0,4.6088,4.4481,3.8724,13.0548,0,0-3.2439-16.9325-16.5761-16.8991a7.11225,7.11225,0,0,1,4.2809,5.5591s-34.7973-2.7734-43.1976,19.2681l1.0965,3.322Z" transform="translate(-939.12344 -166.8961)"/><path class="cls-35" d="M1493.4259,388.7028s-8.8127-14.4774-25.7913-16.7508c-16.9788-2.2734-30.85,4.6575-35.711,2.7987-4.8611-1.859-1.0782-15.8345,7.7372-16.1243,0,0-4.6087,4.4481-3.8721,13.0548,0,0,3.2437-16.9325,16.5762-16.8991a7.11225,7.11225,0,0,0-4.2809,5.5591s34.7972-2.7734,43.1975,19.2681l-1.0968,3.322Z" transform="translate(-939.12344 -166.8961)"/><path class="cls-35" d="M1338.2532,409.244s12.127-13.261,24.1603-8.1436c8.8967,3.7837,10.1353,8.5633,13.0672,6.9804C1381.5331,404.8127,1356.9641,381.6143,1338.2532,409.244Z" transform="translate(-939.12344 -166.8961)"/><path class="cls-35" d="M1479.8261,409.244s-12.127-13.261-24.1603-8.1436c-8.8967,3.7837-10.135,8.5633-13.0672,6.9804C1436.5462,404.8127,1461.1153,381.6143,1479.8261,409.244Z" transform="translate(-939.12344 -166.8961)"/><path class="cls-36" d="M1422.4359,438.4834a11.06146,11.06146,0,0,1,.6357,2.1093,34.80011,34.80011,0,0,0-28.0641,0,11.04743,11.04743,0,0,1,.636-2.1096s-3.9322,3.7562-.4161,7.2245a6.78222,6.78222,0,0,0,6.3792,2.041s-1.3871.3078-4.591-1.6825c.008-.0514.3198-1.7445,5.0587.1961l.0009-.0139a14.74748,14.74748,0,0,0,13.956-.0151l.0022.029c4.6188-1.8913,5.0287-.3388,5.0543-.2106-3.222,2.0073-4.6146,1.697-4.6146,1.697a6.78084,6.78084,0,0,0,6.3785-2.0412C1426.3681,442.2393,1422.4359,438.4834,1422.4359,438.4834Z" transform="translate(-939.12344 -166.8961)"/><path class="cls-17" d="M1453.4421,375.47a33.94484,33.94484,0,0,0-33.3155,40.6036h-23.8025a34.136,34.136,0,1,0-1.0773,4.0272h25.9571a33.96555,33.96555,0,1,0,32.2382-44.6308Zm-90.4335,63.9209a29.9469,29.9469,0,1,1,29.9478-29.9459A29.981,29.981,0,0,1,1363.0086,439.3909Zm90.4335,0A29.9469,29.9469,0,1,1,1483.39,409.445,29.981,29.981,0,0,1,1453.4421,439.3909Z" transform="translate(-939.12344 -166.8961)"/><ellipse class="cls-25" cx="411.93104" cy="285.7276" rx="14.26638" ry="5.9729"/><ellipse class="cls-25" cx="530.48054" cy="285.7276" rx="14.26637" ry="5.9729"/><path class="cls-30" d="M1550.1387,704.3513l-36.3109-33.7407,12.1044-128.8352s-12.9482-14.3266-32.777-14.3266l-14.8628,140.6083H1339.787l-14.8629-140.6083c-19.82872,0-32.777,14.3266-32.777,14.3266l12.1044,128.8352-36.3109,33.7407-14.694,147.0191v198.4435H1564.8327V851.3704Z" transform="translate(-939.12344 -166.8961)"/><path class="cls-17" d="M1326.2275,719.5666v54.8452a60.75393,60.75393,0,0,0,60.6853,60.6855h44.2537a60.75425,60.75425,0,0,0,60.6853-60.6855V719.5666Z" transform="translate(-939.12344 -166.8961)"/><circle class="cls-17" cx="384.94096" cy="509.6271" r="26.88851"/><circle class="cls-17" cx="558.20989" cy="509.6271" r="26.88846"/><rect class="cls-37" x="279.33556" y="649.0443" width="381.274" height="56.5513"/><rect class="cls-38" x="279.33556" y="655.085" width="381.274" height="56.5513"/><rect class="cls-37" x="279.33556" y="779.0592" width="381.274" height="56.5512"/><rect class="cls-39" x="279.33556" y="785.0999" width="381.274" height="56.5512"/><rect class="cls-40" x="279.33556" y="651.7323" width="34.95888" height="231.1856"/><rect class="cls-40" x="625.65066" y="651.7323" width="34.9589" height="231.1856"/><path class="cls-27" d="M1247.40568,846.1817c-2.2134-14.3471-16.2656-20.1735-16.2656-20.1735L1161.46,769.8319s-11.20542,28.7577-14.11862,38.0114a115.47219,115.47219,0,0,1-9.8142,22.1542h0c-3.90218,15.3849-27.6315,50.434-23.08818,74.3255,4.54308,23.8919,28.78968,43.9558,40.614,43.9558s31.59228-9.2434,31.59228-9.2434l7.1369,6.9299h0l13.7091,16.1086s5.1411,5.8263,10.96772,3.4274V861.31l6.51188.3427s11.3103,32.5597,18.5077,34.9586c7.19742,2.3995,14.7377-4.1126,14.7377-4.1126S1249.61938,860.5289,1247.40568,846.1817Z" transform="translate(-939.12344 -166.8961)"/><path class="cls-25" d="M1231.14008,826.0082,1161.46,769.8319s-8.745,22.4437-12.79132,34.0551a124.74325,124.74325,0,0,1,10.8399-17.0362c5.5695-6.9403,11.3958-2.9132,11.3958-2.9132s35.9444,28.4038,38.9864,31.4458c3.0414,3.042.8568,7.369-11.2246,5.8264-12.0814-1.5422-14.2238-2.9132-26.9049,8.7916-12.6812,11.7039-26.9905,30.1091-26.9905,30.1091s33.4168-37.5297,41.6424-37.5297C1194.63908,822.5808,1231.14008,826.0082,1231.14008,826.0082Z" transform="translate(-939.12344 -166.8961)"/><path class="cls-25" d="M1236.28118,880.1602c-7.3687-17.4796-8.3114-24.7626-8.3114-24.7626s1.038-12.4747,11.5675-17.5651c0,0-13.3669-.1711-16.6228,18.6791a25.18717,25.18717,0,0,1-20.3927-7.3685s1.1995,7.8827,9.4253,13.709l-7.02608,10.6248s.51388-11.6527-2.39922-16.2796c0,0,2.5705,22.7918-1.7137,33.9308l17.65092,36.1582V861.31l6.51188.3427s11.3103,32.5597,18.5077,34.9586a11.11562,11.11562,0,0,0,5.1738.3879C1248.27338,897.0198,1243.35838,896.9486,1236.28118,880.1602Z" transform="translate(-939.12344 -166.8961)"/><path class="cls-25" d="M1176.13108,821.0387s-8.7302-11.4487-20.3926-7.8832c-10.6316,3.2504-8.6434-4.5005-8.2081-5.9001-.06438.1991-.131.4036-.189.5879a115.49107,115.49107,0,0,1-9.8142,22.1542l.0069.0039L1156.938,815.726S1163.96408,811.2707,1176.13108,821.0387Z" transform="translate(-939.12344 -166.8961)"/><path class="cls-25" d="M1206.97728,953.1628c-4.9427-4.943-30.2725-45.9242-34.5125-52.806l25.2588-8.2008-25.5051,4.8029c1.9251-14.5856-.3714-40.79-.3714-40.79,0,29.475-3.0845,41.2998-3.0845,41.2998l5.8263,9.4248,7.3688,27.5902,11.8245,11.4816,13.7091,16.1086s5.1411,5.8263,10.96772,3.4274v-7.5401A15.35265,15.35265,0,0,1,1206.97728,953.1628Z" transform="translate(-939.12344 -166.8961)"/><path class="cls-27" d="M1570.7863,846.1817c2.2134-14.3471,16.2656-20.1735,16.2656-20.1735l69.6801-56.1763s11.2054,28.7577,14.1186,38.0114a115.47219,115.47219,0,0,0,9.8142,22.1542h0c3.9022,15.3849,27.6315,50.434,23.0881,74.3255-4.543,23.8919-28.7896,43.9558-40.6139,43.9558s-31.5923-9.2434-31.5923-9.2434l-7.1369,6.9299h0l-13.7091,16.1086s-5.1411,5.8263-10.9677,3.4274V861.31l-6.5119.3427s-11.3103,32.5597-18.5077,34.9586c-7.1975,2.3995-14.7378-4.1126-14.7378-4.1126S1568.5726,860.5289,1570.7863,846.1817Z" transform="translate(-939.12344 -166.8961)"/><path class="cls-25" d="M1587.0519,826.0082l69.6801-56.1763s8.745,22.4437,12.7913,34.0551a124.74325,124.74325,0,0,0-10.8399-17.0362c-5.5695-6.9403-11.3959-2.9132-11.3959-2.9132s-35.9443,28.4038-38.9863,31.4458c-3.0414,3.042-.8568,7.369,11.2246,5.8264,12.0814-1.5422,14.2238-2.9132,26.9049,8.7916,12.6811,11.7039,26.9904,30.1091,26.9904,30.1091s-33.4168-37.5297-41.6423-37.5297C1623.5529,822.5808,1587.0519,826.0082,1587.0519,826.0082Z" transform="translate(-939.12344 -166.8961)"/><path class="cls-25" d="M1581.9108,880.1602c7.3687-17.4796,8.3114-24.7626,8.3114-24.7626s-1.038-12.4747-11.5675-17.5651c0,0,13.3669-.1711,16.6228,18.6791a25.18716,25.18716,0,0,0,20.3927-7.3685s-1.1995,7.8827-9.4253,13.709l7.0261,10.6248s-.514-11.6527,2.3992-16.2796c0,0-2.5705,22.7918,1.7137,33.9308l-17.6509,36.1582V861.31l-6.5119.3427s-11.3103,32.5597-18.5077,34.9586a11.11562,11.11562,0,0,1-5.1738.3879C1569.9186,897.0198,1574.8336,896.9486,1581.9108,880.1602Z" transform="translate(-939.12344 -166.8961)"/><path class="cls-25" d="M1642.0609,821.0387s8.7302-11.4487,20.3926-7.8832c10.6316,3.2504,8.6434-4.5005,8.2081-5.9001.0644.1991.131.4036.189.5879a115.49107,115.49107,0,0,0,9.8142,22.1542l-.0069.0039L1661.254,815.726S1654.2279,811.2707,1642.0609,821.0387Z" transform="translate(-939.12344 -166.8961)"/><path class="cls-25" d="M1611.2147,953.1628c4.9427-4.943,30.2725-45.9242,34.5125-52.806l-25.2588-8.2008,25.5051,4.8029c-1.9251-14.5856.3714-40.79.3714-40.79,0,29.475,3.0845,41.2998,3.0845,41.2998l-5.8263,9.4248-7.3688,27.5902-11.8245,11.4816-13.7091,16.1086s-5.1411,5.8263-10.9677,3.4274v-7.5401A15.35261,15.35261,0,0,0,1611.2147,953.1628Z" transform="translate(-939.12344 -166.8961)"/><path class="cls-41" d="M1483.0221,784.1367s-26.4804-4.4396-42.6943,40.8804c-16.214,45.3201-32.9579,172.2179,14.2386,178.3267,50.2219,6.5003,59.9393-68.3666,56.4891-120.0558C1507.6054,831.5988,1508.9925,788.6895,1483.0221,784.1367Z" transform="translate(-939.12344 -166.8961)"/><path class="cls-42" d="M1483.0221,784.1366s-25.196-4.2157-41.482,37.6444c.0097-.0001,10.8094-.1675,22.9774-9.6903,0,0,2.0848,19.2236,31.3338,23.0053,0,0,11.7918,121.2472-10.6389,148.6574-10.6591,13.0256-21.8548,18.8468-33.1241,19.134.8075.1867,1.6296.3465,2.4782.4564,50.2219,6.5003,59.9392-68.3666,56.489-120.0558C1507.6054,831.5988,1508.9925,788.6895,1483.0221,784.1366Z" transform="translate(-939.12344 -166.8961)"/><path class="cls-43" d="M1434.2378,866.5078s-18.5204,90.4606,7.9121,124.8264C1442.1499,991.3342,1425.2057,941.6652,1434.2378,866.5078Z" transform="translate(-939.12344 -166.8961)"/><path class="cls-19" d="M1476.0642,780.2094s-15.2349-2.4947-25.0794,17.263c-9.8444,19.7577-19.1329,26.9398-19.1329,26.9398s25.413-3.3404,35.512-26.4138c0,0-2.2634,26.0459,19.4958,29.7449,0,0-12.3303-7.7289-7.5915-23.9073,0,0,13.1705,28.6719,35.707,24.8558,0,0-9.7222-4.2062-8.936-19.8081.7863-15.6019-8.7459-27.5313-19.3604-28.1028,0,0-.8404-27.8868-8.4418-35.7305,0,0-11.9052-5.2214-17.9136,2.8331C1460.3234,747.8835,1473.5793,764.3006,1476.0642,780.2094Z" transform="translate(-939.12344 -166.8961)"/><path class="cls-3" d="M1478.8941,798.3863c-12.6044,20.3887,7.9657,29.3569,7.9657,29.3569s-12.3304-7.7289-7.5916-23.9073c0,0,13.1705,28.6719,35.707,24.8559C1489.5703,825.7991,1478.8941,798.3863,1478.8941,798.3863Z" transform="translate(-939.12344 -166.8961)"/><path class="cls-3" d="M1486.6788,780.7809s-.8404-27.8868-8.4418-35.7305a22.62929,22.62929,0,0,0-8.7426-1.6527h0s14.7964,17.2705,11.3751,35.8275l-4.8052.9842s19.45.774,25.8726,10.9815C1498.2955,785.032,1492.6595,781.103,1486.6788,780.7809Z" transform="translate(-939.12344 -166.8961)"/><path class="cls-3" d="M1467.3639,797.9984s-20.1299,22.9846-35.512,26.4138C1431.8519,824.4122,1457.2649,821.0718,1467.3639,797.9984Z" transform="translate(-939.12344 -166.8961)"/><path class="cls-44" d="M1530.2967,882.7813s-69.1356,92.3898-54.127,128.9102,82.5596,29.0884,87.3956-9.9235c4.8359-39.0118,4.1212-105.4216,4.1212-105.4216s-5.0043-38.1174-12.0779-38.9942C1548.535,856.4753,1530.2967,882.7813,1530.2967,882.7813Z" transform="translate(-939.12344 -166.8961)"/><path class="cls-45" d="M1508.8931,1034.8482c23.9372,3.4294,51.6392-8.6125,54.6722-33.0802,4.8359-39.0119,4.1212-105.4216,4.1212-105.4216s-5.0043-38.1175-12.0779-38.9943-25.3119,25.4292-25.3119,25.4292,8.1927,3.7934,16.374-6.4222c0,0,2.8117,6.3407,11.5517,7.4241,0,0-1.275,8.3673,4.1106,13.2753,0,0,.3062,86.5331-5.6543,105.5944C1550.7283,1021.6817,1527.8101,1034.9009,1508.8931,1034.8482Z" transform="translate(-939.12344 -166.8961)"/><polygon class="cls-46" points="689.835 560.209 679.572 546.47 650.415 590.602 658.949 547.362 642.725 544.29 631.423 569.68 617.166 569.238 615.197 659.977 634.978 665.877 666.689 618.879 662.897 612.043 646.084 624.548 689.835 560.209"/><path class="cls-47" d="M1574.3748,684.7951l19.7068,14.3794-19.9007,121.1416-12.468-33.3761S1574.7306,695.7147,1574.3748,684.7951Z" transform="translate(-939.12344 -166.8961)"/><path class="cls-47" d="M1631.3592,703.7954s7.2098,18.6658,6.7564,22.3231c0,0-30.2719,37.3619-44.5733,62.1146-14.3014,24.7526-26.05,60.4318-26.05,60.4318s-15.6678-9.104-6.5634-34.5009C1570.0333,788.7672,1631.3592,703.7954,1631.3592,703.7954Z" transform="translate(-939.12344 -166.8961)"/><path class="cls-48" d="M1547.2065,714.8494l16.0626,4.3784s9.3115,72.9539,3.3353,108.1972c-5.9761,35.2433-22.5491,47.7779-22.5491,47.7779s-5.1006,8.6516-13.7586,7.5784c0,0,21.0501-49.6457,20.8895-89.7191C1551.0255,752.9889,1547.2065,714.8494,1547.2065,714.8494Z" transform="translate(-939.12344 -166.8961)"/><path class="cls-48" d="M1610.66,772.9366s6.5365,5.0543,4.4208,22.122c0,0-38.845,32.3204-47.3943,101.2878,0,0-7.3505-3.7406-6.1416-13.4935,0,0-11.6488-3.2124-4.2354-34.124C1564.7228,817.8174,1610.66,772.9366,1610.66,772.9366Z" transform="translate(-939.12344 -166.8961)"/><path class="cls-49" d="M1296.12058,942.4653s-17.9699,1.1083-23.7541,16.5769c0,0-13.443,4.245-17.7603,20.2621-4.3173,16.0172,7.7559,34.7433,20.45882,49.753s16.59188,30.8275,28.11918,35.9738c11.52719,5.1464,20.17082.3227,20.17082.3227s7.9302,7.4492,21.7628,1.1459c13.8327-6.3032,13.0872-19.3496,13.0872-19.3496s16.5785-1.2486,17.8797-17.3296c1.3013-16.0809-5.3847-28.8113-9.8464-47.0999-4.4618-18.2886-7.4393-39.3894-21.5918-45.4414-14.1525-6.0521-21.2967-1.5797-21.2967-1.5797S1305.71388,928.801,1296.12058,942.4653Z" transform="translate(-939.12344 -166.8961)"/><path class="cls-50" d="M1323.3498,935.6995s-9.24653,1.5584-12.48763,10.2261c0,0-7.65329,3.5981-9.35889-2.8155-.9312-3.5016,2.1222-6.361,5.0871-8.2379a19.10421,19.10421,0,0,0-10.4698,7.5931s2.9268,8.8506-3.1194,12.8194c-6.0391,3.9641-15.0141-2.2068-20.3798,3.1352l-.0043.0106c.3053-.1409,5.5281-2.4236,13.8811,2.2481,0,0-15.0867,1.7304-19.64918,13.932,0,0,8.10208-13.538,20.978-9.5593,0,0-5.813,2.5382-6.24862,13.3571,0,0,3.8019-10.4721,10.2143-13.3941,6.4125-2.9221,11.676-13.9495,20.86449-15.1496C1312.65717,949.8647,1311.67507,942.1257,1323.3498,935.6995Z" transform="translate(-939.12344 -166.8961)"/><path class="cls-50" d="M1266.85878,1010.6439c5.9405,11.0944,17.5013,31.504,17.5013,31.504-2.9937-6.5699-15.6296-27.7203-19.7312-42.2243a34.66042,34.66042,0,0,1,2.22012-25.313C1258.30028,982.8206,1260.91818,999.5494,1266.85878,1010.6439Z" transform="translate(-939.12344 -166.8961)"/><path class="cls-50" d="M1342.5646,977.8669s-5.7657-34.805-29.90743-28.0022C1312.65717,949.8647,1334.1123,947.8265,1342.5646,977.8669Z" transform="translate(-939.12344 -166.8961)"/><path class="cls-50" d="M1362.2675,1040.6894c-2.3742-3.0795-11.7637-39.8731-12.8748-44.2492,1.1069,4.3846,10.3471,41.4449,8.8123,50.7099,0,0,9.0542-.6898,14.3048-7.5409C1372.2054,1039.7791,1364.7406,1043.8971,1362.2675,1040.6894Z" transform="translate(-939.12344 -166.8961)"/><path class="cls-50" d="M1309.57408,1067.0061c-.1276-.0227-.2499-.0364-.3787-.0614C1309.28008,1066.9612,1309.41218,1066.9838,1309.57408,1067.0061Z" transform="translate(-939.12344 -166.8961)"/><path class="cls-50" d="M1298.68128,1025.4498c8.4323,9.7649,11.26772,18.5769,15.67859,31.1699,3.8018,10.8544-2.8698,10.6497-4.78579,10.3864a22.30142,22.30142,0,0,0,13.78092-1.6524s-7.83863-7.4909-10.25663-15.3869c-2.418-7.8959-9.00579-20.087-20.47489-34.2503-11.469-14.1632-11.0451-37.3081-11.0451-37.3081C1275.45038,998.8276,1290.24908,1015.6849,1298.68128,1025.4498Z" transform="translate(-939.12344 -166.8961)"/><path class="cls-51" d="M1289.56008,968.2073s-10.7237,5.7717-3.0014,32.3437C1286.55868,1000.551,1284.42688,978.9542,1289.56008,968.2073Z" transform="translate(-939.12344 -166.8961)"/><path class="cls-51" d="M1312.15037,951.4232s23.90123-4.8436,33.32093,42.0481C1345.4713,993.4713,1339.0292,958.9407,1312.15037,951.4232Z" transform="translate(-939.12344 -166.8961)"/><path class="cls-50" d="M1272.62138,958.4199" transform="translate(-939.12344 -166.8961)"/><path class="cls-19" d="M1290.17068,965.946a10.61282,10.61282,0,0,1,1.622-.9317c5.304-2.4169,9.8241-10.3743,16.4272-13.7339-1.6663-.4778-5.8404-2.4805-6.4328-10.6228-.7428-10.2082-3.6339-19.1423,3.4132-20.5098,7.04719-1.3674,7.56472,1.5682,9.663-.7155,2.0982-2.2837-.5879-17.7277-.5879-17.7277s-1.5647,1.7455-8.41229,2.5795c-6.8477.8341-22.2148,6.2463-20.05708,23.1526s3.92818,30.956,3.92818,30.956-3.716-.2242-3.6009,4.0747C1286.17758,964.121,1287.80988,965.3228,1290.17068,965.946Z" transform="translate(-939.12344 -166.8961)"/><path class="cls-52" d="M1302.51278,944.799l.0031-.0019c-.0161-.0535-.0351-.1003-.0508-.1547C1302.49308,944.7348,1302.51278,944.799,1302.51278,944.799Z" transform="translate(-939.12344 -166.8961)"/><path class="cls-3" d="M1312.98827,920.3237c-13.65239-6.5747-14.54479,2.7188-13.49989,10.4291a96.57645,96.57645,0,0,0,2.9669,13.857,19.50017,19.50017,0,0,1-.6682-3.9522c-.7428-10.2082-3.6339-19.1423,3.4132-20.5098,4.70509-.9129,6.49872.0908,7.79629.1801Z" transform="translate(-939.12344 -166.8961)"/><path class="cls-3" d="M1286.13328,962.4674c.0443,1.6536,1.6766,2.8554,4.0374,3.4786a10.61282,10.61282,0,0,1,1.622-.9317,22.10719,22.10719,0,0,0,6.0314-4.7705c-5.8114,2.8384-8.0899-1.8511-8.0899-1.8511S1286.01818,958.1685,1286.13328,962.4674Z" transform="translate(-939.12344 -166.8961)"/><path class="cls-46" d="M1339.5143,789.0852s13.2717-49.1409-2.2125-60.4042c-15.4842-11.2632-23.05923-2.8054-19.15653,2.0935,3.90263,4.8989-8.3399,8.4687-15.58349,1.8906s-28.5939-11.9498-31.9206-.0578-13.72318,5.483-17.1693,12.7902c-3.4461,7.3073-.16588,11.57,6.5126,27.271,6.67852,15.7009,28.4893,57.5839,47.7291,49.5819C1326.9533,814.2484,1334.1011,805.9231,1339.5143,789.0852Z" transform="translate(-939.12344 -166.8961)"/><path class="cls-1" d="M1298.38288,813.0764s-2.3873-16.4556-.30288-22.3813c2.08448-5.9257-7.50872-9.1356-7.63982-15.8827-.13118-6.7471-5.6953-13.0164-10.6865-14.033-4.9913-1.0167-11.8345,3.6695-23.9174-4.6512-12.0829-8.3206-21.2739-6.8283-26.53928-12.1343s-6.38562,15.4047-16.40342,21.5278c-10.0177,6.123-20.8303,21.8445-14.7137,38.6521,6.1165,16.8076,14.8624,46.3521,38.60812,46.6184,23.74558.2662,50.09708,23.4701,57.30628-2.8996C1301.30348,821.5228,1300.55788,824.4692,1298.38288,813.0764Z" transform="translate(-939.12344 -166.8961)"/><path class="cls-2" d="M1212.28528,774.4961c14.7825.8182,36.9981,20.4913,44.99772,28.0309-9.50232-17.7679-17.14782-30.0149-17.32522-30.2973a.84673.84673,0,1,1,1.4345-.9c.1718.2742,7.35472,11.7801,16.4555,28.6746-2.3569-13.9048,5.1224-30.7543,5.209-30.9473a.42338.42338,0,0,1,.7723.3472c-.0924.2048-8.6032,19.3751-4.4777,33.4066,5.1112,9.604,10.7175,20.744,15.9758,32.4482-2.3735-14.975,2.1971-32.8745,2.2522-33.0863a.42388.42388,0,0,1,.82062.2128c-.05992.2281-5.40212,21.1622-1.46892,36.4829,7.08692,16.1639,13.3571,33.2006,16.6407,48.6246a.8464.8464,0,0,1-.57578.9843.77725.77725,0,0,1-.07522.0198.847.847,0,0,1-1.0051-.6515c-3.0881-14.5074-8.84268-30.4622-15.4306-45.7647-4.6914-5.0803-25.7375-26.9455-41.4733-28.2402a.42353.42353,0,0,1,.0706-.8441c14.8007,1.2187,33.547,19.541,40.38662,26.7448-5.47642-12.5077-11.45-24.499-16.91112-34.8178-5.495-5.2949-30.6412-28.7147-46.3186-29.5825a.42313.42313,0,1,1,.046-.845Z" transform="translate(-939.12344 -166.8961)"/><path class="cls-53" d="M1198.17978,804.1737c-6.1165-16.8075,4.696-32.5291,14.7139-38.6521,10.0177-6.123,11.1379-26.8336,16.40332-21.5277,5.26548,5.306,14.45638,3.8137,26.53928,12.1343s18.9261,3.6345,23.9173,4.6511c4.9913,1.0167,10.55542,7.2859,10.6865,14.033.0947,4.873,5.1083,7.9037,7.1102,11.4421-1.30228-.8623-7.9841-5.5039-9.7152-11.0868-1.92-6.1924-5.3767-13.5676-15.0497-11.6242-9.6729,1.9433-15.9106-4.7958-23.0316-8.546-7.121-3.7501-17.1041-3.5961-20.1826-6.7142-3.0787-3.118-5.3744,12.8286-12.0703,17.0166-6.696,4.1879-21.4981,16.7721-19.3093,29.6691,2.1436,12.6298,7.86842,29.4544,8.1047,30.1461C1202.88338,817.7847,1200.36178,810.1696,1198.17978,804.1737Z" transform="translate(-939.12344 -166.8961)"/><path class="cls-46" d="M1391.4956,771.3835s8.699-7.3356,17.2172-2.8497c8.5181,4.486,7.9828,10.4216,7.9828,10.4216s15.0187-5.5619,19.4349,8.6807-13.9131,24.4512-11.865,31.0564c2.0481,6.6053,5.4946,27.9363-10.329,36.0104-15.8235,8.074-25.1421,1.3672-31.3622,15.6072s3.1122,19.1722-3.9244,24.7479c-7.0365,5.5757-18.3068,56.7742-38.1776,65.6691-19.8708,8.895-41.73452-20.7536-52.67282-23.9235-10.9384-3.1699-47.9008,2.403-58.7039-12.006s-30.8317-11.1401-35.0639-21.1408-2.4945-14.6122-12.2295-19.7391c-9.735-5.1268-26.0403-30.7069-16.89218-42.4353,9.148-11.7284,97.07528,39.0676,145.178-8.6553C1358.1908,785.1042,1391.4956,771.3835,1391.4956,771.3835Z" transform="translate(-939.12344 -166.8961)"/><path class="cls-3" d="M1335.8139,949.5395s-12.8526.2179-30.43822-11.2428c-17.5855-11.4607-17.621-12.91-27.3065-13.6396-9.6854-.7297-19.8658-1.9307-18.0753-7.775,1.7904-5.8444-1.428-12.9959-9.5483-15.4836-8.1204-2.4878-24.91,5.886-28.1278-7.0865s-12.5536-3.3664-18.3136-9.606c-5.7599-6.2396-22.70518.5558-31.1593-13.062-8.4542-13.6177-.7585-23.087-9.3934-28.2895-8.6348-5.2025-4.2448-7.5335-5.341-12.8238-1.0963-5.2904-12.9692-12.4438-7.9694-21.4604,4.9998-9.0165,10.3797-10.405,14.2697-17.3642,3.8901-6.9593,15.0674-7.1038,24.5164-4.209,9.449,2.8947,10.5761-9.653,29.4242-3.8787,18.8482,5.7742,29.2017,19.9738,37.0444,20.4586,7.8426.4848,28.5361,8.5824,33.4008,17.7442,4.8648,9.1618,12.8391,7.1298,16.0873,17.3946,3.2483,10.2648,1.4088,22.0077,5.76169,26.0582s8.0462,10.7758,4.7786,21.4418,7.00493,13.6532,9.67713,12.2343,1.9121,10.9743,7.792,14.214c5.8798,3.2397,15.0282,5.7227,13.7917,14.4538C1345.4486,936.349,1348.0161,950.4009,1335.8139,949.5395Z" transform="translate(-939.12344 -166.8961)"/><path class="cls-4" d="M1347.6792,948.2145a41.2186,41.2186,0,0,1-14.1996-.6557c-7.4894-6.291-10.7941-23.4831-10.8309-23.6735a.42276.42276,0,1,0-.8312.1549c.1413.7547,3.0871,16.0508,9.9927,23.1165a61.09358,61.09358,0,0,1-17.267-7.6895c-7.89809-10.4564-10.54317-39.8182-10.56859-40.123a.42376.42376,0,0,0-.8443.0739c.10472,1.191,2.4564,27.2321,9.62272,38.9066a117.57748,117.57748,0,0,1-17.02312-14.055c-1.6712-5.7688-11.5757-41.5067-6.0601-59.5086a.42316.42316,0,0,0-.8092-.2479c-5.2297,17.0707,3.178,49.7057,5.6488,58.552a223.54526,223.54526,0,0,1-18.603-21.4236c-1.90838-6.4946-10.6399-38.544-2.0663-54.1045a.42344.42344,0,0,0-.7414-.4093c-8.1346,14.7644-1.3136,43.0266,1.38732,52.6671q-5.98623-7.8765-12.16562-17.036c-.3523-.5224-.7002-1.0127-1.0513-1.5263-2.80208-7.1996-12.3044-34.1551-4.8582-51.3833a.42345.42345,0,1,0-.7774-.336c-6.7203,15.55.0871,38.773,3.68052,48.8811a236.96381,236.96381,0,0,0-18.47062-23.2658c.0467-5.1919.0075-32.8054-5.8713-43.877a.42321.42321,0,0,0-.7476.3969c5.4187,10.2051,5.7782,35.675,5.7741,42.5512a167.5921,167.5921,0,0,0-15.8819-15.2533c-6.7781-9.4972-15.72568-36.1552-15.8239-36.4495a.42247.42247,0,1,0-.80178.2666c.37378,1.1204,7.90018,23.5466,14.45848,34.4134-14.9577-11.9807-24.9438-14.7218-25.6551-14.9045a.84605.84605,0,0,0-.42138,1.6388c.22.0566,16.51368,4.533,38.92568,27.3613-12.3724-6.4866-34.895-8.6161-36.0318-8.7201a.42347.42347,0,0,0-.0762.8435c.298.0267,27.029,2.5484,38.323,10.1709a226.81982,226.81982,0,0,1,20.9947,25.917c-13.0748-9.1347-40.0039-11.2781-41.27238-11.374a.42358.42358,0,0,0-.06442.8447c.3266.0244,31.2307,2.4898,42.9835,12.919.4211.6139.8394,1.2043,1.26192,1.8309q5.13042,7.60905,10.12948,14.3185c-12.4074-8.8417-33.43248-11.7832-34.4589-11.9214a.423.423,0,1,0-.11258.8384c.26608.0367,24.88528,3.4785,36.56638,13.7489a243.98181,243.98181,0,0,0,16.55662,19.7237,67.16916,67.16916,0,0,0-23.27752-8.2606.42308.42308,0,1,0-.1044.8397c.1564.0194,14.4343,1.8853,26.0528,10.1948,14.9856,15.2414,29.13042,23.981,42.63762,26.3712.2426.1315.4866.2592.7367.3692a.38188.38188,0,0,0,.513-.168,42.17151,42.17151,0,0,0,11.7438.1335.84613.84613,0,1,0-.2208-1.6778Z" transform="translate(-939.12344 -166.8961)"/><path class="cls-54" d="M1314.98147,888.5368l.0054-.0012c.0312-.1763.0934-.371.1327-.5523C1315.07377,888.1681,1315.03557,888.3603,1314.98147,888.5368Z" transform="translate(-939.12344 -166.8961)"/><path class="cls-55" d="M1255.39568,804.077c-7.8426-.4848-18.1961-14.6844-37.0442-20.4587-18.8482-5.7741-19.9753,6.7735-29.4242,3.8788-9.4491-2.8948-20.6264-2.7503-24.5165,4.2089s-9.2699,8.3477-14.2697,17.3643,6.8731,16.17,7.9694,21.4603c1.0963,5.2904-3.2938,7.6214,5.341,12.8239,8.6349,5.2025.9392,14.6718,9.3933,28.2895,5.36822,8.6469,14.15722,9.064,21.335,9.8134l-.0011-.0005s-16.4598-2.2465-20.0958-12.5501c-3.6358-10.3037-3.0153-22.6227-6.9825-25.6546-3.9673-3.0318-7.2797-6.0444-7.4511-13.0493-.1714-7.0047-11.0427-12.7325-8.6172-18.3025,2.4257-5.5698,13.1507-13.7115,14.4935-18.0948,1.343-4.3832,8.4322-9.0039,16.0299-6.6763s11.18452,4.705,19.4874.2964c8.3029-4.4087,19.4495-3.2314,25.3944,2.6653,5.9449,5.8968,8.9414,21.6783,21.4216,20.0677,12.48012-1.6106,24.608-1.8108,30.4634,4.3782,5.8555,6.1889,3.9944,14.0894,12.3958,16.6632,8.4013,2.5737,14.2165,8.1111,14.0333,14.4478-.1833,6.3369-2.13838,15.3273,3.7169,21.5163,5.47259,5.7841,7.87919,14.6045,6.79109,20.2373.0599-.2316.09163-.4465.1648-.6858,3.2677-10.666-.4257-17.3912-4.7785-21.4417-4.353-4.0505-2.51359-15.7933-5.76179-26.0583-3.2482-10.2648-11.2225-8.2327-16.0872-17.3945C1283.932,812.6593,1263.23838,804.5617,1255.39568,804.077Z" transform="translate(-939.12344 -166.8961)"/><path class="cls-54" d="M1235.99408,900.1001c-10.235,3.1507-10.1589-13.4008-15.3762-14.9992-3.9095-1.1977-10.377.6078-15.7823.369,5.7891,4.6179,14.4145-3.5249,17.4822,8.8421,3.2177,12.9725,20.0074,4.5988,28.1277,7.0865a16.5339,16.5339,0,0,1,3.3887,1.4705l.0034-.0049A20.69763,20.69763,0,0,0,1235.99408,900.1001Z" transform="translate(-939.12344 -166.8961)"/><path class="cls-19" d="M1344.5472,955.6357s9.2119-8.9654,13.4731-29.5187c4.2612-20.5534,3.2579-21.5999,9.5656-28.9859,6.3077-7.3861,12.6298-15.4554,7.2214-18.3036-5.4083-2.8483-8.2143-10.1714-4.2569-17.6859,3.9575-7.5145,21.7303-13.5257,14.7939-24.9506-6.9364-11.4248,6.4581-11.2791,6.0902-19.7629-.368-8.4837,16.3948-15.7177,12.6906-31.3124-3.7041-15.5947-15.8457-16.8076-13.4519-26.6003,2.3938-9.7926-2.3537-8.3206-5.3347-12.8265-2.9809-4.5059.3106-17.9708-9.6101-20.7775-9.9206-2.8066-14.697.0319-22.3759-2.1122-7.6789-2.1442-15.6581,5.6843-20.2631,14.4283-4.6049,8.744-14.30173.7012-23.48732,18.1432-9.1855,17.4419-6.407,34.7943-11.5898,40.7003-5.1828,5.9059-14.0204,26.2944-10.9482,36.2023,3.0721,9.9079-3.9892,14.1338,1.0047,23.672,4.9939,9.5383,14.6217,16.5085,14.428,22.4513-.1936,5.9428,1.9753,13.3025,11.84549,18.5005,9.87033,5.198,4.7506,14.5914,1.8608,15.4875-2.8898.896,6.43883,9.0902,4.59383,15.545-1.8449,6.4549-6.53013,14.6954.536,19.971C1328.3989,953.1762,1336.5594,964.9003,1344.5472,955.6357Z" transform="translate(-939.12344 -166.8961)"/><path class="cls-56" d="M1335.2455,963.1205a41.22183,41.22183,0,0,0,9.5414-10.5367c.8143-9.7471-9.0547-24.2071-9.1639-24.3675a.42275.42275,0,1,1,.6957-.4805c.4359.6321,9.2125,13.5013,9.3593,23.3801a61.09694,61.09694,0,0,0,6.7125-17.6697c-1.8531-12.9724-20.8213-35.5405-21.0197-35.7733a.42374.42374,0,0,1,.6474-.5469c.7713.9136,17.5902,20.9333,20.8232,34.2448a117.57927,117.57927,0,0,0,2.0242-21.9825c-2.9153-5.251-21.2917-37.4629-37.95093-46.2355a.4232.4232,0,0,1,.3944-.7489c15.797,8.3193,33.02663,37.2826,37.562,45.2696a223.54822,223.54822,0,0,0-2.0905-28.2961c-3.2631-5.9308-19.849-34.7111-36.93113-39.5937a.42346.42346,0,0,1,.2321-.8145c16.20793,4.6331,31.45313,29.3891,36.38973,38.099q-1.37-9.7977-3.5139-20.6368c-.1224-.6181-.2251-1.2104-.3421-1.8215-3.1334-7.0616-15.5621-32.7992-33.03293-39.6569a.42342.42342,0,0,1,.3094-.7883c15.76863,6.1901,27.44823,27.3852,32.08763,37.0581a237.00123,237.00123,0,0,1-3.4909-29.5005c-3.7165-3.6257-23.2807-23.1128-26.99323-35.086a.42319.42319,0,1,1,.8084-.2507c3.422,11.0361,21.23963,29.2399,26.12123,34.0826a167.56271,167.56271,0,0,1,.3698-22.0172c-1.9618-11.5018-14.5703-36.6361-14.7099-36.9132a.42249.42249,0,1,1,.7542-.381c.5315,1.0548,11.1391,22.1986,14.2274,34.5095,2.0405-19.0553,7.1329-28.0721,7.5045-28.7055a.84606.84606,0,0,1,1.4597.8559c-.1148.196-8.4211,14.9109-8.0182,46.8994,4.1166-13.3493,18.4775-30.8298,19.2048-31.7097a.42347.42347,0,0,1,.6522.5403c-.1911.2303-17.2393,20.9731-19.7901,34.3579a226.817,226.817,0,0,0,3.5931,33.1595c2.7327-15.7139,20.189-36.3306,21.015-37.2982a.42355.42355,0,0,1,.6446.5496c-.2128.2489-20.2419,23.9128-21.1246,39.6009.1388.7314.2629,1.4442.4098,2.1856q1.7832,9.00225,3.0207,17.2772c2.4703-15.0338,15.1998-32.0241,15.825-32.8497a.423.423,0,1,1,.6743.511c-.1615.2146-15.0688,20.1074-16.0136,35.6328a243.97329,243.97329,0,0,1,2.3264,25.6463,67.17014,67.17014,0,0,1,10.5429-22.3367.42309.42309,0,1,1,.6694.5176c-.0965.1246-8.8343,11.5698-11.1263,25.6688.2533,21.373-3.5138,37.5676-11.3365,48.8354-.0777.2648-.159.5279-.2572.7829a.3819.3819,0,0,1-.4808.2455,42.17428,42.17428,0,0,1-8.1811,8.4264.84616.84616,0,1,1-1.0349-1.339Z" transform="translate(-939.12344 -166.8961)"/><path class="cls-57" d="M1315.94627,897.8663l-.0046.0029c-.1471-.102-.329-.1951-.4854-.295C1315.61967,897.6719,1315.783,897.7803,1315.94627,897.8663Z" transform="translate(-939.12344 -166.8961)"/><path class="cls-58" d="M1298.01228,796.0709c5.1828-5.906,2.4043-23.2583,11.5898-40.7003,9.18559-17.4418,18.88242-9.3991,23.48732-18.1431,4.605-8.7441,12.5842-16.5726,20.2631-14.4284s12.4552-.6943,22.3759,2.1123c9.9207,2.8067,6.6291,16.2715,9.6101,20.7775,2.981,4.5059,7.7285,3.0339,5.3347,12.8265s9.7478,11.0056,13.4519,26.6003c2.352,9.9022-3.5456,16.4319-8.0722,22.0526l.0004-.0011s10.0055-13.2613,5.2573-23.102c-4.7483-9.8407-13.9259-18.0817-13.2813-23.033.6446-4.9514.8414-9.4245-4.0077-14.4825-4.8491-5.0579-1.2519-16.8075-6.9131-19.0117-5.6612-2.2041-18.9957-.3321-23.052-2.4683-4.0563-2.1361-12.3304-.3625-16.0331,6.6683-3.7027,7.0309-4.5436,11.2511-13.5226,14.0352-8.97913,2.7842-15.9988,11.5224-16.00452,19.8957-.0056,8.3734,9.07972,21.6207-.8578,29.3405-9.93748,7.7196-18.6261,16.1833-18.3614,24.6991s7.1816,12.7629,3.0873,20.5374c-4.09438,7.7745-4.2636,15.8026.3614,20.1381,4.62522,4.3356,12.3816,9.284,12.6465,17.7998.2473,7.9589,4.80939,15.8821,9.57272,19.0796-.20653-.1207-.38133-.2497-.60273-.3663-9.87027-5.198-12.03909-12.5577-11.84549-18.5005.1937-5.9429-9.4341-12.913-14.4281-22.4513-4.9938-9.5383,2.0675-13.7641-1.00468-23.6719C1283.99188,822.3654,1292.82948,801.9769,1298.01228,796.0709Z" transform="translate(-939.12344 -166.8961)"/><path class="cls-58" d="M1379.8132,849.9733c9.4481-5.0414-2.3489-16.6514.1937-21.4794,1.9053-3.6179,7.744-6.9342,11.3837-10.9376-.8032,7.3617-12.6589,7.7432-6.0463,18.6347,6.9364,11.4248-10.8364,17.4361-14.7938,24.9506a16.536,16.536,0,0,0-1.3447,3.4406l-.0059-.0011A20.69762,20.69762,0,0,1,1379.8132,849.9733Z" transform="translate(-939.12344 -166.8961)"/><path class="cls-56" d="M1345.1995,955.0047s8.6659,7.6971,7.533,12.7999c-1.133,5.1027-20.2335,11.3646-24.9234,10.1037s-5.5973-14.1082-5.2727-17.7697C1322.8609,956.4772,1345.1995,955.0047,1345.1995,955.0047Z" transform="translate(-939.12344 -166.8961)"/><path class="cls-59" d="M1432.6935,914.6236a90.20863,90.20863,0,0,1-11.6095-.5934c-5.7508-.725-13.1766,5.9213-20.7124,15.4126-7.5359,9.4913-24.7533,17.8864-30.6412,45.8578-5.8878,27.9713,20.6129,65.2463,50.5348,63.549,0,0,34.524,15.0421,53.1822-10.6979s13.938-61.2637,3.5821-75.7451c-10.356-14.4814-12.9345-35.4404-23.5312-39.138S1432.6935,914.6236,1432.6935,914.6236Z" transform="translate(-939.12344 -166.8961)"/><path class="cls-46" d="M1429.9029,922.1313s-4.0946-17.5191,2.0726-23.5188c0,0,7.7768-.5575,11.3841,5.7013,0,0-10.2382,8.8904-10.2345,18.1463Z" transform="translate(-939.12344 -166.8961)"/><path class="cls-60" d="M1426.557,909.7272s-3.1782-15.5445-9.5763-21.3232c-6.3982-5.7786-13.126-8.284-17.0586-11.9287-3.9325-3.6447-19.9835-3.8451-26.1768-.731a26.90411,26.90411,0,0,1-11.2411,3.0577s3.5644,4.5927,6.1136,14.6096c2.5491,10.0168,15.8359,15.7109,21.7713,17.93,5.9353,2.2191,11.9475,6.4574,19.8229,3.804C1418.0875,912.4923,1422.3153,909.1925,1426.557,909.7272Z" transform="translate(-939.12344 -166.8961)"/><path class="cls-46" d="M1431.7716,912.2998a134.50328,134.50328,0,0,0-12.1019-7.8211c-.3253-1.0059-3.1861-9.4499-8.2066-13.6176a.4836.4836,0,1,0-.6186.7435c3.9242,3.2549,6.5592,9.5186,7.534,12.1304-4.4594-2.5398-9.1073-4.9526-13.6867-7.1858-.3006-.4059-7.3095-9.9704-9.7086-16.2835a.48281.48281,0,0,0-.9028.3426c1.9359,5.0927,6.6423,12.0274,8.7833,15.0551-3.9947-1.9154-7.8987-3.6822-11.5457-5.2704-.4475-.5649-5.8286-7.2813-11.2923-10.4116a.48214.48214,0,1,0-.4783.8373c3.8761,2.2225,7.8254,6.4549,9.7912,8.7188-10.7917-4.6292-18.8333-7.5095-19.0108-7.5723a.48258.48258,0,1,0-.3202.9105c.157.0559,6.568,2.3505,15.5997,6.1273a80.80309,80.80309,0,0,0-10.3029-.5341.48251.48251,0,0,0-.0527.9614.40679.40679,0,0,0,.0681.0028c.1086-.0012,10.6434-.1608,15.1938,1.6608,2.9413,1.2767,6.0568,2.6719,9.2591,4.171-6.332-.745-14.9238.2674-15.3895.3257a.48266.48266,0,0,0-.0029.9581.41661.41661,0,0,0,.118-.0003c.1448-.0174,14.1606-1.6989,19.4045.6896,3.8514,1.8717,7.7542,3.8706,11.5581,5.9678-7.5476-.8136-19.6641,2.6258-20.2806,2.802a.482.482,0,0,0,.0713.9427.46836.46836,0,0,0,.1922-.0157c.1806-.0528,17.8023-5.0549,23.4718-1.7769a134.47642,134.47642,0,0,1,12.286,7.922.46981.46981,0,0,0,.2246.0892.48274.48274,0,0,0,.3454-.8693Z" transform="translate(-939.12344 -166.8961)"/><path class="cls-34" d="M1429.0504,924.2948c5.6303-.7819,13.4365-6.0128,19.7381-5.2184,0,0-7.6909-2.4612-12.7799-.1196-5.089,2.3418-14.1548,4.7415-18.5247-.0356C1417.4839,918.9212,1423.4202,925.0767,1429.0504,924.2948Z" transform="translate(-939.12344 -166.8961)"/><path class="cls-34" d="M1461.9666,1027.6349c-23.1535,17.9695-41.773,3.7428-41.773,3.7428s-31.7683-5.5902-40.5021-38.0297c-8.7338-32.4394,13.5186-56.6484,13.5186-56.6484h0c-8.2946,7.6737-19.0678,17.6412-23.4797,38.601-5.8877,27.9713,20.6128,65.2463,50.5348,63.549,0,0,34.5241,15.042,53.1822-10.6979,11.5823-15.9784,14.1516-35.7239,11.9605-51.8688C1485.4069,976.3995,1485.0796,1009.6968,1461.9666,1027.6349Z" transform="translate(-939.12344 -166.8961)"/><path class="cls-61" d="M1463.9411,937.4216s19.3223,21.4095,14.2368,49.841c-5.0856,28.4316-18.5743,34.1938-18.5743,34.1938S1489.1694,989.399,1463.9411,937.4216Z" transform="translate(-939.12344 -166.8961)"/><rect class="cls-62" x="279.33556" y="749.7227" width="381.274" height="56.5512"/><rect class="cls-63" x="279.33556" y="755.7634" width="381.274" height="56.5512"/><path class="cls-62" d="M1236.133,979.2108c28.46148-17.4791,60.46818-34.8087,86.338-47.7868q9.41-4.7208,17.8736-8.7646h-4.9466c-33.04862,15.9753-71.33072,36.7825-103.13882,56.5514Z" transform="translate(-939.12344 -166.8961)"/><path class="cls-62" d="M1491.2847,979.2108h3.3539c2.676-1.9944,5.4289-4.0541,8.3357-6.2373,14.2071-10.6696,29.7906-22.3734,44.9257-32.2957-13.3477,11.3056-26.9375,25.2236-38.9002,38.533h2.6939c16.7053-18.3979,35.9657-37.2234,53.0542-48.8545a156.66789,156.66789,0,0,1,15.4407-7.6969h-6.7429a107.98747,107.98747,0,0,0-10.672,6.5308c-19.9312,11.3244-41.7284,27.6944-61.0087,42.1748C1498.2255,974.0235,1494.717,976.658,1491.2847,979.2108Z" transform="translate(-939.12344 -166.8961)"/><path class="cls-62" d="M1596.851,978.8333c1.008-1.4679,1.9587-2.9289,2.8822-4.386v-4.0026q-2.6067,4.33815-5.7566,8.7661h5.5663c.0659-.055.1244-.1096.1903-.1642v-2.6275Q1598.3001,977.6497,1596.851,978.8333Z" transform="translate(-939.12344 -166.8961)"/><path class="cls-62" d="M1500.9253,922.6594c-7.4665,9.209-15.5291,18.333-23.8639,27.1305a98.97767,98.97767,0,0,0-18.8241,18.9303q-5.6358,5.40585-11.2461,10.4906h2.8726c1.2499-1.1454,2.4961-2.2672,3.7486-3.4352-.6523,1.136-1.2511,2.2829-1.8253,3.4352h2.3076a68.69233,68.69233,0,0,1,6.2408-9.8082c5.6199-5.4115,11.2181-11.0255,16.6925-16.7516,15.8736-12.6772,36.7235-22.8306,58.7511-29.9916h-6.5911c-1.4035.4896-2.8129.9719-4.1982,1.4851a191.8162,191.8162,0,0,0-39.8269,19.8033c6.4173-7.0219,12.5693-14.1613,18.318-21.2884Z" transform="translate(-939.12344 -166.8961)"/><path class="cls-62" d="M1383.5594,922.6594c-28.9207,19.8908-72.6924,41.5013-105.335,56.5514h4.783c33.12229-15.3957,76.13282-36.8955,104.04872-56.5514Z" transform="translate(-939.12344 -166.8961)"/><path class="cls-62" d="M1218.459,953.2748c18.13558-9.7084,39.17378-20.4851,60.87368-30.6154h-5.2593c-19.81,9.3703-38.9042,19.1918-55.61438,28.158Z" transform="translate(-939.12344 -166.8961)"/><path class="cls-62" d="M1300.20868,979.2108h4.7262q7.36588-3.2658,14.74389-6.6562c21.841-10.0776,64.04973-30.5977,90.00533-49.8952h-3.2051C1381.6178,940.6596,1340.4265,961.601,1300.20868,979.2108Z" transform="translate(-939.12344 -166.8961)"/><path class="cls-62" d="M1237.41158,922.6594h-3.5837c-5.0373,3.4338-10.1863,6.9167-15.36888,10.4006v2.4452C1224.86418,931.2008,1231.23378,926.8871,1237.41158,922.6594Z" transform="translate(-939.12344 -166.8961)"/><path class="cls-62" d="M1480.2472,922.6594h-2.5791c-4.3226,5.3992-9.1319,11.1007-14.1491,17.0411-10.8991,12.9063-22.5137,26.6743-30.756,39.5103h2.3768c8.1187-12.3773,19.355-25.7024,29.9169-38.2105C1470.4731,934.5884,1475.657,928.4469,1480.2472,922.6594Z" transform="translate(-939.12344 -166.8961)"/><path class="cls-62" d="M1364.5568,979.2108h3.6113q7.80375-5.25465,16.3656-11.0471c20.6902-13.9828,45.6106-30.8234,68.5503-45.5043h-3.7172c-19.4752,12.5366-41.8213,27.5209-65.9598,43.8349C1376.8767,970.9078,1370.559,975.1758,1364.5568,979.2108Z" transform="translate(-939.12344 -166.8961)"/><path class="cls-62" d="M1400.4741,979.2108h2.5101a575.41571,575.41571,0,0,1,62.8134-56.5514h-3.3114A569.55175,569.55175,0,0,0,1400.4741,979.2108Z" transform="translate(-939.12344 -166.8961)"/><rect class="cls-62" x="279.33556" y="849.9256" width="381.274" height="56.5513"/><rect class="cls-63" x="279.33556" y="855.9663" width="381.274" height="56.5513"/><path class="cls-62" d="M1236.133,1079.4138c28.46148-17.4791,60.46818-34.8088,86.338-47.7868q9.41-4.7208,17.8736-8.7646h-4.9466c-33.04862,15.9753-71.33072,36.7824-103.13882,56.5514Z" transform="translate(-939.12344 -166.8961)"/><path class="cls-62" d="M1491.2847,1079.4138h3.3539c2.676-1.9944,5.4289-4.0542,8.3357-6.2374,14.2071-10.6695,29.7906-22.3734,44.9257-32.2957-13.3477,11.3057-26.9375,25.2237-38.9002,38.5331h2.6939c16.7053-18.3979,35.9657-37.2235,53.0542-48.8546a156.66611,156.66611,0,0,1,15.4407-7.6968h-6.7429a107.94938,107.94938,0,0,0-10.672,6.5308c-19.9312,11.3243-41.7284,27.6944-61.0087,42.1748C1498.2255,1074.2265,1494.717,1076.8609,1491.2847,1079.4138Z" transform="translate(-939.12344 -166.8961)"/><path class="cls-62" d="M1596.851,1079.0362c1.008-1.4679,1.9587-2.9289,2.8822-4.386v-4.0025q-2.6067,4.338-5.7566,8.7661h5.5663c.0659-.0551.1244-.1096.1903-.1642v-2.6276Q1598.3001,1077.85275,1596.851,1079.0362Z" transform="translate(-939.12344 -166.8961)"/><path class="cls-62" d="M1500.9253,1022.8624c-7.4665,9.209-15.5291,18.3329-23.8639,27.1305a98.97481,98.97481,0,0,0-18.8241,18.9303q-5.6358,5.40585-11.2461,10.4906h2.8726c1.2499-1.1454,2.4961-2.2672,3.7486-3.4353-.6523,1.1361-1.2511,2.283-1.8253,3.4353h2.3076a68.69883,68.69883,0,0,1,6.2408-9.8083c5.6199-5.4114,11.2181-11.0254,16.6925-16.7515,15.8736-12.6772,36.7235-22.8306,58.7511-29.9916h-6.5911c-1.4035.4896-2.8129.9718-4.1982,1.4851a191.80632,191.80632,0,0,0-39.8269,19.8033c6.4173-7.0219,12.5693-14.1613,18.318-21.2884Z" transform="translate(-939.12344 -166.8961)"/><path class="cls-62" d="M1383.5594,1022.8624c-28.9207,19.8908-72.6924,41.5013-105.335,56.5514h4.783c33.12229-15.3957,76.13282-36.8956,104.04872-56.5514Z" transform="translate(-939.12344 -166.8961)"/><path class="cls-62" d="M1218.459,1053.4778c18.13558-9.7085,39.17378-20.4852,60.87368-30.6154h-5.2593c-19.81,9.3702-38.9042,19.1918-55.61438,28.1579Z" transform="translate(-939.12344 -166.8961)"/><path class="cls-62" d="M1300.20868,1079.4138h4.7262q7.36588-3.266,14.74389-6.6562c21.841-10.0777,64.04973-30.5977,90.00533-49.8952h-3.2051C1381.6178,1040.8625,1340.4265,1061.8039,1300.20868,1079.4138Z" transform="translate(-939.12344 -166.8961)"/><path class="cls-62" d="M1237.41158,1022.8624h-3.5837c-5.0373,3.4337-10.1863,6.9167-15.36888,10.4006v2.4452C1224.86418,1031.4038,1231.23378,1027.0901,1237.41158,1022.8624Z" transform="translate(-939.12344 -166.8961)"/><path class="cls-62" d="M1480.2472,1022.8624h-2.5791c-4.3226,5.3991-9.1319,11.1006-14.1491,17.041-10.8991,12.9063-22.5137,26.6744-30.756,39.5104h2.3768c8.1187-12.3774,19.355-25.7025,29.9169-38.2106C1470.4731,1034.7914,1475.657,1028.6499,1480.2472,1022.8624Z" transform="translate(-939.12344 -166.8961)"/><path class="cls-62" d="M1364.5568,1079.4138h3.6113q7.80375-5.25465,16.3656-11.0471c20.6902-13.9829,45.6106-30.8234,68.5503-45.5043h-3.7172c-19.4752,12.5366-41.8213,27.5208-65.9598,43.8348C1376.8767,1071.1108,1370.559,1075.3788,1364.5568,1079.4138Z" transform="translate(-939.12344 -166.8961)"/><path class="cls-62" d="M1400.4741,1079.4138h2.5101a575.395,575.395,0,0,1,62.8134-56.5514h-3.3114A569.54153,569.54153,0,0,0,1400.4741,1079.4138Z" transform="translate(-939.12344 -166.8961)"/><path class="cls-24" d="M1390.5074,472.1274H1426.57S1411.0043,488.5641,1390.5074,472.1274Z" transform="translate(-939.12344 -166.8961)"/><circle class="cls-64" cx="1766.82197" cy="710.3949" r="42.53628" transform="translate(-923.95831 1290.50555) rotate(-45)"/><path class="cls-65" d="M1773.5174,670.8911s-13.1755-2.7375-26.6342,13.2939l1.4454-3.8488s-8.2738,2.0231-11.6867,6.3334C1736.6419,686.6696,1750.7016,665.2311,1773.5174,670.8911Z" transform="translate(-939.12344 -166.8961)"/><path class="cls-66" d="M1744.6613,674.0962a40.96162,40.96162,0,1,0,61.7651,51.813,42.53329,42.53329,0,1,1-61.7651-51.813Z" transform="translate(-939.12344 -166.8961)"/><path class="cls-67" d="M1776.2185,671.3132s33.2901,9.9384,30.2113,43.4673c0,0,1.4878-19.5264-11.931-28.954S1771.8641,677.6075,1776.2185,671.3132Z" transform="translate(-939.12344 -166.8961)"/><path class="cls-46" d="M1726.9751,663.0513l1.3488-4.985c8.6056-1.5979,23.5844,13.844,25.8134,16.2024a13.10105,13.10105,0,0,1,3.7756-1.2722s-4.6663,1.9418-6.8531,5.0168a4.29121,4.29121,0,0,1,1.4295-2.5636C1746.2895,669.7228,1726.9751,663.0513,1726.9751,663.0513Z" transform="translate(-939.12344 -166.8961)"/><path class="cls-60" d="M1742.2514,671.3283s-7.2297-6.9208-16.8097-3.5327c-9.5799,3.388-13.8864,4.1438-17.5032,7.3935,0,0,9.6428,7.1114,17.5624,6.6701C1733.4204,681.4179,1738.7044,672.5583,1742.2514,671.3283Z" transform="translate(-939.12344 -166.8961)"/><path class="cls-46" d="M1711.9973,675.4302c1.9197-.6158,3.771-1.1439,5.5625-1.6064a13.25066,13.25066,0,0,1-4.0937-.3931.06315.06315,0,1,1,.0359-.1211,13.12668,13.12668,0,0,0,4.8767.3039c2.9896-.7437,5.7871-1.2839,8.3863-1.6701a35.36977,35.36977,0,0,1-7.4804-.8984.063.063,0,1,1,.0304-.1223,33.89169,33.89169,0,0,0,8.5099.8695,73.72315,73.72315,0,0,1,9.3301-.6851c-3.3538-.5081-8.8297-1.929-8.8946-1.9462a.063.063,0,1,1,.0317-.122,97.85946,97.85946,0,0,0,9.8317,2.0676,42.23366,42.23366,0,0,1,10.7803,1.2102.12635.12635,0,1,1-.0744.2415,41.54062,41.54062,0,0,0-10.3976-1.1968c-1.1571.3226-5.3303,1.8181-9.7962,7.4893a.06378.06378,0,0,1-.016.0144.06312.06312,0,0,1-.0833-.0925c4.0823-5.1836,7.933-6.9008,9.4803-7.4155a72.39424,72.39424,0,0,0-9.7315.6291,20.94132,20.94132,0,0,0-9.3152,6.9966.06123.06123,0,0,1-.017.0156.0632.0632,0,0,1-.0842-.0913,21.20213,21.20213,0,0,1,8.8781-6.8503,87.74369,87.74369,0,0,0-9.064,1.7435,10.945,10.945,0,0,0-4.3563,2.8901.06053.06053,0,0,1-.016.0144.06315.06315,0,0,1-.0832-.0925,10.0683,10.0683,0,0,1,3.6831-2.6194c-1.8749.4779-3.8192,1.031-5.8366,1.6782a.12642.12642,0,0,1-.0768-.2409Z" transform="translate(-939.12344 -166.8961)"/><path class="cls-60" d="M1751.2964,668.797s-6.0972-5.1594-4.2092-13.0458c1.888-7.8865,2.1278-11.3676,4.4045-14.5097,0,0,6.4503,7.0585,6.7622,13.3808C1758.5657,660.9446,1751.9761,665.879,1751.2964,668.797Z" transform="translate(-939.12344 -166.8961)"/><path class="cls-46" d="M1752.0225,644.4426c-.3283,1.575-.5926,3.0885-.8099,4.549a10.57317,10.57317,0,0,0-.6543-3.2161.05035.05035,0,1,0-.093.0386,10.47945,10.47945,0,0,1,.6489,3.845c-.3404,2.4349-.5352,4.7003-.6244,6.7955a28.23088,28.23088,0,0,0-1.3384-5.8617.05031.05031,0,1,0-.0946.0343,27.04692,27.04692,0,0,1,1.4017,6.6813,58.80576,58.80576,0,0,0,.2363,7.4621c-.6837-2.6193-2.2692-6.8464-2.2883-6.8965a.0503.0503,0,1,0-.0942.0353,78.08812,78.08812,0,0,1,2.463,7.6302,33.70794,33.70794,0,0,0,1.8618,8.4547.10082.10082,0,1,0,.1854-.0793,33.15635,33.15635,0,0,1-1.8191-8.1521c.1593-.9453.9973-4.3824,5.1249-8.401l.0101-.0139a.05035.05035,0,0,0-.0804-.0583c-3.7727,3.6733-4.8136,6.873-5.0927,8.1441a57.77424,57.77424,0,0,1-.3144-7.7761,16.712,16.712,0,0,1,4.7741-7.9781.04844.04844,0,0,0,.011-.0147.05053.05053,0,0,0-.0796-.0593,16.92061,16.92061,0,0,0-4.6945,7.6189,70.03642,70.03642,0,0,1,.6259-7.3394,8.73555,8.73555,0,0,1,1.9296-3.699l.0101-.0139a.05045.05045,0,0,0-.0804-.0584,8.0354,8.0354,0,0,0-1.771,3.1421c.2225-1.5279.499-3.1173.844-4.7725a.10088.10088,0,0,0-.1976-.0408Z" transform="translate(-939.12344 -166.8961)"/><path class="cls-49" d="M1653.5471,422.5891a63.85313,63.85313,0,0,1-11.1219-17.6494c-4.8236-11.1499-21.6129-22.7717-47.3224,1.1446-25.7095,23.9164-36.0787,68.6209-4.6599,74.1987,0,0-1.1537,28.3121,43.7355,19.0891,44.8892-9.2229,53.7485-49.9996,42.8694-59.0474S1657.6977,427.0509,1653.5471,422.5891Z" transform="translate(-939.12344 -166.8961)"/><path class="cls-50" d="M1666.6672,437.3707s-19.107-8.2035-24.7262-22.6488c0,0-.188,10.1006,4.6007,15.2483S1666.6672,437.3707,1666.6672,437.3707Z" transform="translate(-939.12344 -166.8961)"/><path class="cls-50" d="M1678.8047,464.6521h-.0001s-31.7246,53.7403-85.5224,12.9896c0,0-32.8956-5.9845-13.785-51.3719h0c-12.6754,23.0911-12.8632,49.7864,10.9457,54.0132,0,0-1.1537,28.3121,43.7355,19.0891C1659.7124,494.1259,1673.5878,478.6703,1678.8047,464.6521Z" transform="translate(-939.12344 -166.8961)"/><path class="cls-51" d="M1629.3114,397.2141s-18.2875-8.9808-39.5741,19.5299c0,0,15.7412-16.2752,28.5138-11.7632C1631.0237,409.4929,1639.1545,402.0678,1629.3114,397.2141Z" transform="translate(-939.12344 -166.8961)"/><path class="cls-60" d="M1667.0833,423.231s6.9932-4.8377,11.6119-4.702c4.6186.1357,8.1514,1.6604,11.0246,1.7079,2.8733.0474,9.1596,5.9209,10.402,9.4223a14.42079,14.42079,0,0,0,3.2168,5.3511s-3.0822.4559-7.7826,3.3875-11.9537.2092-15.0736-1.1325c-3.1198-1.3418-7.018-1.9305-9.0822-5.8773C1669.336,427.4413,1668.9231,424.5967,1667.0833,423.231Z" transform="translate(-939.12344 -166.8961)"/><path class="cls-46" d="M1664.1113,422.2933a72.11312,72.11312,0,0,1,7.5834,1.4599c.4988-.2687,4.7367-2.476,8.2249-2.2276a.25918.25918,0,1,1-.0362.5171c-2.7255-.1952-6.0676,1.252-7.4132,1.9014,2.6674.6704,5.3609,1.4599,7.9611,2.2934.2669-.0456,6.5255-1.1487,9.7947-2.7025a.25874.25874,0,1,1,.2223.4673,44.45432,44.45432,0,0,1-8.981,2.5701c2.2561.7398,4.4221,1.5035,6.4224,2.2409a26.0559,26.0559,0,0,1,8.2305.1572.25841.25841,0,1,1-.1253.5014,23.58144,23.58144,0,0,0-7.022-.2558c5.893,2.2095,10.0731,4.0762,10.1651,4.1177a.25865.25865,0,1,1-.2137.4711c-.0814-.0365-3.4134-1.5254-8.3091-3.4123a43.3239,43.3239,0,0,1,4.1855,3.6132.25861.25861,0,0,1-.3361.3916.23059.23059,0,0,1-.0274-.0241c-.0415-.0408-4.0595-4.0084-6.496-4.9905-1.6117-.5963-3.3348-1.2115-5.1299-1.8186a42.06254,42.06254,0,0,1,5.8353,5.8318.25868.25868,0,0,1-.3541.3719.21973.21973,0,0,1-.0455-.0439c-.0496-.0604-4.8506-5.9076-7.7657-6.9274-2.1844-.7035-4.436-1.3769-6.6858-1.9756,3.2228,2.4835,6.6369,8.3068,6.8102,8.6036a.25835.25835,0,0,1-.3772.3384.25206.25206,0,0,1-.0685-.0773c-.0503-.0874-5.0157-8.5567-8.4253-9.39a72.07641,72.07641,0,0,0-7.692-1.4892.2519.2519,0,0,1-.12-.0487.25873.25873,0,0,1,.1886-.4645Z" transform="translate(-939.12344 -166.8961)"/><path class="cls-60" d="M1656.3209,422.184s5.1358-2.9531,6.432-5.8997c1.2961-2.9467,1.3935-5.6256,2.2231-7.4476.8297-1.8221-.9855-7.5344-2.817-9.3635a10.04619,10.04619,0,0,1-2.4047-3.6247,15.94178,15.94178,0,0,1-4.4594,3.8836c-3.2506,2.0805-3.7073,7.4587-3.7963,9.8231-.089,2.3643-.8847,4.9932.9812,7.4726S1656.012,420.6179,1656.3209,422.184Z" transform="translate(-939.12344 -166.8961)"/><path class="cls-46" d="M1656.0219,424.3344a50.22258,50.22258,0,0,0,1.3498-5.2081c.3183-.2335,2.9748-2.2397,3.862-4.5088a.18062.18062,0,1,0-.3363-.1319,11.72913,11.72913,0,0,1-3.4138,4.0957c.3761-1.879.685-3.8098.9384-5.6953a34.51784,34.51784,0,0,1,4.6303-5.3544.18027.18027,0,0,0-.2275-.2797,30.9753,30.9753,0,0,0-4.3037,4.8821c.2094-1.6408.3769-3.2321.5112-4.7113a18.15331,18.15331,0,0,0,2.3631-5.2257.18.18,0,0,0-.353-.0711,16.4301,16.4301,0,0,1-1.9395,4.4948c.3725-4.3688.4483-7.5574.4497-7.6277a.18018.18018,0,1,0-.3603-.0064c-.0014.0622-.0612,2.604-.3385,6.2488a30.15865,30.15865,0,0,0-1.0214-3.7143.18015.18015,0,0,0-.3469.0943l.007.0245c.0132.0383,1.3077,3.7533,1.1968,5.5801-.1068,1.1924-.2352,2.4606-.3902,3.7717a29.2938,29.2938,0,0,0-1.9239-5.416.18021.18021,0,0,0-.3399.1115.156.156,0,0,0,.014.0418c.0232.0493,2.2662,4.8191,2.0358,6.9583-.2107,1.585-.4605,3.2031-.7568,4.7977-.5986-2.7706-3.2414-6.6607-3.3763-6.8585a.17995.17995,0,0,0-.3257.1361.17526.17526,0,0,0,.0281.0662c.04.0578,3.8835,5.7155,3.388,8.11a50.21089,50.21089,0,0,1-1.364,5.2853.17633.17633,0,0,0-.0052.0901.18023.18023,0,0,0,.3487.0202Z" transform="translate(-939.12344 -166.8961)"/><path class="cls-68" d="M1644.9304,427.7695s23.1437-13.0615,27.66-13.9c4.5164-.8386,11.3995,3.9398,11.3995,3.9398l-34.2866,14.5A7.42982,7.42982,0,0,1,1644.9304,427.7695Z" transform="translate(-939.12344 -166.8961)"/><path class="cls-69" d="M1647.7706,431.3805a5.87227,5.87227,0,0,0,1.9327.9288l34.2866-14.5s-.8677-.6022-2.1883-1.3413Z" transform="translate(-939.12344 -166.8961)"/><path class="cls-49" d="M1071.20818,785.7273c-10.8825-2.2692-18.6699-9.0711-17.3935-15.1926,1.2765-6.1214,11.1332-9.2442,22.0158-6.9751,10.88252,2.2692,18.6699,9.0711,17.3934,15.1925C1091.94748,784.8736,1082.09078,787.9965,1071.20818,785.7273Z" transform="translate(-939.12344 -166.8961)"/><path class="cls-51" d="M1087.99058,770.0651s-11.7785-8.2388-24.0313-5.0108C1063.95928,765.0543,1079.81048,765.4222,1087.99058,770.0651Z" transform="translate(-939.12344 -166.8961)"/><path class="cls-70" d="M1089.11738,785.9736a4.42825,4.42825,0,0,1,1.857-2.9632,6.91745,6.91745,0,0,0,3.0633-4.0901l.0006.0017s4.3903,1.2825,4.8155,1.004c.4253-.2784.05422-2.3141.05422-2.3141a25.5079,25.5079,0,0,1-4.66922-.1791,6.38694,6.38694,0,0,0-.7812-3.91,3.733,3.733,0,0,1-.0745-3.8248s-1.7858,1.021-.9082,4.2137c0,0-2.7944-.7634-4.3144,3.0044,0,0,2.0951-1.9038,3.92952-1.0164,1.83438.8872-1.31692,5.8753-4.92922,5.8106a4.3068,4.3068,0,0,0,4.5288-1.0291S1088.58438,784.3478,1089.11738,785.9736Z" transform="translate(-939.12344 -166.8961)"/><path class="cls-50" d="M1090.88038,782.6454c-4.1501,2.2811-10.62838,3.0095-17.5215,1.5721-10.8827-2.2692-18.67-9.0711-17.3935-15.1926a7.24277,7.24277,0,0,1,2.3435-3.8933,8.292,8.292,0,0,0-4.4942,5.4031c-1.2763,6.1215,6.511,12.9234,17.3935,15.1926C1079.44778,787.4453,1087.09588,786.0706,1090.88038,782.6454Z" transform="translate(-939.12344 -166.8961)"/><path class="cls-49" d="M1034.28588,734.6783c-7.9462,7.7742-10.84288,17.6998-6.46988,22.1695,4.37288,4.4697,14.35958,1.791,22.30568-5.9831,7.9462-7.7742,10.8429-17.6998,6.47-22.1695C1052.21868,724.2255,1042.23208,726.9042,1034.28588,734.6783Z" transform="translate(-939.12344 -166.8961)"/><path class="cls-51" d="M1056.86208,738.8331s-5.48508,13.2863-17.547,17.1672C1039.31508,756.0003,1052.47158,747.1515,1056.86208,738.8331Z" transform="translate(-939.12344 -166.8961)"/><path class="cls-70" d="M1049.24178,724.8233a4.42829,4.42829,0,0,0,3.1607,1.4961,6.91769,6.91769,0,0,1,4.7842,1.7957l-.0005-.0016s3.008-3.4457,3.5163-3.4401,1.2921,1.9204,1.2921,1.9204a25.52375,25.52375,0,0,0-3.8372,2.6662,6.38783,6.38783,0,0,1,1.4482,3.715,3.73266,3.73266,0,0,0,1.9976,3.2625s-2.0546.1019-3.0351-3.0606c0,0-1.94308,2.1484-5.2533-.2072,0,0,2.7907.4754,3.8581-1.2604,1.0675-1.7358-4.2745-4.2406-7.283-2.2402a4.307,4.307,0,0,1,4.37-1.5726S1049.66848,726.4801,1049.24178,724.8233Z" transform="translate(-939.12344 -166.8961)"/><path class="cls-50" d="M1052.51988,726.6776c-4.7253.3137-10.5756,3.1899-15.6088,8.1142-7.9462,7.7741-10.8428,17.6998-6.4699,22.1695a7.24242,7.24242,0,0,0,4.0717,2.0176,8.29124,8.29124,0,0,1-6.69688-2.1311c-4.37292-4.4697-1.47632-14.3953,6.46988-22.1695C1040.30218,728.7923,1047.48638,725.8306,1052.51988,726.6776Z" transform="translate(-939.12344 -166.8961)"/><path class="cls-19" d="M1215.24388,444.1597s19.13912-14.7555,2.42112-34.0342C1198.38628,426.8436,1215.24388,444.1597,1215.24388,444.1597Z" transform="translate(-939.12344 -166.8961)"/><path class="cls-19" d="M1113.10788,809.1208s-23.9713-3.0666-25.7467,22.3895C1112.81718,833.2856,1113.10788,809.1208,1113.10788,809.1208Z" transform="translate(-939.12344 -166.8961)"/><path class="cls-19" d="M1186.75838,968.4295s-24.099-1.808-24.5398,23.7061C1187.73268,992.5764,1186.75838,968.4295,1186.75838,968.4295Z" transform="translate(-939.12344 -166.8961)"/><path class="cls-19" d="M1640.1215,960.2524s-3.1616,23.959,22.2872,25.8352C1664.285,960.6388,1640.1215,960.2524,1640.1215,960.2524Z" transform="translate(-939.12344 -166.8961)"/><path class="cls-19" d="M1219.38538,464.3437s24.1637.3787,23.0941-25.1167C1216.984,440.2966,1219.38538,464.3437,1219.38538,464.3437Z" transform="translate(-939.12344 -166.8961)"/><path class="cls-19" d="M1573.1907,380.7511s22.0262-9.9436,10.2049-32.5582C1560.781,360.014,1573.1907,380.7511,1573.1907,380.7511Z" transform="translate(-939.12344 -166.8961)"/><path class="cls-19" d="M1712.8762,755.5705s-8.5535,22.6023,15.7929,30.2451C1736.3119,761.4691,1712.8762,755.5705,1712.8762,755.5705Z" transform="translate(-939.12344 -166.8961)"/><path class="cls-19" d="M1698.762,740.5593s-20.7706,12.3536-6.4853,33.4982C1713.4213,759.7721,1698.762,740.5593,1698.762,740.5593Z" transform="translate(-939.12344 -166.8961)"/></svg>