<svg xmlns="http://www.w3.org/2000/svg" viewBox="0 0 444.73789 265.18719"><defs><style>.cls-1{isolation:isolate;}.cls-2{fill:#f2e1d1;}.cls-3{fill:#bd9f83;}.cls-17,.cls-4{fill:#e6e6e6;}.cls-10,.cls-14,.cls-4,.cls-6,.cls-8{mix-blend-mode:multiply;}.cls-5{fill:#874229;}.cls-15,.cls-6{fill:#ededed;}.cls-7{fill:#e3a7a1;}.cls-18,.cls-8{fill:#f2f2f2;}.cls-11,.cls-9{fill:#fea484;}.cls-9{opacity:0.1;}.cls-10{fill:#f7f7f7;}.cls-12{fill:#383838;}.cls-13{fill:#333;}.cls-13,.cls-16{mix-blend-mode:screen;}.cls-16{fill:#050505;}</style></defs><g class="cls-1"><g id="Layer_1" data-name="Layer 1"><path class="cls-2" d="M318.81689,336.2796c-.3858,18.1299-2.0591,32.443-2.3357,40.7128s.2952,21.4487,1.9177,26.6278c1.6226,5.1791,3.15411,7.5646.418,7.5646.8865,5.2482-8.6556,6.8385-16.9254,6.2024-8.2697-.6362-8.5878-1.2723-2.54449-8.5879s3.18069-21.5876,1.27229-26.3792-5.7616-11.6144-7.75729-20.4847c-1.99561-8.8703-1.14871-24.2943-1.14871-24.2943Z" transform="translate(-128.78999 -163.306)"/><path class="cls-3" d="M318.817,412.4535c-8.06971-1.5284-17.21761-.321-20.49951-2.3942-4.9437,6.1309-4.1929,6.7304,3.5741,7.3279,7.5603.5815,16.1788-.6998,16.92541-4.9337Z" transform="translate(-128.78999 -163.306)"/><path class="cls-4" d="M299.347,408.7993a27.19711,27.19711,0,0,0-3.90661,5.4689c2.4089-2.8969,7.62761-5.8235,9.1358-7.4502,2.3593-2.5446,3.0479-11.1325,3.7759-15.2673.7281-4.1349-.4099-8.906-2.42509-16.2216s1.379-5.089,2.42509-11.1531c.7422-4.3017,4.3938-4.418,9.4016-5.8848.4522-6.4254.889-13.8244,1.06331-22.0116l-27.10371,1.3615s-.8469,15.424,1.1488,24.2943c1.9956,8.8703,5.8487,15.6931,7.7571,20.4847C302.52769,387.2116,305.39029,401.4837,299.347,408.7993Z" transform="translate(-128.78999 -163.306)"/><path class="cls-4" d="M302.02319,417.3961c4.26281-3.5142,9.2922-10.8017,6.3289-16.6214-3.7248-7.3156,3.40691-12.4047,3.725-20.9926.318-8.5878-1.9084-15.5854-3.725-27.3539-1.0948-7.0931,4.5272-6.6742,10.0724-5.2231.1706-3.4622.3111-7.1032.39251-10.9255l-27.10371,1.3615s-.8469,15.424,1.1488,24.2943c1.9956,8.8703,5.8487,15.6931,7.7571,20.4847,1.9085,4.7915,4.7711,19.0636-1.27219,26.3792-6.04331,7.3155-5.72531,7.9517,2.54459,8.5879C301.93519,417.3905,301.97949,417.3929,302.02319,417.3961Z" transform="translate(-128.78999 -163.306)"/><path class="cls-5" d="M466.96929,315.6051c12.40471,28.3081,23.7953,51.5272,24.3024,63.6138.507,12.0866-4.264,33.9801-8.717,38.3007-4.453,4.3205-12.0866,7.7948-6.0433,9.8745s21.6287,1.7616,21.6287-5.872c2.2265,3.4987,6.2615,1.2722,5.8343-1.9085-.4271-3.1806-.8082-18.3753,2.722-26.9995,3.5303-8.6242,9.2921-25.6425,4.8208-35.1042-4.47119-9.4618-4.7893-36.0702-4.7893-36.0702Z" transform="translate(-128.78999 -163.306)"/><path class="cls-2" d="M506.77959,365.469c-3.37959-3.7168-6.0041,1.2326-4.93259,6.5801,1.07139,5.3475-2.50281,11.0728,0,10.1185,2.50269-.9542-1.34211-6.0033,2.01159-8.4883C507.21239,371.1943,511.11789,370.2401,506.77959,365.469Z" transform="translate(-128.78999 -163.306)"/><path class="cls-3" d="M476.51139,427.3941c6.0433,2.0796,21.6287,1.7616,21.6287-5.8721-2.6924-2.1984-10.5676-2.7476-16.90809-2.8098C476.79029,422.4794,471.03479,425.5094,476.51139,427.3941Z" transform="translate(-128.78999 -163.306)"/><path class="cls-6" d="M511.51719,357.5099c-4.47119-9.4618-4.7893-36.0702-4.7893-36.0702l-39.7586-5.8346c8.52271,19.4492,16.5665,36.4958,20.9309,49.1805,7.6081,6.5477,11.9077,10.5811,10.2399,17.487-2.8553,11.8226-3.1734,17.5479-1.90109,22.0008,1.10379,3.8635-9.84181,21.4553-18.74941,23.4115,6.5868,1.7371,20.6505,1.0901,20.6505-6.1629,2.2265,3.4988,6.2615,1.2723,5.8343-1.9084-.4271-3.1806-.8082-18.3753,2.722-26.9995C510.22669,383.9899,515.98849,366.9716,511.51719,357.5099Z" transform="translate(-128.78999 -163.306)"/><path class="cls-6" d="M511.51719,357.5099c-4.47119-9.4618-4.7893-36.0702-4.7893-36.0702l-39.7586-5.8346c11.5386,26.3315,22.1944,48.2542,24.035,60.9155,6.8381,2.81,12.0551,7.5219,9.9334,15.9843-2.4723,9.8601-8.4709,13.9427-10.87869,21.2844-1.56211,4.7629-8.30271,10.7662-14.31091,13.297a7.93834,7.93834,0,0,0,.7633.3078c6.0433,2.0796,21.6287,1.7616,21.6287-5.8721,2.2265,3.4988,6.2615,1.2723,5.8343-1.9084-.4271-3.1806-.8082-18.3753,2.722-26.9995C510.22669,383.9899,515.98849,366.9716,511.51719,357.5099Z" transform="translate(-128.78999 -163.306)"/><path class="cls-6" d="M511.51719,357.5099c-4.47119-9.4618-4.7893-36.0702-4.7893-36.0702l-39.7586-5.8346c5.6634,12.9241,11.1115,24.782,15.413,35.0094,14.5503,12.7165,24.7446,14.6133,26.3179,24.6594,1.8519,11.8238-10.8855,30.5899-10.5601,37.2693.3253,6.6795-.6289,15.8392-13.3516,15.8713-.6412.0017-1.2692.0176-1.8949.0351,6.8559.3338,15.2465-1.3258,15.2465-6.9276,2.2265,3.4988,6.2615,1.2723,5.8343-1.9084-.4271-3.1806-.8082-18.3753,2.722-26.9995C510.22669,383.9899,515.98849,366.9716,511.51719,357.5099Z" transform="translate(-128.78999 -163.306)"/><path class="cls-7" d="M456.77679,350.4867c2.19221,5.892-.0251,13.0554,2.3014,13.7718,2.3264.7163,3.831-9.0259,4.1532-9.7422C463.55359,353.7999,456.77679,350.4867,456.77679,350.4867Z" transform="translate(-128.78999 -163.306)"/><path class="cls-6" d="M461.43149,361.3996c.9783-2.725,1.6052-6.4506,1.7999-6.8833.3222-.7164-6.4546-4.0296-6.4546-4.0296a23.00365,23.00365,0,0,1,1.0947,7.7969A8.3693,8.3693,0,0,1,461.43149,361.3996Z" transform="translate(-128.78999 -163.306)"/><path class="cls-6" d="M456.77679,350.4867a21.201,21.201,0,0,1,1.0806,6.9122c1.2241.2419,2.5193,1.3212,2.5193,4.0007a3.169,3.169,0,0,1-1.3701,2.8203c.0258.01.0445.0303.0715.0386,2.3265.7163,3.8311-9.0259,4.1533-9.7422C463.55359,353.7999,456.77679,350.4867,456.77679,350.4867Z" transform="translate(-128.78999 -163.306)"/><path class="cls-7" d="M472.363,355.2817c4.01509,4.8374,4.288,12.3312,6.72049,12.239,2.4324-.0922.6351-9.7847.7027-10.5672C479.85369,356.1709,472.363,355.2817,472.363,355.2817Z" transform="translate(-128.78999 -163.306)"/><path class="cls-6" d="M477.87049,364.8329c.4979-1.2724,1.499-.8573,2.4886-1.2573-.0412-2.8136-.6115-6.1746-.5729-6.6222.0676-.7825-7.42319-1.6717-7.42319-1.6717,3.09889,3.7336,3.97079,9.0352,5.32469,11.2245A3.93154,3.93154,0,0,1,477.87049,364.8329Z" transform="translate(-128.78999 -163.306)"/><path class="cls-7" d="M489.02689,351.1018c5.3236,3.3439,7.92,10.3787,10.2024,9.5325s-2.4481-9.4947-2.628-10.2593S489.02689,351.1018,489.02689,351.1018Z" transform="translate(-128.78999 -163.306)"/><path class="cls-6" d="M498.39979,354.4002c-.8303-1.9605-1.7223-3.7014-1.7985-4.0252-.1799-.7646-7.5744.7268-7.5744.7268,3.3656,2.114,5.6398,5.6986,7.43511,7.8391A8.4348,8.4348,0,0,1,498.39979,354.4002Z" transform="translate(-128.78999 -163.306)"/><path class="cls-6" d="M499.03949,356.0151c-.9304-2.5338-2.3413-5.2285-2.4382-5.6401-.1799-.7646-7.5744.7268-7.5744.7268,2.8286,1.7766,4.883,4.5881,6.5337,6.713C496.05589,356.907,497.09239,356.242,499.03949,356.0151Z" transform="translate(-128.78999 -163.306)"/><path class="cls-7" d="M466.96929,351.9064c2.9214,5.5666,1.6301,12.9533,4.0286,13.369,2.3984.4156,2.6559-9.4387,2.8847-10.1901S466.96929,351.9064,466.96929,351.9064Z" transform="translate(-128.78999 -163.306)"/><path class="cls-6" d="M466.96929,351.9064c2.9214,5.5666,1.6301,12.9533,4.0286,13.369,2.3984.4156,2.6559-9.4387,2.8847-10.1901S466.96929,351.9064,466.96929,351.9064Z" transform="translate(-128.78999 -163.306)"/><path class="cls-7" d="M446.93829,327.7779c-.6361,16.3805,4.7564,26.8768,20.031,32.9201,15.27471,6.0433,34.9792-5.0891,37.84971-20.0384C507.68949,325.7104,446.93829,327.7779,446.93829,327.7779Z" transform="translate(-128.78999 -163.306)"/><path class="cls-6" d="M446.93829,327.7779c-.2819,7.2583.6233,13.359,3.044,18.4312,12.4096-6.0345,26.17871-.3521,26.3804,8.3398.1094,4.7142-5.3451,5.7246-10.8235,5.5573q.70035.3027,1.4301.5918c15.2746,6.0433,34.9792-5.0892,37.84971-20.0384S446.93829,327.7779,446.93829,327.7779Z" transform="translate(-128.78999 -163.306)"/><path class="cls-6" d="M446.93829,327.7779a43.06382,43.06382,0,0,0,1.75571,15.212c5.63519-3.3538,22.88729-4.0903,32.59569,1.1685,8.1255,4.4013,6.94831,15.1081-5.0969,18.2083,13.0553-.0897,26.3119-9.6545,28.62621-21.7071C507.68949,325.7104,446.93829,327.7779,446.93829,327.7779Z" transform="translate(-128.78999 -163.306)"/><path class="cls-6" d="M446.93829,327.7779c-.3385,8.717,1.0309,15.7672,4.6876,21.3672-.6963-6.4798,14.4564-11.9638,26.9603-11.6662,9.5422.2273,11.8602,13.1135,10.6105,21.7626,7.8306-3.7862,14.0985-10.646,15.62231-18.5819C507.68949,325.7104,446.93829,327.7779,446.93829,327.7779Z" transform="translate(-128.78999 -163.306)"/><path class="cls-5" d="M533.75119,220.1645c17.4799,1.7591,26.7313,24.2611,27.0397,44.5129s1.2335,69.9813,6.476,76.5069c-2.4671,4.2753-4.6257-4.2754-6.476-15.7514-1.8503-11.4761-2.7754-30.6028-3.0838-39.8286s-.3585-33.971-5.8592-41.8538c-5.5007-7.8827-8.9731-1.3501-8.9731-1.3501Z" transform="translate(-128.78999 -163.306)"/><path class="cls-5" d="M562.082,332.1263c.71109,7.3416-7.99831,17.1222-3.28581,27.8571a46.73611,46.73611,0,0,1,3.3274,21.9467,20.43424,20.43424,0,0,0,3.30441-4.2883,3.03122,3.03122,0,0,0,.40759-2.3911c.2972,1.1927,6.02241-3.3398,4.3526-12.8818a10.22066,10.22066,0,0,1,1.4313,3.5782,23.40567,23.40567,0,0,0,0-18.607,35.32131,35.32131,0,0,1,1.9084,3.1012,143.83574,143.83574,0,0,1-9.3461-19.7913C565.26169,334.7303,562.082,332.1263,562.082,332.1263Z" transform="translate(-128.78999 -163.306)"/><path class="cls-5" d="M179.1146,204.1116c-9.8875-2.8918-17.9829-31.8521,7.6905-14.7153C187.3006,200.3666,179.1146,204.1116,179.1146,204.1116Z" transform="translate(-128.78999 -163.306)"/><path class="cls-5" d="M554.20159,248.6114c-.3718-8.9239-16.8809-30.3411-30.0087-37.4802s-43.9848,0-77.3005,2.3797-124.339,3.5695-140.204,0c-12.7817-2.8758-47.4996-11.6938-69.9958-15.0143l.0003-.0017s-9.5402-2.159-18.1281-3.8289-12.3267-5.6257-17.65279-8.3493c-10.0702-5.1496-11.212-.3962-19.7998,6.2833-8.5879,6.6794-6.1739,10.8873-10.7063,18.2824-4.5325,7.3951-22.412,20.1934-27.4573,21.8632-5.0453,1.6699-9.6461,1.5976-8.2148,7.0843s.7873,6.0525,3.1372,6.5296c3.5425,4.2939,11.6048,4.044,14.4675,3.0898,2.8626-.9542,13.4688,4.0579,17.2856,4.2964,3.8168.2386,11.1629,2.622,15.2183,4.0533s16.28839,3.2248,19.151,3.2248c2.861,0,6.1198,3.42,13.0378,6.5153,19.8277,29.3352,9.0297,29.301,27.1912,63.9907,18.3764,35.1004,45.6778,17.7002,69.1269,10.5612,23.4492-7.1391,50.8618,8.3957,75.8821,8.3957,25.0202,0,48.3395-16.8621,60.0551-19.8367,11.71551-2.9746,30.9216,11.3643,63.73051,7.7947,32.809-3.5695,26.08839-24.3918,33.99069-35.1004C554.90989,292.6357,554.57339,257.5352,554.20159,248.6114Z" transform="translate(-128.78999 -163.306)"/><path class="cls-6" d="M225.24419,228.5403s1.6463-17.1757-2.278-27.4334c1.32381-1.6699,4.2714,8.3251,4.2714,8.3251s-1.2834-7.6428,0-10.1841c1.34641,6.3915,1.6857,12.6114,0,18.0805,2.7777-5.7252,2.3006-13.1203,2.3006-15.983,2.3855,6.2024,2.3855,15.983,2.3855,15.983a51.13377,51.13377,0,0,0,0-17.6258c6.6794,4.5055,4.771,14.8536,4.771,14.8536s3.0801-1.2832-.96469-13.4493c5.80519-1.8437,5.02009,6.6842,5.02009,6.6842s2.0775-2.9322,1.4313-5.73c-.6462-2.7979,11.2227-.2385.12461,17.1757,6.07779-6.4409,6.31629-12.6179,5.83919-14.5389-.18519-.7459,1.2893-2.3438,3.9514-3.5002-5.4597-1.0703-10.70059-2.0068-15.404-2.7011l.0003-.0017s-9.5402-2.159-18.1281-3.8289c-.8456-.1644-1.632-.3565-2.3897-.562A72.45414,72.45414,0,0,1,225.24419,228.5403Z" transform="translate(-128.78999 -163.306)"/><path class="cls-8" d="M491.67169,234.9475c12.1314-1.7035,16.4949-4.0216,22.7518,6.8355,6.2569,10.8573,13.3043,12.5209,25.28551,7.2728,11.98129-5.2481,10.44269,4.771,12.07839,11.4505,1.6357,6.6794-8.3152,52.9585-14.6886,61.0692a17.07743,17.07743,0,0,0-3.55979,9.5621c9.54339-8.0259,7.97689-20.3512,13.46869-27.7933,7.9022-10.7086,7.5657-45.8091,7.1939-54.7329-.3718-8.9239-16.8809-30.3411-30.0087-37.4802-7.369-4.0073-20.3252-3.5154-36.1658-1.8922C498.89919,230.9684,479.54039,236.6511,491.67169,234.9475Z" transform="translate(-128.78999 -163.306)"/><path class="cls-4" d="M214.77329,199.7026c1.5845-.5713,4.9845-3.0449,8.1929-4.1573-1.4606-.2986-2.9444-.596-4.4014-.8793a30.93763,30.93763,0,0,1-9.078-3.2386l-12.94829,6.9773C203.218,200.4707,212.49259,200.5247,214.77329,199.7026Z" transform="translate(-128.78999 -163.306)"/><path class="cls-3" d="M174.9673,169.1108s-2.37,16.0347,6.5473,19.283c1.513,1.1517-.405,5.3687-3.4904,3.8988C172.5973,187.4169,168.1272,182.0935,174.9673,169.1108Z" transform="translate(-128.78999 -163.306)"/><path class="cls-2" d="M480.36239,337.5211c-6.0702-3.0638-.5539-2.1096-4.0277-7.8348-3.4738-5.7253-7.1462-6.2024-9.3654-5.7253-2.2191.4771,0-1.1861,0-4.771s-6.452-5.2614-6.9596-3.5849c-.50769,1.6765-6.937,1.1861-6.3464,0s-2.272-3.4602-3.70329-.6534c-1.43141,2.807,1.99819,6.6238-4.72621,6.6238-6.7243,0-6.7243-5.7252-6.7243,0,0,5.7253-7.92349,10.9734-9.2099,11.9276s-8.443-7.9389-8.443-7.9389-12.8817,1.2594-14.7902,5.5534c-1.90839,4.2939-2.248,10.0141-8.9962,10.9708-6.74819.9568-13.4276-.9567-17.7216,0-4.2939.9568-2.365-.4044-15.257.2762-12.8921.6806-24.55659-1.705-31.8447-2.1821-7.288-.4771-10.5517-2.8626-10.3512-7.6336s3.1219-8.5879-.00869-11.4505c-3.13051-2.8626-7.45481-10.9734-8.15531-14.3131-.7004-3.3397-8.8181-15.2514-8.0991-11.2307.7189,4.0207-2.6831,16.0017-4.5602,17.9102-1.8771,1.9084-19.5226,16.3076-28.5949,15.7444-9.0723-.5633-15.69049-9.0783-15.2404-13.6041.4502-4.5259-.96109-11.217-2.8895-9.2969-1.9285,1.9201-.9543,11.9276-5.7253,7.1566-4.771-4.7711-4.405-6.4504-2.263-10.4963,2.1419-4.046,2.826-7.8783-1.5108-8.2331l-4.3369-.3548v-6.755s7.1565-5.1726,0-4.6955c-7.15659.4771-8.5879,6.6173-10.4963-.0311-1.9084-6.6483-2.3855-9.988-4.294-10.4651-1.9084-.4771-13.3588-11.9276-13.3588-14.3131,0-2.3856,2.8626-10.4963-3.8169-8.5879-6.6794,1.9084-7.1565,4.2939-9.0649,4.2939-1.90849,0-7.63369-2.0074-8.11079-4.582-.4771-2.5745,5.2481-5.4371,5.2481-9.254,0-3.8168-5.7817-5.2481-5.2763-8.1107.5053-2.8627-2.8344-6.2024-2.8344-9.065s3.8168-4.9641,3.3397-12.9784c-.4771-8.0141-1.4313-9.9226-3.3397-14.2165-1.4031-3.157,7.2462-5.9725,11.92789-9.5479-9.64729-4.9451-11.83169-6.3243-20.27719.2444-8.5879,6.6794-14.5517,12.4047-19.0842,19.7998s-19.7284,23.6166-24.7736,25.2865c-5.0453,1.6698-8.6236,3.5782-7.1923,9.0649s4.8424,9.3035,7.1923,9.7806c3.5425,4.294,13.3232,5.7253,16.1858,4.7711s13.1203,3.1012,16.9371,3.3397c3.8169.2386,10.0192.7157,14.0746,2.147s16.22149,1.4313,19.08409,1.4313c2.8611,0,4.9897,4.7778,11.9077,7.8731,19.8277,29.3352,8.3318,31.5647,26.4933,66.2543,18.3765,35.1005,51.8245,15.468,75.2736,8.3289,23.4492-7.139,47.9417,9.5188,72.9619,9.5188s48.7502-17.2528,60.4658-20.2274c7.103-1.8034,16.8212,1.6391,30.6783,3.8358Z" transform="translate(-128.78999 -163.306)"/><path class="cls-9" d="M148.1125,246.3595c-2.3855-1.9011-2.8626-3.5061-1.7494-5.282,1.1133-1.776,8.906-1.7228,9.5421-2.677s1.2723-3.0217.6361-6.5204c-.6361-3.4988-3.6577-1.5904-5.5661-2.3856-1.9085-.7952-1.9085-1.9084-2.8627-4.93-.3334-1.0561-1.1989-.9957-2.4781-.4041-3.8335,3.7064-7.361,6.5895-9.3342,7.2426-5.0453,1.6698-8.6236,3.5782-7.1923,9.0649s4.8424,9.3035,7.1923,9.7806c3.3955,4.1157,12.5049,5.5952,15.7775,4.8713C152.2864,247.3397,150.2647,248.0746,148.1125,246.3595Z" transform="translate(-128.78999 -163.306)"/><path class="cls-9" d="M136.3002,250.2485a9.67526,9.67526,0,0,0,2.4037,2.0108c1.076-.4663,2.0074-.8677,2.4509-1.0507,1.4313-.5905,13.5974,1.5447,17.8951-1.7593,4.2977-3.3041-1.2162-2.6234-3.7013-3.9414-2.4851-1.3181,3.5783-2.4159,3.6975-5.5171.1193-3.1011-2.6226-2.7031-4.6637-5.7252-2.0412-3.0222-2.6121-2.147-4.2819-2.147-1.6699,0-2.8627-.5964-3.9361-3.5783-.7201-2-2.1386-.676-4.1458-1.0609a21.31988,21.31988,0,0,1-5.7184,3.9236c-5.0453,1.6698-8.6236,3.5782-7.1923,9.0649S133.9503,249.7714,136.3002,250.2485Z" transform="translate(-128.78999 -163.306)"/><path class="cls-9" d="M136.3002,250.2485a9.00208,9.00208,0,0,0,1.7773,1.5973c4.9128.2503,9.9237-.2534,8.6832-3.1478-2.1469-5.0096,3.9361-2.2663,4.0554-5.8446.1193-3.5782-12.1661-2.1469-10.4963-5.0095,1.6699-2.8627,4.6518-2.6241,1.0735-5.1289-2.0438-1.4307-2.4488-1.8541-1.8043-3.2676a13.14521,13.14521,0,0,1-3.2888,1.9556c-5.0453,1.6698-8.6236,3.5782-7.1923,9.0649S133.9503,249.7714,136.3002,250.2485Z" transform="translate(-128.78999 -163.306)"/><path class="cls-10" d="M503.89239,339.0863l-.3071-2.8067-5.4452-8.5988c-27.6647-15.1703-13.0482-58.7589-37.5322-45.791-24.48389,12.9679-22.0984,26.6636-39.7513,28.4036-17.6528,1.74-10.9814-47.4938-62.98159-44.5851-52.00031,2.9087-47.58771,31.5349-62.67581,39.6457s-53.7334-19.5612-69.4779-32.9201c-15.7444-13.3589-8.2585-33.3301-32.29349-26.9234-24.0349,6.4066-20.1878-2.1193-31.1612-.0026-10.9733,2.1166-10.7619,9.1579-19.6939,8.4999,3.8927,1.2849,8.1759,1.5909,9.9133,1.0118,2.8626-.9542,13.1203,3.1012,16.9371,3.3397,3.8169.2386,10.0192.7157,14.0746,2.147s16.22149,1.4313,19.08409,1.4313c2.8611,0,4.9897,4.7778,11.9077,7.8731,19.8277,29.3352,8.3318,31.5647,26.4933,66.2543,18.3765,35.1005,48.9173,13.165,72.3665,6.026,23.4491-7.1391,50.8488,11.8217,75.869,11.8217s48.7502-17.2528,60.4658-20.2274C460.26719,330.9982,476.64149,339.9595,503.89239,339.0863Z" transform="translate(-128.78999 -163.306)"/><path class="cls-4" d="M288.10259,342.0884c.8349-7.7952-30.41459-13.8756-28.5069-17.6503,1.9076-3.7746-5.08869-12.8567-7.1566-22.4238-2.0678-9.5671-6.0798-14.3887-13.1439-22.901s-9.2799,3.7857-9.2799,3.7857a120.1996,120.1996,0,0,1-7.0491-17.1907c-3.1938-9.4879-6.9846-1.9016-15.1076-.2464a25.87105,25.87105,0,0,0,6.6309,4.3488c19.8277,29.3352,8.3318,31.5647,26.4933,66.2543,11.2315,21.4531,27.00721,21.5992,42.9304,16.8405C286.11379,348.6221,287.833,344.6054,288.10259,342.0884Z" transform="translate(-128.78999 -163.306)"/><path class="cls-8" d="M439.46369,296.289c9.0649-8.5878,32.11031-25.9258,27.5056-42.5433s-10.807-1.9195-25.1201,11.9626-26.7178,43.9263-62.0234,49.8968c-35.3057,5.9704-64.3381-24.5642-81.5493-16.9306-17.2112,7.6337-46.57949-4.1579-45.8374,3.3398.7421,7.4976,5.7253,18.607,5.2482,29.1033-.4251,9.3512,3.3151,25.1547-13.0699,10.9413a35.68876,35.68876,0,0,0,6.9628,7.5232c18.9014,15.2459,45.2276.7329,64.6762-5.1882,23.4492-7.139,47.9417,9.5188,72.9619,9.5188s48.7502-17.2528,60.4658-20.2274c.4102-.1041.8313-.1867,1.2594-.2571.138-.0227.2802-.0384.4202-.0578.2969-.041.5964-.0775.9018-.1042.1654-.0144.333-.0255.501-.0359q.4419-.0273.8958-.0366c.171-.0035.3413-.0078.5148-.0078.3302.0001.6671.009,1.00691.0217.14869.0056.29419.007.44469.0148q.72075.0375,1.4696.1068l.0452.0049C438.11329,330.6892,430.62929,304.6584,439.46369,296.289Z" transform="translate(-128.78999 -163.306)"/><path class="cls-10" d="M428.96739,307.2624c-3.3397-10.0192,16.1632-38.5544-11.241-12.5977-27.40439,25.9566-50.7066,31.8419-67.2087,22.2199-16.502-9.6221-45.5659-27.6563-47.5056-15.5381-1.9397,12.1183-12.52109,32.9385-16.9954,34.9331-4.4743,1.9945-20.2704-13.7499-21.9144-5.162-1.2174,6.3596-12.9524,12.9751-24.8071,1.6452.5334,1.0687,1.09281,2.166,1.6876,3.3022,18.3765,35.1005,48.9173,13.165,72.3665,6.026,23.4491-7.1391,50.8488,11.8217,75.869,11.8217,12.9855,0,25.61871-4.6478,36.41-9.5344C435.018,327.7652,431.99289,316.339,428.96739,307.2624Z" transform="translate(-128.78999 -163.306)"/><path class="cls-10" d="M396.52529,324.8158c-7.6327,4.6715-20.9935,9.1644-30.5355,2.9621-9.5421-6.2024-25.7636-4.7711-36.2599-12.1728-10.4963-7.4018-19.5612-16.9306-27.837-16.3575,0,0-42.7743,3.7209-38.9083,20.2674s-9.1142,9.2171-10.5455,8.7006c0,2.8233,10.5455,13.8728,10.5455,13.8728s-7.2057-1.9059-9.1142-2.383c1.4314,3.8169,7.15661,5.3221,7.15661,5.3221a9.47513,9.47513,0,0,1-10.97341-2.9391c-.7909-.9496-2.67459-.7558-5.2595.2197,18.585,26.0069,46.6607,6.4486,68.5552-.2171,23.4491-7.1391,50.8488,11.8217,75.869,11.8217,8.4703,0,16.7909-1.98,24.5494-4.7113C408.88089,337.2447,401.30179,321.8924,396.52529,324.8158Z" transform="translate(-128.78999 -163.306)"/><path class="cls-8" d="M430.38589,214.4083c3.7614-.168,19.347,6.0213,23.2774,12.7007,3.9303,6.6795-12.76829,21.8024-3.70329,19.2505,9.06489-2.5518,16.13809-14.0023,17.61109-19.7276,1.0782-4.1909-5.2676-9.7636,6.0324-15.78-8.5028.9821-17.5119,2.0019-26.7111,2.659-4.5405.3243-10.1587.6262-16.5066.8974Z" transform="translate(-128.78999 -163.306)"/><path class="cls-8" d="M337.54259,232.8343c-.1791,5.7252,11.465-1.4313,15.6622-6.6795,3.7323-4.6669,31.9217-4.8117,38.8497-10.6566-29.54549.5023-61.1291.3458-77.1286-.942C327.56449,215.9401,337.71619,227.2829,337.54259,232.8343Z" transform="translate(-128.78999 -163.306)"/><path class="cls-4" d="M206.05269,260.5063c-5.14069-3.3398-7.8778-18.7515-15.09709-14.1468-7.2194,4.6047-9.9627,10.1677-16.2247,7.3862s-15.3269-4.3751-24.3919,0c-2.0045.9674-4.7334.9196-7.7664.2621,3.8927,1.2849,8.176,1.5909,9.9134,1.0118,2.8626-.9542,13.1203,3.1012,16.9371,3.3397,3.8169.2386,10.0192.7157,14.0746,2.147s16.22149,1.4313,19.08409,1.4313c2.2174,0,4.0049,2.8692,7.9131,5.6015C209.01359,263.824,207.71539,261.5865,206.05269,260.5063Z" transform="translate(-128.78999 -163.306)"/><path class="cls-11" d="M168.3497,213.0345c1.9084-3.9361,7.9914-10.0192,12.7625-3.5783-1.5506,1.7891-7.0373,2.2662-8.4686,1.7891S168.3497,213.0345,168.3497,213.0345Z" transform="translate(-128.78999 -163.306)"/><path class="cls-5" d="M550.05759,296.9763c.5639,15.13-15.3867,29.4132-11.3873,42.469s8.6262,19.5198,11.4019,22.4901c2.7757,2.9704,4.5181,8.8013,4.283,18.7676-.235,9.9664,1.9915,30.9589,3.26381,34.4577,1.27229,3.4987-.95421,4.4529-1.90841,4.4529s2.6965,5.4072-1.3554,6.9976c-4.0518,1.5903-27.2708,3.8456-24.7263-1.8941,2.5446-5.7396,10.13111-6.8961,9.0414-15.5419-1.0897-8.6457-19.5637-29.3202-19.8688-36.9538-.305-7.6337-27.0228-33.9273-34.65649-41.9321-7.63361-8.0048-16.53951-36.631-23.53711-48.3995-6.9975-11.7686,49.3007-34.9876,69.021-22.5829S550.05759,296.9763,550.05759,296.9763Z" transform="translate(-128.78999 -163.306)"/><path class="cls-2" d="M228.42489,244.6028c-1.221,3.0386-1.9084,4.1349,0,8.5879s.31811,6.6794,1.5904,8.5878c1.2723,1.9085,4.1349,6.3614,5.0891,2.2265a19.35424,19.35424,0,0,0,0-8.8494c-.3181-1.0107,6.3614,3.1242,6.3614,1.8519s-1.5904-4.1349-1.5904-4.1349-2.8626-2.2265-.3181-4.4529c2.5446-2.2265,7.9518-7.9518,1.9085-6.3614-6.0434,1.5903-3.9653,4.4529-5.7995,4.4529S229.68249,241.4734,228.42489,244.6028Z" transform="translate(-128.78999 -163.306)"/><path class="cls-2" d="M393.58389,324.4381c-1.91,0-.4013,6.6795,1.7467,6.6795s5.0106-.9542,5.0106-3.3397C400.34119,325.3923,395.89159,324.4381,393.58389,324.4381Z" transform="translate(-128.78999 -163.306)"/><path class="cls-5" d="M246.35919,287.6256c2.7329,24.4807,12.275,24.1627,17.046,41.0203,4.771,16.8577,11.6117,42.0271,12.9624,56.0012,1.3507,13.974,2.7892,30.0246,1.1989,32.2511-1.5904,2.2265-15.1986,6.3466-14.5481,8.8912.65061,2.5445,26.4142,2.8626,26.7322-5.0891-4.0807-7.6114-2.5172-5.3973-4.0807-10.641-1.5634-5.2437,6.617-25.1152,9.988-34.3392s3.8555-41.5609,9.9746-45.4308c6.1192-3.8699,0-34.7347,0-34.7347Z" transform="translate(-128.78999 -163.306)"/><path class="cls-2" d="M170.4059,210.8824c1.7663-2.0182,2.211-3.5806,3.8796-2.9493,1.6686.6312,4.5139-.0989,4.835.5088.3212.6077.0786,2.3515-2.1214,2.5662C174.7992,211.2227,171.6847,210.525,170.4059,210.8824Z" transform="translate(-128.78999 -163.306)"/><path class="cls-12" d="M173.0975,210.8711a23.36789,23.36789,0,0,0,3.9016.137,3.05325,3.05325,0,0,0,1.0978-.3118,2.57548,2.57548,0,0,0,1.0236-2.2544c-.3212-.6077-2.5526-.9613-4.5685-1.0134a2.92341,2.92341,0,0,0-2.2218,1.0464A3.4662,3.4662,0,0,0,173.0975,210.8711Z" transform="translate(-128.78999 -163.306)"/><path class="cls-13" d="M179.1362,209.383a.91212.91212,0,1,1-.9598-.8618A.91206.91206,0,0,1,179.1362,209.383Z" transform="translate(-128.78999 -163.306)"/><path class="cls-2" d="M292.14839,389.5711c-3.6965,2.1525-3.4503,5.9555-5.3578,6.0394-1.9084.084-4.7711,12.8398-4.7711,12.8398a44.60254,44.60254,0,0,1-4.6638-10.0611c-.3431-1.0906-.5842-1.8306-.77169-2.2716-.48171,10.392-2.52631,19.7714-3.691,21.4019-1.59041,2.2266-10.52511,5.7253-9.87461,8.2699.6505,2.5445,26.4141,2.8626,26.7322-5.0891,2.8627,3.8168,2.8632-7.1388,1.2997-12.3825C290.10829,405.1582,290.75169,397.3203,292.14839,389.5711Z" transform="translate(-128.78999 -163.306)"/><path class="cls-2" d="M538.14949,414.2277c4.36651.3014,10.6671.8713,12.5406.0405,2.92391-1.2968-1.0155-4.4286-.181-8.7225s-1.3116-2.8626-4.4738-9.065c-3.16229-6.2023-4.9486-3.3397-8.9365-14.2081-3.0933-8.43-4.1959,4.7099-3.91879,15.3029,2.87089,4.5755,5.13049,8.7448,5.49029,11.5997A10.04715,10.04715,0,0,1,538.14949,414.2277Z" transform="translate(-128.78999 -163.306)"/><path class="cls-3" d="M273.20479,416.9311a3.71018,3.71018,0,0,1-.31179.5884c-1.59041,2.2266-10.52511,5.7253-9.87461,8.2699.6505,2.5445,26.4141,2.8626,26.7322-5.0891C289.75059,420.7003,281.40119,416.4861,273.20479,416.9311Z" transform="translate(-128.78999 -163.306)"/><path class="cls-3" d="M534.20519,419.2725c-1.7478,1.5961-3.5619,3.1566-4.5763,5.4446-2.5445,5.7397,20.6745,3.4844,24.7263,1.894,3.49381-1.3712,1.2659-5.5727,1.1963-6.7062C549.46089,421.5478,539.00639,421.4026,534.20519,419.2725Z" transform="translate(-128.78999 -163.306)"/><path class="cls-5" d="M190.9688,192.5616c2.4506-.6049,16.08829-10.4692,19.99189-13.8296,6.3822,3.0187,8.5271,12.8557,2.5344,16.9635-5.9926,4.1078-16.31239,2.8906-18.33489,4.007C190.4991,197.8354,190.9688,192.5616,190.9688,192.5616Z" transform="translate(-128.78999 -163.306)"/><path class="cls-4" d="M203.14979,198.7865a21.0837,21.0837,0,0,1,2.4641-3.6462c1.5708-1.5806-.0397,2.5665-.0397,2.5665s3.451-3.1613,4.3387-5.05c1.4605-.6534,2.0854,1.7823,2.0854,1.7823s.7814-2.9389,1.2591-4.5307c1.0592.033.3279,2.3798.3279,2.3798s3.442-3.7656-1.3916-8.2803c-1.6732,5.203-12.1808,12.0601-14.82409,15.2341l-.0376.0059C198.84749,199.0975,200.907,199.017,203.14979,198.7865Z" transform="translate(-128.78999 -163.306)"/><path class="cls-8" d="M210.96069,178.732c-2.2046,1.8977-7.5133,5.8693-12.15869,9.0766,7.43719-3.2728,10.45469-9.1918,13.48849-4.7659,3.2841,4.7909-3.8237,13.6137-6.3137,15.362a19.00247,19.00247,0,0,0,7.5183-2.7092C219.48779,191.5877,217.34289,181.7507,210.96069,178.732Z" transform="translate(-128.78999 -163.306)"/><path class="cls-3" d="M198.38449,163.306s3.5413,23.9599-9.78329,28.8137c-2.2608,1.7209.6052,8.0221,5.2155,5.8257C201.92579,190.6599,208.60529,182.7054,198.38449,163.306Z" transform="translate(-128.78999 -163.306)"/><g class="cls-14"><path class="cls-15" d="M555.55149,419.9049h0c-.0112-.181.0276-.2913.1591-.2913.9542,0,3.1806-.9542,1.90841-4.453-.66111-1.8179-1.57921-8.3606-2.27641-15.6236C553.25409,410.4201,549.03039,415.7933,555.55149,419.9049Z" transform="translate(-128.78999 -163.306)"/><path class="cls-15" d="M541.33949,347.0497l.0019-.0121c-.9029-2.2464-1.802-4.755-2.6711-7.5923-3.99929-13.0558,11.9511-27.339,11.3873-42.469a51.71374,51.71374,0,0,0-1.7191-10.4845c-3.1469,14.6148-7.7341,30.6225-11.2397,35.0837-6.3735,8.1108-2.2144,17.6528-3.3476,25.7636C532.61809,355.4499,540.60959,353.0643,541.33949,347.0497Z" transform="translate(-128.78999 -163.306)"/><path class="cls-15" d="M523.87239,340.1825c8.0721-3.3397,10.5349-17.6528,0-9.0649-8.8659,7.2273-38.2583-11.6495-54.38639-29.9681,4.87889,11.7166,10.00519,24.2597,14.65909,29.1398,4.4,4.6139,15.1351,15.3018,23.5034,24.9924C507.01659,347.0654,517.43889,342.8443,523.87239,340.1825Z" transform="translate(-128.78999 -163.306)"/><path class="cls-15" d="M542.24949,397.1418c4.9797-3.1558,7.9022-2.5695,7.0686-7.5707-.8335-5.0013-9.1856,6.9096-15.9076-2.87-4.54249-6.6086-9.2467-9.4321-14.625-14.5976.0027.0374.0146.0813.016.1178.3051,7.6337,18.7791,28.3082,19.8688,36.9539C544.84179,403.7398,537.26989,400.2976,542.24949,397.1418Z" transform="translate(-128.78999 -163.306)"/></g><path class="cls-16" d="M533.75119,251.1861c-4.74119-15.1894-21.51319-12.3818-33.5681-9.403s-16.6252-39.7798-31.5725-27.2269c-14.9473,12.5528-4.81459,30.1582-11.9712,32.0903-7.1566,1.9322-20.9925,17.5144-35.3057,7.0992-14.3131-10.4152-48.8641-34.2105-43.75469-18.9731s-37.36091,30.8307-19.704,52.853c17.65679,22.0223,48.282,16.7763,59.85139,7.0391,11.5693-9.7373,36.1948-36.047,49.2429-37.0111,13.0482-.9642,32.1462,8.2885,36.9231,3.3298C508.66929,256.0246,542.16019,278.1258,533.75119,251.1861Z" transform="translate(-128.78999 -163.306)"/><path class="cls-16" d="M391.04929,299.2476c-12.2295,0-22.9531-4.9751-30.19629-14.0093-8.218-10.2498-.28241-18.56,8.90609-28.1822,6.9324-7.2586,14.0973-14.7604,11.552-23.1437,5.3073,1.463,18.25291,8.7127,37.77691,22.9196a21.2006,21.2006,0,0,0,12.65769,4.2874c7.7776-.0004,14.5092-4.1877,19.9181-7.5521a30.6621,30.6621,0,0,1,5.9708-3.2363c5.7266-1.5459,5.7788-7.3592,5.825-12.4881.0596-6.6016.1267-14.0834,7.6057-20.3635a5.05,5.05,0,0,1,2.8342-1.4202c3.0247,0,7.0312,7.9482,9.6823,13.208,4.2729,8.477,8.3078,16.4824,15.4029,16.4819a8.80254,8.80254,0,0,0,2.11431-.2609,64.42547,64.42547,0,0,1,14.71469-2.2401c7.9268,0,12.33531,2.7988,14.294,9.0747,1.9066,6.1087.9831,7.8051.7786,8.0833-.2907.3951-1.2049.622-2.5081.622-3.11419,0-7.5791-1.285-11.5185-2.4186-3.9351-1.1322-7.6411-2.1987-10.5028-2.1987a6.93207,6.93207,0,0,0-5.2132,1.9238h0a4.3154,4.3154,0,0,1-2.077.3024c-2.954,0-7.3239-.9989-11.9505-2.0566-5.7699-1.3195-12.3101-2.8146-18.13919-2.8146-.78691,0-1.55661.0275-2.28811.0811-11.348.8386-28.15989,16.4838-41.66789,29.0553-3.82471,3.5596-7.12621,6.6319-9.75261,8.8422C409.85339,296.3025,400.34679,299.2476,391.04929,299.2476Z" transform="translate(-128.78999 -163.306)"/><path class="cls-16" d="M391.04929,295.4308c-11.0479,0-20.7144-4.4677-27.2182-12.5799-5.5999-6.9846-2.0649-11.8982,8.6881-23.1586,5.8762-6.1525,11.9285-12.4899,12.9875-19.9181,4.8531,2.4242,14.63231,7.9901,31.3356,20.1441a24.94084,24.94084,0,0,0,14.9034,5.018,28.88561,28.88561,0,0,0,9.8309-1.8027c-6.5881,5.278-13.18459,11.4169-19.1563,16.9749-3.781,3.5191-7.0466,6.5588-9.6092,8.7155C408.04289,292.8375,399.50109,295.4308,391.04929,295.4308Zm136.3123-38.2712a60.01235,60.01235,0,0,1-9.4438-2.2174c-4.2021-1.2086-8.16379-2.3482-11.5609-2.3482a10.95879,10.95879,0,0,0-7.0023,2.221c-.0839.0033-.1794.0052-.2879.0052-2.5235,0-6.6893-.9524-11.09969-1.9606-5.96561-1.3642-12.72711-2.9106-18.99-2.9106-.87781,0-1.74161.0307-2.56721.0913a18.29092,18.29092,0,0,0-2.0165.267c2.8043-3.6543,2.8509-8.8675,2.8831-12.4294.0573-6.3394.1113-12.3264,6.2433-17.4753.1081-.0909.2064-.1687.295-.2353.7962.8554,2.6105,3.3802,6.3584,10.8177,4.6052,9.1354,9.3664,18.5814,18.8116,18.581a12.62739,12.62739,0,0,0,3.0317-.3728,61.00714,61.00714,0,0,1,13.7973-2.1283c7.1827,0,9.4526,2.5565,10.6505,6.3948A24.69457,24.69457,0,0,1,527.36159,257.1596Z" transform="translate(-128.78999 -163.306)"/><g class="cls-14"><path class="cls-17" d="M143.5403,252.157c5.5283.3503,12.0838-.3234,13.001-5.7975-2.9124,5.1837-14.4923,4.5053-21.8075,3.1731a4.52213,4.52213,0,0,0,1.5664.7159,10.19658,10.19658,0,0,0,2.8839,2.2906A12.57789,12.57789,0,0,1,143.5403,252.157Z" transform="translate(-128.78999 -163.306)"/><path class="cls-17" d="M196.0239,242.1641a4.68454,4.68454,0,0,0,.5941-2.1733A7.81914,7.81914,0,0,1,196.0239,242.1641Z" transform="translate(-128.78999 -163.306)"/><path class="cls-17" d="M179.2359,252.6341c3.8231-.8881,8.5634-1.574,12.1284-3.5286-.1049-1.0483.7635-2.1464,1.8329-3.3379-6.2083,5.0727-19.3102,6.181-27.3902,5.4949-7.3817-.6268-9.8291,1.4372-11.4246,3.6578a49.39825,49.39825,0,0,1,7.6928,1.7294C163.8293,253.4603,173.4048,253.9886,179.2359,252.6341Z" transform="translate(-128.78999 -163.306)"/><path class="cls-17" d="M171.4942,196.2688c-3.6541,3.0341-8.9891,12.9489-8.0349,15.0534,1.4314-4.3364,7.8723-11.8852,13.854-15.5095,5.9746-3.62.9247-7.9603.9127-7.9707-1.7298,1.3829-3.3454,2.733-4.8606,4.0734A5.34318,5.34318,0,0,1,171.4942,196.2688Z" transform="translate(-128.78999 -163.306)"/></g><path class="cls-4" d="M135.4295,247.0281c-1.8106-1.9328-5.2481-7.3951-4.4132-8.7071.8349-1.3121,5.8445,2.5113,6.6795,1.196.8349-1.3153,4.8633-4.6156,4.8768-1.4745S137.1351,248.8488,135.4295,247.0281Z" transform="translate(-128.78999 -163.306)"/><path class="cls-4" d="M142.2632,236.9735c-2.2527-.0246-2.8976,3.431-4.4482,3.7013-1.5505.2702-2.4657-4.1543-4.685-2.8309-2.2193,1.3233-.7489,2.3795,0,4.1716.7489,1.7922,2.0131,4.1615,3.1702,3.7521,1.157-.4094,5.6627-3.3354,6.2725-5.0928C143.1825,238.9173,143.0301,236.9818,142.2632,236.9735Z" transform="translate(-128.78999 -163.306)"/><path class="cls-4" d="M316.41669,381.8358c-3.2802,8.9947-2.9743,15.6198-1.4908,20.5292,1.7334,5.7368-9.9455,15.533-19.6844,13.1358.2728,1.2271,2.409,1.5601,6.6501,1.8864,8.2697.6361,17.8118-.9542,16.92541-6.2024,2.736,0,1.20449-2.3855-.41811-7.5646C317.06689,399.3684,316.44429,389.7285,316.41669,381.8358Z" transform="translate(-128.78999 -163.306)"/><path class="cls-8" d="M305.63259,330.2893c1.1833-.7483,1.9051-2.5131,2.3058-4.862-4.1251,3.5014-9.0739,4.277-10.8106,1.8971-3.4987-4.7947-13.995-14.055-13.04079-9.5839s7.262,4.7166,7.44779,10.9552c.1223,4.1034,5.6674,11.0902,8.7254,17.8102C301.47549,338.6186,303.05239,331.921,305.63259,330.2893Z" transform="translate(-128.78999 -163.306)"/><g class="cls-14"><path class="cls-18" d="M276.36759,306.3082c-1.0399-4.771-12.3189,3.8168-22.02,0a13.20687,13.20687,0,0,1-4.3377-3.0128c2.7498,6.7624,6.3442,10.4355,9.4454,15.8686C265.876,315.3587,277.11889,309.755,276.36759,306.3082Z" transform="translate(-128.78999 -163.306)"/><path class="cls-18" d="M276.47669,366.4278a41.76852,41.76852,0,0,1-2.886-4.0537s2.2265,2.4588,2.7769,0c-6.129-4.6851-4.3672-7.0924-4.3672-7.0924a7.741,7.741,0,0,1,4.3672-2.2174c-2.8378-1.8585-5.4574-5.0731-9.0592-10.3162,2.0918,7.7707,4.2053,16.0555,5.8885,23.6858A4.99892,4.99892,0,0,1,276.47669,366.4278Z" transform="translate(-128.78999 -163.306)"/><path class="cls-18" d="M292.14839,370.2401s2.387-2.7488,5.8095-6.2819c.1418-1.0526.2819-2.135.4216-3.2383C295.78119,365.1341,292.14839,370.2401,292.14839,370.2401Z" transform="translate(-128.78999 -163.306)"/></g><path class="cls-6" d="M294.53559,324.4381c1.08141,9.065-5.1635,22.2499-10.50959,33.0718-5.34621,10.8217,1.52929,19.8867,0,27.0433-1.52931,7.1565-3.19921,15.8284-2.00651,23.8971,1.1928,8.0688,3.1012,8.0688-2.1469,11.6471-4.4397,3.027-11.6032,6.8859-16.8844,5.4101a1.09352,1.09352,0,0,0,.0302.2819c.6505,2.5445,26.4141,2.8626,26.7322-5.0891,2.8627,3.8168,2.8632-7.1388,1.2997-12.3825-1.5634-5.2437,1.2366-23.3737,4.6076-32.5977s3.8555-41.5609,9.9747-45.4308c3.0722-1.943,3.0589-10.6902,2.2845-18.92C307.34079,325.5999,297.493,327.4986,294.53559,324.4381Z" transform="translate(-128.78999 -163.306)"/><path class="cls-6" d="M554.35519,380.703c.2351-9.9663-1.50719-15.7972-4.283-18.7676-2.7757-2.9703-7.4025-9.4343-11.4019-22.4901-3.99929-13.0558,11.9511-27.339,11.3873-42.469,0,0-.0032-.1077-.0139-.306-13.4299,23.1478-22.3705,26.5094-23.8566,38.7507-1.64,13.5084,11.1604,27.059,16.6878,33.9607,5.5274,6.9016,4.5732,12.9449,1.3925,14.5353s-5.3267,8.0401.3181,13.2248c5.6447,5.1846,3.2216,23.8383,2.5543,23.8515-.3675.0072-2.8477,4.7138-7.5492,7.4184,5.9758-.0523,12.7468-1.0086,14.7646-1.8006,4.0519-1.5903.4012-6.9975,1.3554-6.9975s3.1806-.9542,1.90841-4.453C556.34669,411.6619,554.12019,390.6694,554.35519,380.703Z" transform="translate(-128.78999 -163.306)"/><g class="cls-14"><path class="cls-15" d="M568.043,350.1569c0-3.146.59639-3.8913-1.84331-6.6958,1.2579,1.3702.6506,6.5021.6506,11.9695,0,3.9158,2.2581,9.3144,3.543,12.0719a18.28525,18.28525,0,0,0-.1219-4.5067,14.93322,14.93322,0,0,0-.9163-2.1018C567.67919,357.7736,568.043,353.3029,568.043,350.1569Z" transform="translate(-128.78999 -163.306)"/><path class="cls-15" d="M567.86479,374.1102a9.28921,9.28921,0,0,0,.7558-1.0728Z" transform="translate(-128.78999 -163.306)"/><path class="cls-15" d="M562.67559,357.8148c-.9542-1.4448-.1192-9.6408-.1192-9.6408s-2.2663,4.6518-1.0735,9.065c1.0103,3.7384,4.8435,7.4795,4.5672,18.1787.3413.0495,1.0354-.3734,1.7866-1.2712C567.82549,374.0849,565.67579,362.3575,562.67559,357.8148Z" transform="translate(-128.78999 -163.306)"/></g></g></g></svg>