<svg xmlns="http://www.w3.org/2000/svg" viewBox="0 0 440.72294 267.83372"><defs><style>.cls-1{isolation:isolate;}.cls-2{fill:#e3cdb8;}.cls-3{fill:#bd9f83;}.cls-11,.cls-4{fill:#ededed;}.cls-4,.cls-5,.cls-7,.cls-8,.cls-9{mix-blend-mode:multiply;}.cls-5{fill:#e6e6e6;}.cls-6{fill:#e2c4b4;}.cls-10,.cls-7{fill:#f2f2f2;}.cls-8{fill:#ebebeb;}.cls-12{fill:#050505;}.cls-12,.cls-17{mix-blend-mode:screen;}.cls-13,.cls-14{fill:#fea484;}.cls-13{opacity:0.1;}.cls-15{fill:#f2e1d1;}.cls-16{fill:#383838;}.cls-17{fill:#333;}</style></defs><g class="cls-1"><g id="Layer_1" data-name="Layer 1"><path class="cls-2" d="M1019.0775,735.2333c11.1207,25.3779,21.3323,46.1936,21.7868,57.0291.4546,10.8356-3.8226,30.4629-7.8146,34.3362-3.9921,3.8733-10.8356,6.988-5.4178,8.8524s19.3899,1.5793,19.3899-5.2642c1.996,3.1366,5.6134,1.1406,5.2305-1.7109-.383-2.8514-.7246-16.4733,2.4402-24.2048s8.3302-22.9883,4.3218-31.4706c-4.0084-8.4824-4.2936-32.3366-4.2936-32.3366Z" transform="translate(-675.77196 -568.6026)"/><path class="cls-3" d="M1027.6319,835.451c5.4178,1.8644,19.3899,1.5793,19.3899-5.2642-2.4137-1.9709-9.4737-2.4632-15.158-2.519C1027.882,831.0451,1022.7222,833.7615,1027.6319,835.451Z" transform="translate(-675.77196 -568.6026)"/><path class="cls-4" d="M1059.0143,772.8005c-4.0084-8.4824-4.2936-32.3366-4.2936-32.3366l-35.6432-5.2306c7.6406,17.436,14.8517,32.7181,18.7643,44.0898,6.8206,5.87,10.6752,9.4859,9.18,15.6769-2.5597,10.5989-2.8449,15.7315-1.7043,19.7235.9896,3.4637-8.8231,19.2345-16.8087,20.9882,5.9051,1.5573,18.513.9773,18.513-5.5249,1.996,3.1366,5.6134,1.1405,5.2305-1.7109-.383-2.8514-.7246-16.4733,2.4402-24.2048S1063.0227,781.2828,1059.0143,772.8005Z" transform="translate(-675.77196 -568.6026)"/><path class="cls-4" d="M1059.0143,772.8005c-4.0084-8.4824-4.2936-32.3366-4.2936-32.3366l-35.6432-5.2306c10.3442,23.6059,19.8971,43.2594,21.5472,54.6101,6.1302,2.5192,10.8073,6.7434,8.9051,14.3298-2.2163,8.8395-7.594,12.4995-9.7526,19.0813-1.4004,4.2698-7.4432,9.6518-12.8296,11.9206a7.1099,7.1099,0,0,0,.6843.2759c5.4178,1.8644,19.3899,1.5793,19.3899-5.2642,1.996,3.1366,5.6134,1.1405,5.2305-1.7109-.383-2.8514-.7246-16.4733,2.4402-24.2048S1063.0227,781.2828,1059.0143,772.8005Z" transform="translate(-675.77196 -568.6026)"/><path class="cls-4" d="M1059.0143,772.8005c-4.0084-8.4824-4.2936-32.3366-4.2936-32.3366l-35.6432-5.2306c5.0772,11.5863,9.9614,22.2168,13.8176,31.3856,13.0442,11.4002,22.1833,13.1006,23.5938,22.1069,1.6602,10.5999-9.7588,27.4235-9.4671,33.4115.2917,5.9881-.5637,14.1997-11.9695,14.2285-.5748.0015-1.1379.0157-1.6988.0315,6.1463.2992,13.6683-1.1886,13.6683-6.2105,1.996,3.1366,5.6134,1.1405,5.2305-1.7109-.383-2.8514-.7246-16.4733,2.4402-24.2048S1063.0227,781.2828,1059.0143,772.8005Z" transform="translate(-675.77196 -568.6026)"/><path class="cls-2" d="M867.44068,752.0569c-.3458,16.2533-1.846,29.0848-2.0939,36.4986-.248,7.4138.2646,19.2286,1.71922,23.8716s2.82758,6.7816.37468,6.7816c.7947,4.7049-7.7596,6.1306-15.1734,5.5603s-7.699-1.1406-2.2812-7.6989c5.4178-6.5584,2.8515-19.3531,1.1406-23.6487s-5.1652-10.4122-6.9543-18.3643c-1.789-7.9522-1.0298-21.7797-1.0298-21.7797Z" transform="translate(-675.77196 -568.6026)"/><path class="cls-3" d="M867.44078,820.3461c-7.2344-1.3702-15.4354-.2878-18.3776-2.1465-4.432,5.4964-3.7589,6.0338,3.2041,6.5694,6.7778.5214,14.5042-.6273,15.1735-4.4229Z" transform="translate(-675.77196 -568.6026)"/><path class="cls-5" d="M849.98608,817.0701a24.38513,24.38513,0,0,0-3.5022,4.9028c2.1595-2.597,6.838-5.2207,8.19012-6.679,2.11508-2.2812,2.73238-9.9802,3.38508-13.687.6527-3.7069-.3675-7.9841-2.17408-14.5425-1.80662-6.5583,1.23628-4.5623,2.17408-9.9986.6654-3.8565,3.939-3.9608,8.4284-5.2757.4054-5.7604.797-12.3935.9533-19.7332l-24.2982,1.2205s-.7592,13.8275,1.0298,21.7797c1.7891,7.9521,5.2434,14.0687,6.9543,18.3643S855.40388,810.5117,849.98608,817.0701Z" transform="translate(-675.77196 -568.6026)"/><path class="cls-5" d="M852.38528,824.7771c3.8216-3.1505,8.3304-9.6837,5.6738-14.901-3.3393-6.5584,3.0543-11.1207,3.3394-18.8196.2851-7.699-1.7109-13.9722-3.3394-24.5226-.9814-6.3588,4.0586-5.9833,9.0298-4.6824.153-3.1039.2789-6.3679.3519-9.7946l-24.2982,1.2205s-.7592,13.8275,1.0298,21.7797c1.7891,7.9521,5.2434,14.0687,6.9543,18.3643s4.2772,17.0903-1.1406,23.6487c-5.4177,6.5583-5.1326,7.1286,2.2812,7.6989C852.30648,824.7721,852.34608,824.7741,852.38528,824.7771Z" transform="translate(-675.77196 -568.6026)"/><path class="cls-5" d="M865.28888,792.8976c-2.9406,8.0636-2.6664,14.003-1.3365,18.4042,1.5541,5.143-8.916,13.9252-17.6468,11.7761.2446,1.1001,2.1596,1.3986,5.9617,1.6911,7.4138.5703,15.9681-.8554,15.1735-5.5603,2.4528,0,1.0798-2.1386-.37478-6.7816C865.87178,808.6153,865.31368,799.9733,865.28888,792.8976Z" transform="translate(-675.77196 -568.6026)"/><path class="cls-2" d="M1098.2846,671.0806c-1.8504-13.4156-1.8504-36.546-20.8173-51.7056s-76.5616-1.7256-109.18812-.3378c-32.6264,1.3879-141.0826-1.6191-154.49818-6.8574-13.41562-5.2382-28.68172-4.0138-38.85912-4.9908-8.2585-.7928-17.1266-7.575-29.5698-10.9446l-.0007-.0002-.001-.0003q-.75375-.204-1.5247-.391c-9.8829-2.5597-10.4115-3.2614-13.1766-3.2614-9.8199,0-13.36008,6.7849-14.9215,12.0278-1.5615,5.2429-25.30858,29.5482-29.0094,33.741-3.7009,4.1928-12.1821,7.7034-10.7943,13.2727,1.3878,5.5694,6.5619,6.9572,6.9818,9.2702.4199,2.3131,5.2001,7.1704,8.13,5.7826s9.4064-1.823,14.4951.245c5.0887,2.0681,8.55822,1.1428,11.3339,2.762,2.7756,1.6191,10.4087,4.8573,16.6539,4.8573,6.2409,0,15.2868-2.5726,24.9772,7.4808,6.4076,7.5754,12.658,18.8305,17.1153,34.5032,8.3224,29.2622,18.2777,51.2315,75.7954,39.8204,57.5176-11.411,78.9516,6.3224,90.7117,12.1514,11.7601,5.8291,59.944-14.6186,82.61182-22.6371,22.6678-8.0186,61.9894.1542,68.4659-23.4388S1100.135,684.4962,1098.2846,671.0806Z" transform="translate(-675.77196 -568.6026)"/><path class="cls-2" d="M1079.5523,623.3273c15.6706,2.1612,23.9644,29.8072,24.2408,54.6886.2765,24.8814,1.1059,85.979,5.8057,93.9963-2.2117,5.2528-4.1469-5.2527-5.8057-19.3522-1.6587-14.0994-2.4881-37.5985-2.7646-48.9334-.2764-11.3348-.3214-41.7368-5.2527-51.4215s-8.0443-1.6588-8.0443-1.6588Z" transform="translate(-675.77196 -568.6026)"/><path class="cls-3" d="M1106.2338,768.541c.6374,6.5816-7.1704,15.3498-2.9457,24.9735a41.89837,41.89837,0,0,1,2.9829,19.6751,18.32174,18.32174,0,0,0,2.9624-3.8445,2.71717,2.71717,0,0,0,.3654-2.1436c.2664,1.0693,5.3991-2.994,3.9021-11.5484a9.161,9.161,0,0,1,1.2831,3.2079,20.98269,20.98269,0,0,0,0-16.681,31.6498,31.6498,0,0,1,1.7109,2.7801,128.94055,128.94055,0,0,1-8.3787-17.7427C1109.0843,770.8754,1106.2338,768.541,1106.2338,768.541Z" transform="translate(-675.77196 -568.6026)"/><path class="cls-2" d="M725.07968,599.3748c-1.305-9.1427,19.3328-26.4866,14.86232.8222C731.17118,604.6683,725.07968,599.3748,725.07968,599.3748Z" transform="translate(-675.77196 -568.6026)"/><path class="cls-5" d="M725.07968,599.3748c-1.305-9.1427,19.3328-26.4866,14.86232.8222C731.17118,604.6683,725.07968,599.3748,725.07968,599.3748Z" transform="translate(-675.77196 -568.6026)"/><path class="cls-3" d="M720.55728,577.3924s-2.1246,14.375,5.8696,17.2871c1.3564,1.0325-.3631,4.8129-3.1291,3.4952C718.43268,593.8037,714.42528,589.0313,720.55728,577.3924Z" transform="translate(-675.77196 -568.6026)"/><path class="cls-6" d="M1004.9635,759.0139c2.4594,6.6297.3208,17.6434,2.7801,18.6058,2.4594.9624,2.6733-11.4415,4.2772-11.5484C1013.6248,765.9644,1004.9635,759.0139,1004.9635,759.0139Z" transform="translate(-675.77196 -568.6026)"/><path class="cls-7" d="M1004.9635,759.0139a29.41655,29.41655,0,0,1,1.3207,8.8027,10.698,10.698,0,0,1,3.9528,4.2465c.5458-2.937.9981-5.9394,1.7838-5.9918C1013.6248,765.9644,1004.9635,759.0139,1004.9635,759.0139Z" transform="translate(-675.77196 -568.6026)"/><path class="cls-6" d="M1019.6295,767.4991c1.5669,2.7194,2.0304,10.0299,2.031,11.9546s1.8184,3.9564,3.3154,1.8178c1.4971-2.1386.2139-10.693,3.4218-11.3345C1031.6056,769.2954,1019.6295,767.4991,1019.6295,767.4991Z" transform="translate(-675.77196 -568.6026)"/><path class="cls-7" d="M1019.6295,767.499c1.1522,1.9998,1.7064,6.4767,1.92,9.4745,1.5039-.7781,3.5794.2935,3.9451,2.8792.6833-3.1976.1933-9.3738,2.9032-9.9157C1031.6057,769.2954,1019.6295,767.499,1019.6295,767.499Z" transform="translate(-675.77196 -568.6026)"/><path class="cls-6" d="M1034.2622,768.1157c1.9247,2.1386,4.6142,6.7261,4.7665,10.6343.1523,3.9081,3.3601,4.6566,3.4671,1.3418.1069-3.3148-.4277-11.5055.9623-12.8101C1044.8482,765.9771,1034.2622,768.1157,1034.2622,768.1157Z" transform="translate(-675.77196 -568.6026)"/><path class="cls-7" d="M1042.5108,778.6581c-.0111-3.8043-.2707-10.2332.9473-11.3764,1.3901-1.3046-9.1959.834-9.1959.834a22.03133,22.03133,0,0,1,3.9014,6.6545A9.06747,9.06747,0,0,1,1042.5108,778.6581Z" transform="translate(-675.77196 -568.6026)"/><path class="cls-7" d="M1034.2622,768.1157a22.01408,22.01408,0,0,1,3.77,6.305c.6644-1.0136,1.591-1.1535,2.3962.1022,1.2191,1.901,1.7626,6.1288.5035,7.6338.7799.1408,1.5138-.5092,1.5639-2.0649.1069-3.3148-.4277-11.5055.9623-12.8101C1044.8482,765.9771,1034.2622,768.1157,1034.2622,768.1157Z" transform="translate(-675.77196 -568.6026)"/><path class="cls-6" d="M983.04288,754.9724c14.75629-4.7049,21.59982,17.5365,45.552,19.4612,23.9523,1.9247,36.9353-27.8951,36.9353-27.8951l-8.7674-28.2801Z" transform="translate(-675.77196 -568.6026)"/><path class="cls-7" d="M1056.7627,718.2584l-60.90813,30.3335c17.42423-4.5242,35.55433,4.1591,39.72653,13.3665,1.9531,4.3106.0346,8.817-2.6751,12.4811,21.1946-1.6527,32.6242-27.901,32.6242-27.901Z" transform="translate(-675.77196 -568.6026)"/><path class="cls-7" d="M1056.7627,718.2584l-73.71982,36.714c8.17149-2.6054,13.92012,3.0531,21.48762,8.9482,6.4933-9.6382,24.5446-17.4446,33.0465-9.6611,5.8326,5.3397,4.1848,13.1833,1.7419,18.8766,17.0752-5.6326,26.2113-26.5976,26.2113-26.5976Z" transform="translate(-675.77196 -568.6026)"/><path class="cls-2" d="M1098.2846,671.0806c-1.8504-13.4156-1.8504-36.546-20.8173-51.7056s-76.5616-1.7256-109.18812-.3378c-32.6264,1.3879-141.0826-1.6191-154.49818-6.8574-13.41562-5.2382-28.68172-4.0138-38.85912-4.9908-8.2585-.7928-17.1266-7.575-29.5698-10.9446l-.0007-.0002-.001-.0003q-.75375-.204-1.5247-.391c-9.8829-2.5597-10.4115-3.2614-13.1766-3.2614-9.8199,0-13.36008,6.7849-14.9215,12.0278-1.5615,5.2429-25.30858,29.5482-29.0094,33.741-3.7009,4.1928-12.1821,7.7034-10.7943,13.2727,1.3878,5.5694,6.5619,6.9572,6.9818,9.2702.4199,2.3131,5.2001,7.1704,8.13,5.7826s9.4064-1.823,14.4951.245c5.0887,2.0681,8.55822,1.1428,11.3339,2.762,2.7756,1.6191,10.4087,4.8573,16.6539,4.8573,6.2409,0,15.2868-2.5726,24.9772,7.4808,6.4076,7.5754,12.658,18.8305,17.1153,34.5032,8.3224,29.2622,18.2777,51.2315,75.7954,39.8204,57.5176-11.411,78.9516,6.3224,90.7117,12.1514,11.7601,5.8291,59.944-14.6186,82.61182-22.6371,22.6678-8.0186,61.9894.1542,68.4659-23.4388S1100.135,684.4962,1098.2846,671.0806Z" transform="translate(-675.77196 -568.6026)"/><path class="cls-8" d="M752.28868,603.56a38.60684,38.60684,0,0,1,8.3398-1.3748,94.95822,94.95822,0,0,0-15.2764-5.9408l-.0007-.0002-.001-.0003q-.75375-.204-1.5247-.391c-.1283-.0332-.2484-.0648-.37368-.0974l-4.70762,4.3127C743.164,603.2748,747.44118,605.1283,752.28868,603.56Z" transform="translate(-675.77196 -568.6026)"/><path class="cls-7" d="M795.82828,652.1773c-.3728,12.5465-7.6112,24.5226-4.3941,39.3502,1.4594,6.7265,4.5415,14.0688,7.4744,20.0891-1.9025-6.0965-3.3829-14.7935-3.0803-26.9326.7443-29.8574,19.1563-42.0261,11.7671-74.4511-8.0739-2.0354-16.4127-2.3253-23.6495-2.5699C796.538,621.4278,796.08538,643.5247,795.82828,652.1773Z" transform="translate(-675.77196 -568.6026)"/><g class="cls-9"><path class="cls-10" d="M926.35328,619.2103c37.6279.9405,59.8975,12.5791,72.79609,6.5911a136.50782,136.50782,0,0,1,60.46833-12.7631h0c-25.6711-3.4057-66.02033,4.922-91.33842,5.9989-9.21428.392-24.47828.4332-41.94.1728Z" transform="translate(-675.77196 -568.6026)"/><path class="cls-10" d="M771.8,625.3737c2.39628-3.2393,2-11.8456,1.25208-18.4696a28.63838,28.63838,0,0,1-3.9556-1.1051C770.594,611.4419,771.383,619.1836,771.8,625.3737Z" transform="translate(-675.77196 -568.6026)"/><path class="cls-10" d="M787.57548,607.7943c16.5944,1.3839,23.7384,11.5913,37.798,12.4723,13.0053.815,56.1563-1.5859,92.337-1.2062-42.996-.8487-94.9157-3.361-103.92948-6.8806-8.58572-3.3524-17.92372-4.0561-26.20632-4.3856Z" transform="translate(-675.77196 -568.6026)"/><path class="cls-10" d="M771.8,638.2052c13.77188-15.1577.43058-30.436,13.85908-30.4837-3.9303-.1381-7.5792-.2294-10.7372-.5326-.17388-.0167-.3498-.051-.5244-.0729C776.60688,616.2181,778.47158,630.2703,771.8,638.2052Z" transform="translate(-675.77196 -568.6026)"/></g><g class="cls-9"><path class="cls-10" d="M740.74028,667.7178c-5.1326-2.994-5.1326-.4277-13.25928,0-8.12662.4277-15.39622-9.8633-28.22862-2.1515a20.39765,20.39765,0,0,1,6.2784,1.3645c5.0888,2.0681,8.55822,1.1428,11.3339,2.762,2.7756,1.6191,10.4086,4.8573,16.6539,4.8573,3.6857,0,8.3503-.8956,13.5477.4405C744.55238,671.4281,742.24248,668.5941,740.74028,667.7178Z" transform="translate(-675.77196 -568.6026)"/><path class="cls-10" d="M1025.6266,712.2005c-14.1404-20.1027-27.69343-20.6765-26.47723-3.067,1.21613,17.6095-7.3383,32.1906-49.68237,29.605-42.34422-2.5857-80.639-24.3994-96.99222-9.4292-16.3532,14.9701-41.5886,20.82-62.5469,6.7743a65.20291,65.20291,0,0,1-11.2791-9.6956c8.2385,24.0575,21.9175,40.0528,72.7576,29.9665,57.5177-11.411,78.9517,6.3224,90.7118,12.1514,11.7602,5.8291,59.94412-14.6186,82.61182-22.6371,11.4638-4.0553,27.1835-3.973,40.7636-5.9491Z" transform="translate(-675.77196 -568.6026)"/></g><path class="cls-7" d="M1025.6266,724.1977c-23.0709-15.8045-8.5801-23.5456-6.549-38.9434,2.031-15.3979-11.4409-32.9344-13.0059-17.5365s-31.36932,51.7539-55.74932,66.426c-24.3799,14.672-72.7121,2.8644-89.8209-10.2439-17.1087-13.1084-9.084-1.6259-9.084-1.6259s-8.0247-1.0914-26.2857,1.9237c-7.568,22.2625-42.90278,2.1175-47.18-11.5694-4.2772-13.687-18.3919-40.2056-20.1027-41.9165-1.7109-1.7108-11.1207-1.7108-17.1088-8.1266-5.988-6.4158-8.5544,2.1386-17.5364,2.5634-8.9821.4249-5.5604-.4248-7.699.4177s-9.8374-1.2702-16.2525,0a20.39765,20.39765,0,0,1,6.2784,1.3645c5.0888,2.0681,8.55822,1.1428,11.3339,2.762,2.7756,1.6191,10.4086,4.8573,16.6539,4.8573,6.2409,0,15.2868-2.5727,24.9772,7.4808,6.4076,7.5754,12.658,18.8305,17.1153,34.5032,8.3224,29.2622,18.2777,51.2315,75.7953,39.8204,57.5177-11.411,78.9517,6.3224,90.7118,12.1514,11.7602,5.8291,59.94412-14.6186,82.61182-22.6371,16.2796-5.7588,41.1481-3.1673,56.2715-9.9882C1063.1578,735.62,1039.0398,733.3862,1025.6266,724.1977Z" transform="translate(-675.77196 -568.6026)"/><path class="cls-2" d="M1093.5654,718.5327c.5055,13.564-13.794,26.3687-10.2086,38.0731s7.7333,17.4993,10.2217,20.1622,4.0504,7.8902,3.8397,16.8249c-.2107,8.9348,1.7853,27.7544,2.9259,30.891,1.1405,3.1366-.8555,3.992-1.7109,3.992s2.4174,4.8475-1.215,6.2732c-3.6325,1.4258-24.4481,3.4476-22.167-1.6979,2.2812-5.1456,9.0825-6.1824,8.1056-13.9332s-17.5387-26.2853-17.8122-33.1288-24.2257-30.4155-31.0692-37.5917-14.8276-32.8393-21.1008-43.3897,44.1976-31.366,61.8766-20.2453C1092.9303,695.8832,1093.5654,718.5327,1093.5654,718.5327Z" transform="translate(-675.77196 -568.6026)"/><path class="cls-2" d="M802.48308,710.1499c2.45,21.9468,11.0044,21.6616,15.2815,36.7743,4.2772,15.1128,10.4099,37.6769,11.6207,50.2045,1.2109,12.5276-1.6892,27.4739-3.115,29.4699-1.4257,1.996-9.4356,5.1326-8.8524,7.4138s23.68,2.5663,23.9652-4.5623c2.5663,3.4217,2.5667-6.3999,1.1651-11.1008-1.4016-4.701,1.1086-20.9543,4.1307-29.2235s3.4564-37.259,8.9422-40.7283c5.4857-3.4693,0-31.1393,0-31.1393Z" transform="translate(-675.77196 -568.6026)"/><path class="cls-3" d="M826.54988,826.0711a3.31308,3.31308,0,0,1-.2796.5275c-1.4257,1.996-9.4356,5.1326-8.8524,7.4138s23.68,2.5663,23.9652-4.5623C841.38308,829.4501,833.89778,825.6721,826.54988,826.0711Z" transform="translate(-675.77196 -568.6026)"/><path class="cls-3" d="M1079.3539,828.1701a15.18622,15.18622,0,0,0-4.1027,4.8811c-2.2811,5.1455,18.5345,3.1236,22.1669,1.6979,3.1322-1.2293,1.1349-4.9959,1.0725-6.0121C1093.0304,830.2099,1083.6581,830.0797,1079.3539,828.1701Z" transform="translate(-675.77196 -568.6026)"/><g class="cls-9"><path class="cls-11" d="M1098.4906,828.737h0c-.01-.1623.0248-.2611.1426-.2611.8554,0,2.8514-.8554,1.7109-3.9921-.5927-1.6297-1.4158-7.4952-2.0408-14.0064C1096.431,820.234,1092.6445,825.051,1098.4906,828.737Z" transform="translate(-675.77196 -568.6026)"/><path class="cls-11" d="M1085.7496,763.4231l.0018-.0109c-.8095-2.0139-1.6155-4.2628-2.3946-6.8064-3.5854-11.7044,10.714-24.5092,10.2086-38.0731a46.36386,46.36386,0,0,0-1.5412-9.3992c-2.8211,13.102-6.9336,27.4528-10.0763,31.4522-5.7137,7.2712-1.9852,15.8256-3.001,23.0968C1077.931,770.9537,1085.0953,768.8151,1085.7496,763.4231Z" transform="translate(-675.77196 -568.6026)"/><path class="cls-11" d="M1070.0906,757.2667c7.2366-2.994,9.4444-15.8256,0-8.1266-7.9482,6.4792-34.2982-10.4436-48.7569-26.8661,4.3738,10.5038,8.9695,21.7485,13.1417,26.1235,3.9446,4.1363,13.5685,13.7179,21.0706,22.4055C1054.9795,763.4372,1064.323,759.6529,1070.0906,757.2667Z" transform="translate(-675.77196 -568.6026)"/><path class="cls-11" d="M1086.5655,808.3301c4.4642-2.8291,7.0842-2.3035,6.3369-6.787-.7472-4.4836-8.2348,6.1944-14.261-2.5729-4.0723-5.9246-8.2896-8.4558-13.1112-13.0866.0024.0335.0131.0728.0144.1056.2735,6.8435,16.8353,25.378,17.8122,33.1288C1088.8894,814.2452,1082.1013,811.1593,1086.5655,808.3301Z" transform="translate(-675.77196 -568.6026)"/></g><path class="cls-7" d="M855.62108,748.3975c1.0608-.6709,1.70792-2.253,2.0671-4.3587-3.6981,3.139-8.1347,3.8343-9.6916,1.7007-3.1365-4.2984-12.5463-12.6001-11.6909-8.5918.8554,4.0082,6.51032,4.2283,6.6769,9.8212.1096,3.6787,5.0808,9.9423,7.8222,15.9666C851.89428,755.8647,853.308,749.8603,855.62108,748.3975Z" transform="translate(-675.77196 -568.6026)"/><g class="cls-9"><path class="cls-10" d="M829.38528,726.8987c-.9322-4.2772-11.0438,3.4217-19.7407,0a11.83843,11.83843,0,0,1-3.8887-2.701c2.4652,6.0625,5.6875,9.3553,8.4677,14.2261C819.97968,735.0124,830.05888,729.9887,829.38528,726.8987Z" transform="translate(-675.77196 -568.6026)"/><path class="cls-10" d="M829.48308,780.7954a37.46206,37.46206,0,0,1-2.5872-3.6341s1.996,2.2042,2.4894,0c-5.4946-4.2003-3.9152-6.3583-3.9152-6.3583a6.94047,6.94047,0,0,1,3.9152-1.9879c-2.544-1.6661-4.8925-4.548-8.1214-9.2484,1.8752,6.9664,3.7699,14.3936,5.2789,21.2341A4.48122,4.48122,0,0,1,829.48308,780.7954Z" transform="translate(-675.77196 -568.6026)"/><path class="cls-10" d="M843.53258,784.213s2.1399-2.4643,5.2082-5.6317c.1271-.9435.2527-1.914.378-2.903C846.78938,779.6355,843.53258,784.213,843.53258,784.213Z" transform="translate(-675.77196 -568.6026)"/></g><path class="cls-4" d="M845.67268,743.152c.9695,8.1267-4.6289,19.9468-9.42168,29.6485-4.79282,9.7016,1.371,17.8283,0,24.244-1.371,6.4158-2.86812,14.19-1.79882,21.4236s2.7802,7.2336-1.9247,10.4415c-3.9802,2.7137-10.4021,6.1731-15.1367,4.8501a.97885.97885,0,0,0,.0271.2527c.5832,2.2812,23.68,2.5663,23.9652-4.5623,2.5663,3.4217,2.5668-6.3999,1.1651-11.1008-1.4016-4.701,1.1086-20.9543,4.1307-29.2235s3.4564-37.259,8.9422-40.7283c2.7542-1.7418,2.7423-9.5837,2.0481-16.9616C857.15248,744.1935,848.324,745.8957,845.67268,743.152Z" transform="translate(-675.77196 -568.6026)"/><path class="cls-4" d="M1097.4181,793.5929c.2108-8.9347-1.3512-14.162-3.8396-16.8249s-6.6363-8.4578-10.2217-20.1622,10.714-24.5092,10.2086-38.0731c0,0-.0029-.0965-.0125-.2743-12.0398,20.7517-20.0549,23.7655-21.3872,34.7396-1.4702,12.1102,10.0052,24.2582,14.9605,30.4455,4.9552,6.1872,4.0998,11.605,1.2483,13.0307-2.8515,1.4258-4.7753,7.2079.2852,11.8559,5.0604,4.648,2.8881,21.3709,2.2899,21.3827-.3295.0064-2.553,4.2258-6.7678,6.6505,5.3572-.0469,11.4274-.9042,13.2363-1.6142,3.6325-1.4257.3597-6.2732,1.2151-6.2732s2.8514-.8554,1.7109-3.9921C1099.2035,821.3473,1097.2075,802.5277,1097.4181,793.5929Z" transform="translate(-675.77196 -568.6026)"/><path class="cls-7" d="M863.21038,702.7907c-2.7089-22.2413,1.996-43.6774,13.5444-42.583,11.5484,1.0943-5.3082,13.9259-7.1451,25.4743C867.77268,697.2304,863.21038,702.7907,863.21038,702.7907Z" transform="translate(-675.77196 -568.6026)"/><path class="cls-12" d="M903.98618,623.3273c-41.63118-.8051-60.9961,33.6625-57.0166,45.5136,3.9795,11.851,23.36942-23.161,46.75142-22.7637,23.38188.3972-24.49972,46.876,7.42518,56.7135,31.9249,9.8376,77.9606-32.3519,87.7345-42.6232s19.824-13.0303,30.19682.0402c10.3729,13.0704,41.0598,5.6567,41.3993-18.2956.3396-23.9522-24.6421-23.1095-43.8024-14.4062C997.514,636.2092,903.98618,623.3273,903.98618,623.3273Z" transform="translate(-675.77196 -568.6026)"/><path class="cls-12" d="M911.41758,702.5556a33.169,33.169,0,0,1-9.7674-1.3997c-4.5654-1.4068-7.5084-3.6143-8.9979-6.7479-3.2998-6.9416.9891-17.5394,4.77172-26.8894,3.43088-8.4771,6.39318-15.7981,3.58208-20.0456-1.3249-2.002-3.7667-3.0471-7.25608-3.1064l-.42532-.0037c-13.0905,0-24.755,10.2669-33.2726,17.7632-4.1636,3.6649-8.4692,7.4542-10.4173,7.4542-.183,0-.6123,0-1.0426-1.284-1.248-3.7145.23982-11.6491,6.4551-20.2916,4.968-6.9095,19.543-22.9802,47.5085-22.9802.4277,0,.8638.0037,1.29822.0117,2.61468.3558,53.38628,7.1998,86.78417,7.1998,13.29693,0,22.04513-1.0376,26.74413-3.1724,7.7207-3.507,15.7154-5.4384,22.5112-5.4384,6.2922,0,11.2911,1.6967,14.4548,4.9062,3.014,3.0563,4.5002,7.5503,4.4175,13.3566-.2038,14.3958-12.6837,22.9983-24.6306,22.9983-5.8218,0-10.8216-2.0931-13.7179-5.7421-4.9764-6.2708-10.2895-9.4503-15.7922-9.4503-5.47763,0-11.03293,3.0404-16.98422,9.2941C976.11,671.1061,939.93688,702.5556,911.41758,702.5556Z" transform="translate(-675.77196 -568.6026)"/><path class="cls-12" d="M911.41758,700.8447a31.44516,31.44516,0,0,1-9.26358-1.3241c-4.08172-1.2573-6.684-3.1703-7.95632-5.8469-2.9765-6.2612,1.1604-16.4859,4.80932-25.5069,3.61478-8.9311,6.73408-16.6388,3.426-21.6382-1.65492-2.4999-4.56632-3.8031-8.65382-3.8724l-.4394-.0042c-13.7505,0-25.6949,10.5121-34.4163,18.1881-2.6357,2.3198-6.8527,6.0319-8.7257,6.8622-.9022-2.8044.0151-10.0447,6.2387-18.6989,4.8144-6.6952,18.9449-22.2681,46.1193-22.2681.3851,0,.7769.003,1.1678.0096,3.3057.4482,53.7071,7.2019,86.91459,7.2019,13.54673,0,22.52633-1.0876,27.45173-3.3257,7.5035-3.4079,15.2467-5.285,21.8036-5.285,5.8244,0,10.4015,1.5204,13.2359,4.3962,2.6808,2.7183,4.0015,6.7996,3.9255,12.1315-.1888,13.3399-11.8015,21.3116-22.9197,21.3116-5.2963,0-9.8083-1.8571-12.3779-5.0946-5.3173-6.7003-11.0814-10.0978-17.1322-10.0978-5.97053,0-11.93183,3.2142-18.22392,9.8254C975.01148,669.7787,939.33708,700.8447,911.41758,700.8447Z" transform="translate(-675.77196 -568.6026)"/><path class="cls-12" d="M911.41758,699.1338a29.74132,29.74132,0,0,1-8.7599-1.2481c-3.5972-1.1081-5.8594-2.7262-6.9145-4.9463-2.65318-5.5812,1.3316-15.4338,4.8477-24.1264,3.7969-9.3806,7.07412-17.478,3.2689-23.2284-1.9849-2.999-5.3673-4.5595-10.0514-4.6389l-.4527-.0046c-14.413,0-26.6372,10.759-35.5625,18.6145-1.6173,1.4235-4.1995,3.6962-6.1727,5.1941.1896-3.2614,1.8019-8.6254,6.2053-14.7476,4.6606-6.4813,18.3484-21.5559,44.73-21.5559.3425,0,.6908.0025,1.03922.008,3.31978.4481,53.926,7.2035,87.04317,7.2035,13.79653,0,23.00753-1.1378,28.15933-3.479,7.2862-3.3094,14.778-5.1318,21.096-5.1318,5.3557,0,9.5118,1.3438,12.0171,3.8863,2.3483,2.3804,3.5028,6.0498,3.4334,10.9064-.1737,12.2844-10.9201,19.6249-21.2088,19.6249-4.7717,0-8.7949-1.6211-11.038-4.4472-5.658-7.13-11.8733-10.7452-18.4721-10.7452-6.46423,0-12.83073,3.388-19.46372,10.3568C973.91288,668.4513,938.73638,699.1338,911.41758,699.1338Z" transform="translate(-675.77196 -568.6026)"/><path class="cls-12" d="M911.41758,697.4229a28.04115,28.04115,0,0,1-8.2562-1.172c-3.1143-.9595-5.0348-2.2827-5.8727-4.0458-2.3308-4.9029,1.6716-14.7989,4.8886-22.7505,3.9765-9.8259,7.4116-18.3121,3.1094-24.814-2.3149-3.4973-6.1669-5.316-11.449-5.4053l-.4645-.0051c-15.0763,0-27.5803,11.0054-36.7103,19.041-.6524.5739-1.4887,1.3103-2.3817,2.0793a34.83575,34.83575,0,0,1,4.93382-9.3492c4.50608-6.2675,17.75118-20.8442,43.34078-20.8442.3007,0,.6056.0021.9114.0063,3.3349.4481,54.1607,7.2052,87.171,7.2052,14.04633,0,23.48863-1.1879,28.86693-3.6323,7.0682-3.2104,14.3093-4.9785,20.3884-4.9785,4.8879,0,8.6221,1.1675,10.7983,3.3762,2.0149,2.0421,3.004,5.2993,2.9414,9.6813-.1588,11.2285-10.0381,17.9383-19.498,17.9383-4.2463,0-7.7816-1.385-9.698-3.7997-5.9989-7.5595-12.6645-11.3926-19.8121-11.3926-6.9571,0-13.72963,3.5616-20.70252,10.888C972.81438,667.1243,938.13488,697.4229,911.41758,697.4229Z" transform="translate(-675.77196 -568.6026)"/><path class="cls-12" d="M911.41758,695.7121a26.34135,26.34135,0,0,1-7.7524-1.0961c-2.5939-.799-4.2196-1.8574-4.8311-3.1452-2.00908-4.2258,2.0016-14.1373,4.9288-21.3747,4.1586-10.2756,7.74912-19.1475,2.9506-26.3995-2.6448-3.996-6.9671-6.0724-12.8466-6.1718l-.4753-.0054c-13.5534,0-24.91458,8.3426-33.7697,15.9057q.4686-.711.9824-1.4247c4.3515-6.0536,17.1513-20.1324,41.9515-20.1324q.3897,0,.7861.0046c3.3557.4494,54.4146,7.2069,87.29629,7.2069,14.296,0,23.96983-1.2385,29.57443-3.7856,6.8511-3.1114,13.8399-4.8252,19.6809-4.8252,4.4201,0,7.7324.9912,9.5794,2.8662,1.6817,1.7042,2.5054,4.5487,2.4494,8.4558-.1437,10.1734-9.1567,16.2521-17.7871,16.2521-3.7216,0-6.7683-1.1491-8.358-3.1524-6.3398-7.9892-13.4565-12.04-21.1521-12.04-7.45083,0-14.62843,3.7354-21.94142,11.4193C971.71588,665.7968,937.53348,695.7121,911.41758,695.7121Z" transform="translate(-675.77196 -568.6026)"/><path class="cls-7" d="M837.72478,696.4919c2.411,10.0565-7.71278,15.2809-16.848,10.1483s25.77522-36.8339,25.4287-46.4325c-.7741,20.7694-6.1221,17.3476-8.5807,24.1911C835.26608,691.2423,837.12478,693.9893,837.72478,696.4919Z" transform="translate(-675.77196 -568.6026)"/><path class="cls-2" d="M734.34448,595.5896c2.197-.5423,14.4231-9.3855,17.92252-12.3981,5.72158,2.7063,7.64448,11.525,2.27218,15.2076-5.3724,3.6827-14.624,2.5915-16.43718,3.5923C733.92348,600.3175,734.34448,595.5896,734.34448,595.5896Z" transform="translate(-675.77196 -568.6026)"/><path class="cls-5" d="M745.26468,601.1702a18.89815,18.89815,0,0,1,2.209-3.2688c1.4082-1.4169-.0356,2.3008-.0356,2.3008s3.0938-2.834,3.8896-4.5272c1.3094-.5858,1.8696,1.5978,1.8696,1.5978s.7004-2.6346,1.1288-4.0617c.9495.0296.29392,2.1335.29392,2.1335s3.08568-3.3759-1.24762-7.4233c-1.5,4.6644-10.9199,10.8118-13.2896,13.6572l-.0337.0054C741.40768,601.4491,743.254,601.3769,745.26468,601.1702Z" transform="translate(-675.77196 -568.6026)"/><path class="cls-7" d="M752.267,583.1915c-1.97632,1.7014-6.73552,5.2619-10.90012,8.1371,6.6674-2.934,9.3726-8.2403,12.0923-4.2726,2.9442,4.295-3.4279,12.2045-5.6601,13.772a17.03566,17.03566,0,0,0,6.7401-2.4289C759.91148,594.7165,757.98858,585.8978,752.267,583.1915Z" transform="translate(-675.77196 -568.6026)"/><path class="cls-3" d="M739.18738,568.6026s3.1747,21.4798-8.7707,25.8312c-2.0268,1.5428.5426,7.1917,4.6757,5.2227C742.36208,593.1251,748.35008,585.994,739.18738,568.6026Z" transform="translate(-675.77196 -568.6026)"/><path class="cls-13" d="M693.69128,654.8862c.8554-3.2078-1.06928-4.0633-3.4218-4.7049-2.3524-.6415-3.4217,0-4.491-5.7742-.6842-3.6946.1118-4.3228-.6207-4.5216-4.08278,3.5648-10.4505,6.8651-9.2339,11.7475,1.3879,5.5694,6.5619,6.9572,6.9819,9.2702a8.57249,8.57249,0,0,0,2.6893,3.8969C686.04878,660.8206,692.97908,657.5567,693.69128,654.8862Z" transform="translate(-675.77196 -568.6026)"/><path class="cls-13" d="M690.23968,661.5159c.3978-2.1386-3.1781-5.1326-3.1781-8.1267,0-2.994,5.1327-3.8494,2.3525-6.8435a15.30865,15.30865,0,0,0-6.6727-4.7135c-3.7473,2.8822-7.811,5.814-6.8175,9.8008,1.3879,5.5694,6.5619,6.9572,6.9819,9.2702.2808,1.5472,2.51322,4.2247,4.8371,5.4182A17.93661,17.93661,0,0,0,690.23968,661.5159Z" transform="translate(-675.77196 -568.6026)"/><g class="cls-9"><path class="cls-10" d="M689.29408,649.953c-.8777,7.1061-7.504,8.0127-8.8283,8.1236a13.76521,13.76521,0,0,1,1.9281,1.8045C685.89748,658.898,688.82988,656.8731,689.29408,649.953Z" transform="translate(-675.77196 -568.6026)"/><path class="cls-10" d="M697.32688,660.2077c7.1494-.3232,7.48512-1.2581,8.5543-3.6106-1.9247,1.9248-8.982,2.994-13.6869,2.1386-4.705-.8554-9.2885,2.1675-9.2885,2.1675v.0001a5.09765,5.09765,0,0,0,.8273,1.7665C685.78788,660.6873,691.74748,660.4599,697.32688,660.2077Z" transform="translate(-675.77196 -568.6026)"/><path class="cls-10" d="M685.588,643.1791c6.43918.2689,2.32908-.6967,2.54288-3.2936a20.40846,20.40846,0,0,1,1.5379-4.7168c-1.3493,1.4383-2.3856,2.5515-2.9506,3.1916-1.703,1.9293-4.4169,3.7144-6.7169,5.6219A15.49276,15.49276,0,0,1,685.588,643.1791Z" transform="translate(-675.77196 -568.6026)"/><path class="cls-10" d="M705.72608,617.759c9.0665-9.9004,21.718-18.0261,25.3805-25.16-.1467-.0049-.298-.0075-.45758-.0075-9.81982,0-13.36,6.7849-14.92152,12.0277-.632,2.1224-4.9003,7.3689-10.0019,13.14Z" transform="translate(-675.77196 -568.6026)"/></g><path class="cls-5" d="M680.00128,645.5834c-2.2425,2.8871-3.2049,5.973-1.494,8.4934,1.7108,2.5203,2.8261,1.4968,4.514-1.734S680.00128,645.5834,680.00128,645.5834Z" transform="translate(-675.77196 -568.6026)"/><path class="cls-5" d="M681.71508,644.9061c-.8567,1.4172-3.27908,4.9901-2.994,6.701.2852,1.7108,3.3251,4.7506,4.3002.7357A10.26861,10.26861,0,0,0,681.71508,644.9061Z" transform="translate(-675.77196 -568.6026)"/><path class="cls-7" d="M726.14618,618.0915c1.2831,5.2702,9.6553,6.3515,4.9604,8.9554s-11.9661.8179-14.7462-1.7108C713.58018,622.8073,726.14618,618.0915,726.14618,618.0915Z" transform="translate(-675.77196 -568.6026)"/><path class="cls-7" d="M740.04908,632.6449c-9.3602,12.8315-13.9402,16.3206-16.8897,17.8909-2.9496,1.5703,7.9735,2.1519,11.1732-.9191C737.53238,646.5457,740.04908,632.6449,740.04908,632.6449Z" transform="translate(-675.77196 -568.6026)"/><path class="cls-14" d="M716.29168,626.0062c1.90432-5.0757,7.97432-12.9199,12.735-4.6142-1.5472,2.3071-7.0221,2.9223-8.4503,2.3071C719.14808,623.0839,716.29168,626.0062,716.29168,626.0062Z" transform="translate(-675.77196 -568.6026)"/><path class="cls-15" d="M718.34338,623.231c1.7625-2.6025,2.2063-4.6172,3.8713-3.8032,1.665.8141,4.5042-.1274,4.8247.6562a2.55487,2.55487,0,0,1-2.1169,3.3091C722.72728,623.6699,719.61948,622.7702,718.34338,623.231Z" transform="translate(-675.77196 -568.6026)"/><path class="cls-16" d="M721.02918,623.2165a18.09359,18.09359,0,0,0,3.8933.1767,2.55477,2.55477,0,0,0,1.09552-.4021,3.80427,3.80427,0,0,0,1.02128-2.9071c-.3205-.7836-2.5471-1.2396-4.5586-1.3068a2.71987,2.71987,0,0,0-2.217,1.3494A5.40947,5.40947,0,0,0,721.02918,623.2165Z" transform="translate(-675.77196 -568.6026)"/><path class="cls-17" d="M727.055,621.2975a1.105,1.105,0,0,1-.85992,1.2378c-.5019.0349-.9308-.4626-.9578-1.1113a1.1051,1.1051,0,0,1,.8599-1.2378C726.59918,620.1513,727.028,620.6488,727.055,621.2975Z" transform="translate(-675.77196 -568.6026)"/></g></g></svg>