<svg xmlns="http://www.w3.org/2000/svg" xmlns:xlink="http://www.w3.org/1999/xlink" viewBox="0 0 569.0411 485.0295"><defs><style>.cls-1,.cls-10,.cls-15,.cls-23{fill:none;}.cls-2{isolation:isolate;}.cls-3{fill:#7d90fa;}.cls-4{clip-path:url(#clip-path);}.cls-5{fill:#fff;}.cls-6{fill:#a15329;}.cls-7{fill:#352a2b;}.cls-8{fill:#3c655f;}.cls-9{fill:#50867f;}.cls-10{stroke:#7d90fa;stroke-width:2px;stroke-dasharray:3.195;}.cls-10,.cls-15,.cls-23{stroke-miterlimit:10;}.cls-11{fill:#de5724;}.cls-12,.cls-13{fill:#dfb38c;}.cls-13,.cls-16{mix-blend-mode:multiply;}.cls-13,.cls-16,.cls-17{opacity:0.5;}.cls-14{fill:#eec272;}.cls-15{stroke:#352a2b;stroke-linecap:round;stroke-width:0.97299px;}.cls-16,.cls-21{fill:#d17e5d;}.cls-18{fill:#2d4c47;}.cls-19{clip-path:url(#clip-path-2);}.cls-20{fill:#edd296;}.cls-22{clip-path:url(#clip-path-3);}.cls-23{stroke:#edd296;stroke-width:1.42466px;}</style><clipPath id="clip-path" transform="translate(33.4729 -14.9705)"><circle class="cls-1" cx="250" cy="250" r="223.879"/></clipPath><clipPath id="clip-path-2" transform="translate(33.4729 -14.9705)"><path class="cls-1" d="M265.2505,321.6707c2.5692-29.2971,28.9213-62.1703,61.2401-56.914,34.2321,5.5675,42.5351,46.4779,43.8615,75.0037.4244,9.1288,14.6734,9.1808,14.2466,0-.9755-20.9779-3.8976-43.0764-15.717-61.0025-9.7399-14.7723-24.7974-26.3426-42.7434-28.3396-40.4915-4.5059-71.8762,34.0988-75.1344,71.2524-.8008,9.1313,13.4505,9.0776,14.2466,0Z"/></clipPath><clipPath id="clip-path-3" transform="translate(33.4729 -14.9705)"><path class="cls-1" d="M224.6286,316.2218S197.0417,420.238,305.128,434.2575c108.0864,14.0197,104.0161-93.6145,104.0161-93.6145l-95.8757-.9045Z"/></clipPath></defs><g class="cls-2"><g id="OBJECTS"><circle class="cls-3" cx="283.4729" cy="235.0295" r="223.879"/><g class="cls-4"><path class="cls-5" d="M478.9382,131.4498a30.78222,30.78222,0,0,0-21.368,14.5386,21.86485,21.86485,0,0,0-37.4682-5.1002c-5.6188-13.4117-13.7813-26.0197-25.1617-35.0712s-26.2137-14.2636-40.6231-12.311c-15.4427,2.0925-28.8738,12.0335-38.9028,23.9614a29.43575,29.43575,0,0,0-49.0482-.3171,46.69453,46.69453,0,0,0-76.8268-7.0267c-3.6988-8.2529-13.0076-13.1242-22.0514-13.114-9.0439.0103-17.6831,4.27-24.5418,10.1649a25.61294,25.61294,0,0,0-45.5261-5.6878c-8.665-10.3883-25.4922-12.7099-36.6464-5.0561-16.2429,11.1457-27.1566,31.9148-32.8064,50.7864-5.6499,18.8716-5.2497,40.0435,3.8655,57.5069,6.0651,11.62,15.6539,21.1091,26.3308,28.7127,15.2646,10.8708,32.7808,18.1305,50.4272,24.4383a582.14672,582.14672,0,0,0,258.0183,30.4082c26.3378-2.8737,52.9486-7.7102,76.4735-19.8968,23.5249-12.1865,43.8257-32.6678,50.6157-58.2769" transform="translate(33.4729 -14.9705)"/><polygon class="cls-6" points="512.825 146.573 469.319 190.079 397.873 118.633 358.359 158.148 297.69 97.479 270.948 124.221 243.008 96.281 219.06 120.23 173.159 74.329 112.091 135.397 92.134 115.44 37.053 170.521 37.053 263.919 531.984 263.919 532.782 170.521 512.825 146.573"/><polygon class="cls-7" points="383.646 225.757 394.408 162.603 405.17 225.757 383.646 225.757"/><polygon class="cls-7" points="405.079 225.757 415.841 175.387 426.603 225.757 405.079 225.757"/><polygon class="cls-7" points="358.631 221.913 369.393 171.543 380.155 221.913 358.631 221.913"/><polygon class="cls-7" points="471.261 224.471 481.99 174.255 492.719 224.471 471.261 224.471"/><polygon class="cls-7" points="488.328 242.012 499.057 191.797 509.786 242.012 488.328 242.012"/><polygon class="cls-7" points="452.297 241.064 463.025 190.849 473.755 241.064 452.297 241.064"/><polygon class="cls-7" points="123.082 172.368 134.058 120.998 145.034 172.368 123.082 172.368"/><polygon class="cls-7" points="146.764 185.647 157.74 134.277 168.715 185.647 146.764 185.647"/><polygon class="cls-7" points="95.905 180.011 106.881 128.641 117.856 180.011 95.905 180.011"/><path class="cls-8" d="M489.0714,229.2329c-1.853-6.8355-10.5777-9.8809-17.3568-7.831s-11.8189,7.6863-15.9511,13.4381c-1.5005-4.6391-7.0436-7.1086-11.8491-6.2835s-8.8117,4.2464-11.6679,8.198a16.44962,16.44962,0,0,0-30.6587,1.2957,14.70923,14.70923,0,0,0-18.577.3995c34.681,13.1363,70.3248,29.8557,105.0058,42.992" transform="translate(33.4729 -14.9705)"/><path class="cls-8" d="M28.6744,188.1689a13.56213,13.56213,0,0,1,13.4827.3997c5.5624-7.197,12.9236-13.6773,21.8915-15.1987,8.9678-1.5214,19.4388,3.5832,21.284,12.49,6.8483-9.9338,24.6425-8.5465,29.8684,2.3287,7.7187-7.5891,22.6984-4.9843,27.4023,4.7648,3.6013-6.6251,15.7294-4.744,17.1545,2.6607,3.8689-5.8621,13.2612-5.782,18.5795-1.1941s7.1664,12.097,7.166,19.1207c-2.7446.1825-9.3832-1.6347-12.1339-1.6347H10.7952" transform="translate(33.4729 -14.9705)"/><path class="cls-9" d="M-33.4729,282.9962V254.2509c76.6965.0395,153.2627,3.2613,228.9745,12.3806,113.4443,13.6642,225.4532,41.1498,322.3138,87.9966l-6.8649,26.9675c-96.0134-45.773-206.6302-72.7335-318.642-86.2251C117.6475,286.3778,42.1554,283.1228-33.4729,282.9962Z" transform="translate(33.4729 -14.9705)"/><path class="cls-9" d="M-33.4729,225.5163V205.1929c194.382-16.8009,394.9963,11.2954,569.0411,79.6951l-10.8881,42.7727c-97.6937-47.9349-211.1086-75.9315-325.9854-89.7681C121.9323,228.6467,44.2914,225.4673-33.4729,225.5163Z" transform="translate(33.4729 -14.9705)"/><path class="cls-8" d="M-33.4729,254.2509V225.5163c77.7643-.049,155.4052,3.1304,232.1676,12.3763,114.8768,13.8366,228.2917,41.8332,325.9854,89.7681l-6.8647,26.9674c-96.8606-46.8468-208.8695-74.3324-322.3138-87.9966C119.7898,257.5122,43.2236,254.2904-33.4729,254.2509Z" transform="translate(33.4729 -14.9705)"/><path class="cls-9" d="M-33.4729,340.4932V311.7447c74.56.2124,148.9781,3.4986,222.5882,12.3648,110.5835,13.3195,219.8086,39.765,314.9635,84.4811l-6.8806,27.0296c-94.2857-43.6769-202.1159-69.6237-311.276-82.7718C113.363,344.1088,40.0186,340.7897-33.4729,340.4932Z" transform="translate(33.4729 -14.9705)"/><path class="cls-8" d="M-33.4729,311.7447V282.9962c75.6283.1266,151.1204,3.3816,225.7814,12.3743,112.0118,13.4916,222.6286,40.4521,318.642,86.2251l-6.8717,26.995c-95.1549-44.7161-204.38-71.1616-314.9635-84.4811C115.5052,315.2433,41.0871,311.9571-33.4729,311.7447Z" transform="translate(33.4729 -14.9705)"/><path class="cls-8" d="M185.9222,352.8484c109.1601,13.1481,216.9903,39.0949,311.276,82.7718l-6.8806,27.0295c-93.4031-42.6514-199.8517-68.0857-307.5884-81.0623-71.5085-8.613-143.7793-11.9665-216.2021-12.3456V340.4932C40.0186,340.7897,113.363,344.1088,185.9222,352.8484Z" transform="translate(33.4729 -14.9705)"/><path class="cls-9" d="M490.3176,462.6497l-.9223,3.6232H-33.4729V369.2418c72.4228.3791,144.6936,3.7326,216.2021,12.3456C290.4659,394.564,396.9145,419.9983,490.3176,462.6497Z" transform="translate(33.4729 -14.9705)"/><path class="cls-7" d="M104.6205,278.8966c-.2012-1.7817-.3747-3.5654-.5512-5.3489q-.27315-2.67465-.504-5.3523l.5614.096c-1.3416,3.2133-2.6411,6.4449-4.0275,9.6388l-.7508,1.7296-.0894-1.886-.504-10.6303.9678.1468-3.474,9.5752-.6741,1.8579-.1851-1.9651a54.037,54.037,0,0,0-2.1317-10.9476l.5529.0125a51.67708,51.67708,0,0,0-1.6947,5.033,50.00376,50.00376,0,0,0-1.128,5.209,39.83891,39.83891,0,0,1,.7973-5.2904,38.90143,38.90143,0,0,1,1.4769-5.1593l.2811-.7734.2718.7858a47.76294,47.76294,0,0,1,2.4572,11.0468l-.859-.1072,3.37-9.6123.8728-2.4893.0951,2.6361.3837,10.6353-.8401-.1564c1.3875-3.1934,2.8617-6.3491,4.294-9.5231l.4926-1.0921.0688,1.1881c.1035,1.7887.1866,3.5788.2587,5.3697C104.4867,275.3141,104.5675,277.1043,104.6205,278.8966Z" transform="translate(33.4729 -14.9705)"/><path class="cls-7" d="M127.4368,309.4355l-.3631-4.0335-.332-4.0351.4906.132a35.18276,35.18276,0,0,0-4.0058,9.1492l-.6884,2.4166-.1659-2.5109a25.9432,25.9432,0,0,0-2.6145-9.7116l.9093-.0345-3.0526,7.5407-.5155,1.2733-.3282-1.3261c-.375-1.5156-.7777-3.0241-1.1295-4.5457l-1.0851-4.5572.5802.0404a34.8992,34.8992,0,0,0-1.6456,4.7014,34.14607,34.14607,0,0,0-.9265,4.9213,28.45137,28.45137,0,0,1,.5735-5.0042,28.03784,28.03784,0,0,1,1.432-4.8532l.3324-.8445.2478.885,1.263,4.5112c.431,1.5011.811,3.0155,1.2187,4.5226l-.8435-.0526,2.9543-7.5796.4133-1.0603.4961,1.0258a26.57054,26.57054,0,0,1,2.5909,10.0954l-.8543-.0944a32.90062,32.90062,0,0,1,4.3963-9.2005l.471-.6968.0197.8289.0962,4.0476Z" transform="translate(33.4729 -14.9705)"/><path class="cls-7" d="M179.6422,229.1659c-.1574-1.7795-.3247-3.5548-.558-5.3215-.2416-1.7653-.4809-3.5285-.7956-5.2795l.6362.0476a72.285,72.285,0,0,1-3.0717,8.6231l-.9321,2.1695.0652-2.3644a20.695,20.695,0,0,0-.9612-6.8211l.9502.0143a28.89208,28.89208,0,0,1-3.5771,6.9806l-.5722.8187-.2307-.9638c-.3811-1.5916-.7344-3.1915-.9811-4.8095q-.38085-2.4246-.592-4.8682l.5676.0983a21.67729,21.67729,0,0,0-1.6097,4.2799,21.30311,21.30311,0,0,0-.6377,4.5649,18.71517,18.71517,0,0,1,.2948-4.6404,18.503,18.503,0,0,1,1.4131-4.4649l.4349-.9403.1328,1.0387q.3081,2.41035.7832,4.7919c.3235,1.5848.6519,3.168,1.0624,4.7317l-.8027-.145a27.97009,27.97009,0,0,0,3.3688-6.7972l.4974-1.4812.453,1.4954a21.65086,21.65086,0,0,1,.91,7.1483l-.8669-.1949q1.8072-4.1583,3.2766-8.4604l.4542-1.3328.1821,1.3805c.2342,1.7755.4413,3.5549.5432,5.342C179.5895,225.592,179.6627,227.3791,179.6422,229.1659Z" transform="translate(33.4729 -14.9705)"/><path class="cls-7" d="M486.6526,292.4612l.155-5.0943c.0581-1.6978.1116-3.3957.196-5.0918l.5567.0884a24.8056,24.8056,0,0,1-1.5349,4.4565,23.25948,23.25948,0,0,1-2.3667,4.0917l-.8599,1.17.0869-1.4518a42.35206,42.35206,0,0,0-.5351-9.6949l.926.1023a94.19645,94.19645,0,0,1-4.0369,8.7746l-1.0229,1.9826.1513-2.2216a55.2525,55.2525,0,0,0,.0582-6.5215,56.87549,56.87549,0,0,0-.6416-6.4995l.5815.109a23.56935,23.56935,0,0,0-3.5439,11.2799,22.05712,22.05712,0,0,1,3.0031-11.6073l.4221-.7196.1597.8285a54.52884,54.52884,0,0,1,.866,6.5616,56.12636,56.12636,0,0,1,.0163,6.6264l-.8715-.2391c1.446-2.8479,2.7312-5.7719,3.9614-8.7172l.6574-1.574.2686,1.6764a43.253,43.253,0,0,1,.4356,9.9095l-.773-.2818a25.91872,25.91872,0,0,0,2.4026-3.8952,24.15245,24.15245,0,0,0,1.6413-4.2872l.5567.0885c-.1267,1.6934-.2844,3.3849-.4375,5.0767Z" transform="translate(33.4729 -14.9705)"/></g><circle class="cls-10" cx="283.4729" cy="235.0295" r="234.0295"/><path class="cls-11" d="M335.7722,421.7392c.7115-12.8063,20.6324-149.7791,20.6324-149.7791L267.472,235.6756H231.8188l-88.9326,36.2845s19.921,136.9728,20.6324,149.7791C164.2301,434.5455,149.2893,500,149.2893,500H350.0015S335.0607,434.5455,335.7722,421.7392Z" transform="translate(33.4729 -14.9705)"/><polygon class="cls-7" points="217.101 132.398 220.924 155.262 232.913 151.691 223.474 116.233 217.101 132.398"/><polygon class="cls-7" points="348.327 132.724 344.898 150.16 332.398 148.119 340.306 113.937 348.327 132.724"/><path class="cls-12" d="M307.5037,149.4316c0,31.9542-25.904,83.2119-57.8583,83.2119s-57.8583-51.2577-57.8583-83.2119a57.8583,57.8583,0,1,1,115.7166,0Z" transform="translate(33.4729 -14.9705)"/><path class="cls-12" d="M324.0408,165.06a22.2627,22.2627,0,0,1-5.3803,12.0462,16.81612,16.81612,0,0,1-6.8386,5.0274,8.75677,8.75677,0,0,1-7.6669-.6068,11.26009,11.26009,0,0,1-4.2743-6.18c-1.8748-5.873-.6624-12.966,2.5796-18.4667,2.2518-3.821,5.629-7.0628,9.4989-7.8669C319.7611,147.3933,324.8315,157.1488,324.0408,165.06Z" transform="translate(33.4729 -14.9705)"/><path class="cls-13" d="M302.642,176.0199a10.26229,10.26229,0,0,0,5.1929-2.3448,1.45974,1.45974,0,0,0,.3834-2.3972,16.88467,16.88467,0,0,0-4.3139-3.8506,33.81044,33.81044,0,0,1,3.2897-7.4828,10.43678,10.43678,0,0,1,6.1439-4.7505,5.98749,5.98749,0,0,1,6.6321,2.9336s4.0707,6.9324-3.3356,15.3856C308.8235,182.4286,302.642,176.0199,302.642,176.0199Z" transform="translate(33.4729 -14.9705)"/><path class="cls-7" d="M319.9702,158.1276a5.819,5.819,0,0,0-4.8771-2.4799,7.3903,7.3903,0,0,0-4.8548,2.1312,15.04737,15.04737,0,0,0-3.2359,4.5324,56.8078,56.8078,0,0,0-2.1891,5.4308l-.4025-1.1325a17.48484,17.48484,0,0,1,2.9171,2.418,18.35633,18.35633,0,0,1,1.2153,1.4416,7.292,7.292,0,0,1,.5776.8462,1.8219,1.8219,0,0,1,.1804,1.3709,3.19559,3.19559,0,0,1-1.422,1.6521,9.98806,9.98806,0,0,1-1.6506.9068,9.09323,9.09323,0,0,1-3.5867.7747,11.463,11.463,0,0,0,3.2127-1.4677,12.11469,12.11469,0,0,0,1.3541-1.0658,2.099,2.099,0,0,0,.7938-1.0963.53172.53172,0,0,0-.1255-.3552,6.99349,6.99349,0,0,0-.5056-.588,16.78224,16.78224,0,0,0-1.2306-1.1961,16.01328,16.01328,0,0,0-2.7427-2.0056l-.6554-.3777.2528-.7552a39.922,39.922,0,0,1,2.2122-5.6959,18.65661,18.65661,0,0,1,1.6487-2.6914,13.2169,13.2169,0,0,1,2.2349-2.2995,8.11553,8.11553,0,0,1,6.0839-1.935A5.763,5.763,0,0,1,319.9702,158.1276Z" transform="translate(33.4729 -14.9705)"/><path class="cls-12" d="M175.25,165.06a22.2621,22.2621,0,0,0,5.3804,12.0462,16.81481,16.81481,0,0,0,6.8386,5.0274,8.75683,8.75683,0,0,0,7.6669-.6068,11.26045,11.26045,0,0,0,4.2742-6.18c1.8749-5.873.6624-12.966-2.5796-18.4667-2.2518-3.821-5.629-7.0628-9.4989-7.8669C179.5297,147.3933,174.4593,157.1488,175.25,165.06Z" transform="translate(33.4729 -14.9705)"/><path class="cls-13" d="M196.6488,176.0199a10.26229,10.26229,0,0,1-5.1929-2.3448,1.45974,1.45974,0,0,1-.3834-2.3972,16.88467,16.88467,0,0,1,4.3139-3.8506,33.81044,33.81044,0,0,0-3.2897-7.4828,10.43648,10.43648,0,0,0-6.1439-4.7505,5.98749,5.98749,0,0,0-6.6321,2.9336s-4.0707,6.9324,3.3357,15.3856C190.4673,182.4286,196.6488,176.0199,196.6488,176.0199Z" transform="translate(33.4729 -14.9705)"/><path class="cls-7" d="M179.3207,158.1276a5.76273,5.76273,0,0,1,4.795-3.6371,8.11543,8.11543,0,0,1,6.0838,1.935,13.21329,13.21329,0,0,1,2.2349,2.2995,18.66619,18.66619,0,0,1,1.6488,2.6914,39.93262,39.93262,0,0,1,2.212,5.6959l.253.7552-.6556.3777a16.01253,16.01253,0,0,0-2.7426,2.0056,16.78088,16.78088,0,0,0-1.2305,1.1961,6.97853,6.97853,0,0,0-.5057.588.53225.53225,0,0,0-.1255.3552,2.099,2.099,0,0,0,.7938,1.0963,12.11469,12.11469,0,0,0,1.3541,1.0658,11.463,11.463,0,0,0,3.2127,1.4677,9.09285,9.09285,0,0,1-3.5867-.7747,9.99614,9.99614,0,0,1-1.6506-.9068,3.19589,3.19589,0,0,1-1.4219-1.6521,1.82142,1.82142,0,0,1,.1803-1.3709,7.26652,7.26652,0,0,1,.5777-.8462,18.37546,18.37546,0,0,1,1.2151-1.4416,17.497,17.497,0,0,1,2.9171-2.418l-.4024,1.1325a56.834,56.834,0,0,0-2.1891-5.4308,15.05055,15.05055,0,0,0-3.2358-4.5324,7.39034,7.39034,0,0,0-4.8549-2.1312A5.81865,5.81865,0,0,0,179.3207,158.1276Z" transform="translate(33.4729 -14.9705)"/><path class="cls-7" d="M300.3107,202.7319c-2.2904-19.2792,4.4106-43.2501,10.9502-61.5304a25.76847,25.76847,0,0,1-7.7745-5.9113c-1.6386,18.4743-9.6306,39.5621-20.8409,54.3375-10.0186-5.3051-22.2372-10.3322-33.5669-10.7222-11.3298.39-23.5485,5.4171-33.567,10.7222-11.2104-14.7754-19.2023-35.8632-20.8409-54.3375a25.76847,25.76847,0,0,1-7.7745,5.9113c6.5396,18.2803,13.2407,42.2512,10.95,61.5304-.9171,7.7199-3.2516,15.2021-4.5047,22.8746-1.2532,7.6726-1.3468,15.8585,2.0131,22.8692,1.0631,2.2182,2.7527,4.4741,5.1899,4.8063,3.6055.4915,6.171-3.2976,7.7963-6.5532-1.0207,7.8464-1.1278,15.9591,1.1865,23.5256.5586,1.826,1.4016,3.7757,3.1255,4.5969,2.0553.9792,4.6167-.1202,6.0256-1.9084,1.4088-1.7883,1.9394-4.0939,2.4315-6.3167,1.4689,7.5666,4.0555,15.0449,8.6393,21.2415,4.5839,6.1967,11.7122,12.6769,19.3294,13.8548,7.6172-1.1779,14.7454-7.6581,19.3292-13.8548,4.5839-6.1966,7.1704-13.6749,8.6394-21.2415.4922,2.2228,1.0226,4.5284,2.4315,6.3167,1.4088,1.7882,3.9704,2.8876,6.0256,1.9084,1.7238-.8212,2.567-2.7709,3.1255-4.5969,2.3144-7.5665,2.2072-15.6792,1.1865-23.5256,1.6252,3.2556,4.1908,7.0447,7.7961,6.5532,2.4375-.3322,4.1269-2.5881,5.1901-4.8063,3.3598-7.0107,3.2661-15.1966,2.0131-22.8692C303.5625,217.934,301.228,210.4518,300.3107,202.7319Z" transform="translate(33.4729 -14.9705)"/><path class="cls-14" d="M183.6283,147.3685s28.0036-33.5586,67.0783-33.5586c39.0748,0,64.1478,33.8842,64.1478,33.8842S337.6481,34.3578,251.6835,34.3578C165.719,34.3578,183.6283,147.3685,183.6283,147.3685Z" transform="translate(33.4729 -14.9705)"/><path class="cls-12" d="M271.1205,195.4865c0,4.0856-9.5364,10.9689-21.3001,10.9689s-21.3001-6.8833-21.3001-10.9689,9.5364-12.7546,21.3001-12.7546S271.1205,191.4009,271.1205,195.4865Z" transform="translate(33.4729 -14.9705)"/><path class="cls-7" d="M238.2939,187.5787a35.62979,35.62979,0,0,0,5.5157,4.0175,14.177,14.177,0,0,0,6.076,2.0089,10.3769,10.3769,0,0,0,6.0355-1.5799,21.42819,21.42819,0,0,0,5.0759-4.4465,13.37168,13.37168,0,0,1-4.2211,5.6886,11.06189,11.06189,0,0,1-3.2585,1.7745,10.40866,10.40866,0,0,1-3.7461.5032,12.81873,12.81873,0,0,1-6.7982-2.6766A17.02465,17.02465,0,0,1,238.2939,187.5787Z" transform="translate(33.4729 -14.9705)"/><path class="cls-7" d="M251.9975,139.1816a55.79171,55.79171,0,0,1,6.3998,12.3162,88.17246,88.17246,0,0,1,4.0519,13.3237,39.10286,39.10286,0,0,1,.9279,7.0179,8.83165,8.83165,0,0,1-.1772,1.924,2.69548,2.69548,0,0,1-.5215,1.1351,5.00813,5.00813,0,0,1-.7446.7268,9.24905,9.24905,0,0,1-3.4126,1.567,26.48238,26.48238,0,0,1-7.0242.7007,44.18112,44.18112,0,0,1-6.9167-.6994c2.3117-.005,4.6112-.0365,6.8856-.2419a29.96389,29.96389,0,0,0,6.6268-1.2001,8.5654,8.5654,0,0,0,2.7625-1.4316,3.30065,3.30065,0,0,0,.4708-.4956,1.048,1.048,0,0,0,.1527-.4366,7.2563,7.2563,0,0,0,.0676-1.5145,40.73552,40.73552,0,0,0-.9986-6.647c-.943-4.451-2.2017-8.858-3.5825-13.2183A101.3685,101.3685,0,0,0,251.9975,139.1816Z" transform="translate(33.4729 -14.9705)"/><path class="cls-7" d="M235.8875,145.9483a6.1982,6.1982,0,1,1-6.1982-6.1981A6.19816,6.19816,0,0,1,235.8875,145.9483Z" transform="translate(33.4729 -14.9705)"/><path class="cls-7" d="M213.4289,141.8835a24.9822,24.9822,0,0,1,2.9452-7.5392,25.75066,25.75066,0,0,1,2.4252-3.3725,23.81155,23.81155,0,0,1,3.054-2.9197,27.38476,27.38476,0,0,1,3.5647-2.4534,12.04721,12.04721,0,0,1,12.4687.5775l-.0982.4211a65.0267,65.0267,0,0,0-7.3193,1.8733c-1.1116.3712-2.2101.7096-3.3407,1.0524a14.89018,14.89018,0,0,0-3.3102,1.3761,20.62987,20.62987,0,0,0-2.9958,2.1161,23.22086,23.22086,0,0,0-2.7016,2.603,27.11861,27.11861,0,0,0-4.2823,6.4036Z" transform="translate(33.4729 -14.9705)"/><path class="cls-7" d="M263.4033,145.9483a6.1982,6.1982,0,1,0,6.1982-6.1981A6.19823,6.19823,0,0,0,263.4033,145.9483Z" transform="translate(33.4729 -14.9705)"/><path class="cls-7" d="M285.4522,142.0218a27.12165,27.12165,0,0,0-4.2823-6.4036,23.22086,23.22086,0,0,0-2.7016-2.603,20.619,20.619,0,0,0-2.9958-2.1161,14.88943,14.88943,0,0,0-3.3101-1.3761c-1.1307-.3428-2.2292-.6812-3.3408-1.0524a65.01556,65.01556,0,0,0-7.3193-1.8733l-.0982-.4211a12.04688,12.04688,0,0,1,12.4686-.5775,27.3712,27.3712,0,0,1,3.5647,2.4534,23.80586,23.80586,0,0,1,3.0541,2.9197,25.75143,25.75143,0,0,1,2.4253,3.3725,24.98457,24.98457,0,0,1,2.9451,7.5392Z" transform="translate(33.4729 -14.9705)"/><path class="cls-15" d="M182.8232,134.0896c29.2557-33.8183,78.2863-66.2657,131.3334-49.4144" transform="translate(33.4729 -14.9705)"/><path class="cls-15" d="M182.568,115.5842c10.6244-19.8002,27.1157-34.524,46.2668-46.2781,10.2796-6.3091,21.2214-11.6797,32.8502-14.8805a79.52984,79.52984,0,0,1,36.3767-1.4944" transform="translate(33.4729 -14.9705)"/><path class="cls-15" d="M229.2141,116.6632c27.0684-9.9317,58.1452-13.8753,86.928-12.1757" transform="translate(33.4729 -14.9705)"/><path class="cls-15" d="M277.1649,106.1099c15.908,4.9292,28.7031,15.2818,39.3602,28.0798" transform="translate(33.4729 -14.9705)"/><path class="cls-15" d="M202.7487,54.715a75.83144,75.83144,0,0,1,27.7569,13.2438" transform="translate(33.4729 -14.9705)"/><path class="cls-15" d="M239.7631,35.4984c9.8123,4.3285,19.032,9.7415,26.4831,17.455" transform="translate(33.4729 -14.9705)"/><circle class="cls-16" cx="253.7663" cy="150.0173" r="7.8785"/><circle class="cls-16" cx="312.4703" cy="150.0173" r="7.8785"/><g class="cls-17"><path class="cls-5" d="M210.1441,206.3192a48.947,48.947,0,0,0-1.6792,9.5456,46.62756,46.62756,0,0,0-.1324,4.8326,28.75576,28.75576,0,0,0,.4538,4.7744,9.12139,9.12139,0,0,0,1.8488,4.2063,4.14907,4.14907,0,0,0,1.754,1.2755,1.37917,1.37917,0,0,0,1.6769-.4868,17.54375,17.54375,0,0,0,1.1534-2.0563l1.1194-2.1492,2.2731-4.28.0111-.021a.46678.46678,0,0,1,.8677.3212,30.12172,30.12172,0,0,0,.7214,15.1826,30.82789,30.82789,0,0,0,7.9716,13.0907,28.89929,28.89929,0,0,1-8.6275-12.8792,29.55776,29.55776,0,0,1-.9792-15.5919l.8786.3001-2.2677,4.3297-1.1508,2.1559a17.16874,17.16874,0,0,1-1.2559,2.165,2.3452,2.3452,0,0,1-1.2146.8424,2.56069,2.56069,0,0,1-1.4544-.0787,4.99707,4.99707,0,0,1-2.1322-1.5563,9.74265,9.74265,0,0,1-1.9837-4.6207,29.44657,29.44657,0,0,1-.3201-4.9167,47.3272,47.3272,0,0,1,.2825-4.8878A43.70333,43.70333,0,0,1,210.1441,206.3192Z" transform="translate(33.4729 -14.9705)"/><path class="cls-5" d="M232.195,222.3133a19.55616,19.55616,0,0,0,.6853,7.3127,17.78219,17.78219,0,0,0,1.3565,3.3913,9.06508,9.06508,0,0,0,2.1173,2.8378,3.029,3.029,0,0,0,2.9828.8408,5.10761,5.10761,0,0,0,2.2282-2.478,19.05689,19.05689,0,0,0,2.336-6.8264.44182.44182,0,0,1,.4933-.3837.44683.44683,0,0,1,.3811.3661,65.62,65.62,0,0,0,1.8115,8.5897,18.95751,18.95751,0,0,0,4.2217,7.6018,17.2032,17.2032,0,0,1-4.8014-7.4055,48.67386,48.67386,0,0,1-2.1035-8.6397l.8742-.0175a18.682,18.682,0,0,1-2.389,7.1903,12.67487,12.67487,0,0,1-1.08,1.6052,3.792,3.792,0,0,1-1.6668,1.24,3.14822,3.14822,0,0,1-2.1121-.0062,5.25162,5.25162,0,0,1-1.7269-1.0418,8.95926,8.95926,0,0,1-2.2061-3.1564,18.41622,18.41622,0,0,1-1.2456-3.5689A17.64429,17.64429,0,0,1,232.195,222.3133Z" transform="translate(33.4729 -14.9705)"/><path class="cls-5" d="M287.2084,203.0637a52.74263,52.74263,0,0,1,1.3512,9.0333,53.9088,53.9088,0,0,1-.203,9.1714,10.30524,10.30524,0,0,1-1.5111,4.4679,5.56659,5.56659,0,0,1-4.129,2.4304,6.51,6.51,0,0,1-4.6126-1.311,8.69491,8.69491,0,0,1-2.8271-3.8272l.8628-.2537a18.49119,18.49119,0,0,1-1.8207,12.0241,18.94714,18.94714,0,0,1-3.616,4.9363,17.02428,17.02428,0,0,1-5.0052,3.4313,18.13,18.13,0,0,0,4.7259-3.7017,20.13827,20.13827,0,0,0,3.3206-4.9488,18.68873,18.68873,0,0,0,1.5105-11.5625.45126.45126,0,0,1,.861-.2588l.0018.005a7.76958,7.76958,0,0,0,2.5564,3.3884,5.79177,5.79177,0,0,0,3.9528,1.1459,4.64271,4.64271,0,0,0,3.4934-2.0031,9.49093,9.49093,0,0,0,1.4137-4.0807,56.87965,56.87965,0,0,0,.4936-9.0311A65.59566,65.59566,0,0,0,287.2084,203.0637Z" transform="translate(33.4729 -14.9705)"/><path class="cls-5" d="M241.4039,264.4814a25.87482,25.87482,0,0,0,3.2918,8.2544,26.46074,26.46074,0,0,0,2.6403,3.5623,10.48857,10.48857,0,0,0,1.5595,1.5139,2.83161,2.83161,0,0,0,1.8614.6451c1.3352-.0653,2.297-1.3457,2.8867-2.6089a27.13051,27.13051,0,0,0,1.3771-4.1761,43.059,43.059,0,0,0,1.3331-8.7603.46905.46905,0,0,1,.491-.4461.47485.47485,0,0,1,.4337.3587c.5451,2.1822,1.1478,4.4203,2.6566,5.9209a4.7857,4.7857,0,0,0,2.7647,1.3091,2.98688,2.98688,0,0,0,2.6766-1.0163,10.42157,10.42157,0,0,0,1.449-2.9168q.5958-1.5825,1.0388-3.2186a36.29913,36.29913,0,0,0,1.2068-6.6588l.0015-.0168a.321.321,0,0,1,.6403.0076,2.91023,2.91023,0,0,0,2.3755,2.417,4.59727,4.59727,0,0,0,3.6389-.534,7.64507,7.64507,0,0,0,2.4792-2.9657,25.69482,25.69482,0,0,0,1.4432-3.7013,22.741,22.741,0,0,1-1.2496,3.7951,7.94339,7.94339,0,0,1-2.4479,3.1925,4.91147,4.91147,0,0,1-3.9931.7339,4.24942,4.24942,0,0,1-1.887-.951,3.02549,3.02549,0,0,1-1.0002-1.9225l.6418-.0092a36.30031,36.30031,0,0,1-1.0534,6.8253q-.43515,1.6755-1.0338,3.3036a11.07519,11.07519,0,0,1-1.5731,3.1897,3.76183,3.76183,0,0,1-1.5564,1.1199,4.22355,4.22355,0,0,1-1.8859.2377,5.70568,5.70568,0,0,1-3.3288-1.5355c-1.8062-1.7627-2.3839-4.1945-2.9154-6.3821l.9245-.0874a43.95777,43.95777,0,0,1-1.4402,8.9309,27.08038,27.08038,0,0,1-1.4749,4.3148,7.159,7.159,0,0,1-1.3627,1.9307,3.34552,3.34552,0,0,1-2.2286,1.0144,3.49589,3.49589,0,0,1-2.272-.8332,11.03679,11.03679,0,0,1-1.6118-1.645,24.049,24.049,0,0,1-2.5785-3.7175A24.78061,24.78061,0,0,1,241.4039,264.4814Z" transform="translate(33.4729 -14.9705)"/></g><path class="cls-11" d="M140.0737,409.8502c6.8699-21.9831,10.2922-43.8975,22.2327-63.5921l-19.4201-74.298c-26.4186,9.663-41.2321,50.6468-48.6388,83.7301-7.4067,33.0832-21.542,71.7146-12.3444,79.9925" transform="translate(33.4729 -14.9705)"/><path class="cls-11" d="M360.9114,409.8502c-6.8699-21.9831-10.2922-43.8975-22.2327-63.5921l17.7259-74.298c26.4186,9.663,42.9263,50.6468,50.3331,83.7301,7.4066,33.0832,21.542,71.7146,12.3444,79.9925" transform="translate(33.4729 -14.9705)"/><path class="cls-7" d="M359.2408,299.7452l-4.1787,20.2885q-2.1204,10.13445-4.1022,20.2945c-2.6348,13.5451-5.2755,27.0927-7.3011,40.7234-1.0003,6.8075-2.0136,13.6343-2.4034,20.4713-.3822,6.8697-.4217,13.763-.4692,20.6543-.0149,6.8931.1326,13.7898.3855,20.6841.193,6.8981.5618,13.79.969,20.6847-.8468-6.8564-1.4054-13.7445-1.9218-20.636q-.66975-10.344-.9295-20.7165c-.1891-6.9148-.0952-13.8359.1971-20.7582l.3568-5.2033c.1559-1.7284.3633-3.4481.5425-5.1727.1677-1.727.4054-3.4412.6401-5.156.2388-1.714.4477-3.4338.7112-5.1434,1.0994-6.8311,2.2788-13.6452,3.6033-20.4281,1.3016-6.7879,2.6558-13.5635,4.1606-20.3069,1.5082-6.742,3.0291-13.4799,4.6354-20.1975C355.796,313.1219,357.4273,306.4109,359.2408,299.7452Z" transform="translate(33.4729 -14.9705)"/><path class="cls-7" d="M142.4277,291.6279c1.8926,7.6722,3.7339,15.3501,5.4189,23.0652,1.7144,7.7085,3.2901,15.4481,4.7765,23.2062,1.4511,7.7646,2.8125,15.5483,3.9667,23.3653q1.77165,11.7183,2.85,23.531l-8.7277-46.5346-4.3483-23.2688C144.9306,307.2308,143.5827,299.4464,142.4277,291.6279Z" transform="translate(33.4729 -14.9705)"/><path class="cls-14" d="M57.8204,363.4002c-6.6096-.0655-13.1125,1.5597-19.6979,2.1275,6.5124,5.4001,13.7252,11.0744,22.1835,11.2579a37.92307,37.92307,0,0,0,9.7609-1.5038c2.5766-.6306,5.2099-1.1714,7.7409-1.9424C72.0872,367.2873,66.5811,363.4865,57.8204,363.4002Z" transform="translate(33.4729 -14.9705)"/><path class="cls-6" d="M78.743,373.212q-1.62915-.49485-3.2338-1.0213l-3.2724-.8539-3.2946-.7404-3.3215-.6061c-4.443-.7281-8.919-1.2679-13.4092-1.8083-4.4846-.5711-8.992-1.1438-13.4382-2.1041l-3.3196-.7799-3.2841-.9172-3.2158-1.1295c-1.0513-.4315-2.094-.879-3.1289-1.3346q1.6314.4869,3.2385,1.0065l3.276.8407,3.297.7301,3.3234.5972c4.4447.7193,8.9217,1.2539,13.4122,1.796,4.4848.5729,8.9922,1.15,13.4365,2.1213l3.3179.7877,3.2814.9278,3.2118,1.1407C76.6691,372.3004,77.7099,372.7525,78.743,373.212Z" transform="translate(33.4729 -14.9705)"/><path class="cls-14" d="M217.9204,436.8725c-6.4213,1.5679-12.322,4.7476-18.5637,6.9231,7.6438,3.6259,16.0341,7.3445,24.2758,5.4351a37.921,37.921,0,0,0,9.0877-3.8662c2.3416-1.2471,4.7598-2.421,7.0222-3.7927C232.7052,437.1185,226.4313,434.7941,217.9204,436.8725Z" transform="translate(33.4729 -14.9705)"/><path class="cls-6" d="M240.6171,441.2176q-1.7007-.0774-3.3857-.1917l-3.382-.0199-3.3753.0957-3.3683.2323c-4.4853.3907-8.9561.9724-13.4407,1.5567-4.4868.5535-8.996,1.1109-13.5417,1.2776l-3.4095.0635-3.4088-.0783-3.395-.301c-1.1252-.1586-2.2462-.3349-3.3615-.521q1.70115.0693,3.3868.176l3.382.0061,3.3753-.106,3.3679-.2415c4.4846-.3999,8.9551-.9868,13.4404-1.5696,4.4876-.5517,8.998-1.1048,13.5446-1.2603l3.4095-.0555,3.4089.0893,3.3939.3128C238.3825,440.846,239.5026,441.0273,240.6171,441.2176Z" transform="translate(33.4729 -14.9705)"/><path class="cls-14" d="M225.3127,424.0926c-1.8422-6.348-2.0278-13.0486-3.2543-19.5437,6.9544,4.8181,14.361,10.2372,16.8151,18.3337a37.93006,37.93006,0,0,1,1.1796,9.8051c.0863,2.6516.2744,5.3329.2133,7.9783C232.8976,436.7859,227.7546,432.5064,225.3127,424.0926Z" transform="translate(33.4729 -14.9705)"/><path class="cls-6" d="M240.3957,441.6007c-.7207-.8712-1.4364-1.752-2.1386-2.6454l-1.9633-2.786-1.7769-2.9104-1.6518-2.9833c-2.1321-4.0187-3.9015-8.2043-5.6607-12.3693-1.7311-4.1787-3.4513-8.3464-5.3407-12.4333l-1.47-3.0399-1.5908-2.9787-1.6916-2.9285q-.9345-1.4082-1.8412-2.8481,1.0761,1.31115,2.1277,2.6541l1.9536,2.7928,1.7676,2.9159,1.6447,2.9871c2.122,4.0235,3.8871,8.2102,5.6444,12.3755,1.7294,4.1788,3.4544,8.3442,5.3519,12.4271l1.478,3.0358,1.6,2.9735,1.7033,2.9217Q239.4821,440.165,240.3957,441.6007Z" transform="translate(33.4729 -14.9705)"/><path class="cls-14" d="M199.007,423.8899c-6.4213,1.5681-12.3221,4.7478-18.5638,6.9233,7.6438,3.6259,16.0341,7.3445,24.276,5.4352a37.93088,37.93088,0,0,0,9.0878-3.8662c2.3413-1.2472,4.7595-2.4211,7.022-3.793C213.7917,424.1361,207.518,421.8118,199.007,423.8899Z" transform="translate(33.4729 -14.9705)"/><path class="cls-6" d="M221.7038,428.2351q-1.7007-.0777-3.3857-.1918l-3.382-.0199-3.3754.0957-3.3683.2323c-4.4853.3909-8.956.9724-13.4406,1.5569-4.4868.5535-8.9961,1.1107-13.5419,1.2775l-3.4093.0634-3.4088-.0782-3.395-.301c-1.1253-.1587-2.2462-.335-3.3615-.5211q1.70115.06915,3.3867.176l3.3821.0062,3.3751-.1061,3.368-.2414c4.4847-.3999,8.9552-.9867,13.4405-1.5696,4.4874-.5516,8.9979-1.1047,13.5444-1.2604l3.4097-.0554,3.4087.0892,3.394.3128C219.4691,427.8634,220.5893,428.0447,221.7038,428.2351Z" transform="translate(33.4729 -14.9705)"/><path class="cls-14" d="M206.3993,411.1102c-1.8422-6.3482-2.0277-13.0484-3.2539-19.5435,6.9539,4.8179,14.3607,10.2368,16.8145,18.3333a37.91956,37.91956,0,0,1,1.1799,9.8054c.0862,2.6515.2742,5.3327.2132,7.978C213.9842,423.8035,208.8414,419.5241,206.3993,411.1102Z" transform="translate(33.4729 -14.9705)"/><path class="cls-6" d="M221.4822,428.6181c-.7207-.8711-1.4364-1.7518-2.1385-2.6452l-1.9634-2.786-1.7768-2.9104-1.652-2.9833c-2.132-4.0187-3.9014-8.2042-5.6605-12.3693-1.7311-4.1787-3.4513-8.3464-5.3407-12.4333l-1.4699-3.0399-1.5907-2.9787-1.6916-2.9287q-.9345-1.408-1.8412-2.8479,1.0761,1.31085,2.1277,2.6541l1.9536,2.7928,1.7674,2.9159,1.6448,2.9871c2.1218,4.0235,3.887,8.2102,5.6443,12.3755,1.7294,4.1789,3.4542,8.3443,5.3518,12.4272l1.478,3.0356,1.5999,2.9736,1.7035,2.9217Q220.5687,427.1826,221.4822,428.6181Z" transform="translate(33.4729 -14.9705)"/><path class="cls-14" d="M180.4259,413.1222c-6.3065,1.9802-11.9889,5.5353-18.0768,8.11,7.8624,3.1236,16.4757,6.2915,24.5766,3.8526a37.91667,37.91667,0,0,0,8.8186-4.4462c2.2558-1.3958,4.5928-2.7239,6.7617-4.2392C195.1956,412.4108,188.7845,410.4975,180.4259,413.1222Z" transform="translate(33.4729 -14.9705)"/><path class="cls-6" d="M203.3563,415.9895q-1.70235.03255-3.3911.0277l-3.3763.199-3.362.3138-3.3462.4498c-4.4506.6803-8.8744,1.55-13.3118,2.4235-4.4416.8425-8.9053,1.6905-13.4308,2.151l-3.398.2841-3.4068.1424-3.4073-.0807c-1.1332-.0855-2.2632-.1889-3.3882-.3025q1.7019-.041,3.391-.0434l3.3755-.2127,3.3612-.3243,3.3452-.4589c4.4494-.6892,8.8725-1.5642,13.3108-2.436,4.4424-.841,8.9076-1.6848,13.4345-2.1342l3.3988-.276,3.4075-.1316,3.407.0926C201.1021,415.7632,202.2318,415.8716,203.3563,415.9895Z" transform="translate(33.4729 -14.9705)"/><path class="cls-14" d="M186.9758,399.8905c-2.2492-6.2153-2.8682-12.8897-4.5122-19.292,7.2515,4.358,14.9933,9.2866,17.966,17.2072a37.9175,37.9175,0,0,1,1.8118,9.7082c.2577,2.6404.6187,5.3041.7292,7.9476C195.366,412.0667,189.957,408.1288,186.9758,399.8905Z" transform="translate(33.4729 -14.9705)"/><path class="cls-6" d="M203.16,416.386c-.7755-.8228-1.5467-1.6552-2.3052-2.5014l-2.1395-2.6532-1.9616-2.7892-1.8415-2.8701c-2.3876-3.8723-4.4242-7.9347-6.4492-11.977-1.9978-4.058-3.9842-8.1057-6.1341-12.0618l-1.6636-2.9384-1.7801-2.8695-1.8777-2.8131q-1.0236-1.34445-2.0216-2.7227,1.15875,1.2384,2.295,2.5108l2.1302,2.6605,1.9525,2.7954,1.8346,2.8744c2.3779,3.8778,4.4103,7.9414,6.4335,11.9843,1.996,4.0582,3.987,8.1033,6.1447,12.0548l1.6714,2.9337,1.7891,2.8638,1.8889,2.8053Q202.15555,415.01255,203.16,416.386Z" transform="translate(33.4729 -14.9705)"/><path class="cls-14" d="M159.4808,404.142c-6.1714,2.3675-11.6229,6.2678-17.5394,9.2151,8.0409,2.6303,16.834,5.2581,24.7682,2.3218a37.92273,37.92273,0,0,0,8.526-4.9843c2.165-1.533,4.4152-3.0035,6.4862-4.6503C174.1781,402.5169,167.6606,401.0044,159.4808,404.142Z" transform="translate(33.4729 -14.9705)"/><path class="cls-6" d="M182.5447,405.5825q-1.697.1383-3.3829.2379l-3.3573.4078-3.3362.5218-3.3119.6563c-4.3997.9549-8.7611,2.097-13.1359,3.2438-4.3808,1.1164-8.7834,2.2393-13.2715,2.9794l-3.3739.4941-3.3915.3533-3.4058.1307c-1.1362-.015-2.2705-.0482-3.4004-.0918q1.69635-.1464,3.3819-.2536l3.3557-.4215,3.3346-.532,3.3104-.6654c4.3982-.9636,8.7585-2.1111,13.1342-3.2564,4.3817-1.1146,8.786-2.2336,13.2763-2.9627l3.3753-.4861,3.3927-.3425,3.4062-.1188C180.2809,405.4964,181.4151,405.5346,182.5447,405.5825Z" transform="translate(33.4729 -14.9705)"/><path class="cls-14" d="M165.198,390.53c-2.6302-6.064-3.6615-12.6873-5.6994-18.9753,7.5076,3.9002,15.5402,8.3391,18.9981,16.0604a37.91889,37.91889,0,0,1,2.4101,9.5774c.421,2.6193.9464,5.2554,1.2203,7.8871C174.3268,402.1627,168.684,398.5675,165.198,390.53Z" transform="translate(33.4729 -14.9705)"/><path class="cls-6" d="M182.3734,405.9905q-1.23765-1.15965-2.4559-2.3537l-2.2999-2.5155-2.1306-2.6623-2.0159-2.7505c-2.6229-3.7168-4.9073-7.6452-7.179-11.5542-2.2455-3.9263-4.4789-7.8432-6.8699-11.6582l-1.8425-2.8296-1.9548-2.7537-2.0483-2.6913q-1.10505-1.27845-2.1865-2.5921,1.23315,1.1643,2.4461,2.3636l2.2912,2.5235,2.1219,2.6689,2.0093,2.7551c2.6137,3.7229,4.8941,7.6527,7.1639,11.5624,2.2439,3.9268,4.4816,7.8406,6.8802,11.6508l1.85,2.8244,1.963,2.7475,2.0592,2.6828Q181.2855,404.6819,182.3734,405.9905Z" transform="translate(33.4729 -14.9705)"/><path class="cls-14" d="M138.4239,396.6243c-6.0198,2.7304-11.2295,6.9479-16.9604,10.2417,8.1831,2.1474,17.117,4.2477,24.8625.8449a37.92788,37.92788,0,0,0,8.2146-5.4825c2.07-1.6592,4.2288-3.2606,6.1982-5.0277C152.9986,394.1279,146.4026,393.0057,138.4239,396.6243Z" transform="translate(33.4729 -14.9705)"/><path class="cls-6" d="M161.5328,396.6907q-1.68585.23865-3.3628.4385l-3.3272.6069-3.2992.7192-3.2669.852c-4.3354,1.2149-8.621,2.6144-12.9198,4.0193-4.3068,1.3749-8.6347,2.7576-13.0709,3.7633l-3.3387.6939-3.3643.5544-3.392.333c-1.1351.0525-2.2694.087-3.3999.1106q1.6845-.2469,3.3607-.4543l3.3248-.6202,3.2971-.7295,3.2649-.861c4.3332-1.2236,8.6176-2.6283,12.9174-4.0317,4.3076-1.3732,8.6376-2.7521,13.0767-3.747l3.3403-.686,3.3663-.5437,3.3932-.3212C159.2679,396.7394,160.4022,396.7099,161.5328,396.6907Z" transform="translate(33.4729 -14.9705)"/><path class="cls-14" d="M143.3215,382.6964c-2.986-5.8971-4.4095-12.4471-6.8174-18.6028,7.7261,3.4468,16.0084,7.4003,19.9194,14.902a37.92213,37.92213,0,0,1,2.9753,9.4175c.5759,2.5896,1.2572,5.1897,1.6871,7.8004C153.126,393.7654,147.2793,390.5125,143.3215,382.6964Z" transform="translate(33.4729 -14.9705)"/><path class="cls-6" d="M161.3861,397.1083q-1.30455-1.084-2.5916-2.2035l-2.4453-2.3743-2.2852-2.5309-2.1759-2.6257c-2.8393-3.5543-5.3532-7.3399-7.8534-11.107-2.4751-3.7858-4.9375-7.5629-7.5511-11.2292l-2.0075-2.715-2.115-2.6324-2.2048-2.5647q-1.179-1.21065-2.3368-2.4578,1.3002,1.08915,2.5824,2.2141l2.4372,2.3827,2.2769,2.5382,2.1696,2.6306c2.8304,3.5611,5.3404,7.3483,7.8387,11.1161,2.4735,3.7863,4.9401,7.5602,7.5608,11.2211l2.0147,2.7094,2.123,2.6258,2.2151,2.5557Q160.22245,395.8666,161.3861,397.1083Z" transform="translate(33.4729 -14.9705)"/><path class="cls-14" d="M117.2761,389.8287c-6.0197,2.7301-11.2295,6.9479-16.9606,10.2416,8.1832,2.1476,17.1171,4.248,24.8627.8449a37.919,37.919,0,0,0,8.2146-5.4824c2.07-1.6592,4.2286-3.2607,6.1982-5.0277C131.8506,387.3322,125.2548,386.2101,117.2761,389.8287Z" transform="translate(33.4729 -14.9705)"/><path class="cls-6" d="M140.3848,389.8952q-1.68555.2388-3.3628.4386l-3.327.6069-3.2993.7191-3.267.8521c-4.3353,1.2148-8.6209,2.6143-12.9199,4.0192-4.3066,1.3748-8.6346,2.7576-13.0708,3.7632l-3.3386.6938-3.3644.5545-3.392.333c-1.1352.0525-2.2694.0868-3.3999.1105q1.68465-.24705,3.3607-.4543l3.3249-.6203,3.2971-.7294,3.2649-.861c4.3331-1.2235,8.6175-2.6281,12.9173-4.0316,4.3077-1.3731,8.6376-2.752,13.0767-3.7469l3.3405-.6861,3.3662-.5435,3.3932-.3212C138.1199,389.9438,139.2543,389.9145,140.3848,389.8952Z" transform="translate(33.4729 -14.9705)"/><path class="cls-14" d="M122.1737,375.9008c-2.9861-5.8969-4.4097-12.4472-6.8177-18.6027,7.7264,3.4467,16.0087,7.4001,19.9196,14.9022a37.91824,37.91824,0,0,1,2.9752,9.417c.5759,2.5896,1.2571,5.1899,1.6873,7.8006C131.978,386.9701,126.1315,383.7169,122.1737,375.9008Z" transform="translate(33.4729 -14.9705)"/><path class="cls-6" d="M140.238,390.3126q-1.3044-1.084-2.5915-2.2036l-2.4453-2.3742-2.2851-2.531-2.1759-2.6257c-2.8394-3.5543-5.3533-7.3398-7.8534-11.1069-2.4751-3.7858-4.9374-7.5629-7.551-11.2292l-2.0075-2.715-2.115-2.6325-2.2047-2.5648q-1.179-1.2105-2.3368-2.4577,1.3002,1.089,2.5824,2.2142l2.4371,2.3826,2.2769,2.5383,2.1696,2.6306c2.8304,3.561,5.3403,7.3482,7.8387,11.1161,2.4734,3.7863,4.9399,7.5601,7.5607,11.221l2.0146,2.7094,2.1231,2.6258,2.2149,2.5558Q139.0745,389.0709,140.238,390.3126Z" transform="translate(33.4729 -14.9705)"/><path class="cls-14" d="M95.6116,383.121c-6.0197,2.7301-11.2296,6.9476-16.9603,10.2415,8.1831,2.1473,17.1169,4.2479,24.8625.8448a37.919,37.919,0,0,0,8.2146-5.4824c2.0698-1.659,4.2288-3.2606,6.1982-5.0277C110.1863,380.6246,103.5904,379.5022,95.6116,383.121Z" transform="translate(33.4729 -14.9705)"/><path class="cls-6" d="M118.7204,383.1874q-1.6857.23865-3.3627.4384l-3.3271.607-3.2992.7191-3.2671.852c-4.3353,1.2149-8.621,2.6143-12.9198,4.0192-4.3068,1.3749-8.6346,2.7577-13.0709,3.7633l-3.3386.6939-3.3644.5544-3.392.333c-1.1351.0525-2.2694.0868-3.3999.1105q1.6845-.24705,3.3607-.4542l3.3248-.6204,3.2972-.7294,3.2649-.8609c4.3331-1.2236,8.6175-2.6282,12.9173-4.0317,4.3076-1.3732,8.6376-2.752,13.0767-3.7469l3.3404-.686,3.3662-.5437,3.3932-.3211C116.4555,383.2359,117.5899,383.2066,118.7204,383.1874Z" transform="translate(33.4729 -14.9705)"/><path class="cls-14" d="M100.5093,369.1929c-2.9861-5.8969-4.4095-12.4471-6.8176-18.6029,7.7263,3.4469,16.0086,7.4003,19.9195,14.9024a37.91824,37.91824,0,0,1,2.9752,9.417c.5761,2.5897,1.2574,5.1898,1.6873,7.8006C110.3137,380.2622,104.4672,377.009,100.5093,369.1929Z" transform="translate(33.4729 -14.9705)"/><path class="cls-6" d="M118.5738,383.6047q-1.3044-1.0839-2.5914-2.2035l-2.4455-2.3741-2.285-2.531-2.1759-2.6258c-2.8395-3.5543-5.3534-7.3398-7.8535-11.1069-2.4751-3.7858-4.9375-7.5629-7.5512-11.2291l-2.0074-2.715-2.115-2.6326-2.2048-2.5647q-1.17915-1.21065-2.3368-2.4577,1.30035,1.08915,2.5825,2.2142l2.437,2.3827,2.277,2.5381,2.1695,2.6307c2.8305,3.5609,5.3405,7.3483,7.8388,11.116,2.4735,3.7864,4.94,7.5602,7.5609,11.2211l2.0146,2.7093,2.1231,2.6259,2.215,2.5558Q117.41025,382.36305,118.5738,383.6047Z" transform="translate(33.4729 -14.9705)"/><path class="cls-14" d="M72.447,378.5844c-5.9507,2.8781-11.0548,7.2228-16.7023,10.6571,8.2335,1.9448,17.2165,3.8243,24.8757.2307a37.925,37.925,0,0,0,8.0767-5.6831c2.0283-1.71,4.1469-3.3644,6.072-5.1796C86.9554,375.7289,80.3338,374.77,72.447,378.5844Z" transform="translate(33.4729 -14.9705)"/><path class="cls-6" d="M95.5504,378.0802q-1.67925.28035-3.3509.5215l-3.3111.6888-3.2805.8003-3.245.9326c-4.304,1.3214-8.5538,2.8263-12.8167,4.3369-4.2714,1.4807-8.5638,2.97-12.9739,4.085l-3.3204.776-3.3497.6373-3.3827.4168c-1.1336.0804-2.2665.1428-3.3961.1944q1.6779-.2886,3.3485-.5371l3.3084-.7023,3.2781-.8106,3.2427-.9414c4.3015-1.3301,8.5499-2.8401,12.8138-4.3494,4.2724-1.4791,8.5669-2.9645,12.9801-4.0686l3.3225-.7683,3.3519-.6266,3.3841-.4048C93.2874,378.1848,94.4206,378.1274,95.5504,378.0802Z" transform="translate(33.4729 -14.9705)"/><path class="cls-14" d="M76.9991,364.5398c-3.1307-5.8216-4.7155-12.3343-7.2747-18.4287,7.809,3.2547,16.1863,7.0028,20.2813,14.4058a37.92164,37.92164,0,0,1,3.2068,9.3408c.6396,2.5745,1.3851,5.1572,1.8794,7.7563C87.074,375.3634,81.1489,372.2557,76.9991,364.5398Z" transform="translate(33.4729 -14.9705)"/><path class="cls-6" d="M95.4139,378.5012q-1.33065-1.05165-2.645-2.1389l-2.5032-2.3131-2.3469-2.4738-2.2401-2.5712c-2.9263-3.4831-5.533-7.2054-8.1253-10.9096-2.5679-3.7235-5.1227-7.4386-7.826-11.0392l-2.074-2.6647-2.1793-2.5794-2.2675-2.5094q-1.20855-1.18125-2.3967-2.3993,1.32675,1.0566,2.6363,2.1496l2.4951,2.3218,2.339,2.4812,2.2338,2.5763c2.9176,3.49,5.5203,7.2141,8.111,10.9191,2.5661,3.724,5.1251,7.4358,7.8354,11.0308l2.0809,2.6589,2.1873,2.5726,2.2775,2.5002Q94.22,377.28865,95.4139,378.5012Z" transform="translate(33.4729 -14.9705)"/><path class="cls-7" d="M72.4029,373.1332l12.7805,2.101c4.2692.667,8.5054,1.5077,12.7417,2.3577,8.4579,1.7696,16.8183,3.9653,25.1884,6.1099a394.08328,394.08328,0,0,1,49.0594,16.7137,280.404,280.404,0,0,1,45.7966,24.2565c7.1558,4.8593,14.2168,9.8768,20.8759,15.4027,1.6322,1.4201,3.3118,2.7826,4.9022,4.2479l4.7683,4.3942c1.607,1.4437,3.1474,2.9587,4.6786,4.4823l4.593,4.5654c-6.4538-5.7353-12.8919-11.4792-19.766-16.6771-6.6273-5.5001-13.6525-10.4912-20.7719-15.3264a279.07816,279.07816,0,0,0-45.584-24.1426,392.78257,392.78257,0,0,0-48.8943-16.6569c-8.3491-2.1364-16.6858-4.3337-25.128-6.0901C89.294,376.6943,80.8201,375.0754,72.4029,373.1332Z" transform="translate(33.4729 -14.9705)"/><path class="cls-14" d="M85.9956,309.285c-6.5015-1.1925-13.1863-.7009-19.772-1.2653,5.4952,6.4323,11.6339,13.2543,19.9368,14.8785a37.92019,37.92019,0,0,0,9.8744.1841c2.6464-.1816,5.3333-.2652,7.9588-.5929C99.3897,315.5498,94.613,310.8651,85.9956,309.285Z" transform="translate(33.4729 -14.9705)"/><path class="cls-6" d="M104.9368,322.5235q-1.5207-.76575-3.0121-1.5583l-3.0787-1.3998-3.1199-1.2917-3.1693-1.1641c-4.2535-1.4757-8.5718-2.7714-12.9039-4.0702-4.3214-1.3279-8.6648-2.6615-12.8821-4.3666l-3.1377-1.3348-3.0794-1.4642-2.9758-1.6618q-1.4433-.90675-2.8553-1.8489,1.5246.75825,3.0193,1.5443l3.0845,1.3875,3.124,1.282,3.1726,1.1556c4.2568,1.4673,8.5769,2.7581,12.909,4.0586,4.3213,1.3298,8.6641,2.6677,12.8775,4.3832l3.1348,1.3424,3.0748,1.4741,2.97,1.6721C103.0489,321.2713,103.9973,321.8944,104.9368,322.5235Z" transform="translate(33.4729 -14.9705)"/><path class="cls-14" d="M231.2085,409.0016c-6.5946.449-12.9514,2.5751-19.4728,3.6535,6.9129,4.8772,14.5455,9.9731,22.9921,9.4982a37.92761,37.92761,0,0,0,9.6143-2.2586c2.52-.8292,5.103-1.5733,7.5663-2.5387C245.7345,411.767,239.9493,408.4061,231.2085,409.0016Z" transform="translate(33.4729 -14.9705)"/><path class="cls-6" d="M252.8309,417.1563q-1.6626-.36675-3.3034-.7668l-3.3289-.5968-3.3422-.4817-3.3587-.3459c-4.486-.3804-8.9904-.5703-13.5091-.7598-4.5155-.2203-9.0536-.4407-13.5612-1.0522l-3.3701-.5192-3.3454-.6588-3.2939-.876c-1.0816-.3484-2.1561-.7134-3.2232-1.087q1.66425.3585,3.3069.7513l3.3315.5833,3.3437.4714,3.3598.3368c4.4872.3713,8.9922.556,13.5112.7472,4.5158.2221,9.0545.4469,13.5608,1.0696l3.3691.5272,3.3436.6697,3.2907.8874C250.6923,416.4088,251.7652,416.7785,252.8309,417.1563Z" transform="translate(33.4729 -14.9705)"/><path class="cls-14" d="M240.6734,397.6707c-.7319-6.5693.2288-13.2033.1287-19.8124,6.0301,5.9343,12.4033,12.5378,13.4397,20.9343a37.93335,37.93335,0,0,1-.5111,9.8626c-.3674,2.6275-.6397,5.3015-1.1514,7.8977C245.9808,411.4722,241.6436,406.3778,240.6734,397.6707Z" transform="translate(33.4729 -14.9705)"/><path class="cls-6" d="M252.5472,417.4958c-.5614-.9813-1.1162-1.9712-1.6557-2.9714l-1.4591-3.0802-1.2541-3.1709-1.1185-3.2214c-1.415-4.3237-2.4441-8.7498-3.4667-13.154-.9926-4.4127-1.9763-8.813-3.1406-13.1623l-.9296-3.2461-1.0592-3.2064-1.167-3.1745q-.6804-1.5468-1.3281-3.1203c.5576.9836,1.1081,1.9758,1.6435,2.9782l1.4483,3.0852,1.244,3.1748,1.1109,3.2239c1.4042,4.3267,2.429,8.7531,3.4496,13.1572.991,4.4128,1.9798,8.8114,3.1526,13.1582l.9383,3.2433,1.069,3.203,1.1799,3.1696Q251.89215,415.9255,252.5472,417.4958Z" transform="translate(33.4729 -14.9705)"/><path class="cls-14" d="M214.7882,392.9817c-6.5948.4493-12.9516,2.5753-19.473,3.6538,6.9129,4.8771,14.5455,9.973,22.9923,9.4982a37.92536,37.92536,0,0,0,9.6143-2.2586c2.5198-.8293,5.1029-1.5733,7.5663-2.5389C229.314,395.7474,223.529,392.3866,214.7882,392.9817Z" transform="translate(33.4729 -14.9705)"/><path class="cls-6" d="M236.4105,401.1365q-1.6626-.3666-3.3034-.7668l-3.329-.5967-3.3421-.4818-3.3585-.3459c-4.4862-.3803-8.9906-.5702-13.5093-.7597-4.5154-.2203-9.0536-.4408-13.5611-1.0522l-3.3702-.5193-3.3455-.6589-3.2938-.8759c-1.0816-.3484-2.1561-.7135-3.2232-1.0871q1.6644.3585,3.307.7514l3.3314.5833,3.3437.4714,3.3598.3368c4.4872.3715,8.9922.556,13.5112.7472,4.5158.2223,9.0544.447,13.5608,1.0696l3.3691.5273,3.3435.6696,3.2908.8874C234.272,400.3889,235.3448,400.7586,236.4105,401.1365Z" transform="translate(33.4729 -14.9705)"/><path class="cls-14" d="M224.2529,381.651c-.7317-6.5694.2289-13.203.1291-19.8121,6.0297,5.934,12.403,12.5373,13.4391,20.9339a37.9182,37.9182,0,0,1-.5107,9.8629c-.3676,2.6273-.6399,5.3013-1.1514,7.8973C229.5604,395.4525,225.2233,390.3583,224.2529,381.651Z" transform="translate(33.4729 -14.9705)"/><path class="cls-6" d="M236.1268,401.4762c-.5616-.9815-1.1164-1.9713-1.6558-2.9715l-1.4591-3.0802-1.2541-3.1709-1.1186-3.2214c-1.4149-4.3236-2.4441-8.7498-3.4667-13.1538-.9925-4.4128-1.9761-8.8131-3.1405-13.1625l-.9294-3.2461-1.0592-3.2064-1.167-3.1744q-.68025-1.54695-1.328-3.1204c.5576.9835,1.1082,1.9758,1.6434,2.9783l1.4483,3.0852,1.244,3.1748,1.1108,3.2239c1.4042,4.3266,2.4289,8.7531,3.4496,13.1572.9909,4.4127,1.9796,8.8114,3.1525,13.1582l.9382,3.2433,1.0691,3.203,1.1798,3.1695Q235.4717,399.9058,236.1268,401.4762Z" transform="translate(33.4729 -14.9705)"/><path class="cls-14" d="M198.3172,379.201c-6.552.8749-12.7577,3.4081-19.1956,4.9062,7.2139,4.4194,15.1602,9.0108,23.5586,7.9901a37.9128,37.9128,0,0,0,9.448-2.876c2.4609-.9903,4.9902-1.9002,7.3859-3.0231C212.9917,381.0205,207.0011,378.0413,198.3172,379.201Z" transform="translate(33.4729 -14.9705)"/><path class="cls-6" d="M220.4218,385.9394q-1.6827-.2583-3.3461-.5515l-3.3605-.38-3.3664-.2645-3.3739-.1278c-4.5013-.0893-9.0086.0127-13.53.1161-4.5203.0722-9.0632.146-13.6008-.1725l-3.3968-.3001-3.3811-.441-3.3436-.661c-1.1019-.2776-2.1978-.5724-3.2869-.8762q1.6842.25005,3.3488.5358l3.3622.3665,3.3673.254,3.3744.1188c4.5018.0802,9.0094-.0271,13.5313-.1288,4.5207-.0704,9.0644-.1399,13.6016.1898l3.3962.3083,3.3798.4518,3.3413.6726C218.2394,385.3318,219.3339,385.6313,220.4218,385.9394Z" transform="translate(33.4729 -14.9705)"/><path class="cls-14" d="M207.029,367.2812c-1.1555-6.508-.6264-13.1901-1.1537-19.7791,6.4015,5.5316,13.1886,11.7091,14.766,20.0208a37.92192,37.92192,0,0,1,.1285,9.875c-.1968,2.6457-.2956,5.3318-.6379,7.9555C213.2183,380.7106,208.5606,375.9074,207.029,367.2812Z" transform="translate(33.4729 -14.9705)"/><path class="cls-6" d="M220.1608,386.2966c-.6237-.943-1.2415-1.8949-1.8446-2.858l-1.6554-2.9794-1.4566-3.0831-1.3247-3.1424c-1.6918-4.2229-3.0052-8.5732-4.3107-12.9018-1.276-4.3394-2.5424-8.6668-3.9857-12.9317l-1.1377-3.1792-1.2644-3.1311-1.37-3.0922q-.7791-1.4997-1.5272-3.028.93015,1.4184,1.8327,2.8657l1.6449,2.9851,1.4468,3.0877,1.3173,3.1451c1.6812,4.2268,2.9902,8.5777,4.2938,12.9065,1.2743,4.3394,2.5456,8.6648,3.9974,12.9267l1.1463,3.1757,1.274,3.1271,1.3824,3.0867Q219.40555,384.7718,220.1608,386.2966Z" transform="translate(33.4729 -14.9705)"/><path class="cls-14" d="M179.2119,366.7782c-6.485,1.2796-12.5221,4.1923-18.8548,6.0866,7.4741,3.964,15.6898,8.0538,24.0086,6.5146a37.91875,37.91875,0,0,0,9.2516-3.4562c2.3949-1.141,4.863-2.2059,7.1847-3.4751C193.9709,367.685,187.8071,365.0825,179.2119,366.7782Z" transform="translate(33.4729 -14.9705)"/><path class="cls-6" d="M201.6916,372.1335q-1.6956-.15345-3.3738-.3429l-3.3777-.171-3.3762-.0554-3.3754.0815c-4.4983.1901-8.9906.5712-13.4968.9545-4.5071.3524-9.0366.7075-13.5853.6709l-3.4088-.089-3.4019-.2306-3.3782-.4524c-1.117-.2087-2.229-.435-3.3348-.6708q1.69635.1452,3.3754.3273l3.3785.1574,3.3765.0448,3.3753-.0907c4.4982-.199,8.9904-.5855,13.4974-.9672,4.5075-.3505,9.0382-.7014,13.5871-.6536l3.4087.0971,3.4014.2414,3.3766.4643C199.4758,371.6623,200.5867,371.8935,201.6916,372.1335Z" transform="translate(33.4729 -14.9705)"/><path class="cls-14" d="M187.1681,354.3414c-1.5567-6.4238-1.4426-13.1259-2.3775-19.6695,6.7318,5.1242,13.8891,10.8688,15.9786,19.0669a37.91953,37.91953,0,0,1,.7403,9.8482c-.0322,2.6527.0356,5.3399-.1436,7.9797C194.1778,367.3614,189.2314,362.856,187.1681,354.3414Z" transform="translate(33.4729 -14.9705)"/><path class="cls-6" d="M201.4531,372.5062c-.6811-.9025-1.3566-1.8143-2.0181-2.7383l-1.8369-2.871-1.6449-2.9869-1.517-3.0541c-1.9502-4.11-3.5307-8.3704-5.1019-12.61-1.5426-4.2518-3.0748-8.4923-4.7797-12.6595l-1.3325-3.1025-1.4562-3.0468-1.559-3.0013q-.8706-1.4484-1.7121-2.9275,1.0164,1.35795,2.007,2.7466l1.8268,2.8773,1.6355,2.992,1.5096,3.0575c1.9399,4.1144,3.5162,8.3758,5.0856,12.6154,1.5409,4.2521,3.0778,8.4904,4.7909,12.654l1.3408,3.0987,1.4654,3.0421,1.5712,2.995Q200.60465,371.03125,201.4531,372.5062Z" transform="translate(33.4729 -14.9705)"/><path class="cls-14" d="M159.7468,355.7772c-6.3975,1.663-12.2505,4.9296-18.4594,7.1971,7.6966,3.5123,16.141,7.1065,24.3536,5.0754a37.92279,37.92279,0,0,0,9.0297-4.0002c2.3227-1.2816,4.7232-2.4911,6.9653-3.8962C174.5337,355.8047,168.226,353.5733,159.7468,355.7772Z" transform="translate(33.4729 -14.9705)"/><path class="cls-6" d="M182.5053,359.7862q-1.70175-.05235-3.3882-.1417l-3.3819.0302-3.3736.1456-3.3645.2821c-4.479.4571-8.9406,1.1047-13.4162,1.7554-4.4782.6197-8.9785,1.2436-13.5214,1.4775l-3.4079.114-3.4097-.0279-3.3991-.2508c-1.1274-.1419-2.2509-.3016-3.3689-.4713q1.7022.0441,3.389.126l3.3819-.0438,3.3732-.156,3.364-.2913c4.4783-.4662,8.9396-1.119,13.4158-1.7682,4.4789-.6179,8.9806-1.2377,13.5244-1.4604l3.4084-.1059,3.4097.0389,3.3982.2625C180.2653,359.4477,181.3881,359.6124,182.5053,359.7862Z" transform="translate(33.4729 -14.9705)"/><path class="cls-14" d="M166.9495,342.8895c-1.9359-6.3202-2.2207-13.0171-3.5427-19.4934,7.0244,4.7148,14.5105,10.0236,17.084,18.0828a37.922,37.922,0,0,1,1.3245,9.787c.1255,2.6499.3531,5.3281.3312,7.974C174.7211,355.4693,169.5154,351.2663,166.9495,342.8895Z" transform="translate(33.4729 -14.9705)"/><path class="cls-6" d="M182.2895,360.1727c-.7335-.8605-1.4622-1.7305-2.1775-2.6134l-2.0043-2.7567-1.8197-2.8838-1.6958-2.9586c-2.1911-3.9867-4.0222-8.1458-5.8429-12.2842-1.7926-4.1527-3.5743-8.2946-5.5239-12.3531l-1.5148-3.0177-1.6346-2.9549-1.7349-2.9033q-.95505-1.3941-1.883-2.8204,1.0953,1.2948,2.1667,2.6223l1.9946,2.7637,1.8105,2.8894,1.6888,2.9624c2.1813,3.9918,4.0081,8.1518,5.8268,12.2906,1.791,4.153,3.5773,8.2924,5.5349,12.3468l1.5228,3.0134,1.6437,2.9497,1.7465,2.8963Q181.3549,358.7508,182.2895,360.1727Z" transform="translate(33.4729 -14.9705)"/><path class="cls-14" d="M140.0689,345.4723c-6.3973,1.6628-12.2504,4.9296-18.4596,7.1969,7.6967,3.5127,16.1411,7.1069,24.3538,5.0756a37.9188,37.9188,0,0,0,9.0297-4.0002c2.3228-1.2816,4.7231-2.4913,6.9653-3.8962C154.8557,345.4997,148.5481,343.2684,140.0689,345.4723Z" transform="translate(33.4729 -14.9705)"/><path class="cls-6" d="M162.8273,349.4814q-1.70175-.05235-3.3883-.1417l-3.3818.0301-3.3735.1457-3.3645.2821c-4.479.457-8.9407,1.1046-13.4163,1.7554-4.4782.6196-8.9786,1.2435-13.5214,1.4774l-3.408.1139-3.4097-.028-3.3991-.2507c-1.1274-.142-2.2508-.3017-3.3687-.4713q1.7019.0441,3.3889.1259l3.3818-.0438,3.3733-.156,3.3639-.2912c4.4784-.4661,8.9397-1.1189,13.4159-1.768,4.4789-.6179,8.9806-1.2377,13.5243-1.4604l3.4084-.1059,3.4098.0388,3.3982.2626C160.5873,349.1429,161.71,349.3076,162.8273,349.4814Z" transform="translate(33.4729 -14.9705)"/><path class="cls-14" d="M147.2716,332.5846c-1.936-6.3201-2.2209-13.0172-3.5431-19.4933,7.0249,4.7146,14.511,10.0235,17.0843,18.0829a37.91972,37.91972,0,0,1,1.3245,9.7867c.1255,2.6498.3529,5.3283.3313,7.9741C155.0431,345.1646,149.8375,340.9614,147.2716,332.5846Z" transform="translate(33.4729 -14.9705)"/><path class="cls-6" d="M162.6114,349.8677c-.7335-.8605-1.462-1.7305-2.1774-2.6135l-2.0042-2.7567-1.8198-2.8838-1.6958-2.9586c-2.1911-3.9867-4.0222-8.1457-5.8427-12.2842-1.7927-4.1527-3.5744-8.2945-5.524-12.3531l-1.5146-3.0177-1.6348-2.9548-1.7347-2.9035q-.955-1.394-1.8831-2.8204,1.09545,1.2951,2.1668,2.6224l1.9946,2.7637,1.8104,2.8894,1.6888,2.9624c2.1812,3.9917,4.008,8.1519,5.8267,12.2907,1.7909,4.1529,3.5772,8.2923,5.5348,12.3468l1.5227,3.0134,1.6438,2.9496,1.7464,2.8962Q161.6768,348.44575,162.6114,349.8677Z" transform="translate(33.4729 -14.9705)"/><path class="cls-14" d="M119.8669,335.1658c-6.3973,1.6628-12.2505,4.9293-18.4592,7.1969,7.6966,3.5124,16.1409,7.1067,24.3536,5.0754a37.92354,37.92354,0,0,0,9.0296-4.0001c2.3227-1.2815,4.7233-2.4912,6.9654-3.8963C134.6538,335.1933,128.3463,332.9617,119.8669,335.1658Z" transform="translate(33.4729 -14.9705)"/><path class="cls-6" d="M142.6254,339.1748q-1.7016-.05235-3.3882-.1417l-3.3819.0301-3.3735.1455-3.3645.2821c-4.4791.4572-8.9407,1.1048-13.4163,1.7554-4.4782.6197-8.9785,1.2436-13.5214,1.4775l-3.4079.1139-3.4097-.0279-3.399-.2508c-1.1275-.1419-2.251-.3017-3.3689-.4713q1.7019.0441,3.3889.126l3.3819-.0438,3.3732-.156,3.364-.2913c4.4783-.4661,8.9396-1.1189,13.4159-1.7681,4.4788-.6179,8.9805-1.2375,13.5243-1.4603l3.4084-.1058,3.4097.0388,3.3982.2626C140.3854,338.8363,141.5082,339.001,142.6254,339.1748Z" transform="translate(33.4729 -14.9705)"/><path class="cls-14" d="M127.0698,322.2779c-1.9361-6.32-2.2207-13.0171-3.5429-19.4935,7.0246,4.7149,14.5107,10.0237,17.084,18.0831a37.9203,37.9203,0,0,1,1.3245,9.7867c.1257,2.65.3533,5.3283.3314,7.9741C134.8412,334.8579,129.6356,330.6547,127.0698,322.2779Z" transform="translate(33.4729 -14.9705)"/><path class="cls-6" d="M142.4097,339.5611c-.7335-.8604-1.462-1.7304-2.1773-2.6134l-2.0043-2.7567-1.8197-2.8838-1.6959-2.9586c-2.1912-3.9867-4.0223-8.1456-5.8429-12.2842-1.7928-4.1526-3.5744-8.2945-5.524-12.353l-1.5147-3.0178-1.6347-2.9549-1.7347-2.9033q-.95535-1.3941-1.8832-2.8204,1.0956,1.295,2.1668,2.6223l1.9946,2.7637,1.8104,2.8895,1.6889,2.9623c2.1811,3.9918,4.008,8.1518,5.8267,12.2908,1.7911,4.1528,3.5774,8.2922,5.5351,12.3466l1.5227,3.0135,1.6437,2.9495,1.7464,2.8963Q141.4751,338.13925,142.4097,339.5611Z" transform="translate(33.4729 -14.9705)"/><path class="cls-14" d="M97.8164,326.7426c-6.3546,1.8203-12.1253,5.2303-18.276,7.6504,7.7808,3.3214,16.3112,6.7063,24.4714,4.4725a37.92255,37.92255,0,0,0,8.9281-4.2214c2.2903-1.3388,4.6602-2.6073,6.8668-4.0673C112.5992,326.4049,106.2384,324.3301,97.8164,326.7426Z" transform="translate(33.4729 -14.9705)"/><path class="cls-6" d="M120.6668,330.1885q-1.7025-.01035-3.3907-.058l-3.38.1136-3.3691.2288-3.3564.3651c-4.4664.5676-8.9106,1.3251-13.3688,2.086-4.4615.7302-8.9452,1.465-13.4808,1.811l-3.4041.1981-3.4093.0563-3.4043-.1667c-1.1306-.1141-2.2575-.2461-3.3794-.388q1.70265.00195,3.391.0422l3.3798-.1273,3.3683-.2393,3.3558-.3742c4.4655-.5766,8.9092-1.3394,13.3681-2.0988,4.4621-.7284,8.9472-1.4591,13.4841-1.7939l3.4048-.19,3.4096-.0454,3.4036.1787C118.4191,329.9054,119.5456,330.0422,120.6668,330.1885Z" transform="translate(33.4729 -14.9705)"/><path class="cls-14" d="M104.6985,313.6809c-2.0913-6.2705-2.5414-12.9582-4.023-19.3998,7.1389,4.5396,14.7537,9.6623,17.5253,17.6555a37.92118,37.92118,0,0,1,1.5657,9.7511c.1909,2.6458.4847,5.3179.5281,7.9632C112.7784,326.065,107.4706,321.9917,104.6985,313.6809Z" transform="translate(33.4729 -14.9705)"/><path class="cls-6" d="M120.4605,330.5801c-.7545-.8422-1.5043-1.6939-2.2412-2.559l-2.0718-2.7063-1.8902-2.838-1.7685-2.9158c-2.2889-3.9314-4.2221-8.0439-6.1443-12.1362-1.8947-4.1071-3.778-8.2038-5.8273-12.2129l-1.5888-2.9794-1.7071-2.9136-1.806-2.8596q-.98925-1.37-1.9521-2.773,1.12695,1.2675,2.2307,2.5681l2.0624,2.7135,1.8812,2.8438,1.7614,2.9197c2.2791,3.9368,4.2082,8.0504,6.1285,12.1431,1.893,4.1074,3.781,8.2014,5.8381,12.2063l1.5967,2.975,1.7161,2.908,1.8174,2.8523Q119.49125,329.18155,120.4605,330.5801Z" transform="translate(33.4729 -14.9705)"/><path class="cls-7" d="M98.7032,321.3637l12.2344,4.2515c4.0927,1.3858,8.1234,2.9369,12.1526,4.4974,8.0317,3.1872,15.8947,6.7774,23.7761,10.3188a394.06166,394.06166,0,0,1,45.4874,24.8409,280.40868,280.40868,0,0,1,40.9854,31.7161c6.2214,6.0093,12.3227,12.1582,17.941,18.7394,1.366,1.6778,2.7883,3.307,4.1053,5.0222l3.9485,5.1434c1.3371,1.6968,2.5963,3.4524,3.845,5.215l3.7466,5.2822c-5.3804-6.7526-10.7438-13.511-16.63-19.8057-5.5915-6.5504-11.6619-12.6671-17.8517-18.6464a279.08817,279.08817,0,0,0-40.7952-31.5676,392.781,392.781,0,0,0-45.3344-24.7565c-7.8621-3.5301-15.7015-7.1177-23.7203-10.2891C114.7388,327.7552,106.6655,324.714,98.7032,321.3637Z" transform="translate(33.4729 -14.9705)"/><path class="cls-14" d="M142.7352,264.3788c-5.9634-2.8511-12.5441-4.1247-18.753-6.3916,3.6219,7.6455,7.7631,15.8353,15.3523,19.5742a37.92781,37.92781,0,0,0,9.4826,2.7599c2.6019.5167,5.2171,1.1387,7.8369,1.5089C154.0251,273.9282,150.6396,268.1574,142.7352,264.3788Z" transform="translate(33.4729 -14.9705)"/><path class="cls-6" d="M157.5555,282.1097q-1.2675-1.13655-2.4996-2.2916l-2.6056-2.1563-2.6736-2.0626-2.7547-1.9523c-3.7196-2.5367-7.5488-4.9165-11.3905-7.3029-3.8238-2.4118-7.6673-4.8347-11.292-7.5833l-2.6794-2.109-2.5895-2.2185-2.4376-2.3821q-1.1559-1.25265-2.2725-2.5312,1.2732,1.1304,2.5104,2.2801l2.6144,2.1458,2.68,2.0543,2.7601,1.9451c3.7249,2.5294,7.5572,4.9049,11.3984,7.2931,3.8232,2.4135,7.665,4.8404,11.2832,7.5981l2.6747,2.1154,2.5824,2.2269,2.4294,2.3905Q156.4443,280.8265,157.5555,282.1097Z" transform="translate(33.4729 -14.9705)"/><path class="cls-14" d="M256.8194,398.5987c-6.4826-1.291-13.1741-.9012-19.7506-1.5657,5.3969,6.5152,11.4314,13.4297,19.7083,15.1801a37.91875,37.91875,0,0,0,9.8703.3341c2.6492-.1414,5.3369-.184,7.967-.4717C270.1168,405.0665,265.4117,400.3097,256.8194,398.5987Z" transform="translate(33.4729 -14.9705)"/><path class="cls-6" d="M275.5569,412.124q-1.5087-.78885-2.9879-1.604l-3.0571-1.4465-3.0998-1.339-3.1513-1.2122c-4.2306-1.5401-8.5286-2.9014-12.8404-4.2659-4.3007-1.3935-8.6233-2.7929-12.8141-4.5618l-3.1171-1.3825-3.0569-1.5107-2.9501-1.7068q-1.4295-.9288-2.8269-1.8922,1.5129.7812,2.9955,1.5901l3.063,1.434,3.1041,1.3295,3.1548,1.2036c4.2339,1.5319,8.534,2.8882,12.8457,4.2544,4.3006,1.3954,8.6225,2.7991,12.8092,4.5785l3.114,1.39,3.0522,1.5207,2.9441,1.717C273.6883,410.8432,274.6271,411.4806,275.5569,412.124Z" transform="translate(33.4729 -14.9705)"/><path class="cls-14" d="M268.918,390.1372c1.0114-6.5321,3.6735-12.6841,5.3051-19.0894,4.2685,7.3047,8.6931,15.345,7.4977,23.7204a37.92508,37.92508,0,0,1-3.0723,9.3858c-1.0417,2.4399-2.0038,4.9497-3.1765,7.3217C270.4317,404.8463,267.5775,398.795,268.918,390.1372Z" transform="translate(33.4729 -14.9705)"/><path class="cls-6" d="M275.1944,412.3775c-.2853-1.0941-.562-2.1945-.821-3.301l-.6029-3.3546-.3813-3.3885-.2373-3.4019c-.2351-4.5432-.0709-9.0844.0938-13.6027.1958-4.5188.3971-9.0232.4106-13.5256l-.0484-3.3762-.1839-3.3718-.2963-3.3692q-.2523-1.671-.4659-3.3591c.281,1.0952.5529,2.1969.8075,3.3044l.5912,3.3566.3705,3.3896.2292,3.4023c.2239,4.5433.0554,9.0836-.1109,13.6014-.1977,4.5183-.3935,9.0225-.3981,13.5247l.0575,3.3758.1942,3.3711.3099,3.3679Q274.9729,410.69035,275.1944,412.3775Z" transform="translate(33.4729 -14.9705)"/><path class="cls-14" d="M245.1596,378.8424c-6.4827-1.2909-13.1743-.9011-19.7508-1.5656,5.397,6.5152,11.4314,13.4297,19.7085,15.1803a37.93155,37.93155,0,0,0,9.8703.3341c2.649-.1416,5.3368-.1842,7.967-.472C258.4568,385.3103,253.7519,380.5537,245.1596,378.8424Z" transform="translate(33.4729 -14.9705)"/><path class="cls-6" d="M263.8972,392.3677q-1.509-.7887-2.988-1.6041l-3.0571-1.4464-3.0998-1.339-3.1513-1.2121c-4.2306-1.5402-8.5287-2.9014-12.8406-4.2659-4.3006-1.3935-8.6233-2.7929-12.8139-4.5619l-3.1172-1.3824-3.0568-1.5109-2.95-1.7068q-1.42965-.92865-2.827-1.8921,1.5129.7812,2.9955,1.59l3.063,1.4342,3.1041,1.3295,3.1547,1.2036c4.234,1.5319,8.5339,2.8882,12.8457,4.2544,4.3005,1.3954,8.6226,2.7991,12.8093,4.5785l3.1141,1.3899,3.052,1.5206,2.9442,1.7172C262.0285,391.0869,262.9673,391.7243,263.8972,392.3677Z" transform="translate(33.4729 -14.9705)"/><path class="cls-14" d="M257.258,370.381c1.0116-6.5322,3.6735-12.6838,5.3055-19.089,4.2681,7.3043,8.6929,15.3445,7.4972,23.7198a37.9189,37.9189,0,0,1-3.072,9.3862c-1.0419,2.4397-2.004,4.9495-3.1765,7.3214C258.7717,385.0901,255.9177,379.039,257.258,370.381Z" transform="translate(33.4729 -14.9705)"/><path class="cls-6" d="M263.5344,392.6213c-.2853-1.0941-.5619-2.1946-.8211-3.301l-.6028-3.3546-.3813-3.3886-.2373-3.4018c-.235-4.5431-.0709-9.0844.0937-13.6026.196-4.5189.3971-9.0232.4108-13.5256l-.0483-3.3762-.1838-3.3719-.2962-3.3692q-.2523-1.67085-.466-3.359c.2812,1.0952.5529,2.1969.8075,3.3043l.5911,3.3567.3704,3.3896.2292,3.4021c.2239,4.5434.0554,9.0838-.1111,13.6015-.1975,4.5183-.3934,9.0224-.398,13.5248l.0574,3.3758.1944,3.3711.3099,3.3678Q263.3127,390.9343,263.5344,392.6213Z" transform="translate(33.4729 -14.9705)"/><path class="cls-14" d="M232.8655,361.234c-6.5528-.8688-13.2051-.0466-19.8107-.2842,5.8072,6.1522,12.2764,12.6617,20.6494,13.8727a37.91618,37.91618,0,0,0,9.8714-.3052c2.6342-.3124,5.3135-.5291,7.9194-.9866C246.5535,366.8276,241.5504,362.3855,232.8655,361.234Z" transform="translate(33.4729 -14.9705)"/><path class="cls-6" d="M252.4389,373.5183q-1.5567-.6894-3.0854-1.4072l-3.1443-1.2456-3.1801-1.1357-3.2231-1.0056c-4.3214-1.2632-8.6985-2.3435-13.0896-3.426-4.3819-1.1123-8.786-2.2291-13.0824-3.7231l-3.2001-1.1779-3.1481-1.3098-3.0544-1.5123q-1.4865-.8343-2.9434-1.7054,1.56015.6819,3.0921,1.393l3.1494,1.2329,3.1836,1.1257,3.2261.9971c4.324,1.2546,8.7028,2.3298,13.0939,3.4142,4.3819,1.1141,8.7857,2.2352,13.0788,3.74l3.1974,1.1855,3.1441,1.32,3.0491,1.5229C250.4913,372.3612,251.4693,372.9365,252.4389,373.5183Z" transform="translate(33.4729 -14.9705)"/><path class="cls-14" d="M244.3912,352.0072c.5865-6.5837,2.8445-12.895,4.0587-19.3926,4.7321,7.0131,9.6677,14.7505,9.0167,23.1854a37.92411,37.92411,0,0,1-2.4583,9.565c-.8818,2.5022-1.6796,5.069-2.6961,7.5119C246.8533,366.5877,243.6137,360.7337,244.3912,352.0072Z" transform="translate(33.4729 -14.9705)"/><path class="cls-6" d="M252.0934,373.7949c-.3554-1.0734-.7027-2.1537-1.0329-3.2411l-.8186-3.3085-.5999-3.3568-.4569-3.3792c-.5285-4.5185-.6587-9.0608-.7867-13.5804-.0969-4.5219-.1878-9.0299-.4655-13.5238l-.2667-3.3661-.4016-3.3529-.5138-3.3429q-.35985-1.65105-.6823-3.3219c.3514,1.0747.6939,2.1565,1.0197,3.2453l.8071,3.3114.589,3.3585.4489,3.3802c.5174,4.5193.6432,9.0611.7694,13.5801.0952,4.5216.1913,9.0291.478,13.5222l.2759,3.365.412,3.3515.5272,3.3407Q251.7632,372.1256,252.0934,373.7949Z" transform="translate(33.4729 -14.9705)"/><path class="cls-14" d="M217.6735,344.2474c-6.5939-.4607-13.1826.772-19.7903.9444,6.1774,5.7805,13.0377,11.8764,21.4696,12.5661a37.91663,37.91663,0,0,0,9.8334-.9166c2.6099-.4751,5.2707-.8575,7.8435-1.4755C231.6818,348.9822,226.4131,344.8584,217.6735,344.2474Z" transform="translate(33.4729 -14.9705)"/><path class="cls-6" d="M237.9706,355.2949q-1.59645-.5916-3.1667-1.2133l-3.2155-1.0483-3.2442-.9363-3.2793-.8039c-4.3914-.993-8.827-1.7998-13.2767-2.6082-4.4424-.8385-8.9073-1.6802-13.2881-2.905l-3.2669-.9773-3.2232-1.1122-3.1424-1.3201c-1.0235-.4936-2.0376-1.0028-3.0433-1.5195q1.59945.5838,3.1723,1.1986l3.2199,1.0353,3.2473.9263,3.2816.7951c4.3936.9842,8.8306,1.7859,13.2805,2.596,4.4424.8404,8.9071,1.6865,13.2853,2.9222l3.2648.985,3.2198,1.1226,3.1377,1.331C235.955,354.2607,236.9669,354.7743,237.9706,355.2949Z" transform="translate(33.4729 -14.9705)"/><path class="cls-14" d="M228.6051,334.324c.1773-6.6074,2.04-13.0465,2.8488-19.6068,5.1576,6.7063,10.5636,14.1226,10.4366,22.5819a37.92144,37.92144,0,0,1-1.8607,9.6991c-.7248,2.552-1.3621,5.1633-2.2253,7.6644C231.9662,348.724,228.37,343.0819,228.6051,334.324Z" transform="translate(33.4729 -14.9705)"/><path class="cls-6" d="M237.6429,355.5923c-.4213-1.0492-.8349-2.106-1.2318-3.1708L235.389,349.17l-.8068-3.3131-.6654-3.3445c-.8076-4.4769-1.219-9.0025-1.6269-13.5052-.3771-4.5073-.7471-9.001-1.3029-13.4691l-.4749-3.3429-.6087-3.3216-.72-3.3047q-.4614-1.62555-.8869-3.2731c.4173,1.0509.8262,2.1093,1.2188,3.1757l1.0109,3.2549.7961,3.3156.6575,3.3459c.7966,4.4785,1.2036,9.0038,1.6097,13.5064.3754,4.5069.7507,8.9997,1.3152,13.4664l.4839,3.3415.6189,3.3195.7333,3.3015Q237.2097,353.9468,237.6429,355.5923Z" transform="translate(33.4729 -14.9705)"/><path class="cls-14" d="M201.7625,328.5392c-6.6098-.0678-13.1133,1.5546-19.6991,2.1195,6.5103,5.4028,13.721,11.0801,22.1789,11.2672a37.9185,37.9185,0,0,0,9.7615-1.4997c2.5772-.6296,5.2104-1.1693,7.7419-1.9392C216.0277,332.4325,210.523,328.6293,201.7625,328.5392Z" transform="translate(33.4729 -14.9705)"/><path class="cls-6" d="M222.6807,338.36q-1.6287-.4956-3.2332-1.0227l-3.2721-.8553-3.2942-.7417-3.3213-.6075c-4.4426-.73-8.9185-1.2717-13.4085-1.814-4.4843-.5729-8.9913-1.1476-13.4372-2.1097l-3.3192-.7813-3.2837-.9184-3.2152-1.1309c-1.0512-.4319-2.0937-.8799-3.1283-1.3359q1.6311.48765,3.238,1.0078l3.2756.842,3.2967.7315,3.3231.5986c4.4443.7212,8.9211,1.2576,13.4114,1.8016,4.4845.5748,8.9917,1.1539,13.4355,2.127l3.3176.7892,3.2809.9289,3.2113,1.1421C220.6072,337.4475,221.6479,337.9,222.6807,338.36Z" transform="translate(33.4729 -14.9705)"/><path class="cls-14" d="M212.0847,317.9834c-.2158-6.6065,1.2605-13.1448,1.678-19.7415,5.5472,6.3876,11.3845,13.4693,11.761,21.921a37.92415,37.92415,0,0,1-1.2809,9.7929c-.5718,2.5905-1.0525,5.235-1.7656,7.7831C216.2962,332.1577,212.3707,326.7397,212.0847,317.9834Z" transform="translate(33.4729 -14.9705)"/><path class="cls-6" d="M222.3713,338.6766c-.4829-1.0223-.9586-2.0525-1.4182-3.0919l-1.2137-3.1849-1.0023-3.2593-.8631-3.2991c-1.0724-4.421-1.7522-8.9141-2.4272-13.3846-.6445-4.477-1.281-8.9407-2.1015-13.3678l-.6729-3.3089-.805-3.2794-.9153-3.256q-.5574-1.5954-1.08-3.2147c.479,1.0242.9502,2.0565,1.4056,3.0977l1.2026,3.189.9918,3.2624.8554,3.3009c1.0615,4.4233,1.7369,8.9162,2.41,13.3867.6427,4.4768,1.2844,8.9393,2.1136,13.3645l.6818,3.3069.8152,3.2768.9283,3.2521Q221.84115,337.0597,222.3713,338.6766Z" transform="translate(33.4729 -14.9705)"/><path class="cls-14" d="M185.4641,313.4471c-6.6096-.068-13.1133,1.5546-19.6993,2.1193,6.5103,5.4031,13.721,11.0805,22.1791,11.2674a37.91119,37.91119,0,0,0,9.7615-1.4997c2.5772-.6296,5.2102-1.1695,7.7419-1.9392C199.7291,317.3402,194.2246,313.5372,185.4641,313.4471Z" transform="translate(33.4729 -14.9705)"/><path class="cls-6" d="M206.3821,323.268q-1.6287-.49545-3.2332-1.0228l-3.2721-.8552-3.2942-.7417-3.3213-.6076c-4.4426-.7301-8.9185-1.2717-13.4083-1.814-4.4844-.5729-8.9915-1.1476-13.4373-2.1098l-3.3192-.7812-3.2837-.9186-3.2153-1.1309c-1.051-.4319-2.0937-.8799-3.1283-1.3359q1.63125.48765,3.238,1.0078l3.2757.842,3.2966.7316,3.3231.5985c4.4443.7213,8.9211,1.2577,13.4114,1.8018,4.4846.5748,8.9917,1.1538,13.4356,2.1271l3.3176.7891,3.2808.9291,3.2113,1.1421C204.3087,322.3556,205.3493,322.8081,206.3821,323.268Z" transform="translate(33.4729 -14.9705)"/><path class="cls-14" d="M195.7863,302.8913c-.216-6.6064,1.2604-13.145,1.6777-19.7415,5.5475,6.3876,11.3849,13.4693,11.7611,21.9212a37.92157,37.92157,0,0,1-1.2808,9.7925c-.5719,2.5905-1.0527,5.2352-1.7655,7.7833C199.9976,317.0658,196.0723,311.6476,195.7863,302.8913Z" transform="translate(33.4729 -14.9705)"/><path class="cls-6" d="M206.0728,323.5843c-.483-1.0223-.9587-2.0525-1.4182-3.0919l-1.2137-3.1849-1.0022-3.2593-.8632-3.2991c-1.0724-4.421-1.7522-8.914-2.4271-13.3846-.6444-4.4769-1.2809-8.9406-2.1015-13.3677l-.6728-3.3088-.8051-3.2796-.9151-3.256q-.5574-1.5951-1.08-3.2147c.479,1.0243.9502,2.0565,1.4055,3.0978l1.2025,3.1891.9919,3.2623.8553,3.3009c1.0615,4.4232,1.7368,8.9163,2.4099,13.3867.6427,4.4767,1.2845,8.9392,2.1137,13.3644l.6817,3.3069.8152,3.2767.9282,3.2522Q205.54255,321.9674,206.0728,323.5843Z" transform="translate(33.4729 -14.9705)"/><path class="cls-14" d="M168.6602,298.2164c-6.6096-.0679-13.1132,1.5543-19.6989,2.1194,6.5103,5.4028,13.7208,11.0803,22.1789,11.2672a37.9155,37.9155,0,0,0,9.7615-1.4997c2.5769-.6295,5.2104-1.1693,7.7418-1.9392C182.9253,302.1097,177.4208,298.3063,168.6602,298.2164Z" transform="translate(33.4729 -14.9705)"/><path class="cls-6" d="M189.5784,308.0372q-1.6287-.49545-3.2332-1.0228l-3.2721-.8552-3.2942-.7417-3.3213-.6076c-4.4426-.7301-8.9185-1.2717-13.4083-1.8141-4.4844-.5728-8.9915-1.1476-13.4373-2.1097l-3.3192-.7813-3.2837-.9185-3.2153-1.1309c-1.0511-.4319-2.0937-.8799-3.1283-1.3359q1.63125.4875,3.238,1.0078l3.2756.842,3.2967.7316,3.3231.5986c4.4443.7212,8.9211,1.2577,13.4114,1.8016,4.4846.5749,8.9917,1.154,13.4356,2.1271l3.3175.7892,3.2809.9291,3.2113,1.1421C187.5049,307.1247,188.5456,307.5772,189.5784,308.0372Z" transform="translate(33.4729 -14.9705)"/><path class="cls-14" d="M178.9825,287.6605c-.2159-6.6064,1.2606-13.1448,1.678-19.7417,5.5473,6.3878,11.3846,13.4695,11.7609,21.9214a37.92157,37.92157,0,0,1-1.2808,9.7925c-.5717,2.5906-1.0524,5.2352-1.7655,7.7833C183.1939,301.835,179.2686,296.4168,178.9825,287.6605Z" transform="translate(33.4729 -14.9705)"/><path class="cls-6" d="M189.2692,308.3537c-.483-1.0223-.9587-2.0526-1.4182-3.0919l-1.2137-3.1849-1.0022-3.2593-.8633-3.2991c-1.0724-4.421-1.7522-8.914-2.4273-13.3846-.6444-4.4769-1.2808-8.9407-2.1014-13.3678l-.6728-3.3088-.8051-3.2795-.9153-3.2559q-.5571-1.5954-1.0799-3.2148c.4791,1.0242.9502,2.0565,1.4055,3.0977l1.2026,3.1891.9918,3.2623.8554,3.3009c1.0615,4.4233,1.7369,8.9163,2.41,13.3867.6427,4.4767,1.2844,8.9394,2.1138,13.3645l.6816,3.3069.8153,3.2767.9283,3.2522Q188.7389,306.7368,189.2692,308.3537Z" transform="translate(33.4729 -14.9705)"/><path class="cls-14" d="M149.5795,284.3201c-6.6094.0953-13.071,1.8775-19.6406,2.605,6.6415,5.2405,13.99,10.7383,22.4504,10.7161a37.92418,37.92418,0,0,0,9.7213-1.7397c2.5607-.6933,5.1799-1.298,7.6915-2.1302C163.9363,287.8598,158.3394,284.1938,149.5795,284.3201Z" transform="translate(33.4729 -14.9705)"/><path class="cls-6" d="M170.7338,293.6214q-1.64055-.4551-3.2575-.9426l-3.2923-.7743-3.3115-.66-3.3352-.5254c-4.4594-.6201-8.9471-1.0512-13.4491-1.4824-4.4971-.4621-9.017-.9252-13.4852-1.7774l-3.3376-.6989-3.3053-.8372-3.2421-1.0512c-1.0614-.4057-2.1148-.8278-3.1604-1.2581q1.6428.44715,3.2619.9275l3.2954.7608,3.3138.6499,3.3367.5164c4.461.6112,8.9496,1.0368,13.4518,1.47,4.4975.4638,9.0175.9313,13.484,1.7945l3.3361.707,3.3029.8478,3.2384,1.0625C168.6384,292.7605,169.6899,293.1871,170.7338,293.6214Z" transform="translate(33.4729 -14.9705)"/><path class="cls-14" d="M159.6378,273.5125c-.3788-6.5991.9357-13.1718,1.1901-19.7768,5.7034,6.2485,11.7137,13.1843,12.2986,21.6241a37.92654,37.92654,0,0,1-1.0387,9.8212c-.5077,2.6037-.9228,5.2597-1.5727,7.8243C164.1982,287.5786,160.1402,282.2591,159.6378,273.5125Z" transform="translate(33.4729 -14.9705)"/><path class="cls-6" d="M170.4323,293.9454c-.508-1.0101-1.009-2.0282-1.4941-3.0559l-1.2919-3.154-1.0824-3.2336-.9445-3.2767c-1.1811-4.3932-1.9716-8.868-2.7568-13.3207-.7547-4.4596-1.5013-8.9061-2.4309-13.3116l-.7544-3.2913-.8859-3.2585-.9953-3.2325q-.59655-1.581-1.1591-3.187c.5043,1.0121,1.0008,2.0324,1.4817,3.062l1.2809,3.1585,1.0721,3.2368.9367,3.2788c1.1704,4.3956,1.9565,8.8706,2.7399,13.323.7529,4.4595,1.5046,8.9048,2.443,13.3082l.763,3.289.8959,3.2557,1.0083,3.2283Q169.8624,292.342,170.4323,293.9454Z" transform="translate(33.4729 -14.9705)"/><path class="cls-7" d="M151.8421,279.3603l10.6969,7.3028c3.588,2.4077,7.0726,4.9589,10.5536,7.5189,6.9189,5.1765,13.5695,10.698,20.2505,16.1771a394.06335,394.06335,0,0,1,37.4087,35.8715,280.394,280.394,0,0,1,31.2655,41.3302c4.4336,7.427,8.7146,14.9574,12.4164,22.7788.8796,1.9767,1.8265,3.921,2.6493,5.921l2.4659,5.9969c.8469,1.9875,1.6031,4.0113,2.3475,6.039l2.235,6.0782c-3.4275-7.9245-6.8369-15.8503-10.8722-23.4652-3.6839-7.7846-7.9437-15.276-12.3545-22.6659a279.08592,279.08592,0,0,0-31.1207-41.1371,392.776,392.776,0,0,0-37.2831-35.75c-6.6655-5.4632-13.2939-10.9759-20.2043-16.1339C165.6484,289.7226,158.6512,284.6761,151.8421,279.3603Z" transform="translate(33.4729 -14.9705)"/><path class="cls-18" d="M347.5405,350.4865c-.6544-6.2009-.5071-13.243,3.9251-17.6286,1.7806-1.7619,4.0776-2.8899,6.0986-4.3697,10.1454-7.4283,11.5492-21.721,16.9735-33.0651,2.6267-5.4934,6.9077-10.8339,12.8891-11.9746,3.1041-.592,6.3584.0187,9.4368-.6953,4.9366-1.145,8.4349-5.3831,11.7188-9.2428,7.9631-9.3597,17.5368-18.2927,29.5403-20.9253a9.64481,9.64481,0,0,1,5.7535.0958,7.25114,7.25114,0,0,1,4.0203,6.3108,15.59373,15.59373,0,0,1-1.8729,7.5698c-5.1056,10.6695-14.7705,18.3032-22.3599,27.3754-1.3777,1.6469-2.7391,3.9847-1.5659,5.783.7273,1.1149,2.1453,1.4967,3.3094,2.1423,5.0171,2.7824,4.7078,10.6623.9196,14.9707-3.7881,4.3085-9.6334,6.0299-15.0883,7.8067-5.4548,1.7769-11.2384,4.1288-14.1859,9.0507-2.3658,3.9503-2.4551,8.8634-4.3073,13.079a16.92969,16.92969,0,0,1-9.2212,8.8499,48.47961,48.47961,0,0,1-8.5467,1.955,54.05284,54.05284,0,0,0-10.4915,3.1724c-3.0427,1.2675-20.6811,14.164-20.6811,14.164S348.0728,355.5304,347.5405,350.4865Z" transform="translate(33.4729 -14.9705)"/><path class="cls-9" d="M339.9733,384.946a240.56586,240.56586,0,0,1,34.6354-62.0544,248.936,248.936,0,0,1,23.6915-26.6513,229.456,229.456,0,0,1,27.3223-22.8257,314.26684,314.26684,0,0,0-26.25,23.9011,295.03231,295.03231,0,0,0-23.2213,26.7603A302.28729,302.28729,0,0,0,339.9733,384.946Z" transform="translate(33.4729 -14.9705)"/><path class="cls-8" d="M324.7237,347.3711c-3.479-5.1745-6.6429-11.4675-4.777-17.4171.7496-2.3901,2.2521-4.4615,3.3462-6.7148,5.4922-11.3113.0472-24.6006-.4651-37.1643-.248-6.0841,1.0376-12.8068,5.7906-16.613,2.4666-1.9752,5.6287-2.9577,8.0155-5.0288,3.8276-3.3212,4.9371-8.7034,6.0341-13.651,2.6599-11.9974,6.943-24.3712,16.3209-32.3129a9.645,9.645,0,0,1,5.1299-2.6068,7.25149,7.25149,0,0,1,6.5054,3.6972,15.59514,15.59514,0,0,1,1.8856,7.5668c.4784,11.8184-4.4931,23.0864-6.9572,34.655-.4473,2.1001-.5571,4.8032,1.321,5.8438,1.1644.6452,2.5963.3193,3.9272.3454,5.7359.1123,9.1485,7.2217,7.8157,12.8017-1.3327,5.58-5.6938,9.8357-9.6839,13.9578s-8.0018,8.9063-8.3046,14.6352c-.2431,4.5982,1.9762,8.9824,2.3111,13.5748a16.92991,16.92991,0,0,1-4.0104,12.1354,48.47312,48.47312,0,0,1-6.6395,5.7258,54.0589,54.0589,0,0,0-7.7889,7.7116c-2.0964,2.5436-11.6534,22.1929-11.6534,22.1929S327.5536,351.5802,324.7237,347.3711Z" transform="translate(33.4729 -14.9705)"/><path class="cls-9" d="M334.1548,381.3678a240.56185,240.56185,0,0,1,1.5849-71.0482,248.94085,248.94085,0,0,1,8.4729-34.6379,229.44849,229.44849,0,0,1,13.4714-32.955,314.29144,314.29144,0,0,0-12.0207,33.4038,295.05854,295.05854,0,0,0-8.0063,34.5145A302.27659,302.27659,0,0,0,334.1548,381.3678Z" transform="translate(33.4729 -14.9705)"/><path class="cls-18" d="M300.4551,354.3047c-5.3095-3.2693-10.7954-7.6871-11.5608-13.8752-.3075-2.486.2023-4.9937.265-7.4978.3149-12.5702-10.1446-22.4115-15.8137-33.6351-2.7453-5.4352-4.3591-12.0868-1.609-17.5195,1.4272-2.8194,3.8985-5.0232,5.2133-7.8967,2.1086-4.6082.8897-9.9667-.1608-14.9243-2.5472-12.0219-3.7728-25.0585,1.4743-36.1708a9.64482,9.64482,0,0,1,3.5899-4.4971,7.251,7.251,0,0,1,7.4524.6713,15.59474,15.59474,0,0,1,4.8499,6.1065c5.3297,10.5593,5.4708,22.8745,8.0187,34.425.4625,2.0967,1.482,4.6026,3.6224,4.772,1.3271.1051,2.4954-.7845,3.7177-1.3119,5.2674-2.2731,11.3178,2.7848,12.4154,8.4157,1.0977,5.631-1.1095,11.3107-3.0343,16.7151-1.9249,5.4044-3.5952,11.4203-1.4983,16.7604,1.6829,4.286,5.5185,7.3575,7.7251,11.3989a16.92985,16.92985,0,0,1,1.3752,12.7067,48.473,48.473,0,0,1-3.6723,7.9614,54.05474,54.05474,0,0,0-3.8961,10.2448c-.8548,3.1834-1.4167,25.0264-1.4167,25.0264S304.774,356.964,300.4551,354.3047Z" transform="translate(33.4729 -14.9705)"/><path class="cls-9" d="M323.1182,381.3436a240.56355,240.56355,0,0,1-27.9798-65.326,248.90711,248.90711,0,0,1-6.6319-35.0369,229.46,229.46,0,0,1-1.3853-35.5753,314.27582,314.27582,0,0,0,2.8916,35.3829,295.01255,295.01255,0,0,0,7.0057,34.7315A302.27265,302.27265,0,0,0,323.1182,381.3436Z" transform="translate(33.4729 -14.9705)"/><path class="cls-8" d="M273.8982,350.1534c-5.1943-1.7467-10.7672-4.4419-12.6493-9.5886-.756-2.0676-.8166-4.3159-1.2593-6.4724-2.2222-10.8254-13.1288-17.1784-20.2078-25.6645-3.428-4.1095-6.1283-9.4849-4.8506-14.6817.6631-2.697,2.3423-5.0738,2.8984-7.7949.892-4.3636-1.2139-8.7101-3.0961-12.7467-4.5641-9.7885-8.1978-20.7079-5.9079-31.2627a8.47711,8.47711,0,0,1,2.1823-4.5622,6.37287,6.37287,0,0,1,6.514-.9025,13.70479,13.70479,0,0,1,5.3631,4.2672c6.6567,7.9847,9.2188,18.5013,13.69,27.886.8117,1.7036,2.1813,3.6471,4.0476,3.3679,1.1571-.1731,1.9812-1.1664,2.9231-1.8603,4.0595-2.9904,10.2427.1409,12.2988,4.7447s1.2921,9.9044.7153,14.9134-.8144,10.4911,2.0396,14.6477c2.2906,3.3362,6.1836,5.2058,8.8741,8.2288a14.87854,14.87854,0,0,1,3.6963,10.6072,42.59555,42.59555,0,0,1-1.5661,7.5447,47.50976,47.50976,0,0,0-1.3051,9.5442c-.1009,2.8952,3.7481,21.7091,3.7481,21.7091S278.1233,351.5742,273.8982,350.1534Z" transform="translate(33.4729 -14.9705)"/><path class="cls-9" d="M298.6629,368.8124q-2.722-2.8038-5.413-5.6468l-5.1977-5.8535-4.9468-6.072-4.7406-6.2391a217.39906,217.39906,0,0,1-29.2236-55.2645l-2.4865-7.4309-2.2331-7.5068-1.9099-7.5918q-.83745-3.8232-1.6178-7.6531,1.0539,3.7677,2.0565,7.5391l2.275,7.4678,2.4542,7.4038,2.6953,7.3153a261.96816,261.96816,0,0,0,29.0572,54.962l4.5288,6.3458,4.7368,6.1971,4.8916,6.0841Q296.14485,365.8188,298.6629,368.8124Z" transform="translate(33.4729 -14.9705)"/><path class="cls-6" d="M265.2505,321.6707c2.5692-29.2971,28.9213-62.1703,61.2401-56.914,34.2321,5.5675,42.5351,46.4779,43.8615,75.0037.4244,9.1288,14.6734,9.1808,14.2466,0-.9755-20.9779-3.8976-43.0764-15.717-61.0025-9.7399-14.7723-24.7974-26.3426-42.7434-28.3396-40.4915-4.5059-71.8762,34.0988-75.1344,71.2524-.8008,9.1313,13.4505,9.0776,14.2466,0Z" transform="translate(33.4729 -14.9705)"/><g class="cls-19"><path class="cls-20" d="M272.314,317.469a44.78083,44.78083,0,0,1-17.8271-31.5482A69.446,69.446,0,0,0,272.314,317.469Z" transform="translate(33.4729 -14.9705)"/><path class="cls-20" d="M274.9586,299.1866a52.04839,52.04839,0,0,1-8.6315-34.0572,95.45531,95.45531,0,0,0,8.6315,34.0572Z" transform="translate(33.4729 -14.9705)"/><path class="cls-20" d="M291.6819,287.9009a50.08252,50.08252,0,0,1,2.2996-36.5212,83.15019,83.15019,0,0,0-2.2996,36.5212Z" transform="translate(33.4729 -14.9705)"/><path class="cls-20" d="M309.6798,278.0826a70.9782,70.9782,0,0,1,21.0866-37.8316,120.58732,120.58732,0,0,0-21.0866,37.8316Z" transform="translate(33.4729 -14.9705)"/><path class="cls-20" d="M328.9589,274.954a64.66069,64.66069,0,0,1,29.0528-20.82,146.39337,146.39337,0,0,0-29.0528,20.82Z" transform="translate(33.4729 -14.9705)"/><path class="cls-20" d="M339.5828,287.1687a83.9302,83.9302,0,0,1,38.833-13.5059,187.09007,187.09007,0,0,0-38.833,13.5059Z" transform="translate(33.4729 -14.9705)"/><path class="cls-20" d="M353.3308,300.1971a67.02636,67.02636,0,0,1,42.039.0811,113.8405,113.8405,0,0,0-42.039-.0811Z" transform="translate(33.4729 -14.9705)"/><path class="cls-20" d="M357.5761,313.1673a84.44522,84.44522,0,0,1,18.0986,5.6145,46.245,46.245,0,0,1,8.2488,4.799,30.74079,30.74079,0,0,1,6.7338,6.7045,54.55779,54.55779,0,0,0-15.5754-10.2089C369.4202,317.4621,363.4509,315.4992,357.5761,313.1673Z" transform="translate(33.4729 -14.9705)"/></g><path class="cls-21" d="M224.6286,316.2218S197.0417,420.238,305.128,434.2575c108.0864,14.0197,104.0161-93.6145,104.0161-93.6145l-95.8757-.9045Z" transform="translate(33.4729 -14.9705)"/><g class="cls-22"><path class="cls-23" d="M304.3158,317.7291c-6.5489,40.42-12.8179,81.7516-5.8754,122.106" transform="translate(33.4729 -14.9705)"/><path class="cls-23" d="M274.3599,321.6426a270.32541,270.32541,0,0,0,2.0416,113.08" transform="translate(33.4729 -14.9705)"/><path class="cls-23" d="M244.1675,313.0123A219.39587,219.39587,0,0,0,256.814,439.403" transform="translate(33.4729 -14.9705)"/><path class="cls-23" d="M334.8047,331.851a678.42524,678.42524,0,0,1-19.4529,110.3852" transform="translate(33.4729 -14.9705)"/><path class="cls-23" d="M362.3357,332.6403a282.64508,282.64508,0,0,1-28.1992,108.0256" transform="translate(33.4729 -14.9705)"/><path class="cls-23" d="M397.9228,332.3655a239.7054,239.7054,0,0,1-38.8697,111.9454" transform="translate(33.4729 -14.9705)"/></g><path class="cls-6" d="M220.1851,320.1865a502.936,502.936,0,0,0,193.0291,22.6602c4.5403-.355,4.5786-7.4813,0-7.1233a497.43147,497.43147,0,0,1-191.1354-22.4058c-4.3737-1.4086-6.2467,5.4669-1.8937,6.8689Z" transform="translate(33.4729 -14.9705)"/><path class="cls-14" d="M257.1563,430.7348c3.3-.0575,6.5486-.192,9.7758-.3605a70.04148,70.04148,0,0,1,1.5555,36.5876c-6.5285-.0313-10.378-.1711-10.378-.1711C262.1948,454.7851,260.7227,442.9047,257.1563,430.7348Z" transform="translate(33.4729 -14.9705)"/><path class="cls-11" d="M419.0821,435.6827c-30.1346,27.121-107.9624,30.9658-143.1843,31.2646a70.02617,70.02617,0,0,0-1.7034-37.0477c32.5051-2.5563,94.4654-18.3945,126.1695-29.9647" transform="translate(33.4729 -14.9705)"/><path class="cls-5" d="M266.9321,430.3743q3.65835-.1911,7.2623-.4747a70.02617,70.02617,0,0,1,1.7034,37.0477c-2.7456.0232-5.2253.0251-7.4102.0146A70.04148,70.04148,0,0,0,266.9321,430.3743Z" transform="translate(33.4729 -14.9705)"/><path class="cls-7" d="M258.1096,466.7909c11.6764-.2487,23.3409-.6308,34.9958-1.0839,5.8262-.2589,11.6515-.5034,17.4679-.875,5.8182-.3357,11.6295-.7524,17.4254-1.2945,5.798-.5353,11.572-1.1749,17.3172-2.0995,5.7537-.8642,11.479-1.9222,17.1787-3.1098,5.6967-1.2008,11.3707-2.5265,17.0041-4.0198q8.4669-2.1837,16.7726-4.974a223.333,223.333,0,0,1-33.4475,10.4762,247.347,247.347,0,0,1-34.6464,5.6635c-11.6602,1.0258-23.3443,1.5687-35.0284,1.745C281.4658,467.4168,269.7796,467.2942,258.1096,466.7909Z" transform="translate(33.4729 -14.9705)"/><path class="cls-12" d="M301.6793,431.3421c13.0483-7.5074,22.2006-12.1546,21.0042-14.8907-1.1965-2.7362-12.6803,3.6124-14.6423,4.0821-1.9622.4694-12.0907,4.1495-12.0907,4.1495s12.7939-6.0389,20.5969-10.9721c7.8033-4.9332,14.1522-8.6791,12.6505-11.0745-1.5019-2.3953-14.9329,4.15-16.3263,4.6835-1.3933.5335-20.7873,8.6032-20.7873,8.6032s15.7069-9.1947,21.4861-11.9233c6.1585-2.9082,15.406-7.9833,14.5397-10.5202-1.2759-3.7364-19.1724,5.0501-21.2014,5.8032-2.029.753-17.9643,7.6295-17.9643,7.6295s9.1475-5.282,14.2776-8.5908c5.4715-3.5286,18.5201-6.3079,15.8394-11.6876-1.0587-2.1247-18.0727,4.2777-20.3145,5.1562-2.2425.8787-17.0329,6.4837-17.0329,6.4837a7.02645,7.02645,0,0,1,2.348-2.7365c1.7719-1.2886,8.2454-4.6177,9.6802-9.2764,1.4345-4.6585-.5705-3.6537-1.7747-3.498-1.2043.1559-18.7477,11.093-21.3442,13.0162-7.3656,5.4551-17.3232,27.1389-20.2284,34.3996l-19.2945,1.0895.3525,25.734S264.1742,452.9209,301.6793,431.3421Z" transform="translate(33.4729 -14.9705)"/><path class="cls-14" d="M243.8288,430.7348c-3.3-.0575-6.5486-.192-9.7758-.3605a70.04252,70.04252,0,0,0-1.5555,36.5876c6.5285-.0313,10.378-.1711,10.378-.1711C238.7903,454.7851,240.2624,442.9047,243.8288,430.7348Z" transform="translate(33.4729 -14.9705)"/><path class="cls-11" d="M81.9031,435.6827c30.1345,27.121,107.9624,30.9658,143.1843,31.2646a70.02514,70.02514,0,0,1,1.7033-37.0477c-32.5051-2.5563-55.0129-8.4792-86.717-20.0494" transform="translate(33.4729 -14.9705)"/><path class="cls-5" d="M234.053,430.3743q-3.65835-.1911-7.2623-.4747a70.02514,70.02514,0,0,0-1.7033,37.0477c2.7455.0232,5.2252.0251,7.4101.0146A70.04252,70.04252,0,0,1,234.053,430.3743Z" transform="translate(33.4729 -14.9705)"/><path class="cls-7" d="M242.8756,466.7909c-11.4347.4933-22.887.5765-34.3339.3291-11.448-.2227-22.8941-.8166-34.3112-1.8787-5.7083-.5256-11.4017-1.262-17.0789-2.1175-5.6514-.9556-11.3-1.9289-16.9019-3.1485-5.6062-1.192-11.1797-2.5431-16.6971-4.095q-4.13295-1.18245-8.2116-2.541c-2.7169-.9045-5.4169-1.8756-8.0325-3.0395a161.48825,161.48825,0,0,0,16.4848,4.6575c5.5527,1.326,11.1461,2.4702,16.7536,3.5289q8.418,1.5555,16.8868,2.8166c5.6405.7935,11.2962,1.5108,16.9815,2.0025,11.3573,1.0954,22.7633,1.7707,34.1774,2.3028C220.0086,466.1108,231.4354,466.5322,242.8756,466.7909Z" transform="translate(33.4729 -14.9705)"/></g></g></svg>