<svg id="Layer_1" data-name="Layer 1" xmlns="http://www.w3.org/2000/svg" xmlns:xlink="http://www.w3.org/1999/xlink" viewBox="0 0 111.92035 124.55615"><defs><style>.cls-1{fill:none;}.cls-2{clip-path:url(#clip-path);}.cls-3{fill:#ddccaf;}.cls-4{fill:#706f5e;}.cls-5{fill:#56442c;}.cls-6{fill:#cbcbca;}.cls-7{fill:#d6d6d6;}.cls-7,.cls-8{opacity:0.5;}.cls-8,.cls-9{fill:#fff;}.cls-9{opacity:0.2;}.cls-10{fill:#302a28;}</style><clipPath id="clip-path" transform="translate(-31.29038 -21.89699)"><path class="cls-1" d="M92.4419,67.3018c2.668-.4322,5.6597-.7481,8.043-2.1304a30.41279,30.41279,0,0,0,7.3525-6.6177,49.28687,49.28687,0,0,0,5.1909-7.4292c1.1148-1.9492,3.2808-4.7539,3.0952-7.0957-.0854-1.083-.8217-1.7207-1.4673-2.5796a2.549,2.549,0,0,1-.6611-1.2632c.8355.0757,1.5586.8623,2.4014.9014,1.5254.0708,1.5224-1.6577,1.2866-2.8794-.5293-2.7437-3.6274-4.2852-6.2134-4.2969-2.8579-.0136-6.2739.8086-11.7383,4.249a9.854,9.854,0,0,0-5.06,6.0513c-.5161-1.0425.6299-3.1816,1.1665-3.8139a23.15235,23.15235,0,0,1,4.5454-4.1031,28.52984,28.52984,0,0,1,8.4546-4.5595,12.74734,12.74734,0,0,1,4.6558-.46,11.02557,11.02557,0,0,1,6.8789,3.0405c.686.7373,1.8339.8511,2.394,4.2237-.5601-3.3726-.5601-3.3726-1.3315-4.4649a23.22522,23.22522,0,0,0-3.3433-4.2851c-1.8789-1.6197-8.71-3.9122-15.7285.8286-2.2027,1.4873-5.605,4.3794-6.6836,6.8696a7.13749,7.13749,0,0,1,1.8266-4.1841c4.1499-5.1645,10.2413-8.3257,16.9986-7.644,3.2485.3266,7.2246,2.1572,9.15769,4.8061a14.02634,14.02634,0,0,1,1.6406,3.0894c.3726.9316.4346,2.3291.9644,3.1513,1.1909,1.8492,3.27441-1.309,4.5791-1.5224.0434,1.2944-1.9395,2.043-2.2661,3.3682-.5772,2.3383,1.9062,3.8759,3.351,5.2006a57.69415,57.69415,0,0,0,5.8516,5.0826c.7266.5058,1.7017.7231,2.0269,1.6586a9.73692,9.73692,0,0,1,.00091,3.2486c-.29641,1.8764-.98141,3.0307-3.02981,2.7397-1.8935-.27-3.7485-1.0478-5.6831-1.3667-1.7387-.2881-3.1894.1529-4.8252.2774.1348,1.3027-.559,2.7363-.851,4.0156a34.1827,34.1827,0,0,1-1.001,4.0488c-1.0454,2.9175-2.40329,5.7202-3.38919,8.7017-.914,2.7602-1.728,5.3266-1.4668,8.2969a27.41179,27.41179,0,0,1,.3052,5.8901c-.2539,1.9233-1.1855,3.915-1.6728,5.8418a27.95325,27.95325,0,0,1-.9839,4.0903c-.5469,1.3057-1.4805,2.4932-2.146,3.7583-2.1768,4.1304-1.7564,5.2886-2.2681,9.7632a50.95457,50.95457,0,0,0-.3203,9.7441,35.37084,35.37084,0,0,0,2.4312,11.0889,21.97571,21.97571,0,0,1,1.5927,3.8213,32.86718,32.86718,0,0,1-5.6103.0039c-.0694-.7358-.229-6.5845-1.8125-4.6445a17.327,17.327,0,0,1-.2422-6.0513,19.04226,19.04226,0,0,0,.2017-3.2368c-.1739-2.0972-.0044-4.6065-.399-6.6782a66.78616,66.78616,0,0,1-.6103-6.8809c-.1299-1.5747.2485-3.1557.0468-4.7285-.0307-.2388-.9619-3.8228-1.1113-3.6064a12.70954,12.70954,0,0,0-2.1743,6.9179c-.3286,3.9175-1.1172,6.9624-1.5776,11.5069a33.38154,33.38154,0,0,0,.9257,12.8232c.5582,1.7583,1.6963,3.5142,1.4297,5.3877-1.2822-.0278-4.4209,1.0195-5.0322-.3691-.6401-1.4532.1362-4.2461-.0361-5.8531a5.60759,5.60759,0,0,0-1.336,1.7349c.0205-.877.5035-1.8648.5718-2.7632.0864-1.1309-.0063-2.3086-.0054-3.4458.0025-1.0923-.2109-1.978-.2016-3.0342.0141-1.5468.2671-2.8633.1572-4.393-.2607-3.625.1714-7.4273-1.0117-10.9414-.4233-1.2588-.7095-2.2295-2.2251-1.9161-1.292.2671-2.4902.9732-3.8237,1.0352-1.3838.064-2.812-.1025-4.2276.0254a34.23944,34.23944,0,0,1-9.3188-.7979c-1.1416-.2114-2.2427-.5952-3.3799-.8149-.9741-.188-1.9243-.0303-2.8867-.2031-.4717-.085-.938-.5845-1.4029-.6231-1.0127-.081-1.5546,1.1524-2.393,1.6753-.7071.4395-1.9478.9619-1.4209,2.1401.1377.3116,2.5039,2.0865.352,2.0782-.977-.0044-1.6992-3.0532-2.2177-.8238-.2242.9581.7251,2.0845.6088,3.2388-.143,1.4273-.8715,1.8521-1.4038.395-.2368-.6489-.4599-1.705-1.1831-1.8393-.1836,1.8882-1.0166,3.6592-1.0532,5.6094-.0361,1.852-.2642,3.7041-.2837,5.5493-.0254,2.4453,1.2261,4.4809,1.8521,6.7788.4131,1.5171.9301,2.8803,1.3081,4.4062a12.65749,12.65749,0,0,0,.5132,1.916c.2558.5801.8383.9961,1.0058,1.6255.5152,1.9483-2.1728.813-3.3838.7534-2.3066-.1132-1.6987-1.4511-1.8222-3.4394a3.32591,3.32591,0,0,0-.2432-1.5874c-.6943,0-.8418,1.1714-1.1841,1.7305.1865-2.2788-.6518-4.8628-1.2143-7.0245a50.25351,50.25351,0,0,1-1.0005-7.892c-.1226-1.3228,0-2.7164,0-4.0479,0-.6655.0551-1.3589,0-2.0225-.1109-1.2973-1.5845-.7915-1.5899-.54a.89579.89579,0,0,0-.7934-.9536c-.2412.6318-.7906,3.3135-1.6748,1.6045-.4419-.8574.4619-2.1548-.1621-2.9507-.5069-.6445-2.0699-.9023-2.459-.0937-.6861,1.4252-.4805,3.435-.6075,5.0566-.1289,1.6299-.7265,3.3926-1.0112,5.061-.5664,3.3179-.2964,6.7486-.4043,10.1177-.0478,1.4849,3.0957,5.8633,2.0825,6.9409-.3969.4204-2.3056.1748-2.892.1426-2.6001-.1514-2.0591-3.1875-2.2671-5.1421a4.321,4.321,0,0,0-1.128,1.3828c.0782-1.1777-.247-2.5454-.247-3.8301a25.63291,25.63291,0,0,1,.415-4.0473c.4917-3.2344.9053-6.4737,1.2031-9.7144.2295-2.5073-.2026-5.2788-.2026-7.8926,0-2.3535.5259-1.9223-.603-3.9238a6.70847,6.70847,0,0,1-1.8037.7725c.371-1.9351,1.9423-3.5059,2.3852-5.4326-.7373.1875-1.2949.8637-1.9609,1.1767-.2422-1.2304,1.4726-5.0986-.4097-5.477-.2344-.0484.9346-4.5909.8154-5.0728-.2026-.813-1.353-3.0889-2.1167-3.5444-1.2011-.7144-1.5205.3257-1.7817,1.3667-.6494,2.6045-.1289,5.3877-.4341,8.0737-.5674-.3105-.8213-1.0005-1.1885-1.5361a12.18624,12.18624,0,0,0,.2622,2.7759,5.17563,5.17563,0,0,1,.522,2.6049c-.7607-.3818-.833-1.456-1.3306-1.9873-.1962,1.6314.0953,3.3501-.0864,4.9785-1.041-1.1582-1.0112-3.3452-1.2182-4.7905a38.07748,38.07748,0,0,1-.3594-5.4697,12.64545,12.64545,0,0,1,3.4394-9.0523,57.005,57.005,0,0,0,5.3013-7.7397,22.18741,22.18741,0,0,1,3.499-4.2148,11.72785,11.72785,0,0,0,2.1612-3.315c1.6621-3.2226,5.0376-2.8164,8.062-2.3896,4.1758.5879,8.5263.415,12.7475.8037a25.73451,25.73451,0,0,1,5.2178,1.0771,22.11007,22.11007,0,0,0,4.6982.5616A41.866,41.866,0,0,0,92.4419,67.3018Z"/></clipPath></defs><g class="cls-2"><path class="cls-3" d="M92.4419,67.3018c2.668-.4322,5.6597-.7481,8.043-2.1304a30.41279,30.41279,0,0,0,7.3525-6.6177,49.28687,49.28687,0,0,0,5.1909-7.4292c1.1148-1.9492,3.2808-4.7539,3.0952-7.0957-.0854-1.083-.8217-1.7207-1.4673-2.5796a2.549,2.549,0,0,1-.6611-1.2632c.8355.0757,1.5586.8623,2.4014.9014,1.5254.0708,1.5224-1.6577,1.2866-2.8794-.5293-2.7437-3.6274-4.2852-6.2134-4.2969-2.8579-.0136-6.2739.8086-11.7383,4.249a9.854,9.854,0,0,0-5.06,6.0513c-.5161-1.0425.6299-3.1816,1.1665-3.8139a23.15235,23.15235,0,0,1,4.5454-4.1031,28.52984,28.52984,0,0,1,8.4546-4.5595,12.74734,12.74734,0,0,1,4.6558-.46,11.02557,11.02557,0,0,1,6.8789,3.0405c.686.7373,1.8339.8511,2.394,4.2237-.5601-3.3726-.5601-3.3726-1.3315-4.4649a23.22522,23.22522,0,0,0-3.3433-4.2851c-1.8789-1.6197-8.71-3.9122-15.7285.8286-2.2027,1.4873-5.605,4.3794-6.6836,6.8696a7.13749,7.13749,0,0,1,1.8266-4.1841c4.1499-5.1645,10.2413-8.3257,16.9986-7.644,3.2485.3266,7.2246,2.1572,9.15769,4.8061a14.02634,14.02634,0,0,1,1.6406,3.0894c.3726.9316.4346,2.3291.9644,3.1513,1.1909,1.8492,3.27441-1.309,4.5791-1.5224.0434,1.2944-1.9395,2.043-2.2661,3.3682-.5772,2.3383,1.9062,3.8759,3.351,5.2006a57.69415,57.69415,0,0,0,5.8516,5.0826c.7266.5058,1.7017.7231,2.0269,1.6586a9.73692,9.73692,0,0,1,.00091,3.2486c-.29641,1.8764-.98141,3.0307-3.02981,2.7397-1.8935-.27-3.7485-1.0478-5.6831-1.3667-1.7387-.2881-3.1894.1529-4.8252.2774.1348,1.3027-.559,2.7363-.851,4.0156a34.1827,34.1827,0,0,1-1.001,4.0488c-1.0454,2.9175-2.40329,5.7202-3.38919,8.7017-.914,2.7602-1.728,5.3266-1.4668,8.2969a27.41179,27.41179,0,0,1,.3052,5.8901c-.2539,1.9233-1.1855,3.915-1.6728,5.8418a27.95325,27.95325,0,0,1-.9839,4.0903c-.5469,1.3057-1.4805,2.4932-2.146,3.7583-2.1768,4.1304-1.7564,5.2886-2.2681,9.7632a50.95457,50.95457,0,0,0-.3203,9.7441,35.37084,35.37084,0,0,0,2.4312,11.0889,21.97571,21.97571,0,0,1,1.5927,3.8213,32.86718,32.86718,0,0,1-5.6103.0039c-.0694-.7358-.229-6.5845-1.8125-4.6445a17.327,17.327,0,0,1-.2422-6.0513,19.04226,19.04226,0,0,0,.2017-3.2368c-.1739-2.0972-.0044-4.6065-.399-6.6782a66.78616,66.78616,0,0,1-.6103-6.8809c-.1299-1.5747.2485-3.1557.0468-4.7285-.0307-.2388-.9619-3.8228-1.1113-3.6064a12.70954,12.70954,0,0,0-2.1743,6.9179c-.3286,3.9175-1.1172,6.9624-1.5776,11.5069a33.38154,33.38154,0,0,0,.9257,12.8232c.5582,1.7583,1.6963,3.5142,1.4297,5.3877-1.2822-.0278-4.4209,1.0195-5.0322-.3691-.6401-1.4532.1362-4.2461-.0361-5.8531a5.60759,5.60759,0,0,0-1.336,1.7349c.0205-.877.5035-1.8648.5718-2.7632.0864-1.1309-.0063-2.3086-.0054-3.4458.0025-1.0923-.2109-1.978-.2016-3.0342.0141-1.5468.2671-2.8633.1572-4.393-.2607-3.625.1714-7.4273-1.0117-10.9414-.4233-1.2588-.7095-2.2295-2.2251-1.9161-1.292.2671-2.4902.9732-3.8237,1.0352-1.3838.064-2.812-.1025-4.2276.0254a34.23944,34.23944,0,0,1-9.3188-.7979c-1.1416-.2114-2.2427-.5952-3.3799-.8149-.9741-.188-1.9243-.0303-2.8867-.2031-.4717-.085-.938-.5845-1.4029-.6231-1.0127-.081-1.5546,1.1524-2.393,1.6753-.7071.4395-1.9478.9619-1.4209,2.1401.1377.3116,2.5039,2.0865.352,2.0782-.977-.0044-1.6992-3.0532-2.2177-.8238-.2242.9581.7251,2.0845.6088,3.2388-.143,1.4273-.8715,1.8521-1.4038.395-.2368-.6489-.4599-1.705-1.1831-1.8393-.1836,1.8882-1.0166,3.6592-1.0532,5.6094-.0361,1.852-.2642,3.7041-.2837,5.5493-.0254,2.4453,1.2261,4.4809,1.8521,6.7788.4131,1.5171.9301,2.8803,1.3081,4.4062a12.65749,12.65749,0,0,0,.5132,1.916c.2558.5801.8383.9961,1.0058,1.6255.5152,1.9483-2.1728.813-3.3838.7534-2.3066-.1132-1.6987-1.4511-1.8222-3.4394a3.32591,3.32591,0,0,0-.2432-1.5874c-.6943,0-.8418,1.1714-1.1841,1.7305.1865-2.2788-.6518-4.8628-1.2143-7.0245a50.25351,50.25351,0,0,1-1.0005-7.892c-.1226-1.3228,0-2.7164,0-4.0479,0-.6655.0551-1.3589,0-2.0225-.1109-1.2973-1.5845-.7915-1.5899-.54a.89579.89579,0,0,0-.7934-.9536c-.2412.6318-.7906,3.3135-1.6748,1.6045-.4419-.8574.4619-2.1548-.1621-2.9507-.5069-.6445-2.0699-.9023-2.459-.0937-.6861,1.4252-.4805,3.435-.6075,5.0566-.1289,1.6299-.7265,3.3926-1.0112,5.061-.5664,3.3179-.2964,6.7486-.4043,10.1177-.0478,1.4849,3.0957,5.8633,2.0825,6.9409-.3969.4204-2.3056.1748-2.892.1426-2.6001-.1514-2.0591-3.1875-2.2671-5.1421a4.321,4.321,0,0,0-1.128,1.3828c.0782-1.1777-.247-2.5454-.247-3.8301a25.63291,25.63291,0,0,1,.415-4.0473c.4917-3.2344.9053-6.4737,1.2031-9.7144.2295-2.5073-.2026-5.2788-.2026-7.8926,0-2.3535.5259-1.9223-.603-3.9238a6.70847,6.70847,0,0,1-1.8037.7725c.371-1.9351,1.9423-3.5059,2.3852-5.4326-.7373.1875-1.2949.8637-1.9609,1.1767-.2422-1.2304,1.4726-5.0986-.4097-5.477-.2344-.0484.9346-4.5909.8154-5.0728-.2026-.813-1.353-3.0889-2.1167-3.5444-1.2011-.7144-1.5205.3257-1.7817,1.3667-.6494,2.6045-.1289,5.3877-.4341,8.0737-.5674-.3105-.8213-1.0005-1.1885-1.5361a12.18624,12.18624,0,0,0,.2622,2.7759,5.17563,5.17563,0,0,1,.522,2.6049c-.7607-.3818-.833-1.456-1.3306-1.9873-.1962,1.6314.0953,3.3501-.0864,4.9785-1.041-1.1582-1.0112-3.3452-1.2182-4.7905a38.07748,38.07748,0,0,1-.3594-5.4697,12.64545,12.64545,0,0,1,3.4394-9.0523,57.005,57.005,0,0,0,5.3013-7.7397,22.18741,22.18741,0,0,1,3.499-4.2148,11.72785,11.72785,0,0,0,2.1612-3.315c1.6621-3.2226,5.0376-2.8164,8.062-2.3896,4.1758.5879,8.5263.415,12.7475.8037a25.73451,25.73451,0,0,1,5.2178,1.0771,22.11007,22.11007,0,0,0,4.6982.5616A41.866,41.866,0,0,0,92.4419,67.3018Z" transform="translate(-31.29038 -21.89699)"/><path class="cls-4" d="M122.5498,93.314a42.15855,42.15855,0,0,0-1.7324,5.0473c-.333,1.7056-1.5938,2.6807-2.3203,4.1919-.6211,1.293-.75,3.8789-.8907,5.3403-.4174,4.2891.6216,8.6866.1138,12.9214-.4233,3.5337.8272,6.8472,2.0835,10.1734.9038,2.3921,2.3032,5.0698.1738,7.1626-2.5249,2.4795-5.6538,1.4082-8.7104.6743-3.1533-.7573-6.2686.685-9.4541.6699a25.04458,25.04458,0,0,1-6.1641-.896c-1.8608-.4521-4.1552-.6484-5.728-1.7944-1.6118-1.1714-1.5508-2.8462-1.7324-4.7066-.252-2.5839-.5835-5.1015-.959-7.6772-.5913-4.0518-2.27-8.6113-5.7095-11.1035-1.7554-1.2696-3.876-2.1504-5.4365-3.6314-.7578-.7192-.937-1.581-2.0186-1.1416-1.3369.5445-2.4155,3.271-2.9189,4.4873-4.168,10.0835,8.0981,20.1309,2.9307,29.7837a6.4867,6.4867,0,0,1-5.6148,3.6377c-2.9336-.0107-4.5542-1.6494-6.5141-3.6059a23.71384,23.71384,0,0,0-4.0347-3.5757,6.80424,6.80424,0,0,1-2.9082-2.6778c-2.1177-4.2334-1.9883-9.271-1.5757-13.8647.1748-1.9565.9399-5.4258-.7051-6.9663-2.2915.9941-1.8242,5.8994-1.4629,7.8179.4961,2.6264,1.021,5.1333,1.271,7.7895.208,2.1939.2368,4.3784.2368,6.606,0,1.7348.4161,3.6401.19,5.2959a38.55119,38.55119,0,0,1-4.2759.2646,11.18824,11.18824,0,0,1-6.5059-3.1323c-3.8095-3.4287-3.9863-9.1533-3.9799-13.9712a62.453,62.453,0,0,1,1.393-12.2686c.2574-1.2846,1.625-4.8349,1.0274-6.0083-.3159-.6211-1.834-.8515-2.4204-1.2163a7.18971,7.18971,0,0,1-2.6841-3.0381,49.566,49.566,0,0,1-3.7671-9.9135c-1.5991-5.8238,1.3364-12.5738,3.7602-17.7105,2.5469-5.396,4.6377-13.3799,10.5245-16.1386,4.1533-1.9463,9.8476-1.9996,14.3647-2.4742a21.80336,21.80336,0,0,1,11.4331,1.5264c3.27,1.4268,6.1621,3.1177,9.8599,3.187a53.15855,53.15855,0,0,0,10.7588-1.1201,36.68369,36.68369,0,0,0,9.0234-3.3628c2.9932-1.4766,5.1304-3.8374,7.5669-6.0522,3.2515-2.9581,7.0024-6.8306,5.1558-11.4332-.1973-.4926-.2945-1.0424-.4532-1.5502,1.7657-.0391,3.7178,1.6997,5.5591.602,1.0498-.6255,1.5371-2.3096,2.7407-2.8623,1.38239-.6348,2.98049.0947,4.48289-.001,2.83111-.1797,5.9273-4.6367,8.7989-1.8545,1.9619,1.9014-.1973,3.0054-.896,4.7691-.688,1.7397,1.15621,3.8872,2.187,5.3799,1.28321,1.8628,3.2773,2.7446,4.5381,4.7089,1.2099,1.8829,2.395,4.4786,1.9726,6.7808-.8276,4.4976-6.0571,2.6934-9.1562,3.083-1.2217.1548-1.6304.7573-2.2832,1.7881-1.1758,1.8604-2.377,3.8232-3.4287,5.7661a29.922,29.922,0,0,0-2.8516,7.9136c-.5381,2.5688-.4311,5.1499-1.1792,7.6758a25.62377,25.62377,0,0,0-1.0591,5.998A19.114,19.114,0,0,1,122.5498,93.314Z" transform="translate(-31.29038 -21.89699)"/><path class="cls-5" d="M101.0225,41.8047c-2.3492,2.0791-6.979,5.3808-10.3355,4.331-3.3198-1.0371-3.8418-5.0664-3.1225-7.9692a14.72194,14.72194,0,0,1,3.0585-5.9526c1.438-1.7168,2.8262-2.2168,4.648-3.3052,4.4233-2.6402,8.4941-5.2735,13.6084-6.4424a23.69015,23.69015,0,0,1,12.9346.7383,9.40109,9.40109,0,0,1,6.26849,6.375c.6529,2.7099,1.2974,7.2832-2.2202,8.3745-1.65329.5132-2.4058-1.1445-3.78909-.8745-.5112,2.395-3.0654,4.228-5.1582,2.1484-.8676-.8598-1.0039-1.6118-2.3076-2.0205a10.32561,10.32561,0,0,0-4.5.0098A16.62815,16.62815,0,0,0,101.0225,41.8047Z" transform="translate(-31.29038 -21.89699)"/><path class="cls-6" d="M84.189,65.2768c-.2369.0064-.4746.0118-.7124.0147-4.3413.0801-8.6744-.4648-12.9922-.7197a27.78531,27.78531,0,0,1-5.7842-.7867,25.80194,25.80194,0,0,0-4.4839-1.1933c-2.4453-.2305-5.2978-.2114-7.4355.9097-2.4698,1.2929-3.4493,2.934-4.9322,5.2031-1.6865,2.5796-4.1084,4.5649-6.0757,6.9053a53.61214,53.61214,0,0,0-3.8554,5.3642,21.84873,21.84873,0,0,0-3.2632,12.3902,15.13139,15.13139,0,0,0,1.5029,6.1435c.4322.8867.6861,1.8545,1.1587,2.7085.127.2261,2.2359,2.4834,2.4121,2.061.5259-1.2719.5132-2.8852.8789-4.2314.4292-1.5811.6988-3.1431.9644-4.7124.3364-1.9937.125-5.0899,1.6142-6.6582,3.0884-3.2534,4.7442,4.0454,5.0933,5.7612a27.99027,27.99027,0,0,1,.6294,3.3623c.0723.9497-.0215,2.3643.5537,3.1045.5054-.3447.8809-.9536,1.4741-1.0581a8.7683,8.7683,0,0,1,.2964,2.1787c.0591-.8794,2.2822,2.0249,2.2759,2.0166a23.51659,23.51659,0,0,0,2.5664,3.6782c1.1846,1.1309.8643,2.0933,1.0029,3.7554.2369,2.8526.2017,5.8887.399,8.7417a73.99939,73.99939,0,0,0,.6596,8.7437c.2539,1.3354.3965,3.6611,1.4307,4.6704,1.6318,1.5874,2.2637-1.1968,3.727-1.5425,1.3648-.3247,2.6587.3198,3.7886.6548-.0674-2.0547-1.8691-4.1309-2.2583-6.2407a61.71388,61.71388,0,0,1-.6177-6.2857c-.288-3.5635-1.3154-7.3359.001-10.7539a8.11176,8.11176,0,0,1,2.6841-3.3667c.5674-.4565,1.313-.7788,1.854-1.291.5195-.4907.8716-1.4146,1.3359-1.7988,1.4488-1.2012,2.9722.1899,4.4336.6723,1.8101.5972,3.6153.8897,5.3853,1.2886a46.60269,46.60269,0,0,0,10.5293,1.3506,26.22766,26.22766,0,0,0,4.9331-.6592c2.9126-.5015,1.9204,2.4302,1.7817,4.4658-.3393,4.9585,1.1363,9.6314.7339,14.5772-.1216,1.4936-.5986,10.1899,1.2398,10.0473.6484-.0512,1.5424-1.7026,2.0107-2.0439a6.442,6.442,0,0,1,2.5234-1.0586,9.68766,9.68766,0,0,1,6.4551,1.103c.5113-2.667,3.416-2.0864,5.397-2.2529.2007-.9346-.3442-2.0825-.4136-3.0449-.1133-1.5576.02-3.0679-.2241-4.6065a31.92243,31.92243,0,0,1-.3989-8.1762c.4619-4.5806.9121-9.0591,2.9253-13.231,1.9853-4.1162,2.1748-9.0254,3.3569-13.5073.4814-1.8286,1.4297-3.5332,1.8745-5.3609.32229-1.3271-.0791-2.4736-.126-3.8125a27.82889,27.82889,0,0,1,1.78809-10.997c1.1363-2.8731,1.92141-5.9068,3.625-8.5186a6.04908,6.04908,0,0,1,5.0449-2.8208c2.1753-.0757,4.1778.8096,6.1919-.4746,3.0611-1.9546,1.62161-6.9429-.5258-9.0298a8.55135,8.55135,0,0,1-2.0503-2.8804c-2.1338-.0668-2.9317-2.1347-3.9419-3.6816a6.20727,6.20727,0,0,1-1.1875-2.3979c-.1758-1.1416.2124-2.2427-.2505-3.3457-1.9746.0341-3.6148,1.3974-5.5327,1.8042.0107.1845-.07469.4126-.066.5991-.7856.0576-1.7719-.335-2.4335-.1885-1.39209.3062-.44049.8682-1.05419,1.8521-.897,1.4335-3.0957,1.0219-4.2715,1.0058-1.1626-.0181-.7754.4961-1.8423.9067-.8569.3287-2.0151-.3618-2.9199-.4042-2.8965-.1343-1.1382,2.4248-1.1211,4.2597.0273,2.8613-2.0293,5.1851-3.4121,7.5596-1.7056,2.9307-2.7662,6.6909-5.333,9.0454-2.0801,1.9077-5.044,1.9644-7.6363,2.6728A47.59167,47.59167,0,0,1,84.189,65.2768Z" transform="translate(-31.29038 -21.89699)"/><path class="cls-7" d="M139.07709,53.8599c2.27891.8403,2.56691-1.3531,1.5191-2.9019a12.68958,12.68958,0,0,0-4.22119-4.2153c-3.04251-1.8604-5.77491-3.7447-5.81641-7.6778-.0117-1.0903,1.7178-3.6997.2349-4.2705-1.2432-.479-1.3179,1.0176-1.962,1.4219-.7158.4502-1.9409.1816-2.76949.3706a17.98163,17.98163,0,0,0-1.99411.6963c-1.1231.4121-1.0816.6475-1.97369,1.3936-.77.6455-1.0463.5585-2.0727.6123a4.48747,4.48747,0,0,0-2.1861.7285c-1.3632.6093-6.2568-1.5074-4.8188,1.7978.4683,1.0781,4.3071,3.9458,2.1294,4.8369-.0903-.2275-.2666-.3403-.3359-.6157-1.7261,2.25-3.625,4.8233-5.5381,7.1465-2.7417,3.3267-4.6255,6.9375-8.1441,9.4204-8.604,6.0713-19.2539,3.9941-28.8061,1.793-2.6397-.607-5.4409-.5-8.1304-.895a18.146,18.146,0,0,0-6.2666-.2261,21.79422,21.79422,0,0,0-5.8237,1.832c-1.9287,1.0484-3.8618,3.6611-5.2158,5.353-2.9336,3.6665-6.5098,7.0249-8.9678,11.0245-1.898,3.0854-2.5996,7.8276-2.2359,11.3823a22.89964,22.89964,0,0,0,.959,5.144c.2954.8726,1.2876,3.9146,2.19,4.0171.3535-3.6724-.8745-7.1953-.0103-10.7807a22.07433,22.07433,0,0,1,4.252-8.4737,7.4447,7.4447,0,0,1,1.8608-1.9663c.8696-.4585,1.7817.0298,2.6851-.2646,1.5449-.5054,1.4946-2.7662,2.2373-4.0411a3.54658,3.54658,0,0,1,1.5683-1.5073,5.03868,5.03868,0,0,0,1.6192-1.5757c1.3891-1.7133,3.125-2.4238,3.7661.1695a35.11909,35.11909,0,0,1,.4492,5.6587c.1279,1.791-.5498,4.6904.5991,6.2216,1.0757,1.4327,2.7569.751,2.5445-1.0649-.212-1.7974-1.2564-3.0371-1.0977-4.9531,3.0371-.7456,2.8262,3.6113,3.3721,5.2978.4995,1.5406,1.3784,3.0225,1.9736,4.521.687,1.7295,1.1514,3.6709,2.0059,5.333.4428.8643,1.1318,2.3794,2.0844,1.8672,1.7964-.9653.2393-3.8354-.2783-4.9521a39.75663,39.75663,0,0,1-2.9712-8.0108c-.4565-1.9482-1.5254-5.1411-.561-6.9985,1.3281-2.5527,3.7988-.4268,4.8198,1.1147,1.041,1.5704.9077.9219,2.3482-.2358,1.4648-1.1763,1.8798-1.0464,2.9145.2412.562.7012,1.1201,1.4839,1.7891,1.355.8842-.1709,2.0205-1.8574,2.9189-2.312,1.3237-.6709,3.9185-.8257,4.7236.7158.7417,1.4224.0962,4.4658-.2294,5.9028-.2813,1.2398-2.063,4.772-1.1978,6.001,1.3784,1.9585,5.8794-1.1245,6.3584-2.73.9697-3.2549-1.1724-7.1113,3.5664-7.373,1.2158-.0679,3.2866.105,3.7861,1.3935.5171,1.3379-1.1245,2.0279-1.0947,3.0928.0449,1.6514,4.3535,1.0615,5.5176,2.6914.353.4951.2422,1.3867.7588,1.7486.4018.2817,1.6631.0375,2.1557.0791,1.1768,2.2402-1.9834,5.4682-2.8183,7.4248-.4107.9648-1.9151,2.4047-2.022,3.351a1.61627,1.61627,0,0,0,2.5884,1.4693c1.4468-1.0469,1.998-4.4307,3.8276-4.8584.252,3.0786-1.6128,5.1567-2.9424,7.8247a9.63252,9.63252,0,0,0-1.0708,4.9306c.045.5332.1397,2.2124.8638,1.9756.5581-.1811.6509-1.9585.7661-2.4238a49.48517,49.48517,0,0,1,3.4707-9.1909,23.27349,23.27349,0,0,1,5.4522-7.3081,2.11937,2.11937,0,0,0,2.9092.1391c.831-.9209.7856-2.6225,1.1757-3.7544a7.18367,7.18367,0,0,0,.3936-2.4707c-.0029-.7309-.5215-1.4892-.4702-2.0688.0605-.6655.9355-1.377,1.1489-2.0181a8.61016,8.61016,0,0,0,.1738-2.9316c-.0044-.333-.4746-.5093-.3755-.895.0577-.2222.5699-.3941.6934-.6509a5.9901,5.9901,0,0,0,.6733-1.7549,11.62263,11.62263,0,0,0-.0981-4.583c-.3726-1.6475-.9785-3.0547-1.4648-4.6699-.3106-1.0313-.9751-2.9517-.2793-3.9449.5053,1.439,2.8066,2.2203,2.414-.0288-.2583-1.4819-1.8296-2.8569-1.4848-4.5,1.9018.0972,1.4589-.7285,1.0273-2.0503-.4888-1.4936.0542-1.2119.6772-2.5112.875-1.831-.9848-4.8564.5484-6.4223.8418-.8609,1.7412-.4644.6401-2.0635-.5664-.8213-1.664-1.0239-.5229-2.0674,1.3891-1.2676,1.3755.2783,1.6323,1.1811.3779,1.3282,1.1147,1.0337,2.42629,1.1553.33591,2.458,3.7187,2.6138,5.3691,3.6026.5923.3564,2.0142,1.0688,1.8657,1.9682-.1118.6797-1.8794,1.5821-2.4546,1.8384.001.9194.7896.5312,1.3121.8457.225.1357.666-.0254.86761.2808.22069.3369-.36911.4824-.25.7905.55369,1.4326,1.336.8462,2.919,1.227,1.146.2759,6.06689,2.2837,6.32609-.0503Z" transform="translate(-31.29038 -21.89699)"/><path class="cls-8" d="M122.7119,38.5464c.272-.4204.4331-.8814,1.07569-.9951a2.79986,2.79986,0,0,1,2.0098.3979,12.3346,12.3346,0,0,0,1.8979.5728c2.2359.8022,3.0542,2.5112,4.5606,4.1347.5332.5752,1.2119.938,1.7934,1.4712.76271.6968,1.4839,1.4458,2.2925,2.0679a37.60271,37.60271,0,0,1,4.5615,3.9106,1.552,1.552,0,0,1-.1831,2.4644,2.79778,2.79778,0,0,1-2.187.3203c-1.5405-.2861-2.7183-1.5024-3.7588-2.6084a15.0212,15.0212,0,0,0-4.7075-3.3872,35.50549,35.50549,0,0,1-4.6856-2.2471c-.7202-.4648-.9804-1.1186-1.5937-1.6172a16.22771,16.22771,0,0,0-1.916-1.1733c-.6499-.3789-1.4224-.4536-2.0752-.8184-.7573-.4243-.4141-1.1455.3017-1.4755.6949-.3218,1.4927-.0787,2.169-.5396A1.6291,1.6291,0,0,0,122.7119,38.5464Z" transform="translate(-31.29038 -21.89699)"/><path class="cls-8" d="M114.9795,41.7065c.8398.3848,1.7988.3765,2.6352.7798a5.0119,5.0119,0,0,0,3.2754.7979c-.0761-.77-1.3764-.7466-.9336-1.5957a7.25064,7.25064,0,0,1,2.3565-.5562c.4473-.021,4.77929.4014,2.89309-1.1211.83-.3359,2.4453-.4951,3.06-.9975.5708-.4663.207-1.0411.4883-1.5298.3223-.5591.8911-.7349,1.34961-1.1641,1.47849-1.3901.25929-1.4189-1.06981-.5566a4.46494,4.46494,0,0,1-3.3745,1.0249,7.63435,7.63435,0,0,0-.3809-1.8135c-.1504-.2764-.4023-.4575-.5464-.7412-.1811-.3574-.2016-.7876-.3476-1.1607a5.71477,5.71477,0,0,0-.6231-1.1811,17.03569,17.03569,0,0,0-2.33929-3.333,15.47854,15.47854,0,0,0-4.212-2.1397,10.41665,10.41665,0,0,0-4.6835-.8237,23.857,23.857,0,0,0-4.8858.6943,27.30448,27.30448,0,0,0-4.9756,2.3687,7.61591,7.61591,0,0,0-2.1689,1.5469c-.4619.4917-1.2984.9922-1.582,1.5766a8.72208,8.72208,0,0,0,2.1772-1.3794,18.07322,18.07322,0,0,1,3.0288-1.8711,18.90263,18.90263,0,0,1,3.7222-1.0459,19.84935,19.84935,0,0,1,4.9839-.5961,17.107,17.107,0,0,1,4.8051,1.2739,7.49544,7.49544,0,0,1,3.669,2.5654c.3764.5483.5537,1.1899.9033,1.7564a7.77044,7.77044,0,0,1,.9849,2.3789c.19919.8813.72309,1.9546.13329,2.7802-.2754.3838-1.16259,1.0581-1.59919.562-.1879-.2133-.1215-.7949-.2133-1.0742a4.27606,4.27606,0,0,0-.6744-1.1914,14.49289,14.49289,0,0,0-1.8061-1.8823,10.427,10.427,0,0,0-4.2095-1.9629,11.58436,11.58436,0,0,0-9.0425,1.0967,8.85763,8.85763,0,0,0-1.7441,1.0469,9.87066,9.87066,0,0,1-1.7603,1.247c.3091.2007,1.503-.5698,1.9073-.7031.7192-.2358,1.4585-.4761,2.1753-.7158a15.0142,15.0142,0,0,1,8.4643-.1792,9.19866,9.19866,0,0,1,2.7866,1.3857c.8511.6548.8277,1.6416,1.9107,2.0503-.0772.8472.2749,2.501-.4985,3.0908a3.61168,3.61168,0,0,1-2.6841.1011,8.37157,8.37157,0,0,0-2.7095-.977c-.3481-.0542-1.2783-.1451-1.3018.3051-.0214.4395.8995.6807,1.2012.8682.4185.2617.7598.5996,1.1738.8472A2.95723,2.95723,0,0,0,114.9795,41.7065Z" transform="translate(-31.29038 -21.89699)"/><path class="cls-8" d="M114.4165,44.4448a43.25121,43.25121,0,0,1-5.1548,7.3985c-1.1543,1.3989-2.3037,2.7504-3.5879,4.0346-.622.6211-3.4311,2.5454-3.5566,3.4131-.1401.9492,1.3921,2.6177,1.5444,3.5313.2808,1.6787-1.8271,2.3545-2.9306,3.0883-1.2823.8501-2.1163,1.836-3.5801,2.4654-1.3643.5844-4.021.7348-4.9585,1.8496.7607.6743,1.2534,1.6142,2.0503,2.2344.7895.6152,1.8896.562,2.6372,1.1723,1.8828,1.5327.5464,6.0049,3.144,6.8872.607-1.0254.21-2.4453.1011-3.5522-.1606-1.6441-.2568-3.2315-.2837-4.8799.0537.6582.668,1.707,1.3442,1.728,1.2994.042,1.0298-1.5991,1.3462-2.5312.9605-2.8272,3.9263-.3819,4.2632,1.563.3584-.9883.271-4.6314,1.6197-4.2173.5942.1811,1.7846,2.4868,1.9277,3.1108.2856,1.2354-.0664,2.6563.0351,3.9194.0982,1.2378.6817,4.2779,2.19,2.4283,1.6909-2.0742-.6397-6.4009-1.232-8.4961-.3476-1.229-1.4541-3.4707-.2241-4.4668,1.086-.8804,2.7129.0669,2.584-2.0742-.0395-.6573-.4653-1.3643-.5727-2.0171a7.152,7.152,0,0,1,.1855-2.0059c.1362-1.6406-.5977-3.0083-.8804-4.457.4908-.0279,1.0166-.0532,1.5074-.0718.08-.9385-.3775-2.9185.08-3.7261.75-1.3296,2.4707-.4629,2.23-2.4795a1.50064,1.50064,0,0,0,1.0293-2.4472c-.7744-.9112-2.3618-.4116-3.3052-1.4019Z" transform="translate(-31.29038 -21.89699)"/><path class="cls-8" d="M97.8281,61.9311c2.9107,1.356-3.2011,2.4024-4.0859,2.4761-3.689.3115-7.4463.2134-11.1641.2134a65.4645,65.4645,0,0,1-15.4009-1.3433c-4.7812-1.1645-8.9326-.3388-13.5229.8824a11.38555,11.38555,0,0,0-4.8711,3.2124,2.38686,2.38686,0,0,0-.897,1.6821,2.76645,2.76645,0,0,1-1.0019,2.0132c-1.3335,1.4648-2.0962,3.3608-3.5205,4.707-1.5542,1.4688-4.4785,2.7983-4.9141,4.9468,1.2358.2197,3.5889-1.7754,4.6279-2.4761,1.7549-1.1777,3.3575-2.8091,4.9834-4.1587a17.04608,17.04608,0,0,0,3.7554-3.8618,6.15276,6.15276,0,0,1,4.2754-2.8857,5.56427,5.56427,0,0,0,.3022,2.1806c.753-.0405,1.4649-.7007,2.1636-.8354-.0918,1.9673.564,1.7485,2.0181,1.7998.1933.7724,1.0234,3.6157,2.0664,3.5781,1.1567-.0405,1.2856-2.7427,1.7178-3.3936a1.87151,1.87151,0,0,1,1.8711-.8896c1.146.1538.7299.4756,1.0966,1.3433.7276,1.7197,1.4756,1.3291,3.1621.9184.4898.9492,1.8311,1.8692,2.9136,1.1651.4815-.314.4258-1.0328.875-1.3658a3.18891,3.18891,0,0,1,2.0845-.2685c1.647.1758,1.501,1.2778,2.8589,1.9668a7.0039,7.0039,0,0,0,3.8164.9507c1.8208-.3052,1.0849-1.3164,2.0683-2.189a2.48215,2.48215,0,0,1,2.9234.3799c.6216.7212.8511,2.1592,1.5102,2.9761a7.25273,7.25273,0,0,0,3.0972,2.4038c.1172-1.3423-.6572-3.7745.9326-4.0274,1.5767-.2505,2.9195,1.7979,3.5352-.6572.3789-1.5137-.0767-2.3535,1.3901-3.3189a20.48389,20.48389,0,0,0,3.6358-2.4716c.7031-.7022,1.7358-2.4283,2.6362-2.7559.6719-.2441,1.521.0586,2.2519-.208,1.1138-.4063.75-.5186,1.3335-1.356.6744-.9697,1.69-1.7675,2.4717-2.7236.6392-.7827.4737-.7519.398-1.5127-.0747-.7583-.7891-1.1626.1132-1.7729.273.1836.5474.0639.8013.1567.6294-1.4902-.3872-2.8184.543-4.2183.5727-.8598,1.5371-1.3911,2.1304-2.2988.4565-.6987,1.7924-2.4956,1.8603-3.2998.1323-1.5405-1.9126-1.7261-3.1499-1.8052-2.23-.145-3.6084,1.626-4.708,3.3628-1.3252,2.0952-2.9443,4.003-4.21,6.1011-1.6948,2.812-3.3144,5.7578-6.5503,6.9004Z" transform="translate(-31.29038 -21.89699)"/><path class="cls-9" d="M111.8389,42.979a5.57715,5.57715,0,0,1,1.7861-.3457,4.74733,4.74733,0,0,1,2.1685.7212,8.26137,8.26137,0,0,1,1.7465,1.3486,12.1588,12.1588,0,0,1,2.2652,3.7105,11.49739,11.49739,0,0,0,2.7617,4.0078,3.61277,3.61277,0,0,0,.81929.748c.3492.1919.815.1133,1.1236.2989.67621.4116.55221,1.4868.2954,2.1044a.24822.24822,0,0,1-.0244-.1543,8.76843,8.76843,0,0,1-.7159,2.1485.13434.13434,0,0,1-.1035-.0479c-.6093.8638-.4717,2.1953-.9966,3.1407-.04679-.0191-.13329-.0269-.20059-.0577-.4322.8814-.334,2.1187-.8448,2.9175a.14428.14428,0,0,0-.1025-.0522,7.25448,7.25448,0,0,1-.7202,2.4761,1.9675,1.9675,0,0,1-.1738-.1651c-.483.8628-.417,1.9424-.7989,2.8311a2.14518,2.14518,0,0,1-.018-.2398,12.31936,12.31936,0,0,0-.5039,3.4126c-.1441,1.0298-.6358,2.2417-.6973,3.3042-.0088-.0737-.0225-.1753-.0225-.2412-.2871.9429-.7524,1.9268-.9765,2.876a22.012,22.012,0,0,1-.4703,2.5757c-.2592.7168-.4106,1.476-.6474,2.1933-.4556,1.3741-.7905,2.8301-1.2964,4.1753a10.07532,10.07532,0,0,1-1.4688,3.0215,7.113,7.113,0,0,1-1.0786,1.2632c.003-.3301-.145-.6299-.1377-.9605a17.45525,17.45525,0,0,1-2.7451,4.4307c-1.104,1.1245-2.479,1.6685-3.1352,3.2134a36.81,36.81,0,0,0-1.4722,5.8027c-1.5151,6.4033-1.5952,13.0557-1.5952,19.6275a25.70085,25.70085,0,0,0,.1963,5.5605,12.59637,12.59637,0,0,1,.7812,3.0767c-.6284-.3584-1.5898.1557-2.1733.4306a7.13412,7.13412,0,0,0-1.8125,1.4468,3.29261,3.29261,0,0,1-.7969.604c-.4512.0317-.4546-.4248-.6006-.7768a8.432,8.432,0,0,1-.6743-2.4707c-.352-3.5503.0982-7.25.0982-10.8047,0-2.4688-.1983-4.8775-.1983-7.3291,0-1.9204.2974-3.8643-.1782-5.7012a11.19151,11.19151,0,0,0-.7744-2.8999,2.08064,2.08064,0,0,0-1.0874-.9151c-.6861-.3007-.7295-.4907-1.1021-1.2075-.6855.4395-.9482,1.5576-1.7495,1.9756a6.22035,6.22035,0,0,0-.9409-1.5171c-.7241.3648-1.1958,1.293-1.9243,1.7412-.1656-2.7714-1.6026-.6762-2.7012.0044.0234-2.1679-1.2119-1.1352-2.229-.6723-.7007-1.6577-1.7183-1.6109-2.9146-.4522.1089-6.268-9.5224,1.0518-12.121.4351a23.96125,23.96125,0,0,1,.1611-2.6216c-1.3901.144-1.0689-2.4868-2.6118-2.2349-.5523.0884-1.5401,2.2403-1.6533.2027-1.0796.3657-1.7657,2.2934-2.2139,3.2754a1.83034,1.83034,0,0,0-.4937-1.4214,14.50007,14.50007,0,0,0-2.185,6.8047,14.9557,14.9557,0,0,1-.898,5.2827c-.4184,1.001-1.6743,2.8403-.8847,3.8642a2.00947,2.00947,0,0,1-.2344,1.3868c-.9229-1.5064-.7617-4.6768-.9092-6.4927a52.98808,52.98808,0,0,0-.7095-5.75c-.145.3413-.2304,1.0473-.4477,1.5317-.5591-.6421-.6245-1.7344-1.2964-2.4214-.1548.0684-.2998.0957-.4492.1768-.669-.7744-1.041-2.9805-1.9727-3.083a2.63036,2.63036,0,0,1-.2119.397,3.96372,3.96372,0,0,0-1.3638-2.1514c-.063.2007-.1953.3384-.2622.5088-.748-1.1724-1.4297-1.6182-1.7378-2.9868-.4565-2.0206-1.0092-4.0445-1.4008-6.0586-.2916-1.5044.3584-4.1363-.4439-5.4331-.978-1.5835-2.1123.2324-2.7012,1.2641a22.99451,22.99451,0,0,1-.4736-2.8017c-.5464-.0074-.6816-.0386-.876.5717.1323-.7724-.0693-2.603-.605-3.0444a1.12619,1.12619,0,0,1-.2368.3521c.0054-3.0494-3.4721,2.0063-3.8608,2.5346-1.2041,1.6377-2.4121,3.4531-3.7593,5.0835a17.63953,17.63953,0,0,1,.8447-6.4277c.7032-2.6563.4844-5.4546,1.7837-7.8989,2.9073-5.4693,7.2759-11.8931,12.5708-15.2461a40.64409,40.64409,0,0,1,6.6758-3.3081c1.6177-.6475,4.5073-2.2945,6.3369-1.585,1.146.4434,1.2974,1.855,2.2266,2.543,1.5054,1.1137,4.0561.6113,5.8315.6113a77.72032,77.72032,0,0,0,10.5435-.4482,20.73012,20.73012,0,0,0,4.5967-1.188c3.9174-1.4776,7.4165-3.8545,10.8828-6.1592a38.65792,38.65792,0,0,0,4.8911-3.2334,33.69,33.69,0,0,1,4.835-3.2901,7.67081,7.67081,0,0,1,1.7153-1.0498C110.5234,43.4687,111.1787,43.1958,111.8389,42.979Z" transform="translate(-31.29038 -21.89699)"/><path class="cls-8" d="M114.7695,39.3457a8.08765,8.08765,0,0,1,5.4141,3.1011,5.56186,5.56186,0,0,1,.8633,3.1748c.0991,1.4433-.2007,2.2959,1.3813,1.5322,2.458-1.1875,3.6348.5332,5.68069,1.7197.2905.1675.9272.3975,1.0156.7764.1548.6709-.915,1.0039-.1641,1.5415.6744.4844,1.0425-.4424,1.6514-.4575.8281-.0205.6436.541.93021,1.1308.19769.4087.59419.7232.82569,1.1182.289.4927.2944.8438.748,1.1948a8.06209,8.06209,0,0,0,2.8731.897c1.291.3115,2.0864.8184,3.4414.2954a3.751,3.751,0,0,0,2.3867-2.5742c.9175-3.4883-1.8477-7.1528-4.2964-9.3081a22.30877,22.30877,0,0,0-4.6289-2.9849,3.72771,3.72771,0,0,1-1.2739-.9761c-.3775-.4926-.3433-1.1171-.8203-1.4145-1.3326-.8311-2.9346.6636-3.6558-1.1255-.26659-.6616-.2134-1.3476-1.1543-.8994-.3574.1694-.5005.6113-.7852.8579a3.2024,3.2024,0,0,1-1.2812.6431c-1.29739.4926-2.44189,1.4233-3.76809,1.9428a5.42747,5.42747,0,0,1-2.394.2613c-.6626-.0542-1.8853-.4248-2.3916,0Z" transform="translate(-31.29038 -21.89699)"/></g><path class="cls-10" d="M125.08059,46.54c.7412.3203.9941,1.2525,1.5605,1.7818a4.68792,4.68792,0,0,0-1.2588-.4097c-.623-.0352-1.3081.4927-1.9248.2666-.2026-.0747-.95259-1.0283-1.251-.5815A2.457,2.457,0,0,1,125.08059,46.54Z" transform="translate(-31.29038 -21.89699)"/><path class="cls-10" d="M136.64159,52.9956a1.897,1.897,0,0,1,2.478.896c-.3369.397-1.1167.2935-1.5073.125-.5215-.2251-.5547-.6572-.9707-.9219Z" transform="translate(-31.29038 -21.89699)"/><path class="cls-10" d="M132.25679,53.4936c.7115.9761,2.2886,1.1172,3.38721,1.3003.941.1558,2.93709.7383,3.86629.2041.1215.6104-.8526.941-1.2749.9869a6.48033,6.48033,0,0,1-2.1968-.398c-.6763-.187-1.2212-.5557-1.8882-.7202a4.41237,4.41237,0,0,1-1.6939-.875Z" transform="translate(-31.29038 -21.89699)"/><path class="cls-6" d="M137.23879,56.4829c-1.6109-.0894-2.98779-.9302-4.2115.5762-1.0605,1.3047-.9047,3.0278-.8652,4.6748a4.67719,4.67719,0,0,1-.4448-2.9497,2.89508,2.89508,0,0,0-.7534,2.351,2.89392,2.89392,0,0,1,.3593-2.9658,2.773,2.773,0,0,0-1.2587,2.4678,5.60769,5.60769,0,0,1,.37451-2.2842c.21139-.4702.78219-1.563,1.29-1.7495-.56981-.1396-1.14261.8491-1.37111,1.2388a2.75523,2.75523,0,0,1,.793-1.6377,1.48645,1.48645,0,0,0-1.5645.9438c.0323-.3359.2935-.5781.4571-.8896a4.67613,4.67613,0,0,0,.4267-.8692c-.1186-.6806-1.5088-.3969-1.8628.0039a6.28561,6.28561,0,0,1,3.7432-.101,7.72948,7.72948,0,0,1,1.7998.5141c.57961.2505,1.2368.2998,1.7934.5762Z" transform="translate(-31.29038 -21.89699)"/></svg>