<svg xmlns="http://www.w3.org/2000/svg" xmlns:xlink="http://www.w3.org/1999/xlink" viewBox="0 0 97.66903 83.47246"><defs><style>.cls-1{fill:none;}.cls-2{isolation:isolate;}.cls-3{clip-path:url(#clip-path);}.cls-4{fill:#f99f00;}.cls-5{fill:#11573c;}.cls-6{fill:#05452d;}.cls-7{fill:#f67800;}.cls-8{fill:#e00020;}.cls-9{fill:#fff;}.cls-12,.cls-9{opacity:0.2;}.cls-10{fill:#2a1d1b;}.cls-11{fill:#775c58;}.cls-12,.cls-13{fill:#422900;mix-blend-mode:multiply;}.cls-13{opacity:0.4;}.cls-14{fill:#69534e;}.cls-15{fill:#231d1f;}</style><clipPath id="clip-path" transform="translate(-194.16379 -48.52141)"><path class="cls-1" d="M207.20329,62.644c3.2461.622,6.5938,4.0566,8.753,6.479a28.20315,28.20315,0,0,1,5.1098,9.6523c.52,1.5327.7276,3.0625,2.0845,4.2842a11.81486,11.81486,0,0,0,4.4682,2.4853,25.78739,25.78739,0,0,0,5.1045,1.0845c2.0772.1646,3.3169-.7969,4.9971-1.8047,3.2734-1.9609,4.5708-6.4551,6.9082-9.5659,2.7227-3.624,7.583-4.4331,11.8408-5.0518,9.4092-1.3667,18.9375,3.3638,24.7012,10.5787,2.8555,3.5732,5.75,10.2294,5.0039,14.9165-.9023-.6973-1.3144-2.7046-2.1484-3.7701-1.1719-1.4985-2.4004-2.9526-3.58209-4.4829a23.81885,23.81885,0,0,0-3.69531-3.4502c-.8711-.7456-2.1425-2.4467-3.34369-2.2773-.25591,1.2422,1.13869,2.0205.88079,3.2651-2.0839-.1059-3.7304-1.6753-5.4394-2.5869a6.60056,6.60056,0,0,0-3.0918-.9643c-1.9111.3593-.2051,1.6074.7178,2.4023,4.1455,3.5752,7.30561,5.4609,7.3779,11.3408-.46-2.3525-2.6738-4.7744-4.52729-6.1748-1.128-.8511-3.26571-2.8374-4.73051-2.5181.1426,1.1592,2.1474,2.3877,2.7656,3.5816a7.68079,7.68079,0,0,1,.7275,4.6299c-.7988-1.0855-1.8798-1.8242-2.5185-3.0161-.5293-.9912-.6816-2.5288-1.5274-3.3316a3.17014,3.17014,0,0,0-4.01069-.06c-1.333,1.2519.21579,1.875-.02441,3.3496-.39259.0078-.72459.3139-1.1172.3208-.27339,1.08.416,2.3877.4395,3.5283a8.9547,8.9547,0,0,1-.6543,3.5762c-.6309,1.6977-1.9522,4.4907-3.5821,5.4443-.0947-.8823.3867-4.4863-1.3086-2.8433-.4726.4595-.33589,1.7896-.5781,2.3916a8.25121,8.25121,0,0,1-1.5625,2.3081c-.44429-1.1318-.1016-2.7021-.2041-3.9375-1.53219-.3022-1.1299,1.7149-1.8154,2.3243a32.86144,32.86144,0,0,1-.5772-3.5259c-1.1689.5146-1.4453,2.1806-1.6591,3.2759-1.4727-.0552-.5762-2.4063-1.1377-3.0743-1.1075-1.3188-1.5752,1.0088-1.7295,1.8623-.3965,2.1871-1.1651,4.2413-3.7144,4.7828a3.06656,3.06656,0,0,0-.3393-1.8496c-.8965.559-.8345,1.3637-1.3692,2.1171-.7222,1.0176-1.4883.6719-2.3852,1.4175-1.1905.9917-2.0757,4.5528-4.1983,2.9981-.6748,1.5361-1.728-.042-2.66989-.2119-1.96581-.354-2.52,1.6303-1.93071,3.1743a8.70229,8.70229,0,0,1,.44,5.6767c-3.4966-.2861-.8911,3.4668-.8994,5.1826-1.10889-.8754-2.4512-.1123-3.5591.0474a3.52181,3.52181,0,0,0,.1797-.6304,5.88123,5.88123,0,0,1-.6436-.0815c-.7134-1.0986.5166-1.4375.9102-2.3276.41891-.9483.666-5.0586-1.3658-3.6661-1.1157.7652-.2436,3.2583-.0029,4.3096a19.44241,19.44241,0,0,1,.4351,3.5508c-1.6133-2.606-6.8433-.8164-9.0318.0478.0762-.7377.9009-1.1225,1.3682-1.5834a10.644,10.644,0,0,1-2.56889-1.1832,5.41073,5.41073,0,0,1,3.47419-.0546c-.7476-.5181-1.95119-.3169-2.57619-.9571.55319-.6924,1.55859-.4272,2.41449-.476a3.57158,3.57158,0,0,0,2.8091-1.2554c.813-.9053,2.2481-3.2261,2.2007-4.4561-.0547-1.4355-1.584-2.7446-2.15329-4.0342a11.31219,11.31219,0,0,0-2.85111-4.2968c-.789-.7246-1.79389-1.0366-2.5713-1.6602a16.97733,16.97733,0,0,1-1.9448-2.3799c-1.5483-1.8051-3.5981-2.9189-5.2466-4.5337-3.0298-2.9692-4.1108-6.3603-4.7661-10.2231a31.3978,31.3978,0,0,1,.2617-11.6099c.4336-1.935,1.8145-6.208-.1855-7.5991-.7554,1.7993-2.9326.5108-3.3491-.8428-.4375-1.4223.7573-2.7934.4414-4.0595-.3257-1.3052-1.6778-.5913-2.5899.2812-.2886-1.0527.1978-1.6474.9556-2.3003,1.5781-1.3618.7041-1.6899.1206-3.3418-.5581-1.581-.0625-2.3686,1.708-2.4731a2.27184,2.27184,0,0,1-.6533-2.2959c.3076.0649.81-.1402,1.1123-.0781.2368-.6958.5864-1.3516.7969-2.0772,1.6137,1.0318,1.4116-1.4966,1.9155-2.3843,1.0024.7832.19771,4.42,2.3862,3.1338,1.2827-.7539,1.4937-3.9995,3.4751-3.355.0767.7779-.272,2.4239.9351,2.3023.6611-.0669,1.0454-1.3335,1.9155-1.356.1797,1.2408-.5703,1.4146-.6836,2.3365-.1079.8872.6431,1.2778.9165,1.9638a4.99377,4.99377,0,0,1-.0156,3.5464c-.7676,1.5283-2.4058,1.3535-3.7212,2.1138.3721.522.63571,1.4297,1.4033,1.4336Z"/></clipPath></defs><g class="cls-2"><g id="Layer_1" data-name="Layer 1"><g class="cls-3"><path class="cls-4" d="M207.20329,62.644c3.2461.622,6.5938,4.0566,8.753,6.479a28.20315,28.20315,0,0,1,5.1098,9.6523c.52,1.5327.7276,3.0625,2.0845,4.2842a11.81486,11.81486,0,0,0,4.4682,2.4853,25.78739,25.78739,0,0,0,5.1045,1.0845c2.0772.1646,3.3169-.7969,4.9971-1.8047,3.2734-1.9609,4.5708-6.4551,6.9082-9.5659,2.7227-3.624,7.583-4.4331,11.8408-5.0518,9.4092-1.3667,18.9375,3.3638,24.7012,10.5787,2.8555,3.5732,5.75,10.2294,5.0039,14.9165-.9023-.6973-1.3144-2.7046-2.1484-3.7701-1.1719-1.4985-2.4004-2.9526-3.58209-4.4829a23.81885,23.81885,0,0,0-3.69531-3.4502c-.8711-.7456-2.1425-2.4467-3.34369-2.2773-.25591,1.2422,1.13869,2.0205.88079,3.2651-2.0839-.1059-3.7304-1.6753-5.4394-2.5869a6.60056,6.60056,0,0,0-3.0918-.9643c-1.9111.3593-.2051,1.6074.7178,2.4023,4.1455,3.5752,7.30561,5.4609,7.3779,11.3408-.46-2.3525-2.6738-4.7744-4.52729-6.1748-1.128-.8511-3.26571-2.8374-4.73051-2.5181.1426,1.1592,2.1474,2.3877,2.7656,3.5816a7.68079,7.68079,0,0,1,.7275,4.6299c-.7988-1.0855-1.8798-1.8242-2.5185-3.0161-.5293-.9912-.6816-2.5288-1.5274-3.3316a3.17014,3.17014,0,0,0-4.01069-.06c-1.333,1.2519.21579,1.875-.02441,3.3496-.39259.0078-.72459.3139-1.1172.3208-.27339,1.08.416,2.3877.4395,3.5283a8.9547,8.9547,0,0,1-.6543,3.5762c-.6309,1.6977-1.9522,4.4907-3.5821,5.4443-.0947-.8823.3867-4.4863-1.3086-2.8433-.4726.4595-.33589,1.7896-.5781,2.3916a8.25121,8.25121,0,0,1-1.5625,2.3081c-.44429-1.1318-.1016-2.7021-.2041-3.9375-1.53219-.3022-1.1299,1.7149-1.8154,2.3243a32.86144,32.86144,0,0,1-.5772-3.5259c-1.1689.5146-1.4453,2.1806-1.6591,3.2759-1.4727-.0552-.5762-2.4063-1.1377-3.0743-1.1075-1.3188-1.5752,1.0088-1.7295,1.8623-.3965,2.1871-1.1651,4.2413-3.7144,4.7828a3.06656,3.06656,0,0,0-.3393-1.8496c-.8965.559-.8345,1.3637-1.3692,2.1171-.7222,1.0176-1.4883.6719-2.3852,1.4175-1.1905.9917-2.0757,4.5528-4.1983,2.9981-.6748,1.5361-1.728-.042-2.66989-.2119-1.96581-.354-2.52,1.6303-1.93071,3.1743a8.70229,8.70229,0,0,1,.44,5.6767c-3.4966-.2861-.8911,3.4668-.8994,5.1826-1.10889-.8754-2.4512-.1123-3.5591.0474a3.52181,3.52181,0,0,0,.1797-.6304,5.88123,5.88123,0,0,1-.6436-.0815c-.7134-1.0986.5166-1.4375.9102-2.3276.41891-.9483.666-5.0586-1.3658-3.6661-1.1157.7652-.2436,3.2583-.0029,4.3096a19.44241,19.44241,0,0,1,.4351,3.5508c-1.6133-2.606-6.8433-.8164-9.0318.0478.0762-.7377.9009-1.1225,1.3682-1.5834a10.644,10.644,0,0,1-2.56889-1.1832,5.41073,5.41073,0,0,1,3.47419-.0546c-.7476-.5181-1.95119-.3169-2.57619-.9571.55319-.6924,1.55859-.4272,2.41449-.476a3.57158,3.57158,0,0,0,2.8091-1.2554c.813-.9053,2.2481-3.2261,2.2007-4.4561-.0547-1.4355-1.584-2.7446-2.15329-4.0342a11.31219,11.31219,0,0,0-2.85111-4.2968c-.789-.7246-1.79389-1.0366-2.5713-1.6602a16.97733,16.97733,0,0,1-1.9448-2.3799c-1.5483-1.8051-3.5981-2.9189-5.2466-4.5337-3.0298-2.9692-4.1108-6.3603-4.7661-10.2231a31.3978,31.3978,0,0,1,.2617-11.6099c.4336-1.935,1.8145-6.208-.1855-7.5991-.7554,1.7993-2.9326.5108-3.3491-.8428-.4375-1.4223.7573-2.7934.4414-4.0595-.3257-1.3052-1.6778-.5913-2.5899.2812-.2886-1.0527.1978-1.6474.9556-2.3003,1.5781-1.3618.7041-1.6899.1206-3.3418-.5581-1.581-.0625-2.3686,1.708-2.4731a2.27184,2.27184,0,0,1-.6533-2.2959c.3076.0649.81-.1402,1.1123-.0781.2368-.6958.5864-1.3516.7969-2.0772,1.6137,1.0318,1.4116-1.4966,1.9155-2.3843,1.0024.7832.19771,4.42,2.3862,3.1338,1.2827-.7539,1.4937-3.9995,3.4751-3.355.0767.7779-.272,2.4239.9351,2.3023.6611-.0669,1.0454-1.3335,1.9155-1.356.1797,1.2408-.5703,1.4146-.6836,2.3365-.1079.8872.6431,1.2778.9165,1.9638a4.99377,4.99377,0,0,1-.0156,3.5464c-.7676,1.5283-2.4058,1.3535-3.7212,2.1138.3721.522.63571,1.4297,1.4033,1.4336Z" transform="translate(-194.16379 -48.52141)"/><path class="cls-5" d="M243.39519,71.7333c.2617-.1147.0645-.5937.6426-.2788-1.8823,2.9785-5.7554,3.9517-6.8106,7.7769-.5488,1.9882.1216,3.4257-1.78319,4.7153-1.19871.811-2.62841.8896-3.71531,1.7939,1.27931,1.5977,6.1836.5669,8.1978.7334a1.89961,1.89961,0,0,1,0,.9243c-.8623.0821-1.7657.0181-2.62749.1021-.46041,2.0757,2.44289,1.4019,2.63529,2.7666.1509,1.0684-2.46629,1.4146-3.3267,1.3408.1113,1.2339,1.8399,1.2378,2.687,1.9727a5.37146,5.37146,0,0,1,1.6753,3.039c-1.6694.0494-3.3056-.9638-5.0376-.5791-.3222,1.3516,1.1114,1.3731,1.9214,2.085a5.95734,5.95734,0,0,1,1.5181,2.3052,6.58864,6.58864,0,0,1,.9477,2.7334,5.52977,5.52977,0,0,1,.0259,1.7148c-.4868.8184-.9692.2344-1.3989.6675-.9619.9692-.6279.3613-.75149,1.7939-.09031,1.0474.27,2.2618.07469,3.3384-.3208,1.773-2.0859,3.2696-1.9956,5.0757,1.3384.0977,2.5728.2271,3.71291-.6152,1.30079-.961,1.10009-2.9693,2.291-3.8775,1.52149-1.1601,1.46879.0078,2.48439.4434a5.56512,5.56512,0,0,0,4.0977.3413c3.9472-.7969,8.5195.1226,12.3086-1.0938,3.1738-1.019,5.5654-3.8144,8.2168-5.7456,1.5351-1.1186,3.8066-2.5795,3.7832-4.7241,2.2402-.4814,5.0976.4512,7.4472-.062,3.37111-.7358,7.3574-2.4951,9.5078-5.1909,2.3535-2.9492,2.0645-6.2393.416-9.4883a38.09283,38.09283,0,0,0-10.246-12.6421c-2.5196-1.8862-5.3184-3.7182-8.542-3.7573-3.0772-.0376-5.6495-1.5625-8.6172-1.9746a35.33163,35.33163,0,0,0-9.9073.1914c-2.6464.4394-7.7978,1.5981-9.1484,4.1743Z" transform="translate(-194.16379 -48.52141)"/><path class="cls-6" d="M231.09639,101.7978c.9414-.4307,1.1382,3.2749.956,4.4135-1.7866-1.353-2.41939-3.271-4.7382-4.2851.0883.4917-.1304,1.1113-.045,1.5522-.9516-.873-1.6098-2.6797-3.2954-2.3139a8.57539,8.57539,0,0,0-.0503.8725,3.80452,3.80452,0,0,0-1.0351-3.0229c-1.2461,1.5385-1.6187,5.5044-1.4082,7.5215-1.47119-.0997-3.86619-5.4175-5.0659-2.2969-.4195-.438-.9615-1.0171-1.3736-1.4673-.1592.1968-.4336.3701-.61469.6245a13.24141,13.24141,0,0,0-.46831-2.2383.45268.45268,0,0,0-.561.0083c-.0435.1929-.0869.3867-.1304.5801a.45061.45061,0,0,1-.561.0064c-.1387-1.1514-.67429-3.8399-1.8589-3.8477a5.25129,5.25129,0,0,0-1.5298-2.2212c-1.24759,3.5493-3.7842-.3394-4.9521-2.0757-1.3916-2.0683-1.4424-5.0327-2.7164-6.7998a7.90335,7.90335,0,0,0-.9067.5318c-.0361-1.3409-.4643-2.6456-.4517-3.9468-3.09169.0874-2.8452,8.0649-2.6816,10.2051.2642,3.4443,1.8525,9.4287,4.707,11.7094.7471.5967,1.7173.7442,2.3887,1.3599.6577.6035.793,1.6162,1.5215,2.2173,1.5142,1.2505,4.3135,1.9175,6.1562,2.8203,1.5123.7412,8.0298,5.0161,7.8331,6.7803,1.6499-.5425,1.8022.5962,1.727,1.9921.6196-.8325,1.4683-.4794,2.3467-.7895a2.4835,2.4835,0,0,1-.041.7661c.7563.0015.8896.9204.7514,1.7886,1.07231.293,2.0581-.9199,3.3648-.9893,1.1963-.0634,2.5986,1.0313,3.3471-.7431.6539-1.5503-.6669-1.6475-1.2211-2.6573a5.58936,5.58936,0,0,1-.7076-3.705c1.1299-.1011,4.106-.7735,4.7476-.1695a5.44063,5.44063,0,0,0-.7354-3.4883c.92291-.1684-.518-2.646-.6552-3.5605-.2232-1.4785.4404-3.5796-1.0171-4.4492Z" transform="translate(-194.16379 -48.52141)"/><path class="cls-7" d="M206.84,63.8759c1.86579,1.6753,3.42479,3.0742,3.36379,5.7558-.3457-.0644-.9136.1661-1.2607.1021-.2315,1.5928,2.5366,2.2051,1.9463,4.333-1.2173.0923-1.1739,1.4233-.9146,2.3897,1.8364.4057.7564,3.8154.9575,5.2607.2041,1.4644,1.793,6.3257,3.3648,6.3696.37791-2.7104-1.08109-5.0405-2.2115-7.4272,2.96641-1.0064,1.6978,3.6489,3.9195,3.6704a2.897,2.897,0,0,0-.24809-2.2085c.92089.4907,2.88329,1.2183,3.33059,2.2539.478,1.1055-.4585,2.1226-.0498,3.167.6455,1.6499,3.7261,4.5591,5.5151,4.6465.4038-1.9151-4.4253-3.1836-3.37889-5.4395,1.09179-2.3554,3.13189,1.4614,4.753.9893-.56351-4.4854-7.44151-6.3164-6.73741-11.5191,1.6363.1236,4.794,5.9141,6.5416,4.4966,2.395-1.9429-3.6504-7.3413-4.96-8.2138-2.4683-1.6441-4.3379-4.1851-6.5098-6.1333-1.1426-1.0259-1.8276-1.9952-3.3305-2.502-1.09089-.3677-2.9815-.0298-3.7486-.6743Z" transform="translate(-194.16379 -48.52141)"/><path class="cls-8" d="M196.93279,63.5341a2.28418,2.28418,0,0,1,1.59721-.3335c-4.49951-1.6528-3.78961-7.0112-1.61481-10.6162a6.49881,6.49881,0,0,1,2.751-2.6465c1.0396-.2998,1.6743.4087,2.7329.2803,2.4258-.295,3.44391-2.0293,6.167-1.6402,4.17291.5962,8.562,3.4942,7.1743,8.4829-.5088,1.8306-2.48139,3.1939-4.1089,3.7486a12.87724,12.87724,0,0,0-2.3139.7602c-.8257.4356-.99859,1.1075-2.0762,1.2393-.438-2.6973-5.102-3.2017-6.8325-1.9483-.812.5879-.9854,1.7383-1.4263,2.6734Z" transform="translate(-194.16379 -48.52141)"/><path class="cls-8" d="M202.79949,70.4247c1.103-.27,3.4888-2.1225,1.0093-2.5254a3.19451,3.19451,0,0,0,.5815-2.9399c-.1884-.0401-.3779-.0786-.56729-.1162a7.87121,7.87121,0,0,0-.13191-.9414,5.80947,5.80947,0,0,0-.3257,1.624q-.28558.06-.5722.1157c.0351-.0063.372,1.6475-.9995,1.5982-1.0914-.0391-1.4976-1.9141-2.7525-1.9449a22.93613,22.93613,0,0,0-1.6894,3.1597,3.44274,3.44274,0,0,0,.9301,3.3545,3.38215,3.38215,0,0,0,2.8164.9184C202.13589,72.4594,202.59829,70.474,202.79949,70.4247Z" transform="translate(-194.16379 -48.52141)"/><path class="cls-9" d="M204.44889,77.5414c.8643,1.8218.6958,4.7485,1.0249,6.7568a16.37562,16.37562,0,0,0,3.01321,7.147c-.25151-2.4341-2.25831-4.6865-2.00491-7.3095.6792,1.145.8716,2.4672,1.6568,3.5512.3056-1.832-.5703-4.29-.63189-6.268.20709.2895.51029.496.71629.7856-.0737-.4795.09771-1.0454.0518-1.4775,1.6943,2.0161,3.9385,10.8764,6.71291,10.7758.74949-3.6743-8.165-10.7797-4.81691-13.5927.707,1.5947,1.4004,3.7343,3.167,4.3789,1.10791-1.3824-.9868-3.8081-1.7998-5.0132a9.43124,9.43124,0,0,1-1.98-4.3965c1.1538,1.3604,2.6968,4.5342,4.7476,4.2671.5835-2.356-1.8321-4.1006-3.09089-5.7373-1.22021-1.5855-2.28171-4.0303-3.96481-5.1069-.3897,3.8271,2.2637,6.583,1.9302,10.5034-1.44239.334-2.0562-1.0962-2.6045-1.9712-.354,1.2002.4663,2.1582.2129,3.3374-1.876.4946-2.5747-2.6607-2.73879-4.002a.48122.48122,0,0,0-.56881-.0014c-.7906,2.2534.88181,3.8017.6264,6.1064Z" transform="translate(-194.16379 -48.52141)"/><path class="cls-9" d="M215.67989,78.8476c-.9043-.0039-1.4893-.9068-2.2954-1.2871-.66649,2.2822,2.6401,4.4082,2.978,6.4111-1.4521.3052-2.6582-1.2515-4.0122-1.6118-.022,2.3779,3.606,3.4214,2.9795,6.4292-1.7871-.5796-2.6797-2.6538-3.71579-4.0723-.93511-1.2803-1.64991-1.8569-2.45951-3.0762a20.38823,20.38823,0,0,0-1.18749-2.1508c-.60741-.6827-1.39161-.5498-1.83451-1.607-.4336-1.0366.0244-4.3481.0244-4.8315V74.705c.0845-1.6939-.5781-3.3272-.2817-4.9751,1.4956.0405,1.7573,3.501,2.605,4.6328.415-1.6494-.8594-5.5415-1.6563-6.9497a1.91383,1.91383,0,0,0,.6402,1.4824c-.4844-.5566-1.0337-4.2153-1.3008-5.1616C209.04369,68.9154,212.32249,73.9652,215.67989,78.8476Z" transform="translate(-194.16379 -48.52141)"/><path class="cls-9" d="M211.62319,68.3173c-.15819-.125-.1616-.5967-.29-.1074,4.3032,6.0405,8.7837,12.0854,12.562,18.4848-1.5654.4366-3.53119-1.084-5.0718-1.2519.377,1.3213,1.8638,2.3037,2.6724,3.3222a4.0247,4.0247,0,0,0-1.9629-.2397,2.06971,2.06971,0,0,0,1.1773,2.3726,3.05529,3.05529,0,0,0-2.544-1.0049c-.51119,2.1323,1.6323,3.8476,2.3057,5.6933-2.2437-.2158-5.5781-1.8711-7.7656-2.7295-.1338-1.8325-1.8672-3.1411-2.7637-4.6142a21.98549,21.98549,0,0,0,2.6606,1.8183c-.2373-1.4257-1.583-2.518-1.9521-3.9516a18.14353,18.14353,0,0,0,5.3696,4.2934c-.1665-2.2583-3.0049-5.4472-4.2861-7.3667,1.7661.878,2.6313,3.149,4.2871,4.045-.7359-2.2735-2.74269-4.2178-3.9361-6.3428,1.5791.8061,2.5347,2.3599,4.2691,2.9175.46531-1.9405-1.166-2.7803-1.8775-4.3799.8365.5161,1.57481,1.2695,2.5684,1.2871-.0601-3.0049-4.6318-5.2012-4.3975-8.4878Z" transform="translate(-194.16379 -48.52141)"/><path class="cls-9" d="M219.82249,83.0077c3.25051,2.3931,7.7963,3.4234,10.8037,5.8931-2.38719,1.9687-4.2515-.022-6.585-.3672.936.8623,2.1777,1.1953,3.1587,1.9888-.2544.0815-.5327.3056-.8345.4018-.2397,1.6294,1.5703,1.4932,2.3467,2.4014.8652,1.0142.606,2.1323,2.0166,2.8882a10.27324,10.27324,0,0,0-.9648-.8067c.4804,1.3047,1.4126,2.5425,1.2798,3.9712-1.6148-.6543-2.9869-2.727-3.72069-4.31a10.65759,10.65759,0,0,0,1.00529,3.2866c-1.9809-.7871-3.0537-3.7993-5.0298-4.0298a2.98433,2.98433,0,0,0,.5718,2.2954c-1.3442-.5796-2.5078-2.2461-4.0054-2.2969a5.86,5.86,0,0,0,.1729.9576c-3.5781-2.3589-8.3877-4.5791-8.021-9.5137,1.3101.4116,2.5649,2.229,3.9541,2.9629,1.499.791,3.0693,1.436,4.4834,2.3564.0469-1.9165-2.979-4.9502-3.9194-6.7641,1.915,1.3086,5.2495,4.562,7.3437,4.7812-.0854-1.915-3.0913-2.5498-3.373-4.3882Z" transform="translate(-194.16379 -48.52141)"/><path class="cls-9" d="M228.70529,88.1322a9.82335,9.82335,0,0,1-1.3408-.9555,6.86028,6.86028,0,0,1,6.0883,3.9873,4.43835,4.43835,0,0,1-2.2949-.9395c.05811,1.2837,2.0664,2.9693,2.6367,4.355-1.207.0264-2.3081-1.1162-3.3374-1.6294.4654,1.7188,2.7915,3.0752,3.7984,4.6553.9326,1.4629,2.333,4.6094,2.2461,6.2173-1.5196-.7915-2.1133-2.7696-3.9112-3.4165,2.8316,2.7568,2.5293,5.3525,2.6221,9.1279-1.6543-1.8057-1.314-3.8657-2.0737-5.9273.039.2686-.0118.545.0156.8155a29.50177,29.50177,0,0,0-1.8086-3.6226,1.80389,1.80389,0,0,0,.4678,2.2271c-.72169-.7217-1.2823-1.9927-2.3819-1.8677.1861.5688.0806,1.0669.68221,1.5425a8.28629,8.28629,0,0,0-2.09181-2.6289c-1.1226-.7569-1.9566-.2994-3.0738-.7261-1.7968-.6865-2.8593-2.9277-4.3213-4.0811a11.93641,11.93641,0,0,0,4.2764,2.0567c.0679-1.5293-1.7456-2.5938-1.9546-4.0137a18.24609,18.24609,0,0,1,5.3794,1.5186,33.4178,33.4178,0,0,0-4.3784-5.2769,13.39342,13.39342,0,0,1,5.3857,2.5615c-.1445-1.249-1.6127-2.7168-2.5605-3.6543a3.85173,3.85173,0,0,1,1.9302.3579Z" transform="translate(-194.16379 -48.52141)"/><path class="cls-9" d="M232.507,93.6317c.75929,1.5997,2.72169,2.6778,3.62849,4.4258a17.75345,17.75345,0,0,1,2.0834,5.3965c-1.4111-.0434-2.56589-2.4912-3.6635-3.3296.8657,1.7139,2.4331,3.605,1.9492,5.728a.46409.46409,0,0,1-.55859,0c-1.34621-4.4477-2.78371-9.3925-7.11181-11.5966a17.465,17.465,0,0,0,1.8013.7334,11.48614,11.48614,0,0,1-2.9034-4.0713,3.36484,3.36484,0,0,0,2.2295,1.2182c-.4687-1.8222-2.3774-2.4712-3.3237-3.8789,1.8638-.2876,4.4497,1.1436,6.1094,1.9512.5371.2617,2.61571,1.0181,2.7632,1.7095.2763,1.2925-1.9327.5532-2.5933.0971.4209.8873,1.11081,1.6124,1.4853,2.5074A3.69864,3.69864,0,0,1,232.507,93.6317Z" transform="translate(-194.16379 -48.52141)"/><path class="cls-9" d="M230.75509,87.7899c1.9551-.3037,3.3354.9244,5.0132,1.3746a6.82386,6.82386,0,0,0-3.2779.4101c1.001.8765,2.0205.7354,3.3135.8731a24.37462,24.37462,0,0,1,3.124.4922c-1.3291.8481-3.5776.6215-5.3286.6005,1.2315.3116,4.126.3096,4.0376,2.0083,2.0225.2857,2.5518,1.0035,2.2915,3.0708-2.1113.2774-3.1533-3.0058-5.7309-2.2612,1.3388,1.3198,4.374.2637,5.4047,2.2461a18.88427,18.88427,0,0,1-7.0629-.6846c-2.3311-.8437-3.837-3.5996-6.5401-3.7627.84081-.5337,2.5562-.1704,3.7129-.3442a17.39939,17.39939,0,0,1-1.9106-1.3047,6.33988,6.33988,0,0,0,2.9262.2876c-1.5932-1.7197-4.13769-2.8013-5.7456-4.5771a7.71248,7.71248,0,0,0,3.2784.9135c-.5523-.2778-.9659-.7553-1.4844-1.0669,1.7041-.0527,5.3535.0718,6.3701,1.3833Z" transform="translate(-194.16379 -48.52141)"/><path class="cls-9" d="M230.07149,86.4237c2.4961,1.3262,7.2344,1.0835,10.146,1.0074a13.25522,13.25522,0,0,1-5.2593.6831c1.1602.6025,2.4463.0786,2.502,1.75a9.15649,9.15649,0,0,1-2.6133-.3755c-.8477-.127-1.668.0884-2.3662.0273-1.93069-.1679-4.6011-.4194-6.1153-1.811.0855-.2051.1763-.3779.2901-.5982Z" transform="translate(-194.16379 -48.52141)"/><path class="cls-9" d="M203.424,75.1493c-.07131,3.0991-2.16061,8.4722-.75781,11.9302a31.08457,31.08457,0,0,1,1.1167-4.3105,34.506,34.506,0,0,0,.0508,4.5761c.3198-.6084.6558-1.2373.9746-1.8247a22.381,22.381,0,0,0,2.3901,10.708c.0459-2.1841-2.5488-6.584-.08439-8.0615.27729,2.1689-.06011,5.1206,1.35739,6.77.376-1.7246-.2393-3.8623-.2725-5.6845a14.95921,14.95921,0,0,0,1.7329,5.267,11.28986,11.28986,0,0,1,.0513-2.2592c1.5083,1.5756,2.2398,5.6513,3.44091,7.8022.60109-.8472-.19331-2.667-.71631-3.6279.3819,2.5351,3.0049,5.1118,4.3115,7.3096.48881-2.5308-2.6167-5.5489-2.2529-8.334,1.55371,2.3359,1.709,6.5488,4.3228,8.0424-.1778-.4829-.2676-1.041-.4878-1.5527a4.9228,4.9228,0,0,0,1.854,1.9229c-.0049-.2891.0581-.5918.0415-.8985a3.579,3.579,0,0,0,.9761,2.1865c.102-1.1176-.4317-2.0537-.2828-3.2109-.0068,1.4155,1.5044,2.6074,1.9727,3.9971.55221,1.6377.3926,3.4834,1.1177,5.0229-.5957-2.9716-2.2447-6.5991-2.083-9.6845,1.5507,1.8501,2.3921,4.1064,3.6206,6.0019-.3853-1.7143-1.12409-3.3091-1.5699-4.9931a4.71032,4.71032,0,0,0,.7915,1.9174c1.1792-1.5634-1.3911-4.2256-2.4863-4.9946-3.1841-2.2349-6.1181-2.6431-7.89739-6.4731a12.0755,12.0755,0,0,1,1.63129,2.1674c-1.1875-1.5742-1.7178-4.0429-3.2295-5.2578a4.141,4.141,0,0,0-.4599,2.5835c-1.5206.0708-2.4346-3.8022-2.7657-5.061-.4018.6763-.1137,2.0366-.5254,2.687a27.03288,27.03288,0,0,0-1.8022-6.019,6.21,6.21,0,0,1-.3223,1.4838c-.7744-1.2793-.8681-3.309-1.9741-4.2871q-.0762.3084-.1519.6172c-1.9672-2.1543.3082-6.6069-1.2905-8.5083Z" transform="translate(-194.16379 -48.52141)"/><path class="cls-9" d="M198.98259,61.8256c-.9419.5254-2.4204-3.1025-1.10059-4.064a9.73916,9.73916,0,0,0,1.36619,2.6709,7.56714,7.56714,0,0,0,.4683-1.9697c.8174-.0332,1.4722.2681,2.2896.2358.19091-2.1323-.1758-4.9096,2.3916-5.7295.6245,2.4332-2.1094,5.2061-1.6065,7.7789,1.5254.3125,1.4507-1.2959,2.2564-2.0806,1.0883-1.0615,2.184-.6475,1.1435,1.0732,1.7153-.4082,2.9434-2.0644,4.6973-2.5693.5093,2.0098-.8633,2.7231-2.3399,3.7231-.6079.4122-3.4731,1.9146-1.8169,2.2456-1.5107-1.6547-7.2607-3.3989-8.4741-.622q.00377.3765.3838.333Z" transform="translate(-194.16379 -48.52141)"/><path class="cls-9" d="M199.948,68.2572c-.49081.0533-.75691.4117-1.24811.4595-.5215.9902-.417,2.2456.8989,2.2813a4.0544,4.0544,0,0,0,.4595-1.9449c.6855.0826,1.2622.1524,1.9478.2368.0556-.8496-.04009-1.0976-.9473-1.3896.8789-1.8774,1.3603.4814,2.0151.3638.9995-.1807,1.6216-1.3985.39211-2.0889.42969-.6768,1.42869-1.0747,1.97269-1.5405a4.11564,4.11564,0,0,0-2.6465-.7071c.1626,1.5943-.4214,2.0669-1.5659,1.8008-.5825-.1352.0322-1.6802-1.3404-1.396-.4345.0899-.9707,1.565-1.1435,1.9053C199.03289,66.3383,200.80239,68.1654,199.948,68.2572Z" transform="translate(-194.16379 -48.52141)"/><path class="cls-9" d="M203.08269,84.7157c0,3.9742.1724,7.2334,1.794,10.9326,1.1694,2.668,3.6347,7.9209,6.6098,8.9141-.6333-1.435-2.165-2.8213-2.2031-4.4292,1.3652.1138,1.8271,2.186,3.064,2.9097a21.12873,21.12873,0,0,0-2.1236-3.5171c1.4605,2.7861,7.5855,7.6431,10.8648,7.7436a5.74315,5.74315,0,0,1-2.939-2.686,7.08457,7.08457,0,0,0,1.9111.5791c-1.457-1.5068-3.0615-1.9717-4.4062-3.7056-1.2232-1.5771-2.95949-2.6782-4.2969-4.1088-2.581-2.7608-2.5683-7.4771-4.2695-10.897-1.0742,1.875.0932,5.8086.7256,7.7773-.3736-.3457-1.2046-.6557-1.605-.9453a2.97461,2.97461,0,0,0,.3242,2.2612c-1.853-3.267-2.1924-7.059-2.7671-10.4873Z" transform="translate(-194.16379 -48.52141)"/><path class="cls-9" d="M232.46309,86.4237a12.82682,12.82682,0,0,0,9.1308-3.1606c2.6597-2.4009,4.0533-6.0576,7.26811-7.687a13.97487,13.97487,0,0,1,11.69139-.5108c3.72661,1.5669,9.2705,4.001,11.5039,7.482-5.5537-5.1553-13.1181-7.9634-20.4707-6.0308a14.49323,14.49323,0,0,0-7.4228,4.5347c-.7471.956-1.127,2.0317-1.8789,2.9712-.8726,1.0903-2.4663,1.8852-2.9888,3.0844Z" transform="translate(-194.16379 -48.52141)"/><path class="cls-9" d="M242.029,89.4984a22.814,22.814,0,0,0,5.81739-3.8432c2.4687-2.1714,4.26761-2.6465,7.5918-2.6475a20.701,20.701,0,0,1,10.0879,2.3809c1.9824.9858,6.414,3.0166,6.8554,5.4512-3.9013-3.2237-9.18549-4.9756-14.3046-5.7056-5.6465-.8047-10.1465,1.8223-14.33989,5.3891Z" transform="translate(-194.16379 -48.52141)"/><path class="cls-9" d="M246.81119,91.89c.8145-1.4531,4.2569-1.3574,5.7344-.9555,2.127.5776,3.6621,2.5303,5.0791,4.0473-5.0303-.1752-10.9961-2.0712-15.59569.6665Z" transform="translate(-194.16379 -48.52141)"/><path class="cls-9" d="M242.029,99.7475c1.47949-1.1685,5.37209.3476,6.72169,1.6401-2.9971.229-6.2954-.9375-9.4546-.957Z" transform="translate(-194.16379 -48.52141)"/><path class="cls-9" d="M234.17109,95.6483c6.5127-4.7539,15.0854-9.5678,23.3081-9.5664,4.3125.0015,7.84381,1.9917,11.7539,2.6817-2.6152-5.148-10.4453-5.2124-15.1709-3.9722-3.78219.9932-6.791,3.1826-10.2568,4.791a18.70383,18.70383,0,0,1-8.60939,1.6245Z" transform="translate(-194.16379 -48.52141)"/><path class="cls-9" d="M251.59439,89.4984c4.0645,0,8.1905-.4892,11.9473,1.3487a24.793,24.793,0,0,1,8.1074,6.122c-4.4922-1.1845-7.99609-4.5087-13.1367-4.7456-5.8027-.267-12.3223-.2495-17.8496,1.7168Z" transform="translate(-194.16379 -48.52141)"/><path class="cls-9" d="M237.92939,98.0395c2.0952.1757,4.6079-1.545,6.833-1.7261a29.99773,29.99773,0,0,1,9.2422.4448c3.8555.9736,8.5723,2.5703,10.7949,6.0112-3.1308-.6694-6.375-2.9375-9.7637-3.6191-5.8984-1.186-14.2832-2.749-20.1811-1.1108Z" transform="translate(-194.16379 -48.52141)"/><path class="cls-9" d="M259.79369,70.3671c2.7021,1.4233,7.1347,1.0967,10.164,2.0322,3.2881,1.0147,6.7051,2.5327,9.0625,5.0572,2.3242,2.4907,6.6543,7.5307,5.6543,11.3315-2.8594-1.9243-4.7226-6.6289-7.4316-9.1206-6.2832-5.7827-13.0987-5.8843-21.2071-5.8843Z" transform="translate(-194.16379 -48.52141)"/><path class="cls-9" d="M237.92939,79.9325c1.6191-2.0483,4.6523-3.9282,6.7393-5.4736a18.64106,18.64106,0,0,1,9.9248-3.417c5.0986-.3496,10.417-.2612,14.3212,3.7065-1.8281.1661-3.8164-.7231-5.6972-.8891a26.76107,26.76107,0,0,0-9.23149.5996c-8.97751,2.4062-14.66651,7.7676-18.79,16.0644Z" transform="translate(-194.16379 -48.52141)"/><path class="cls-10" d="M217.08959,121.6127a.30908.30908,0,0,0,.3339.3916c.8516-.7778,1.4327-2.0669,2.3243-2.7427.0424.2041.0893.4082.1411.6099.9956-.7217,1.09711-2.6567,1.3574-4.0088q.2841-.05865.5688-.1152a3.34652,3.34652,0,0,1,.4927-1.1885c.5664,1.2143-.0952,2.331-.0156,3.5347a10.111,10.111,0,0,1,.9565-1.8189,10.08115,10.08115,0,0,1,.13431,5.7202c.54-.6474.82619-1.3559,1.30959-2.039,1.3095.8222,1.643-2.3033,3.3359-.6661,1.0069.9747.0874,3.7339.3272,5.063.2485,1.3799,1.9751,2.9366,1.1328,4.4502-.9546,1.7168-4.4063,1.8179-5.9951,2.1104-3.33739.6157-12.0108,2.7241-13.5772-1.4434-1.541-4.0996,2.7603-6.3457,4.78181-9.2246Z" transform="translate(-194.16379 -48.52141)"/><path class="cls-11" d="M200.37959,64.3857a3.64256,3.64256,0,0,0-1.8955,2.2417c-1.5713-.9073-2.6109.9155-3.9028,1.1943-.2999-.4761.0571-1.0391-.4175-1.395.0996.0747.5737-.1245.6826-.1675C194.36589,63.7504,199.08419,62.0785,200.37959,64.3857Z" transform="translate(-194.16379 -48.52141)"/><path class="cls-9" d="M198.54219,64.4149a.59428.59428,0,0,1-.1387.0093q.3165-.00075.6328-.0005h-.2016a2.67012,2.67012,0,0,1,.3896.0088c.0249-.0229.4653-.3452.4766-.3589a4.49132,4.49132,0,0,0,.5005.0088c.1333-.0024.268.0005.4013,0-.0493.0005-.0981,0-.1469-.0009q.29445.0021.5888.0141c-1.0127-.4551-2.353-1.6064-3.5893-.9184-.836.4663-1.3491,2.5649-1.2427,3.4502a.18728.18728,0,0,1-.1582.0346C196.529,66.0082,197.64229,64.5741,198.54219,64.4149Z" transform="translate(-194.16379 -48.52141)"/><path class="cls-12" d="M210.61049,68.164a6.081,6.081,0,0,0,.2344-.981c1.168-.2427,1.7559,1.4444,1.7085,2.3389a1.10015,1.10015,0,0,1,1.0503,1.6142c.19731.0425.3936.0913.5889.1446-.6782.6137.1118,2.9013.25141,3.7417.17139,1.0293,1.69239,3.1748,1.24709,4.0981a6.17882,6.17882,0,0,1,.7222.2388c-.1528.4868-.03029.3559.0224.7851a2.59182,2.59182,0,0,1-.2368.2144,3.98427,3.98427,0,0,0,.7315.1196.42247.42247,0,0,0-.2823.1275.87294.87294,0,0,0,.15091.1455c.523-.8994-.27591-2.5645-.42431-3.3506.0322-.0059.9336.1206.606-.0049.5918.4409.6811,1.3281,1.17431,1.9287.59319.7236,1.48479,1.0274,1.88179,1.834.74221,1.5059,1.2735,3.523,2.6348,4.6177a.2394.2394,0,0,1-.1875.1841,2.13625,2.13625,0,0,0,.5893-.043c-.6445-.5923-.2978-1.6768-1.3315-2.0742a2.00255,2.00255,0,0,0,.4829-.1909,3.05809,3.05809,0,0,0-.94379-.7911,1.50866,1.50866,0,0,0,.56-.0161,1.67594,1.67594,0,0,1-.42431-.4668c1.0806-.0879,1.4741,1.3824,2.084,1.9859a3.17547,3.17547,0,0,0,2.67631.5205c-.86671-1.1392-2.356-1.2583-2.899-2.8609-.41261-1.2168-.938-2.3545-1.395-3.5947-.52491-1.4248-1.05571-2.8252-1.54591-4.27-.2554-.7525-.4419-1.4922-.7695-2.2207a6.60113,6.60113,0,0,0-.5073-.8994c-.1768-.2793-.8067-.2593-.2701-.4151a11.46233,11.46233,0,0,1-1.9926-1.2426c-.5664-.4873-1.0323-1.3501-1.7124-1.5879a4.69673,4.69673,0,0,1,.4785-.1675c-1.4058-.2446-2.4839-2.648-4.0235-2.6895a1.53282,1.53282,0,0,0,.57381-.0337c-1.28671-.166-1.814-1.9946-3.17241-2.1958.1572.0044.3149.0074.4722.0093a15.74473,15.74473,0,0,0-1.7637.1646,5.59991,5.59991,0,0,1,1.6382,2.625C209.42009,65.8622,210.63839,68.0102,210.61049,68.164Z" transform="translate(-194.16379 -48.52141)"/><path class="cls-13" d="M224.88639,116.5033c.3579.0347.1787.022.1743.0122q.2835.0015.566.0127c-.2535-.4365.125-1.105-.418-1.4258.2002-.0502.3989-.1035.5981-.1577-.665-.4492.1905-1.5073.3623-2.0659a.46991.46991,0,0,0-.2724-.1289q.29.00435.581.0083a.89557.89557,0,0,0-.1445.0083,3.89661,3.89661,0,0,0,.8716-.3965.38282.38282,0,0,0-.2759-.123,1.65627,1.65627,0,0,0,.356-.1294.71916.71916,0,0,0-.1905-.085,2.22586,2.22586,0,0,1,.5845-.1284c-.12689-.0522-.2563-.1216-.3721-.1753.24121.0073.4829.0112.7246.0132a.49262.49262,0,0,1-.2866-.1333c.6538-.4131.0015-.79-.29-1.2212a.91818.91818,0,0,0,.2944.1602.61359.61359,0,0,0-.1367-.0108q.2937.00225.5869.0132a6.39221,6.39221,0,0,0-.8159-.3623,1.14668,1.14668,0,0,0,.4766-.0259c-.689-.2124-1.0166-.7729-1.6558-1.0366.24271-.0654,1.3662-.7119,1.6558-.606.4961.1802.6601,1.2837.29,1.5147a2.32608,2.32608,0,0,1,.7358.021,2.723,2.723,0,0,0-.2861.2739,1.186,1.186,0,0,0,1.5459.1626c.00731-.0937-.04-.1411-.1416-.1411a1.32388,1.32388,0,0,1,.584.2217c-.3779.2763-.26509.4013-.2725.7939a.88966.88966,0,0,0,.982-.3159,1.50307,1.50307,0,0,0-.2403-.2183q.36706-.0651.7271-.1572a2.2687,2.2687,0,0,0-.4688-.8428c.1182.0386,1.1812.3907.4629.0518.6646.9429.7647-.9302,1.5606-.9082.0556-.7197.2402-1.9565-.6197-2.2036q.3033.0051.606.0215c-.896-.2852-.0752-1.2398-.7725-1.5591a1.75684,1.75684,0,0,0,.5977-.0156c-.5474-.4053-.22559-.9683.0132-1.4605a1.28071,1.28071,0,0,0-.1031.9937,5.373,5.373,0,0,0-.7348-.064q.6723.47895,1.3857.8975a4.08228,4.08228,0,0,0-.59859-.0215c.269.7827,1.668,3.4829.63519,3.958a1.74876,1.74876,0,0,1,.5967.0161c-.2217.1504-.3506.3989-.5947.5381a1.9771,1.9771,0,0,0,.5967.1167.45441.45441,0,0,0-.3247.1616c.2212.4702.6982,1.2915.0683,1.5625.1963-.0083.3931-.0171.5889-.0254a.22541.22541,0,0,0-.1885.1836.26148.26148,0,0,0,.2583.1841c.00781.0024-.126-.0337-.1391-.0137-.0186-.0054.5854.0122.5844.0127-.248-.227-.1631-.2856-.3794-.5332a2.6217,2.6217,0,0,0,.7364-.0161,3.395,3.395,0,0,1-.334-.3218c.498-.5605,1.164-1.7383.4092-2.3569.1997-.0195.3989-.0396.5986-.0586-.3442-.3965-.1675-.3735-.1748-.6406a1.58068,1.58068,0,0,0,.748.8481c-.3349-.0239.33451-.0918.4419-.1743-.1489-.1958-.0258-.1441-.0888-.3252.7192.5034,1.0005-1.1597.7031-1.3901q.301.0066.603.0034c-.2051.0044-.4145.0005-.6191,0a3.82579,3.82579,0,0,0,.6567-.0293,3.51022,3.51022,0,0,0-.4868-.3218,1.71873,1.71873,0,0,0,.606-.0166,9.50628,9.50628,0,0,1-.5567-.8325q.375.2058.7383.4336a2.65457,2.65457,0,0,0-.32909-.5567c.147.3521.34229.7237.24759.9903.2329.1103.5356.2524.4023.145a1.63592,1.63592,0,0,1,.31011-1.1358,2.13835,2.13835,0,0,0-.60311-.3452q.68567.30255,1.37311.6006a2.06224,2.06224,0,0,1-.542-.3056c.12989-.148.19579.0019.03809-.1631.23291-.0279.4472-.147.6811-.1704-.15619-.0498-.3183-.1446-.4863-.1807q.2973.0066.5947.022c-.24359-.5596,1.1192-1.2984.0977-2.2798q.29957-.0747.5976-.1577c-.7324-.5415.0659-1.6509-.5937-2.3189a7.29462,7.29462,0,0,0,.5703.479c-.2373-.1426-.4907-.3818-.7266-.5395q.38745.02265.7754.0268a1.988,1.988,0,0,1-.6401-.0434,1.84034,1.84034,0,0,1,.6167-.1284.4342.4342,0,0,1-.31689-.1622.80881.80881,0,0,0-.49611-1.0839q.23145-.08865.4692-.1578c-.7099-.3554-.52-1.2094-1.1093-1.5117a1.59588,1.59588,0,0,0,.5937-.02,2.25051,2.25051,0,0,1-.2861-.2969,2.07673,2.07673,0,0,1,.7588.5147,1.152,1.152,0,0,1-.6104-.1416c.523.249,1.0401.5093,1.563.7593a1.14539,1.14539,0,0,0-.606-.1421,4.38728,4.38728,0,0,1,1.0835,3.229.30294.30294,0,0,0,.3413.1577,1.02037,1.02037,0,0,0,.2022,1.021c-.0273-.812.1616-2.0957-.5171-2.562a2.202,2.202,0,0,1,.4888-.1431,6.82073,6.82073,0,0,0-1.0337-.625,11.50013,11.50013,0,0,0,1.4053.5566,1.26064,1.26064,0,0,0-.6797-.2836c-.0069.0209-.1055.3715-.1089.3823a4.12484,4.12484,0,0,1,.814.0429,7.29284,7.29284,0,0,0-.8536-.1308,11.80737,11.80737,0,0,0,1.127.7261,2.23617,2.23617,0,0,0-.0098-.2911c-.07609.3897.043.4258.21291.7725a.65511.65511,0,0,0-.12791-1.04,2.78176,2.78176,0,0,1,.58891-.3003c-.09871-.3848-.06651-.7398-.38091-1.0323.25-.039.4961-.0913.7402-.1543a2.88783,2.88783,0,0,1-.334-.3032,2.39824,2.39824,0,0,0-.29-2.3691,4.43747,4.43747,0,0,0,.8535.7031.51441.51441,0,0,1-.1103.1675c.9492-.0796,1.2129.9341,1.7802,1.5029a2.18656,2.18656,0,0,1-.2451.2129,4.04012,4.04012,0,0,0,.73241.1206.48594.48594,0,0,0-.28221.1192,8.196,8.196,0,0,1,.9815,1.9423.29839.29839,0,0,1-.2735.1709q.296-.0153.5899-.0224a.46168.46168,0,0,0-.2774.1553c.9688-.6939.041-2.1211-.5107-2.7256.1885.1372.3799.2695.5742.3989a5.30355,5.30355,0,0,0-1.4072-1.7593c.0293-.0058.5888.0025.5957.0039.3906.4287,1.6133.8677,1.499,1.4219a1.96943,1.96943,0,0,1,1.6846,1.3281.40312.40312,0,0,1-.1817.208c.1944.0533.38681.1089.5801.1675-.21.3945-.0117.6763.0899,1.1397a2.06337,2.06337,0,0,0-.545-2.2955,1.5315,1.5315,0,0,1,.4356-.2924,2.4246,2.4246,0,0,1-.9297-.6153.53939.53939,0,0,1,.4463-.2417c-.7119-.3037-.98339-1.0439-1.3106-1.6484.4258.1748,1.3789.4814,1.28321.8613a.7853.7853,0,0,1,.48929-.2895c.1484.1797,1.25,1.1806.3535.5634.4414.3008.9697.4434,1.4356.7066-.0577.2305,1.58,1.4189.55861,1.9404.25579.064.51949.2896.79879.3413a4.56167,4.56167,0,0,1-.63479.3125c.209-.0073.418-.0122.62889-.0141-.209.0019-.416.0068-.625.0132.2998-.063.3584-.253.5196-.3589a1.89521,1.89521,0,0,0-.3379-.2124c.1992-.0498.39941-.1031.5976-.1577a.9172.9172,0,0,1-.3281-.8409c-.3672-.042.8291.2359.7002.1875.2861.4815,1.2822.7119,1.8701.8374-.2715-.8471.1934-2.7856-.7959-3.2798a1.32418,1.32418,0,0,0,.5752-.1831,5.12278,5.12278,0,0,1-1.5723-2.164,4.68176,4.68176,0,0,1,1.8145.6523c.5488.2906,1.1289,1.1841,1.6826,1.2154.0957-.5459-.0244-1.2574-.6533-1.3897.0625-.0571.1504-.231.2461-.3257-.8701-.6782-1.3848-1.4927-2.4746-1.8569a.85651.85651,0,0,0,.4394-.0303,3.51615,3.51615,0,0,1-1.4092-.4819c.2012.0039.8956.0097.8623.0078-.0683-.0112.754.0063.59581.0039a1.99374,1.99374,0,0,1,1.93159.1294.75407.75407,0,0,1-.1035.0801,3.3923,3.3923,0,0,0,.7148.1245c-.1074.0019-.1562.0586-.1494.1704a1.51379,1.51379,0,0,1,.68651.7383.46357.46357,0,0,1-.27341.1274c.1982-.0014.3965,0,.5937.0039-.9062-.5942-1.2089-2.1015-2.0058-2.914a3.68746,3.68746,0,0,0-2.8526-1.1973c.5235-.0518,2.0713-.0737,2.3233-.3496.9961.1758,2.6035-.5537,3.8027.0176-.0488-.0054-.0986-.0103-.1484-.0137a2.228,2.228,0,0,1,.6152.0395c.1387.3038.61531.5987.6826.8282-.2822.1245.5196.0215.5205.0215a.98826.98826,0,0,1-.1347.2744c.0508.1196.2324.1338.29291.2505a1.053,1.053,0,0,0-.23731.1743,3.81582,3.81582,0,0,0,.7549.1323c-.2148-.0005-.43059-.0044-.6445-.0117a2.213,2.213,0,0,1,.6543.0337,1.127,1.127,0,0,1-.1338.2705c-.002.4033.3008.3696-.1201.7749a3.47166,3.47166,0,0,0,.7402.1162.49285.49285,0,0,0-.3379.1621c.584.8999,2.24321,4.2793,1.3047,5.188a2.13745,2.13745,0,0,1,.7363.1914c-.4492.5386.0079,1.2739.03721,1.9355a14.179,14.179,0,0,1-.51181,2.9556,14.92375,14.92375,0,0,1-1.0254,3.7847c-.3066.6826-2.33879,3.1391-2.17379,3.4502-1.74221,1.2929-3.12891,3.9008-5.21781,4.5947a.62248.62248,0,0,1,.253.1528c-2.03319.5606-4.1211.4287-6.1856.774-1.39059.2324-2.5664.4555-3.8115-.2998.4033.1347.8037.2802,1.1982.437-1.2382-.5909-2.3964-1.7676-3.8584-1.6343-.1142.0727-.9238.3384-1.2255.542-.7305.4941-1.0313,1.4199-1.8711,1.7646.1069.1577.1015.5142.2578.6895-.57909.3227-.44,1.0195-1.10109,1.1137q.21538-.0036.43069-.0083a4.17682,4.17682,0,0,1-1.8672-.2978q.613.27165,1.2046.5894c-1.0303-.211-1.1822.1816-1.9956.2622-.6104.0605-.2173.3203-.8506-.0235-.3833-.2075-.3848-.7842-.8545-1.0127a3.24106,3.24106,0,0,0-1.3701.0049q.22035.08865.4399.1797a5.15782,5.15782,0,0,0-2.3569,1.2803c-.5816.4809-.9429,1.0595-1.8355,1.2475q.23655-.011.4727-.0185a2.278,2.278,0,0,1-2.1382-.1363,6.38006,6.38006,0,0,0-.5161.4961,2.05157,2.05157,0,0,1,.6396.0157,3.82167,3.82167,0,0,0,.0244.8374.42354.42354,0,0,1-.32319.1718,2.02484,2.02484,0,0,1,.64009.0162c-.561.9907.4385,3.7041-.6362,4.2539a1.73229,1.73229,0,0,1,.5982.0156c-.8023.6592.2055,2.0805-1.5,2.0664a1.32991,1.32991,0,0,0,.4497.1338,3.06353,3.06353,0,0,0-.7989.0327,1.19365,1.19365,0,0,0,.4126.1377c-.6308-.085-1.1484.27-1.7856.1748.2554-.1982-.92289-.981-1.48589-.853.21049-.0508.41359-.1382.62459-.1885-.2095.0024-.4195.0058-.6289.0093q.3141-.0015.6274-.001c-1.2612.3315-.8262-1.082-1.8135-1.375.2061.0034.4126.0058.6187.0088q-.315.0036-.6289.0088c.2002-.0376.3935-.1319.5903-.1802a3.22675,3.22675,0,0,1-.625-.1235c.0474-.0196.2935-.2364.3428-.2603-.4556-.3027-.1377-.2173-.3174-.6533a.43037.43037,0,0,0-.3164-.1665,1.75925,1.75925,0,0,0,.5981-.0166,8.96043,8.96043,0,0,1-.56979-2.1631c.28609.1372.63429.2119.91109.3662-1.4458-.9556-.7124-2.3862.835-2.6426C224.70039,119.2607,226.04609,117.1244,224.88639,116.5033Z" transform="translate(-194.16379 -48.52141)"/><path class="cls-12" d="M225.49379,98.5214a2.41364,2.41364,0,0,1-.9472-1.2832c.9575.1684,1.90041,1.6142,2.6806,2.3091a2.54146,2.54146,0,0,0-.3354-.9434c.7773-.0884,2.4731,2.4795,2.7187,3.168a3.86628,3.86628,0,0,1,.022-.6006c1.5684-.4224,2.3281,4.8218,2.3906,5.7544.8472-.0483.9747,1.4145,1.1797,2.0742.1978.6362,1.042,1.7051.815,2.3701-1.2383-.1806-1.9854-1.9184-3.1939-2.0009a2.01836,2.01836,0,0,0,.4732.9628c-1.6856.2212-3.8008-2.0952-4.7652-3.2016-1.5185-1.7427-3.414-3.2363-4.7104-5.1323.2812-.8282-1.39649-2.2261-1.9282-2.8516.061.1011.13671.3227.1958.4487.249-.6592-1.0664-2.7661-1.2412-3.7451a19.70135,19.70135,0,0,0-.7261-2.8999,8.1451,8.1451,0,0,1-.29979-3.249c.04389-.5108.374-1.0415.38769-1.4946.0136-.4537-.3462-.7759-.5406-1.2417a.63229.63229,0,0,1,.6392-.1402c.188.0278,1.1968,5.1406,1.333,5.6753a6.09389,6.09389,0,0,0,2.0508,3.4585c-.0903-.2075-.12109-.4648-.2188-.6772C222.72629,96.4633,224.33559,97.2382,225.49379,98.5214Z" transform="translate(-194.16379 -48.52141)"/><path class="cls-13" d="M204.15889,64.9364c.9795-.0454.4453,1.4839.49511,2.0533.07229.8164.94389,1.4956.67479,2.5288-.7861.0605-.459,1.3066-.521,1.8906-.0732-.0859-.36079-.2227-.4404-.3062-.3501.7881.0957,2.1026-.6836,2.5308-.061-.1665-.19679-.3208-.2554-.4858-.7231,1.2749-.5249,2.9096-1.1523,4.2011.0117-.9765.1035-1.9184.1831-2.8481a2.96244,2.96244,0,0,0-.13719-1.2378c-.11381-.3164-.66511-.7173-.69091-1.0205-.0484-.5811.5986-1.3696,1.0327-1.7984.3877-.3828,1.9848-1.1269.5298-1.4472.2309-.0977.4736-.3863.6489-.4741-.0659-.0284-.21049-.1475-.3369-.1997-.0157-.4766.3227-.879.48241-1.337a3.0914,3.0914,0,0,0,0-1.708Z" transform="translate(-194.16379 -48.52141)"/><path class="cls-13" d="M197.28,57.6391c.55519.8125,1.84569,1.3618,2.57469,1.9848.3994-1.1357-1.1851-1.4394-1.3442-2.3779-.0376-.2231.3559-.2734.3608-.4985.0078-.315-.2427-.5894-.1817-.8584.1626-.7154.3721-.77,1.1695-.7173a5.448,5.448,0,0,1,.333-.6406,6.80773,6.80773,0,0,0,.4175,2.5312c.8008-.5747-.9517-3.2622.6157-3.3769a2.92954,2.92954,0,0,0,.5034,1.6733c.07331-.604-.0024-6.4644,1.7119-4.4307,1.09041,1.2925-.25,4.6128-.1064,6.1294.6426-.0971.6089-1.4775,1.3071-1.8437.0479.3735.041.7803.05471,1.1567,1.77489.3374,1.40429-5.6919,4.38959-4.9009.2056,1.2832-1.3901,3.0782-1.8149,4.2823-.3608,1.0229-.0102,1.3842.688.5161.5796-.7207,1.05031-1.5279,1.6738-2.2627.6128-.7227.8067-1.4551,1.6997-1.8408.96981-.418,1.9063-.0264,1.4082,1.0337-.6025,1.2817-3.2075,1.9804-3.0952,3.6855.15281.0127.3237.0601.4741.0586-.3344.5518-1.15429.7012-1.5024,1.3027,1.22311.1216,1.9868-1.6836,3.5425-1.4814.1035.9565-1.0196,1.0224-1.2105,1.811-.1782.7373.7608.9336-.1675,1.7129-.9638.8081-2.9067,1.0254-3.5312,2.2236a9.30342,9.30342,0,0,0,3.7402-.0991c2.0098-.539,2.9024-2.0444,3.7622-3.9238.7388-1.6177,1.3389-5.0811.3028-6.7031a6.068,6.068,0,0,0-3.5528-2.0874,19.2431,19.2431,0,0,0-8.8813-.2984,5.26727,5.26727,0,0,0-3.3779,1.8731C198.33469,52.4311,196.35659,56.287,197.28,57.6391Z" transform="translate(-194.16379 -48.52141)"/><path class="cls-13" d="M202.10909,78.2582c-.8443.7935-.8482,2.8335-1.0249,3.9663a34.687,34.687,0,0,0-.51219,5.3892,21.55174,21.55174,0,0,0,3.62549,12.6719,11.13778,11.13778,0,0,0,4.4018,3.7148c1.1402.5747,1.5962,1.7007,2.562,2.6089a7.49837,7.49837,0,0,0,1.8784,1.5796,6.28693,6.28693,0,0,0,1.8877.291,12.657,12.657,0,0,1,2.8633,1.0161c-.1391-1.4097-1.9668-2.3511-3.0469-3.0478-.831-.5357-2.8652-1.3521-2.7021-2.5455.686-.1645,1.0879.4839,1.8345.2808-.8736-1.6704-5.30319-3.0874-4.7383-5.4087,1.3105.1929.2729-1.0166-.0264-1.3838-.79149-.9736-1.5566-1.9624-2.43749-2.8642-1.54691-1.5821-1.24661-2.9693-1.52831-5.0386-.2021-1.48.2896-3.5181-.168-4.9146a11.86783,11.86783,0,0,1-.8144-2.0839,13.09753,13.09753,0,0,1-.1636-2.6397c-.2036.2583-.4209.2617-.6601.4409-.1778-1.5263.935-3.956.1821-5.2646A17.88214,17.88214,0,0,1,202.28,77.0624Z" transform="translate(-194.16379 -48.52141)"/><path class="cls-9" d="M203.30489,71.2558a8.27911,8.27911,0,0,1,0,3.3989,17.7189,17.7189,0,0,1-.854,4.4575,15.45143,15.45143,0,0,0-.5127,4.6196c0,1.1748-.3111,2.9976.1709,4.0357.19191-.5249.1186-1.0718.3418-1.5923a13.40908,13.40908,0,0,1,.5215,3.1836,35.32891,35.32891,0,0,0,.8872,3.7583,12.25811,12.25811,0,0,0,4.747,6.0923c.0547-1.2417-1.0595-3.336-1.642-4.4063.6313.5733.9331-.0517.9169-.6616-.02-.7246-.8632-1.7104-1.12249-2.396a9.82867,9.82867,0,0,1-.34571-4.5547c.4761.7071.7031,2.8384,1.9892,2.4849.2334-1.8921-1.35449-4.1431-1.89449-5.9517a17.13449,17.13449,0,0,1-.81591-6.3198c.249-3.0171,1.6655-6.043.8286-9.0298-.2183.1426-.4531.0845-.6621.4297a10.42158,10.42158,0,0,0-.68359-3.0146c-.18211-.731-.102-2.4058-.98731-2.5391-.1416,1.6562,1.0498,2.7646,1.1704,4.3809a12.207,12.207,0,0,1-.355,2.936c-.1147.6846.0742,2.0098-.3706,2.5449-.0679-.0688-.3603-.2163-.4389-.3061a5.58278,5.58278,0,0,1-.3765,2.207Z" transform="translate(-194.16379 -48.52141)"/><path class="cls-9" d="M204.67059,76.2089c-1.6143,2.7212-.9551,6.9287-1.0327,10.0005.4614.3467.1704,1.0054.8325,1.0786a4.22937,4.22937,0,0,1,.2095-.9512,4.4682,4.4682,0,0,0,.5376,2.6558c.1186-.0601.3179-.0679.4399-.1333a19.31631,19.31631,0,0,1,1.4131,3.5307c-.0806-2.6484-.8901-5.1967-1.0327-7.8208-.0869-1.602.5449-2.621.0376-4.3076a14.49346,14.49346,0,0,1-.3799-4.6972c0-.9126.3472-3.1807-.1704-3.7964Z" transform="translate(-194.16379 -48.52141)"/></g><path class="cls-14" d="M203.48509,64.0024a.78345.78345,0,1,1-.7832-.7837A.78348.78348,0,0,1,203.48509,64.0024Z" transform="translate(-194.16379 -48.52141)"/><path class="cls-15" d="M203.18819,64.0024a.4866.4866,0,1,1-.4863-.4869A.4865.4865,0,0,1,203.18819,64.0024Z" transform="translate(-194.16379 -48.52141)"/></g></g></svg>