<svg id="OBJECTS" xmlns="http://www.w3.org/2000/svg" xmlns:xlink="http://www.w3.org/1999/xlink" viewBox="0 0 453.10499 399.7238"><defs><style>.cls-1,.cls-13,.cls-16{fill:none;}.cls-2{fill:#240b61;}.cls-20,.cls-22,.cls-3{fill:#fc782c;}.cls-4{fill:#c44861;}.cls-5{fill:#a38be0;}.cls-18,.cls-6{fill:#ffe6b5;}.cls-7{fill:#4115b0;}.cls-8{fill:url(#New_Pattern_Swatch_2);}.cls-17,.cls-9{fill:#fcb72c;}.cls-10{fill:url(#New_Pattern_Swatch_3);}.cls-11{fill:#fe5d7e;}.cls-12{fill:url(#New_Pattern_Swatch_4);}.cls-13{stroke:#fff;stroke-linecap:round;stroke-linejoin:round;}.cls-14{fill:url(#New_Pattern_Swatch_2-9);}.cls-15{fill:#fff;}.cls-16,.cls-17,.cls-18{stroke:#fc782c;stroke-miterlimit:10;}.cls-19{fill:url(#New_Pattern_Swatch_3-39);}.cls-20,.cls-22{font-size:27.97135px;font-family:Gilroy-ExtraBold, Gilroy;font-weight:800;}.cls-20,.cls-24{letter-spacing:-0.01999em;}.cls-21{letter-spacing:0.00002em;}.cls-23{letter-spacing:-0.00999em;}.cls-25{letter-spacing:-0.00499em;}.cls-26{letter-spacing:-0.01997em;}</style><pattern id="New_Pattern_Swatch_2" data-name="New Pattern Swatch 2" width="3" height="3" patternUnits="userSpaceOnUse" viewBox="0 0 3 3"><rect class="cls-1" width="3" height="3"/><circle class="cls-2" cx="1.50001" cy="1.50001" r="0.98138"/></pattern><pattern id="New_Pattern_Swatch_3" data-name="New Pattern Swatch 3" width="3" height="3" patternUnits="userSpaceOnUse" viewBox="0 0 3 3"><rect class="cls-1" width="3" height="3"/><circle class="cls-3" cx="1.50001" cy="1.50001" r="0.98138"/></pattern><pattern id="New_Pattern_Swatch_4" data-name="New Pattern Swatch 4" width="3" height="3" patternUnits="userSpaceOnUse" viewBox="0 0 3 3"><rect class="cls-1" width="3" height="3"/><circle class="cls-4" cx="1.50001" cy="1.50001" r="0.98138"/></pattern><pattern id="New_Pattern_Swatch_2-9" data-name="New Pattern Swatch 2" x="-23.6975" y="-52.4432" width="3" height="3" patternUnits="userSpaceOnUse" viewBox="0 0 3 3"><rect class="cls-1" width="3" height="3"/><circle class="cls-2" cx="1.50001" cy="1.50001" r="0.98138"/></pattern><pattern id="New_Pattern_Swatch_3-39" data-name="New Pattern Swatch 3" x="-23.6975" y="-52.4432" width="3" height="3" patternUnits="userSpaceOnUse" viewBox="0 0 3 3"><rect class="cls-1" width="3" height="3"/><circle class="cls-3" cx="1.50001" cy="1.50001" r="0.98138"/></pattern></defs><ellipse class="cls-5" cx="225.10402" cy="391.2495" rx="225.10402" ry="8.4743"/><circle class="cls-6" cx="245.05312" cy="260.27032" r="181.22916" transform="translate(-135.96201 197.06694) rotate(-45)"/><path class="cls-7" d="M438.452,423.8131c-.23,12.8299-37.59991,19.4599-76.15,19.86-41.05.4299-83.42-6.19-83.67-19.86-.37-20.6601,17-50.2101,49.17-62.9101h.01a87.25977,87.25977,0,0,1,20.44-5.31,94.37012,94.37012,0,0,1,10.29009-.8399,94.37047,94.37047,0,0,1,10.28991.8399,87.92359,87.92359,0,0,1,20.46009,5.31A83.808,83.808,0,0,1,408.032,371.2331C428.132,385.9531,438.742,407.6131,438.452,423.8131Z" transform="translate(-23.6975 -52.4432)"/><path class="cls-2" d="M397.88279,399.5131a80.908,80.908,0,0,0-33.71-30.65q-2.76015-1.33515-5.63-2.4501a79.14857,79.14857,0,0,0-8.2701-2.7099,80.764,80.764,0,0,0-22.45989-2.8001,87.2584,87.2584,0,0,1,20.44-5.31,78.17767,78.17767,0,0,1,10.28,3.7901h.01a80.12419,80.12419,0,0,1,8.27,4.32c1.88,1.1299,3.6999,2.3299,5.48,3.61A78.21787,78.21787,0,0,1,397.88279,399.5131Z" transform="translate(-23.6975 -52.4432)"/><path class="cls-2" d="M389.29279,360.903a80.85919,80.85919,0,0,0-22.48,2.8001,79.13912,79.13912,0,0,0-8.27,2.7099q-2.865,1.11-5.63,2.4501a80.90823,80.90823,0,0,0-33.71009,30.65,78.21736,78.21736,0,0,1,25.59009-32.2c1.78-1.2801,3.5999-2.4801,5.4799-3.61a80.1155,80.1155,0,0,1,8.2701-4.32,78.83536,78.83536,0,0,1,10.2899-3.7901A87.92381,87.92381,0,0,1,389.29279,360.903Z" transform="translate(-23.6975 -52.4432)"/><path class="cls-8" d="M438.452,423.8131c-.23,12.8299-37.59991,19.4599-76.15,19.86-41.05.4299-83.42-6.19-83.67-19.86,59.3,10.61,91.52,6.67,108.93.0199a29.30033,29.30033,0,0,0,18-34.3799c-4.81-19.8601-16.26991-28.5501-16.26991-28.5501A83.808,83.808,0,0,1,408.032,371.2331C428.132,385.9531,438.742,407.6131,438.452,423.8131Z" transform="translate(-23.6975 -52.4432)"/><path class="cls-7" d="M369.0846,327.41521h12.19216a0,0,0,0,1,0,0v5.15558a4.125,4.125,0,0,1-4.125,4.125h-3.942a4.12509,4.12509,0,0,1-4.12509-4.12509v-5.15552A0,0,0,0,1,369.0846,327.41521Z" transform="translate(-146.97538 229.01128) rotate(-35.71407)"/><path class="cls-8" d="M379.48989,334.6725l-3.2008,2.3012a4.125,4.125,0,0,1-5.7572-.9412l-3.0096-4.186,9.8992-7.1172,3.0096,4.186A4.125,4.125,0,0,1,379.48989,334.6725Z" transform="translate(-23.6975 -52.4432)"/><path class="cls-3" d="M353.47419,272.6714a1.75035,1.75035,0,0,0-.1917.1255,4.67754,4.67754,0,0,0,1.8772-3.505,6.4947,6.4947,0,0,0-1.25269-4.2846c-1.86791-2.5981-5.12671-3.4698-7.39111-2.0141a1.76127,1.76127,0,0,0-.1918.1255l-3.6286,2.6089a4.3137,4.3137,0,0,0-.7037.639,5.04087,5.04087,0,0,0,.5911-2.0359,6.4945,6.4945,0,0,0-1.2527-4.2846c-1.8679-2.5982-5.12669-3.4698-7.39109-2.0141a1.74662,1.74662,0,0,0-.1918.1255l-3.6286,2.6089c-.0148.0106-.0272.0232-.0418.034a5.24289,5.24289,0,0,0,.2129-1.1268,6.49384,6.49384,0,0,0-1.2526-4.2846c-1.868-2.5981-5.1267-3.4698-7.3912-2.0141a1.74533,1.74533,0,0,0-.1917.1255l-3.6287,2.6089a4.67785,4.67785,0,0,0-1.8772,3.505,6.49455,6.49455,0,0,0,1.2526,4.2846,6.40723,6.40723,0,0,0,4.2117,2.662,5.20222,5.20222,0,0,0,.6039.0346c-.0204.0142-.0423.0264-.0625.041l-3.6288,2.6089a4.67817,4.67817,0,0,0-1.8772,3.505,6.49511,6.49511,0,0,0,1.2526,4.2846,6.40685,6.40685,0,0,0,4.2117,2.662,4.94311,4.94311,0,0,0,1.6261-.0393,4.32173,4.32173,0,0,0-.6951.3552,1.76,1.76,0,0,0-.1917.1255l-3.6287,2.609a4.67737,4.67737,0,0,0-1.8772,3.505,6.49357,6.49357,0,0,0,1.2526,4.2845,6.407,6.407,0,0,0,4.2117,2.6621,4.57226,4.57226,0,0,0,3.3712-.7734,4.67785,4.67785,0,0,0-1.8772,3.505,6.49469,6.49469,0,0,0,1.2526,4.2845,6.407,6.407,0,0,0,4.2117,2.6621,4.57226,4.57226,0,0,0,3.3712-.7734l3.6287-2.6089a4.67738,4.67738,0,0,0,1.87719-3.505,6.42872,6.42872,0,0,0-1.02669-3.9056l.0444-.0393a6.34147,6.34147,0,0,0,3.94149,2.3223,4.57236,4.57236,0,0,0,3.3712-.7734l3.6287-2.6089a4.67785,4.67785,0,0,0,1.8772-3.505,6.46358,6.46358,0,0,0-1.143-4.1005l.0251-.0148a6.3739,6.3739,0,0,0,4.077,2.4927,4.5718,4.5718,0,0,0,3.3712-.7734l3.6287-2.6089a4.67738,4.67738,0,0,0,1.87721-3.505,6.49512,6.49512,0,0,0-1.25261-4.2846C358.99739,272.0874,355.73859,271.2157,353.47419,272.6714Z" transform="translate(-23.6975 -52.4432)"/><path class="cls-9" d="M329.537,268.5251a6.49511,6.49511,0,0,1,1.2526,4.2846,4.67754,4.67754,0,0,1-1.8772,3.505l-3.6287,2.6089a4.57226,4.57226,0,0,1-3.3712.7734,6.407,6.407,0,0,1-4.2118-2.662,6.49469,6.49469,0,0,1-1.2526-4.2845,4.678,4.678,0,0,1,1.8773-3.5051l3.6287-2.6089a1.75035,1.75035,0,0,1,.1917-.1255C324.4102,265.0553,327.669,265.927,329.537,268.5251Z" transform="translate(-23.6975 -52.4432)"/><path class="cls-10" d="M329.537,268.5251a6.49511,6.49511,0,0,1,1.2526,4.2846,4.67754,4.67754,0,0,1-1.8772,3.505l-3.6287,2.6089a4.57226,4.57226,0,0,1-3.3712.7734,7.38037,7.38037,0,0,0,2.9301-2.0697,7.184,7.184,0,0,0-2.6968-11.1163C324.4102,265.0553,327.669,265.927,329.537,268.5251Z" transform="translate(-23.6975 -52.4432)"/><path class="cls-9" d="M341.33029,260.0461a6.49511,6.49511,0,0,1,1.2526,4.2846,4.67754,4.67754,0,0,1-1.8772,3.505l-3.62869,2.6089a4.57226,4.57226,0,0,1-3.3712.7734,6.407,6.407,0,0,1-4.2118-2.662,6.49469,6.49469,0,0,1-1.2526-4.2845,4.678,4.678,0,0,1,1.8773-3.5051l3.6287-2.6089a1.75035,1.75035,0,0,1,.1917-.1255C336.2035,256.5763,339.46229,257.448,341.33029,260.0461Z" transform="translate(-23.6975 -52.4432)"/><path class="cls-10" d="M341.33029,260.0461a6.49511,6.49511,0,0,1,1.2526,4.2846,4.67754,4.67754,0,0,1-1.8772,3.505l-3.62869,2.6089a4.57226,4.57226,0,0,1-3.3712.7734,7.38037,7.38037,0,0,0,2.9301-2.0697,7.184,7.184,0,0,0-2.6968-11.1163C336.2035,256.5763,339.46229,257.448,341.33029,260.0461Z" transform="translate(-23.6975 -52.4432)"/><path class="cls-9" d="M360.86539,274.6856a6.4939,6.4939,0,0,1,1.25261,4.2846,4.67744,4.67744,0,0,1-1.87721,3.505l-3.6287,2.6089a4.57226,4.57226,0,0,1-3.3712.7734,6.407,6.407,0,0,1-4.2117-2.6621,6.49413,6.49413,0,0,1-1.2526-4.2845,4.67737,4.67737,0,0,1,1.8772-3.505l3.6287-2.6089a1.75116,1.75116,0,0,1,.1917-.1256C355.73869,271.2158,358.99739,272.0874,360.86539,274.6856Z" transform="translate(-23.6975 -52.4432)"/><path class="cls-10" d="M360.86539,274.6856a6.4939,6.4939,0,0,1,1.25261,4.2846,4.67744,4.67744,0,0,1-1.87721,3.505l-3.6287,2.6089a4.57226,4.57226,0,0,1-3.3712.7734,7.38239,7.38239,0,0,0,2.9302-2.0697,7.18426,7.18426,0,0,0-2.6969-11.1164C355.73869,271.2158,358.99739,272.0874,360.86539,274.6856Z" transform="translate(-23.6975 -52.4432)"/><path class="cls-9" d="M349.02919,283.1954a6.49511,6.49511,0,0,1,1.2526,4.2846,4.67737,4.67737,0,0,1-1.8772,3.505l-3.6287,2.6089a4.57135,4.57135,0,0,1-3.3712.7734,6.407,6.407,0,0,1-4.21179-2.662,6.49469,6.49469,0,0,1-1.2526-4.2845,4.678,4.678,0,0,1,1.8773-3.5051l3.62869-2.6089a1.74953,1.74953,0,0,1,.19171-.1255C343.90239,279.7256,347.16119,280.5973,349.02919,283.1954Z" transform="translate(-23.6975 -52.4432)"/><path class="cls-10" d="M349.02919,283.1954a6.49511,6.49511,0,0,1,1.2526,4.2846,4.67737,4.67737,0,0,1-1.8772,3.505l-3.6287,2.6089a4.57135,4.57135,0,0,1-3.3712.7734,7.38023,7.38023,0,0,0,2.9301-2.0697,7.18411,7.18411,0,0,0-2.69679-11.1163C343.90239,279.7256,347.16119,280.5973,349.02919,283.1954Z" transform="translate(-23.6975 -52.4432)"/><path class="cls-9" d="M337.1929,291.7053a6.4947,6.4947,0,0,1,1.25269,4.2846,4.67784,4.67784,0,0,1-1.87719,3.505l-3.6287,2.6089a4.57236,4.57236,0,0,1-3.3712.7734,6.40682,6.40682,0,0,1-4.2118-2.662,6.4948,6.4948,0,0,1-1.2526-4.2846,4.67817,4.67817,0,0,1,1.8772-3.505l3.6287-2.6089a1.76127,1.76127,0,0,1,.1918-.1255C332.0662,288.2355,335.3249,289.1072,337.1929,291.7053Z" transform="translate(-23.6975 -52.4432)"/><path class="cls-10" d="M337.1929,291.7053a6.4947,6.4947,0,0,1,1.25269,4.2846,4.67784,4.67784,0,0,1-1.87719,3.505l-3.6287,2.6089a4.57236,4.57236,0,0,1-3.3712.7734,7.38206,7.38206,0,0,0,2.9301-2.0697,7.18418,7.18418,0,0,0-2.6968-11.1163C332.0662,288.2355,335.3249,289.1072,337.1929,291.7053Z" transform="translate(-23.6975 -52.4432)"/><path class="cls-9" d="M353.90709,265.0074a6.49469,6.49469,0,0,1,1.2526,4.2845,4.67774,4.67774,0,0,1-1.8772,3.5051l-3.6287,2.6089a4.57175,4.57175,0,0,1-3.3712.7733,6.40667,6.40667,0,0,1-4.2118-2.662,6.49469,6.49469,0,0,1-1.2526-4.2845,4.67779,4.67779,0,0,1,1.8773-3.505l3.6287-2.609a1.75035,1.75035,0,0,1,.1917-.1255C348.78029,261.5375,352.03909,262.4092,353.90709,265.0074Z" transform="translate(-23.6975 -52.4432)"/><path class="cls-10" d="M353.90709,265.0074a6.49469,6.49469,0,0,1,1.2526,4.2845,4.67774,4.67774,0,0,1-1.8772,3.5051l-3.6287,2.6089a4.57175,4.57175,0,0,1-3.3712.7733,7.38014,7.38014,0,0,0,2.9301-2.0696,7.18417,7.18417,0,0,0-2.6968-11.1164C348.78029,261.5375,352.03909,262.4092,353.90709,265.0074Z" transform="translate(-23.6975 -52.4432)"/><path class="cls-9" d="M342.07079,273.5172a6.49466,6.49466,0,0,1,1.2527,4.2846,4.67785,4.67785,0,0,1-1.8772,3.505l-3.62869,2.6089a4.5718,4.5718,0,0,1-3.3712.7734,6.407,6.407,0,0,1-4.2118-2.662,6.49469,6.49469,0,0,1-1.2526-4.2845,4.678,4.678,0,0,1,1.8773-3.5051l3.6286-2.6089a1.76127,1.76127,0,0,1,.1918-.1255C336.9441,270.0474,340.20289,270.9191,342.07079,273.5172Z" transform="translate(-23.6975 -52.4432)"/><path class="cls-10" d="M342.07079,273.5172a6.49466,6.49466,0,0,1,1.2527,4.2846,4.67785,4.67785,0,0,1-1.8772,3.505l-3.62869,2.6089a4.5718,4.5718,0,0,1-3.3712.7734,7.38107,7.38107,0,0,0,2.9301-2.0697,7.1842,7.1842,0,0,0-2.6968-11.1163C336.9441,270.0474,340.20289,270.9191,342.07079,273.5172Z" transform="translate(-23.6975 -52.4432)"/><path class="cls-9" d="M330.2346,282.0271a6.494,6.494,0,0,1,1.2526,4.2846,4.67722,4.67722,0,0,1-1.8772,3.505l-3.6287,2.6089a4.57226,4.57226,0,0,1-3.3712.7734,6.40723,6.40723,0,0,1-4.2117-2.662,6.49455,6.49455,0,0,1-1.2526-4.2846,4.67785,4.67785,0,0,1,1.8772-3.505l3.6287-2.6089a1.74533,1.74533,0,0,1,.1917-.1255C325.1079,278.5573,328.3666,279.429,330.2346,282.0271Z" transform="translate(-23.6975 -52.4432)"/><path class="cls-10" d="M330.2346,282.0271a6.494,6.494,0,0,1,1.2526,4.2846,4.67722,4.67722,0,0,1-1.8772,3.505l-3.6287,2.6089a4.57226,4.57226,0,0,1-3.3712.7734,7.38239,7.38239,0,0,0,2.9302-2.0697,7.18412,7.18412,0,0,0-2.6969-11.1163C325.1079,278.5573,328.3666,279.429,330.2346,282.0271Z" transform="translate(-23.6975 -52.4432)"/><path class="cls-9" d="M329.0372,255.389a6.4945,6.4945,0,0,1,1.2527,4.2846,4.67781,4.67781,0,0,1-1.8773,3.505l-3.6287,2.6089a4.57226,4.57226,0,0,1-3.3712.7734,6.407,6.407,0,0,1-4.2117-2.6621,6.49469,6.49469,0,0,1-1.2526-4.2845,4.67785,4.67785,0,0,1,1.8772-3.505l3.6287-2.6089a1.77051,1.77051,0,0,1,.1917-.1256C323.9105,251.9192,327.1692,252.7908,329.0372,255.389Z" transform="translate(-23.6975 -52.4432)"/><path class="cls-10" d="M329.0372,255.389a6.4945,6.4945,0,0,1,1.2527,4.2846,4.67781,4.67781,0,0,1-1.8773,3.505l-3.6287,2.6089a4.57226,4.57226,0,0,1-3.3712.7734,7.38239,7.38239,0,0,0,2.9302-2.0697,7.18426,7.18426,0,0,0-2.6969-11.1164C323.9105,251.9192,327.1692,252.7908,329.0372,255.389Z" transform="translate(-23.6975 -52.4432)"/><path class="cls-7" d="M373.05569,329.0998,346.196,291.7412s-11.5137-19.2292,6.657-34.2152c.849-.7002,2.28509.0334,2.53819,1.2909a45.19388,45.19388,0,0,0,7.506,17.1608l20.6317,28.6963a13.52982,13.52982,0,0,1-2.8175,18.9216Z" transform="translate(-23.6975 -52.4432)"/><path class="cls-7" d="M373.05569,329.0998,346.196,291.7412s-14.5613-17.0381-34.5538-4.586c-.9341.5818-.6961,2.1768.4154,2.8172a45.19232,45.19232,0,0,1,13.8769,12.5803l20.63169,28.6963a13.52986,13.52986,0,0,0,18.8337,3.3551Z" transform="translate(-23.6975 -52.4432)"/><path class="cls-8" d="M373.05569,329.0998,346.196,291.7412s-11.5137-19.2292,6.657-34.2152c.849-.7002,2.28509.0334,2.53819,1.2909a45.19388,45.19388,0,0,0,7.506,17.1608l20.6317,28.6963a13.52982,13.52982,0,0,1-2.8175,18.9216Z" transform="translate(-23.6975 -52.4432)"/><path class="cls-9" d="M320.5028,433.7031a12.15245,12.15245,0,0,1-7.25,5.2699c-13.6601,3.5201-38.71,1.4701-38.71,1.4701v-61s5.59,2.82,12.95,7.54c13.5299,8.6599,33.05,23.72,34.73,39.3699A11.37881,11.37881,0,0,1,320.5028,433.7031Z" transform="translate(-23.6975 -52.4432)"/><path class="cls-10" d="M320.5028,433.7031a12.15245,12.15245,0,0,1-7.25,5.2699c-13.6601,3.5201-38.71,1.4701-38.71,1.4701v-61s5.59,2.82,12.95,7.54a69.17874,69.17874,0,0,1,6.08,26.0499c.12,3.5801-.03,7.2001.67,10.7101.7099,3.51,2.42,7.01,5.45,8.93,2.3299,1.4799,5.17,1.88,7.92,2.0999C311.9428,435.1131,316.3927,435.083,320.5028,433.7031Z" transform="translate(-23.6975 -52.4432)"/><path class="cls-9" d="M286.1928,433.6731c-1.96,7.64-6.41,13.38-15.83,13.38,0,0-17.23.57-19.54-13.62l-2.08-50.9601s1.9699-12.9099,15.55-14.26c.74-.07,1.52-.11,2.34-.11,16.1299,0,19.97,19.4001,19.97,31.6601C286.6028,407.0631,289.0927,422.4331,286.1928,433.6731Z" transform="translate(-23.6975 -52.4432)"/><path class="cls-10" d="M286.1928,433.6731c-1.96,7.64-6.41,13.38-15.83,13.38,0,0-17.23.57-19.54-13.62l-2.08-50.9601s1.9699-12.9099,15.55-14.26a12.72458,12.72458,0,0,1,3.71,3.6001c1.74,2.5999,2.3299,5.7699,2.85,8.86a352.65366,352.65366,0,0,1,4.2999,38.63,29.33524,29.33524,0,0,0,1.2601,8.3599c.97,2.6601,2.9299,5.12,5.64,5.9501A7.96361,7.96361,0,0,0,286.1928,433.6731Z" transform="translate(-23.6975 -52.4432)"/><path class="cls-9" d="M266.8327,429.2031c-2.3499,10.0199-8.37,17.85-22.3499,17.85,0,0-23.68.6699-26.85-15.92l-2.8701-59.58a20.60476,20.60476,0,0,1,5.0201-9.3301c3.57-3.87,9.58-7.4699,19.57-7.4699,22.1699,0,27.45,22.69,27.45,37.01C266.8028,399.8231,269.8628,416.3231,266.8327,429.2031Z" transform="translate(-23.6975 -52.4432)"/><path class="cls-10" d="M266.8327,429.2031c-2.3499,10.0199-8.37,17.85-22.3499,17.85,0,0-23.68.6699-26.85-15.92l-2.8701-59.58a20.60476,20.60476,0,0,1,5.0201-9.3301c4.66-.18,9.4899,2.44,12.69,6.0301,4.52,5.0799,6.75,11.82,7.77,18.5399,1.0199,6.7201.95,13.55,1.5,20.3201.48,5.9,1.56,12.06,5.24,16.7C251.5428,429.5731,259.9828,431.6131,266.8327,429.2031Z" transform="translate(-23.6975 -52.4432)"/><path class="cls-9" d="M232.7855,433.6731c-1.96,7.64-6.41,13.38-15.83,13.38,0,0-17.23.57-19.54-13.62l-1.9178-43.8901a23.82372,23.82372,0,0,1,2.9511-12.8103c2.2564-3.9763,6.071-7.8868,12.4367-8.5197.74-.07,1.52-.11,2.34-.11,16.1299,0,19.97,19.4001,19.97,31.6601C233.1955,407.0631,235.6855,422.4331,232.7855,433.6731Z" transform="translate(-23.6975 -52.4432)"/><path class="cls-10" d="M232.7855,433.6731c-1.96,7.64-6.41,13.38-15.83,13.38,0,0-17.23.57-19.54-13.62l-1.9178-43.8901a23.82372,23.82372,0,0,1,2.9511-12.8103c2.2564-3.9763,6.071-7.8868,12.4367-8.5197a12.72335,12.72335,0,0,1,3.71,3.6001c1.74,2.5999,2.33,5.7699,2.85,8.86a352.67835,352.67835,0,0,1,4.3,38.63,29.33164,29.33164,0,0,0,1.26,8.3599c.97,2.6601,2.93,5.12,5.64,5.9501A7.96361,7.96361,0,0,0,232.7855,433.6731Z" transform="translate(-23.6975 -52.4432)"/><path class="cls-9" d="M160.4564,433.7031a12.15186,12.15186,0,0,0,7.25,5.2699c13.66,3.5201,37.503,1.7994,37.503,1.7994l-1-59.626s-3.383,1.1167-10.743,5.8367c-13.5299,8.6599-33.05,23.72-34.73,39.3699A11.37881,11.37881,0,0,0,160.4564,433.7031Z" transform="translate(-23.6975 -52.4432)"/><path class="cls-10" d="M160.4564,433.7031a12.15186,12.15186,0,0,0,7.25,5.2699c13.66,3.5201,37.503,1.7994,37.503,1.7994l-1-59.626s-3.383,1.1167-10.743,5.8367c-13.5299,8.6599-33.05,23.72-34.73,39.3699A11.37881,11.37881,0,0,0,160.4564,433.7031Z" transform="translate(-23.6975 -52.4432)"/><path class="cls-9" d="M160.4564,433.7031a12.15186,12.15186,0,0,0,7.25,5.2699c13.66,3.5201,37.503,1.7994,37.503,1.7994,6.293.5935,4.293-62.0893-1-59.626,0,0-3.383,1.1167-10.743,5.8367a69.17874,69.17874,0,0,0-6.08,26.0499c-.12,3.5801.03,7.2001-.67,10.7101-.7099,3.51-2.42,7.01-5.45,8.93-2.3299,1.4799-5.17,1.88-7.92,2.0999C169.0164,435.1131,164.5665,435.083,160.4564,433.7031Z" transform="translate(-23.6975 -52.4432)"/><path class="cls-11" d="M243.2259,259.7895s1.2122-19.4034,7.9622-26.9034a79.48715,79.48715,0,0,1-4.7694,26.9034Z" transform="translate(-23.6975 -52.4432)"/><path class="cls-11" d="M244.0995,260.4679s-6.8459-15.7665-4.5457-24.3859a70.27861,70.27861,0,0,1,7.0598,23.1023Z" transform="translate(-23.6975 -52.4432)"/><path class="cls-7" d="M299.9481,309.8561c0,26.4-24.7299,34.29-37.5499,36.6-1.0901.1999-2.0901.36-2.9801.48-.12.02-.23.0299-.35.06a20.28688,20.28688,0,0,0-6.95,2.5399,14.929,14.929,0,0,1-2.5,1.1501c-.49.18-.9699.33-1.41.45a17.79754,17.79754,0,0,1-2.66.5c-.32.03-.5.04-.5.04s-.18-.01-.5-.04a16.94574,16.94574,0,0,1-2.67-.51,14.46493,14.46493,0,0,1-1.43-.45,15.75573,15.75573,0,0,1-2.46-1.1401,20.211,20.211,0,0,0-6.95-2.5399c-.12-.0301-.24-.04-.36-.06-.89-.12-1.88-.2801-2.9599-.48h-.0201c-12.81-2.31-37.54-10.2-37.54-36.6,0-32.6,27.69-34.3901,44.39-45.65.8501-.58,1.6701-1.18,2.46-1.81a26.68755,26.68755,0,0,0,5.9-6.37,21.40008,21.40008,0,0,0,1.42-2.53c.08-.1501.15-.3.22-.45.18-.38.34-.77.5-1.17a22.641,22.641,0,0,0,1.47,3.05,26.07693,26.07693,0,0,0,6.58,7.4799c.78.63,1.6,1.2201,2.45,1.8001C272.2581,275.466,299.9481,277.2561,299.9481,309.8561Z" transform="translate(-23.6975 -52.4432)"/><path class="cls-8" d="M255.5481,264.2061c-.85-.58-1.67-1.1701-2.45-1.8001a26.07451,26.07451,0,0,1-6.58-7.48,22.60989,22.60989,0,0,1-1.47-3.0499c-.0826.2064-.1727.4027-.2581.6038v99.1773c.1645.0134.2581.0188.2581.0188s.18-.01.5-.0399a17.79754,17.79754,0,0,0,2.66-.5c.44-.12.92-.2701,1.41-.45a14.93263,14.93263,0,0,0,2.5-1.1501,20.28613,20.28613,0,0,1,6.95-2.5399c.12-.0301.23-.04.35-.06.89-.12,1.89-.2801,2.98-.48,12.82-2.31,37.55-10.2,37.55-36.6001C299.9481,277.2561,272.2581,275.466,255.5481,264.2061Z" transform="translate(-23.6975 -52.4432)"/><path class="cls-11" d="M260.9581,270.3061a42.55582,42.55582,0,0,1-5.41-6.1c-.85-.58-1.67-1.1701-2.45-1.8001a45.07026,45.07026,0,0,0,7.1801,8.6401c16,14.87,23.0099,27.38,22.7199,40.5499-.24,10.6701-3.06,25.6501-23.93,35.4001.12-.0301.23-.04.35-.06.89-.12,1.89-.2801,2.9801-.48,18.7399-9.97,21.3699-24.4201,21.5999-34.84C284.2981,298.1361,277.1881,285.3961,260.9581,270.3061Zm-5.45,7.88a53.14576,53.14576,0,0,1-8.99-23.26,22.641,22.641,0,0,1-1.47-3.05c-.16.4-.32.79-.5,1.17v98.59c.32.03.5.04.5.04s.18-.01.5-.04v-96.38c1.45,9.19,4.47,16.9599,9.15,23.51,10.61,14.88,20.51,42.78,4.24,58.6399a57.30336,57.30336,0,0,0-10.73,13.7301c.4401-.12.92-.27,1.41-.45a58.3879,58.3879,0,0,1,10.02-12.57C274.5981,323.536,268.8781,296.9261,255.5081,278.1861Zm-11.18-24.69a21.40008,21.40008,0,0,1-1.42,2.53c-1.47,8.72-3.86,15.91-8.3199,22.16-13.37,18.74-19.0801,45.3499-4.1301,59.93a57.02091,57.02091,0,0,1,9.99,12.56,14.46493,14.46493,0,0,0,1.43.45,57.39408,57.39408,0,0,0-10.72-13.7201c-16.2599-15.8599-6.37-43.7599,4.25-58.6399C240.7182,271.3261,243.0481,262.4961,244.3281,253.4961Zm-37.22,58.0999c-.29-13.1699,6.71-25.6799,22.71-40.5499a45.18387,45.18387,0,0,0,7.19-8.65c-.7899.63-1.6099,1.23-2.46,1.81a42.55582,42.55582,0,0,1-5.41,6.1c-16.22,15.09-23.33,27.83-23.03,41.31.2301,10.4199,2.85,24.87,21.59,34.84h.0201c1.0799.1999,2.0699.36,2.9599.48.12.02.24.0299.36.06C210.1681,337.2461,207.3382,322.2661,207.1081,311.596Z" transform="translate(-23.6975 -52.4432)"/><path class="cls-7" d="M308.3965,321.8146a8.43328,8.43328,0,0,1,4.0957-2.9022s-.1555-8.5511,8.5512-8.7584v2.7467s-4.6125,2.2803-2.5913,4.9752c0,0,7.5146.881,7.7219,5.2343l-8.8887,1.7103Z" transform="translate(-23.6975 -52.4432)"/><path class="cls-4" d="M335.5811,325.3077c-2.3917-4.8125-8.0442-4.0034-8.0442-4.0034a10.58452,10.58452,0,0,0-9.2702,4.0034c-4.8067,5.9843-4.1218,21.3853-1.9572,27.1419,1.8914,5.0301,5.7692,4.501,5.7692,4.501s3.7158.5291,7.1476-4.501C333.1537,346.693,338.55509,331.292,335.5811,325.3077Z" transform="translate(-23.6975 -52.4432)"/><path class="cls-4" d="M299.1061,325.3077c2.7763-4.8125,8.3642-4.0034,8.3642-4.0034a9.86181,9.86181,0,0,1,8.9501,4.0034c4.3285,5.9843,2.4125,21.3853-.2121,27.1419-2.2934,5.0301-6.129,4.501-6.129,4.501s-3.7581.5291-6.7879-4.501C299.8241,346.693,295.6537,331.292,299.1061,325.3077Z" transform="translate(-23.6975 -52.4432)"/><path class="cls-11" d="M325.4919,323.9223c-3.0544-3.1424-7.9876-2.636-7.9876-2.636s-4.8927-.5064-8.1983,2.636c-4.6229,4.3946-4.2233,19.1007-1.5018,26.3741,2.8024,7.4901,8.2752,6.644,8.2752,6.644s5.4052.8461,8.8063-6.644C328.1885,343.023,329.7635,328.3169,325.4919,323.9223Z" transform="translate(-23.6975 -52.4432)"/><path class="cls-9" d="M266.2559,235.3979a41.53369,41.53369,0,0,1,46.3,0l-2.54,3.79-.95,1.4-19.66,29.27-19.66-29.27-.95-1.4Z" transform="translate(-23.6975 -52.4432)"/><path class="cls-2" d="M270.167,241.2148h38.4778l.4211-.6269.95-1.4a41.56243,41.56243,0,0,0-41.22,0l.95,1.4Z" transform="translate(-23.6975 -52.4432)"/><path class="cls-11" d="M269.7459,240.5879a41.591,41.591,0,0,1,39.32,0l-19.66,29.27Z" transform="translate(-23.6975 -52.4432)"/><path class="cls-2" d="M288.4686,258.6184a.9373.9373,0,1,1,1.8746,0c0,.5176-.4196,2.7023-.9373,2.7023C288.8883,261.3207,288.4686,259.136,288.4686,258.6184Z" transform="translate(-23.6975 -52.4432)"/><path class="cls-2" d="M282.7667,251.8704a.9373.9373,0,1,1,1.8746,0c0,.5177-.4196,2.7023-.9373,2.7023C283.1864,254.5727,282.7667,252.3881,282.7667,251.8704Z" transform="translate(-23.6975 -52.4432)"/><path class="cls-2" d="M291.8038,249.9854a.9373.9373,0,1,1,1.8746,0c0,.5177-.4196,2.7023-.9373,2.7023C292.2235,252.6877,291.8038,250.5031,291.8038,249.9854Z" transform="translate(-23.6975 -52.4432)"/><path class="cls-2" d="M285.1976,242.0008a.93725.93725,0,1,1,1.8745,0c0,.5177-.4196,2.7023-.9372,2.7023C285.6172,244.7031,285.1976,242.5185,285.1976,242.0008Z" transform="translate(-23.6975 -52.4432)"/><path class="cls-2" d="M277.4649,242.0008a.9373.9373,0,0,1,1.8746,0c0,.5177-.4197,2.7023-.9373,2.7023C277.8845,244.7031,277.4649,242.5185,277.4649,242.0008Z" transform="translate(-23.6975 -52.4432)"/><path class="cls-2" d="M299.3022,242.8776a.9373.9373,0,0,1,1.8746,0c0,.5176-.4197,2.7023-.9373,2.7023C299.7218,245.5799,299.3022,243.3952,299.3022,242.8776Z" transform="translate(-23.6975 -52.4432)"/><path class="cls-7" d="M175.225,307.0421a4.62921,4.62921,0,0,1,3.8588-3.273l.481-3.5681h2.1688l-.0612,4.0578s2.4136,1.4756,2.2212,5.3553Z" transform="translate(-23.6975 -52.4432)"/><path class="cls-9" d="M179.922,333.543a25.73881,25.73881,0,0,1-16.24,9.11c-5.48.75-11.04-.31-16.57995-.4499-5.53-.15-11.53.8399-15.41,4.78.01-.12.02-.25.04-.37.62994-5.31,4.97-8.85,10.02-10.7801,5.18-1.9599,10.82-2.3299,16.13-3.87,5.32-1.55,10.69-4.74,12.45-9.99.97-2.87.74-6,1.26-8.9799.52-2.99,2.96-6.55,5.97-6.9101a5.14027,5.14027,0,0,1,1.24.01,7.05287,7.05287,0,0,1,4.78,3.0301,13.15016,13.15016,0,0,1,2.0201,6.69A25.70875,25.70875,0,0,1,179.922,333.543Z" transform="translate(-23.6975 -52.4432)"/><path class="cls-9" d="M133.05241,307.2666a23.64691,23.64691,0,0,0-3.52781-4.4272c-7.1845-7.0291-3.7485-29.9934-18.8985-31.193-15.15,1.1996-11.7139,24.1639-18.8985,31.193a23.64726,23.64726,0,0,0-3.5278,4.4272,24.92913,24.92913,0,0,0-.8601,24.4535c7.1498,13.4582,39.423,13.4582,46.57279,0A24.92929,24.92929,0,0,0,133.05241,307.2666Z" transform="translate(-23.6975 -52.4432)"/><path class="cls-10" d="M133.91205,331.723c-4.5,8.4701-18.96,11.61-30.84,9.4101a15.79609,15.79609,0,0,0,7.1701-4.0301,27.65841,27.65841,0,0,0,7.0899-24.8699,24.85539,24.85539,0,0,0-1.93-5.54c-4.12-8.37,4.19-27.14-4.4699-35.02,14.7899,1.4899,11.4599,24.19,18.5899,31.1699a23.53006,23.53006,0,0,1,3.53,4.4201A24.94,24.94,0,0,1,133.91205,331.723Z" transform="translate(-23.6975 -52.4432)"/><circle class="cls-7" cx="110.6261" cy="320.06307" r="15.08329" transform="translate(-137.75953 14.25502) rotate(-22.50002)"/><path class="cls-9" d="M205.0737,178.6731,240.428,160.476a7.20491,7.20491,0,0,1,9.9232,3.5763l7.1462,16.7326Z" transform="translate(-23.6975 -52.4432)"/><path class="cls-11" d="M309.0659,193.9529l24.2098-16.3979s3.8655,16.1495-12.1049,26.3361c0,0,7.1358,6.2113,2.4673,19.6278l-17.149-20.6216Z" transform="translate(-23.6975 -52.4432)"/><path class="cls-11" d="M322.5927,198.6731l-.1099.1099a.00979.00979,0,0,1-.01.01c-1.62,1.55-19.92,17.5201-88.28,17.5201,0,0-26.21.8399-50.45-3.5401-13.08-2.36-25.5901-6.25-33.08-12.61h9.69l-5.04-7.81-2.1701-3.3699s8.07-6.1901,33.5-10.31q5.265-.85515,11.5401-1.5701a231.272,231.272,0,0,1,89.31,7.2101C299.6028,187.783,312.1128,192.4531,322.5927,198.6731Z" transform="translate(-23.6975 -52.4432)"/><path class="cls-12" d="M322.5927,198.6731l-.1099.1099a.00979.00979,0,0,1-.01.01,19.05165,19.05165,0,0,1-10.8201-.27c-5.01-1.7199-9.9099-4.31-15.2099-4.3399-7.0401-.0401-13.65,4.4699-20.65,3.7899-7.01-.68-12.9601-6.45-19.99-6.26-5.58.1501-10.6501,4.0901-16.2201,3.68-5.93-.4399-10.62-5.67-16.5299-6.3-8.62-.9199-16.02,8.1501-24.6001,7.01-4.9599-.6599-8.7599-4.56-13.0799-7.0899-9.33-5.45-22.12-3.9-30.06,3.3399l-2.1701-3.3699s8.07-6.1901,33.5-10.31q5.265-.85515,11.5401-1.5701a231.272,231.272,0,0,1,89.31,7.2101C299.6028,187.783,312.1128,192.4531,322.5927,198.6731Z" transform="translate(-23.6975 -52.4432)"/><path class="cls-9" d="M248.8015,212.773l14.6588,8.7583a8.54466,8.54466,0,0,0-1.7392-8.7583Z" transform="translate(-23.6975 -52.4432)"/><path class="cls-9" d="M199.9537,205.6303l19.2819-4.9171s.8007,9.2389-5.7145,12.0598c-1.2422-.4345-13.5674-3.6644-13.5674-3.6644Z" transform="translate(-23.6975 -52.4432)"/><path class="cls-9" d="M191.7328,197.9831a25.45663,25.45663,0,0,1-7.99,14.7899c-13.08-2.36-25.5901-6.25-33.08-12.61h9.69l-7.2101-11.1799s8.07-6.1901,33.5-10.31A25.50555,25.50555,0,0,1,191.7328,197.9831Z" transform="translate(-23.6975 -52.4432)"/><path class="cls-13" d="M182.088,193.9529a11.19461,11.19461,0,0,1-1.255,13.5206" transform="translate(-23.6975 -52.4432)"/><path class="cls-2" d="M174.2654,191.5926a2.36025,2.36025,0,1,1-2.3603-2.3603A2.36031,2.36031,0,0,1,174.2654,191.5926Z" transform="translate(-23.6975 -52.4432)"/><path class="cls-9" d="M264.952,87.273c-.23,0-.28.0401-.51.0401h-49.61c-.57-.51-1.88-.8501-2.14-1.57a5.907,5.907,0,0,1,7.7901-7.51,5.65924,5.65924,0,0,1,1.4899-6.16,5.82213,5.82213,0,0,1,6.43-.4701,5.4408,5.4408,0,0,1-.38-2.6699,5.52315,5.52315,0,0,1,7.87-4.67,6.25915,6.25915,0,0,1,3.64,5.1499,4.76256,4.76256,0,0,1,5.41-2.1099,5.047,5.047,0,0,1,3.6001,4.7899c1.6599-1.7799,4.6999-1.94,6.9299-1a6.12957,6.12957,0,0,1,3.65,5.7801,4.821,4.821,0,0,1,5.08-.2101,6.024,6.024,0,0,1,2.56,4.1401A7.96205,7.96205,0,0,1,264.952,87.273Z" transform="translate(-23.6975 -52.4432)"/><path class="cls-10" d="M264.952,87.273c-.23,0-.28.0401-.51.0401h-49.61c-.57-.51-1.88-.8501-2.14-1.57a5.907,5.907,0,0,1,7.7901-7.51,5.65924,5.65924,0,0,1,1.4899-6.16,5.82213,5.82213,0,0,1,6.43-.4701,5.4408,5.4408,0,0,1-.38-2.6699,5.52315,5.52315,0,0,1,7.87-4.67,6.25915,6.25915,0,0,1,3.64,5.1499,4.76256,4.76256,0,0,1,5.41-2.1099,5.047,5.047,0,0,1,3.6001,4.7899c1.6599-1.7799,4.6999-1.94,6.9299-1a6.12957,6.12957,0,0,1,3.65,5.7801,4.821,4.821,0,0,1,5.08-.2101,6.024,6.024,0,0,1,2.56,4.1401A7.96205,7.96205,0,0,1,264.952,87.273Z" transform="translate(-23.6975 -52.4432)"/><path class="cls-9" d="M259.072,87.3131h-44.24c-.57-.51-1.88-.8501-2.14-1.57a5.907,5.907,0,0,1,7.7901-7.51,5.65924,5.65924,0,0,1,1.4899-6.16,5.82213,5.82213,0,0,1,6.43-.4701,5.4408,5.4408,0,0,1-.38-2.6699A49.16515,49.16515,0,0,1,259.072,87.3131Z" transform="translate(-23.6975 -52.4432)"/><polygon class="cls-7" points="187.469 32.203 196.954 28.203 206.439 32.203 215.918 28.203 225.399 32.203 234.877 28.203 244.353 32.203 233.8 95.049 216.771 95.049 198.768 95.049 187.469 32.203"/><ellipse class="cls-9" cx="215.91122" cy="63.7438" rx="16.84082" ry="11.1804"/><polygon class="cls-7" points="244.353 32.203 248.753 38.402 238.272 95.049 233.8 95.049 244.353 32.203"/><polygon class="cls-14" points="244.353 32.203 248.753 38.402 238.272 95.049 233.8 95.049 244.353 32.203"/><path class="cls-9" d="M205.8251,115.3778c1.9158-2.2105,1.9808-5.6269.6914-8.2526a13.82271,13.82271,0,0,0-6.3126-5.8768,9.499,9.499,0,0,1-1.4648,2.6756,11.83606,11.83606,0,0,0-1.508,2.5555,3.60517,3.60517,0,0,0,.0316,2.8887A22.91435,22.91435,0,0,1,205.8251,115.3778Z" transform="translate(-23.6975 -52.4432)"/><path class="cls-9" d="M195.8209,114.8384a4.60118,4.60118,0,0,1-3.105-3.6465,3.92472,3.92472,0,0,1,2.3258-4.0712c1.559-.6069,3.327-.0448,4.8069.7354a16.41855,16.41855,0,0,1,8.4395,10.7362C204.1478,117.4329,199.9007,116.1957,195.8209,114.8384Z" transform="translate(-23.6975 -52.4432)"/><path class="cls-10" d="M195.8209,114.8384a4.60118,4.60118,0,0,1-3.105-3.6465,3.92472,3.92472,0,0,1,2.3258-4.0712c1.559-.6069,3.327-.0448,4.8069.7354a16.41855,16.41855,0,0,1,8.4395,10.7362C204.1478,117.4329,199.9007,116.1957,195.8209,114.8384Z" transform="translate(-23.6975 -52.4432)"/><path class="cls-9" d="M194.872,121.1061a5.31074,5.31074,0,0,1-4.6762-2.9481,4.52971,4.52971,0,0,1,1.1605-5.2858c1.5084-1.2054,3.6497-1.1949,5.5486-.8449a19.92963,19.92963,0,0,1,12.874,8.5376C204.8185,120.7132,199.8338,121.1967,194.872,121.1061Z" transform="translate(-23.6975 -52.4432)"/><path class="cls-11" d="M208.6507,126.6565H191.2711a3.6932,3.6932,0,0,1-3.6932-3.6932h0a3.6932,3.6932,0,0,1,3.6932-3.6932h17.3796a3.6932,3.6932,0,0,1,3.6932,3.6932h0A3.6932,3.6932,0,0,1,208.6507,126.6565Z" transform="translate(-23.6975 -52.4432)"/><path class="cls-11" d="M199.9609,126.6565h-8.6898l4.1429,19.3755a3.146,3.146,0,0,0,3.0765,2.4883h2.9407a3.146,3.146,0,0,0,3.0765-2.4882l4.143-19.3756Z" transform="translate(-23.6975 -52.4432)"/><path class="cls-12" d="M208.652,126.653l-4.14,19.38a3.15566,3.15566,0,0,1-3.08,2.49h-2.94a2.98624,2.98624,0,0,1-1.15-.23,3.14,3.14,0,0,0,1.93-2.26l4.14-19.38Z" transform="translate(-23.6975 -52.4432)"/><path class="cls-7" d="M284.7127,114.0731a16.665,16.665,0,1,0,16.6701,16.66A16.66121,16.66121,0,0,0,284.7127,114.0731Zm6.6701,16.66a6.665,6.665,0,1,1-6.6701-6.66A6.66845,6.66845,0,0,1,291.3828,130.7331Z" transform="translate(-23.6975 -52.4432)"/><path class="cls-11" d="M298.9228,131.5631a21.96248,21.96248,0,0,1-1.18-4.3c-.14-1.4301.1599-2.9101-.27-4.28a6.749,6.749,0,0,0-4-3.8401c-1.78-.7799-3.35.3101-5.1401-.4099-1.13-.4501-2.56-2.5101-3.74-2.8201a7.6324,7.6324,0,0,0-4.2099.11c-1.7301.5401-1.6201,3.2-3.02,4.32-1.5,1.19-4.5901.9001-5.5301,2.5401a7.23521,7.23521,0,0,0-.7899,5.1499,26.56689,26.56689,0,0,1,.76,3.01c.19,1.98-.9001,4.04-.23,5.93a5.813,5.813,0,0,0,3.06,2.93,24.26809,24.26809,0,0,1,3.8899,2.0201c1.1501.8599,2,2.0499,3.19,2.8599a6.20039,6.20039,0,0,0,4.9501.82,11.88428,11.88428,0,0,0,3.82-2.0899c1.69-1.21,3.37-2.4301,5.06-3.64,1.4799-1.07,3.0499-2.24,3.63-3.93A7.08791,7.08791,0,0,0,298.9228,131.5631Zm-14.2101,5.8399a6.665,6.665,0,1,1,6.6701-6.6699A6.66621,6.66621,0,0,1,284.7127,137.403Z" transform="translate(-23.6975 -52.4432)"/><path class="cls-15" d="M291.3031,122.4929q-.4662-.59505-.9322-1.19c-.3975-.5072-1.0999.2058-.7071.7072l.9322,1.1899C290.9934,123.7073,291.6959,122.9943,291.3031,122.4929Z" transform="translate(-23.6975 -52.4432)"/><path class="cls-15" d="M284.3709,119.624q-.4575.4377-.9151.8753c-.4667.4465.2413,1.1526.7071.7071q.4575-.4377.9151-.8753C285.5448,119.8847,284.8367,119.1785,284.3709,119.624Z" transform="translate(-23.6975 -52.4432)"/><path class="cls-15" d="M279.5718,122.4278q-.29745-.2991-.595-.5983a.50022.50022,0,0,0-.707.7071q.29745.29925.5949.5983A.50026.50026,0,0,0,279.5718,122.4278Z" transform="translate(-23.6975 -52.4432)"/><path class="cls-15" d="M275.6332,125.3387q-.462.367-.9241.7341c-.5048.4011.2079,1.1038.7071.7071q.46215-.367.9241-.7341C276.8451,125.6447,276.1325,124.942,275.6332,125.3387Z" transform="translate(-23.6975 -52.4432)"/><path class="cls-15" d="M275.8813,131.6185q-.46545-.39585-.931-.7919c-.4881-.4153-1.199.2886-.7071.707q.46545.39615.931.7921C275.6622,132.7409,276.3731,132.0371,275.8813,131.6185Z" transform="translate(-23.6975 -52.4432)"/><path class="cls-15" d="M275.1644,135.6736l-.5303.5966c-.4268.4801.2779,1.19.7071.7071l.5303-.5966C276.2983,135.9005,275.5937,135.1907,275.1644,135.6736Z" transform="translate(-23.6975 -52.4432)"/><path class="cls-15" d="M281.3611,138.0741l-1.0613-.5955a.50036.50036,0,0,0-.5047.8635l1.0613.5954A.50032.50032,0,0,0,281.3611,138.0741Z" transform="translate(-23.6975 -52.4432)"/><path class="cls-15" d="M282.9745,140.2824l-.3315.6628c-.2874.575.5751,1.0816.8635.5048q.16575-.3315.3315-.6629C284.1255,140.2121,283.2629,139.7055,282.9745,140.2824Z" transform="translate(-23.6975 -52.4432)"/><path class="cls-15" d="M289.0807,139.3925q-.65595-.47355-1.3119-.9472c-.524-.3783-1.0222.4898-.5047.8635q.65595.47355,1.3119.9472C289.0999,140.6343,289.5982,139.7663,289.0807,139.3925Z" transform="translate(-23.6975 -52.4432)"/><path class="cls-15" d="M292.6903,135.6881l-1.39.5358c-.5951.2294-.3368,1.1966.2659.9643l1.3899-.5358C293.5512,136.423,293.2929,135.4558,292.6903,135.6881Z" transform="translate(-23.6975 -52.4432)"/><path class="cls-15" d="M295.5926,130.0321q-.79695-.1584-1.5939-.3166c-.6297-.125-.898.8387-.2658.9643q.797.15825,1.5939.3165C295.9565,131.1214,296.2248,130.1576,295.5926,130.0321Z" transform="translate(-23.6975 -52.4432)"/><path class="cls-15" d="M293.7112,126.3491l-.0663.7292c-.0584.6424.9421.6367,1,0l.0663-.7292C294.7696,125.7067,293.7691,125.7124,293.7112,126.3491Z" transform="translate(-23.6975 -52.4432)"/><path class="cls-15" d="M294.6572,132.6529c-.0758-.632-1.0767-.6394-1,0q.04755.39615.095.792c.0758.6321,1.0767.6395,1,0Q294.7048,133.0489,294.6572,132.6529Z" transform="translate(-23.6975 -52.4432)"/><path class="cls-7" d="M172.5858,241.4036c3.4238-12.181-30.481-27.2422-37.22423-16.5358a11.16353,11.16353,0,0,0-1.73106,7.9957,7.121,7.121,0,0,0,5.10761,5.7178,5.66123,5.66123,0,0,0,3.99011-.7095,4.29146,4.29146,0,0,0,1.88843-4.2677,3.19526,3.19526,0,0,1,.45558-2.0541,1.84082,1.84082,0,0,1,2.67315-.3305c1.07531,1.0344.48071,2.9415-.27224,4.3213a33.28511,33.28511,0,0,1-8.99426,10.4994c-1.92214,1.4633-4.17065,2.9421-4.7659,5.3146a5.881,5.881,0,0,0,2.40271,5.8871,25.39071,25.39071,0,0,0,11.9424,5.3051,5.881,5.881,0,0,0,5.979-2.1638c1.3614-2.0321.9514-4.6919.7486-7.0991a33.28734,33.28734,0,0,1,1.7611-13.7126c.5191-1.4836,1.5356-3.2033,3.024-3.0989a1.8407,1.8407,0,0,1,1.5468,2.2051,3.19555,3.19555,0,0,1-1.2188,1.7151,4.29145,4.29145,0,0,0-1.9007,4.2622,5.66142,5.66142,0,0,0,2.1484,3.4364,7.12116,7.12116,0,0,0,7.6668-.0432A11.16387,11.16387,0,0,0,172.5858,241.4036Z" transform="translate(-23.6975 -52.4432)"/><path class="cls-2" d="M172.5858,241.4036c3.4238-12.181-30.481-27.2422-37.22423-16.5358a11.16353,11.16353,0,0,0-1.73106,7.9957,7.121,7.121,0,0,0,5.10761,5.7178,5.66123,5.66123,0,0,0,3.99011-.7095,4.29146,4.29146,0,0,0,1.88843-4.2677,3.19526,3.19526,0,0,1,.45558-2.0541,1.84082,1.84082,0,0,1,2.67315-.3305c1.07531,1.0344.48071,2.9415-.27224,4.3213a33.28511,33.28511,0,0,1-8.99426,10.4994c-1.92214,1.4633-4.17065,2.9421-4.7659,5.3146a5.881,5.881,0,0,0,2.40271,5.8871,25.39071,25.39071,0,0,0,11.9424,5.3051,5.881,5.881,0,0,0,5.979-2.1638c1.3614-2.0321.9514-4.6919.7486-7.0991a33.28734,33.28734,0,0,1,1.7611-13.7126c.5191-1.4836,1.5356-3.2033,3.024-3.0989a1.8407,1.8407,0,0,1,1.5468,2.2051,3.19555,3.19555,0,0,1-1.2188,1.7151,4.29145,4.29145,0,0,0-1.9007,4.2622,5.66142,5.66142,0,0,0,2.1484,3.4364,7.12116,7.12116,0,0,0,7.6668-.0432A11.16387,11.16387,0,0,0,172.5858,241.4036Z" transform="translate(-23.6975 -52.4432)"/><path class="cls-7" d="M149.31433,260.6656a4.70436,4.70436,0,0,1-.88135-.083,23.413,23.413,0,0,1-11.11084-4.936,3.94427,3.94427,0,0,1-1.66943-3.8052c.36523-1.4546,1.86865-2.5816,3.46045-3.7749l.57715-.4351a35.37845,35.37845,0,0,0,9.53857-11.1328c1.50682-2.7612,1.47222-5.2109-.09668-6.7202a3.619,3.619,0,0,0-2.52832-.9932,3.87161,3.87161,0,0,0-3.16308,1.6075,5.14481,5.14481,0,0,0-.81055,3.4433,2.36177,2.36177,0,0,1-.91211,2.3096,3.8994,3.8994,0,0,1-1.93213.5454,2.97078,2.97078,0,0,1-.62549-.0649,5.16313,5.16313,0,0,1-3.56787-4.1514,9.20827,9.20827,0,0,1,1.46143-6.541c1.41455-2.2466,4.56006-2.7178,6.9497-2.7178,8.37992,0,20.25832,5.605,24.92142,11.7598,1.6406,2.165,2.2246,4.1455,1.7353,5.8867a9.21231,9.21231,0,0,1-3.874,5.4697,6.01143,6.01143,0,0,1-3.0356.8594h0a4.13773,4.13773,0,0,1-2.4371-.7241,3.69776,3.69776,0,0,1-1.3579-2.2202,2.36251,2.36251,0,0,1,1.1026-2.2251,5.1448,5.1448,0,0,0,2.0112-2.9087,3.85363,3.85363,0,0,0-.6934-3.1407,3.66364,3.66364,0,0,0-2.666-1.4951q-.13545-.00945-.2685-.0093c-2.0518,0-3.7949,1.6192-4.7827,4.4424a35.38526,35.38526,0,0,0-1.8667,14.5415l.0644.7193c.1817,1.9814.3535,3.8525-.4814,5.0986A3.60632,3.60632,0,0,1,149.31433,260.6656Z" transform="translate(-23.6975 -52.4432)"/><path class="cls-7" d="M132.01855,277.1387c-9.42635,8.4405,11.09869,39.3452,22.53445,33.9304a11.16351,11.16351,0,0,0,5.7519-5.8176,7.12118,7.12118,0,0,0-1.2411-7.5658,5.66239,5.66239,0,0,0-3.7475-1.5428,4.29146,4.29146,0,0,0-3.8838,2.5875,3.19557,3.19557,0,0,1-1.48688,1.4888,1.84084,1.84084,0,0,1-2.43294-1.1558c-.35215-1.45,1.17309-2.74,2.54892-3.5001a33.28453,33.28453,0,0,1,13.2241-4.0321c2.4072-.2031,5.0981-.2442,6.8737-1.9266a5.88122,5.88122,0,0,0,1.1322-6.2569,25.39117,25.39117,0,0,0-7.2296-10.8857,5.88125,5.88125,0,0,0-6.2063-1.3831c-2.2393.9841-3.3208,3.4484-4.4417,5.5884a33.28646,33.28646,0,0,1-8.84536,10.6252c-1.23424.9733-3.01487,1.8788-4.21475.9918a1.84072,1.84072,0,0,1-.12168-2.6907,3.1955,3.1955,0,0,1,1.94887-.7931,4.29137,4.29137,0,0,0,3.89127-2.5763,5.66132,5.66132,0,0,0,.03145-4.0525,7.1209,7.1209,0,0,0-6.49218-4.0783A11.16393,11.16393,0,0,0,132.01855,277.1387Z" transform="translate(-23.6975 -52.4432)"/><path class="cls-2" d="M132.01855,277.1387c-9.42635,8.4405,11.09869,39.3452,22.53445,33.9304a11.16351,11.16351,0,0,0,5.7519-5.8176,7.12118,7.12118,0,0,0-1.2411-7.5658,5.66239,5.66239,0,0,0-3.7475-1.5428,4.29146,4.29146,0,0,0-3.8838,2.5875,3.19557,3.19557,0,0,1-1.48688,1.4888,1.84084,1.84084,0,0,1-2.43294-1.1558c-.35215-1.45,1.17309-2.74,2.54892-3.5001a33.28453,33.28453,0,0,1,13.2241-4.0321c2.4072-.2031,5.0981-.2442,6.8737-1.9266a5.88122,5.88122,0,0,0,1.1322-6.2569,25.39117,25.39117,0,0,0-7.2296-10.8857,5.88125,5.88125,0,0,0-6.2063-1.3831c-2.2393.9841-3.3208,3.4484-4.4417,5.5884a33.28646,33.28646,0,0,1-8.84536,10.6252c-1.23424.9733-3.01487,1.8788-4.21475.9918a1.84072,1.84072,0,0,1-.12168-2.6907,3.1955,3.1955,0,0,1,1.94887-.7931,4.29137,4.29137,0,0,0,3.89127-2.5763,5.66132,5.66132,0,0,0,.03145-4.0525,7.1209,7.1209,0,0,0-6.49218-4.0783A11.16393,11.16393,0,0,0,132.01855,277.1387Z" transform="translate(-23.6975 -52.4432)"/><path class="cls-7" d="M161.9923,273.3753a4.71079,4.71079,0,0,1,.6991.5431,23.41256,23.41256,0,0,1,6.726,10.128,3.94428,3.94428,0,0,1-.6336,4.1067c-1.0888,1.0313-2.9622,1.1753-4.9458,1.328l-.7205.0573a35.37917,35.37917,0,0,0-14.02331,4.2744c-2.75336,1.5212-4.03884,3.6068-3.52509,5.7223a3.61886,3.61886,0,0,0,1.60033,2.1949,3.872,3.872,0,0,0,3.53167.3413,5.14558,5.14558,0,0,0,2.5319-2.4704,2.36168,2.36168,0,0,1,2.0091-1.4593,3.89979,3.89979,0,0,1,1.923.5768,2.96213,2.96213,0,0,1,.493.3904,5.16329,5.16329,0,0,1,.7825,5.4177,9.20849,9.20849,0,0,1-4.7436,4.7349c-2.3993,1.1364-5.30633-.1542-7.32267-1.4367-7.07077-4.4974-14.08541-15.6017-14.71682-23.2977-.22237-2.7073.34777-4.6918,1.69509-5.8984a9.21273,9.21273,0,0,1,6.20436-2.5361,6.01136,6.01136,0,0,1,3.02264.9041h0a4.13713,4.13713,0,0,1,1.66767,1.9189,3.69659,3.69659,0,0,1-.04579,2.6021,2.36223,2.36223,0,0,1-2.12448,1.2858,5.14467,5.14467,0,0,0-3.2581,1.3749,3.85365,3.85365,0,0,0-1.1005,3.0221,3.66368,3.66368,0,0,0,1.44711,2.6924q.10923.0807.22163.1519c1.73123,1.1012,4.07105.6705,6.41973-1.1815a35.38539,35.38539,0,0,0,9.37933-11.268l.3317-.6415c.9101-1.7694,1.7693-3.4404,3.1426-4.0437A3.60613,3.60613,0,0,1,161.9923,273.3753Z" transform="translate(-23.6975 -52.4432)"/><path class="cls-11" d="M220.182,235.5031a8.65337,8.65337,0,0,1-6.74,7.5899c-3.98.9201-9.74,3.5-16.68,10.26a131.7377,131.7377,0,0,0-15.15,17.99,5.51327,5.51327,0,0,1-4.64,2.43,5.68119,5.68119,0,0,1-5.63-6.2899c.7601-7.8401,4.03-17.42,13.37-26.5101,10.26-9.9799,19.06-13.6699,25.43-14.7999a8.62219,8.62219,0,0,1,10.04,9.33Z" transform="translate(-23.6975 -52.4432)"/><path class="cls-12" d="M218.132,229.043a53.35094,53.35094,0,0,0-40.52,32.0201c-1.31,3.12-2.33,6.5299-1.71,9.86a8.63644,8.63644,0,0,0,1.07,2.8499,5.68119,5.68119,0,0,1-5.63-6.2899c.7601-7.8401,4.03-17.42,13.37-26.5101,10.26-9.9799,19.06-13.6699,25.43-14.7999A8.50125,8.50125,0,0,1,218.132,229.043Z" transform="translate(-23.6975 -52.4432)"/><path class="cls-15" d="M207.8676,240.5445a4.74164,4.74164,0,0,1-4.5738-6.0078.49991.49991,0,0,1,.9639.2656,3.74457,3.74457,0,1,0,7.3154.4702.50012.50012,0,0,1,.9903-.1406,4.74089,4.74089,0,0,1-4.6958,5.4126Z" transform="translate(-23.6975 -52.4432)"/><path class="cls-15" d="M196.9017,247.4649c-.0205,0-.0415,0-.062-.0005a4.39183,4.39183,0,0,1-3.1079-1.3374,4.43993,4.43993,0,0,1-1.0923-4.2627.5.5,0,0,1,.9639.2666,3.43634,3.43634,0,0,0,.8452,3.2989,3.39694,3.39694,0,0,0,2.4048,1.0346,3.27042,3.27042,0,0,0,2.4321-.9687,3.4353,3.4353,0,0,0,1.001-2.9356.50007.50007,0,0,1,.9902-.1406,4.43748,4.43748,0,0,1-1.2939,3.793A4.38951,4.38951,0,0,1,196.9017,247.4649Z" transform="translate(-23.6975 -52.4432)"/><path class="cls-15" d="M187.077,256.0992h-.0542a3.78466,3.78466,0,0,1-2.6787-1.1528,3.82572,3.82572,0,0,1-.9414-3.6743.5.5,0,1,1,.9639.2666,2.82189,2.82189,0,0,0,.6943,2.7104,2.7914,2.7914,0,0,0,1.9756.8501,2.81052,2.81052,0,0,0,2.8208-3.208.50007.50007,0,0,1,.9902-.1406,3.82685,3.82685,0,0,1-1.1157,3.27A3.78124,3.78124,0,0,1,187.077,256.0992Z" transform="translate(-23.6975 -52.4432)"/><path class="cls-15" d="M179.514,265.4625h-.0532a3.78249,3.78249,0,0,1-2.6787-1.1524,3.82793,3.82793,0,0,1-.9419-3.6738.506.506,0,0,1,.6148-.3496.50077.50077,0,0,1,.3491.6152,2.82411,2.82411,0,0,0,.6948,2.711,2.78779,2.78779,0,0,0,1.9756.8496,2.90543,2.90543,0,0,0,1.998-.7959,2.821,2.821,0,0,0,.8223-2.4121.50047.50047,0,0,1,.4248-.5655.50578.50578,0,0,1,.5654.4248,3.82592,3.82592,0,0,1-1.1152,3.2696A3.78363,3.78363,0,0,1,179.514,265.4625Z" transform="translate(-23.6975 -52.4432)"/><path class="cls-11" d="M191.3828,374.7031c0,4.6-3.31,7.99-8.84,10.3899v53.6501a8.30941,8.30941,0,0,1-8.31,8.31h-73.51v-92.3h48.42995C172.4728,354.7531,191.3828,363.6831,191.3828,374.7031Z" transform="translate(-23.6975 -52.4432)"/><path class="cls-12" d="M182.5428,385.093v53.6501a8.30941,8.30941,0,0,1-8.31,8.31h-9.18c3.7-5.81,7.74-15.5801,7.74-30.49,0-21.75-16.11-27-38.68-27V385.093Z" transform="translate(-23.6975 -52.4432)"/><path class="cls-12" d="M191.3828,374.7031c0,4.6-3.31,7.99-8.84,10.3899v5.6101h-12.69c4.46-4.32,5.7-11.3501,3.8499-17.2901-1.8399-5.9299-6.4099-10.77-11.8-13.8599a43.488,43.488,0,0,0-14.12-4.8h1.37C172.4728,354.7531,191.3828,363.6831,191.3828,374.7031Z" transform="translate(-23.6975 -52.4432)"/><path class="cls-4" d="M142.94694,374.7058c0-11.0211-18.90614-19.9554-42.228-19.9554s-42.228,8.9343-42.228,19.9554c0,4.6001,3.3024,7.9923,8.8362,10.388v53.6521a8.30542,8.30542,0,0,0,8.3055,8.3054h50.1727a8.30539,8.30539,0,0,0,8.30545-8.3054V385.0938C139.64457,382.698,142.94694,379.3059,142.94694,374.7058Z" transform="translate(-23.6975 -52.4432)"/><path class="cls-11" d="M75.6326,443.0513a4.31071,4.31071,0,0,1-4.3057-4.3056V385.0943a4.00079,4.00079,0,0,0-2.4101-3.6709c-6.4258-2.7822-6.4258-5.7441-6.4258-6.7178,0-7.5468,15.6997-15.955,38.228-15.955,22.5284,0,38.22806,8.4082,38.22806,15.955,0,.9737,0,3.9356-6.42529,6.7168a4.0002,4.0002,0,0,0-2.41114,3.6709v53.6524a4.31022,4.31022,0,0,1-4.30513,4.3056Z" transform="translate(-23.6975 -52.4432)"/><path class="cls-10" d="M179.922,333.543a25.73881,25.73881,0,0,1-16.24,9.11c-5.48.75-11.04-.31-16.57995-.4499-5.53-.15-11.53.8399-15.41,4.78.01-.12.02-.25.04-.37,1.50994-3.88,5.8-6.7601,10.06994-7.7601,5.5-1.2899,11.29-.56,16.83-1.6499a25.82335,25.82335,0,0,0,20.17-31.1101,7.05287,7.05287,0,0,1,4.78,3.0301,13.15016,13.15016,0,0,1,2.0201,6.69A25.70875,25.70875,0,0,1,179.922,333.543Z" transform="translate(-23.6975 -52.4432)"/><polyline class="cls-16" points="418.172 262.747 418.172 315.079 391.446 315.079"/><path class="cls-3" d="M419.29089,367.3669a4.02615,4.02615,0,1,1-4.0262-4.0262A4.02615,4.02615,0,0,1,419.29089,367.3669Z" transform="translate(-23.6975 -52.4432)"/><circle class="cls-17" cx="439.54189" cy="321.95017" r="30.86402" transform="translate(28.62973 652.80033) rotate(-80.92998)"/><circle class="cls-10" cx="439.54189" cy="321.95017" r="30.86402" transform="translate(28.62973 652.80033) rotate(-80.92998)"/><circle class="cls-18" cx="445.43847" cy="321.95017" r="30.86402" transform="translate(4.92894 627.74583) rotate(-76.53651)"/><polyline class="cls-16" points="346.708 97.851 346.708 150.183 319.983 150.183"/><circle class="cls-3" cx="320.10389" cy="150.0271" r="4.0262"/><circle class="cls-17" cx="344.38109" cy="104.6104" r="30.8641"/><circle class="cls-19" cx="344.38109" cy="104.6104" r="30.8641"/><circle class="cls-18" cx="350.27762" cy="104.6104" r="30.86406"/><polyline class="cls-16" points="124.706 24.604 124.706 76.936 151.432 76.936"/><circle class="cls-3" cx="151.3107" cy="76.7808" r="4.0262"/><circle class="cls-17" cx="127.0335" cy="31.3641" r="30.8641"/><circle class="cls-19" cx="127.0335" cy="31.3641" r="30.8641"/><circle class="cls-18" cx="121.13699" cy="31.3641" r="30.86411"/><polyline class="cls-16" points="36.704 184.261 36.704 236.593 63.43 236.593"/><circle class="cls-3" cx="63.3089" cy="236.437" r="4.0262"/><circle class="cls-17" cx="39.0317" cy="191.0203" r="30.8641"/><circle class="cls-19" cx="39.0317" cy="191.0203" r="30.8641"/><circle class="cls-18" cx="33.13517" cy="191.0203" r="30.86406"/><text class="cls-20" transform="translate(102.75956 41.86787)">5<tspan class="cls-21" x="14.82471" y="0">%</tspan></text><text class="cls-22" transform="translate(323.46725 114.86786)"><tspan class="cls-23">2</tspan><tspan class="cls-24" x="14.62891" y="0">0</tspan><tspan x="31.69141" y="0">%</tspan></text><text class="cls-22" transform="translate(7.13581 202.12948)"><tspan class="cls-25">3</tspan><tspan class="cls-26" x="15.24414" y="0">5</tspan><tspan x="30.06934" y="0">%</tspan></text><text class="cls-22" transform="translate(394.13365 279.79621)">4<tspan class="cls-24" x="16.22314" y="0">0</tspan><tspan x="33.28564" y="0">%</tspan></text></svg>