<svg xmlns="http://www.w3.org/2000/svg" viewBox="0 0 442.2951 349.20475"><defs><style>.cls-1{isolation:isolate;}.cls-2{fill:#deddf9;}.cls-3{mix-blend-mode:multiply;}.cls-4{fill:none;stroke:#5774be;stroke-linecap:round;stroke-linejoin:round;stroke-width:2.07189px;}.cls-5{fill:#5774be;}.cls-6{fill:#94b7f7;}.cls-15,.cls-7{fill:#fff;}.cls-8{fill:#b5b5e2;}.cls-9{mix-blend-mode:soft-light;}.cls-10{fill:#be515b;}.cls-11{fill:#dcb650;}.cls-12{fill:#d0d0d0;}.cls-13{fill:#e9d457;}.cls-14{fill:#e2c7c9;}.cls-15{stroke:#be515b;stroke-miterlimit:10;stroke-width:2.10356px;}.cls-16{fill:#405071;}.cls-17{fill:#cbebf9;}.cls-18{fill:#a3cadd;}.cls-19{fill:#badff9;}</style></defs><g class="cls-1"><g id="OBJECT"><path class="cls-2" d="M271.1475,97.2148c-110.457,0-199.9999,93.6876-199.9999,209.257a216.04023,216.04023,0,0,0,23.386,98.2511H447.7617a216.04272,216.04272,0,0,0,23.3859-98.2511C471.1476,190.9024,381.6045,97.2148,271.1475,97.2148Z" transform="translate(-28.8525 -56.5541)"/><g class="cls-3"><path class="cls-2" d="M449.9922,269.8121a11.85936,11.85936,0,0,0,8.8562,4.1073,15.08052,15.08052,0,0,0,9.1091-2.79,15.48059,15.48059,0,0,1-9.0405,1.8119,10.97956,10.97956,0,0,1-7.7022-4.0993,11.21746,11.21746,0,0,1-.9482-1.5695,11.392,11.392,0,0,0,6.3911-3.9029,8.2136,8.2136,0,0,0,1.8484-4.967,4.97575,4.97575,0,0,0-.7927-2.8074,4.19994,4.19994,0,0,0-2.5061-1.713,5.08555,5.08555,0,0,0-2.9104.1641,6.52349,6.52349,0,0,0-2.3386,1.5042,9.00092,9.00092,0,0,0-2.4769,4.6219,11.23939,11.23939,0,0,0,.4087,5.8111c-.1042.0094-.2063.0274-.311.0343a20.5353,20.5353,0,0,1-8.9487-1.8144,33.63383,33.63383,0,0,1-8.1255-4.768,30.12256,30.12256,0,0,0,7.7175,5.6531,20.42066,20.42066,0,0,0,9.4158,2.4829c.2934.0006.5879-.0245.8818-.0463A12.07614,12.07614,0,0,0,449.9922,269.8121Zm-.6616-9.2307a7.26234,7.26234,0,0,1,1.9882-3.628,3.65148,3.65148,0,0,1,3.4119-1.13,2.40787,2.40787,0,0,1,1.8233,2.5891,6.51123,6.51123,0,0,1-1.3912,3.8031,9.38018,9.38018,0,0,1-3.3269,2.7083,10.77942,10.77942,0,0,1-2.2209.7828A9.40206,9.40206,0,0,1,449.3306,260.5814Z" transform="translate(-28.8525 -56.5541)"/><polygon class="cls-2" points="146.722 245.699 54.673 246.9 84.089 260.907 74.083 283.519 92.013 275.169 87.49 268.511 109.102 300.328 146.722 245.699"/><path class="cls-2" d="M92.7263,347.064a54.47056,54.47056,0,0,1-7.9748,4.72,28.69753,28.69753,0,0,1-8.328,2.5107q.16965.75915.3433,1.5169a28.519,28.519,0,0,0,8.5184-2.9434,45.21007,45.21007,0,0,0,4.0717-2.435c1.3008-.8929,2.554-1.8443,3.7808-2.8225,2.4441-1.9699,4.7661-4.0654,7.0373-6.213C97.7092,343.319,95.2686,345.2703,92.7263,347.064Z" transform="translate(-28.8525 -56.5541)"/><path class="cls-2" d="M365.9556,382.9422V217.9161l3.1609-1.1304V179.8655l-3.1609-1.1304v-7.0694l3.1609-1.1305V151l-3.1609-1.1305v-3.9531l3.1609-1.1305V125.2507l-3.1609-1.1305v-1.9384a192.4528,192.4528,0,0,0-180.7769-4.6933v52.3787H159.3726a21.51794,21.51794,0,0,0-30.1568-10.8156q-5.10165,5.37675-9.8258,11.1305a21.46645,21.46645,0,0,0,14.0963,28.5135v49.0506a17.72126,17.72126,0,0,0,17.7212,17.7212h33.9712V382.9422a27.28815,27.28815,0,0,0,11.5017,21.7807H354.031A26.14475,26.14475,0,0,0,365.9556,382.9422Z" transform="translate(-28.8525 -56.5541)"/><polygon class="cls-2" points="349.608 175.68 375.615 213.447 387.43 196.054 399.825 201.826 392.908 186.194 413.243 176.51 349.608 175.68"/></g><line class="cls-4" x1="435.917" y1="348.1688" x2="48.6731" y2="348.1688"/><path class="cls-5" d="M363.1164,138.7859V119.2507l-3.1609-1.1305v-7.5564A25.40671,25.40671,0,0,0,334.5776,85.186H204.5567a25.4068,25.4068,0,0,0-25.378,25.3778V376.9422c0,13.0898,10.4043,24.8509,23.685,26.7738a5.54309,5.54309,0,0,0,.7893.0565H333.6739a5.61776,5.61776,0,0,0,.671-.0403c14.8392-1.8209,25.6106-13.0871,25.6106-26.79V211.9161l3.1609-1.1304V173.8655l-3.1609-1.1304v-7.0694l3.1609-1.1305V145l-3.1609-1.1305v-3.9531Z" transform="translate(-28.8525 -56.5541)"/><path class="cls-6" d="M203.653,398.2647c-10.0531-1.4547-18.966-10.369-18.966-21.3232V110.5643a19.89253,19.89253,0,0,1,19.8697-19.871H334.5779a19.8926,19.8926,0,0,1,19.8697,19.871V376.9415c0,10.9542-8.913,19.8685-20.7735,21.3232Z" transform="translate(-28.8525 -56.5541)"/><path class="cls-7" d="M334.5779,98.4698H311.9093s-7.4994,10.5755-11.1719,10.5755H241.7697c-3.6724,0-11.1718-10.5755-11.1718-10.5755H204.5567a12.09383,12.09383,0,0,0-12.0938,12.0938V351.5848a15.62374,15.62374,0,0,0,15.6237,15.6237h122.962a15.62374,15.62374,0,0,0,15.6237-15.6237V110.5642A12.0944,12.0944,0,0,0,334.5779,98.4698Z" transform="translate(-28.8525 -56.5541)"/><rect class="cls-8" x="176.3336" y="69.2568" width="130.4852" height="13.0485"/><rect class="cls-8" x="176.3336" y="96.9384" width="130.4852" height="6.5243"/><rect class="cls-8" x="176.3336" y="113.0061" width="130.4852" height="6.5243"/><rect class="cls-8" x="176.3336" y="129.0738" width="130.4852" height="6.5242"/><rect class="cls-8" x="176.3336" y="145.1414" width="130.4852" height="6.5243"/><rect class="cls-8" x="176.3336" y="161.2091" width="130.4852" height="6.5243"/><rect class="cls-8" x="176.3336" y="177.2768" width="130.4852" height="6.5242"/><rect class="cls-8" x="176.3336" y="193.3444" width="130.4852" height="6.5243"/><rect class="cls-8" x="176.3336" y="209.4121" width="130.4852" height="6.5243"/><rect class="cls-8" x="176.3336" y="225.4798" width="130.4852" height="6.5242"/><rect class="cls-8" x="176.3336" y="241.5474" width="130.4852" height="6.5243"/><rect class="cls-8" x="176.3336" y="257.6151" width="130.4852" height="6.5243"/><rect class="cls-8" x="176.3336" y="273.6828" width="83.8557" height="6.5242"/><rect class="cls-8" x="176.3336" y="289.7504" width="50.6113" height="6.5243"/><path class="cls-5" d="M287.1,102.3535H245.4447a1.94752,1.94752,0,0,1-1.9418-1.9419h0a1.9475,1.9475,0,0,1,1.9418-1.9418H287.1a1.94763,1.94763,0,0,1,1.9418,1.9418h0A1.94765,1.94765,0,0,1,287.1,102.3535Z" transform="translate(-28.8525 -56.5541)"/><path class="cls-5" d="M299.0043,100.4326a1.96265,1.96265,0,1,1-1.9627-1.9628A1.96266,1.96266,0,0,1,299.0043,100.4326Z" transform="translate(-28.8525 -56.5541)"/><circle class="cls-5" cx="242.2951" cy="326.732" r="9.6369"/><g class="cls-9"><path class="cls-7" d="M338.1668,99.0115,192.4629,342.6207v8.9641a15.6237,15.6237,0,0,0,15.6238,15.6237h26.9296L346.6724,180.525V110.5642A12.09976,12.09976,0,0,0,338.1668,99.0115Z" transform="translate(-28.8525 -56.5541)"/><path class="cls-7" d="M311.9092,98.4698s-7.4993,10.5755-11.1718,10.5755H247.8933L192.4629,201.722V322.2551L326.31,98.4698Z" transform="translate(-28.8525 -56.5541)"/><polygon class="cls-7" points="256.064 310.654 317.82 207.402 317.82 144.337 218.344 310.654 256.064 310.654"/></g><path class="cls-10" d="M358.0341,56.5541a38.75035,38.75035,0,0,1,1.1754,6.5304,65.37029,65.37029,0,0,1,.3242,6.5304,64.27629,64.27629,0,0,1-.3202,6.5303,38.22918,38.22918,0,0,1-1.1794,6.5304,38.23923,38.23923,0,0,1-1.1795-6.5304,64.27615,64.27615,0,0,1-.3201-6.5303c.0018-2.1768.1042-4.3536.3243-6.5304A38.73,38.73,0,0,1,358.0341,56.5541Z" transform="translate(-28.8525 -56.5541)"/><path class="cls-10" d="M392.626,91.8791a38.73921,38.73921,0,0,1-6.5303,1.1754c-2.1768.22-4.3538.3224-6.5305.3241a64.2457,64.2457,0,0,1-6.5303-.32,38.23748,38.23748,0,0,1-6.5304-1.1795,38.24723,38.24723,0,0,1,6.5304-1.1795,64.27473,64.27473,0,0,1,6.5303-.3201c2.1767.0018,4.3537.1042,6.5305.3242A38.73921,38.73921,0,0,1,392.626,91.8791Z" transform="translate(-28.8525 -56.5541)"/><path class="cls-10" d="M381.0496,68.4453a38.75864,38.75864,0,0,1-3.7864,5.4488q-2.0757,2.5422-4.3886,4.8468a64.21369,64.21369,0,0,1-4.844,4.3913,38.2296,38.2296,0,0,1-5.4516,3.7837,38.23626,38.23626,0,0,1,3.7837-5.4517,64.25174,64.25174,0,0,1,4.3912-4.8439q2.31075-2.307,4.8469-4.3885A38.75413,38.75413,0,0,1,381.0496,68.4453Z" transform="translate(-28.8525 -56.5541)"/><path class="cls-10" d="M385.5159,115.888a38.74454,38.74454,0,0,1-5.449-3.7865q-2.5419-2.07555-4.8467-4.3885a64.23766,64.23766,0,0,1-4.3915-4.844,38.24587,38.24587,0,0,1-3.7837-5.4516,38.22539,38.22539,0,0,1,5.4518,3.7836,64.29539,64.29539,0,0,1,4.844,4.3913,65.35847,65.35847,0,0,1,4.3884,4.8469A38.727,38.727,0,0,1,385.5159,115.888Z" transform="translate(-28.8525 -56.5541)"/><path class="cls-10" d="M352.0775,82.4498a38.74832,38.74832,0,0,1-5.4488-3.7865q-2.542-2.07555-4.8468-4.3885a64.2558,64.2558,0,0,1-4.3914-4.844,38.24382,38.24382,0,0,1-3.7836-5.4517,38.24439,38.24439,0,0,1,5.4517,3.7837,64.27394,64.27394,0,0,1,4.844,4.3913q2.307,2.3106,4.3884,4.8469A38.74251,38.74251,0,0,1,352.0775,82.4498Z" transform="translate(-28.8525 -56.5541)"/><path class="cls-10" d="M191.9879,241.4118s13.9299,50.7337,77.0077,44.676c0,0-31.5746-5.3261-31.5746-44.676Z" transform="translate(-28.8525 -56.5541)"/><rect class="cls-10" x="98.6339" y="107.3131" width="151.7093" height="95.6002" rx="17.7212"/><rect class="cls-11" x="136.9641" y="137.025" width="75.049" height="53.9414"/><rect class="cls-7" x="146.6096" y="119.2599" width="55.758" height="69.1121"/><rect class="cls-12" x="152.8162" y="126.7509" width="43.3448" height="4.07"/><rect class="cls-12" x="152.8162" y="135.0943" width="43.3448" height="4.0699"/><rect class="cls-12" x="152.8162" y="143.4376" width="43.3448" height="4.07"/><rect class="cls-12" x="152.8162" y="151.781" width="43.3448" height="4.0699"/><rect class="cls-12" x="152.8162" y="160.1244" width="43.3448" height="4.0699"/><rect class="cls-12" x="152.8162" y="168.4677" width="43.3448" height="4.07"/><rect class="cls-12" x="152.8162" y="176.8111" width="43.3448" height="4.0699"/><polygon class="cls-13" points="153.739 162.285 136.964 137.025 136.964 190.966 212.013 190.966 212.013 137.025 195.303 162.285 153.739 162.285"/><polygon class="cls-13" points="212.013 190.966 136.964 190.966 153.739 162.285 195.238 162.285 212.013 190.966"/><path class="cls-11" d="M165.8167,247.5205c1.2999-2.4474,2.6311-4.8766,3.9654-7.3039,1.3346-2.4272,2.6511-4.8649,4.02-7.2721l4.0719-7.2416,4.089-7.2317.2014-.3561.4276-.0048c6.9164-.0763,13.8328-.0933,20.7491-.1097,6.9163.0158,13.8326.0311,20.749.1079l.4263.0047.2043.357c2.7512,4.8064,5.4386,9.6502,8.161,14.4734,1.3684,2.4074,2.6862,4.8444,4.0197,7.2723,1.3337,2.4276,2.6649,4.8568,3.9642,7.3046-1.4966-2.3324-2.9613-4.6835-4.4235-7.0361-1.4624-2.3524-2.9405-4.6956-4.3679-7.0685-2.8694-4.7373-5.7739-9.454-8.6145-14.2081l.6304.3615c-6.9164.0768-13.8327.092-20.749.1079-6.9163-.0164-13.8327-.0334-20.7491-.1097l.6288-.3607-4.2987,7.1091-4.3157,7.0991c-1.427,2.3731-2.9063,4.7156-4.3676,7.0686C168.7772,242.8366,167.3125,245.1877,165.8167,247.5205Z" transform="translate(-28.8525 -56.5541)"/><path class="cls-14" d="M266.8546,195.8304a38.74251,38.74251,0,0,1-3.7865,5.4488,65.38405,65.38405,0,0,1-4.3885,4.8469,64.23509,64.23509,0,0,1-4.844,4.3913,38.23874,38.23874,0,0,1-5.4517,3.7837,38.24439,38.24439,0,0,1,3.7837-5.4517,64.213,64.213,0,0,1,4.3914-4.844q2.3106-2.307,4.8468-4.3885A38.74832,38.74832,0,0,1,266.8546,195.8304Z" transform="translate(-28.8525 -56.5541)"/><path class="cls-14" d="M266.3362,245.2691a38.72792,38.72792,0,0,1-5.4487-3.7866,65.36417,65.36417,0,0,1-4.847-4.3884,64.27266,64.27266,0,0,1-4.3912-4.844,38.23626,38.23626,0,0,1-3.7837-5.4517,38.22813,38.22813,0,0,1,5.4517,3.7837,64.27394,64.27394,0,0,1,4.844,4.3913q2.30685,2.31075,4.3884,4.8469A38.73416,38.73416,0,0,1,266.3362,245.2691Z" transform="translate(-28.8525 -56.5541)"/><path class="cls-14" d="M274.7207,220.5132a38.74034,38.74034,0,0,1-6.5304,1.1754c-2.1768.22-4.3535.3224-6.5304.3242a64.30844,64.30844,0,0,1-6.5304-.3201,38.24962,38.24962,0,0,1-6.5303-1.1795,38.24962,38.24962,0,0,1,6.5303-1.1795,64.30844,64.30844,0,0,1,6.5304-.3201c2.1769.0018,4.3536.1042,6.5304.3242A38.74034,38.74034,0,0,1,274.7207,220.5132Z" transform="translate(-28.8525 -56.5541)"/><path class="cls-14" d="M139.8276,195.8304a38.74251,38.74251,0,0,1,5.4488,3.7865q2.5422,2.07555,4.8469,4.3885a64.25323,64.25323,0,0,1,4.3912,4.844,38.23626,38.23626,0,0,1,3.7837,5.4517,38.23774,38.23774,0,0,1-5.4516-3.7837,64.23509,64.23509,0,0,1-4.844-4.3913q-2.307-2.3106-4.3885-4.8469A38.73416,38.73416,0,0,1,139.8276,195.8304Z" transform="translate(-28.8525 -56.5541)"/><path class="cls-14" d="M140.3459,245.2691a38.74251,38.74251,0,0,1,3.7865-5.4488q2.07555-2.5422,4.3885-4.8469a64.21569,64.21569,0,0,1,4.844-4.3913,38.21583,38.21583,0,0,1,5.4516-3.7837,38.22813,38.22813,0,0,1-3.7837,5.4517,64.27266,64.27266,0,0,1-4.3912,4.844q-2.31075,2.307-4.8469,4.3884A38.73474,38.73474,0,0,1,140.3459,245.2691Z" transform="translate(-28.8525 -56.5541)"/><path class="cls-14" d="M131.9614,220.5132a38.73854,38.73854,0,0,1,6.5304-1.1754c2.1768-.22,4.3535-.3224,6.5303-.3242a64.30419,64.30419,0,0,1,6.5304.3201,38.24723,38.24723,0,0,1,6.5304,1.1795,38.24723,38.24723,0,0,1-6.5304,1.1795,64.30419,64.30419,0,0,1-6.5304.3201c-2.1768-.0018-4.3535-.1042-6.5303-.3242A38.73854,38.73854,0,0,1,131.9614,220.5132Z" transform="translate(-28.8525 -56.5541)"/><circle class="cls-15" cx="133.4391" cy="172.00808" r="20.49069" transform="translate(-84.51973 7.60422) rotate(-22.50002)"/><path class="cls-16" d="M135.5721,160.3558h-2.305a.75189.75189,0,0,0-.6944.4635c-.5173,1.2469-2.35,2.0989-4.9022,2.2792a.75137.75137,0,0,0-.6988.7498v2.3047a.7517.7517,0,0,0,.7517.7517h3.7956v16.004a.75177.75177,0,0,0,.7517.7517h3.3014a.75177.75177,0,0,0,.7517-.7517V161.1075A.75177.75177,0,0,0,135.5721,160.3558Z" transform="translate(-28.8525 -56.5541)"/><polygon class="cls-17" points="81.49 262.511 140.722 239.699 103.102 294.328 81.49 262.511"/><polygon class="cls-18" points="68.083 277.519 81.49 262.511 86.013 269.169 68.083 277.519"/><polygon class="cls-19" points="78.089 254.907 68.083 277.519 81.49 262.511 140.722 239.699 78.089 254.907"/><polygon class="cls-7" points="48.673 240.9 78.089 254.907 140.722 239.699 48.673 240.9"/><path class="cls-19" d="M94.175,335.3977c-2.2713,2.1477-4.5932,4.2431-7.0373,6.213-1.2269.9782-2.48,1.9296-3.7809,2.8225a45.19778,45.19778,0,0,1-4.0718,2.435,27.94139,27.94139,0,0,1-9.0698,3.0319,22.8803,22.8803,0,0,1-9.6252-.7324,17.1843,17.1843,0,0,1-8.2702-5.1984,13.07656,13.07656,0,0,1-3.2335-9.3326,9.7286,9.7286,0,0,1,1.6574-4.8771,11.27746,11.27746,0,0,1,3.875-3.3062,10.926,10.926,0,0,1,2.3759-.9645,5.99779,5.99779,0,0,1,2.7467-.1564,3.80707,3.80707,0,0,1,2.4932,1.6735,5.97591,5.97591,0,0,1,.8326,2.6265l.0009.0091a.89383.89383,0,0,1-.14.5771,9.06717,9.06717,0,0,1-4.1988,3.4944,11.47077,11.47077,0,0,1-5.3057.6867,25.597,25.597,0,0,1-9.7294-3.2377,43.27246,43.27246,0,0,1-8.2512-5.8616,36.0437,36.0437,0,0,1-6.5904-7.5861,39.936,39.936,0,0,0,7.0359,7.0568,48.16642,48.16642,0,0,0,8.3645,5.3072,25.30685,25.30685,0,0,0,9.2798,2.7463,10.2106,10.2106,0,0,0,4.5371-.698,7.28294,7.28294,0,0,0,3.3323-2.8892l-.139.5858a4.19525,4.19525,0,0,0-.5778-1.7956,1.90177,1.90177,0,0,0-1.3063-.8327,6.3993,6.3993,0,0,0-3.8338.9585,9.37866,9.37866,0,0,0-3.1868,2.7249,7.75349,7.75349,0,0,0-1.2808,3.8986,10.74749,10.74749,0,0,0,.5743,4.2103,12.22081,12.22081,0,0,0,2.1511,3.7304,15.89688,15.89688,0,0,0,7.3236,4.7271,22.21962,22.21962,0,0,0,8.9042.8993,28.078,28.078,0,0,0,8.7205-2.5601,54.4558,54.4558,0,0,0,7.9749-4.72C89.2686,339.2703,91.7091,337.319,94.175,335.3977Z" transform="translate(-28.8525 -56.5541)"/><polygon class="cls-17" points="384.556 185.451 343.608 169.68 369.615 207.447 384.556 185.451"/><polygon class="cls-18" points="393.825 195.826 384.556 185.451 381.43 190.054 393.825 195.826"/><polygon class="cls-19" points="386.908 180.194 393.825 195.826 384.556 185.451 343.608 169.68 386.908 180.194"/><polygon class="cls-7" points="407.243 170.51 386.908 180.194 343.608 169.68 407.243 170.51"/><path class="cls-19" d="M424.5049,253.4354a33.63383,33.63383,0,0,0,8.1255,4.768,20.5353,20.5353,0,0,0,8.9487,1.8144,11.40562,11.40562,0,0,0,4.2568-1.0939,9.38018,9.38018,0,0,0,3.3269-2.7083,6.511,6.511,0,0,0,1.3912-3.8031,2.40787,2.40787,0,0,0-1.8233-2.5891,3.65155,3.65155,0,0,0-3.4119,1.1301,7.26162,7.26162,0,0,0-1.9882,3.6279,10.24919,10.24919,0,0,0,1.8842,8.2606,10.98,10.98,0,0,0,7.7022,4.0994,15.48144,15.48144,0,0,0,9.0405-1.812,15.08052,15.08052,0,0,1-9.1091,2.79,11.859,11.859,0,0,1-8.8562-4.1073,11.69048,11.69048,0,0,1-2.5108-9.6397,9.00092,9.00092,0,0,1,2.4769-4.6219,6.52349,6.52349,0,0,1,2.3386-1.5042,5.08641,5.08641,0,0,1,2.9104-.1641,4.19994,4.19994,0,0,1,2.5061,1.713,4.97607,4.97607,0,0,1,.7927,2.8075,8.21354,8.21354,0,0,1-1.8484,4.9669,11.62994,11.62994,0,0,1-9.0195,4.2018,20.41944,20.41944,0,0,1-9.4158-2.4829A30.12256,30.12256,0,0,1,424.5049,253.4354Z" transform="translate(-28.8525 -56.5541)"/></g></g></svg>