<svg id="OBJECTS" xmlns="http://www.w3.org/2000/svg" xmlns:xlink="http://www.w3.org/1999/xlink" viewBox="0 0 438.30345 610.19792"><defs><style>.cls-1,.cls-13,.cls-17,.cls-19,.cls-20,.cls-5,.cls-6{fill:none;}.cls-2{fill:#e0ebfc;}.cls-3{clip-path:url(#clip-path);}.cls-14,.cls-4{fill:#ef967b;}.cls-14,.cls-5,.cls-6{stroke:#000;}.cls-13,.cls-14,.cls-17,.cls-19,.cls-20,.cls-5,.cls-6{stroke-miterlimit:10;}.cls-5{stroke-width:2px;}.cls-14,.cls-17,.cls-19,.cls-20,.cls-6{stroke-width:1.5px;}.cls-7{fill:#6b3429;}.cls-8{fill:#3f4b9e;}.cls-9{fill:#5d69c1;}.cls-10{fill:#fff;}.cls-11{fill:#2b2a33;}.cls-12{clip-path:url(#clip-path-2);}.cls-13{stroke:#e8d9d1;stroke-width:3px;}.cls-15{fill:#2d2b3f;}.cls-16{fill:#fcd98d;}.cls-17{stroke:#4e4e72;}.cls-18{fill:#4e4e72;}.cls-19{stroke:#5d69c1;}.cls-20{stroke:#c95050;stroke-linecap:round;}</style><clipPath id="clip-path" transform="translate(-31.5083 -54.11602)"><rect class="cls-1" width="500" height="500"/></clipPath><clipPath id="clip-path-2" transform="translate(-31.5083 -54.11602)"><polygon class="cls-1" points="265.428 305.271 159.564 326.723 76.851 211.38 182.715 189.928 265.428 305.271"/></clipPath></defs><path class="cls-2" d="M90.3297,129.0408c-25.1683,24.575-41.6637,57.5393-44.3438,93.1931-2.9658,39.456,8.8753,78.9936,27.9357,113.6675,23.5043,42.7581,58.6824,79.692,102.2679,101.624,43.58559,21.932,95.70579,28.0347,142.09309,12.9045,41.6461-13.5837,76.9875-43.5348,100.8712-80.2565,23.8836-36.7217,36.7915-79.8842,41.3599-123.4507,3.5238-33.6044,2.1361-68.2392-9.01-100.1365-9.37369-26.8249-27.2059-55.5291-52.1494-70.1441-39.7122-23.2683-90.3314-24.7387-135.12829-20.3917C202.03379,62.0856,135.7567,84.6845,90.3297,129.0408Z" transform="translate(-31.5083 -54.11602)"/><g class="cls-3"><polygon class="cls-4" points="275.082 179.468 272.102 222.243 360.149 202.453 356.483 156.636 275.082 179.468"/><path class="cls-4" d="M387.58139,126.7286a44.899,44.899,0,0,0-9.14439-10.2175c-12.41941-10.1868-27.74741-12.8023-43.09651-11.432-8.4578.755-16.9298,3.2528-23.7979,8.3377-20.5428,15.2093-20.9928,44.4272-35.4218,64.0482-2.1232,2.8871-5.2477,6.2085-5.7942,9.9208-.589,4.0049,4.0507,5.6762,7.0842,7.2483-2.58,10.6057-3.8205,22.033,1.5595,32.0313,5.5734,10.3576,17.878,15.4646,29.5265,15.5672,17.8554.1575,33.649-7.1092,49.0271-15.413a76.48327,76.48327,0,0,0,32.8718-35.0386C399.627,171.7065,400.01949,145.7756,387.58139,126.7286Z" transform="translate(-31.5083 -54.11602)"/><path class="cls-5" d="M299.92419,148.8445c5.2217-.2525,9.8292,2.7733,13.0577,6.4122,3.6574,4.1222,6.0343,9.7123,8.2692,14.7846" transform="translate(-31.5083 -54.11602)"/><path class="cls-6" d="M282.13429,203.0412a6.93794,6.93794,0,0,0,4.205,1.4982,13.45131,13.45131,0,0,0,12.3499-6.8732" transform="translate(-31.5083 -54.11602)"/><path d="M307.14609,168.8226c-1.2303,2.9342-3.4289,4.798-4.9109,4.163-1.4819-.6351-1.686-3.5286-.4558-6.4628s3.4288-4.798,4.9108-4.163C308.17219,162.9949,308.37629,165.8884,307.14609,168.8226Z" transform="translate(-31.5083 -54.11602)"/><path class="cls-7" d="M419.69559,150.5612c-6.6694-6.3541-.8344-12.116-5.8713-19.9243-4.4712-6.9313-14.145-8.5829-14.145-8.5829.9379-7.3526-2.3456-14.8552-7.6377-19.9441-5.2922-5.0889-12.3784-7.9518-19.5802-9.1657s-14.5717-.884-21.85439-.2829c-2.99431.2472-6.22431.4867-8.77941-1.1054-1.4252-.888-2.4912-2.2685-3.8732-3.2239-3.383-2.3385-7.9396-1.7254-11.8773-.5508a52.78728,52.78728,0,0,0-18.6222,9.9965c-3.8595-.372-7.7832-.7411-11.5917.0152-9.1806,1.8232-19.0157,8.224-21.9511,17.6546-1.5907,5.1107-.1508,10.8487,2.9115,15.1975a23.34284,23.34284,0,0,0,16.1726,9.5352,44.069,44.069,0,0,0,29.7921-7.7794c3.0454-2.1693,5.8079-4.7438,8.9663-6.7392a20.481,20.481,0,0,1,11.1007-3.4877,13.34357,13.34357,0,0,1,7.6664,2.4878c1.32131.9838,4.2221,3.6323,4.0601,5.3857a3.59766,3.59766,0,0,1-.4396,1.2938c-1.7809,3.4578-4.7999,6.7095-6.0309,10.5317a12.70628,12.70628,0,0,0-.0584,6.6402c.4013,1.8301,1.4636,3.6233,1.1658,5.5203-.3426,2.1815-1.9666,4.1925-2.9206,6.1245a11.38351,11.38351,0,0,0,.17791,10.2527c1.712,3.1707,4.85769,5.3163,6.71179,8.4033,1.9608,3.2648,2.5195,7.5257,3.0116,11.2481.4621,3.4966.9944,6.9802,1.7585,10.4228,1.1327,5.1043,2.7387,12.8935,7.6286,15.7682,8.7986,5.1726,20.86,8.4065,24.471,7.0839s5.80551-6.0919,8.8534-12.772c3.048-6.68,13.86911-14.0736,19.708-25.3268S426.365,156.9151,419.69559,150.5612Z" transform="translate(-31.5083 -54.11602)"/><path class="cls-4" d="M342.40939,179.4584c4.2359-6.254,12.2428-8.7083,17.2037-6.675,7.3557,3.0146,9.2521,11.7909,7.9721,18.8226a27.26049,27.26049,0,0,1-8.8028,16.1046c-4.666,4.2414-13.1841,8.0667-19.02,5.4505-3.9729-1.7807-5.0792-7.468-4.5477-11.3198" transform="translate(-31.5083 -54.11602)"/><line class="cls-6" x1="308.69949" y1="143.21538" x2="328.93459" y2="132.34248"/><path class="cls-6" d="M334.64969,203.3998c.33431,2.249,1.1026,9.6983,8.0088,10.7185,3.1392.4638,9.6488.5628,18.3682-8.672" transform="translate(-31.5083 -54.11602)"/><path class="cls-6" d="M342.00939,178.9567c1.9783-2.0607,9.4699-10.3782,20.1827-4.7332" transform="translate(-31.5083 -54.11602)"/><path class="cls-6" d="M307.45489,97.7777s-6.5666,6.0124-4.6092,14.4388" transform="translate(-31.5083 -54.11602)"/><path class="cls-6" d="M359.45269,128.7343s19.3859-10.2064,40.2266-6.6803" transform="translate(-31.5083 -54.11602)"/><path class="cls-6" d="M305.65559,242.3725a55.052,55.052,0,0,0,33.109-15.6528" transform="translate(-31.5083 -54.11602)"/><path class="cls-4" d="M134.8978,409.7671c-7.3865-21.529-19.0693-49.2578-26.4558-70.7868-1.879-5.4766-3.761-10.9635-5.1106-16.5992-2.7034-11.2894-3.2288-22.9906-3.5039-34.6087a97.017,97.017,0,0,1,.1462-10.3826c.6513-7.7845,3.0603-15.2945,5.4525-22.7227q2.27565-7.06635,4.5513-14.1326c.9075-2.818,2.2215-6.0431,5.0479-6.7908,4.6628-1.2334,6.8842,7.1994,6.8842,7.1994s1.2912-4.8367,1.8333-7.2408,2.4658-5.4482,4.8533-4.9962c1.4968.2835,3.5696,2.3077,4.2674,3.6805,2.0921,4.1162,2.3926,6.974,2.325,11.3098.3531-2.214,3.089-4.1972,5.0136-3.0981,5.2509,2.9992,7.3425,17.3322,7.3425,17.3322s1.1719-6.3859,4.3826-3.7032c4.5154,3.7729,5.4339,11.5935,5.5808,15.8143.4346,12.485,6.1415,27.7223,11.9664,38.72,3.4158,6.4492,7.824,12.3545,10.7488,19.0482,4.2586,9.746,2.2435,21.1222,6.4645,30.3434q3.9954,8.728,7.9907,17.4561" transform="translate(-31.5083 -54.11602)"/><path class="cls-4" d="M310.32669,289.3909a178.93194,178.93194,0,0,0-26.5176-33.7548c-4.9312-4.9186-12.8036-12.6156-18.57209-16.456-17.11521-11.3944-35.36421-12.1466-55.753-13.2467a5.42384,5.42384,0,0,0-3.41991.5795c-1.5809,1.0878-1.63509,3.6011-.6248,5.2519a11.17609,11.17609,0,0,0,4.4264,3.5686c-2.2513-.577-7.06869-1.368-7.39769.4248-.815,4.4406,4.84639,8.184,4.84639,8.184s-2.01639-.1228-2.4901.8496c-.4737.9723.8986,4.7791,2.5963,6.4447a31.65393,31.65393,0,0,0,5.9648,3.7894s-2.2427-1.0632-2.9177-.0713c-.6749.992.2017,3.2919,1.23931,4.6044,4.32249,5.4675,10.17879,9.3881,15.94339,13.2024,5.0502,3.3416,10.2775,6.8466,13.41961,12.1064a62.153,62.153,0,0,1,3.44509,7.5754c3.7676,8.8117,9.72691,16.8688,17.8511,21.6583,3.4912,2.0581,7.3003,3.4754,10.937,5.249a62.55346,62.55346,0,0,1,12.5439,8.1093" transform="translate(-31.5083 -54.11602)"/><polygon class="cls-8" points="257.427 266.486 112.911 295.77 0 138.314 1.235 133.926 143.91 108.021 258.661 262.098 257.427 266.486"/><polygon class="cls-9" points="258.661 262.098 114.146 291.382 1.235 133.926 145.75 104.642 258.661 262.098"/><polyline class="cls-6" points="258.661 262.098 114.146 291.382 1.235 133.926"/><polygon class="cls-10" points="246.978 253.596 115.726 280.193 13.177 137.187 144.43 110.591 246.978 253.596"/><path class="cls-11" d="M139.0973,164.1236,80.7592,175.945a.85634.85634,0,0,0-.4837,1.3497l6.1341,8.1675a2.95768,2.95768,0,0,0,2.9574,1.1506l58.3381-11.8215a.85624.85624,0,0,0,.4837-1.3496l-6.1341-8.1675A2.95749,2.95749,0,0,0,139.0973,164.1236Z" transform="translate(-31.5083 -54.11602)"/><g class="cls-12"><line class="cls-13" x1="176.02329" y1="141.12968" x2="26.3141" y2="171.46628"/><line class="cls-13" x1="185.06459" y1="154.56778" x2="35.3554" y2="184.90438"/><line class="cls-13" x1="194.10589" y1="168.00598" x2="44.3967" y2="198.34258"/><line class="cls-13" x1="203.14709" y1="181.44408" x2="53.438" y2="211.78068"/><line class="cls-13" x1="212.18839" y1="194.88228" x2="62.4792" y2="225.21888"/><line class="cls-13" x1="221.2297" y1="208.32038" x2="71.5205" y2="238.65698"/><line class="cls-13" x1="230.27099" y1="221.75858" x2="80.5618" y2="252.09518"/><line class="cls-13" x1="221.98399" y1="238.70808" x2="174.47909" y2="248.33428"/></g><path class="cls-14" d="M266.07489,245.7351c-3.1864-.8491-7.7226-3.8005-13.1996-5.5238-8.59529-2.7045-11.4771-1.8391-20.1278-4.4409a3.60321,3.60321,0,0,0-2.4578-.1369,3.08866,3.08866,0,0,0-1.5001,2.1972c-1.2518,5.0141,3,9.2257,7.2462,12.0747,4.24621,2.8491,11.3361,5.3208,15.6595,8.0484,8.1323,5.1307,11.27371,14.6211,16.2281,22.3544a31.27272,31.27272,0,0,0,26.4481,14.4082" transform="translate(-31.5083 -54.11602)"/><path class="cls-14" d="M114.6968,317.9455c2.0429-6.3131,1.3291-13.3889,1.7134-21.6204.31-6.6409.4751-13.1568.3866-19.8016a7.29624,7.29624,0,0,1,.2945-2.6637c1.1127-2.9507,6.2148-2.0402,7.9862-.9046,8.0627,5.1686,7.2146,24.7002,10.0337,35.8699a36.26244,36.26244,0,0,0,2.8509,7.7085,61.22847,61.22847,0,0,0,5.6752,8.5107c3.7309,4.9996,8.1739,10.4387,10.0327,16.488,1.8697,6.085,1.6359,15.5102,1.6641,21.8202" transform="translate(-31.5083 -54.11602)"/><path class="cls-15" d="M451.83589,273.9921c6.137,7.5531,11.1945,20.0918,14.1808,29.6082,3.8161,12.1611,3.56331,25.141,3.7501,37.7701.2808,18.988-.8182,37.9444-1.50279,56.9089-.96621,26.7637-2.06941,53.6729-7.01351,80.0544-4.0844,21.7941-10.8917,64.3749-40.101,64.7438-23.5802.2978-45.5322-13.6181-60.59449-31.7631-15.06231-18.1449-24.37031-40.2585-33.46591-62.0159q-15.22513-36.4191-30.4502-72.8383l48.4917-49.0004L412.066,441.0425" transform="translate(-31.5083 -54.11602)"/><path class="cls-16" d="M284.24049,290.5007s7.3469-16.2397,9.6742-19.164c4.9507-6.2206,32.168-19.2496,55.39-25.3276,17.4679-4.5719,41.7665-3.5486,44.94-.9806,3.1735,2.5679,8.1911,21.1976,8.1911,21.1976Z" transform="translate(-31.5083 -54.11602)"/><path class="cls-15" d="M374.02429,601.8807c.2012,1.1869,7.0943,33.6921,11.4725,54.3139,31.0719-5.477,53.7778-11.71,53.7778-11.71s-3.0972-40.2187-5.6015-63.1522c-2.3452-21.4794-7.868-49.6741-5.1396-71.2304,5.1837-40.9499,16.9863-114.0216,16.9863-114.0216s14.8851-39.3742,16.7107-68.6206c1.3764-22.0509-.9661-35.0076-6.8921-47.5536-11.5976-24.5533-42.7297-23.6569-59.3452-21.8977-16.8971,1.7891-66.586,14.3523-66.586,14.3523S217.708,433.9082,214.55669,478.0228s-16.1365,151.3925-16.1365,151.3925,35.6184,31.6347,91.5082,34.5477c24.66361,1.2856,51.78361-1.1195,76.0677-4.6326C368.37089,641.3153,373.79379,600.5211,374.02429,601.8807Z" transform="translate(-31.5083 -54.11602)"/><path class="cls-17" d="M459.82789,339.3884c-2.64789,21.8441-9.5832,39.3567-15.0793,60.6642,0,0-16.0059,98.7466-16.4648,112.279-.45879,13.5325.64621,30.7506.64621,30.7506" transform="translate(-31.5083 -54.11602)"/><polyline class="cls-16" points="104.406 371.805 92.077 335.838 157.582 307.451 181.82 357.831"/><path class="cls-15" d="M243.533,454.9983l-47.6077-82.439-69.1201,31.714s38.4795,121.1849,63.4789,154.1783c17.7599,23.4389,54.32809,25.3889,78.70479-24.4173,24.3768-49.8062,48.7319-155.4345,48.7319-155.4345l48.5391-114.0897q-16.44405,3.50175-32.8882,7.0035c-6.69269,1.4253-13.3893,2.8514-19.998,4.6376-17.219,4.6538-33.73069,11.7239-49.6788,19.7997a91.73333,91.73333,0,0,0-14.8557,8.8787c-5.9934,4.6299-10.9176,10.5369-15.3498,16.7176-19.8767,27.7182-50.06219,147.5753-50.06219,147.5753" transform="translate(-31.5083 -54.11602)"/><path class="cls-17" d="M190.2841,558.4516c17.7599,23.4389,54.32809,25.3889,78.70479-24.4173,24.3768-49.8062,48.7319-155.4345,48.7319-155.4345" transform="translate(-31.5083 -54.11602)"/><path class="cls-17" d="M205.896,389.8247s-15.1893,65.8903-17.5261,75.1661-6.3215,32.7262-2.0727,41.7929" transform="translate(-31.5083 -54.11602)"/><path class="cls-17" d="M308.81889,414.3224a168.7783,168.7783,0,0,0,17.5947-25.7895" transform="translate(-31.5083 -54.11602)"/><line class="cls-17" x1="113.8953" y1="341.62388" x2="129.3307" y2="378.11208"/><path class="cls-18" d="M144.8908,407.7981c.7203,1.5198-.3343,3.5285-2.3555,4.4864-2.0212.958-4.2437.5025-4.964-1.0174-.7203-1.5198.3342-3.5285,2.3555-4.4864C141.948,405.8227,144.1705,406.2782,144.8908,407.7981Z" transform="translate(-31.5083 -54.11602)"/><ellipse class="cls-18" cx="146.7477" cy="424.18675" rx="4.05004" ry="3.0454" transform="translate(-199.03442 49.60037) rotate(-25.35758)"/><path class="cls-17" d="M246.96709,306.348c13.253-4.1364,24.8423-4.5448,39.2176,4.3092,12.3864,7.629,33.45431,36.7279,31.5361,67.9426" transform="translate(-31.5083 -54.11602)"/></g><circle class="cls-19" cx="205.16659" cy="114.40838" r="5.2465"/><circle class="cls-19" cx="240.75289" cy="388.06478" r="5.2465"/><path class="cls-19" d="M376.74239,324.2002a5.24645,5.24645,0,1,1-5.2465-5.2465A5.24652,5.24652,0,0,1,376.74239,324.2002Z" transform="translate(-31.5083 -54.11602)"/><circle class="cls-19" cx="39.8872" cy="340.10848" r="9.0211"/><circle class="cls-19" cx="445.78709" cy="193.55932" r="9.0211" transform="translate(-69.99797 180.27659) rotate(-28.29)"/><path class="cls-19" d="M115.3714,149.429a5.2465,5.2465,0,1,1-5.2465-5.2464A5.24645,5.24645,0,0,1,115.3714,149.429Z" transform="translate(-31.5083 -54.11602)"/><path class="cls-19" d="M92.8162,358.8372a5.24645,5.24645,0,1,1-5.2465-5.2465A5.24652,5.24652,0,0,1,92.8162,358.8372Z" transform="translate(-31.5083 -54.11602)"/><path class="cls-19" d="M426.47829,226.8276a5.24645,5.24645,0,1,1-5.2465-5.2465A5.24645,5.24645,0,0,1,426.47829,226.8276Z" transform="translate(-31.5083 -54.11602)"/><circle class="cls-19" cx="174.81607" cy="13.62328" r="10.18769"/><line class="cls-20" x1="216.33519" y1="33.39658" x2="221.51289" y2="28.21888"/><line class="cls-20" x1="207.51939" y1="42.21238" x2="212.69709" y2="37.03468"/><line class="cls-20" x1="216.33519" y1="37.03468" x2="221.51289" y2="42.21238"/><line class="cls-20" x1="207.51939" y1="28.21888" x2="212.69709" y2="33.39658"/><line class="cls-20" x1="414.27879" y1="194.06498" x2="419.45649" y2="188.88728"/><line class="cls-20" x1="405.46299" y1="202.88068" x2="410.6407" y2="197.70298"/><line class="cls-20" x1="414.27879" y1="197.70298" x2="419.45649" y2="202.88068"/><line class="cls-20" x1="405.46299" y1="188.88728" x2="410.6407" y2="194.06498"/><line class="cls-20" x1="50.815" y1="250.58228" x2="54.6816" y2="246.71558"/><line class="cls-20" x1="44.2315" y1="257.16568" x2="48.0981" y2="253.29908"/><line class="cls-20" x1="50.815" y1="253.29908" x2="54.6816" y2="257.16568"/><line class="cls-20" x1="44.2315" y1="246.71558" x2="48.0981" y2="250.58228"/><line class="cls-20" x1="201.10889" y1="344.60908" x2="207.51939" y2="338.19848"/><line class="cls-20" x1="190.19409" y1="355.52388" x2="196.60459" y2="349.11338"/><line class="cls-20" x1="201.10889" y1="349.11338" x2="207.51939" y2="355.52388"/><line class="cls-20" x1="190.19409" y1="338.19848" x2="196.60459" y2="344.60908"/><line class="cls-20" x1="384.47709" y1="313.83428" x2="388.3437" y2="309.96768"/><line class="cls-20" x1="377.89359" y1="320.41778" x2="381.76019" y2="316.55108"/><line class="cls-20" x1="384.47709" y1="316.55108" x2="388.3437" y2="320.41778"/><line class="cls-20" x1="377.89359" y1="309.96768" x2="381.76019" y2="313.83428"/></svg>