<svg id="OBJECTS" xmlns="http://www.w3.org/2000/svg" xmlns:xlink="http://www.w3.org/1999/xlink" viewBox="0 0 313.21981 429.87468"><defs><style>.cls-1,.cls-12,.cls-16,.cls-18,.cls-19,.cls-4,.cls-5{fill:none;}.cls-2{clip-path:url(#clip-path);}.cls-13,.cls-3{fill:#ef967b;}.cls-13,.cls-4,.cls-5{stroke:#000;}.cls-12,.cls-13,.cls-16,.cls-18,.cls-19,.cls-4,.cls-5{stroke-miterlimit:10;}.cls-4{stroke-width:2px;}.cls-13,.cls-16,.cls-18,.cls-19,.cls-5{stroke-width:1.5px;}.cls-6{fill:#6b3429;}.cls-7{fill:#3f4b9e;}.cls-8{fill:#5d69c1;}.cls-9{fill:#fff;}.cls-10{fill:#2b2a33;}.cls-11{clip-path:url(#clip-path-2);}.cls-12{stroke:#e8d9d1;stroke-width:3px;}.cls-14{fill:#2d2b3f;}.cls-15{fill:#fcd98d;}.cls-16{stroke:#4e4e72;}.cls-17{fill:#4e4e72;}.cls-18{stroke:#5d69c1;}.cls-19{stroke:#c95050;stroke-linecap:round;}</style><clipPath id="clip-path" transform="translate(-86.3395 -41.0614)"><rect class="cls-1" x="35.7195" y="11.89257" width="426.47829" height="473.87745"/></clipPath><clipPath id="clip-path-2" transform="translate(-86.3395 -41.0614)"><polygon class="cls-1" points="253.503 217.008 177.85 232.179 118.742 150.604 194.395 135.433 253.503 217.008"/></clipPath></defs><g class="cls-2"><polygon class="cls-3" points="196.579 125.247 194.449 155.499 257.369 141.502 254.749 109.099 196.579 125.247"/><path class="cls-3" d="M340.796,90.7359a31.86579,31.86579,0,0,0-6.53481-7.2262c-8.8751-7.2045-19.8288-9.0543-30.7976-8.0851a33.68424,33.68424,0,0,0-17.0064,5.8967c-14.68019,10.7566-15.0018,31.4205-25.3131,45.2972-1.5172,2.0419-3.75009,4.3909-4.1406,7.0164-.4209,2.8324,2.8947,4.0144,5.06251,5.1263-1.84371,7.5007-2.73021,15.5825,1.11449,22.6537,3.9828,7.3253,12.7759,10.9371,21.1001,11.0097,12.7598.1114,24.0462-5.0279,35.0357-10.9007a54.3249,54.3249,0,0,0,23.4908-24.7806C349.404,122.5459,349.68449,104.2066,340.796,90.7359Z" transform="translate(-86.3395 -41.0614)"/><path class="cls-4" d="M278.15449,106.3771c3.73151-.1786,7.0241,1.9613,9.3313,4.5349,2.6136,2.9154,4.31221,6.8689,5.9093,10.4562" transform="translate(-86.3395 -41.0614)"/><path class="cls-5" d="M265.44149,144.707a4.99083,4.99083,0,0,0,3.005,1.0596,9.63442,9.63442,0,0,0,8.8254-4.861" transform="translate(-86.3395 -41.0614)"/><path d="M283.31539,120.5063c-.8792,2.0752-2.45039,3.3933-3.50939,2.9442s-1.20491-2.4955-.32571-4.5707c.8791-2.0752,2.4502-3.3933,3.5093-2.9442S284.19449,118.4311,283.31539,120.5063Z" transform="translate(-86.3395 -41.0614)"/><path class="cls-6" d="M363.74539,107.5912c-4.7661-4.4939-.5963-8.5689-4.1958-14.0912-3.1952-4.9021-10.1083-6.0702-10.1083-6.0702.6703-5.2-1.6762-10.5061-5.458-14.1052a26.476,26.476,0,0,0-13.9924-6.4823,63.55874,63.55874,0,0,0-15.6175-.2001c-2.1398.1749-4.448.3442-6.274-.7818-1.01839-.628-1.7802-1.6043-2.7678-2.28-2.41759-1.6539-5.6738-1.2203-8.4878-.3896a37.85016,37.85016,0,0,0-13.3077,7.0699,28.81091,28.81091,0,0,0-8.2837.0108c-6.5606,1.2894-13.5889,5.8163-15.6866,12.486a12.49629,12.49629,0,0,0,2.0806,10.7482,16.71417,16.71417,0,0,0,11.5572,6.7436,31.74089,31.74089,0,0,0,21.29-5.5018c2.1763-1.5342,4.15041-3.355,6.4075-4.7662a14.74275,14.74275,0,0,1,7.9328-2.4667,9.60344,9.60344,0,0,1,5.4785,1.7595c.9442.6958,3.0172,2.5689,2.9014,3.809a2.52679,2.52679,0,0,1-.3141.915c-1.27269,2.4455-3.4301,4.7452-4.3098,7.4484a8.89651,8.89651,0,0,0-.0417,4.6962c.2867,1.2943,1.0459,2.5625.8331,3.9041-.2449,1.5429-1.4054,2.9651-2.0872,4.3315a7.977,7.977,0,0,0,.1272,7.2511c1.2234,2.2424,3.4714,3.7599,4.7964,5.9431,1.4012,2.309,1.8004,5.3225,2.1521,7.9551.33021,2.4729.7106,4.9367,1.2567,7.3714.8094,3.6099,1.9571,9.1187,5.45151,11.1518,6.28759,3.6583,14.90689,5.9454,17.48739,5.01s4.1487-4.3084,6.3268-9.0328c2.1782-4.7243,9.9112-9.9534,14.0837-17.912C367.14849,124.1573,368.51139,112.0849,363.74539,107.5912Z" transform="translate(-86.3395 -41.0614)"/><path class="cls-3" d="M308.51519,128.0283c3.0271-4.423,8.7489-6.1588,12.2941-4.7208,5.2565,2.1321,6.61171,8.339,5.697,13.3121a19.22428,19.22428,0,0,1-6.2906,11.3897c-3.3345,2.9997-9.4216,5.7051-13.5921,3.8548-2.8391-1.2593-3.6297-5.2816-3.2499-8.0057" transform="translate(-86.3395 -41.0614)"/><line class="cls-5" x1="220.60239" y1="99.6074" x2="235.06279" y2="91.9177"/><path class="cls-5" d="M302.97,144.9606c.23889,1.5906.78789,6.859,5.72319,7.5805,2.2434.328,6.8952.398,13.1263-6.1332" transform="translate(-86.3395 -41.0614)"/><path class="cls-5" d="M308.22939,127.6735c1.4137-1.4574,6.7673-7.3398,14.4229-3.3475" transform="translate(-86.3395 -41.0614)"/><path class="cls-5" d="M283.53609,70.2607s-4.6926,4.2522-3.2938,10.2117" transform="translate(-86.3395 -41.0614)"/><path class="cls-5" d="M320.69469,92.1544s13.8535-7.2184,28.7466-4.7246" transform="translate(-86.3395 -41.0614)"/><path class="cls-5" d="M282.25029,172.5235a39.51382,39.51382,0,0,0,23.6603-11.0702" transform="translate(-86.3395 -41.0614)"/><path class="cls-3" d="M160.2236,290.9112c-5.2786-15.2261-13.6273-34.837-18.9058-50.0631-1.3428-3.8732-2.6877-7.7538-3.6522-11.7395-1.9319-7.9843-2.3073-16.2598-2.5039-24.4766a67.91724,67.91724,0,0,1,.1045-7.343c.4654-5.5054,2.1869-10.8168,3.8964-16.0703q1.6263-4.99755,3.2525-9.9951c.6485-1.993,1.5875-4.2739,3.6073-4.8027,3.3321-.8723,4.9196,5.0917,4.9196,5.0917s.9227-3.4207,1.3101-5.121c.3874-1.7002,1.7621-3.8531,3.4682-3.5335a5.77983,5.77983,0,0,1,3.0496,2.603,14.7065,14.7065,0,0,1,1.6615,7.9987c.2523-1.5658,2.2074-2.9684,3.5828-2.1911,3.7524,2.1212,5.2471,12.258,5.2471,12.258s.8374-4.5163,3.1319-2.619c3.2268,2.6683,3.8831,8.1993,3.9881,11.1844.3106,8.8299,4.3888,19.6063,8.5514,27.3842,2.441,4.5612,5.5912,8.7376,7.6813,13.4716,3.0433,6.8928,1.6033,14.9384,4.6197,21.46q2.85509,6.1728,5.7103,12.3456" transform="translate(-86.3395 -41.0614)"/><path class="cls-3" d="M285.58829,205.7767a126.75209,126.75209,0,0,0-18.9499-23.8727c-3.524-3.4786-9.1497-8.9222-13.272-11.6383-12.2309-8.0585-25.2719-8.5905-39.8421-9.3685a3.91111,3.91111,0,0,0-2.444.4098c-1.1297.7694-1.1684,2.5469-.4465,3.7144a7.97174,7.97174,0,0,0,3.16321,2.5238c-1.60881-.4081-5.05141-.9675-5.28651.3004-.5824,3.1406,3.4633,5.7881,3.4633,5.7881s-1.4409-.0869-1.7794.6008c-.3386.6877.6421,3.38,1.8553,4.558a22.66426,22.66426,0,0,0,4.2626,2.68s-1.6027-.752-2.0851-.0505c-.4823.7016.1442,2.3282.8857,3.2564,3.0889,3.8669,7.2739,6.6397,11.3934,9.3373,3.609,2.3633,7.3445,4.8421,9.5899,8.5621a43.72825,43.72825,0,0,1,2.4619,5.3576c2.6924,6.2319,6.9511,11.9302,12.7568,15.3175,2.4948,1.4556,5.2169,2.4579,7.8157,3.7123a44.75413,44.75413,0,0,1,8.9641,5.7352" transform="translate(-86.3395 -41.0614)"/><polygon class="cls-7" points="183.962 186.789 80.689 207.499 0 96.141 0.882 93.038 102.841 74.717 184.844 183.686 183.962 186.789"/><polygon class="cls-8" points="184.844 183.686 81.571 204.397 0.882 93.038 104.156 72.327 184.844 183.686"/><polyline class="cls-5" points="184.844 183.686 81.571 204.397 0.882 93.038"/><polygon class="cls-9" points="176.495 177.673 82.7 196.483 9.417 95.344 103.212 76.534 176.495 177.673"/><path class="cls-10" d="M163.2246,117.183l-41.6895,8.3605a.60378.60378,0,0,0-.3456.9546l4.3835,5.7764a2.12453,2.12453,0,0,0,2.1134.8137l41.6895-8.3606a.60371.60371,0,0,0,.3457-.9545l-4.3836-5.7763A2.12421,2.12421,0,0,0,163.2246,117.183Z" transform="translate(-86.3395 -41.0614)"/><g class="cls-11"><line class="cls-12" x1="125.7895" y1="98.1323" x2="18.8046" y2="119.5875"/><line class="cls-12" x1="132.25059" y1="107.6362" x2="25.2657" y2="129.0914"/><line class="cls-12" x1="138.71169" y1="117.1402" x2="31.7267" y2="138.5954"/><line class="cls-12" x1="145.17269" y1="126.6441" x2="38.1878" y2="148.0993"/><line class="cls-12" x1="151.63379" y1="136.1481" x2="44.6488" y2="157.6033"/><line class="cls-12" x1="158.09489" y1="145.652" x2="51.1099" y2="167.1072"/><line class="cls-12" x1="164.55589" y1="155.156" x2="57.571" y2="176.6112"/><line class="cls-12" x1="158.63389" y1="167.1433" x2="124.68599" y2="173.9514"/></g><path class="cls-13" d="M253.96519,174.9017c-2.2771-.6005-5.5187-2.6879-9.4327-3.9067-6.1424-1.9127-8.2018-1.3006-14.3837-3.1407a2.59974,2.59974,0,0,0-1.7564-.0969,2.18468,2.18468,0,0,0-1.072,1.554c-.8946,3.5461,2.1439,6.5247,5.1783,8.5397,3.0344,2.0149,8.101,3.763,11.1905,5.6921,5.8115,3.6286,8.0564,10.3406,11.5969,15.8098a22.40661,22.40661,0,0,0,18.9003,10.1901" transform="translate(-86.3395 -41.0614)"/><path class="cls-13" d="M145.7876,225.9715c1.4599-4.4648.9498-9.4691,1.2244-15.2907.2215-4.6967.3395-9.305.2763-14.0044a5.10966,5.10966,0,0,1,.2104-1.8839c.7952-2.0868,4.4412-1.4429,5.7071-.6398,5.7618,3.6555,5.1557,17.4689,7.1703,25.3685a25.48163,25.48163,0,0,0,2.0373,5.4518,43.26959,43.26959,0,0,0,4.0556,6.0191c2.6662,3.5359,5.8412,7.3826,7.1695,11.6609,1.3362,4.3035,1.1691,10.9694,1.1892,15.432" transform="translate(-86.3395 -41.0614)"/><path class="cls-14" d="M386.71339,194.8861c4.38561,5.3418,7.9998,14.2096,10.1339,20.94,2.727,8.6008,2.5464,17.7806,2.6799,26.7124.2006,13.429-.5847,26.8357-1.074,40.2481-.6904,18.9282-1.4788,37.9594-5.0119,56.6174-2.9188,15.4136-7.7834,45.5283-28.657,45.7892-16.8508.2106-32.5381-9.6312-43.3019-22.464s-17.4155-28.4723-23.91539-43.86q-10.88012-25.75695-21.76021-51.5139l34.653-34.6549,47.8333,80.3299" transform="translate(-86.3395 -41.0614)"/><path class="cls-15" d="M266.94659,206.5616s5.2503-11.4854,6.91341-13.5535c3.53789-4.3995,22.98779-13.6141,39.58269-17.9126,12.4829-3.2335,29.8471-2.5097,32.115-.6936,2.2678,1.8162,5.8535,14.9918,5.8535,14.9918Z" transform="translate(-86.3395 -41.0614)"/><path class="cls-14" d="M331.10779,426.781c.1438.8394,5.0697,23.8283,8.1985,38.4128,22.2045-3.8736,38.4306-8.2818,38.4306-8.2818s-2.2133-28.4441-4.003-44.6635c-1.67589-15.1911-5.6226-35.1314-3.6728-50.3768,3.7044-28.9613,12.1387-80.6403,12.1387-80.6403s10.63721-27.8469,11.9418-48.531c.9836-15.5952-.6904-24.7587-4.9252-33.6317-8.2879-17.365-30.5355-16.731-42.4092-15.4868-12.075,1.2653-47.5836,10.1504-47.5836,10.1504s-79.8223,114.2523-82.0743,145.4518-11.5314,107.0704-11.5314,107.0704,25.4535,22.3732,65.3934,24.4334c17.6251.9092,37.0055-.7918,54.3594-3.2764C327.06779,454.6706,330.94309,425.8194,331.10779,426.781Z" transform="translate(-86.3395 -41.0614)"/><path class="cls-16" d="M392.42459,241.1367c-1.8922,15.449-6.8483,27.8346-10.7759,42.904,0,0-11.4381,69.8372-11.7661,79.4079-.3278,9.5706.4618,21.7479.4618,21.7479" transform="translate(-86.3395 -41.0614)"/><polyline class="cls-15" points="74.61 261.274 65.8 235.837 112.611 215.761 129.932 251.392"/><path class="cls-14" d="M237.85629,322.9003,203.835,264.5964l-49.3945,22.4293s27.4981,85.7065,45.36319,109.0406c12.6915,16.5769,38.8238,17.956,56.2439-17.2688s34.8247-109.929,34.8247-109.929l34.6869-80.6885q-11.75115,2.47665-23.5025,4.9532c-4.78269,1.008-9.5682,2.0166-14.2909,3.2799a188.31417,188.31417,0,0,0-35.5014,14.003,65.7006,65.7006,0,0,0-10.6162,6.2794A55.73476,55.73476,0,0,0,230.679,228.5188c-14.20431,19.6033-35.7754,104.3707-35.7754,104.3707" transform="translate(-86.3395 -41.0614)"/><path class="cls-16" d="M199.80369,396.0663c12.6915,16.5769,38.8238,17.956,56.2439-17.2688s34.8247-109.929,34.8247-109.929" transform="translate(-86.3395 -41.0614)"/><path class="cls-16" d="M210.96019,276.8072s-10.8545,46.6-12.5245,53.1602c-1.66989,6.5602-4.51739,23.1452-1.48119,29.5575" transform="translate(-86.3395 -41.0614)"/><path class="cls-16" d="M284.51079,294.1328a119.31152,119.31152,0,0,0,12.5735-18.2393" transform="translate(-86.3395 -41.0614)"/><line class="cls-16" x1="81.3917" y1="239.9292" x2="92.4221" y2="265.735"/><path class="cls-17" d="M167.3648,289.5186c.5147,1.0749-.2389,2.4955-1.6833,3.173s-3.0326.3553-3.5474-.7196c-.5147-1.0748.2388-2.4955,1.6833-3.1729C165.2618,288.1215,166.85,288.4437,167.3648,289.5186Z" transform="translate(-86.3395 -41.0614)"/><path class="cls-17" d="M171.3071,299.8825c.5147,1.075-.2389,2.4955-1.6833,3.173s-3.0326.3554-3.5474-.7195.2389-2.4955,1.6833-3.173S170.7923,298.8077,171.3071,299.8825Z" transform="translate(-86.3395 -41.0614)"/><path class="cls-16" d="M240.31039,217.7694c9.4708-2.9255,17.7527-3.2143,28.02561,3.0476,8.85149,5.3955,23.90709,25.9753,22.53629,48.0515" transform="translate(-86.3395 -41.0614)"/></g><path class="cls-18" d="M236.70459,120.2954a3.74945,3.74945,0,1,1-3.7492-3.7105A3.72992,3.72992,0,0,1,236.70459,120.2954Z" transform="translate(-86.3395 -41.0614)"/><path class="cls-18" d="M262.13529,313.8353a3.74945,3.74945,0,1,1-3.74929-3.7105A3.73013,3.73013,0,0,1,262.13529,313.8353Z" transform="translate(-86.3395 -41.0614)"/><ellipse class="cls-18" cx="242.9615" cy="189.3337" rx="3.7492" ry="3.7105"/><path class="cls-18" d="M121.2903,279.9189a6.447,6.447,0,1,1-6.4466-6.3801A6.41358,6.41358,0,0,1,121.2903,279.9189Z" transform="translate(-86.3395 -41.0614)"/><path class="cls-18" d="M388.83749,138.001a6.447,6.447,0,1,1-6.4467-6.38A6.41362,6.41362,0,0,1,388.83749,138.001Z" transform="translate(-86.3395 -41.0614)"/><path class="cls-18" d="M146.2697,106.7904a3.74945,3.74945,0,1,1-3.7493-3.7104A3.73009,3.73009,0,0,1,146.2697,106.7904Z" transform="translate(-86.3395 -41.0614)"/><path class="cls-18" d="M130.1513,254.8917a3.7494,3.7494,0,1,1-3.7493-3.7106A3.73007,3.73007,0,0,1,130.1513,254.8917Z" transform="translate(-86.3395 -41.0614)"/><ellipse class="cls-18" cx="278.50369" cy="120.4682" rx="3.74919" ry="3.7105"/><ellipse class="cls-18" cx="124.9268" cy="7.9551" rx="7.2803" ry="7.2051"/><line class="cls-19" x1="154.59719" y1="21.9395" x2="158.29719" y2="18.2776"/><line class="cls-19" x1="148.29719" y1="28.1743" x2="151.99729" y2="24.5125"/><line class="cls-19" x1="154.59719" y1="24.5125" x2="158.29719" y2="28.1743"/><line class="cls-19" x1="148.29719" y1="18.2776" x2="151.99729" y2="21.9395"/><line class="cls-19" x1="296.05129" y1="135.5701" x2="299.75139" y2="131.9082"/><line class="cls-19" x1="289.75139" y1="141.8049" x2="293.4515" y2="138.143"/><line class="cls-19" x1="296.05129" y1="138.143" x2="299.75139" y2="141.8049"/><line class="cls-19" x1="289.75139" y1="131.9082" x2="293.4515" y2="135.5701"/><line class="cls-19" x1="36.3134" y1="175.5412" x2="39.0765" y2="172.8065"/><line class="cls-19" x1="31.6087" y1="180.1972" x2="34.3718" y2="177.4626"/><line class="cls-19" x1="36.3134" y1="177.4626" x2="39.0765" y2="180.1972"/><line class="cls-19" x1="31.6087" y1="172.8065" x2="34.3718" y2="175.5412"/><line class="cls-19" x1="143.71619" y1="242.0404" x2="148.29719" y2="237.5066"/><line class="cls-19" x1="135.91629" y1="249.7598" x2="140.49729" y2="245.2261"/><line class="cls-19" x1="143.71619" y1="245.2261" x2="148.29719" y2="249.7598"/><line class="cls-19" x1="135.91629" y1="237.5066" x2="140.49729" y2="242.0404"/><line class="cls-19" x1="274.7545" y1="220.2754" x2="277.51759" y2="217.5408"/><line class="cls-19" x1="270.04979" y1="224.9315" x2="272.81289" y2="222.1968"/><line class="cls-19" x1="274.7545" y1="222.1968" x2="277.51759" y2="224.9315"/><line class="cls-19" x1="270.04979" y1="217.5408" x2="272.81289" y2="220.2754"/></svg>