<svg xmlns="http://www.w3.org/2000/svg" xmlns:xlink="http://www.w3.org/1999/xlink" viewBox="0 0 500 500"><defs><style>.cls-1,.cls-12,.cls-16,.cls-18,.cls-19,.cls-5,.cls-6{fill:none;}.cls-2{fill:#fff;}.cls-3{clip-path:url(#clip-path);}.cls-13,.cls-4{fill:#ef967b;}.cls-13,.cls-5,.cls-6{stroke:#000;}.cls-12,.cls-13,.cls-16,.cls-18,.cls-19,.cls-5,.cls-6{stroke-miterlimit:10;}.cls-5{stroke-width:2px;}.cls-13,.cls-16,.cls-18,.cls-19,.cls-6{stroke-width:1.5px;}.cls-7{fill:#6b3429;}.cls-8{fill:#3f4b9e;}.cls-9{fill:#5d69c1;}.cls-10{fill:#2b2a33;}.cls-11{clip-path:url(#clip-path-2);}.cls-12{stroke:#e8d9d1;stroke-width:3px;}.cls-14{fill:#2d2b3f;}.cls-15{fill:#fcd98d;}.cls-16{stroke:#4e4e72;}.cls-17{fill:#4e4e72;}.cls-18{stroke:#5d69c1;}.cls-19{stroke:#c95050;stroke-linecap:round;}</style><clipPath id="clip-path"/><clipPath id="clip-path-2"><polygon class="cls-1" points="253.503 217.008 177.85 232.179 118.742 150.604 194.395 135.433 253.503 217.008"/></clipPath></defs><g id="BACKGROUND"><rect class="cls-2" width="500" height="500"/></g><g id="OBJECTS"><g class="cls-3"><polygon class="cls-4" points="282.918 166.308 280.789 196.56 343.709 182.564 341.089 150.16 282.918 166.308"/><path class="cls-4" d="M340.796,90.73588a31.867,31.867,0,0,0-6.53475-7.22619c-8.87514-7.20448-19.82882-9.05426-30.79757-8.08513a33.68461,33.68461,0,0,0-17.00642,5.89672c-14.68026,10.75658-15.00184,31.42056-25.31307,45.29726-1.51728,2.04186-3.7501,4.39088-4.14064,7.01635-.42091,2.83242,2.8947,4.01442,5.0625,5.12627-1.84372,7.50074-2.7302,15.58255,1.11444,22.65372,3.98286,7.32527,12.77595,10.93713,21.10019,11.00969,12.7598.11139,24.0462-5.02789,35.03567-10.90064a54.32566,54.32566,0,0,0,23.4908-24.78059C349.404,122.54591,349.68445,104.20662,340.796,90.73588Z"/><path class="cls-5" d="M278.1545,106.37706c3.73152-.17858,7.02413,1.96138,9.33127,4.53495,2.61365,2.91537,4.31223,6.86889,5.90933,10.45621"/><path class="cls-6" d="M265.44151,144.707a4.9901,4.9901,0,0,0,3.005,1.05958,9.63439,9.63439,0,0,0,8.82547-4.861"/><path d="M283.3154,120.50631c-.87919,2.07518-2.45035,3.39332-3.50942,2.94423-1.059-.44917-1.20484-2.49556-.32572-4.57073s2.45028-3.39332,3.50935-2.94423C284.04867,116.38475,284.19453,118.43114,283.3154,120.50631Z"/><path class="cls-7" d="M363.74536,107.59118c-4.76608-4.49386-.59628-8.56889-4.19574-14.0912-3.1952-4.90208-10.10828-6.07015-10.10828-6.07015.67024-5.2-1.67621-10.50614-5.458-14.1052a26.47574,26.47574,0,0,0-13.99237-6.48232,63.55725,63.55725,0,0,0-15.61756-.20008c-2.13979.17483-4.448.34421-6.27392-.78178-1.01848-.628-1.78026-1.60437-2.76787-2.28006-2.41755-1.65388-5.67378-1.22027-8.48773-.38955a37.8495,37.8495,0,0,0-13.30777,7.0699,28.81092,28.81092,0,0,0-8.28365.01075c-6.56062,1.28943-13.589,5.81631-15.68666,12.486a12.49656,12.49656,0,0,0,2.08061,10.74823,16.71436,16.71436,0,0,0,11.55724,6.74365,31.74074,31.74074,0,0,0,21.29-5.50188c2.1763-1.53421,4.15043-3.355,6.40748-4.76621a14.7429,14.7429,0,0,1,7.93277-2.46663,9.603,9.603,0,0,1,5.47855,1.75946c.94423.69578,3.01719,2.5689,2.90142,3.809a2.52664,2.52664,0,0,1-.31414.915c-1.27267,2.44549-3.4301,4.74521-4.3098,7.44841a8.89688,8.89688,0,0,0-.04173,4.69619c.28678,1.29432,1.04592,2.56254.8331,3.90416-.24483,1.54284-1.40537,2.96509-2.08711,4.33148a7.97671,7.97671,0,0,0,.12713,7.25108c1.22343,2.24244,3.4714,3.75989,4.79637,5.94313,1.40123,2.309,1.80049,5.32245,2.15215,7.95507.33022,2.47292.71062,4.93665,1.25666,7.37139.80944,3.60995,1.95712,9.11876,5.45154,11.15185,6.28764,3.65826,14.90694,5.94539,17.48742,5.01s4.14873-4.30842,6.32681-9.03283c2.17816-4.72435,9.91112-9.95337,14.0837-17.912S368.51144,112.08489,363.74536,107.59118Z"/><path class="cls-4" d="M308.51521,128.02834c3.027-4.42306,8.74893-6.15883,12.29408-4.7208,5.25652,2.132,6.61172,8.339,5.697,13.312a19.22467,19.22467,0,0,1-6.29064,11.38977c-3.33441,2.99968-9.4216,5.70507-13.59205,3.8548-2.8391-1.25938-3.62969-5.28165-3.24987-8.00578"/><line class="cls-6" x1="306.94191" y1="140.66879" x2="321.40228" y2="132.97907"/><path class="cls-6" d="M302.97,144.96058c.23891,1.59058.78794,6.859,5.72324,7.58052,2.24333.328,6.89521.398,13.12626-6.13316"/><path class="cls-6" d="M308.22936,127.67352c1.41373-1.4574,6.76737-7.33984,14.42293-3.34749"/><path class="cls-6" d="M283.53608,70.26074s-4.69262,4.25219-3.29382,10.21165"/><path class="cls-6" d="M320.69467,92.15439s13.85352-7.21835,28.74667-4.72456"/><path class="cls-6" d="M282.25026,172.52352a39.51351,39.51351,0,0,0,23.66031-11.07024"/><path class="cls-4" d="M160.22358,290.91116c-5.27853-15.22611-13.62728-34.83694-18.9058-50.063-1.34277-3.87326-2.68768-7.75379-3.65214-11.73957-1.93189-7.98428-2.30736-16.2598-2.504-24.47655a67.90871,67.90871,0,0,1,.10448-7.343c.46543-5.50548,2.187-10.81683,3.89646-16.07033q1.62621-4.99758,3.25244-9.9951c.64852-1.993,1.58753-4.2739,3.60732-4.8027,3.33213-.87231,4.91958,5.09168,4.91958,5.09168s.92272-3.42069,1.31011-5.121,1.76211-3.85317,3.46826-3.5335a5.77984,5.77984,0,0,1,3.04956,2.603,14.70687,14.70687,0,0,1,1.66149,7.99871c.25233-1.56583,2.20746-2.96842,3.58281-2.19109,3.75239,2.12114,5.24709,12.258,5.24709,12.258s.83746-4.51635,3.13188-2.619c3.22679,2.66833,3.88317,8.19935,3.98815,11.18445.31057,8.82986,4.38883,19.60624,8.55141,27.38422,2.441,4.56111,5.59117,8.73756,7.68129,13.47159,3.04327,6.89273,1.60325,14.9384,4.61965,21.46q2.85519,6.1728,5.7103,12.3456"/><path class="cls-4" d="M285.58832,205.77666a126.75036,126.75036,0,0,0-18.95-23.87264c-3.52393-3.47861-9.14969-8.92221-13.272-11.63829-12.23084-8.05854-25.27192-8.59052-39.84213-9.36855a3.911,3.911,0,0,0-2.44393.40984c-1.12974.76933-1.16847,2.54683-.44649,3.71434a7.97132,7.97132,0,0,0,3.16319,2.52384c-1.60882-.40807-5.05142-.9675-5.28653.30044-.58242,3.14056,3.46332,5.788,3.46332,5.788s-1.44095-.08685-1.77947.60086c-.33851.68765.64216,3.38,1.85536,4.55793a22.65922,22.65922,0,0,0,4.26256,2.68s-1.60267-.75194-2.085-.05043c-.4823.70158.14414,2.32815.88563,3.2564,3.08893,3.86682,7.27395,6.63961,11.39344,9.33723,3.609,2.3633,7.3445,4.84217,9.5899,8.56209a43.73885,43.73885,0,0,1,2.46193,5.3576c2.6924,6.232,6.951,11.93024,12.75673,15.31755,2.49487,1.45557,5.21693,2.45793,7.81578,3.71229a44.75687,44.75687,0,0,1,8.9641,5.7352"/><polygon class="cls-8" points="270.301 227.85 167.028 248.561 86.34 137.202 87.222 134.099 189.18 115.778 271.184 224.747 270.301 227.85"/><polygon class="cls-9" points="271.184 224.747 167.91 245.458 87.222 134.099 190.495 113.389 271.184 224.747"/><polyline class="cls-6" points="271.184 224.747 167.91 245.458 87.222 134.099"/><polygon class="cls-2" points="262.835 218.734 169.04 237.544 95.756 136.406 189.552 117.596 262.835 218.734"/><path class="cls-10" d="M163.22462,117.183l-41.68949,8.36053a.60375.60375,0,0,0-.34566.95455l4.38354,5.77636a2.12457,2.12457,0,0,0,2.11342.81375l41.68948-8.3606a.60368.60368,0,0,0,.34566-.95449l-4.38354-5.77636A2.1244,2.1244,0,0,0,163.22462,117.183Z"/><g class="cls-11"><line class="cls-12" x1="212.12904" y1="139.1937" x2="105.14407" y2="160.64887"/><line class="cls-12" x1="218.59012" y1="148.69762" x2="111.60515" y2="170.15279"/><line class="cls-12" x1="225.0512" y1="158.20161" x2="118.06623" y2="179.65678"/><line class="cls-12" x1="231.51221" y1="167.70554" x2="124.52731" y2="189.1607"/><line class="cls-12" x1="237.97329" y1="177.20953" x2="130.98832" y2="198.66469"/><line class="cls-12" x1="244.43437" y1="186.71345" x2="137.4494" y2="208.16861"/><line class="cls-12" x1="250.89545" y1="196.21744" x2="143.91048" y2="217.6726"/><line class="cls-12" x1="244.9734" y1="208.20475" x2="211.02552" y2="215.01275"/></g><path class="cls-13" d="M253.96516,174.90167c-2.27706-.60051-5.51871-2.68785-9.43268-3.90663-6.14235-1.91273-8.20174-1.30068-14.38369-3.14077a2.59992,2.59992,0,0,0-1.75639-.09682,2.18449,2.18449,0,0,0-1.072,1.55394c-.89456,3.54615,2.14385,6.52475,5.17827,8.53967,3.03441,2.015,8.101,3.76307,11.19056,5.69213,5.8115,3.62862,8.0564,10.34058,11.59691,15.80985a22.40644,22.40644,0,0,0,18.9003,10.19"/><path class="cls-13" d="M145.78757,225.97153c1.45989-4.46486.9498-9.46912,1.22443-15.29074.22153-4.69669.33951-9.305.27627-14.00443a5.10977,5.10977,0,0,1,.21045-1.88386c.79516-2.08685,4.44121-1.44291,5.70709-.63977,5.76175,3.65543,5.15569,17.46889,7.17027,25.36852a25.47891,25.47891,0,0,0,2.0373,5.45173,43.27205,43.27205,0,0,0,4.05561,6.01908c2.66617,3.53591,5.84122,7.38264,7.16955,11.66093,1.33612,4.30353,1.169,10.96938,1.1892,15.43205"/><path class="cls-14" d="M386.71341,194.88606c4.38562,5.34184,7.9998,14.20967,10.13387,20.94,2.727,8.60078,2.5464,17.78064,2.67989,26.71241.20066,13.429-.5847,26.83568-1.07392,40.24807-.69048,18.92828-1.47884,37.95946-5.012,56.61743-2.91879,15.41359-7.78341,45.5283-28.65692,45.7892-16.85084.21062-32.53815-9.63122-43.30194-22.464-10.76381-12.83275-17.41548-28.4723-23.91536-43.85994q-10.88016-25.75693-21.76028-51.51393l34.65307-34.65489,47.83328,80.32987"/><path class="cls-15" d="M266.94664,206.56156s5.25023-11.48532,6.91336-13.55349c3.53786-4.39944,22.98785-13.614,39.58272-17.91262,12.48288-3.23341,29.84711-2.5097,32.115-.69351,2.26784,1.81611,5.85351,14.99172,5.85351,14.99172Z"/><path class="cls-14" d="M331.1078,426.781c.14378.83942,5.06972,23.82829,8.19846,38.41279,22.20456-3.87354,38.43062-8.28174,38.43062-8.28174s-2.21332-28.44415-4.00294-44.66357c-1.67592-15.191-5.62262-35.13136-3.67285-50.37677,3.70436-28.96128,12.13872-80.64028,12.13872-80.64028s10.63717-27.84689,11.94178-48.531c.9836-15.59521-.6904-24.75867-4.92523-33.63167-8.28785-17.365-30.53543-16.731-42.40917-15.48686-12.075,1.26532-47.58359,10.15048-47.58359,10.15048s-79.82232,114.25228-82.0743,145.45176-11.53144,107.07036-11.53144,107.07036,25.45357,22.37323,65.39346,24.43341c17.62507.90922,37.00552-.79175,54.35938-3.27635C327.06778,454.67059,330.94308,425.81943,331.1078,426.781Z"/><path class="cls-16" d="M392.42464,241.13674c-1.89223,15.449-6.84833,27.83451-10.77594,42.904,0,0-11.43811,69.83724-11.76605,79.40786-.32786,9.57068.46179,21.748.46179,21.748"/><polyline class="cls-15" points="160.95 302.336 152.139 276.898 198.951 256.823 216.271 292.453"/><path class="cls-14" d="M237.85631,322.90033,203.835,264.59643l-49.3945,22.42931s27.49816,85.70643,45.36319,109.04058c12.69156,16.57686,38.82387,17.956,56.24391-17.26881,17.42011-35.22479,34.82472-109.929,34.82472-109.929L325.55922,188.18l-23.50252,4.95314c-4.78272,1.008-9.56824,2.01661-14.29094,3.27988a188.31906,188.31906,0,0,0-35.50139,14.00308,65.70087,65.70087,0,0,0-10.61616,6.27934A55.73686,55.73686,0,0,0,230.679,228.51879c-14.20426,19.60333-35.77537,104.3707-35.77537,104.3707"/><path class="cls-16" d="M199.80365,396.06632c12.69156,16.57686,38.82387,17.956,56.24391-17.26881,17.42011-35.22479,34.82472-109.929,34.82472-109.929"/><path class="cls-16" d="M210.96021,276.80715s-10.85456,46.60006-12.52448,53.16025-4.51746,23.14517-1.48119,29.55748"/><path class="cls-16" d="M284.51082,294.13283a119.31856,119.31856,0,0,0,12.5735-18.23928"/><line class="cls-16" x1="167.73122" y1="280.9906" x2="178.76164" y2="306.7964"/><path class="cls-17" d="M167.36476,289.51861c.51474,1.07486-.2389,2.49548-1.68328,3.17294-1.44439.67754-3.03263.35539-3.54737-.71954-.51474-1.07486.23883-2.49548,1.68328-3.173C165.26178,288.12153,166.85,288.44368,167.36476,289.51861Z"/><ellipse class="cls-17" cx="168.69174" cy="301.10927" rx="2.88889" ry="2.1578" transform="translate(-109.84619 97.29486) rotate(-24.54692)"/><path class="cls-16" d="M240.31038,217.76935c9.47083-2.92541,17.75276-3.21425,28.02562,3.04763,8.85155,5.39551,23.90707,25.97532,22.53628,48.05151"/></g><ellipse class="cls-18" cx="232.95538" cy="120.29541" rx="3.74925" ry="3.71052"/><ellipse class="cls-18" cx="258.38601" cy="313.83532" rx="3.74925" ry="3.71052"/><path class="cls-18" d="M333.05021,230.39509a3.74941,3.74941,0,1,1-3.74925-3.71052A3.73,3.73,0,0,1,333.05021,230.39509Z"/><ellipse class="cls-18" cx="114.84366" cy="279.91886" rx="6.44665" ry="6.38005"/><ellipse class="cls-18" cx="382.39083" cy="138.00104" rx="6.44664" ry="6.38004"/><path class="cls-18" d="M146.26965,106.79044a3.74945,3.74945,0,1,1-3.74924-3.71045A3.73,3.73,0,0,1,146.26965,106.79044Z"/><path class="cls-18" d="M130.15129,254.89165a3.74941,3.74941,0,1,1-3.74925-3.71052A3.73,3.73,0,0,1,130.15129,254.89165Z"/><path class="cls-18" d="M368.5924,161.52959a3.74941,3.74941,0,1,1-3.74924-3.71052A3.73,3.73,0,0,1,368.5924,161.52959Z"/><ellipse class="cls-18" cx="211.26633" cy="49.01647" rx="7.2803" ry="7.20512"/><line class="cls-19" x1="240.93667" y1="63.00088" x2="244.63675" y2="59.33902"/><line class="cls-19" x1="234.63673" y1="69.23574" x2="238.33681" y2="65.57388"/><line class="cls-19" x1="240.93667" y1="65.57388" x2="244.63675" y2="69.23574"/><line class="cls-19" x1="234.63673" y1="59.33902" x2="238.33681" y2="63.00088"/><line class="cls-19" x1="382.39083" y1="176.6315" x2="386.09091" y2="172.96964"/><line class="cls-19" x1="376.0909" y1="182.86629" x2="379.79098" y2="179.20443"/><line class="cls-19" x1="382.39083" y1="179.20443" x2="386.09091" y2="182.86629"/><line class="cls-19" x1="376.0909" y1="172.96964" x2="379.79098" y2="176.6315"/><line class="cls-19" x1="122.65287" y1="216.60262" x2="125.41601" y2="213.86795"/><line class="cls-19" x1="117.94818" y1="221.25865" x2="120.71132" y2="218.52404"/><line class="cls-19" x1="122.65287" y1="218.52404" x2="125.41601" y2="221.25865"/><line class="cls-19" x1="117.94818" y1="213.86795" x2="120.71132" y2="216.60262"/><line class="cls-19" x1="230.05567" y1="283.10185" x2="234.63673" y2="278.56803"/><line class="cls-19" x1="222.25575" y1="290.8212" x2="226.83681" y2="286.28745"/><line class="cls-19" x1="230.05567" y1="286.28745" x2="234.63673" y2="290.8212"/><line class="cls-19" x1="222.25575" y1="278.56803" x2="226.83681" y2="283.10185"/><line class="cls-19" x1="361.09398" y1="261.33677" x2="363.85713" y2="258.60217"/><line class="cls-19" x1="356.38929" y1="265.99287" x2="359.15244" y2="263.25819"/><line class="cls-19" x1="361.09398" y1="263.25819" x2="363.85713" y2="265.99287"/><line class="cls-19" x1="356.38929" y1="258.60217" x2="359.15244" y2="261.33677"/></g></svg>