<svg id="OBJECTS" xmlns="http://www.w3.org/2000/svg" xmlns:xlink="http://www.w3.org/1999/xlink" viewBox="0 0 342.12123 594.7284"><defs><style>.cls-1,.cls-13{fill:none;}.cls-2{fill:#f7f7f7;}.cls-3{clip-path:url(#clip-path);}.cls-4{fill:#263238;}.cls-5{fill:#ebebeb;}.cls-6{fill:#38474f;}.cls-7{fill:#a6cce4;}.cls-8{fill:#dbdbdb;}.cls-9{fill:#ac635b;}.cls-10{fill:#824645;}.cls-11{fill:#90b9d1;}.cls-12{fill:#fff;}.cls-13{stroke:#ebebeb;stroke-miterlimit:10;}</style><clipPath id="clip-path" transform="translate(-103.07136 -83.8432)"><rect class="cls-1" x="126.80008" y="91.32055" width="251.68049" height="336.1852" transform="translate(-0.35691 0.34807) rotate(-0.07888)"/></clipPath></defs><path class="cls-2" d="M158.76509,370.9391c-35.33559-26.5543-58.203-70.4271-55.47339-114.5439,2.812-45.4479,31.083-85.7081,64.56849-116.565,20.7992-19.1666,44.2589-35.9092,70.6622-46.0497,26.4032-10.1406,55.9779-13.3556,83.20861-5.7103,35.32149,9.9168,64.20029,37.7821,79.34869,71.1959,15.1484,33.4137,17.3822,71.7787,10.5696,107.8278-5.66829,29.9935-17.6641,59.1852-37.394,82.4764C319.844,413.8031,225.466,421.0639,158.76509,370.9391Z" transform="translate(-103.07136 -83.8432)"/><g class="cls-3"><path class="cls-4" d="M401.50119,678.2924l43.6914-.0601a69.06308,69.06308,0,0,0-3.2347-10.4113L397.449,662.8419C399.20869,675.9445,401.50119,678.2924,401.50119,678.2924Z" transform="translate(-103.07136 -83.8432)"/><path class="cls-5" d="M441.95709,667.8245c-.964,2.2692-23.5032,7.1863-39.5075-1.5631a30.51119,30.51119,0,0,1-5.0075-3.4118c-.3202-2.3842-.6413-5.5189-1.0636-9.387-.2363-2.1677-.4898-4.5853-.7602-7.2197-.1859-1.7007-.3885-3.5015-.5912-5.3856-.5575-5.2022-1.2278-7.6026-2.0206-14.1384-1.3661-11.1877-6.9253-27.7227-9.2134-42.3277l25.4818-11.5415c.43411,24.5798,1.6969,33.3996,5.3983,45.051,1.9764,6.2342,6.1223,13.7327,10.6852,21.2806,4.06161,6.7316,8.4734,13.5292,11.967,19.5278a.01626.01626,0,0,1,.01661.0166c.31759.5166.60179,1.0165.886,1.5164A43.67009,43.67009,0,0,1,441.95709,667.8245Z" transform="translate(-103.07136 -83.8432)"/><path class="cls-4" d="M441.95709,667.8245c-.60709,4.6876-23.37309,10.6189-39.3775,1.8694-1.769-.9648-3.5682-5.529-5.1375-6.8443-.3202-2.3842-.6413-5.5189-1.0636-9.387-.2363-2.1677-.4898-4.5853-.7602-7.2197a23.51322,23.51322,0,0,0,5.7231,2.4186c1.7908-8.4135,4.5875-11.0043,14.809-11.5687,4.102-.2225,6.6537-.0758,9.208,2.0885,3.0888,2.6139,6.1814,8.1628,11.967,19.5278a.01626.01626,0,0,1,.01661.0166Q439.39879,662.7502,441.95709,667.8245Z" transform="translate(-103.07136 -83.8432)"/><polygon class="cls-4" points="186.582 584.689 187.95 594.601 95.698 594.728 97.63 586.755 186.582 584.689"/><path class="cls-5" d="M289.656,668.5398s-27.79151,2.0618-53.14591,2.806c-14.71809.4179-27.2866.5928-34.4659-.5561a196.74451,196.74451,0,0,0,24.3157-10.2399c21.0938-10.0929,28.249-17.3975,25.9948-34.702-1.7481-13.4191-5.472-33.4542-5.472-33.4542l30.8846-3.9861s2.2254,21.046,3.8221,37.5439C282.66569,637.0714,288.02459,664.6081,289.656,668.5398Z" transform="translate(-103.07136 -83.8432)"/><path class="cls-4" d="M252.11489,324.8436c-4.1256,19.0503-7.3587,29.1493-12.3888,62.955l103.9705-.1432c-.2708-35.1319-5.0292-57.3201-5.0292-57.3201Z" transform="translate(-103.07136 -83.8432)"/><path class="cls-4" d="M282.10879,365.5066c3.7167,31.4307,66.2806,197.2059,83.36821,258.3413,18.28389,3.6504,48.99619-6.804,48.99619-6.804-7.7664-109.0334-33.2437-127.8086-35.54519-139.9573-2.30171-12.1489-19.77061-102.0257-40.12751-148.2096Z" transform="translate(-103.07136 -83.8432)"/><path class="cls-4" d="M252.11489,324.8436c-19.2656,36.8998-16.0531,133.945-14.479,183.3586,1.5739,49.4135,8.671,116.804,8.671,116.804s23.3443,8.3553,44.21611,1.5147c2.51-108.6904,6.50359-245.338,6.50359-245.338Z" transform="translate(-103.07136 -83.8432)"/><path class="cls-6" d="M286.63189,361.567l-.0107.0063-.001.0003.01181-.007Z" transform="translate(-103.07136 -83.8432)"/><path class="cls-6" d="M242.339,359.1301a30.35207,30.35207,0,0,0,9.87409-9.9463,29.81614,29.81614,0,0,0,3.9341-9.9095c1.8984-.0656,3.8012-.1956,5.6473-.2327,3.5191-.0707,7.0387-.13,10.55751-.2136,1.403-.0335,2.80589-.0801,4.20889-.1155a127.25019,127.25019,0,0,0,2.56311,15.3411,1.047,1.047,0,0,0,.48409.6618,2.49675,2.49675,0,0,0,1.4818,2.3806,3.76426,3.76426,0,0,0,3.2467-.1403c2.0061-1.0052,2.31241-3.3661,2.07141-5.3686-.52741-4.3831-1.20851-8.7436-1.97331-13.0906,3.0109-.0794,6.0218-.1552,9.0321-.2477q3.26265-.10035,6.5249-.202a1.93253,1.93253,0,0,0-.3421,1.2356c.2147,3.3793,1.5886,6.8892,2.4571,10.1582q1.2669,4.7676,2.53331,9.5351,2.59274,9.7014,5.68939,19.2703c4.1582,12.8747,7.673,25.8944,11.3501,38.9126a.708.708,0,0,0,1.3683-.3609c-3.197-13.1447-6.536-26.2115-9.2436-39.4679q-2.00955-9.8391-4.5181-19.5792-1.2336-4.776-2.4809-9.5489c-.8503-3.2731-1.3829-7.0104-2.8577-10.0608a2.03857,2.03857,0,0,0-.1296-.2126q8.7822-.27345,17.5626-.5893a3.05326,3.05326,0,0,0,.2362,1.887,36.93253,36.93253,0,0,0,9.0075,12.004,37.35475,37.35475,0,0,0,13.22481,7.3333,1.78631,1.78631,0,0,0,2.15819-1.2654,1.82435,1.82435,0,0,0-1.2654-2.1581c-8.2115-3.1357-14.9974-10.0608-18.5926-17.9815q4.94972-.201,9.8986-.4397a1.69229,1.69229,0,0,0-.0046-3.3826c-14.3125-.2234-28.6215-.1368-42.9353-.0952q-10.55745.03075-21.1152.1339c-3.5193.0381-7.03869.0956-10.5576.1435-3.7089.0504-7.5665-.1956-11.2389.3452a2.65487,2.65487,0,0,0-1.957,2.9421,2.7361,2.7361,0,0,0,2.64581,2.3418c.57689.0652,1.16749.0797,1.75489.1058a29.43513,29.43513,0,0,1-4.0345,7.7112,28.85708,28.85708,0,0,1-8.8277,7.6693C236.927,356.3602,239.45359,360.7942,242.339,359.1301Zm37.11289-20.497c.866-.0226,1.7319-.0485,2.5979-.0713.1036,3.2517.255,6.497.492,9.7427q.09825,1.3431.1961,2.6863a7.09764,7.09764,0,0,1,.0355,1.9983c.0077-.0339-.09239.2978-.1401.4416.1184-.0701.1056-.0625-.0001.0005l-.0014.0038-.0093.0024-.0026.0015.0002-.0004.0014-.0008-.0218.0058-.0172-.003c-.15249-.0691-.3009-.1474-.4532-.2158a2.06569,2.06569,0,0,0-.7769-.1786A130.67751,130.67751,0,0,0,279.45189,338.6331Z" transform="translate(-103.07136 -83.8432)"/><path class="cls-6" d="M262.37889,377.9495c.1328-5.5458.5262-11.1071.88911-16.6419q.27539-4.20315.551-8.4062c.18049-2.7523.14949-5.8486,1.322-8.3957a1.87669,1.87669,0,0,1,3.43579.1908c.7574,2.668.3065,5.6623.0643,8.3826q-.37275,4.1853-.7453,8.3706c-.5049,5.6706-.8953,11.4188-1.7214,17.0532-.8106,5.5292-1.5956,11.0463-2.2637,16.5989-.695,5.7757-1.5954,11.5444-2.091,17.3397-.02069.2426-.3859.1695-.36969-.0679C262.24019,400.9335,262.10479,389.404,262.37889,377.9495Z" transform="translate(-103.07136 -83.8432)"/><path class="cls-6" d="M343.09819,488.8428c-3.2905-10.9186-6.2019-21.9465-9.51919-32.8579-.07971-.2623.31449-.3569.40629-.107,3.5043,9.5438,7.2916,18.9783,10.8966,28.4837,3.5972,9.4848,6.85811,19.0886,10.1684,28.676,6.5745,19.0421,13.1379,38.0889,19.4333,57.2255,3.3525,10.1913,6.86041,20.3463,10.0925,30.5773.3595-.0342.7184-.0763,1.0778-.109,3.8509-.3504,7.6926-.5329,11.5567-.6628,3.9743-.1335,7.9428.0871,11.9077-.0463,1.1075-.0371,1.38271,1.7539.255,1.9571-3.7716.6799-7.4705,1.7049-11.2509,2.3865-3.9123.7052-7.8136,1.3659-11.7603,1.8469-3.8462.4689-7.7028.8508-11.5558,1.2576-3.7956.401-7.9469,1.2785-11.70329.2866a1.97792,1.97792,0,0,1-.47491-3.5943c3.3645-1.7085,7.4261-1.7832,11.11991-2.1796,2.18959-.2348,4.37929-.4775,6.56939-.7123-6.4935-18.2144-12.5628-36.6215-18.603-54.9872C355.42879,527.1717,348.90359,508.1073,343.09819,488.8428Z" transform="translate(-103.07136 -83.8432)"/><path class="cls-6" d="M249.41659,608.5655c1.535-.42,3.0839.0174,4.6266.2668.7842.1269,1.5701.2391,2.3543.362q-.424-32.84115-.743-65.683c-.2134-22.3152-.5832-44.6519-.3204-66.9677.0746-6.3451.1351-12.6896.2803-19.0335.145-6.3433.4948-12.6897.4797-19.0337a.63046.63046,0,0,1,1.2602-.0017c.244,11.276,1.119,22.5579,1.5225,33.8344.395,11.0401.6146,22.0853.8139,33.1305q.6045,33.48225,1.042,66.9668c.1804,12.4852.2896,24.9714.42631,37.4569,2.13119.2712,4.26349.5274,6.40439.729a114.89615,114.89615,0,0,0,18.36.6362,1.06566,1.06566,0,0,1,.2721,2.0876,108.89035,108.89035,0,0,1-18.9658,2.1639,71.77866,71.77866,0,0,1-9.51269-.5943c-2.98671-.3902-6.93611-.4897-9.35251-2.4129C246.92509,611.3274,247.86229,608.991,249.41659,608.5655Z" transform="translate(-103.07136 -83.8432)"/><path class="cls-5" d="M333.02579,188.5406c-17.2961-3.9302-46.0086,7.896-46.0086,7.896s-35.5498,9.4638-47.20319,17.141c-11.65351,7.6772,4.72009,81.8795,4.82329,108.3223l96.69171,2.8208C348.08809,265.3511,362.25749,195.183,333.02579,188.5406Z" transform="translate(-103.07136 -83.8432)"/><path class="cls-7" d="M272.49949,326.137s-.0563-49.2051,1.0103-66.3933c1.3759-22.1717,3.652-46.5749,3.652-46.5749l20.7995-1.5918c-6.0068,21.185-9.5519,115.5694-9.5519,115.5694Z" transform="translate(-103.07136 -83.8432)"/><path class="cls-5" d="M273.58279,306.8347s-4.2744,79.4752-6.5709,95.5642c-2.2784,16.0891-9.4488,18.2546-42.6568,2.4137,2.27791-16.397,5.0263-33.2294,7.8484-49.138.3057-1.6669.5933-3.3158.8989-4.9647,7.7664-42.9789,15.7611-78.06,15.7611-78.06Z" transform="translate(-103.07136 -83.8432)"/><path class="cls-5" d="M283.31319,296.6138s15.2833,98.5453,25.456,115.9758S379.173,402.2398,379.173,402.2398c-10.47381-48.4063-43.31311-154.2451-43.31311-154.2451Z" transform="translate(-103.07136 -83.8432)"/><path class="cls-8" d="M372.07229,391.623q-1.82535.748-3.6529,1.4784c-1.4977-6.889-3.44739-13.7076-5.19839-20.5067-2.39381-9.2955-4.82981-18.5856-7.46981-27.8142q-3.9615-13.84935-7.7435-27.742c-2.5052-9.2776-5.4188-18.4246-8.00369-27.6736a.38236.38236,0,0,0-.739.1949c2.20489,9.3502,4.07279,18.7698,6.36129,28.1065,2.2865,9.3292,4.4735,18.6758,6.6212,28.038,2.1464,9.357,4.5009,18.6692,6.895,27.9659,1.7898,6.9505,3.4033,14.0215,5.485,20.9202a167.8685,167.8685,0,0,1-24.0178,7.522c-9.6393,2.1392-20.1914,4.5282-29.761,1.1761a1.22912,1.22912,0,0,0-1.365,1.7806c2.8096,4.3909,8.1866,4.8373,12.9218,4.5352a106.55785,106.55785,0,0,0,17.2973-2.7904,127.88313,127.88313,0,0,0,25.9859-8.8579q.5727,1.7382,1.19731,3.4563a1.52967,1.52967,0,0,0,2.95629-.7796c-.2271-1.462-.4934-2.9188-.776-4.3733,1.4498-.7642,2.8812-1.5576,4.2811-2.3976C374.81339,392.9821,373.56079,391.013,372.07229,391.623Z" transform="translate(-103.07136 -83.8432)"/><path class="cls-8" d="M260.67509,399.1126a58.89124,58.89124,0,0,1-21.9177-4.1841c-1.1016-.4579-2.1846-.9647-3.2481-1.5053a21.4735,21.4735,0,0,0-3.7584-1.839,2.32458,2.32458,0,0,0-2.211,3.866c1.8938,1.8602,5.0249,2.8616,7.4623,3.8093a43.66234,43.66234,0,0,0,7.84781,2.3094,46.19548,46.19548,0,0,0,16.17709.244C262.595,401.5504,262.19509,399.1202,260.67509,399.1126Z" transform="translate(-103.07136 -83.8432)"/><path class="cls-8" d="M344.27379,348.2975c-2.456-1.2451-5.6575.6513-8.037,1.4702-2.4695.8499-4.9619,1.6563-7.459,2.4215-2.4936.7643-5.0176,1.4353-7.5381,2.1043a73.23293,73.23293,0,0,1-8.10669,1.9581c-1.408.2061-1.09921,2.5862.323,2.4782,2.76679-.2099,5.54169-.1507,8.30489-.438,2.7856-.2897,5.53711-.75,8.2806-1.3097a76.22914,76.22914,0,0,0,8.1149-2.1251c2.5521-.8204,6.0775-1.4694,7.1099-4.214A2.093,2.093,0,0,0,344.27379,348.2975Z" transform="translate(-103.07136 -83.8432)"/><polygon class="cls-7" points="185.095 87.426 205.518 93.469 212.246 104.691 171.633 116.172 167.253 102.801 185.095 87.426"/><path class="cls-5" d="M201.45509,312.1951c12.2377-9.4606,62.28991-42.5266,68.6413-77.5189,4.676-25.7619-14.4765-35.5456-33.8587-18.3334-19.3821,17.2121-64.8764,60.242-64.8764,60.242Z" transform="translate(-103.07136 -83.8432)"/><path class="cls-9" d="M138.0587,230.8042l13.48359,50.0664a29.59265,29.59265,0,0,0,41.5463,18.9027l3.3765-1.6467-45.9303-67.3526Z" transform="translate(-103.07136 -83.8432)"/><path class="cls-10" d="M153.57819,211.7553l7.1983-14.8406a2.9278,2.9278,0,0,0-1.2446-3.8547h0a2.92792,2.92792,0,0,0-3.4616.5082l-10.793,10.8091Z" transform="translate(-103.07136 -83.8432)"/><path class="cls-9" d="M154.73329,211.7742c4.7892,19.3248,3.2294,31.6437-12.80879,32.5315l-7.5488-23.8928Z" transform="translate(-103.07136 -83.8432)"/><path class="cls-4" d="M188.53339,182.4541l-16.5492-.4255L147.6201,199.7168a2.46137,2.46137,0,1,0,3.004,3.8981L172.802,185.1644l15.77309-1.6356a.53887.53887,0,0,0-.0417-1.0747Z" transform="translate(-103.07136 -83.8432)"/><path class="cls-7" d="M186.25989,187.8894c-1.7465-2.583-1.9425-7.0718-1.1992-10.0366.7172-2.861,3.77431-6.3366,6.4822-4.3171,2.0348,1.5175.417,4.7078.6093,6.7637.2213,2.3655,2.71381,4.8209,1.5002,7.2294A4.36849,4.36849,0,0,1,186.25989,187.8894Z" transform="translate(-103.07136 -83.8432)"/><path class="cls-11" d="M187.52229,183.439a8.132,8.132,0,0,1-.9538-1.7649,5.45963,5.45963,0,0,1-.4119-1.9573,9.11377,9.11377,0,0,1,.2523-2.1289c.0554-.2302-.2954-.3957-.4005-.1624a6.36025,6.36025,0,0,0-.5528,2.1209c-.032.3818-.001.7611-.0144,1.1426a7.01834,7.01834,0,0,0,.0473,1.2107,7.47142,7.47142,0,0,0,.6662,2.2525,9.32612,9.32612,0,0,0,.554.9935c.3367.5198.71.9329,1.3825.8116a.78581.78581,0,0,0,.5707-.5723C188.85659,184.5306,187.94749,184.0581,187.52229,183.439Z" transform="translate(-103.07136 -83.8432)"/><path class="cls-11" d="M191.05559,186.4424a.67693.67693,0,0,0-.1233-.2381c-.0028-.0047-.0018-.0105-.0047-.0152l-.0072-.0078c-.0126-.0166-.0142-.0395-.0285-.0551a.68889.68889,0,0,0-.13389-.1221c-.02821-.0251-.04391-.0628-.07661-.0835-.0098-.0089-.02439-.0095-.0345-.0178-.0098-.0057-.0141-.0167-.0243-.022l-.0878-.0356a.6683.6683,0,0,0-.1701-.0875l-.2315-.0294a.91163.91163,0,0,0-.4506.1194l-.1944.1488a.90834.90834,0,0,0-.2371.4141l-.03009.1527a1.02068,1.02068,0,0,0,.09.6821l.14879.1944a.68758.68758,0,0,0,.3044.1926.45719.45719,0,0,0,.2255.0591.69111.69111,0,0,0,.34731-.0153l.219-.0894a.92031.92031,0,0,0,.34269-.3436l.0688-.1184a1.02027,1.02027,0,0,0,.0881-.6824Z" transform="translate(-103.07136 -83.8432)"/><path class="cls-6" d="M187.48329,180.107l-16.5547-.0051L147.0215,198.4031a2.46141,2.46141,0,1,0,3.1021,3.8206l21.70219-19.0078,15.7265-2.0356a.53888.53888,0,0,0-.069-1.0733Z" transform="translate(-103.07136 -83.8432)"/><path class="cls-9" d="M156.662,188.8237l-13.1054,2.3468a3.9076,3.9076,0,0,0-2.78,2.0475l-6.9585,18.8841a9.73947,9.73947,0,0,0-.0411,6.6216l8.9954,25.3794c.7084-3.3702,8.20839-4.3865,10.31969-12.9585,2.9876-8.9979-5.27719-26.3016-5.27719-26.3016l.4462-7.3514,9.85709-4.041a2.43817,2.43817,0,0,0,1.4429-2.8297A2.49826,2.49826,0,0,0,156.662,188.8237Z" transform="translate(-103.07136 -83.8432)"/><path class="cls-9" d="M147.307,202.3982c6.90489-.1128,9.96129,3.7356,8.07549,7.3404,1.5939,3.6892.7524,6.1287-2.0286,8.116,4.68911-.8153,5.5324,3.6319,4.4427,5.6379-1.0898,2.0061-8.69619,6.3676-8.69619,6.3676l-10.8201-18.4536Z" transform="translate(-103.07136 -83.8432)"/><path class="cls-10" d="M145.6481,202.5302a5.35887,5.35887,0,0,0-2.445.2676,9.02165,9.02165,0,0,0-2.3049,1.1998,17.58388,17.58388,0,0,0-3.7482,3.3877c-.1874.2353.2084.5591.4121.3367a12.39208,12.39208,0,0,1,3.8245-2.9379c.7027-.3251,1.4309-.6043,2.1472-.8974a22.00635,22.00635,0,0,0,2.1955-1.0167A.18212.18212,0,0,0,145.6481,202.5302Z" transform="translate(-103.07136 -83.8432)"/><path class="cls-10" d="M153.25169,208.3664a7.28981,7.28981,0,0,1-.9094-.1707,7.16984,7.16984,0,0,0-.8186-.0269,11.24569,11.24569,0,0,0-1.64549.2101,10.92,10.92,0,0,0-3.3107,1.1218,11.841,11.841,0,0,0-4.7061,4.8935.2588.2588,0,0,0,.4408.2707,11.97324,11.97324,0,0,1,4.7707-4.219,14.27422,14.27422,0,0,1,2.9253-1.173,11.62729,11.62729,0,0,1,1.52449-.2611c.2679-.0327.5349-.0696.8036-.0944a3.374,3.374,0,0,1,.858-.1108C153.51859,208.8734,153.56329,208.3493,153.25169,208.3664Z" transform="translate(-103.07136 -83.8432)"/><path class="cls-10" d="M152.18829,216.3868a2.32437,2.32437,0,0,0-.8082.1315,7.31264,7.31264,0,0,0-.8463.3028,5.901,5.901,0,0,0-1.43669.8985,23.87031,23.87031,0,0,0-2.5168,2.3247.26864.26864,0,0,0,.3664.3925,17.40286,17.40286,0,0,1,2.7728-1.8469,12.79061,12.79061,0,0,0,1.45469-.8739,4.759,4.759,0,0,0,1.2007-.9872A.22726.22726,0,0,0,152.18829,216.3868Z" transform="translate(-103.07136 -83.8432)"/><path class="cls-10" d="M152.19039,227.9384a2.97781,2.97781,0,0,0-1.6556,2.8356c-.0001,1.438.7601,2.7598.75521,4.2079a6.04893,6.04893,0,0,1-1.0317,3.3482,5.57,5.57,0,0,1-1.1705,1.2532c-.4935.3885-1.2581.6297-1.5197,1.2276a.69224.69224,0,0,0,.5344.9468c.6436.1305,1.2614-.4294,1.7021-.835a7.7266,7.7266,0,0,0,1.17769-1.3568,8.54181,8.54181,0,0,0,1.3878-3.3327,8.046,8.046,0,0,0-.3426-3.7397c-.3378-1.1342-.9452-3.147.4341-3.8751C152.86889,228.4033,152.63459,227.7518,152.19039,227.9384Z" transform="translate(-103.07136 -83.8432)"/><polygon class="cls-7" points="167.109 102.801 164.281 108.821 167.146 129.335 182.881 114.957 167.109 102.801"/><path class="cls-5" d="M201.45509,312.1951c-14.9967,11.2969-38.1986,7.8879-67.48789-46.4286l24.28219-23.8701,42.0559,56.4977Z" transform="translate(-103.07136 -83.8432)"/><path class="cls-4" d="M290.71959,117.7928c-10.3349-9.4157-20.215-16.4721-32.2319-6.9123s-14.5071,11.1321-14.5071,11.1321-8.9537,15.5829,1.37041,29.0018Z" transform="translate(-103.07136 -83.8432)"/><path class="cls-4" d="M278.20959,117.9811c26.88341-11.9796,44.5327,18.4992,24.9826,46.745Z" transform="translate(-103.07136 -83.8432)"/><path class="cls-9" d="M305.177,198.4644c.00979,7.1009-19.19891,19.4034-19.19891,19.4034s-7.4887-9.5848-8.803-16.9376l-5.9834-30.2977,31.3568-12.9952,2.5911,39.9032C305.158,197.8484,305.17659,198.1563,305.177,198.4644Z" transform="translate(-103.07136 -83.8432)"/><path class="cls-4" d="M297.90339,169.4957c.0181,13.1802-8.3126,25.7873-21.8399,25.806l-4.0333-19.6954-.2433-2.4517Z" transform="translate(-103.07136 -83.8432)"/><path class="cls-9" d="M247.76669,174.7952c3.9519,7.3954,10.7845,13.5663,18.9801,15.2596,11.35721,2.3688,22.9919-4.2139,30.1908-13.3122a43.55325,43.55325,0,0,0,8.3572-17.874c3.0633-14.0302-.8367-29.172-14.0562-37.2725-9.0439-5.5453-24.9407-6.4652-35.9032-1.16a20.869,20.869,0,0,0-9.9227,9.199C238.84179,142.6593,241.079,162.3023,247.76669,174.7952Z" transform="translate(-103.07136 -83.8432)"/><path class="cls-9" d="M306.108,145.6162c3.42259-1.8743,8.09469-2.2168,11.21519.0915,2.5992,1.9224,3.5881,5.2029,3.7447,8.2899a17.547,17.547,0,0,1-3.2021,11.3487,14.57828,14.57828,0,0,1-10.6346,5.8782c-4.2606.2459-8.7034-1.8145-10.6931-5.3479C292.72049,159.097,299.958,148.984,306.108,145.6162Z" transform="translate(-103.07136 -83.8432)"/><path class="cls-4" d="M251.31139,121.9115c7.0683,6.0766,23.4232,8.7801,32.6492,7.4495,1.4152,4.5883,6.3438,9.9167,9.2002,10.8808a109.3409,109.3409,0,0,0,4.383,18.9967c3.4589-3.1908,8.9937-13.9839,8.9937-13.9839C304.32759,119.5388,271.00139,106.9111,251.31139,121.9115Z" transform="translate(-103.07136 -83.8432)"/><path class="cls-4" d="M307.76079,154.728c-2.8789,2.1951-4.09779,6.2172-1.721,6.9224,1.3146.39,1.8107-1.3295,2.4403-3.1578,1.4176-4.1164,4.1181-4.45,4.1555-5.0462C312.67559,152.806,310.32979,152.7692,307.76079,154.728Z" transform="translate(-103.07136 -83.8432)"/><path class="cls-4" d="M248.30229,158.795c-.1569,1.7662.741,3.3376,2.0059,3.5104,1.26481.1724,2.4175-1.1196,2.5746-2.8857.1571-1.7662-.7412-3.3378-2.006-3.5102C249.61209,155.7369,248.45939,157.0289,248.30229,158.795Z" transform="translate(-103.07136 -83.8432)"/><path class="cls-4" d="M256.35239,166.161c.9624-4.3905,2.14761-8.6967,3.3775-13.0141.1192-.4189.767-.3215.6787.1221-.713,3.5869-1.457,7.1332-2.3319,10.6878-.4232,1.7197-1.103,3.6089-.8558,5.4008a4.41946,4.41946,0,0,0,2.61511,3.1222.44556.44556,0,0,1-.04221.8144,2.92762,2.92762,0,0,1-3.2764-1.732A8.34628,8.34628,0,0,1,256.35239,166.161Z" transform="translate(-103.07136 -83.8432)"/><path class="cls-4" d="M285.49009,144.4596c-1.1132-3.3017-10.342-3.6421-12.11809-.6231C270.287,149.0806,287.40489,150.1386,285.49009,144.4596Z" transform="translate(-103.07136 -83.8432)"/><path class="cls-4" d="M251.86129,144.4271c-1.1534-2.793-9.1589-2.5563-10.5219.1583C238.97169,149.3008,253.845,149.231,251.86129,144.4271Z" transform="translate(-103.07136 -83.8432)"/><path class="cls-4" d="M279.76959,160.2444a22.39833,22.39833,0,0,0-4.9485-1.1997c-.7023-.1082-1.4105-.1476-2.1139-.2269a28.62052,28.62052,0,0,1,6.957-3.0983.60211.60211,0,0,0-.2155-1.184c-3.3204.5912-8.0093,1.8149-10.3656,4.3964a1.35557,1.35557,0,0,0-.1214.1691.778.778,0,0,0-.125.2544.89543.89543,0,0,0-.0455.1589l-.0037.0132c-.0008.0102.0044.0206.004.0308a.78917.78917,0,0,0,.1307.5276c.0153.0229.0447.0248.0615.0459a.81922.81922,0,0,0,.3472.258.79088.79088,0,0,0,.221.0566c.0107.0005.0194.0078.0304.0078a97.48958,97.48958,0,0,1,9.9868.7555A.49919.49919,0,0,0,279.76959,160.2444Z" transform="translate(-103.07136 -83.8432)"/><path class="cls-4" d="M276.35469,172.7451a13.21323,13.21323,0,0,1-2.5443,2.6922,7.58875,7.58875,0,0,1-3.8151,1.5784c-.44729.0022-.4421.6161-.0384.7675a5.27952,5.27952,0,0,0,4.9204-.7682,4.784,4.784,0,0,0,2.1402-4.0544A.38056.38056,0,0,0,276.35469,172.7451Z" transform="translate(-103.07136 -83.8432)"/><path class="cls-4" d="M262.653,125.819a13.08918,13.08918,0,0,1,.01319,4.8167,12.73782,12.73782,0,0,0,.0377,4.815,5.39622,5.39622,0,0,0,3.3543,3.7251,3.532,3.532,0,0,1,1.0269-2.586c.6054-.7144,1.3824-1.3263,2.0375-2.0127a7.61639,7.61639,0,0,0,1.9776-7.5401Z" transform="translate(-103.07136 -83.8432)"/><path class="cls-4" d="M256.32509,120.1406c-1.2675-1.9485-4.0825-2.2812-6.2889-1.5498s-4.04219,2.2601-6.0556,3.4218c-2.0134,1.1616-4.4864,1.9661-6.6413,1.0945,1.3525,4.4204,6.6284,7.8111,11.1722,6.9608,3.9099-.7316,7.1926-3.8659,11.1689-3.9745Z" transform="translate(-103.07136 -83.8432)"/><polygon class="cls-7" points="202.086 100.088 188.711 116.149 200.999 129.703 212.246 104.691 202.086 100.088"/><polygon class="cls-7" points="164.281 108.821 176.205 133.658 182.465 148.884 198.838 124.175 188.711 116.149 190.203 126.479 182.903 130.972 174.509 118.791 164.281 108.821"/><path class="cls-11" d="M291.05089,223.9597a1.78009,1.78009,0,0,0-.4398-1.1423q-.16725-.13455-.3344-.2688a1.20373,1.20373,0,0,0-.5823-.1969.80341.80341,0,0,0-.4056-.0102,1.20274,1.20274,0,0,0-.5914.1673l-.3475.2516a1.592,1.592,0,0,0-.4346.7145c-.0602.2126-.1245.4234-.1906.6343-.0326.1042-.0538.2094-.0759.3163-.011.0532-.0222.1064-.0323.1598a1.79282,1.79282,0,0,0-.0228.9049l.003.0239.0117.0958q.08042.21285.1607.4258a1.33,1.33,0,0,0,.4597.5289.8722.8722,0,0,0,.3921.2384,1.31435,1.31435,0,0,0,.6523.1593l.4467-.0459q.21285-.0804.4258-.1607a1.32875,1.32875,0,0,0,.5288-.4596,1.30672,1.30672,0,0,0,.32951-.6007A4.33709,4.33709,0,0,0,291.05089,223.9597Z" transform="translate(-103.07136 -83.8432)"/><path class="cls-11" d="M289.26419,249.7503a1.69482,1.69482,0,0,0-1.60619-1.6891l-.41921.0431a1.64023,1.64023,0,0,0-.758.4101l-.2769.3446a1.64691,1.64691,0,0,0-.235.8083l-.1206,1.3045a1.78487,1.78487,0,0,0,1.6916,1.779l.4417-.0453a1.72875,1.72875,0,0,0,.7983-.432l.2916-.3629a1.7337,1.7337,0,0,0,.24751-.8515Q289.29169,250.4048,289.26419,249.7503Z" transform="translate(-103.07136 -83.8432)"/><path class="cls-11" d="M284.98969,220.0306c-2.8525,26.1477-4.5704,52.5078-5.0003,78.8077-.1212,7.4112-.1631,14.8496.06,22.2589a1.49391,1.49391,0,0,0,2.9861-.0041c.1279-26.307-.0382-52.5865,1.3262-78.8708q.57615-11.10075,1.3356-22.1926C285.72809,219.5687,285.03809,219.5869,284.98969,220.0306Z" transform="translate(-103.07136 -83.8432)"/><path class="cls-9" d="M257.89449,226.3663c17.0268,28.5285,60.1317,85.6683,60.1317,85.6683l-.7527.1289c-27.1694,4.6548-46.93649-12.7356-55.2718-39.0104l-23.6442-39.7104Z" transform="translate(-103.07136 -83.8432)"/><path class="cls-9" d="M249.53479,212.1111c-.0126-.0158-2.9032-4.165-5.2475-7.5305a6.84287,6.84287,0,0,0-7.8306-2.5628l-10.8629,3.7151,4.3356,7.9159,7.495-1.2915Z" transform="translate(-103.07136 -83.8432)"/><path class="cls-9" d="M213.86283,204.09382h20.18936a2.339,2.339,0,0,1,2.339,2.339v3.79622a2.3391,2.3391,0,0,1-2.3391,2.3391H213.8628a2.339,2.339,0,0,1-2.339-2.339v-3.79625a2.33907,2.33907,0,0,1,2.33907-2.33907Z" transform="translate(-103.81392 -83.04208) rotate(-0.20461)"/><rect class="cls-4" x="227.26817" y="194.46308" width="5.05136" height="36.79803" transform="matrix(0.9662, -0.25781, 0.25781, 0.9662, -150.18162, -17.40379)"/><path class="cls-9" d="M244.28729,204.5806a121.528,121.528,0,0,1,13.6072,21.7857l-4.7399,11.2357-27.3634-15.1126-12.8134-9.5313a4.84816,4.84816,0,0,1-1.3915-6.4589h0a4.84819,4.84819,0,0,1,6.3176-1.8615l8.4115,3.9112Z" transform="translate(-103.07136 -83.8432)"/><path class="cls-9" d="M215.33669,213.2539a4.25394,4.25394,0,0,0-2.3536,4.1286,4.04913,4.04913,0,0,0,4.0737,3.8068,3.97321,3.97321,0,0,0-1.7667,3.8315,4.73949,4.73949,0,0,0,2.9497,3.3429,3.52729,3.52729,0,0,0,.7721,4.4426,10.1561,10.1561,0,0,0,4.8343,2.0804,168.1367,168.1367,0,0,0,29.3084,2.7153Z" transform="translate(-103.07136 -83.8432)"/><path class="cls-7" d="M230.22539,174.3171c2.7617,10.2188.6291,19.8809-4.718,22.9721-6.173.0352-12.8822-7.2374-15.6472-17.4683-2.765-10.231-.6324-19.893,4.718-22.9721C220.75439,156.8256,227.46369,164.0982,230.22539,174.3171Z" transform="translate(-103.07136 -83.8432)"/><path class="cls-12" d="M221.10639,163.2215a2.23676,2.23676,0,0,0-.9602-.5808.83451.83451,0,0,0-.9556.4185,1.2185,1.2185,0,0,0,.00441.6887,45.99934,45.99934,0,0,0,3.14819,9.7302c.4683,1.0362,1.1833,2.627,2.4397,2.8849a1.91256,1.91256,0,0,0,2.08811-1.6594c.55329-2.3724-1.33661-5.8013-2.56421-7.7247A17.81461,17.81461,0,0,0,221.10639,163.2215Z" transform="translate(-103.07136 -83.8432)"/><path class="cls-12" d="M224.34379,179.9722a2.76987,2.76987,0,0,0,.6344,2.2408,2.37708,2.37708,0,0,0,2.7993.7352,2.1715,2.1715,0,0,0,.9468-1.0653,2.69248,2.69248,0,0,0-.2838-2.6008C227.29079,177.696,224.73919,177.8576,224.34379,179.9722Z" transform="translate(-103.07136 -83.8432)"/><path class="cls-4" d="M216.36429,156.1198,212.656,157.122c-6.65551,1.7987-9.56841,12.4104-6.51611,23.7043,3.0522,11.2939,10.9139,18.9938,17.5694,17.1951l3.7083-1.0022c6.65541-1.7986,9.5683-12.4105,6.516-23.7043C230.88139,162.021,223.01969,154.3211,216.36429,156.1198Zm9.1431,41.1694c-6.173.0352-12.8822-7.2374-15.6472-17.4683-2.765-10.231-.6324-19.893,4.718-22.9721,6.1762-.0232,12.8855,7.2494,15.6472,17.4683C232.98709,184.5359,230.85449,194.198,225.50739,197.2892Z" transform="translate(-103.07136 -83.8432)"/><path class="cls-4" d="M235.70419,206.035a4.50386,4.50386,0,0,0-1.77419.4776c-.67391.2493-1.35811.4612-2.04591.6677a35.52033,35.52033,0,0,1-4.3935,1.0271,41.85856,41.85856,0,0,1-8.8269.6531c-.1692-.0088-.2422.2497-.0662.3016a21.13715,21.13715,0,0,0,9.052.8688,24.71481,24.71481,0,0,0,4.4001-1.0181,20.601,20.601,0,0,0,2.2673-.9111,4.25278,4.25278,0,0,0,1.8064-1.165A.57779.57779,0,0,0,235.70419,206.035Z" transform="translate(-103.07136 -83.8432)"/><path class="cls-10" d="M227.78189,216.5354a14.08431,14.08431,0,0,0-2.69489-.1199,20.3076,20.3076,0,0,1-2.88421-.2431c-.9169-.1446-1.8205-.3478-2.7341-.5085a14.43516,14.43516,0,0,1-2.7621-.7348c-.3068-.1194-.5051.3836-.2161.5334.8699.4511,1.7354.9159,2.6374,1.3011a12.10977,12.10977,0,0,0,2.9207.7827,22.53923,22.53923,0,0,0,2.9412.264,6.65753,6.65753,0,0,0,2.90721-.404A.47846.47846,0,0,0,227.78189,216.5354Z" transform="translate(-103.07136 -83.8432)"/><path class="cls-10" d="M223.99309,222.5525a3.79132,3.79132,0,0,0-1.1225-.3927c-.3497-.0403-.6988-.0772-1.0471-.1294-.7542-.1127-1.5077-.1826-2.2519-.3561a.29745.29745,0,0,0-.15.5753,20.75294,20.75294,0,0,0,2.2119.6762c.3686.0778.7401.1534,1.1131.2069a2.99076,2.99076,0,0,0,1.18941-.1381A.2431.2431,0,0,0,223.99309,222.5525Z" transform="translate(-103.07136 -83.8432)"/><path class="cls-10" d="M221.77269,228.4912c-.15569-.0684-.3012-.1512-.454-.2249a2.04281,2.04281,0,0,0-.653-.1494c-.3783-.048-.77069-.0385-1.1518-.0539a.38974.38974,0,0,0-.0976.7659c.3759.0701.753.1575,1.1323.2056a1.91357,1.91357,0,0,0,.6509.0096c.1738-.039.3424-.0901.5177-.1237A.23578.23578,0,0,0,221.77269,228.4912Z" transform="translate(-103.07136 -83.8432)"/><path class="cls-5" d="M318.02619,312.0346c30.4022-28.1861,35.2616-93.5082,27.7984-110.8929-5.4611-12.7212-18.8691-11.5431-27.9342,12.2503-9.065,23.7935-12.95339,41.1213-30.153,74.5721Z" transform="translate(-103.07136 -83.8432)"/><path class="cls-5" d="M318.02619,312.0346c-32.1681,34.1877-57.9409-4.0524-79.6344-53.6769l24.4423-24.0328,37.0803,43.1699Z" transform="translate(-103.07136 -83.8432)"/><path class="cls-8" d="M246.894,261.4628c-1.75151,2.9346,2.73319,9.6157,5.55,8.7902C257.09109,268.891,249.72469,256.7199,246.894,261.4628Z" transform="translate(-103.07136 -83.8432)"/><path class="cls-8" d="M348.24489,220.9294c-.5433,9.1041-1.4923,18.2055-2.8458,27.225a149.41806,149.41806,0,0,1-6.197,26.2845c-4.9418,14.4186-13.1756,28.0112-24.9143,37.8979a61.38889,61.38889,0,0,1-10.0946,6.9221,55.3596,55.3596,0,0,1-5.4299,2.6074c-1.9046.7856-6.1091,2.4866-6.1091,2.4866a68.506,68.506,0,0,1-12.9183-6.771,70.39266,70.39266,0,0,1-11.7181-10.3112c-7.77979-8.4391-13.7002-18.4349-19.0437-28.5375-3.13309-5.9236-6.059-11.9936-8.8666-18.0772a.2684.2684,0,0,0-.1679-.1424,1.44,1.44,0,0,0,.2517-.1682c8.1909-8.2592,16.38171-16.54,23.75771-25.5435a.41776.41776,0,0,0-.59121-.5896c-8.9407,7.4487-17.1516,15.7068-25.3409,23.9646a1.54819,1.54819,0,0,0,1.4782,2.5576.24629.24629,0,0,0-.0113.1762c4.5074,11.4216,8.7527,22.9669,15.0678,33.5549a83.52867,83.52867,0,0,0,22.1465,24.8552c2.7874,2.0345,12.5267,8.5275,16.6063,8.054,3.1228-.3624,8.0602-2.6139,11.1921-4.2059a62.26418,62.26418,0,0,0,9.5292-6.0336,76.47736,76.47736,0,0,0,15.8722-16.6602c10.02111-14.1219,14.9515-31.2564,17.3102-48.2298,1.4447-10.3961,1.78891-20.8417,2.1407-31.3174C349.37279,220.2131,348.28689,220.2245,348.24489,220.9294Z" transform="translate(-103.07136 -83.8432)"/><path class="cls-8" d="M302.93449,260.1483q2.3712-6.3414,4.4887-12.7683c2.7757-8.4313,5.1657-17.0008,7.2984-25.6158,1.2242-4.9452,2.24541-9.9198,3.3038-14.901a.432.432,0,0,0-.8468-.1686c-4.59859,17.2161-10.4441,34.1449-16.6615,50.8347q-1.27725,3.42915-2.6113,6.8365c-.7694,1.9656-1.7626,3.9901-2.3666,6.049-4.8728-5.8268-9.7425-11.6569-14.6985-17.4134q-3.913-4.54515-7.8324-9.0851c-2.6789-3.1002-5.529-6.035-8.2246-9.1145-.4743-.5417-1.41769.2651-.9673.8327,2.5004,3.152,4.8293,6.4306,7.35261,9.5699q3.78823,4.713,7.58779,9.4171c5.0549,6.2424,10.18821,12.4202,15.3206,18.5989a1.55908,1.55908,0,0,0,.8754,1.324l.0226.0127c1.4014,2.7876,2.8099,5.5715,4.1985,8.3663a65.38866,65.38866,0,0,1,3.9724,9.0177.38946.38946,0,0,0,.7398-.2422c-.8295-3.286-1.4257-6.6277-2.4185-9.8732-.4464-1.4591-.9735-2.9052-1.5532-4.3309a58.834,58.834,0,0,1,7.008,5.3979,48.3488,48.3488,0,0,1,9.5251,11.2517c.3064.5269,1.056.0146.7833-.5092a56.97329,56.97329,0,0,0-8.5621-12.7115,47.66971,47.66971,0,0,0-10.6856-8.5414,35.55374,35.55374,0,0,0,2.5672-6.0009Q301.76589,263.274,302.93449,260.1483Z" transform="translate(-103.07136 -83.8432)"/><path class="cls-8" d="M196.409,296.6706a45.45762,45.45762,0,0,0-2.664-7.0898,70.63214,70.63214,0,0,0-3.40551-6.7756,60.60447,60.60447,0,0,0-4.0356-6.2084c-1.5381-2.0559-3.3144-3.8605-5.0421-5.7487-.5623-.6146-1.4052.2783-.8994.9018a67.606,67.606,0,0,1,4.1419,6.0952c1.3005,2.0211,2.53,4.0775,3.6494,6.2052a67.27121,67.27121,0,0,1,2.9634,6.3941c.9157,2.2968,1.5486,4.6726,2.3767,6.9949A1.50837,1.50837,0,0,0,196.409,296.6706Z" transform="translate(-103.07136 -83.8432)"/><path class="cls-8" d="M183.24689,283.9743c-.3673-1.427-.7343-2.8386-1.201-4.2372q-.33615-1.0074-.7017-2.0047a3.34946,3.34946,0,0,0-1.3051-2.0588,1.15076,1.15076,0,0,0-1.6639.7043,3.21027,3.21027,0,0,0,.4781,2.2083c.3103.6911.6116,1.3868.8982,2.0881.537,1.3132,1.0851,2.6302,1.5551,3.9689a65.51706,65.51706,0,0,1,2.5162,8.4588c.1399.6816,1.1245.3896,1.0264-.2707A85.847,85.847,0,0,0,183.24689,283.9743Z" transform="translate(-103.07136 -83.8432)"/><path class="cls-8" d="M157.66309,242.6214c-3.8937,3.1141-7.3333,6.7457-11.05339,10.0622-1.8368,1.6375-3.6153,3.3141-5.343,5.0658-1.8124,1.8375-5.6092,5.0942-7.0096,7.2775-1.0253,1.5981,1.0955,3.8107,2.7055,2.6981a63.55481,63.55481,0,0,0,7.5314-6.7574c1.7431-1.8396,3.4022-3.733,5.0241-5.6806,3.2099-3.8542,6.73029-7.4383,9.73119-11.461C159.98239,242.8433,158.46629,241.9791,157.66309,242.6214Z" transform="translate(-103.07136 -83.8432)"/><path class="cls-8" d="M142.4835,268.3546c-1.7515,2.9346,2.7331,9.6157,5.55,8.7902C152.68059,275.7828,145.3142,263.6117,142.4835,268.3546Z" transform="translate(-103.07136 -83.8432)"/><path class="cls-4" d="M289.656,668.5398l-5.53381-25.6172c-7.2719.4755-9.1431,10.8481-17.3914,11.3308-8.2482.4828-14.5883-11.2809-19.7931-11.2796-7.5445,12.4957-42.5401,17.2401-46.2362,27.624C213.02659,677.1887,282.63869,675.0898,289.656,668.5398Z" transform="translate(-103.07136 -83.8432)"/><path class="cls-8" d="M253.384,358.8155c-2.64491-.105-5.25341-.0653-7.88051-.3696-2.5364-.3044-5.055-.7538-7.5556-1.2938-1.93889-.432-3.8416-.9186-5.7444-1.4775.3057-1.6669.5933-3.3158.8989-4.9647,1.9755.7581,3.9692,1.4437,5.9807,2.0749,2.4465.7576,4.9291,1.3881,7.4298,1.9825,2.3919.5583,4.7297,1.2434,7.1757,1.6204C255.08369,356.6031,254.74259,358.8499,253.384,358.8155Z" transform="translate(-103.07136 -83.8432)"/><path class="cls-13" d="M255.10029,161.599c1.11971,6.2897-1.8847,12.0852-6.7108,12.9443-4.8259.8592-9.6459-3.5433-10.7657-9.833-1.1197-6.2899,1.8847-12.0853,6.7107-12.9445S253.98049,155.3091,255.10029,161.599Z" transform="translate(-103.07136 -83.8432)"/><ellipse class="cls-13" cx="273.89207" cy="160.34823" rx="8.87557" ry="11.56785" transform="translate(-126.93624 -33.35496) rotate(-10.09457)"/><path class="cls-13" d="M254.27839,158.7154a17.64393,17.64393,0,0,1,10.6413.568" transform="translate(-103.07136 -83.8432)"/><line class="cls-13" x1="179.55894" y1="74.9494" x2="192.39264" y2="69.2332"/></g></svg>