<svg id="OBJECTS" xmlns="http://www.w3.org/2000/svg" xmlns:xlink="http://www.w3.org/1999/xlink" viewBox="0 0 312.24076 390.10517"><defs><style>.cls-1{fill:#f7f7f7;}.cls-2{clip-path:url(#clip-path);}.cls-3{fill:#263238;}.cls-4{fill:#ebebeb;}.cls-5{fill:#38474f;}.cls-6{fill:#a6cce4;}.cls-7{fill:#dbdbdb;}.cls-8{fill:#ac635b;}.cls-9{fill:#824645;}.cls-10{fill:#90b9d1;}.cls-11{fill:#fff;}.cls-12{fill:none;stroke:#ebebeb;stroke-miterlimit:10;}</style><clipPath id="clip-path" transform="translate(-103.07136 -83.8432)"/></defs><path class="cls-1" d="M158.76509,370.9391c-35.33559-26.5543-58.203-70.4271-55.47339-114.5439,2.812-45.4479,31.083-85.7081,64.56849-116.565,20.7992-19.1666,44.2589-35.9092,70.6622-46.0497,26.4032-10.1406,55.9779-13.3556,83.20861-5.7103,35.32149,9.9168,64.20029,37.7821,79.34869,71.1959,15.1484,33.4137,17.3822,71.7787,10.5696,107.8278-5.66829,29.9935-17.6641,59.1852-37.394,82.4764C319.844,413.8031,225.466,421.0639,158.76509,370.9391Z" transform="translate(-103.07136 -83.8432)"/><g class="cls-2"><path class="cls-3" d="M340.01867,473.77144l27.687-.03808a43.76492,43.76492,0,0,0-2.04981-6.59759l-28.20507-3.15523C338.56593,472.28359,340.01867,473.77144,340.01867,473.77144Z" transform="translate(-103.07136 -83.8432)"/><path class="cls-4" d="M365.65538,467.138c-.61088,1.438-14.89386,4.55392-25.03571-.99053a19.33539,19.33539,0,0,1-3.17323-2.162c-.20291-1.51086-.40639-3.49731-.674-5.9485-.14974-1.37366-.31038-2.90568-.48173-4.57509-.11781-1.07773-.24619-2.21888-.37464-3.41283-.35329-3.29661-.77805-4.81773-1.28045-8.95944-.86569-7.08959-4.38853-17.56774-5.83848-26.82286l16.14769-7.31379c.27509,15.5761,1.07532,21.16517,3.42088,28.5486,1.25243,3.95059,3.87967,8.70235,6.77116,13.48542,2.57382,4.26578,5.36955,8.57339,7.58343,12.37467a.0103.0103,0,0,1,.01052.01052c.20126.32737.38135.64415.56146.96094A27.67341,27.67341,0,0,1,365.65538,467.138Z" transform="translate(-103.07136 -83.8432)"/><path class="cls-3" d="M365.65538,467.138c-.38471,2.97051-14.81141,6.72914-24.95333,1.18463-1.121-.61139-2.26115-3.50371-3.25561-4.3372-.20291-1.51086-.40639-3.49731-.674-5.9485-.14974-1.37366-.31038-2.90568-.48173-4.57509a14.90023,14.90023,0,0,0,3.6267,1.53265c1.13482-5.33159,2.90708-6.97337,9.38439-7.331,2.59942-.141,4.21642-.048,5.83507,1.32348,1.95735,1.65641,3.91712,5.17272,7.58343,12.37467a.0103.0103,0,0,1,.01052.01052Q364.0342,463.92242,365.65538,467.138Z" transform="translate(-103.07136 -83.8432)"/><polygon class="cls-3" points="166.07 383.744 166.937 390.025 108.477 390.105 109.702 385.052 166.07 383.744"/><path class="cls-4" d="M269.14291,467.59127s-17.61134,1.30655-33.6783,1.77815c-9.32679.26482-17.29139.37565-21.84088-.3524a124.67617,124.67617,0,0,0,15.40874-6.489c13.367-6.39582,17.90126-11.02471,16.47278-21.99049-1.10776-8.50362-3.46758-21.19976-3.46758-21.19976l19.57143-2.526s1.41022,13.33675,2.422,23.79139C264.71319,447.64989,268.1091,465.09977,269.14291,467.59127Z" transform="translate(-103.07136 -83.8432)"/><path class="cls-3" d="M245.35329,249.79263c-2.61437,12.07209-4.66317,18.47177-7.85072,39.89428l65.88561-.09074c-.17161-22.26292-3.187-36.32347-3.187-36.32347Z" transform="translate(-103.07136 -83.8432)"/><path class="cls-3" d="M264.36028,275.56058c2.35526,19.91748,42.0017,124.96843,52.83,163.70964,11.58641,2.31325,31.04865-4.31166,31.04865-4.31166-4.92153-69.09394-21.06638-80.9917-22.52482-88.69027-1.45858-7.6987-12.52854-64.6532-25.42861-93.91971Z" transform="translate(-103.07136 -83.8432)"/><path class="cls-3" d="M245.35329,249.79263c-12.20852,23.38323-10.17277,84.88031-9.17527,116.19347.99737,31.3131,5.49477,74.01813,5.49477,74.01813s14.79317,5.29472,28.01954.95986c1.59057-68.87658,4.12129-155.46951,4.12129-155.46951Z" transform="translate(-103.07136 -83.8432)"/><path class="cls-5" d="M267.22655,273.06407l-.00678.004-.00063.00019.00748-.00444Z" transform="translate(-103.07136 -83.8432)"/><path class="cls-5" d="M239.15836,271.51982a19.23394,19.23394,0,0,0,6.25716-6.30292,18.89425,18.89425,0,0,0,2.493-6.2796c1.203-.04157,2.4088-.12395,3.57867-.14746,2.23-.04481,4.46039-.08238,6.69024-.13536.88907-.02123,1.77808-.05076,2.66716-.07319a80.63847,80.63847,0,0,0,1.62422,9.72158.6635.6635,0,0,0,.30677.41938,1.58217,1.58217,0,0,0,.939,1.50857,2.38541,2.38541,0,0,0,2.05742-.0889c1.27125-.637,1.46536-2.13309,1.31264-3.40206-.33422-2.77755-.76583-5.54078-1.25048-8.29545,1.908-.05032,3.816-.09835,5.7236-.157q2.06752-.06359,4.1348-.128a1.22464,1.22464,0,0,0-.21679.783,34.96149,34.96149,0,0,0,1.55706,6.4372q.80281,3.02121,1.60534,6.04235,1.643,6.14773,3.60534,12.2115c2.635,8.15863,4.86234,16.40915,7.19251,24.65872a.44863.44863,0,0,0,.86708-.2287c-2.02592-8.32973-4.14183-16.6101-5.85762-25.01062q-1.27346-6.235-2.8631-12.40724-.78172-3.02654-1.57214-6.05109a35.00246,35.00246,0,0,0-1.81091-6.37548,1.2925,1.2925,0,0,0-.08212-.13473q5.56522-.17328,11.12933-.37343a1.93486,1.93486,0,0,0,.14968,1.19578,23.4038,23.4038,0,0,0,5.708,7.60688,23.67143,23.67143,0,0,0,8.3805,4.64707,1.132,1.132,0,0,0,1.36763-.80187,1.15607,1.15607,0,0,0-.80188-1.36758,22.04473,22.04473,0,0,1-11.782-11.39479q3.13662-.12738,6.2727-.27864a1.0724,1.0724,0,0,0-.00292-2.14354c-9.06976-.14156-18.1373-.08669-27.20789-.06032q-6.69021.01949-13.3806.08485c-2.23016.02414-4.46039.06058-6.6903.09093a54.41722,54.41722,0,0,0-7.122.21876,1.68237,1.68237,0,0,0-1.24014,1.86439,1.73387,1.73387,0,0,0,1.67664,1.484c.36557.04131.73983.0505,1.11206.067a18.65265,18.65265,0,0,1-2.55664,4.88655,18.28658,18.28658,0,0,1-5.59407,4.86A1.64063,1.64063,0,0,0,239.15836,271.51982ZM262.67662,258.531c.54878-.01432,1.09749-.03073,1.64627-.04518.06566,2.06059.1616,4.11712.31178,6.1739q.06226.85111.12427,1.7023a4.498,4.498,0,0,1,.0225,1.26631c.00488-.02148-.05855.18871-.08878.27984.075-.04442.06691-.03961-.00007.00032l-.00088.0024-.0059.00153-.00165.00095.00013-.00026.00089-.0005-.01382.00367-.0109-.0019c-.09663-.04379-.19067-.09341-.28719-.13675a1.30907,1.30907,0,0,0-.49231-.11318A82.81247,82.81247,0,0,0,262.67662,258.531Z" transform="translate(-103.07136 -83.8432)"/><path class="cls-5" d="M251.85754,283.44559c.08415-3.51435.33345-7.03852.56342-10.5459q.17451-2.66351.34917-5.327a15.19966,15.19966,0,0,1,.83774-5.32031,1.18925,1.18925,0,0,1,2.17725.12091,14.96272,14.96272,0,0,1,.04075,5.312q-.23622,2.65221-.4723,5.30441c-.31995,3.59343-.56734,7.236-1.09084,10.80653-.51367,3.50383-1.01112,7-1.4345,10.51865-.44041,3.66-1.011,7.31563-1.32505,10.98808-.01312.15374-.24455.10741-.23427-.043C251.76965,298.01044,251.68384,290.70425,251.85754,283.44559Z" transform="translate(-103.07136 -83.8432)"/><path class="cls-5" d="M303.009,353.71814c-2.08517-6.91907-3.93011-13.90739-6.03226-20.82189-.05051-.16622.19929-.22617.25746-.06781,2.22066,6.04786,4.62065,12.02646,6.90512,18.05,2.27953,6.01048,4.346,12.09636,6.44367,18.17185,4.16623,12.06689,8.32543,24.13675,12.31479,36.26352,2.12446,6.45818,4.34741,12.89336,6.39557,19.37669.22781-.02167.45525-.04835.683-.06907,2.44029-.22205,4.87476-.3377,7.32342-.42,2.5185-.0846,5.03331.05519,7.54585-.02934.70182-.02351.87622,1.11143.1616,1.2402-2.39.43085-4.734,1.08039-7.12965,1.51231-2.4792.44689-4.95144.86557-7.45244,1.17038-2.43732.29714-4.88123.53914-7.32286.79693-2.40525.25411-5.03591.81018-7.41632.18162a1.25339,1.25339,0,0,1-.30094-2.27769c2.13206-1.08267,4.70588-1.13,7.04663-1.3812,1.38753-.1488,2.77514-.30259,4.163-.45139-4.1149-11.54237-7.961-23.20686-11.78863-34.84512C310.82281,378.007,306.68783,365.926,303.009,353.71814Z" transform="translate(-103.07136 -83.8432)"/><path class="cls-5" d="M243.64339,429.58584a6.87189,6.87189,0,0,1,2.93186.16907c.49694.08042.995.15152,1.49191.2294q-.26872-20.81128-.47084-41.623c-.13523-14.141-.36957-28.2957-.203-42.43711.04728-4.02086.08562-8.04134.17763-12.06144.09188-4.01972.31355-8.0414.304-12.06157a.39952.39952,0,0,1,.79858-.00107c.15463,7.14554.70911,14.29483.96481,21.44069.25031,6.99606.38947,13.99535.51576,20.99464q.38307,21.21754.66031,42.43654c.11432,7.91181.18352,15.82426.27015,23.73626,1.35053.17186,2.70175.33421,4.05843.462a72.80781,72.80781,0,0,0,11.63465.40316.6753.6753,0,0,1,.17242,1.3229,69.00361,69.00361,0,0,1-12.01853,1.37126,45.48632,45.48632,0,0,1-6.02815-.37661c-1.89266-.24727-4.39538-.31032-5.92664-1.529A1.48929,1.48929,0,0,1,243.64339,429.58584Z" transform="translate(-103.07136 -83.8432)"/><path class="cls-4" d="M296.62614,163.41807c-10.96045-2.49055-29.15543,5.00366-29.15543,5.00366s-22.52774,5.99716-29.91243,10.86217c-7.38478,4.865,2.9911,51.88665,3.05649,68.64332l61.27308,1.78753C306.17105,212.09252,315.15013,167.62733,296.62614,163.41807Z" transform="translate(-103.07136 -83.8432)"/><path class="cls-6" d="M258.27092,250.61225s-.03568-31.181.64022-42.07311c.8719-14.0501,2.31425-29.5143,2.31425-29.5143l13.18055-1.00871c-3.80648,13.42483-6.053,73.23577-6.053,73.23577Z" transform="translate(-103.07136 -83.8432)"/><path class="cls-4" d="M258.9574,238.38048s-2.70867,50.36305-4.16395,60.55857c-1.44381,10.19559-5.98766,11.56786-27.03141,1.52955,1.4435-10.3907,3.18514-21.05731,4.97349-31.13851.19372-1.05631.376-2.10121.56963-3.14611,4.92153-27.23552,9.98774-49.46625,9.98774-49.46625Z" transform="translate(-103.07136 -83.8432)"/><path class="cls-4" d="M265.12351,231.90354s9.685,62.44769,16.13134,73.49331,44.61456-6.55862,44.61456-6.55862c-6.63721-30.67484-27.44731-97.74438-27.44731-97.74438Z" transform="translate(-103.07136 -83.8432)"/><path class="cls-7" d="M321.36972,292.11042q-1.15671.474-2.31482.93685c-.94909-4.36552-2.1846-8.68644-3.2942-12.995-1.517-5.89051-3.06063-11.7776-4.73358-17.62572q-2.51039-8.77628-4.907-17.58c-1.58753-5.87917-3.43387-11.67558-5.0719-17.53663a.2423.2423,0,0,0-.4683.12351c1.39723,5.92517,2.58091,11.89433,4.03112,17.81095,1.44894,5.91187,2.83483,11.83477,4.19582,17.76755,1.36016,5.92948,2.8522,11.83058,4.36933,17.72185,1.13419,4.4045,2.15665,8.88536,3.47582,13.257a106.37679,106.37679,0,0,1-15.22,4.76666c-6.10838,1.3556-12.79519,2.8695-18.8594.74529a.77888.77888,0,0,0-.865,1.12836c1.78043,2.78249,5.1878,3.06537,8.18848,2.87393a67.52586,67.52586,0,0,0,10.96121-1.76826,81.0389,81.0389,0,0,0,16.46714-5.61321q.36293,1.10149.75873,2.19024a.96935.96935,0,0,0,1.87339-.494c-.14391-.92646-.31266-1.84963-.49175-2.77134.91873-.48427,1.82581-.987,2.71292-1.51935C323.10674,292.97167,322.313,291.72386,321.36972,292.11042Z" transform="translate(-103.07136 -83.8432)"/><path class="cls-7" d="M250.77785,296.85654a37.31906,37.31906,0,0,1-13.88914-2.65144c-.69808-.29017-1.38437-.61133-2.05831-.9539a13.60711,13.60711,0,0,0-2.38168-1.16537,1.47308,1.47308,0,0,0-1.4011,2.44987c1.2001,1.1788,3.18426,1.81338,4.72883,2.41393a27.66883,27.66883,0,0,0,4.97311,1.46346,29.274,29.274,0,0,0,10.25135.15462C251.99449,298.40136,251.74107,296.86136,250.77785,296.85654Z" transform="translate(-103.07136 -83.8432)"/><path class="cls-7" d="M303.75394,264.65526c-1.55635-.789-3.58513.41272-5.093.93165-1.56491.53858-3.14434,1.04959-4.72674,1.5345-1.58018.48433-3.17963.90954-4.77685,1.33348a46.40637,46.40637,0,0,1-5.13717,1.24084c-.89225.1306-.69657,1.63886.20468,1.57042,1.7533-.133,3.51174-.09549,5.26277-.27755,1.76522-.18359,3.50884-.47528,5.24737-.83a48.30468,48.30468,0,0,0,5.14238-1.34666c1.61725-.51988,3.85128-.93115,4.50551-2.67039A1.32633,1.32633,0,0,0,303.75394,264.65526Z" transform="translate(-103.07136 -83.8432)"/><polygon class="cls-6" points="165.127 68.63 178.069 72.459 182.333 79.571 156.597 86.847 153.821 78.373 165.127 68.63"/><path class="cls-4" d="M213.25042,241.77734c7.755-5.99514,39.47282-26.94891,43.49766-49.12336,2.96316-16.32519-9.17369-22.52508-21.45609-11.61779-12.28235,10.90723-41.11187,38.17507-41.11187,38.17507Z" transform="translate(-103.07136 -83.8432)"/><path class="cls-8" d="M173.07643,190.20031l8.54449,31.72684a18.75271,18.75271,0,0,0,26.32769,11.97855l2.13967-1.0435-29.10581-42.681Z" transform="translate(-103.07136 -83.8432)"/><path class="cls-9" d="M182.91106,178.12912l4.56153-9.40442a1.85534,1.85534,0,0,0-.7887-2.44271h0a1.85541,1.85541,0,0,0-2.1936.322l-6.83947,6.84967Z" transform="translate(-103.07136 -83.8432)"/><path class="cls-8" d="M183.643,178.14109c3.03489,12.246,2.04646,20.05246-8.11687,20.61506l-4.78364-15.14075Z" transform="translate(-103.07136 -83.8432)"/><path class="cls-3" d="M205.062,159.56109l-10.48715-.26964-15.43941,11.20893a1.55976,1.55976,0,1,0,1.90362,2.4702l14.054-11.692,9.99534-1.03647a.34148.34148,0,0,0-.02643-.681Z" transform="translate(-103.07136 -83.8432)"/><path class="cls-6" d="M203.6213,163.00541c-1.10675-1.63683-1.231-4.48137-.75993-6.36015.45448-1.813,2.39176-4.01547,4.10774-2.73572,1.28944.96163.26425,2.98331.38611,4.28612.14023,1.499,1.71972,3.055.95067,4.58124A2.76829,2.76829,0,0,1,203.6213,163.00541Z" transform="translate(-103.07136 -83.8432)"/><path class="cls-10" d="M204.42127,160.18521a5.15354,5.15354,0,0,1-.60442-1.11841,3.46,3.46,0,0,1-.261-1.24033,5.77554,5.77554,0,0,1,.15989-1.34907c.0351-.14588-.1872-.25075-.2538-.10291a4.03061,4.03061,0,0,0-.35031,1.344c-.02027.242-.00063.48231-.00912.72406a4.44711,4.44711,0,0,0,.03.76722,4.73455,4.73455,0,0,0,.42217,1.42739,5.90939,5.90939,0,0,0,.35107.62958c.21336.3294.44992.59117.87608.51431a.498.498,0,0,0,.36165-.36267C205.26681,160.877,204.69072,160.57753,204.42127,160.18521Z" transform="translate(-103.07136 -83.8432)"/><path class="cls-10" d="M206.66031,162.08845a.429.429,0,0,0-.07814-.15088l-.003-.00963-.00456-.00494c-.008-.01052-.009-.025-.01806-.03492a.43647.43647,0,0,0-.08485-.07738c-.01787-.0159-.02782-.03979-.04854-.05291-.00621-.00564-.01546-.006-.02186-.01128-.00621-.00361-.00894-.01058-.0154-.01394l-.05564-.02256a.42352.42352,0,0,0-.10779-.05545l-.1467-.01863a.57775.57775,0,0,0-.28555.07566l-.12319.0943a.57559.57559,0,0,0-.15025.26241l-.01907.09677a.64676.64676,0,0,0,.057.43224l.09429.12319a.43566.43566,0,0,0,.19289.12205.28969.28969,0,0,0,.1429.03745.43794.43794,0,0,0,.22009-.00969l.13878-.05666a.58316.58316,0,0,0,.21716-.21773l.0436-.075a.64662.64662,0,0,0,.05583-.43244Z" transform="translate(-103.07136 -83.8432)"/><path class="cls-5" d="M204.39656,158.07374l-10.49064-.00323-15.14981,11.59738a1.55979,1.55979,0,1,0,1.96579,2.4211l13.75258-12.04515,9.9658-1.28995a.34149.34149,0,0,0-.04372-.68015Z" transform="translate(-103.07136 -83.8432)"/><path class="cls-8" d="M184.86525,163.59747l-8.30483,1.48716a2.47621,2.47621,0,0,0-1.76167,1.29749l-4.40957,11.96676a6.17178,6.17178,0,0,0-.026,4.19608l5.70034,16.0828c.4489-2.13568,5.20162-2.7797,6.53954-8.21174,1.89323-5.70192-3.34414-16.66719-3.34414-16.66719l.28276-4.65855,6.2464-2.56076a1.54506,1.54506,0,0,0,.91435-1.79317A1.58314,1.58314,0,0,0,184.86525,163.59747Z" transform="translate(-103.07136 -83.8432)"/><path class="cls-8" d="M178.937,172.19957c4.3756-.07148,6.31243,2.36723,5.11741,4.65157,1.01,2.33783.47679,3.88373-1.28552,5.14307a2.4647,2.4647,0,0,1,2.81532,3.57271c-.6906,1.27126-5.51074,4.03512-5.51074,4.03512l-6.85665-11.694Z" transform="translate(-103.07136 -83.8432)"/><path class="cls-9" d="M177.88579,172.28321a3.396,3.396,0,0,0-1.54938.16958,5.71691,5.71691,0,0,0-1.46061.76031,11.14293,11.14293,0,0,0-2.37521,2.14677c-.11876.14911.13206.3543.26114.21336a7.85278,7.85278,0,0,1,2.42357-1.86173c.4453-.206.90675-.38294,1.36067-.56868a13.94485,13.94485,0,0,0,1.39128-.64428A.11541.11541,0,0,0,177.88579,172.28321Z" transform="translate(-103.07136 -83.8432)"/><path class="cls-9" d="M182.70416,175.98159a4.62092,4.62092,0,0,1-.57629-.10817,4.54142,4.54142,0,0,0-.51874-.01705,7.12677,7.12677,0,0,0-1.04274.13314,6.9198,6.9198,0,0,0-2.098.71088,7.50358,7.50358,0,0,0-2.98223,3.101.164.164,0,0,0,.27933.17155,7.58738,7.58738,0,0,1,3.02317-2.67356,9.04554,9.04554,0,0,1,1.85375-.74333,7.36794,7.36794,0,0,1,.96607-.16546c.16977-.02072.339-.0441.50924-.05982a2.13834,2.13834,0,0,1,.54371-.07021C182.87329,176.30287,182.90162,175.97075,182.70416,175.98159Z" transform="translate(-103.07136 -83.8432)"/><path class="cls-9" d="M182.03029,181.06408a1.47293,1.47293,0,0,0-.51216.08333,4.632,4.632,0,0,0-.53629.19188,3.739,3.739,0,0,0-.91043.56938,15.12593,15.12593,0,0,0-1.59489,1.47315.17024.17024,0,0,0,.23219.24872,11.02783,11.02783,0,0,1,1.75711-1.17037,8.10614,8.10614,0,0,0,.92184-.55379,3.01563,3.01563,0,0,0,.76087-.62558A.144.144,0,0,0,182.03029,181.06408Z" transform="translate(-103.07136 -83.8432)"/><path class="cls-9" d="M182.03162,188.38427a1.887,1.887,0,0,0-1.04915,1.79691c-.00006.91125.48167,1.74887.47857,2.66652a3.83311,3.83311,0,0,1-.65379,2.12174,3.5297,3.5297,0,0,1-.74174.79415c-.31272.24619-.79725.399-.963.77792a.43867.43867,0,0,0,.33864.6c.40785.0827.79935-.2721,1.07862-.52913a4.8968,4.8968,0,0,0,.7463-.8598,5.41286,5.41286,0,0,0,.87944-2.11192,5.09866,5.09866,0,0,0-.2171-2.36983c-.21406-.71873-.599-1.99423.27508-2.45563C182.46158,188.67887,182.3131,188.266,182.03162,188.38427Z" transform="translate(-103.07136 -83.8432)"/><polygon class="cls-6" points="153.73 78.373 151.938 82.188 153.753 95.188 163.724 86.076 153.73 78.373"/><path class="cls-4" d="M213.25042,241.77734c-9.50334,7.15879-24.20627,4.99852-42.76676-29.42158l15.38752-15.12637,26.65062,35.80232Z" transform="translate(-103.07136 -83.8432)"/><path class="cls-3" d="M269.81691,118.58553c-6.54918-5.96668-12.81015-10.43829-20.4252-4.38029s-9.19308,7.05436-9.19308,7.05436-5.67392,9.87481.86842,18.3783Z" transform="translate(-103.07136 -83.8432)"/><path class="cls-3" d="M261.88938,118.70486c17.03589-7.59142,28.22016,11.72285,15.83135,29.62208Z" transform="translate(-103.07136 -83.8432)"/><path class="cls-8" d="M278.9785,169.70674c.0062,4.4998-12.16626,12.29584-12.16626,12.29584s-4.74555-6.07384-5.57842-10.73328l-3.79165-19.1995,19.87065-8.235,1.642,25.28647C278.96646,169.31638,278.97824,169.5115,278.9785,169.70674Z" transform="translate(-103.07136 -83.8432)"/><path class="cls-3" d="M274.36924,151.34941c.01147,8.35223-5.26765,16.34129-13.83983,16.35314l-2.55589-12.48088-.15418-1.55363Z" transform="translate(-103.07136 -83.8432)"/><path class="cls-8" d="M242.59786,154.70768c2.5043,4.68643,6.83408,8.5969,12.0276,9.66993,7.197,1.5011,14.56985-2.67032,19.13176-8.43587a27.59955,27.59955,0,0,0,5.29592-11.32667c1.9412-8.89087-.53021-18.48616-8.90735-23.61941-5.73107-3.514-15.8048-4.097-22.75168-.73508a13.2246,13.2246,0,0,0-6.288,5.82936C236.94219,134.34331,238.3599,146.791,242.59786,154.70768Z" transform="translate(-103.07136 -83.8432)"/><path class="cls-8" d="M279.56847,136.21709c2.16888-1.18774,5.12956-1.40478,7.107.058a6.78177,6.78177,0,0,1,2.373,5.25327,11.11945,11.11945,0,0,1-2.02916,7.19162,9.23818,9.23818,0,0,1-6.73909,3.725,7.38825,7.38825,0,0,1-6.77617-3.38894C271.08487,144.7598,275.67124,138.35124,279.56847,136.21709Z" transform="translate(-103.07136 -83.8432)"/><path class="cls-3" d="M244.84412,121.19553c4.47915,3.85071,14.84317,5.56391,20.68964,4.72071.8968,2.90759,4.02,6.28417,5.83012,6.89511a69.28808,69.28808,0,0,0,2.77749,12.03812c2.19189-2.022,5.69926-8.86153,5.69926-8.86153C278.44023,119.692,257.32158,111.68985,244.84412,121.19553Z" transform="translate(-103.07136 -83.8432)"/><path class="cls-3" d="M280.61583,141.99119c-1.82434,1.391-2.59675,3.93981-1.09059,4.38669.83306.24714,1.14743-.8425,1.54641-2.00108.89833-2.60854,2.60962-2.82,2.63332-3.19775C283.73032,140.77323,282.24379,140.74991,280.61583,141.99119Z" transform="translate(-103.07136 -83.8432)"/><path class="cls-3" d="M242.93727,144.56843c-.09943,1.11923.46956,2.115,1.27113,2.22452.8015.10925,1.53195-.70948,1.63151-1.82865.09955-1.11924-.4697-2.11515-1.2712-2.2244C243.76728,142.63052,243.03682,143.44926,242.93727,144.56843Z" transform="translate(-103.07136 -83.8432)"/><path class="cls-3" d="M248.03858,149.23623c.60986-2.78224,1.36092-5.51106,2.1403-8.247.07554-.26545.48605-.20373.43009.07738-.45182,2.273-.92329,4.52027-1.47771,6.77281a9.45858,9.45858,0,0,0-.54232,3.42246,2.80058,2.80058,0,0,0,1.65718,1.97852.28235.28235,0,0,1-.02675.51608,1.85521,1.85521,0,0,1-2.07623-1.09756A5.289,5.289,0,0,1,248.03858,149.23623Z" transform="translate(-103.07136 -83.8432)"/><path class="cls-3" d="M266.503,135.48415c-.70543-2.09227-6.55368-2.308-7.67918-.39485C256.86887,138.41246,267.7164,139.08291,266.503,135.48415Z" transform="translate(-103.07136 -83.8432)"/><path class="cls-3" d="M245.19259,135.46356c-.73091-1.76991-5.80395-1.61992-6.66768.10031C237.02451,138.552,246.44965,138.50777,245.19259,135.46356Z" transform="translate(-103.07136 -83.8432)"/><path class="cls-3" d="M262.87794,145.48691a14.19355,14.19355,0,0,0-3.13584-.76025c-.445-.06856-.89382-.09353-1.33957-.14378a18.13659,18.13659,0,0,1,4.40862-1.96338.38156.38156,0,0,0-.13656-.7503c-2.10412.37464-5.07545,1.1501-6.56863,2.786a.85745.85745,0,0,0-.07693.10716.49279.49279,0,0,0-.07921.16121.56775.56775,0,0,0-.02884.1007l-.00234.00836c-.00051.00646.00279.013.00253.01952a.50011.50011,0,0,0,.08283.33434c.00969.01451.02832.01571.039.02908a.51917.51917,0,0,0,.22.1635.5013.5013,0,0,0,.14.03586c.00678.00032.01229.00495.01926.00495a61.777,61.777,0,0,1,6.32859.47875A.31633.31633,0,0,0,262.87794,145.48691Z" transform="translate(-103.07136 -83.8432)"/><path class="cls-3" d="M260.71394,153.40854a8.37308,8.37308,0,0,1-1.61231,1.706,4.809,4.809,0,0,1-2.41761,1.00023c-.28345.00139-.28016.39042-.02434.48636a3.3456,3.3456,0,0,0,3.118-.48681,3.03163,3.03163,0,0,0,1.35623-2.56925A.24116.24116,0,0,0,260.71394,153.40854Z" transform="translate(-103.07136 -83.8432)"/><path class="cls-3" d="M252.03124,123.67169a8.29454,8.29454,0,0,1,.00836,3.05232,8.0719,8.0719,0,0,0,.02389,3.05125,3.41956,3.41956,0,0,0,2.1256,2.36057,2.23824,2.23824,0,0,1,.65075-1.63873c.38364-.45271.876-.84047,1.29115-1.27544a4.82647,4.82647,0,0,0,1.2532-4.77812Z" transform="translate(-103.07136 -83.8432)"/><path class="cls-3" d="M248.02128,120.07332c-.80321-1.23476-2.58706-1.44559-3.98525-.9821a21.81731,21.81731,0,0,0-3.8374,2.16838,4.95534,4.95534,0,0,1-4.20856.69358,6.67254,6.67254,0,0,0,7.07977,4.411c2.47768-.46361,4.55791-2.4498,7.07767-2.51862Z" transform="translate(-103.07136 -83.8432)"/><polygon class="cls-6" points="175.894 76.654 167.419 86.832 175.206 95.421 182.333 79.571 175.894 76.654"/><polygon class="cls-6" points="151.938 82.188 159.494 97.927 163.461 107.576 173.836 91.918 167.419 86.832 168.364 93.378 163.738 96.225 158.419 88.506 151.938 82.188"/><path class="cls-10" d="M270.02685,185.863a1.128,1.128,0,0,0-.2787-.72387l-.21191-.17034a.76276.76276,0,0,0-.369-.12478.50922.50922,0,0,0-.257-.00646.7621.7621,0,0,0-.37476.106l-.22021.15944a1.00887,1.00887,0,0,0-.27541.45277c-.03814.13472-.07889.26831-.12078.40195-.02066.066-.03409.1327-.0481.20044-.007.03371-.01406.06743-.02046.10127a1.13605,1.13605,0,0,0-.01445.57343l.0019.01514.00741.06071.10184.26983a.8428.8428,0,0,0,.29131.33516.55264.55264,0,0,0,.24847.15107.833.833,0,0,0,.41336.10095l.28307-.02909.26983-.10183a.84208.84208,0,0,0,.3351-.29125.828.828,0,0,0,.2088-.38066A2.7484,2.7484,0,0,0,270.02685,185.863Z" transform="translate(-103.07136 -83.8432)"/><path class="cls-10" d="M268.89463,202.20637a1.074,1.074,0,0,0-1.01784-1.07038l-.26565.02731a1.0395,1.0395,0,0,0-.48034.25988l-.17547.21837a1.04368,1.04368,0,0,0-.14892.51222l-.07642.82666a1.131,1.131,0,0,0,1.072,1.12734l.27991-.02871a1.09551,1.09551,0,0,0,.50588-.27375l.18478-.23a1.09867,1.09867,0,0,0,.15685-.53959Q268.91205,202.62112,268.89463,202.20637Z" transform="translate(-103.07136 -83.8432)"/><path class="cls-10" d="M266.1859,183.37313c-1.80762,16.56968-2.89625,33.27395-3.16867,49.94007-.0768,4.69644-.10336,9.41012.038,14.10536a.94669.94669,0,0,0,1.89228-.0026c.08105-16.67062-.02421-33.32382.8404-49.98005q.36512-7.03449.84637-14.06335C266.65382,183.08043,266.21657,183.092,266.1859,183.37313Z" transform="translate(-103.07136 -83.8432)"/><path class="cls-8" d="M249.0158,187.388c10.7898,18.07837,38.10517,54.28759,38.10517,54.28759l-.477.08168c-17.21711,2.94973-29.74343-8.07049-35.02547-24.7207l-14.98322-25.16429Z" transform="translate(-103.07136 -83.8432)"/><path class="cls-8" d="M243.7183,178.35459c-.008-.01-1.83975-2.63935-3.32532-4.77205a4.33631,4.33631,0,0,0-4.96221-1.624l-6.88377,2.35424,2.74745,5.01627,4.74954-.81842Z" transform="translate(-103.07136 -83.8432)"/><path class="cls-8" d="M221.97,173.27408h11.08029a2.339,2.339,0,0,1,2.339,2.339v.692a2.3391,2.3391,0,0,1-2.3391,2.3391H221.96992a2.339,2.339,0,0,1-2.339-2.339v-.69206a2.33907,2.33907,0,0,1,2.33907-2.33907Z" transform="translate(-103.69829 -83.0296) rotate(-0.20461)"/><rect class="cls-3" x="229.60804" y="167.17112" width="3.20102" height="23.31874" transform="translate(-141.36003 -18.18949) rotate(-14.94028)"/><path class="cls-8" d="M240.393,173.58254a77.01215,77.01215,0,0,1,8.62282,13.8055l-3.00365,7.12-17.34006-9.57679-8.11979-6.03993a3.07227,3.07227,0,0,1-.88179-4.093h0a3.07228,3.07228,0,0,1,4.00344-1.17962l5.33032,2.47851Z" transform="translate(-103.07136 -83.8432)"/><path class="cls-8" d="M222.04712,179.07877a2.6957,2.6957,0,0,0-1.49146,2.61628,2.56592,2.56592,0,0,0,2.58148,2.41235,2.51781,2.51781,0,0,0-1.11955,2.428,3.0034,3.0034,0,0,0,1.86921,2.11838,2.23523,2.23523,0,0,0,.48928,2.81525,6.43574,6.43574,0,0,0,3.06347,1.31834,106.54753,106.54753,0,0,0,18.5726,1.72068Z" transform="translate(-103.07136 -83.8432)"/><path class="cls-6" d="M231.482,154.40471c1.75008,6.4756.39866,12.59843-2.98977,14.55731-3.9118.0223-8.16339-4.58631-9.91556-11.06958-1.75217-6.48334-.40075-12.6061,2.98978-14.55731C225.48029,143.32043,229.732,147.929,231.482,154.40471Z" transform="translate(-103.07136 -83.8432)"/><path class="cls-11" d="M225.70335,147.37348a1.41736,1.41736,0,0,0-.60847-.36805.52883.52883,0,0,0-.60556.2652.77227.77227,0,0,0,.00279.43643,29.15018,29.15018,0,0,0,1.995,6.166c.29676.65663.74985,1.66472,1.546,1.82815a1.212,1.212,0,0,0,1.32322-1.05156c.35062-1.50338-.847-3.67625-1.62493-4.8951A11.28914,11.28914,0,0,0,225.70335,147.37348Z" transform="translate(-103.07136 -83.8432)"/><path class="cls-11" d="M227.75488,157.98832a1.75522,1.75522,0,0,0,.402,1.42,1.50634,1.50634,0,0,0,1.7739.4659,1.37609,1.37609,0,0,0,.6-.67508,1.7062,1.7062,0,0,0-.17984-1.64811A1.41415,1.41415,0,0,0,227.75488,157.98832Z" transform="translate(-103.07136 -83.8432)"/><path class="cls-3" d="M222.69831,142.87317l-2.34993.63509c-4.21756,1.13982-6.06345,7.86441-4.12922,15.0213,1.93416,7.15689,6.91608,12.03628,11.13364,10.89645l2.34993-.63509c4.2175-1.13976,6.06339-7.86447,4.12916-15.0213C231.89773,146.61273,226.9158,141.73334,222.69831,142.87317Zm5.79394,26.08885c-3.9118.0223-8.16339-4.58631-9.91556-11.06958-1.75217-6.48334-.40075-12.6061,2.98978-14.55731,3.91382-.0147,8.16548,4.59391,9.91555,11.06958C233.2321,160.88031,231.88068,167.00314,228.49225,168.962Z" transform="translate(-103.07136 -83.8432)"/><path class="cls-3" d="M234.95391,174.50419a2.85415,2.85415,0,0,0-1.1243.30265c-.42705.158-.86062.29226-1.29648.42312a22.50976,22.50976,0,0,1-2.78414.65087,26.526,26.526,0,0,1-5.59356.41387c-.10722-.00558-.15348.15823-.04195.19112a13.3946,13.3946,0,0,0,5.73621.55055,15.66162,15.66162,0,0,0,2.78832-.64516,13.05707,13.05707,0,0,0,1.43678-.57736,2.69506,2.69506,0,0,0,1.1447-.73826A.36614.36614,0,0,0,234.95391,174.50419Z" transform="translate(-103.07136 -83.8432)"/><path class="cls-9" d="M229.93359,181.15824a8.92618,8.92618,0,0,0-1.70774-.076,12.86927,12.86927,0,0,1-1.82771-.154c-.581-.09163-1.15364-.2204-1.73259-.32223a9.14779,9.14779,0,0,1-1.75033-.46564c-.19441-.07566-.32008.24308-.13694.338.55125.28586,1.09972.5804,1.67131.8245a7.67378,7.67378,0,0,0,1.85083.496,14.28354,14.28354,0,0,0,1.86383.16729,4.2189,4.2189,0,0,0,1.84228-.256A.30321.30321,0,0,0,229.93359,181.15824Z" transform="translate(-103.07136 -83.8432)"/><path class="cls-9" d="M227.53264,184.97125a2.40242,2.40242,0,0,0-.71132-.24885c-.2216-.02554-.44283-.04892-.66354-.082-.47794-.07142-.95542-.11571-1.427-.22566a.18849.18849,0,0,0-.09505.36456,13.15071,13.15071,0,0,0,1.40167.42851c.23358.0493.469.09721.70536.13111a1.89516,1.89516,0,0,0,.75372-.08751A.15405.15405,0,0,0,227.53264,184.97125Z" transform="translate(-103.07136 -83.8432)"/><path class="cls-9" d="M226.12559,188.73458c-.09867-.04335-.19087-.09582-.2877-.14252a1.29461,1.29461,0,0,0-.4138-.09468c-.23973-.03041-.48839-.02439-.72989-.03415a.247.247,0,0,0-.06185.48535c.2382.04442.47717.0998.71753.13028a1.21278,1.21278,0,0,0,.41247.00609c.11014-.02472.217-.0571.32807-.07839A.14941.14941,0,0,0,226.12559,188.73458Z" transform="translate(-103.07136 -83.8432)"/><path class="cls-4" d="M287.121,241.67563c19.26572-17.8614,22.3451-59.2557,17.61571-70.2723-3.46067-8.06136-11.95726-7.31481-17.70177,7.763-5.74445,15.07782-8.2085,26.05837-19.10781,47.256Z" transform="translate(-103.07136 -83.8432)"/><path class="cls-4" d="M287.121,241.67563c-20.38477,21.66458-36.71687-2.568-50.46394-34.0148l15.489-15.22947,23.49761,27.35656Z" transform="translate(-103.07136 -83.8432)"/><path class="cls-7" d="M242.04484,209.62852c-1.10992,1.85964,1.732,6.09342,3.517,5.57031C248.50669,214.33574,243.83863,206.623,242.04484,209.62852Z" transform="translate(-103.07136 -83.8432)"/><path class="cls-7" d="M306.27041,183.9427c-.34428,5.76922-.94566,11.53674-1.80337,17.25235a94.68548,94.68548,0,0,1-3.927,16.65636c-3.13159,9.137-8.34931,17.75057-15.78807,24.01572a38.90122,38.90122,0,0,1-6.3969,4.3865,35.07887,35.07887,0,0,1-3.4409,1.6523c-1.20694.49783-3.87131,1.57575-3.87131,1.57575a43.41192,43.41192,0,0,1-8.18626-4.29075,44.60774,44.60774,0,0,1-7.42571-6.53416c-4.93-5.34782-8.68175-11.68211-12.0679-18.08408-1.98542-3.75376-3.83956-7.60029-5.61872-11.45543a.17007.17007,0,0,0-.1064-.09024.91259.91259,0,0,0,.1595-.10659c5.19054-5.23382,10.381-10.48132,15.05515-16.18679a.26473.26473,0,0,0-.37465-.37363c-5.66567,4.72021-10.86888,9.95332-16.0584,15.18625a.98108.98108,0,0,0,.93673,1.62074.156.156,0,0,0-.00717.11166c2.85632,7.23781,5.54655,14.554,9.5484,21.26358a52.93167,52.93167,0,0,0,14.03413,15.75062c1.76636,1.28925,7.93811,5.40384,10.52333,5.10378,1.9789-.22965,5.10771-1.65642,7.09238-2.66526a39.45609,39.45609,0,0,0,6.03861-3.82346A48.4633,48.4633,0,0,0,294.644,234.35043c6.35033-8.949,9.47469-19.807,10.96939-30.563A190.075,190.075,0,0,0,306.97,183.94175C306.98516,183.48878,306.297,183.496,306.27041,183.9427Z" transform="translate(-103.07136 -83.8432)"/><path class="cls-7" d="M277.55743,208.79553q1.50261-4.01852,2.84447-8.09121c1.75894-5.34288,3.27348-10.77333,4.625-16.23261.77577-3.13375,1.4229-6.28613,2.0936-9.44269a.27374.27374,0,0,0-.53661-.10684c-2.91411,10.90976-6.61838,21.63746-10.55832,32.2137q-.80938,2.173-1.65476,4.33226c-.48757,1.24559-1.117,2.52851-1.49971,3.83322-3.08787-3.69241-6.17377-7.38692-9.31437-11.03479q-2.47967-2.88024-4.96335-5.75718c-1.69761-1.96458-3.5037-3.82435-5.21189-5.77582-.30056-.34327-.89838.168-.613.52768,1.58449,1.99741,3.0603,4.075,4.65931,6.0644q2.40059,2.9866,4.80835,5.96757c3.20326,3.95578,6.45622,7.87062,9.70859,11.786a.988.988,0,0,0,.55473.839l.01433.008c.88806,1.76649,1.78062,3.53063,2.66056,5.30168a41.43742,41.43742,0,0,1,2.5173,5.71447.24679.24679,0,0,0,.4688-.15348c-.52565-2.08232-.90346-4.19994-1.53259-6.2566-.28288-.92462-.6169-1.841-.98425-2.74447a37.283,37.283,0,0,1,4.44093,3.42063,30.63808,30.63808,0,0,1,6.036,7.13015c.19417.33389.66918.00925.49638-.32268a36.10407,36.10407,0,0,0-5.42577-8.05522,30.20757,30.20757,0,0,0-6.77141-5.41264,22.52965,22.52965,0,0,0,1.62682-3.80275Q276.8169,210.77627,277.55743,208.79553Z" transform="translate(-103.07136 -83.8432)"/><path class="cls-7" d="M210.05273,231.93954a28.80536,28.80536,0,0,0-1.68816-4.49278,44.75916,44.75916,0,0,0-2.158-4.29366,38.40543,38.40543,0,0,0-2.55734-3.93424c-.97469-1.30281-2.10032-2.44638-3.19516-3.64292-.35632-.38947-.89047.17636-.56994.57147a42.83981,42.83981,0,0,1,2.6247,3.8625c.82412,1.28076,1.60325,2.58389,2.31261,3.9322a42.62919,42.62919,0,0,1,1.87789,4.05191c.58027,1.45547.98134,2.961,1.5061,4.43264A.95584.95584,0,0,0,210.05273,231.93954Z" transform="translate(-103.07136 -83.8432)"/><path class="cls-7" d="M201.712,223.894c-.23275-.90428-.46532-1.79881-.76107-2.68509q-.213-.63838-.44466-1.27037a2.1225,2.1225,0,0,0-.827-1.30465.72922.72922,0,0,0-1.0544.44631,2.0343,2.0343,0,0,0,.303,1.39939c.19663.43794.38757.87881.56918,1.32322.3403.83217.68763,1.66674.98546,2.51507a41.51941,41.51941,0,0,1,1.59451,5.3603c.08865.43193.71259.24689.65042-.17154A54.39933,54.39933,0,0,0,201.712,223.894Z" transform="translate(-103.07136 -83.8432)"/><path class="cls-7" d="M185.49964,197.68882c-2.46742,1.97339-4.64708,4.27471-7.00449,6.37636-1.164,1.03768-2.291,2.10013-3.38583,3.21018-1.14851,1.16441-3.55452,3.22817-4.44195,4.61171-.64973,1.01271.69421,2.41483,1.71446,1.70978a40.27536,40.27536,0,0,0,4.77262-4.28213c1.10459-1.16575,2.15595-2.36559,3.18374-3.59977,2.0341-2.44239,4.265-4.71362,6.16662-7.26278C186.96937,197.82943,186.00862,197.28179,185.49964,197.68882Z" transform="translate(-103.07136 -83.8432)"/><path class="cls-7" d="M175.8804,213.99582c-1.10991,1.85964,1.73195,6.09343,3.517,5.57031C182.34225,218.703,177.6742,210.99027,175.8804,213.99582Z" transform="translate(-103.07136 -83.8432)"/><path class="cls-3" d="M269.14291,467.59127l-3.50675-16.2335c-4.60816.30132-5.79393,6.87439-11.02084,7.18027-5.22685.30595-9.24454-7.14865-12.54279-7.14782-4.78092,7.91846-26.95746,10.925-29.29966,17.50519C220.58322,473.072,264.69608,471.742,269.14291,467.59127Z" transform="translate(-103.07136 -83.8432)"/><path class="cls-7" d="M246.15752,271.32046c-1.67607-.06654-3.32906-.04138-4.99384-.23421-1.6073-.1929-3.20333-.47768-4.78795-.81988-1.22866-.27375-2.4344-.58211-3.6402-.93628.19372-1.05631.376-2.10121.56963-3.14611,1.25187.48041,2.51527.91487,3.78994,1.31486,1.55034.48008,3.12355.87963,4.70823,1.2563,1.51574.35379,2.99719.78793,4.54721,1.02684C247.23461,269.91847,247.01845,271.34226,246.15752,271.32046Z" transform="translate(-103.07136 -83.8432)"/><path class="cls-12" d="M247.24513,146.34531c.70955,3.98575-1.19433,7.65833-4.25261,8.20274-3.05815.54447-6.11256-2.24537-6.82217-6.23112-.70955-3.98588,1.19433-7.6584,4.25254-8.20287S246.53551,142.35943,247.24513,146.34531Z" transform="translate(-103.07136 -83.8432)"/><ellipse class="cls-12" cx="259.15338" cy="145.5527" rx="5.62441" ry="7.33049" transform="translate(-124.57113 -36.1673) rotate(-10.09457)"/><path class="cls-12" d="M246.72429,144.518a11.18084,11.18084,0,0,1,6.74334.35993" transform="translate(-103.07136 -83.8432)"/><line class="cls-12" x1="161.6194" y1="60.7237" x2="169.75206" y2="57.10137"/></g></svg>