<svg id="OBJECTS" xmlns="http://www.w3.org/2000/svg" xmlns:xlink="http://www.w3.org/1999/xlink" viewBox="0 0 312.24076 390.1052"><defs><style>.cls-1,.cls-13{fill:none;}.cls-2{fill:#f7f7f7;}.cls-3{clip-path:url(#clip-path);}.cls-4{fill:#263238;}.cls-5{fill:#ebebeb;}.cls-6{fill:#38474f;}.cls-7{fill:#a6cce4;}.cls-8{fill:#dbdbdb;}.cls-9{fill:#ac635b;}.cls-10{fill:#824645;}.cls-11{fill:#90b9d1;}.cls-12{fill:#fff;}.cls-13{stroke:#ebebeb;stroke-miterlimit:10;}</style><clipPath id="clip-path" transform="translate(-103.07136 -83.8432)"><rect class="cls-1" x="81.4478" y="61.72582" width="360.20466" height="426.84493" transform="translate(-0.37856 0.36035) rotate(-0.07888)"/></clipPath></defs><path class="cls-2" d="M158.76509,370.9391c-35.33559-26.5543-58.203-70.4271-55.47339-114.5439,2.812-45.4479,31.083-85.7081,64.56849-116.565,20.7992-19.1666,44.2589-35.9092,70.6622-46.0497,26.4032-10.1406,55.9779-13.3556,83.20861-5.7103,35.32149,9.9168,64.20029,37.7821,79.34869,71.1959,15.1484,33.4137,17.3822,71.7787,10.5696,107.8278-5.66829,29.9935-17.6641,59.1852-37.394,82.4764C319.844,413.8031,225.466,421.0639,158.76509,370.9391Z" transform="translate(-103.07136 -83.8432)"/><g class="cls-3"><path class="cls-4" d="M340.01869,473.7714l27.687-.038a43.75546,43.75546,0,0,0-2.0498-6.5976l-28.2051-3.1553C338.56589,472.2836,340.01869,473.7714,340.01869,473.7714Z" transform="translate(-103.07136 -83.8432)"/><path class="cls-5" d="M365.65539,467.138c-.6109,1.438-14.8939,4.5539-25.0357-.9905a19.33844,19.33844,0,0,1-3.1733-2.1621c-.2029-1.5108-.4063-3.4973-.674-5.9485-.1497-1.3736-.3103-2.9057-.4817-4.5751-.1178-1.0777-.2462-2.2189-.3746-3.4128-.3533-3.2966-.77809-4.8177-1.2805-8.9594-.8657-7.0896-4.3885-17.5678-5.8385-26.8229l16.1477-7.3138c.2751,15.5761,1.0753,21.1652,3.4209,28.5486,1.2524,3.9506,3.8797,8.7024,6.7712,13.4854,2.5738,4.2658,5.3695,8.5734,7.5834,12.3747a.01028.01028,0,0,1,.0105.0105c.2013.3274.3814.6442.5615.961A27.66849,27.66849,0,0,1,365.65539,467.138Z" transform="translate(-103.07136 -83.8432)"/><path class="cls-4" d="M365.65539,467.138c-.3847,2.9705-14.81139,6.7291-24.9533,1.1846-1.12109-.6114-2.2612-3.5037-3.2557-4.3372-.2029-1.5108-.4063-3.4973-.674-5.9485-.1497-1.3736-.3103-2.9057-.4817-4.5751a14.89955,14.89955,0,0,0,3.6267,1.5327c1.1348-5.3316,2.9071-6.9734,9.3844-7.331,2.5994-.141,4.2164-.0481,5.8351,1.3234,1.9573,1.6564,3.91711,5.1728,7.5834,12.3747a.01028.01028,0,0,1,.0105.0105Q364.03414,463.9224,365.65539,467.138Z" transform="translate(-103.07136 -83.8432)"/><polygon class="cls-4" points="166.07 383.744 166.937 390.025 108.477 390.105 109.702 385.052 166.07 383.744"/><path class="cls-5" d="M269.14289,467.5913s-17.6113,1.3065-33.6783,1.7781c-9.3268.2648-17.2914.3757-21.8409-.3524a124.66113,124.66113,0,0,0,15.4088-6.489c13.367-6.3958,17.9012-11.0247,16.4728-21.9904-1.1078-8.5037-3.4676-21.1998-3.4676-21.1998l19.5714-2.526s1.4102,13.3368,2.422,23.7914C264.71319,447.6499,268.10909,465.0998,269.14289,467.5913Z" transform="translate(-103.07136 -83.8432)"/><path class="cls-4" d="M245.35329,249.7926c-2.6144,12.0721-4.6632,18.4718-7.8507,39.8943l65.8856-.0907c-.1716-22.2629-3.187-36.3235-3.187-36.3235Z" transform="translate(-103.07136 -83.8432)"/><path class="cls-4" d="M264.36029,275.5606c2.3552,19.9175,42.00171,124.9684,52.83,163.7096,11.5864,2.3133,31.04871-4.3116,31.04871-4.3116-4.92161-69.094-21.06641-80.9917-22.52481-88.6903-1.4586-7.6987-12.5286-64.6532-25.4287-93.9197Z" transform="translate(-103.07136 -83.8432)"/><path class="cls-4" d="M245.35329,249.7926c-12.2085,23.3833-10.1728,84.8803-9.17529,116.1935.99739,31.3131,5.49479,74.0181,5.49479,74.0181s14.79321,5.2947,28.0195.9599c1.5906-68.8766,4.1213-155.4695,4.1213-155.4695Z" transform="translate(-103.07136 -83.8432)"/><path class="cls-6" d="M267.22649,273.0641l-.0067.004-.0007.0002.0075-.0045Z" transform="translate(-103.07136 -83.8432)"/><path class="cls-6" d="M239.15839,271.5198a19.23313,19.23313,0,0,0,6.2571-6.3029,18.893,18.893,0,0,0,2.493-6.2796c1.203-.0416,2.4088-.124,3.5787-.1475,2.23-.0448,4.4604-.0823,6.6903-.1353.889-.0213,1.778-.0508,2.6671-.0732a80.63678,80.63678,0,0,0,1.6242,9.7216.66334.66334,0,0,0,.3068.4193,1.58215,1.58215,0,0,0,.939,1.5086,2.3851,2.3851,0,0,0,2.05741-.0889c1.27129-.637,1.46539-2.1331,1.31269-3.402-.3342-2.7776-.7659-5.5408-1.2505-8.2955,1.908-.0503,3.816-.0983,5.7236-.157q2.06745-.0636,4.1348-.128a1.22451,1.22451,0,0,0-.2168.783,34.96046,34.96046,0,0,0,1.5571,6.4372q.8028,3.0213,1.6053,6.0424,1.643,6.14775,3.6053,12.2115c2.6351,8.1586,4.8624,16.4091,7.19251,24.6587a.44864.44864,0,0,0,.86709-.2287c-2.0259-8.3297-4.1418-16.6101-5.8576-25.0106q-1.2735-6.23505-2.8631-12.4073-.78165-3.0264-1.5721-6.0511a35.01429,35.01429,0,0,0-1.8109-6.3754,1.2932,1.2932,0,0,0-.0822-.1348q5.5653-.17325,11.1294-.3734a1.93491,1.93491,0,0,0,.1496,1.1958,23.40471,23.40471,0,0,0,5.7081,7.6069,23.67054,23.67054,0,0,0,8.3805,4.647,1.13191,1.13191,0,0,0,1.3676-.8018,1.15609,1.15609,0,0,0-.8019-1.3676,22.04451,22.04451,0,0,1-11.782-11.3948q3.1365-.12735,6.2727-.2786a1.07243,1.07243,0,0,0-.0029-2.1436c-9.0698-.1415-18.1374-.0867-27.2079-.0603q-6.6903.0195-13.3806.0848c-2.2302.0242-4.4604.0606-6.6903.091a54.41252,54.41252,0,0,0-7.1221.2187,1.68238,1.68238,0,0,0-1.2401,1.8644,1.73371,1.73371,0,0,0,1.6766,1.484c.3656.0413.7398.0505,1.11211.0671a18.65315,18.65315,0,0,1-2.55671,4.8865,18.28469,18.28469,0,0,1-5.594,4.86A1.64063,1.64063,0,0,0,239.15839,271.5198Zm23.5182-12.9888c.5488-.0144,1.0975-.0308,1.6463-.0452.0656,2.0606.1616,4.1171.3118,6.1739q.06225.8511.1242,1.7023a4.49309,4.49309,0,0,1,.0225,1.2663c.0049-.0215-.0585.1887-.0887.2798.075-.0444.0669-.0396-.0001.0004l-.0009.0024-.0059.0015-.0016.0009.0001-.0002.0009-.0005-.0138.0037-.0109-.002c-.0967-.0437-.1907-.0934-.2872-.1367a1.30955,1.30955,0,0,0-.49229-.1132A82.81706,82.81706,0,0,0,262.67659,258.531Z" transform="translate(-103.07136 -83.8432)"/><path class="cls-6" d="M251.85749,283.4456c.0842-3.5144.33351-7.0385.56351-10.5459q.17444-2.66355.34909-5.327a15.20045,15.20045,0,0,1,.8378-5.3203,1.18922,1.18922,0,0,1,2.1772.1209,14.9636,14.9636,0,0,1,.0408,5.312q-.23625,2.6523-.4723,5.3044c-.32,3.5935-.5674,7.2361-1.0909,10.8066-.5136,3.5038-1.0111,7-1.4345,10.5186-.4404,3.66-1.011,7.3156-1.325,10.9881-.0131.1537-.2446.1074-.2343-.043C251.76959,298.0104,251.68379,290.7042,251.85749,283.4456Z" transform="translate(-103.07136 -83.8432)"/><path class="cls-6" d="M303.009,353.7181c-2.08521-6.919-3.93011-13.9074-6.03231-20.8219-.0505-.1662.19931-.2261.2575-.0678,2.2206,6.0479,4.6206,12.0265,6.9051,18.05,2.2795,6.0105,4.3459,12.0964,6.44371,18.1719,4.16619,12.0669,8.32539,24.1367,12.31469,36.2635,2.1245,6.4582,4.3475,12.8933,6.3956,19.3767.2278-.0217.4553-.0484.683-.0691,2.4403-.222,4.8748-.3377,7.3234-.42,2.5185-.0846,5.0334.0552,7.5459-.0293.7018-.0236.8762,1.1114.1616,1.2402-2.3901.4308-4.734,1.0803-7.1297,1.5123-2.4792.4469-4.9514.8655-7.4524,1.1703-2.4373.2972-4.8812.5392-7.3229.797-2.40519.2541-5.0359.8102-7.4163.1816a1.25341,1.25341,0,0,1-.30089-2.2777c2.132-1.0827,4.70589-1.13,7.04659-1.3812,1.3875-.1488,2.7751-.3026,4.163-.4514-4.1149-11.5424-7.961-23.2068-11.78859-34.8451C310.82279,378.007,306.68779,365.926,303.009,353.7181Z" transform="translate(-103.07136 -83.8432)"/><path class="cls-6" d="M243.64339,429.5858a6.87307,6.87307,0,0,1,2.9318.1691c.497.0804.995.1515,1.492.2294q-.26879-20.8113-.4709-41.623c-.1352-14.141-.3696-28.2957-.203-42.4371.0473-4.0209.0856-8.0413.1776-12.0614.0919-4.0198.3136-8.0414.304-12.0616a.39953.39953,0,0,1,.7986-.0011c.1546,7.1456.7091,14.2948.9648,21.4407.2503,6.9961.3894,13.9954.51571,20.9947q.38308,21.2175.66039,42.4365c.1143,7.9118.1835,15.8242.2701,23.7363,1.35051.1718,2.7018.3342,4.0584.4619a72.81429,72.81429,0,0,0,11.6347.4032.67529.67529,0,0,1,.17241,1.3229,69.00716,69.00716,0,0,1-12.01851,1.3712,45.46971,45.46971,0,0,1-6.0282-.3766c-1.8926-.2472-4.3954-.3103-5.9266-1.529A1.4893,1.4893,0,0,1,243.64339,429.5858Z" transform="translate(-103.07136 -83.8432)"/><path class="cls-5" d="M296.62609,163.4181c-10.9604-2.4906-29.1554,5.0036-29.1554,5.0036s-22.52769,5.9972-29.9124,10.8622c-7.3848,4.865,2.9911,51.8866,3.0565,68.6433l61.273,1.7875C306.171,212.0925,315.15009,167.6273,296.62609,163.4181Z" transform="translate(-103.07136 -83.8432)"/><path class="cls-7" d="M258.27089,250.6123s-.0357-31.1811.6402-42.0732c.87191-14.0501,2.3143-29.5143,2.3143-29.5143l13.1805-1.0087c-3.8064,13.4249-6.053,73.2358-6.053,73.2358Z" transform="translate(-103.07136 -83.8432)"/><path class="cls-5" d="M258.95739,238.3805s-2.7087,50.363-4.164,60.5586c-1.4438,10.1955-5.9876,11.5678-27.03139,1.5295,1.44349-10.3907,3.18519-21.0573,4.97349-31.1385.1938-1.0563.376-2.1012.5697-3.1461,4.9215-27.2355,9.9877-49.4663,9.9877-49.4663Z" transform="translate(-103.07136 -83.8432)"/><path class="cls-5" d="M265.12349,231.9035s9.685,62.4477,16.1314,73.4934c6.4463,11.0456,44.6145-6.5587,44.6145-6.5587-6.6372-30.6748-27.4473-97.7443-27.4473-97.7443Z" transform="translate(-103.07136 -83.8432)"/><path class="cls-8" d="M321.36969,292.1104q-1.15665.474-2.3148.9369c-.9491-4.3656-2.1846-8.6865-3.2942-12.995-1.5169-5.8905-3.0606-11.7776-4.7336-17.6258q-2.5104-8.7762-4.907-17.5799c-1.5875-5.8792-3.4339-11.6756-5.0719-17.5367a.24231.24231,0,0,0-.4683.1236c1.3972,5.9251,2.5809,11.8943,4.03111,17.8109,1.449,5.9119,2.83489,11.8348,4.19579,17.7676,1.36021,5.9294,2.85221,11.8305,4.3694,17.7218,1.1342,4.4045,2.1566,8.8854,3.47581,13.257a106.37106,106.37106,0,0,1-15.22,4.7667c-6.10841,1.3556-12.79521,2.8695-18.85941.7453a.77887.77887,0,0,0-.865,1.1283c1.7805,2.7825,5.1878,3.0654,8.1885,2.874a67.52786,67.52786,0,0,0,10.9612-1.7683,81.041,81.041,0,0,0,16.4672-5.6132q.36285,1.10145.7587,2.1902a.96935.96935,0,0,0,1.8734-.494c-.1439-.9264-.3127-1.8496-.4918-2.7713.9188-.4843,1.8258-.9871,2.7129-1.5194C323.10669,292.9717,322.313,291.7239,321.36969,292.1104Z" transform="translate(-103.07136 -83.8432)"/><path class="cls-8" d="M250.77789,296.8565a37.32076,37.32076,0,0,1-13.8892-2.6514c-.6981-.2902-1.3844-.6113-2.0583-.9539a13.60388,13.60388,0,0,0-2.3817-1.1654,1.4731,1.4731,0,0,0-1.4011,2.4499c1.2001,1.1788,3.1843,1.8134,4.7288,2.4139a27.6658,27.6658,0,0,0,4.9732,1.4635,29.273,29.273,0,0,0,10.2513.1546C251.99449,298.4014,251.74109,296.8614,250.77789,296.8565Z" transform="translate(-103.07136 -83.8432)"/><path class="cls-8" d="M303.75389,264.6553c-1.5563-.7891-3.5851.4127-5.093.9316-1.56489.5386-3.1443,1.0496-4.7267,1.5345-1.58019.4843-3.1796.9095-4.7769,1.3335a46.40392,46.40392,0,0,1-5.1371,1.2408c-.8923.1306-.6966,1.6389.2047,1.5705,1.7533-.1331,3.5117-.0955,5.2627-.2776,1.7652-.1836,3.5089-.4753,5.24741-.83a48.30947,48.30947,0,0,0,5.14239-1.3466c1.6172-.5199,3.8513-.9312,4.5055-2.6704A1.32617,1.32617,0,0,0,303.75389,264.6553Z" transform="translate(-103.07136 -83.8432)"/><polygon class="cls-7" points="165.127 68.63 178.069 72.459 182.333 79.571 156.597 86.847 153.821 78.373 165.127 68.63"/><path class="cls-5" d="M213.25039,241.7773c7.755-5.9951,39.4728-26.9489,43.4977-49.1233,2.9631-16.3252-9.1737-22.5251-21.45609-11.6178-12.28241,10.9072-41.11191,38.1751-41.11191,38.1751Z" transform="translate(-103.07136 -83.8432)"/><path class="cls-9" d="M173.07639,190.2003l8.5445,31.7269a18.75277,18.75277,0,0,0,26.3277,11.9785l2.1397-1.0435-29.1058-42.681Z" transform="translate(-103.07136 -83.8432)"/><path class="cls-10" d="M182.91109,178.1291l4.5615-9.4044a1.85539,1.85539,0,0,0-.7887-2.4427h0a1.85556,1.85556,0,0,0-2.1936.322l-6.8395,6.8497Z" transform="translate(-103.07136 -83.8432)"/><path class="cls-9" d="M183.643,178.1411c3.03489,12.246,2.04649,20.0525-8.11681,20.615l-4.7837-15.1407Z" transform="translate(-103.07136 -83.8432)"/><path class="cls-4" d="M205.062,159.5611l-10.48711-.2697-15.4395,11.209a1.55978,1.55978,0,1,0,1.9037,2.4702l14.054-11.692,9.9953-1.0365a.34146.34146,0,0,0-.02639-.681Z" transform="translate(-103.07136 -83.8432)"/><path class="cls-7" d="M203.62129,163.0054c-1.1068-1.6368-1.231-4.4814-.7599-6.3601.4545-1.813,2.3917-4.0155,4.1077-2.7358,1.2894.9617.2643,2.9833.3861,4.2862.1403,1.499,1.7197,3.0549.9507,4.5812A2.76828,2.76828,0,0,1,203.62129,163.0054Z" transform="translate(-103.07136 -83.8432)"/><path class="cls-11" d="M204.42129,160.1852a5.14865,5.14865,0,0,1-.6044-1.1184,3.459,3.459,0,0,1-.2611-1.2403,5.77853,5.77853,0,0,1,.1599-1.3491c.0351-.1459-.1872-.2508-.2538-.1029a4.03053,4.03053,0,0,0-.3503,1.344c-.0203.2419-.00059.4823-.0091.7241a4.4403,4.4403,0,0,0,.03.7672,4.73648,4.73648,0,0,0,.4221,1.4274,5.91142,5.91142,0,0,0,.3511.6295c.2134.3294.4499.5912.8761.5143a.49791.49791,0,0,0,.3616-.3626C205.26679,160.877,204.69069,160.5775,204.42129,160.1852Z" transform="translate(-103.07136 -83.8432)"/><path class="cls-11" d="M206.66029,162.0885a.42838.42838,0,0,0-.0781-.1509l-.003-.0097-.0046-.0049c-.008-.0105-.009-.025-.018-.0349a.44051.44051,0,0,0-.0849-.0774c-.0179-.0159-.0278-.0398-.0485-.0529-.00619-.0056-.0155-.006-.0219-.0113-.0062-.0036-.0089-.0106-.0154-.0139l-.0556-.0226a.42315.42315,0,0,0-.1078-.0554l-.1467-.0187a.579.579,0,0,0-.2856.0757l-.1231.0943a.57493.57493,0,0,0-.1503.2624l-.0191.0968a.64679.64679,0,0,0,.0571.4322l.0943.1232a.436.436,0,0,0,.19291.1221.28951.28951,0,0,0,.14289.0374.43736.43736,0,0,0,.22-.0097l.1388-.0566a.58352.58352,0,0,0,.2172-.2178l.0436-.075a.64624.64624,0,0,0,.0558-.4324Z" transform="translate(-103.07136 -83.8432)"/><path class="cls-6" d="M204.39659,158.0737l-10.4907-.0032-15.1498,11.5974a1.55979,1.55979,0,1,0,1.9658,2.4211l13.7526-12.0452,9.9658-1.2899a.34151.34151,0,0,0-.0437-.6802Z" transform="translate(-103.07136 -83.8432)"/><path class="cls-9" d="M184.86529,163.5975l-8.3049,1.4871a2.47638,2.47638,0,0,0-1.7617,1.2975l-4.4095,11.9668a6.17214,6.17214,0,0,0-.0261,4.1961l5.7004,16.0828c.4489-2.1357,5.2016-2.7797,6.53951-8.2118,1.89319-5.7019-3.34411-16.6672-3.34411-16.6672l.2827-4.6585,6.24641-2.5608a1.545,1.545,0,0,0,.91439-1.7932A1.58308,1.58308,0,0,0,184.86529,163.5975Z" transform="translate(-103.07136 -83.8432)"/><path class="cls-9" d="M178.937,172.1996c4.37559-.0715,6.31249,2.3672,5.11739,4.6515,1.0101,2.3379.4768,3.8838-1.2855,5.1431a2.46467,2.46467,0,0,1,2.8153,3.5727c-.6906,1.2713-5.5107,4.0351-5.5107,4.0351l-6.8566-11.6939Z" transform="translate(-103.07136 -83.8432)"/><path class="cls-10" d="M177.88579,172.2832a3.39677,3.39677,0,0,0-1.5494.1696,5.71731,5.71731,0,0,0-1.4606.7603,11.14228,11.14228,0,0,0-2.3752,2.1468c-.1188.1491.132.3543.2611.2133a7.855,7.855,0,0,1,2.4236-1.8617c.4453-.206.9068-.3829,1.36071-.5687a13.9142,13.9142,0,0,0,1.39119-.6443A.11538.11538,0,0,0,177.88579,172.2832Z" transform="translate(-103.07136 -83.8432)"/><path class="cls-10" d="M182.70419,175.9816a4.62033,4.62033,0,0,1-.5763-.1082,4.53764,4.53764,0,0,0-.5188-.017,7.11208,7.11208,0,0,0-1.0427.1331,6.92068,6.92068,0,0,0-2.098.7109,7.50375,7.50375,0,0,0-2.9822,3.101.164.164,0,0,0,.2793.1715,7.58673,7.58673,0,0,1,3.0232-2.6735,9.04446,9.04446,0,0,1,1.8537-.7434,7.35854,7.35854,0,0,1,.9661-.1654c.1698-.0207.339-.0441.5092-.0598a2.1384,2.1384,0,0,1,.5437-.0703C182.87329,176.3029,182.90159,175.9708,182.70419,175.9816Z" transform="translate(-103.07136 -83.8432)"/><path class="cls-10" d="M182.03029,181.0641a1.47292,1.47292,0,0,0-.5122.0833,4.63368,4.63368,0,0,0-.5363.1919,3.73792,3.73792,0,0,0-.9104.5694,15.12146,15.12146,0,0,0-1.5949,1.4731.17023.17023,0,0,0,.2322.2487,11.02914,11.02914,0,0,1,1.7571-1.1703,8.12159,8.12159,0,0,0,.9219-.5538,3.01791,3.01791,0,0,0,.7608-.6256A.144.144,0,0,0,182.03029,181.0641Z" transform="translate(-103.07136 -83.8432)"/><path class="cls-10" d="M182.03159,188.3843a1.887,1.887,0,0,0-1.0491,1.7969c-.0001.9112.4816,1.7488.47851,2.6665a3.83345,3.83345,0,0,1-.65371,2.1217,3.53131,3.53131,0,0,1-.7418.7942c-.3127.2462-.7972.399-.963.7779a.43865.43865,0,0,0,.3386.6c.40791.0827.7994-.2721,1.0786-.5291a4.89642,4.89642,0,0,0,.74631-.8598,5.41343,5.41343,0,0,0,.87949-2.112,5.09989,5.09989,0,0,0-.2171-2.3698c-.2141-.7187-.599-1.9942.2751-2.4556C182.46159,188.6789,182.31309,188.266,182.03159,188.3843Z" transform="translate(-103.07136 -83.8432)"/><polygon class="cls-7" points="153.73 78.373 151.938 82.188 153.753 95.188 163.724 86.076 153.73 78.373"/><path class="cls-5" d="M213.25039,241.7773c-9.5033,7.1588-24.2062,4.9986-42.7667-29.4215l15.3875-15.1264,26.6506,35.8023Z" transform="translate(-103.07136 -83.8432)"/><path class="cls-4" d="M269.81689,118.5855c-6.5492-5.9667-12.8101-10.4383-20.4252-4.3803-7.615,6.058-9.1931,7.0544-9.1931,7.0544s-5.6739,9.8748.86841,18.3783Z" transform="translate(-103.07136 -83.8432)"/><path class="cls-4" d="M261.88939,118.7049c17.0359-7.5915,28.2201,11.7228,15.8313,29.622Z" transform="translate(-103.07136 -83.8432)"/><path class="cls-9" d="M278.97849,169.7067c.0062,4.4998-12.1663,12.2959-12.1663,12.2959s-4.7455-6.0739-5.5784-10.7333l-3.7916-19.1995,19.8706-8.235,1.642,25.2865C278.96649,169.3164,278.97819,169.5115,278.97849,169.7067Z" transform="translate(-103.07136 -83.8432)"/><path class="cls-4" d="M274.36919,151.3494c.0115,8.3522-5.2676,16.3413-13.8398,16.3531l-2.5559-12.4808-.1542-1.5537Z" transform="translate(-103.07136 -83.8432)"/><path class="cls-9" d="M242.59789,154.7077c2.5043,4.6864,6.834,8.5969,12.0276,9.6699,7.197,1.5011,14.5698-2.6703,19.1317-8.4359a27.597,27.597,0,0,0,5.2959-11.3266c1.9412-8.8909-.5302-18.4862-8.9073-23.6194-5.7311-3.5141-15.80479-4.097-22.7517-.7351a13.22487,13.22487,0,0,0-6.288,5.8293C236.94219,134.3433,238.35989,146.791,242.59789,154.7077Z" transform="translate(-103.07136 -83.8432)"/><path class="cls-9" d="M279.56849,136.2171c2.1688-1.1877,5.12951-1.4048,7.107.058a6.78184,6.78184,0,0,1,2.373,5.2532,11.11987,11.11987,0,0,1-2.0292,7.1917,9.23809,9.23809,0,0,1-6.7391,3.7249,7.38792,7.38792,0,0,1-6.7761-3.3889C271.08489,144.7598,275.67119,138.3512,279.56849,136.2171Z" transform="translate(-103.07136 -83.8432)"/><path class="cls-4" d="M244.84409,121.1955c4.4792,3.8507,14.8432,5.5639,20.6897,4.7207.8968,2.9076,4.02,6.2842,5.8301,6.8952a69.28329,69.28329,0,0,0,2.7775,12.0381c2.1919-2.022,5.6992-8.8616,5.6992-8.8616C278.44019,119.692,257.32159,111.6898,244.84409,121.1955Z" transform="translate(-103.07136 -83.8432)"/><path class="cls-4" d="M280.61579,141.9912c-1.8243,1.391-2.5967,3.9398-1.0906,4.3867.8331.2471,1.1475-.8425,1.5464-2.0011.89841-2.6085,2.6097-2.8199,2.63341-3.1978C283.73029,140.7732,282.24379,140.7499,280.61579,141.9912Z" transform="translate(-103.07136 -83.8432)"/><path class="cls-4" d="M242.93729,144.5684c-.0995,1.1193.4695,2.115,1.2711,2.2246.8015.1092,1.532-.7095,1.6315-1.8287.0996-1.1192-.4697-2.1152-1.2712-2.2244C243.76729,142.6305,243.03679,143.4493,242.93729,144.5684Z" transform="translate(-103.07136 -83.8432)"/><path class="cls-4" d="M248.03859,149.2362c.6098-2.7822,1.3609-5.511,2.1403-8.2469.0755-.2655.486-.2038.43011.0773-.45191,2.273-.92331,4.5203-1.47771,6.7728a9.45972,9.45972,0,0,0-.5424,3.4225,2.80058,2.80058,0,0,0,1.6572,1.9785.28236.28236,0,0,1-.0267.5161,1.85535,1.85535,0,0,1-2.0763-1.0976A5.289,5.289,0,0,1,248.03859,149.2362Z" transform="translate(-103.07136 -83.8432)"/><path class="cls-4" d="M266.503,135.4842c-.70541-2.0923-6.55371-2.308-7.67921-.3949C256.86889,138.4125,267.71639,139.0829,266.503,135.4842Z" transform="translate(-103.07136 -83.8432)"/><path class="cls-4" d="M245.19259,135.4636c-.7309-1.77-5.804-1.62-6.6677.1003C237.02449,138.552,246.44969,138.5078,245.19259,135.4636Z" transform="translate(-103.07136 -83.8432)"/><path class="cls-4" d="M262.87789,145.4869a14.18868,14.18868,0,0,0-3.1358-.7602c-.445-.0686-.8938-.0936-1.3396-.1438a18.13677,18.13677,0,0,1,4.4087-1.9634.38156.38156,0,0,0-.1366-.7503c-2.1041.3746-5.0755,1.1501-6.56859,2.786a.854.854,0,0,0-.077.1071.49463.49463,0,0,0-.07921.1613.563.563,0,0,0-.02879.1006l-.00241.0084c-.0005.0065.0028.0131.0026.0195a.49991.49991,0,0,0,.08281.3344c.00969.0145.02829.0157.039.0291a.51887.51887,0,0,0,.22.1634.49819.49819,0,0,0,.14.0359c.00679.0003.01229.005.01929.005a61.75106,61.75106,0,0,1,6.3286.4787A.31632.31632,0,0,0,262.87789,145.4869Z" transform="translate(-103.07136 -83.8432)"/><path class="cls-4" d="M260.71389,153.4085a8.3734,8.3734,0,0,1-1.6123,1.7061,4.809,4.809,0,0,1-2.41759,1.0002c-.28341.0014-.28011.3904-.02431.4864a3.34582,3.34582,0,0,0,3.118-.4868,3.03178,3.03178,0,0,0,1.35631-2.5693A.24125.24125,0,0,0,260.71389,153.4085Z" transform="translate(-103.07136 -83.8432)"/><path class="cls-4" d="M252.03119,123.6717a8.29334,8.29334,0,0,1,.0084,3.0523,8.07156,8.07156,0,0,0,.0239,3.0513,3.41949,3.41949,0,0,0,2.1256,2.3605,2.23849,2.23849,0,0,1,.6507-1.6387c.3837-.4527.8761-.8405,1.29121-1.2754a4.82677,4.82677,0,0,0,1.25319-4.7782Z" transform="translate(-103.07136 -83.8432)"/><path class="cls-4" d="M248.02129,120.0733c-.8032-1.2347-2.5871-1.4456-3.98529-.9821a21.8165,21.8165,0,0,0-3.83741,2.1684,4.95536,4.95536,0,0,1-4.2085.6936,6.67247,6.67247,0,0,0,7.0797,4.411c2.4777-.4636,4.558-2.4498,7.0777-2.5186Z" transform="translate(-103.07136 -83.8432)"/><polygon class="cls-7" points="175.894 76.654 167.419 86.832 175.206 95.421 182.333 79.571 175.894 76.654"/><polygon class="cls-7" points="151.938 82.188 159.494 97.927 163.461 107.576 173.836 91.917 167.419 86.832 168.364 93.378 163.738 96.225 158.419 88.506 151.938 82.188"/><path class="cls-11" d="M270.02679,185.863a1.12757,1.12757,0,0,0-.2787-.7239q-.1059-.0852-.2119-.1703a.763.763,0,0,0-.369-.1248.50988.50988,0,0,0-.257-.0065.76261.76261,0,0,0-.3748.1061l-.2202.1594a1.00911,1.00911,0,0,0-.2754.4528c-.0381.1347-.0789.2683-.1207.4019a2.05158,2.05158,0,0,0-.04809.2005c-.007.0337-.01411.0674-.02051.1012a1.13621,1.13621,0,0,0-.01449.5735l.00189.0151.0075.0607.1018.2698a.84256.84256,0,0,0,.2913.3352.55282.55282,0,0,0,.24851.1511.833.833,0,0,0,.41329.1009l.2831-.0291.2698-.1018a.842.842,0,0,0,.3351-.2912.82808.82808,0,0,0,.2088-.3807A2.7457,2.7457,0,0,0,270.02679,185.863Z" transform="translate(-103.07136 -83.8432)"/><path class="cls-11" d="M268.89459,202.2064a1.07388,1.07388,0,0,0-1.0178-1.0704l-.2657.0273a1.03892,1.03892,0,0,0-.4803.2599l-.1755.2184a1.0443,1.0443,0,0,0-.1489.5122q-.03825.4134-.07639.8266a1.1312,1.1312,0,0,0,1.07189,1.1274l.2799-.0287a1.09525,1.09525,0,0,0,.5059-.2738l.1848-.23a1.0982,1.0982,0,0,0,.1569-.5396Z" transform="translate(-103.07136 -83.8432)"/><path class="cls-11" d="M266.18589,183.3731c-1.8076,16.5697-2.8962,33.274-3.1687,49.9401-.0768,4.6964-.1033,9.4101.0381,14.1054a.94665.94665,0,0,0,1.8922-.0026c.0811-16.6707-.0242-33.3239.8404-49.9801q.3651-7.03455.8464-14.0633C266.65379,183.0804,266.21659,183.092,266.18589,183.3731Z" transform="translate(-103.07136 -83.8432)"/><path class="cls-9" d="M249.01579,187.388c10.7898,18.0784,38.10521,54.2876,38.10521,54.2876l-.477.0817c-17.21711,2.9497-29.74341-8.0705-35.02551-24.7207l-14.9832-25.1643Z" transform="translate(-103.07136 -83.8432)"/><path class="cls-9" d="M243.71829,178.3546c-.008-.01-1.8397-2.6394-3.32529-4.7721a4.33649,4.33649,0,0,0-4.96221-1.624l-6.88379,2.3543,2.74739,5.0162,4.74961-.8184Z" transform="translate(-103.07136 -83.8432)"/><path class="cls-9" d="M221.96978,173.27408h11.08035a2.33916,2.33916,0,0,1,2.33916,2.33916v.692a2.339,2.339,0,0,1-2.339,2.339H221.97a2.33906,2.33906,0,0,1-2.33906-2.33906V175.613a2.33889,2.33889,0,0,1,2.33889-2.33889Z" transform="translate(-103.69876 -83.02899) rotate(-0.20477)"/><rect class="cls-4" x="229.60799" y="167.17111" width="3.20111" height="23.31877" transform="matrix(0.96619, -0.25782, 0.25782, 0.96619, -141.36059, -18.18818)"/><path class="cls-9" d="M240.393,173.5825a77.013,77.013,0,0,1,8.62279,13.8055l-3.0037,7.12-17.34-9.5767-8.1198-6.04a3.07216,3.07216,0,0,1-.8818-4.0929h0a3.07225,3.07225,0,0,1,4.0034-1.1797l5.3304,2.4785Z" transform="translate(-103.07136 -83.8432)"/><path class="cls-9" d="M222.04709,179.0788a2.69542,2.69542,0,0,0-1.4914,2.6162,2.56581,2.56581,0,0,0,2.5814,2.4124,2.51784,2.51784,0,0,0-1.1195,2.428,3.00347,3.00347,0,0,0,1.8692,2.1184,2.23516,2.23516,0,0,0,.4893,2.8152,6.4355,6.4355,0,0,0,3.0635,1.3184,106.54622,106.54622,0,0,0,18.5725,1.7206Z" transform="translate(-103.07136 -83.8432)"/><path class="cls-7" d="M231.482,154.4047c1.75009,6.4756.39869,12.5984-2.98981,14.5573-3.9118.0223-8.1633-4.5863-9.9155-11.0696s-.4008-12.6061,2.9898-14.5573C225.48029,143.3204,229.73189,147.929,231.482,154.4047Z" transform="translate(-103.07136 -83.8432)"/><path class="cls-12" d="M225.70339,147.3735a1.41807,1.41807,0,0,0-.6085-.3681.529.529,0,0,0-.6056.2652.773.773,0,0,0,.0028.4365,29.1531,29.1531,0,0,0,1.995,6.1659c.2968.6567.74991,1.6648,1.546,1.8282a1.21206,1.21206,0,0,0,1.3233-1.0516c.35061-1.5033-.847-3.6762-1.625-4.8951A11.29071,11.29071,0,0,0,225.70339,147.3735Z" transform="translate(-103.07136 -83.8432)"/><path class="cls-12" d="M227.75489,157.9883a1.75537,1.75537,0,0,0,.402,1.42,1.50636,1.50636,0,0,0,1.7739.4659,1.37641,1.37641,0,0,0,.6-.6751,1.70619,1.70619,0,0,0-.1799-1.6481A1.41411,1.41411,0,0,0,227.75489,157.9883Z" transform="translate(-103.07136 -83.8432)"/><path class="cls-4" d="M222.69829,142.8732l-2.3499.6351c-4.2176,1.1398-6.0635,7.8644-4.1292,15.0213,1.9341,7.1568,6.916,12.0362,11.1336,10.8964l2.3499-.6351c4.2175-1.1397,6.0634-7.8645,4.1292-15.0213C231.89769,146.6127,226.91579,141.7333,222.69829,142.8732Zm5.7939,26.0888c-3.9118.0223-8.1633-4.5863-9.9155-11.0696s-.4008-12.6061,2.9898-14.5573c3.9138-.0147,8.1654,4.5939,9.91551,11.0696C233.23209,160.8803,231.88069,167.0031,228.49219,168.962Z" transform="translate(-103.07136 -83.8432)"/><path class="cls-4" d="M234.95389,174.5042a2.8538,2.8538,0,0,0-1.1243.3026c-.427.158-.86059.2923-1.2965.4232a22.50441,22.50441,0,0,1-2.78409.6508,26.52626,26.52626,0,0,1-5.59361.4139c-.1072-.0056-.1535.1582-.0419.1911a13.39385,13.39385,0,0,0,5.7362.5506,15.66415,15.66415,0,0,0,2.78831-.6452,13.04642,13.04642,0,0,0,1.43679-.5774,2.69466,2.69466,0,0,0,1.1447-.7382A.36613.36613,0,0,0,234.95389,174.5042Z" transform="translate(-103.07136 -83.8432)"/><path class="cls-10" d="M229.93359,181.1582a8.91934,8.91934,0,0,0-1.7078-.0759,12.87568,12.87568,0,0,1-1.8277-.1541c-.581-.0916-1.1536-.2204-1.7325-.3222a9.14217,9.14217,0,0,1-1.7504-.4657c-.1944-.0756-.3201.2431-.1369.3381.5512.2858,1.09971.5804,1.6713.8245a7.67267,7.67267,0,0,0,1.8508.4959,14.26622,14.26622,0,0,0,1.8638.1673,4.21743,4.21743,0,0,0,1.8423-.256A.30321.30321,0,0,0,229.93359,181.1582Z" transform="translate(-103.07136 -83.8432)"/><path class="cls-10" d="M227.53259,184.9713a2.40011,2.40011,0,0,0-.7113-.2489c-.2216-.0255-.4428-.0489-.6635-.082-.478-.0714-.9554-.1157-1.427-.2257a.18852.18852,0,0,0-.0951.3646,13.14215,13.14215,0,0,0,1.4017.4285c.23361.0493.469.0972.7053.1311a1.89551,1.89551,0,0,0,.7538-.0875A.154.154,0,0,0,227.53259,184.9713Z" transform="translate(-103.07136 -83.8432)"/><path class="cls-10" d="M226.12559,188.7346c-.0987-.0434-.1909-.0958-.2877-.1425a1.29453,1.29453,0,0,0-.4138-.0947c-.2397-.0304-.4884-.0244-.7299-.0342a.247.247,0,0,0-.0619.4854c.2383.0444.4772.0998.7176.1303a1.2114,1.2114,0,0,0,.4125.006c.1101-.0247.2169-.057.328-.0783A.14943.14943,0,0,0,226.12559,188.7346Z" transform="translate(-103.07136 -83.8432)"/><path class="cls-5" d="M287.121,241.6756c19.26569-17.8614,22.34509-59.2557,17.61569-70.2723-3.46069-8.0613-11.9573-7.3148-17.7018,7.763-5.7444,15.0778-8.2085,26.0584-19.1078,47.256Z" transform="translate(-103.07136 -83.8432)"/><path class="cls-5" d="M287.121,241.6756c-20.38481,21.6646-36.71691-2.568-50.464-34.0148l15.489-15.2294,23.49759,27.3565Z" transform="translate(-103.07136 -83.8432)"/><path class="cls-8" d="M242.04479,209.6285c-1.1099,1.8597,1.732,6.0934,3.517,5.5703C248.50669,214.3357,243.83859,206.623,242.04479,209.6285Z" transform="translate(-103.07136 -83.8432)"/><path class="cls-8" d="M306.27039,183.9427c-.3443,5.7692-.9457,11.5367-1.80339,17.2524a94.67368,94.67368,0,0,1-3.927,16.6563c-3.13161,9.137-8.34931,17.7506-15.788,24.0157a38.89921,38.89921,0,0,1-6.39691,4.3865,35.08662,35.08662,0,0,1-3.4409,1.6523c-1.207.4979-3.8713,1.5758-3.8713,1.5758a43.40821,43.40821,0,0,1-8.1863-4.2908,44.604,44.604,0,0,1-7.4257-6.5341c-4.93-5.3478-8.6818-11.6821-12.06789-18.0841-1.98541-3.7538-3.83961-7.6003-5.61871-11.4554a.17021.17021,0,0,0-.1064-.0903.91041.91041,0,0,0,.1595-.1066c5.1905-5.2338,10.381-10.4813,15.0551-16.1868a.2647.2647,0,0,0-.3746-.3736c-5.6657,4.7202-10.86889,9.9533-16.0584,15.1863a.98105.98105,0,0,0,.9367,1.6207.15633.15633,0,0,0-.00719.1117c2.85629,7.2378,5.54659,14.554,9.54839,21.2635a52.93249,52.93249,0,0,0,14.0341,15.7507c1.7664,1.2892,7.9382,5.4038,10.5234,5.1037,1.9789-.2296,5.1077-1.6564,7.0924-2.6652a39.45544,39.45544,0,0,0,6.0386-3.8235A48.46346,48.46346,0,0,0,294.644,234.3504c6.35029-8.949,9.47469-19.807,10.96939-30.563a190.06127,190.06127,0,0,0,1.3565-19.8457C306.98519,183.4888,306.297,183.496,306.27039,183.9427Z" transform="translate(-103.07136 -83.8432)"/><path class="cls-8" d="M277.55739,208.7955q1.5027-4.0185,2.8445-8.0912c1.7589-5.3429,3.2735-10.7733,4.625-16.2326.7757-3.1337,1.4229-6.2861,2.0936-9.4427a.27378.27378,0,0,0-.5367-.1068c-2.9141,10.9097-6.6183,21.6374-10.5583,32.2137q-.8094,2.173-1.6547,4.3322c-.4876,1.2456-1.117,2.5285-1.4997,3.8333-3.0879-3.6925-6.1738-7.387-9.3144-11.0348q-2.47965-2.8803-4.9634-5.7572c-1.6976-1.9646-3.5037-3.8244-5.2118-5.7758-.3006-.3433-.8984.168-.613.5277,1.58451,1.9974,3.0603,4.075,4.6593,6.0644q2.4006,2.9865,4.8083,5.9675c3.2033,3.9558,6.4563,7.8706,9.7086,11.7861a.98819.98819,0,0,0,.5548.839l.0143.008c.888,1.7665,1.7806,3.5306,2.6606,5.3017a41.42727,41.42727,0,0,1,2.5172,5.7145.24685.24685,0,0,0,.4689-.1535c-.5257-2.0823-.90349-4.1999-1.5326-6.2566-.28289-.9246-.61689-1.841-.9843-2.7445a37.28107,37.28107,0,0,1,4.4409,3.4206,30.64015,30.64015,0,0,1,6.0361,7.1302c.1941.3339.6691.0092.4963-.3227a36.10583,36.10583,0,0,0-5.4257-8.0552,30.20611,30.20611,0,0,0-6.7714-5.4126,22.53763,22.53763,0,0,0,1.6268-3.8028Q276.81684,210.77635,277.55739,208.7955Z" transform="translate(-103.07136 -83.8432)"/><path class="cls-8" d="M210.05269,231.9395a28.80382,28.80382,0,0,0-1.6881-4.4927,44.7521,44.7521,0,0,0-2.1581-4.2937,38.39016,38.39016,0,0,0-2.5573-3.9342c-.9747-1.3028-2.1003-2.4464-3.19519-3.643-.35631-.3894-.89041.1764-.56991.5715a42.86082,42.86082,0,0,1,2.6247,3.8625c.8241,1.2808,1.60321,2.5839,2.3126,3.9322a42.6413,42.6413,0,0,1,1.8779,4.0519c.5803,1.4555.9813,2.961,1.5061,4.4327A.95583.95583,0,0,0,210.05269,231.9395Z" transform="translate(-103.07136 -83.8432)"/><path class="cls-8" d="M201.712,223.894c-.23281-.9043-.46541-1.7989-.76111-2.6851q-.213-.6384-.4447-1.2704a2.12272,2.12272,0,0,0-.827-1.3047.72925.72925,0,0,0-1.0544.4463,2.03426,2.03426,0,0,0,.303,1.3994c.1966.438.3875.8788.56921,1.3233.34019.8321.68759,1.6667.98539,2.515a41.5233,41.5233,0,0,1,1.5945,5.3603c.0887.432.7126.2469.6504-.1715A54.391,54.391,0,0,0,201.712,223.894Z" transform="translate(-103.07136 -83.8432)"/><path class="cls-8" d="M185.49959,197.6888c-2.4674,1.9734-4.647,4.2747-7.0044,6.3764-1.164,1.0377-2.291,2.1001-3.3859,3.2102-1.1485,1.1644-3.5545,3.2281-4.4419,4.6117-.6498,1.0127.6942,2.4148,1.7144,1.7097a40.2562,40.2562,0,0,0,4.7726-4.2821c1.10461-1.1657,2.156-2.3656,3.1838-3.5998,2.0341-2.4423,4.265-4.7136,6.1666-7.2627C186.96939,197.8294,186.00859,197.2818,185.49959,197.6888Z" transform="translate(-103.07136 -83.8432)"/><path class="cls-8" d="M175.88039,213.9958c-1.1099,1.8597,1.732,6.0934,3.517,5.5703C182.34229,218.703,177.67419,210.9903,175.88039,213.9958Z" transform="translate(-103.07136 -83.8432)"/><path class="cls-4" d="M269.14289,467.5913l-3.5067-16.2335c-4.60819.3013-5.794,6.8744-11.0209,7.1802-5.2268.306-9.2445-7.1486-12.5428-7.1478-4.7809,7.9185-26.9574,10.925-29.2996,17.5052C220.58319,473.072,264.69609,471.742,269.14289,467.5913Z" transform="translate(-103.07136 -83.8432)"/><path class="cls-8" d="M246.15749,271.3205c-1.676-.0666-3.329-.0414-4.9938-.2343-1.6073-.1928-3.2033-.4776-4.788-.8198-1.2286-.2738-2.4344-.5821-3.6402-.9363.1938-1.0563.376-2.1012.5697-3.1461,1.25181.4804,2.5152.9148,3.7899,1.3148,1.5503.4801,3.1236.8797,4.7082,1.2563,1.5158.3538,2.9972.788,4.5472,1.0269C247.23459,269.9185,247.01849,271.3423,246.15749,271.3205Z" transform="translate(-103.07136 -83.8432)"/><path class="cls-13" d="M247.24509,146.3453c.7096,3.9858-1.1943,7.6583-4.2526,8.2028-3.0581.5444-6.11249-2.2454-6.8221-6.2312-.7096-3.9859,1.1943-7.6584,4.2525-8.2028C243.48109,139.5696,246.53549,142.3594,247.24509,146.3453Z" transform="translate(-103.07136 -83.8432)"/><path class="cls-13" d="M264.69079,144.5669c.7095,3.9858-1.1944,7.6583-4.2526,8.2028-3.05819.5444-6.1126-2.2454-6.82219-6.2312-.70961-3.9859,1.19429-7.6584,4.25249-8.2028C260.92669,137.7912,263.98109,140.581,264.69079,144.5669Z" transform="translate(-103.07136 -83.8432)"/><path class="cls-13" d="M246.72429,144.518a11.18041,11.18041,0,0,1,6.7433.3599" transform="translate(-103.07136 -83.8432)"/><line class="cls-13" x1="161.61944" y1="60.7237" x2="169.75204" y2="57.1014"/></g></svg>