<svg id="OBJECT" xmlns="http://www.w3.org/2000/svg" xmlns:xlink="http://www.w3.org/1999/xlink" viewBox="0 0 421.5726 391.63749"><defs><style>.cls-1,.cls-7{fill:none;}.cls-2{fill:#f7f7f7;}.cls-3{fill:#e4e4e4;}.cls-4{clip-path:url(#clip-path);}.cls-5{fill:#d85a3d;}.cls-6{fill:#5fba24;}.cls-7{stroke:#83db49;stroke-linecap:round;stroke-miterlimit:10;}.cls-8{fill:#e86e49;}.cls-9{fill:#84393b;}.cls-10{fill:#f78858;}.cls-11{fill:#e93e4d;}.cls-12,.cls-18{fill:#082228;}.cls-12{opacity:0.16;}.cls-13{fill:#ea6c51;}.cls-14{fill:#0f3842;}.cls-15{fill:#fff;}.cls-16{fill:#2574a5;}.cls-17{fill:#478e19;opacity:0.56;}.cls-19{fill:#dadada;}.cls-20,.cls-23{fill:#f74d56;}.cls-21{opacity:0.63;}.cls-22{opacity:0.35;}.cls-23{opacity:0.46;}</style><clipPath id="clip-path" transform="translate(-38.041 -51.79922)"><path class="cls-1" d="M420.9395,282.17421c-.0958.7423-.1996,1.4927-.3114,2.235-10.9918,75.3863-83.225,145.105-178.9744,126.2265-93.5703-18.4394-133.6103-70.5808-155.9213-146.0628q-1.12545-3.78375-2.1872-7.6552C61.6654,177.30872,98.3687,114.886,141.6095,96.53432c43.241-18.3517,91.2022-58.8978,125.7901-51.8412,0,0,55.2063,18.0254,56.8347,18.5043,13.4025,3.9593,13.6398,74.702,44.476,89.8048C403.2903,169.94092,430.8217,205.94182,420.9395,282.17421Z"/></clipPath></defs><path class="cls-2" d="M420.9395,282.17421c-.0958.7423-.1996,1.4927-.3114,2.235-10.9918,75.3863-83.225,145.105-178.9744,126.2265-93.5703-18.4394-133.6103-70.5808-155.9213-146.0628q-1.12545-3.78375-2.1872-7.6552C61.6654,177.30872,98.3687,114.886,141.6095,96.53432c43.241-18.3517,82.395,10.59268,116.9829,17.6492,0,0,.894.25548,2.5225.7344,13.4024,3.9593,76.7592,22.9815,107.5954,38.0843C403.2903,169.94092,430.8217,205.94182,420.9395,282.17421Z" transform="translate(-38.041 -51.79922)"/><path class="cls-3" d="M420.6281,284.40921c-10.9918,75.3863-83.225,145.105-178.9744,126.2265-93.5703-18.4394-133.6103-70.5808-155.9213-146.0628C159.6979,347.55041,342.5757,239.55581,420.6281,284.40921Z" transform="translate(-38.041 -51.79922)"/><g class="cls-4"><path class="cls-5" d="M154.0492,295.92811c-1.2917-3.1049-.616-8.0084,1.0781-7.8544s2.8797,2.2379,3.3882,5.2362C159.0239,296.30831,154.0492,295.92811,154.0492,295.92811Z" transform="translate(-38.041 -51.79922)"/><polygon class="cls-6" points="131.765 184.01 132.842 249.845 135.518 249.845 131.765 184.01"/><path class="cls-6" d="M192.2184,258.25081a31.91069,31.91069,0,0,1-5.7236,8.0063c-3.8793,3.7758-9.4192,6.2982-15.6136.3274,1.0218-3.5922,2.4347-6.17051,4.6697-7.759C178.8558,256.47861,183.9485,256.30311,192.2184,258.25081Z" transform="translate(-38.041 -51.79922)"/><path class="cls-7" d="M170.8825,266.58751c6.2104-6.92651,17.3778-7.0679,17.3778-7.0679" transform="translate(-38.041 -51.79922)"/><line class="cls-7" x1="143.5094" y1="208.74878" x2="148.6643" y2="210.26489"/><line class="cls-7" x1="140.4655" y1="209.50678" x2="142.4346" y2="207.15499"/><line class="cls-7" x1="137.274" y1="211.25439" x2="142.4346" y2="213.09199"/><path class="cls-6" d="M170.3065,262.06641s-9.3315,8.0543-18.3756,1.9078a14.60912,14.60912,0,0,1-6.2502-11.83,20.993,20.993,0,0,1,.5987-6.1944,95.74,95.74,0,0,0,12.1572,2.8258,17.4295,17.4295,0,0,1,6.8171,2.4586C168.3029,253.30961,169.7637,256.64631,170.3065,262.06641Z" transform="translate(-38.041 -51.79922)"/><path class="cls-7" d="M170.3077,262.06411c-4.2408-5.3717-13.7118-8.6229-17.8112-9.47111" transform="translate(-38.041 -51.79922)"/><line class="cls-7" x1="114.4555" y1="203.19689" x2="117.9986" y2="201.75499"/><line class="cls-7" x1="124.3063" y1="204.31799" x2="122.2302" y2="200.79378"/><line class="cls-7" x1="128.9772" y1="207.15499" x2="124.3063" y2="208.33089"/><path class="cls-5" d="M145.1168,293.44791c-1.2345-3.91.462-7.766,3.2342-4.8337,2.7721,2.9323,4.3122,8.6305,8.1624,9.5546,3.8501.924,17.7115,3.2515,17.7115,3.2515l11.3958,1.98469-4.3122,4.15821-21.253-1.294-12.1786-6.8538Z" transform="translate(-38.041 -51.79922)"/><path class="cls-8" d="M141.2666,296.62871c-1.848-2.9951-3.5421-6.9303-1.54-7.5463,0,0,3.3881-1.0781,5.0822,1.694,1.6941,2.7722,3.2534,7.81259,7.5464,9.2405,4.2929,1.4278,11.3965,1.54,11.3965,1.54s14.3227-.308,14.7847,0c.462.30809.924,6.6224.924,6.6224l-10.4725,3.0801s-16.3247-4.7441-17.7108-4.9902C149.891,306.02321,141.2666,296.62871,141.2666,296.62871Z" transform="translate(-38.041 -51.79922)"/><path class="cls-9" d="M190.5426,297.54841c-12.1104-13.1622-27.8018-7.261-33.3225-5.5961s-7.175,9.2966-7.175,9.2966,8.8865,8.1505,11.357,7.8223,17.2859-.6648,17.2859-.6648l9.5723-3.2012Z" transform="translate(-38.041 -51.79922)"/><path class="cls-10" d="M203.4856,300.94091c-12.0126-9.5484-21.407-7.5463-32.1875-6.0063-10.7806,1.5401-15.8628-1.386-17.2489.6161-1.386,2.0021-1.54,4.3122,1.3861,5.3902,2.9261,1.07809,7.0843,3.8502,10.3185,4.0042,3.2341.154,11.7045-.924,11.7045-.924s-8.0083,4.0041-13.5526,2.6181a63.38139,63.38139,0,0,1-13.8606-5.3903c-2.7722-1.54-7.3924-9.0704-10.6265-7.6153-3.2342,1.455-1.5401,2.8411,1.694,8.07739,3.2342,5.23621,10.1645,10.01041,15.0927,12.62851,4.9283,2.6182,12.3206,5.3903,15.4008,4.6203,3.0801-.7701,20.6369-2.9262,27.7213-.6161C206.4117,320.65381,203.4856,300.94091,203.4856,300.94091Z" transform="translate(-38.041 -51.79922)"/><path class="cls-11" d="M308.3196,179.47112l-23.2343-28.694-23.5617-23.7074c-13.8435-5.0351-22.8218-18.5025-21.7906-28.5484a13.04085,13.04085,0,0,1,1.0677-4.0766c4.477-9.8154,13.0063-3.3851,13.4311-3.0575-.2185-.643-7.8257-22.3849,9.8516-28.694,17.9445-6.41822,24.3627,19.2305,26.1948,23.8166,0,0,2.742-3.3607,8.5537-2.1353,5.7995,1.2132,4.6346,12.521,4.6346,12.521s24.0592.6066,32.0063,18.6238a23.69648,23.69648,0,0,1,1.3588,4.016C341.333,137.64952,327.6229,163.98972,308.3196,179.47112Z" transform="translate(-38.041 -51.79922)"/><path class="cls-12" d="M308.3196,179.47112l-23.2343-28.694-23.5617-23.7074c-13.8435-5.0351-22.8218-18.5025-21.7906-28.5484,4.1617,2.9483,10.5314,10.84668,16.0154,16.33068,9.4029,9.40292,18.4903,2.91192,41.8216,5.71452,22.8459,2.742,25.5638,16.4278,39.2616-1.0312C341.333,137.64952,327.6229,163.98972,308.3196,179.47112Z" transform="translate(-38.041 -51.79922)"/><polygon class="cls-10" points="263.288 111.542 274.832 139.756 252.846 154.414 244.682 131.58 263.288 111.542"/><path class="cls-13" d="M288.0183,198.19052c12.101-12.5157,15.9873-28.3079,15.9873-28.3079l-2.6764-6.5413-18.6065,20.0378Z" transform="translate(-38.041 -51.79922)"/><path class="cls-10" d="M261.5269,127.06552c-11.436,14.8667-11.8172,38.5011-11.8172,44.2191,0,5.7179,11.8172,3.8119,11.8172,3.8119s1.5285,20.65948,5.7198,24.0903c4.1914,3.4308,29.7317-14.5603,32.7813-21.8031a24.15475,24.15475,0,0,0,1.3012-14.0424s5.1792-.4431,6.704-9.5919-3.4308-12.9608-7.2428-12.19842-6.8616,14.86682-6.8616,14.86682l-2.6684-23.2532Z" transform="translate(-38.041 -51.79922)"/><path class="cls-14" d="M264.0859,146.74362c0,2.2301.7076,4.038,1.5804,4.038.8729,0,1.5804-1.8079,1.5804-4.038s-.7075-4.0379-1.5804-4.0379C264.7935,142.70572,264.0859,144.51352,264.0859,146.74362Z" transform="translate(-38.041 -51.79922)"/><path class="cls-13" d="M297.5671,156.51462c1.5407-6.8474,4.1084-8.5592,5.4779-4.9644,1.3695,3.5949-.8559,7.0186-2.7389,8.7304Z" transform="translate(-38.041 -51.79922)"/><path class="cls-15" d="M269.0237,179.46772c5.9299-1.97672,13.1177-7.9066,13.1177-7.9066s1.9766,11.6802-11.6802,15.8131Z" transform="translate(-38.041 -51.79922)"/><path class="cls-16" d="M377.0918,397.11341H282.2444c-.3593-6.33.5828-35.027,1.8599-67.9066,2.0515-52.3809,4.989-115.37039,4.989-115.37039l-3.4005-7.6232s18.6311-21.6803,29.9262-23.8197c4.7736,2.3868,11.9178,16.1964,11.9178,16.1964,22.5186,38.76279,35.4341,97.48169,42.4028,141.018C375.2399,372.767,377.0918,397.11341,377.0918,397.11341Z" transform="translate(-38.041 -51.79922)"/><path class="cls-12" d="M377.0918,397.11341H282.2444c-.3593-6.33.5828-35.027,1.8599-67.9066l19.9003-3.75981,30.3493-79.49719h3.3367c9.7705,59.5491-5.963,101.9678,4.981,112.2333,7.0963,6.6493,19.4451-7.6712,27.268-18.5752C375.2399,372.767,377.0918,397.11341,377.0918,397.11341Z" transform="translate(-38.041 -51.79922)"/><path class="cls-16" d="M334.3539,309.075l-48.3737-11.52659s-2.2271-65.40819,17.737-77.93269c13.2429-8.30972,28.5532,2.1154,32.0974,34.23669C337.7065,271.03071,336.5969,291.97661,334.3539,309.075Z" transform="translate(-38.041 -51.79922)"/><path class="cls-10" d="M334.3539,309.075c-1.9478,14.88731-4.7497,26.853-7.1684,30.87611-3.3605,5.5957-50.9359-4.04711-87.3119-12.22911-19.8445-4.46219-36.3521-8.49329-40.5429-9.37939l.016-20.3073s80.4871,5.6915,86.6335-.4869l12.724,3.0333Z" transform="translate(-38.041 -51.79922)"/><path class="cls-13" d="M334.3539,309.075c-1.9478,14.88731-4.7497,26.853-7.1684,30.87611-3.3605,5.5957-50.9359-4.04711-87.3119-12.22911a119.83545,119.83545,0,0,1,16.8668-.39909c23.4446,1.0936,66.0867,5.468,66.0867-8.22991,0-10.79229-13.5621-11.67039-24.1229-18.51129Z" transform="translate(-38.041 -51.79922)"/><path class="cls-17" d="M170.3065,262.06641s-9.3315,8.0543-18.3756,1.9078a14.60912,14.60912,0,0,1-6.2502-11.83c3.7437,9.7466,11.2871,11.0557,15.7174,9.9222,4.8693-1.2453-1.7242-6.0348,1.836-7.0725a2.68627,2.68627,0,0,0,2.0196-3.7597C168.3029,253.30961,169.7637,256.64631,170.3065,262.06641Z" transform="translate(-38.041 -51.79922)"/><path class="cls-17" d="M186.4948,266.25711c-3.8793,3.7758-9.4192,6.2982-15.6136.3274,1.0218-3.5922,2.4347-6.17051,4.6697-7.759-2.9774,6.0347,1.1894,10.002,9.4433,7.759A14.94691,14.94691,0,0,1,186.4948,266.25711Z" transform="translate(-38.041 -51.79922)"/><polyline class="cls-18" points="244.203 345.314 244.203 391.637 346.865 389.539 339.051 345.314"/></g><circle class="cls-19" cx="144.4023" cy="20.7122" r="20.7122"/><path class="cls-19" d="M209.9489,84.322a5.62375,5.62375,0,1,1-5.6238-5.62368A5.6238,5.6238,0,0,1,209.9489,84.322Z" transform="translate(-38.041 -51.79922)"/><circle class="cls-19" cx="121.5367" cy="34.2683" r="7.8369"/><path class="cls-19" d="M151.264,89.986a3.9185,3.9185,0,1,1-3.9185-3.91848A3.91845,3.91845,0,0,1,151.264,89.986Z" transform="translate(-38.041 -51.79922)"/><path class="cls-19" d="M221.3981,88.22a5.68445,5.68445,0,1,1-5.6844-5.68438A5.68441,5.68441,0,0,1,221.3981,88.22Z" transform="translate(-38.041 -51.79922)"/><polygon class="cls-19" points="179.825 42.105 109.305 42.105 109.305 34.268 170.506 34.268 179.825 34.268 179.825 42.105"/><circle class="cls-19" cx="382.6179" cy="111.4633" r="20.7122"/><path class="cls-19" d="M448.1644,175.07312a5.62375,5.62375,0,1,1-5.6237-5.6237A5.62378,5.62378,0,0,1,448.1644,175.07312Z" transform="translate(-38.041 -51.79922)"/><circle class="cls-19" cx="359.75223" cy="125.0194" r="7.83691"/><path class="cls-19" d="M389.4795,180.73712a3.91845,3.91845,0,1,1-3.9185-3.9185A3.91845,3.91845,0,0,1,389.4795,180.73712Z" transform="translate(-38.041 -51.79922)"/><circle class="cls-19" cx="415.8882" cy="127.1719" r="5.6844"/><polygon class="cls-19" points="418.041 132.856 347.52 132.856 347.52 125.019 408.722 125.019 418.041 125.019 418.041 132.856"/><circle class="cls-19" cx="39.0164" cy="126.8315" r="20.7122"/><path class="cls-19" d="M104.5629,190.44132a5.62375,5.62375,0,1,1-5.6238-5.6237A5.62379,5.62379,0,0,1,104.5629,190.44132Z" transform="translate(-38.041 -51.79922)"/><circle class="cls-19" cx="16.1507" cy="140.3876" r="7.8369"/><path class="cls-19" d="M45.878,196.10532a3.9185,3.9185,0,1,1-3.9185-3.9185A3.91845,3.91845,0,0,1,45.878,196.10532Z" transform="translate(-38.041 -51.79922)"/><circle class="cls-19" cx="72.2867" cy="142.5401" r="5.6844"/><polygon class="cls-19" points="74.439 148.224 3.919 148.224 3.919 140.388 65.12 140.388 74.439 140.388 74.439 148.224"/><rect class="cls-20" x="436.5247" y="223.43982" width="17.4045" height="41.1331" transform="translate(852.4129 436.21351) rotate(180)"/><rect class="cls-20" x="404.4461" y="212.11372" width="17.4045" height="52.4592" transform="translate(788.2557 424.88741) rotate(180)"/><rect class="cls-20" x="372.3675" y="202.82072" width="17.4045" height="61.7522" transform="translate(724.0985 415.59441) rotate(180)"/><polygon class="cls-19" points="163.903 95.461 157.337 103.757 152.47 93.408 163.903 95.461"/><polygon class="cls-19" points="157.771 100.686 167.876 107.964 171.621 102.593 160.873 96.541 157.771 100.686"/><g class="cls-21"><polygon class="cls-20" points="87.975 120.077 83.985 125.117 81.028 118.829 87.975 120.077"/><polygon class="cls-20" points="84.249 123.251 90.389 127.674 92.664 124.411 86.134 120.733 84.249 123.251"/></g><polygon class="cls-20" points="176.149 143.024 170.406 150.279 166.15 141.228 176.149 143.024"/><polygon class="cls-20" points="170.786 147.593 179.623 153.958 182.899 149.261 173.499 143.968 170.786 147.593"/><polygon class="cls-20" points="122.411 136.088 104.719 155.105 94.834 128.825 122.411 136.088"/><polygon class="cls-20" points="106.383 147.674 151.775 182.453 160.342 171.447 114.786 138.138 106.383 147.674"/><polygon class="cls-19" points="193.965 181.363 189.663 186.797 186.475 180.017 193.965 181.363"/><polygon class="cls-19" points="189.948 184.785 202.76 193.071 204.805 189.961 191.98 182.07 189.948 184.785"/><g class="cls-22"><polygon class="cls-20" points="192.228 103.246 187.927 108.68 184.739 101.9 192.228 103.246"/><polygon class="cls-20" points="188.212 106.668 201.024 114.953 203.068 111.844 190.244 103.953 188.212 106.668"/></g><polygon class="cls-20" points="142.118 130.829 61.036 69.337 72.497 54.183 153.579 115.674 142.118 130.829"/><polygon class="cls-20" points="97.001 55.485 67.542 92.701 44.312 46.64 97.001 55.485"/><polygon class="cls-19" points="127.588 91.516 118.706 102.736 112.123 88.737 127.588 91.516"/><polygon class="cls-19" points="119.294 98.582 132.961 108.427 138.027 101.163 123.49 92.976 119.294 98.582"/><path class="cls-20" d="M210.7782,250a.8293.8293,0,1,1-.8293-.82929A.82932.82932,0,0,1,210.7782,250Z" transform="translate(-38.041 -51.79922)"/><path class="cls-20" d="M246.7361,379.25531a2.78475,2.78475,0,1,1-2.7848-2.7847A2.78471,2.78471,0,0,1,246.7361,379.25531Z" transform="translate(-38.041 -51.79922)"/><path class="cls-20" d="M125.8366,244.00641a2.7847,2.7847,0,1,1-2.7847-2.7848A2.7847,2.7847,0,0,1,125.8366,244.00641Z" transform="translate(-38.041 -51.79922)"/><path class="cls-20" d="M201.2828,114.26452a2.7847,2.7847,0,1,1-2.7847-2.7847A2.78472,2.78472,0,0,1,201.2828,114.26452Z" transform="translate(-38.041 -51.79922)"/><path class="cls-20" d="M388.3458,294.17471A2.78475,2.78475,0,1,1,385.561,291.39,2.78478,2.78478,0,0,1,388.3458,294.17471Z" transform="translate(-38.041 -51.79922)"/><path class="cls-20" d="M353.7072,190.44132a2.78475,2.78475,0,1,1-2.7848-2.7847A2.7847,2.7847,0,0,1,353.7072,190.44132Z" transform="translate(-38.041 -51.79922)"/><circle class="cls-20" cx="183.5032" cy="288.19719" r="0.8293"/><circle class="cls-20" cx="322.8686" cy="154.0899" r="0.8293"/><path class="cls-20" d="M106.0811,224.603a.8293.8293,0,1,1-.8293-.82928A.82925.82925,0,0,1,106.0811,224.603Z" transform="translate(-38.041 -51.79922)"/><path class="cls-20" d="M178.6084,122.75412a.82925.82925,0,1,1-.8293-.8293A.82925.82925,0,0,1,178.6084,122.75412Z" transform="translate(-38.041 -51.79922)"/><path class="cls-20" d="M212.7285,370.61711a32.84148,32.84148,0,1,1-63.1738,2.3493l31.9171,7.74059-1.184-32.82279A32.84518,32.84518,0,0,1,212.7285,370.61711Z" transform="translate(-38.041 -51.79922)"/><path class="cls-23" d="M171.9651,337.86431l1.184,32.8229-31.9171-7.7406a32.87826,32.87826,0,0,1,30.7331-25.0823Z" transform="translate(-38.041 -51.79922)"/></svg>