<svg id="OBJECTS" xmlns="http://www.w3.org/2000/svg" xmlns:xlink="http://www.w3.org/1999/xlink" viewBox="0 0 289.26319 274.28034"><defs><style>.cls-1,.cls-46{fill:none;}.cls-2{fill:#e6e3ff;}.cls-3{fill:#aea2ff;}.cls-4{isolation:isolate;}.cls-5{fill:#828282;}.cls-6{fill:#b4b4b4;}.cls-45,.cls-7{fill:#fff;}.cls-8{fill:#dfdfdf;}.cls-9{clip-path:url(#clip-path);}.cls-10{fill:#14022b;}.cls-11{fill:#13022a;}.cls-12{fill:#120228;}.cls-13{fill:#120227;}.cls-14{fill:#110226;}.cls-15{fill:#100224;}.cls-16{fill:#100223;}.cls-17{fill:#0f0222;}.cls-18{fill:#13022e;}.cls-19{clip-path:url(#clip-path-2);}.cls-20{clip-path:url(#clip-path-3);}.cls-21{fill:#858585;}.cls-22{clip-path:url(#clip-path-4);}.cls-23{fill:#0f0221;}.cls-24{clip-path:url(#clip-path-5);}.cls-25{clip-path:url(#clip-path-6);}.cls-26{fill:#a8a8a8;}.cls-27{fill:#a3a3a3;}.cls-28{fill:#9e9e9e;}.cls-29{clip-path:url(#clip-path-7);}.cls-30{clip-path:url(#clip-path-8);}.cls-31{fill:#8a8a8a;}.cls-32{fill:#8f8f8f;}.cls-33{fill:#949494;}.cls-34{fill:#999;}.cls-35{clip-path:url(#clip-path-9);}.cls-36{clip-path:url(#clip-path-10);}.cls-37{clip-path:url(#clip-path-11);}.cls-38{clip-path:url(#clip-path-12);}.cls-39{clip-path:url(#clip-path-13);}.cls-40{clip-path:url(#clip-path-14);}.cls-41{clip-path:url(#clip-path-15);}.cls-42{fill:#1a0339;}.cls-43{clip-path:url(#clip-path-16);}.cls-44{fill:#563cae;}.cls-45{font-size:9.37807px;font-family:Poppins-ExtraBold, Poppins ExtraBold;font-weight:800;letter-spacing:0.09993em;}.cls-46{stroke:#000;stroke-miterlimit:10;stroke-width:5px;}.cls-47{fill-rule:evenodd;}.cls-48{fill:#c9431a;}</style><clipPath id="clip-path" transform="translate(-124.5495 -112.59447)"><path class="cls-1" d="M319.23369,367.4511l-5.276-2.8701c7.0738-1.064,12.7866-7.8494,12.7724-15.1599l5.276,2.8701C332.02029,359.6017,326.30749,366.3871,319.23369,367.4511Z"/></clipPath><clipPath id="clip-path-2" transform="translate(-124.5495 -112.59447)"><path class="cls-1" d="M213.50829,381.1236l-5.2759-2.87a11.278,11.278,0,0,0,7.0207,1.1904l5.276,2.87A11.2777,11.2777,0,0,1,213.50829,381.1236Z"/></clipPath><clipPath id="clip-path-3" transform="translate(-124.5495 -112.59447)"><path class="cls-1" d="M213.495,381.0951l-5.276-2.8701a11.22362,11.22362,0,0,1-5.68441-10.1088l5.276,2.87A11.22366,11.22366,0,0,0,213.495,381.0951Z"/></clipPath><clipPath id="clip-path-4" transform="translate(-124.5495 -112.59447)"><path class="cls-1" d="M211.136,385.1022l-5.27591-2.8701a14.96255,14.96255,0,0,1-7.5903-13.4666l5.276,2.8701A14.96265,14.96265,0,0,0,211.136,385.1022Z"/></clipPath><clipPath id="clip-path-5" transform="translate(-124.5495 -112.59447)"><path class="cls-1" d="M320.31029,118.3451l5.2759,2.8701a11.2666,11.2666,0,0,1,5.698,10.138l-5.276-2.8701A11.26683,11.26683,0,0,0,320.31029,118.3451Z"/></clipPath><clipPath id="clip-path-6" transform="translate(-124.5495 -112.59447)"><path class="cls-1" d="M313.16459,117.1734a11.49433,11.49433,0,0,1,7.1563,1.1991l5.276,2.8701a11.49433,11.49433,0,0,0-7.1563-1.1991C316.85779,119.1825,314.74739,118.0344,313.16459,117.1734Z"/></clipPath><clipPath id="clip-path-7" transform="translate(-124.5495 -112.59447)"><path class="cls-1" d="M322.68089,114.3666l5.2759,2.8701a15.29932,15.29932,0,0,0-9.5266-1.6035l-5.2759-2.8701A15.29957,15.29957,0,0,1,322.68089,114.3666Z"/></clipPath><clipPath id="clip-path-8" transform="translate(-124.5495 -112.59447)"><path class="cls-1" d="M289.11709,124.8847a4.616,4.616,0,0,1,3.7068-4.6525l5.2759,2.8701a4.616,4.616,0,0,0-3.7067,4.6525q.00015.0465-.0004.0931-2.6379-1.43505-5.2759-2.8701C289.11709,124.9468,289.11719,124.9157,289.11709,124.8847Z"/></clipPath><clipPath id="clip-path-9" transform="translate(-124.5495 -112.59447)"><path class="cls-1" d="M289.11679,124.9778q2.6379,1.435,5.2759,2.8701a7.18259,7.18259,0,0,1-5.8703,6.8843l-5.276-2.8701A7.18268,7.18268,0,0,0,289.11679,124.9778Z"/></clipPath><clipPath id="clip-path-10" transform="translate(-124.5495 -112.59447)"><path class="cls-1" d="M246.82059,137.3419l.0303-.0042,5.276,2.8701-.0303.0041Q249.45854,138.77685,246.82059,137.3419Z"/></clipPath><clipPath id="clip-path-11" transform="translate(-124.5495 -112.59447)"><path class="cls-1" d="M243.67119,136.802a5.09727,5.09727,0,0,0,3.1494.5399q2.638,1.435,5.276,2.8701a5.09727,5.09727,0,0,1-3.1494-.5399C247.36439,138.8111,245.254,137.663,243.67119,136.802Z"/></clipPath><clipPath id="clip-path-12" transform="translate(-124.5495 -112.59447)"><path class="cls-1" d="M248.89609,139.6445l-5.2759-2.8701a5.15249,5.15249,0,0,1-2.6109-4.6385l5.276,2.8701A5.1526,5.1526,0,0,0,248.89609,139.6445Z"/></clipPath><clipPath id="clip-path-13" transform="translate(-124.5495 -112.59447)"><path class="cls-1" d="M239.31589,128.9271l5.276,2.8701a3.49853,3.49853,0,0,1,1.6934,3.2088l-5.276-2.8701A3.49853,3.49853,0,0,0,239.31589,128.9271Z"/></clipPath><clipPath id="clip-path-14" transform="translate(-124.5495 -112.59447)"><path class="cls-1" d="M237.28079,128.5985a3.34234,3.34234,0,0,1,2.0819.3481l5.276,2.8701a3.343,3.343,0,0,0-2.0819-.3482Z"/></clipPath><clipPath id="clip-path-15" transform="translate(-124.5495 -112.59447)"><path class="cls-1" d="M207.08879,150.0484l-5.276-2.8701c-.0235-7.3095,5.68921-14.0946,12.7631-15.1588l5.276,2.8701C212.778,135.9538,207.06529,142.7389,207.08879,150.0484Z"/></clipPath><clipPath id="clip-path-16" transform="translate(-124.5495 -112.59447)"><path class="cls-1" d="M202.824,150.6876l-5.276-2.87c-.02831-9.7298,7.60729-18.7959,17.01729-20.2085l5.276,2.8701C210.43129,131.8918,202.79569,140.9579,202.824,150.6876Z"/></clipPath></defs><path class="cls-2" d="M161.138,315.0606s1.03109.9341,2.83049,2.4784c-1.9018-1.5484-2.83049-2.4784-2.83049-2.4784S165.04069,327,175.15409,334.374l6.3161.8547-5.6651.4345a47.39116,47.39116,0,0,0,13.9151,9.2396l4.3059-.197-3.3835,1.1942c6.8977,5.0158,23.9935,9.055,23.9935,9.055s-5.5452-12.8371-13.3556-18.9235l-4.2259-3.725a79.26716,79.26716,0,0,0-13.4479-8.8007l.2818,4.0174-2.7093-4.9467C173.96459,318.7485,169.32819,319.1711,161.138,315.0606Z" transform="translate(-124.5495 -112.59447)"/><path class="cls-3" d="M175.69069,327.2266c1.9486,1.0422,3.8535,2.1541,5.7518,3.2765,1.8992,1.1209,3.76251,2.2989,5.64551,3.4456,1.85069,1.198,3.71859,2.3687,5.55309,3.5925,1.8342,1.2244,3.6621,2.4586,5.4455,3.7638-1.9493-1.0413-3.854-2.1534-5.7525-3.2754-1.89809-1.1226-3.7629-2.2984-5.6448-3.4467-1.8497-1.1997-3.719-2.3681-5.5525-3.5936C179.30239,329.7653,177.47469,328.5307,175.69069,327.2266Z" transform="translate(-124.5495 -112.59447)"/><path class="cls-2" d="M413.81269,167.4331s-2.7315,1.7772-7.3041,4.9299c4.643-3.3823,7.3041-4.9299,7.3041-4.9299s-29.372,1.7062-52.11469,20.2062l-5.70881,13.7944,2.4002-13.09s-17.1085,9.8954-29.239,25.9956l-2.1261,9.8697-.6834-8.3763c-15.4805,12.6256-34.8417,48.9317-34.8417,48.9317s32.3867-4.8902,50.8372-18.9434l10.9609-7.3456s16.6453-11.9708,27.9659-25.1998l-9.2671-1.7618,12.822-3.1809C397.79769,194.28,399.61039,183.5267,413.81269,167.4331Z" transform="translate(-124.5495 -112.59447)"/><path class="cls-3" d="M382.86,189.5545c-3.78311,3.4501-7.63671,6.8162-11.50111,10.1696-3.8628,3.3552-7.7835,6.6415-11.6725,9.9657-3.941,3.2622-7.8542,6.5574-11.8213,9.7886l-5.9635,4.8315c-2.0114,1.5825-4.00059,3.1913-6.0315,4.7506,1.885-1.7329,3.8116-3.4162,5.716-5.1259l5.784-5.045c3.8645-3.3531,7.78291-6.6422,11.6736-9.9644,3.9427-3.2601,7.8537-6.5581,11.8225-9.7872C374.83339,195.9071,378.81149,192.6889,382.86,189.5545Z" transform="translate(-124.5495 -112.59447)"/><path class="cls-2" d="M208.16449,180.9242a12.98948,12.98948,0,0,1-8.0994-10.3028c-.3583-2.5519-.9169-5.7508-4.0812-6.1076-2.6482-.2987-4.3292,2.2263-3.9901,4.6098.55821,3.926,3.7944,6.7046,7.2564,8.5881a73.93034,73.93034,0,0,1-7.6486-3.4637,10.30677,10.30677,0,0,1-4.2184-9.5172c.2264-2.0327.426-4.6026-1.9369-5.4994a3.04765,3.04765,0,0,0-3.9752,2.76c-.5192,4.7374,4.1982,8.6579,7.4386,10.7639a57.6624,57.6624,0,0,1-4.8459-3.2471,12.6217,12.6217,0,0,1-4.4469-5.7656,12.77257,12.77257,0,0,1-.4875-6.9905c.5178-2.5245,1.0637-5.7257-1.798-7.1224-2.395-1.169-4.8248.6465-5.30439,3.0058-.79,3.8861,1.32759,7.5886,3.95829,10.5235a73.92274,73.92274,0,0,1-6.0454-5.827,10.30655,10.30655,0,0,1-.7842-10.3806c.8946-1.8393,1.944-4.1935.01831-5.8305a3.04754,3.04754,0,0,0-4.67021,1.268c-2.0772,4.2895,1.0533,9.5642,3.4003,12.6344a60.1403,60.1403,0,0,1-5.1065-7.058c-1.497-4.0302.8103-6.8757-.5224-9.454a2.99231,2.99231,0,0,0-4.6303-.97c-2.9821,2.8735,2.3013,8.9704,5.0883,10.9725.3585.628.7371,1.2423,1.1246,1.8504-2.4683-2.5639-5.9372-4.8835-8.1355-2.9465a2.99232,2.99232,0,0,0,.5893,4.694c2.5553,1.5974,5.7201-.6797,9.8335,1.5309q1.6326,2.14935,3.4693,4.1385c-4.3439-3.1797-10.5989-6.0386-13.3091-2.4161-1.746,2.3337-.2405,5.542,2.2505,6.459,4.0889,1.5052,7.8738-2.6096,14.332-.7286,1.3676,1.2997,2.7813,2.5512,4.2254,3.7591-3.8989-2.1521-8.8773-3.8153-12.9487-1.6176-2.1184,1.1437-3.15049,3.9959-1.3369,5.9485,2.1672,2.3331,5.0721.8818,7.3375-.3463a12.79732,12.79732,0,0,1,10.84691-.6952,6.74887,6.74887,0,0,1,1.65129.9189c.3121.2358.6406.4785.8726.659-3.1851-1.5883-7.2307-2.611-8.6527-.0492a2.99236,2.99236,0,0,0,2.1286,4.2249c2.9429.6485,5.1615-2.5576,9.7778-1.8535q2.2587,1.4778,4.6557,2.7362c-5.1582-1.5398-12.0099-2.1369-13.349,2.1846-.8627,2.7839,1.6311,5.3019,4.2853,5.3309,4.3568.0478,6.5435-5.0977,13.2586-5.4901,1.7241.7662,3.4757,1.4714,5.2411,2.1254-4.3949-.7207-9.6427-.6191-12.7418,2.8162-1.6126,1.7875-1.6291,4.8207.7341,6.0525,2.8238,1.4717,5.0743-.8694,6.7972-2.7857a12.98946,12.98946,0,0,1,12.4773-4.0197c.23491.0528.3658.0786.3658.0786l-.0341-.0146.037.0071S208.39269,181.0131,208.16449,180.9242Z" transform="translate(-124.5495 -112.59447)"/><path class="cls-2" d="M325.71159,262.9308A16.23455,16.23455,0,0,0,339.135,253.545c1.35389-2.9223,3.18209-6.546,7.09619-5.8252,3.2757.603,4.3707,4.2326,3.1009,6.9605-2.0914,4.4933-6.9696,6.6433-11.7934,7.6406a92.39905,92.39905,0,0,0,10.4042-1.3693,12.88158,12.88158,0,0,0,8.4966-9.8535c.4663-2.5135,1.1594-5.6595,4.3109-5.8753,2.63761-.1804,4.1933,2.3951,3.7537,4.7426-1.0969,5.8545-8.1608,8.833-12.8002,10.1769a72.04257,72.04257,0,0,0,6.9734-2.1265,15.77488,15.77488,0,0,0,7.4096-5.2835,15.96358,15.96358,0,0,0,3.1179-8.1844c.2961-3.2071.804-7.234,4.7333-7.8669,3.2884-.5297,5.5363,2.5229,5.2545,5.5187-.4643,4.9344-4.3397,8.595-8.5504,11.1514a92.38018,92.38018,0,0,0,9.3436-4.7773,12.88169,12.88169,0,0,0,4.70221-12.1316c-.403-2.5243-.80451-5.7205,2.09229-6.9802,2.4246-1.054,4.7538.8511,5.1261,3.2101.9291,5.8837-4.7279,11.0575-8.64839,13.8786a75.18692,75.18692,0,0,0,8.667-6.5902c3.25189-4.2776,1.524-8.5177,4.053-11.1182,1.59539-1.6404,4.65629-1.6887,5.88989.5188,2.5248,4.5183-6.0053,9.8948-10.0648,11.2788-.6564.6211-1.332,1.2186-2.016,1.8054,3.882-2.1716,8.8722-3.688,10.799-.5742,1.3306,2.1504-.1982,4.8029-2.4069,5.4007-3.6356.984-6.59519-2.8871-12.3167-1.7347q-2.7321,1.97865-5.6502,3.6919c6.3486-2.228,14.8668-3.3793,16.7948,1.9363,1.242,3.4243-1.72209,6.7157-5.034,6.9093-5.4363.3176-8.4713-5.9764-16.8778-6.0685-2.107,1.0586-4.2518,2.0429-6.4171,2.964,5.4439-1.1603,12.0015-1.3444,16.0742,2.7607,2.119,2.136,2.3192,5.9217-.558,7.5996-3.4381,2.0046-6.3863-.7846-8.6506-3.075a15.99448,15.99448,0,0,0-12.7215-4.7647,8.4299,8.4299,0,0,0-2.30829.5003c-.45881.1687-.93971.3399-1.28271.4717,4.3855-.7448,9.5953-.5009,10.3671,3.0788.5327,2.4719-1.7966,4.4585-4.078,4.2814-3.7551-.2915-5.2461-4.9307-11.0227-5.7625q-3.2376.94845-6.5608,1.5844c6.728.0287,15.1395,1.7991,15.17411,7.4535.02239,3.6426-3.87341,5.75-7.05861,4.8223-5.2283-1.5227-5.9779-8.47-13.8673-11.3744-2.34.2912-4.6907.4996-7.0395.6416,5.518.7316,11.7579,2.7561,14.219,7.9888,1.2805,2.7227.2003,6.3566-3.0729,6.973-3.911.7363-5.7539-2.88-7.11969-5.7967a16.23486,16.23486,0,0,0-13.46621-9.3323c-.3-.022-.4659-.0387-.4659-.0387.0154-.0011.0304-.0038.046-.0051-.01589-.0011-.031-.0036-.0468-.0048C325.23909,262.972,325.40649,262.9544,325.71159,262.9308Z" transform="translate(-124.5495 -112.59447)"/><g class="cls-4"><polygon class="cls-5" points="101.602 160.66 97.922 158.659 97.93 154.276 101.61 156.278 101.602 160.66"/><polygon class="cls-6" points="97.541 161.231 93.861 159.229 97.922 158.659 101.602 160.66 97.541 161.231"/><polygon points="97.541 161.231 93.861 159.23 93.87 154.847 97.549 156.848 97.541 161.231"/><polygon points="97.549 156.848 93.87 154.847 97.93 154.276 101.61 156.278 97.549 156.848"/><polygon class="cls-5" points="93.472 166.192 89.793 164.19 89.801 159.8 93.481 161.802 93.472 166.192"/><polygon class="cls-6" points="89.405 166.763 85.726 164.762 89.793 164.19 93.472 166.192 89.405 166.763"/><polygon class="cls-5" points="93.481 161.802 89.801 159.8 89.809 155.417 93.489 157.419 93.481 161.802"/><polygon class="cls-6" points="85.345 167.334 81.665 165.332 85.726 164.762 89.405 166.763 85.345 167.334"/><polygon class="cls-5" points="97.566 148.076 93.886 146.074 93.894 141.692 97.574 143.693 97.566 148.076"/><polygon points="89.422 157.991 85.742 155.989 89.809 155.417 93.489 157.419 89.422 157.991"/><polygon class="cls-5" points="101.642 138.74 97.963 136.738 97.971 132.355 101.651 134.357 101.642 138.74"/><polygon class="cls-5" points="93.497 153.036 89.817 151.035 89.825 146.645 93.505 148.647 93.497 153.036"/><polygon class="cls-6" points="93.505 148.647 89.825 146.645 93.886 146.074 97.566 148.076 93.505 148.647"/><polygon class="cls-6" points="97.582 139.31 93.902 137.309 97.963 136.738 101.642 138.74 97.582 139.31"/><polygon class="cls-5" points="89.422 157.991 85.742 155.989 85.75 151.606 89.43 153.608 89.422 157.991"/><polygon class="cls-6" points="89.43 153.608 85.75 151.606 89.817 151.035 93.497 153.036 89.43 153.608"/><polygon class="cls-6" points="81.284 167.905 77.604 165.903 81.665 165.332 85.345 167.334 81.284 167.905"/><polygon class="cls-5" points="101.651 134.357 97.971 132.355 97.979 127.966 101.659 129.967 101.651 134.357"/><polygon points="93.513 144.264 89.833 142.262 93.894 141.692 97.574 143.693 93.513 144.264"/><polygon points="97.582 139.31 93.902 137.309 93.91 132.926 97.59 134.928 97.582 139.31"/><polygon class="cls-5" points="93.513 144.264 89.833 142.262 89.842 137.879 93.521 139.881 93.513 144.264"/><polygon points="85.361 158.561 81.681 156.56 81.689 152.177 85.369 154.179 85.361 158.561"/><polygon class="cls-6" points="77.217 168.476 73.537 166.475 77.604 165.903 81.284 167.905 77.217 168.476"/><polygon points="97.59 134.928 93.91 132.926 93.918 128.536 97.598 130.538 97.59 134.928"/><polygon points="97.598 130.538 93.918 128.536 97.979 127.966 101.659 129.967 97.598 130.538"/><polygon points="81.3 159.132 77.621 157.13 81.681 156.56 85.361 158.561 81.3 159.132"/><polygon class="cls-5" points="101.667 125.584 97.987 123.583 97.995 119.2 101.675 121.202 101.667 125.584"/><polygon class="cls-5" points="93.521 139.881 89.842 137.879 89.85 133.497 93.529 135.498 93.521 139.881"/><polygon points="77.217 168.476 73.537 166.475 73.545 162.085 77.225 164.086 77.217 168.476"/><polygon class="cls-6" points="97.606 126.155 93.927 124.153 97.987 123.583 101.667 125.584 97.606 126.155"/><polygon class="cls-6" points="81.308 154.749 77.629 152.748 81.689 152.177 85.369 154.179 81.308 154.749"/><polygon class="cls-5" points="81.3 159.132 77.621 157.13 77.629 152.748 81.308 154.749 81.3 159.132"/><polygon points="97.614 121.772 93.935 119.771 97.995 119.2 101.675 121.202 97.614 121.772"/><polygon points="89.462 136.07 85.783 134.068 89.85 133.497 93.529 135.498 89.462 136.07"/><polygon points="81.308 154.749 77.629 152.748 77.637 148.358 81.317 150.36 81.308 154.749"/><polygon class="cls-6" points="73.164 164.657 69.485 162.655 73.545 162.085 77.225 164.086 73.164 164.657"/><polygon class="cls-6" points="93.546 126.726 89.866 124.724 93.927 124.153 97.606 126.155 93.546 126.726"/><polygon points="85.385 145.406 81.706 143.404 81.714 139.022 85.393 141.023 85.385 145.406"/><polygon points="77.241 155.321 73.562 153.319 77.629 152.748 81.308 154.749 77.241 155.321"/><polygon class="cls-5" points="97.614 121.772 93.935 119.771 93.943 115.381 97.623 117.383 97.614 121.772"/><polygon points="81.317 150.36 77.637 148.358 77.645 143.975 81.325 145.977 81.317 150.36"/><polygon points="81.325 145.977 77.645 143.975 81.706 143.404 85.385 145.406 81.325 145.977"/><polygon points="93.546 126.726 89.866 124.724 89.874 120.341 93.554 122.343 93.546 126.726"/><polygon points="85.402 136.641 81.722 134.639 85.783 134.068 89.462 136.07 85.402 136.641"/><polygon points="85.393 141.023 81.714 139.022 81.722 134.639 85.402 136.641 85.393 141.023"/><polygon class="cls-5" points="77.241 155.321 73.562 153.319 73.57 148.929 77.249 150.931 77.241 155.321"/><polygon class="cls-5" points="69.096 169.618 65.416 167.616 65.424 163.226 69.104 165.228 69.096 169.618"/><polygon class="cls-6" points="69.104 165.228 65.424 163.226 69.485 162.655 73.164 164.657 69.104 165.228"/><polygon class="cls-5" points="81.325 145.977 77.645 143.975 77.653 139.592 81.333 141.594 81.325 145.977"/><polygon points="93.554 122.343 89.874 120.341 89.882 115.952 93.562 117.953 93.554 122.343"/><polygon points="93.562 117.953 89.882 115.952 93.943 115.381 97.623 117.383 93.562 117.953"/><polygon class="cls-6" points="65.035 170.188 61.355 168.187 65.416 167.616 69.096 169.618 65.035 170.188"/><polygon class="cls-6" points="77.258 146.548 73.578 144.547 77.645 143.975 81.325 145.977 77.258 146.548"/><polygon class="cls-5" points="97.631 113 93.951 110.998 93.959 106.615 97.639 108.617 97.631 113"/><polygon class="cls-5" points="89.479 127.297 85.799 125.296 85.807 120.913 89.487 122.915 89.479 127.297"/><polygon class="cls-5" points="101.708 103.657 98.028 101.655 98.036 97.272 101.716 99.274 101.708 103.657"/><polygon points="73.189 151.502 69.509 149.5 73.57 148.929 77.249 150.931 73.189 151.502"/><polygon class="cls-5" points="93.562 117.953 89.882 115.952 89.89 111.569 93.57 113.571 93.562 117.953"/><polygon class="cls-6" points="93.57 113.571 89.89 111.569 93.951 110.998 97.631 113 93.57 113.571"/><polygon points="65.035 170.188 61.355 168.187 61.363 163.797 65.043 165.798 65.035 170.188"/><polygon class="cls-6" points="85.418 127.868 81.738 125.866 85.799 125.296 89.479 127.297 85.418 127.868"/><polygon points="77.266 142.166 73.586 140.164 77.653 139.592 81.333 141.594 77.266 142.166"/><polygon points="77.258 146.548 73.578 144.547 73.586 140.164 77.266 142.166 77.258 146.548"/><polygon class="cls-6" points="97.647 104.227 93.967 102.226 98.028 101.655 101.708 103.657 97.647 104.227"/><polygon points="69.112 160.845 65.432 158.843 65.44 154.461 69.12 156.462 69.112 160.845"/><polygon points="69.12 156.462 65.44 154.461 69.501 153.89 73.181 155.892 69.12 156.462"/><polygon class="cls-5" points="69.112 160.845 65.432 158.843 65.44 154.461 69.12 156.462 69.112 160.845"/><polygon class="cls-6" points="69.12 156.462 65.44 154.461 69.501 153.89 73.181 155.892 69.12 156.462"/><polygon class="cls-6" points="89.495 118.525 85.815 116.523 89.882 115.952 93.562 117.953 89.495 118.525"/><polygon class="cls-5" points="89.487 122.915 85.807 120.913 85.815 116.523 89.495 118.525 89.487 122.915"/><polygon class="cls-5" points="81.341 137.211 77.661 135.21 77.669 130.82 81.349 132.822 81.341 137.211"/><polygon class="cls-5" points="101.716 99.274 98.036 97.272 98.044 92.89 101.724 94.891 101.716 99.274"/><polygon class="cls-5" points="73.189 151.502 69.509 149.5 69.517 145.117 73.197 147.119 73.189 151.502"/><polygon points="97.639 108.617 97.631 113 93.57 113.571 93.578 109.188 97.639 108.617"/><polygon points="93.57 113.571 89.89 111.569 89.899 107.186 93.578 109.188 93.57 113.571"/><polygon points="93.578 109.188 89.899 107.186 93.959 106.615 97.639 108.617 93.578 109.188"/><polygon points="85.418 127.868 81.738 125.866 81.746 121.484 85.426 123.485 85.418 127.868"/><polygon class="cls-6" points="77.274 137.783 73.594 135.781 77.661 135.21 81.341 137.211 77.274 137.783"/><polygon points="89.503 114.142 85.823 112.141 89.89 111.569 93.57 113.571 89.503 114.142"/><polygon class="cls-6" points="60.976 166.37 57.296 164.368 61.363 163.797 65.043 165.798 60.976 166.37"/><polygon class="cls-5" points="60.968 170.76 57.288 168.758 57.296 164.368 60.976 166.37 60.968 170.76"/><polygon class="cls-5" points="81.349 132.822 77.669 130.82 77.678 126.437 81.357 128.439 81.349 132.822"/><polygon class="cls-5" points="101.724 94.891 98.044 92.89 98.052 88.507 101.732 90.508 101.724 94.891"/><polygon class="cls-6" points="93.586 104.798 89.907 102.796 93.967 102.226 97.647 104.227 93.586 104.798"/><polygon points="65.051 161.416 61.372 159.414 61.38 155.031 65.059 157.033 65.051 161.416"/><polygon points="85.426 123.485 81.746 121.484 81.755 117.094 85.434 119.096 85.426 123.485"/><polygon class="cls-6" points="56.907 171.331 53.228 169.329 57.288 168.758 60.968 170.76 56.907 171.331"/><polygon points="77.274 137.783 73.594 135.781 73.602 131.391 77.282 133.393 77.274 137.783"/><polygon points="69.136 147.69 65.457 145.688 69.517 145.117 73.197 147.119 69.136 147.69"/><polygon points="69.128 152.072 65.449 150.071 65.457 145.688 69.136 147.69 69.128 152.072"/><polygon class="cls-5" points="89.503 114.142 85.823 112.14 85.831 107.758 89.511 109.759 89.503 114.142"/><polygon points="60.984 161.987 57.304 159.986 61.372 159.414 65.051 161.416 60.984 161.987"/><polygon class="cls-5" points="81.357 128.439 77.678 126.437 77.686 122.054 81.365 124.056 81.357 128.439"/><polygon class="cls-5" points="101.732 90.508 98.052 88.507 98.06 84.117 101.74 86.119 101.732 90.508"/><polygon class="cls-5" points="73.205 142.736 69.525 140.735 69.534 136.352 73.213 138.354 73.205 142.736"/><polygon points="65.068 152.643 61.388 150.641 65.449 150.071 69.128 152.072 65.068 152.643"/><polygon points="85.434 119.096 81.755 117.094 81.763 112.711 85.442 114.713 85.434 119.096"/><polygon points="56.907 171.331 53.228 169.329 53.236 164.939 56.915 166.941 56.907 171.331"/><polygon points="77.282 133.393 73.602 131.391 73.61 127.009 77.29 129.01 77.282 133.393"/><polygon class="cls-6" points="69.145 143.307 65.465 141.305 69.525 140.735 73.205 142.736 69.145 143.307"/><polygon class="cls-6" points="89.519 105.37 85.84 103.368 89.907 102.796 93.586 104.798 89.519 105.37"/><polygon class="cls-6" points="60.992 157.605 57.313 155.603 61.38 155.031 65.059 157.033 60.992 157.605"/><polygon class="cls-5" points="81.365 124.056 77.686 122.054 77.694 117.665 81.374 119.666 81.365 124.056"/><polygon class="cls-5" points="101.74 86.119 98.06 84.117 98.069 79.734 101.748 81.736 101.74 86.119"/><polygon class="cls-5" points="65.068 152.643 61.388 150.641 61.396 146.259 65.076 148.261 65.068 152.643"/><polygon points="85.442 114.713 81.763 112.711 81.771 108.328 85.451 110.33 85.442 114.713"/><polygon points="85.451 110.33 81.771 108.328 85.831 107.758 89.511 109.759 85.451 110.33"/><polygon points="56.924 162.558 53.244 160.556 57.304 159.986 60.984 161.987 56.924 162.558"/><polygon points="56.915 166.941 53.236 164.939 53.244 160.556 56.924 162.558 56.915 166.941"/><polygon points="73.213 138.354 73.205 142.736 69.145 143.307 69.153 138.924 73.213 138.354"/><polygon points="69.153 138.924 65.473 136.923 69.534 136.352 73.213 138.354 69.153 138.924"/><polygon points="69.145 143.307 65.465 141.305 65.473 136.923 69.153 138.924 69.145 143.307"/><polygon class="cls-5" points="81.374 119.666 77.694 117.665 77.702 113.282 81.382 115.284 81.374 119.666"/><polygon class="cls-5" points="52.847 171.901 49.167 169.9 49.175 165.51 52.855 167.511 52.847 171.901"/><polygon class="cls-5" points="101.748 81.736 98.069 79.734 98.077 75.351 101.756 77.353 101.748 81.736"/><polygon class="cls-6" points="73.23 129.581 69.55 127.579 73.61 127.009 77.29 129.01 73.23 129.581"/><polygon class="cls-6" points="85.459 105.94 81.779 103.939 85.84 103.368 89.519 105.37 85.459 105.94"/><polygon class="cls-6" points="56.932 158.175 53.252 156.174 57.313 155.603 60.992 157.605 56.932 158.175"/><polygon class="cls-7" points="65.051 161.416 60.984 161.987 56.924 162.558 56.932 158.175 60.992 157.605 65.059 157.033 65.051 161.416"/><polygon class="cls-5" points="56.924 162.558 53.244 160.556 53.252 156.174 56.932 158.175 56.924 162.558"/><polygon class="cls-6" points="48.78 172.473 45.1 170.471 49.167 169.9 52.847 171.901 48.78 172.473"/><polygon class="cls-5" points="69.153 138.924 65.473 136.923 65.481 132.533 69.161 134.535 69.153 138.924"/><polygon points="61.009 148.832 57.329 146.83 61.396 146.259 65.076 148.261 61.009 148.832"/><polygon class="cls-5" points="81.382 115.284 77.702 113.282 77.71 108.899 81.39 110.901 81.382 115.284"/><polygon class="cls-5" points="52.855 167.511 49.175 165.51 49.183 161.127 52.863 163.129 52.855 167.511"/><polygon class="cls-6" points="52.863 163.129 49.183 161.127 53.244 160.556 56.924 162.558 52.863 163.129"/><polygon class="cls-5" points="101.756 77.353 98.077 75.351 98.085 70.962 101.765 72.963 101.756 77.353"/><polygon class="cls-6" points="65.092 139.495 61.412 137.493 65.473 136.923 69.153 138.924 65.092 139.495"/><polygon class="cls-5" points="65.084 143.878 61.404 141.876 61.412 137.493 65.092 139.495 65.084 143.878"/><polygon points="56.932 158.175 53.252 156.174 53.26 151.784 56.94 153.785 56.932 158.175"/><polygon points="48.78 172.473 45.1 170.471 45.108 166.081 48.788 168.083 48.78 172.473"/><polygon class="cls-6" points="69.169 130.152 65.489 128.15 69.55 127.579 73.23 129.581 69.169 130.152"/><polygon class="cls-5" points="69.161 134.535 65.481 132.533 65.489 128.15 69.169 130.152 69.161 134.535"/><polygon class="cls-5" points="61.009 148.832 57.329 146.83 57.337 142.448 61.017 144.449 61.009 148.832"/><polygon class="cls-6" points="61.017 144.449 57.337 142.448 61.404 141.876 65.084 143.878 61.017 144.449"/><polygon class="cls-6" points="81.398 106.511 77.718 104.509 81.779 103.939 85.459 105.94 81.398 106.511"/><polygon points="52.871 158.746 49.191 156.744 53.252 156.174 56.932 158.175 52.871 158.746"/><polygon points="65.092 139.495 61.412 137.493 61.42 133.104 65.1 135.105 65.092 139.495"/><polygon points="77.315 115.855 73.635 113.853 73.643 109.471 77.323 111.472 77.315 115.855"/><polygon points="77.323 111.472 73.643 109.471 77.71 108.899 81.39 110.901 77.323 111.472"/><polygon points="48.788 168.083 45.108 166.081 45.116 161.698 48.796 163.7 48.788 168.083"/><polygon points="97.704 73.534 94.024 71.532 98.085 70.962 101.765 72.963 97.704 73.534"/><polygon points="61.025 140.067 57.345 138.065 61.412 137.493 65.092 139.495 61.025 140.067"/><polygon class="cls-6" points="52.879 154.356 49.199 152.354 53.26 151.784 56.94 153.785 52.879 154.356"/><polygon class="cls-5" points="52.871 158.746 49.191 156.744 49.199 152.354 52.879 154.356 52.871 158.746"/><polygon points="73.254 116.426 69.574 114.424 73.635 113.853 77.315 115.855 73.254 116.426"/><polygon class="cls-5" points="44.719 173.044 41.039 171.042 41.047 166.652 44.727 168.654 44.719 173.044"/><polygon points="93.635 78.495 89.956 76.493 94.016 75.922 97.696 77.924 93.635 78.495"/><polygon class="cls-6" points="93.635 78.495 89.956 76.493 94.016 75.922 97.696 77.924 93.635 78.495"/><polygon points="65.1 135.105 61.42 133.104 61.429 128.721 65.108 130.722 65.1 135.105"/><polygon class="cls-6" points="77.331 107.083 73.651 105.081 77.718 104.509 81.398 106.511 77.331 107.083"/><polygon points="48.796 163.7 45.116 161.698 45.124 157.316 48.804 159.318 48.796 163.7"/><polygon points="73.238 125.198 69.177 125.769 69.185 121.379 73.246 120.809 73.238 125.198"/><polygon points="69.185 121.379 65.506 119.378 69.566 118.807 73.246 120.809 69.185 121.379"/><polygon class="cls-5" points="69.177 125.769 65.497 123.767 65.506 119.378 69.185 121.379 69.177 125.769"/><polygon class="cls-6" points="69.185 121.379 65.506 119.378 69.566 118.807 73.246 120.809 69.185 121.379"/><polygon points="69.177 125.769 65.497 123.767 65.506 119.378 69.185 121.379 69.177 125.769"/><polygon class="cls-6" points="40.658 173.614 36.979 171.612 41.039 171.042 44.719 173.044 40.658 173.614"/><polygon points="89.56 83.449 85.88 81.447 89.947 80.876 93.627 82.877 89.56 83.449"/><polygon class="cls-6" points="89.56 83.449 85.88 81.447 89.947 80.876 93.627 82.877 89.56 83.449"/><polygon class="cls-5" points="73.254 116.426 69.574 114.424 69.582 110.041 73.262 112.043 73.254 116.426"/><polygon class="cls-5" points="44.727 168.654 41.047 166.652 41.055 162.269 44.735 164.271 44.727 168.654"/><polygon points="93.643 74.105 89.964 72.103 94.024 71.532 97.704 73.534 93.643 74.105"/><polygon points="56.956 145.02 53.276 143.018 53.285 138.635 56.964 140.637 56.956 145.02"/><polygon points="56.964 140.637 53.285 138.635 57.345 138.065 61.025 140.067 56.964 140.637"/><polygon points="48.804 159.318 45.124 157.316 45.132 152.926 48.812 154.928 48.804 159.318"/><polygon class="cls-6" points="89.568 79.066 85.888 77.064 89.956 76.493 93.635 78.495 89.568 79.066"/><polygon points="89.568 79.066 85.888 77.064 89.956 76.493 93.635 78.495 89.568 79.066"/><polygon class="cls-6" points="61.041 131.294 57.361 129.292 61.429 128.721 65.108 130.722 61.041 131.294"/><polygon class="cls-5" points="61.033 135.677 57.353 133.675 57.361 129.292 61.041 131.294 61.033 135.677"/><polygon points="81.414 97.746 77.735 95.744 77.743 91.361 81.423 93.363 81.414 97.746"/><polygon class="cls-5" points="81.414 97.746 77.735 95.744 77.743 91.361 81.422 93.363 81.414 97.746"/><polygon points="52.895 145.591 49.216 143.589 53.276 143.018 56.956 145.02 52.895 145.591"/><polygon points="52.887 149.973 49.208 147.972 49.216 143.589 52.895 145.591 52.887 149.973"/><polygon class="cls-6" points="73.27 107.653 69.591 105.652 73.651 105.081 77.331 107.083 73.27 107.653"/><polygon class="cls-5" points="44.735 164.271 41.055 162.269 41.064 157.887 44.743 159.888 44.735 164.271"/><polygon points="65.116 126.34 61.437 124.338 61.445 119.948 65.125 121.95 65.116 126.34"/><polygon class="cls-6" points="36.598 174.185 32.918 172.183 36.979 171.612 40.658 173.614 36.598 174.185"/><polygon points="85.499 84.02 81.82 82.018 85.88 81.447 89.56 83.449 85.499 84.02"/><polygon class="cls-6" points="85.499 84.02 81.82 82.018 85.88 81.447 89.56 83.449 85.499 84.02"/><polygon class="cls-6" points="56.972 136.248 53.293 134.246 57.353 133.675 61.033 135.677 56.972 136.248"/><polygon class="cls-5" points="77.339 102.7 73.659 100.698 73.667 96.315 77.347 98.317 77.339 102.7"/><polygon points="77.339 102.7 73.659 100.698 73.667 96.315 77.347 98.317 77.339 102.7"/><polygon points="48.812 154.928 45.132 152.926 45.141 148.543 48.82 150.545 48.812 154.928"/><polygon points="48.82 150.545 45.141 148.543 49.208 147.972 52.887 149.973 48.82 150.545"/><polygon points="93.513 144.264 97.574 143.693 97.566 148.076 93.505 148.647 93.497 153.036 89.43 153.608 89.422 157.991 93.489 157.419 93.481 161.802 93.472 166.192 89.405 166.763 85.345 167.334 81.284 167.905 77.217 168.476 77.225 164.086 73.164 164.657 69.104 165.228 69.096 169.618 65.035 170.188 65.043 165.798 60.976 166.37 60.968 170.76 56.907 171.331 56.915 166.941 56.924 162.558 60.984 161.987 65.051 161.416 65.059 157.033 60.992 157.605 56.932 158.175 56.94 153.785 52.879 154.356 52.871 158.746 56.932 158.175 56.924 162.558 52.863 163.129 52.855 167.511 52.847 171.901 48.78 172.473 48.788 168.083 48.796 163.7 48.804 159.318 48.812 154.928 48.82 150.545 52.887 149.973 52.895 145.591 56.956 145.02 56.964 140.637 61.025 140.067 65.092 139.495 65.084 143.878 61.017 144.449 61.009 148.832 65.076 148.261 65.068 152.643 69.128 152.072 69.136 147.69 73.197 147.119 73.189 151.502 77.249 150.931 77.241 155.321 81.308 154.749 81.3 159.132 85.361 158.561 85.369 154.179 81.308 154.749 81.317 150.36 81.325 145.977 85.385 145.406 85.393 141.023 85.402 136.641 89.462 136.07 93.529 135.498 93.521 139.881 93.513 144.264"/><polygon points="69.202 112.614 65.522 110.612 69.582 110.041 73.262 112.043 69.202 112.614"/><polygon points="69.193 116.996 65.514 114.995 65.522 110.612 69.202 112.614 69.193 116.996"/><polygon points="89.576 74.676 85.897 72.675 89.964 72.103 93.643 74.105 89.576 74.676"/><polygon points="61.049 126.911 57.37 124.91 61.437 124.338 65.116 126.34 61.049 126.911"/><polygon points="81.423 93.363 77.743 91.361 77.751 86.971 81.431 88.973 81.423 93.363"/><polygon class="cls-5" points="81.422 93.363 77.743 91.361 77.751 86.971 81.431 88.973 81.422 93.363"/><polygon class="cls-5" points="52.895 145.591 49.216 143.589 49.224 139.206 52.904 141.208 52.895 145.591"/><polygon points="73.27 107.653 69.591 105.652 69.599 101.269 73.278 103.271 73.27 107.653"/><polygon class="cls-5" points="44.743 159.888 41.064 157.887 41.072 153.497 44.751 155.498 44.743 159.888"/><polygon points="65.133 117.567 61.453 115.565 65.514 114.995 69.193 116.996 65.133 117.567"/><polygon class="cls-6" points="85.507 79.637 81.828 77.635 85.888 77.064 89.568 79.066 85.507 79.637"/><polygon points="85.507 79.637 81.828 77.635 85.888 77.064 89.568 79.066 85.507 79.637"/><polygon points="77.347 98.317 73.667 96.315 73.676 91.933 77.355 93.934 77.347 98.317"/><polygon class="cls-5" points="77.347 98.317 73.667 96.315 73.676 91.933 77.355 93.934 77.347 98.317"/><polygon class="cls-6" points="48.828 146.162 45.149 144.161 49.216 143.589 52.895 145.591 48.828 146.162"/><polygon class="cls-5" points="61.049 126.911 57.37 124.91 57.378 120.52 61.058 122.522 61.049 126.911"/><polygon class="cls-6" points="61.058 122.522 57.378 120.52 61.445 119.948 65.125 121.95 61.058 122.522"/><polygon class="cls-6" points="32.531 174.756 28.851 172.755 32.918 172.183 36.598 174.185 32.531 174.756"/><polygon points="93.627 82.877 93.619 87.26 93.611 91.65 93.603 96.033 89.536 96.604 85.475 97.175 81.414 97.746 81.423 93.363 81.431 88.973 81.439 84.59 85.499 84.02 89.56 83.449 93.627 82.877"/><polygon points="81.439 84.59 77.759 82.589 81.82 82.018 85.499 84.02 81.439 84.59"/><polygon points="81.431 88.973 77.751 86.971 77.759 82.589 81.439 84.59 81.431 88.973"/><polygon class="cls-6" points="81.439 84.59 77.759 82.589 81.82 82.018 85.499 84.02 81.439 84.59"/><polygon class="cls-5" points="81.431 88.973 77.751 86.971 77.759 82.589 81.439 84.59 81.431 88.973"/><polygon points="97.688 82.307 97.68 86.689 97.671 91.079 97.663 95.462 97.655 99.845 93.595 100.415 89.527 100.987 85.467 101.558 81.406 102.128 77.339 102.7 77.347 98.317 77.355 93.934 77.363 89.545 77.372 85.162 77.38 80.779 81.447 80.208 85.507 79.637 89.568 79.066 93.635 78.495 97.696 77.924 97.688 82.307"/><polygon class="cls-8" points="89.568 79.066 93.635 78.495 97.696 77.924 97.688 82.307 97.68 86.689 97.671 91.079 97.663 95.462 97.655 99.845 93.595 100.415 89.527 100.987 85.467 101.558 81.406 102.128 77.339 102.7 77.347 98.317 77.355 93.934 77.363 89.545 77.372 85.162 77.38 80.779 81.447 80.208 85.507 79.637 89.568 79.066"/><polygon class="cls-8" points="93.619 87.26 93.611 91.65 93.603 96.033 89.536 96.604 85.475 97.175 81.414 97.746 81.422 93.363 81.431 88.973 81.439 84.59 85.499 84.02 89.56 83.449 93.627 82.877 93.619 87.26"/><polygon class="cls-5" points="52.904 141.208 49.224 139.206 49.232 134.816 52.912 136.818 52.904 141.208"/><polygon class="cls-6" points="52.912 136.818 49.232 134.816 53.293 134.246 56.972 136.248 52.912 136.818"/><polygon points="73.278 103.271 69.599 101.269 69.607 96.886 73.287 98.888 73.278 103.271"/><polygon class="cls-5" points="44.751 155.498 41.072 153.497 41.08 149.114 44.76 151.116 44.751 155.498"/><polygon class="cls-5" points="65.133 117.567 61.453 115.565 61.461 111.183 65.141 113.184 65.133 117.567"/><polygon points="85.516 75.247 81.836 73.245 85.897 72.675 89.576 74.676 85.516 75.247"/><polygon points="77.355 93.934 73.676 91.933 73.684 87.543 77.363 89.545 77.355 93.934"/><polygon class="cls-5" points="77.355 93.934 73.676 91.933 73.684 87.543 77.363 89.545 77.355 93.934"/><polygon points="48.828 146.162 45.149 144.161 45.157 139.778 48.837 141.779 48.828 146.162"/><polygon class="cls-5" points="69.21 108.224 65.53 106.222 65.538 101.84 69.218 103.841 69.21 108.224"/><polygon points="61.058 122.522 57.378 120.52 57.386 116.137 61.066 118.139 61.058 122.522"/><polygon class="cls-6" points="81.447 80.208 77.767 78.206 81.828 77.635 85.507 79.637 81.447 80.208"/><polygon points="81.447 80.208 77.767 78.206 81.828 77.635 85.507 79.637 81.447 80.208"/><polygon points="73.287 98.888 69.607 96.886 69.615 92.503 73.295 94.505 73.287 98.888"/><polygon class="cls-5" points="44.76 151.116 41.08 149.114 41.088 144.731 44.768 146.733 44.76 151.116"/><polygon class="cls-6" points="65.149 108.795 61.469 106.793 65.53 106.222 69.21 108.224 65.149 108.795"/><polygon points="56.989 127.482 53.309 125.48 53.317 121.091 56.997 123.092 56.989 127.482"/><polygon points="56.997 123.092 53.317 121.091 57.378 120.52 61.058 122.522 56.997 123.092"/><polygon class="cls-6" points="28.47 175.327 24.79 173.325 28.851 172.755 32.531 174.756 28.47 175.327"/><polygon points="77.363 89.545 73.684 87.543 73.692 83.16 77.372 85.162 77.363 89.545"/><polygon class="cls-5" points="77.363 89.545 73.684 87.543 73.692 83.16 77.372 85.162 77.363 89.545"/><polygon points="48.837 141.779 45.157 139.778 45.165 135.388 48.845 137.39 48.837 141.779"/><polygon points="61.066 118.139 57.386 116.137 57.394 111.754 61.074 113.756 61.066 118.139"/><polygon points="61.074 113.756 57.394 111.754 61.461 111.183 65.141 113.184 61.074 113.756"/><polygon points="81.455 75.818 77.775 73.816 81.836 73.245 85.516 75.247 81.455 75.818"/><polygon points="52.92 132.435 49.24 130.434 49.248 126.051 52.928 128.053 52.92 132.435"/><polygon points="52.928 128.053 49.248 126.051 53.309 125.48 56.989 127.482 52.928 128.053"/><polygon points="73.295 94.505 69.615 92.503 69.623 88.114 73.303 90.115 73.295 94.505"/><polygon class="cls-5" points="44.768 146.733 41.088 144.731 41.096 140.348 44.776 142.35 44.768 146.733"/><polygon points="65.149 108.795 61.469 106.793 61.478 102.41 65.157 104.412 65.149 108.795"/><polygon points="65.157 104.412 61.478 102.41 65.538 101.84 69.218 103.841 65.157 104.412"/><polygon points="77.38 80.779 73.7 78.777 77.767 78.206 81.447 80.208 77.38 80.779"/><polygon points="77.372 85.162 73.692 83.16 73.7 78.777 77.38 80.779 77.372 85.162"/><polygon class="cls-6" points="77.38 80.779 73.7 78.777 77.767 78.206 81.447 80.208 77.38 80.779"/><polygon class="cls-5" points="77.372 85.162 73.692 83.16 73.7 78.777 77.38 80.779 77.372 85.162"/><polygon points="48.853 133.007 45.173 131.005 49.24 130.434 52.92 132.435 48.853 133.007"/><polygon class="cls-5" points="69.226 99.459 65.546 97.457 65.554 93.074 69.234 95.076 69.226 99.459"/><polygon class="cls-5" points="52.928 128.053 49.248 126.051 49.256 121.661 52.936 123.663 52.928 128.053"/><polygon class="cls-6" points="24.409 175.898 20.73 173.896 24.79 173.325 28.47 175.327 24.409 175.898"/><polygon points="73.303 90.115 69.623 88.114 69.631 83.731 73.311 85.733 73.303 90.115"/><polygon class="cls-6" points="44.784 137.96 41.104 135.959 45.165 135.388 48.845 137.39 44.784 137.96"/><polygon class="cls-5" points="65.157 104.412 61.477 102.41 61.486 98.027 65.165 100.029 65.157 104.412"/><polygon class="cls-6" points="65.165 100.029 61.486 98.027 65.546 97.457 69.226 99.459 65.165 100.029"/><polygon points="77.388 76.389 73.708 74.388 77.775 73.816 81.455 75.818 77.388 76.389"/><polygon class="cls-6" points="48.861 128.624 45.181 126.622 49.248 126.051 52.928 128.053 48.861 128.624"/><polygon class="cls-5" points="69.234 95.076 65.554 93.074 65.563 88.684 69.242 90.686 69.234 95.076"/><polygon points="40.715 142.921 37.036 140.919 41.096 140.348 44.776 142.35 40.715 142.921"/><polygon class="cls-5" points="61.082 109.366 57.402 107.365 57.41 102.982 61.09 104.984 61.082 109.366"/><polygon class="cls-6" points="61.09 104.984 57.41 102.982 61.477 102.41 65.157 104.412 61.09 104.984"/><polygon points="73.311 85.733 69.631 83.731 69.639 79.348 73.319 81.35 73.311 85.733"/><polygon points="44.792 133.578 41.112 131.576 45.173 131.005 48.853 133.007 44.792 133.578"/><polygon points="65.165 100.029 61.486 98.027 61.494 93.645 65.173 95.646 65.165 100.029"/><polygon points="36.647 147.874 32.967 145.873 37.027 145.302 40.707 147.304 36.647 147.874"/><polygon class="cls-6" points="36.647 147.874 32.967 145.873 37.027 145.302 40.707 147.304 36.647 147.874"/><polygon class="cls-5" points="57.013 114.327 53.333 112.325 53.342 107.935 57.021 109.937 57.013 114.327"/><polygon class="cls-6" points="57.021 109.937 53.342 107.935 57.402 107.365 61.082 109.366 57.021 109.937"/><polygon points="48.869 124.235 45.189 122.233 49.257 121.661 52.936 123.663 48.869 124.235"/><polygon class="cls-6" points="20.342 176.469 16.662 174.468 20.73 173.896 24.409 175.898 20.342 176.469"/><polygon class="cls-5" points="69.242 90.686 65.563 88.684 65.571 84.302 69.25 86.303 69.242 90.686"/><polygon class="cls-6" points="40.723 138.531 37.044 136.529 41.104 135.959 44.784 137.96 40.723 138.531"/><polygon points="61.098 100.601 57.419 98.599 61.486 98.028 65.165 100.029 61.098 100.601"/><polygon points="61.09 104.984 57.41 102.982 57.419 98.599 61.098 100.601 61.09 104.984"/><polygon points="32.571 152.829 28.892 150.827 32.959 150.255 36.638 152.257 32.571 152.829"/><polygon class="cls-6" points="32.571 152.829 28.892 150.827 32.959 150.255 36.638 152.257 32.571 152.829"/><polygon class="cls-5" points="52.944 119.28 49.265 117.278 49.273 112.896 52.952 114.897 52.944 119.28"/><polygon class="cls-6" points="52.952 114.897 49.273 112.896 53.333 112.325 57.013 114.327 52.952 114.897"/><polygon points="73.319 81.35 69.639 79.348 69.648 74.958 73.327 76.96 73.319 81.35"/><polygon points="73.327 76.96 69.648 74.958 73.708 74.388 77.388 76.389 73.327 76.96"/><polygon class="cls-6" points="44.8 129.195 41.121 127.193 45.181 126.622 48.861 128.624 44.8 129.195"/><polygon points="65.173 95.646 61.494 93.645 61.502 89.255 65.182 91.257 65.173 95.646"/><polygon points="36.655 143.492 32.975 141.49 37.036 140.919 40.715 142.921 36.655 143.492"/><polygon points="57.021 109.937 53.342 107.935 53.35 103.553 57.03 105.554 57.021 109.937"/><polygon points="57.03 105.554 53.35 103.553 57.41 102.982 61.09 104.984 57.03 105.554"/><polygon class="cls-6" points="48.877 119.852 45.198 117.85 49.265 117.278 52.944 119.28 48.877 119.852"/><polygon class="cls-5" points="69.25 86.303 65.571 84.302 65.579 79.919 69.259 81.92 69.25 86.303"/><polygon points="40.732 134.148 37.052 132.147 41.112 131.576 44.792 133.578 40.732 134.148"/><polygon points="40.723 138.531 37.044 136.529 37.052 132.147 40.732 134.148 40.723 138.531"/><polygon points="32.579 148.446 28.9 146.444 32.967 145.873 36.647 147.874 32.579 148.446"/><polygon class="cls-6" points="32.579 148.446 28.9 146.444 32.967 145.873 36.647 147.874 32.579 148.446"/><polygon points="52.953 114.897 49.273 112.896 49.281 108.506 52.961 110.508 52.953 114.897"/><polygon points="57.021 109.937 57.013 114.327 52.953 114.897 52.961 110.508 57.021 109.937"/><polygon points="52.961 110.508 49.281 108.506 53.342 107.935 57.021 109.937 52.961 110.508"/><polygon points="24.426 167.125 20.746 165.124 20.754 160.741 24.434 162.743 24.426 167.125"/><polygon class="cls-5" points="24.426 167.125 20.746 165.124 20.754 160.741 24.434 162.743 24.426 167.125"/><polygon points="44.809 124.805 41.129 122.804 45.189 122.233 48.869 124.235 44.809 124.805"/><polygon class="cls-6" points="16.282 177.04 12.602 175.038 16.662 174.468 20.342 176.469 16.282 177.04"/><polygon points="28.511 153.399 24.831 151.398 28.892 150.827 32.571 152.829 28.511 153.399"/><polygon class="cls-6" points="28.511 153.399 24.831 151.398 28.892 150.827 32.571 152.829 28.511 153.399"/><polygon points="48.885 115.469 45.206 113.467 49.273 112.896 52.953 114.897 48.885 115.469"/><polygon points="20.35 172.08 16.671 170.078 16.679 165.695 20.359 167.697 20.35 172.08"/><polygon class="cls-5" points="20.35 172.08 16.671 170.078 16.679 165.695 20.359 167.697 20.35 172.08"/><polygon class="cls-5" points="69.259 81.92 65.579 79.919 65.587 75.529 69.267 77.531 69.259 81.92"/><polygon class="cls-6" points="40.74 129.766 37.06 127.764 41.121 127.193 44.8 129.195 40.74 129.766"/><polygon class="cls-6" points="61.115 91.828 57.435 89.827 61.502 89.255 65.182 91.257 61.115 91.828"/><polygon points="32.588 144.063 28.908 142.061 32.975 141.49 36.655 143.492 32.588 144.063"/><polygon class="cls-5" points="52.961 110.508 49.281 108.506 49.289 104.123 52.969 106.125 52.961 110.508"/><polygon points="24.434 162.743 20.754 160.741 20.762 156.351 24.442 158.353 24.434 162.743"/><polygon class="cls-5" points="24.434 162.743 20.754 160.741 20.762 156.351 24.442 158.353 24.434 162.743"/><polygon class="cls-6" points="44.817 120.422 41.137 118.421 45.198 117.85 48.877 119.852 44.817 120.422"/><polygon points="16.282 177.04 12.602 175.038 12.61 170.649 16.29 172.65 16.282 177.04"/><polygon class="cls-5" points="36.663 139.102 32.983 137.1 32.991 132.717 36.671 134.719 36.663 139.102"/><polygon class="cls-5" points="57.038 101.172 53.358 99.17 53.366 94.787 57.046 96.789 57.038 101.172"/><polygon class="cls-6" points="28.519 149.017 24.839 147.015 28.9 146.444 32.579 148.446 28.519 149.017"/><polygon points="28.519 149.017 24.839 147.015 28.9 146.444 32.579 148.446 28.519 149.017"/><polygon class="cls-6" points="48.894 111.079 45.214 109.078 49.281 108.506 52.961 110.508 48.894 111.079"/><polygon class="cls-5" points="20.359 167.697 16.679 165.695 16.687 161.312 20.367 163.314 20.359 167.697"/><polygon points="20.359 167.697 16.679 165.695 16.687 161.312 20.367 163.314 20.359 167.697"/><polygon points="40.748 125.376 37.068 123.374 41.129 122.804 44.809 124.805 40.748 125.376"/><polygon class="cls-6" points="32.596 139.673 28.916 137.672 32.983 137.1 36.663 139.102 32.596 139.673"/><polygon class="cls-5" points="52.969 106.125 49.289 104.123 49.297 99.74 52.977 101.742 52.969 106.125"/><polygon class="cls-6" points="52.977 101.742 49.297 99.74 53.358 99.17 57.038 101.172 52.977 101.742"/><polygon points="24.442 158.353 20.762 156.351 20.77 151.968 24.45 153.97 24.442 158.353"/><polygon class="cls-6" points="24.45 153.97 20.77 151.968 24.831 151.398 28.511 153.399 24.45 153.97"/><polygon class="cls-5" points="24.442 158.353 20.762 156.351 20.77 151.968 24.45 153.97 24.442 158.353"/><polygon points="20.367 163.314 16.687 161.312 16.695 156.923 20.375 158.924 20.367 163.314"/><polygon class="cls-5" points="20.367 163.314 16.687 161.312 16.695 156.923 20.375 158.924 20.367 163.314"/><polygon class="cls-6" points="24.458 149.587 20.778 147.586 24.839 147.015 28.519 149.017 24.458 149.587"/><polygon points="24.458 149.587 20.778 147.586 24.839 147.015 28.519 149.017 24.458 149.587"/><polygon points="20.375 158.924 16.695 156.923 16.703 152.54 20.383 154.542 20.375 158.924"/><polygon class="cls-5" points="20.375 158.924 16.695 156.923 16.703 152.54 20.383 154.542 20.375 158.924"/><polygon points="20.391 150.159 16.711 148.157 20.778 147.586 24.458 149.587 20.391 150.159"/><polygon class="cls-6" points="20.391 150.159 16.711 148.157 20.778 147.586 24.458 149.587 20.391 150.159"/><polygon class="cls-5" points="20.383 154.542 16.703 152.54 16.711 148.157 20.391 150.159 20.383 154.542"/><polygon points="20.383 154.542 16.703 152.54 16.711 148.157 20.391 150.159 20.383 154.542"/><polygon points="40.715 142.921 44.776 142.35 44.768 146.733 44.76 151.116 44.751 155.498 44.743 159.888 44.735 164.271 44.727 168.654 44.719 173.044 40.658 173.614 36.598 174.185 32.531 174.756 28.47 175.327 24.409 175.898 20.342 176.469 16.282 177.04 16.29 172.65 16.298 168.268 16.306 163.885 16.314 159.495 16.322 155.112 16.33 150.73 16.339 146.347 20.399 145.776 24.466 145.205 28.527 144.634 32.588 144.063 36.655 143.492 40.715 142.921"/><polygon points="40.699 151.686 40.691 156.069 40.683 160.459 40.675 164.842 40.666 169.224 36.606 169.795 32.539 170.367 28.478 170.937 24.417 171.508 20.35 172.08 20.359 167.697 20.367 163.314 20.375 158.924 20.383 154.542 20.391 150.159 24.458 149.587 28.519 149.017 32.579 148.446 36.647 147.874 40.707 147.304 40.699 151.686"/><polygon class="cls-7" points="32.579 148.446 36.647 147.874 40.707 147.304 40.699 151.686 40.691 156.069 40.683 160.459 40.675 164.842 40.666 169.224 36.606 169.795 32.539 170.367 28.478 170.937 24.417 171.508 20.35 172.08 20.359 167.697 20.367 163.314 20.375 158.924 20.383 154.542 20.391 150.159 24.458 149.587 28.519 149.017 32.579 148.446"/><polygon class="cls-8" points="36.63 156.64 36.622 161.03 36.614 165.412 32.547 165.984 28.486 166.555 24.426 167.125 24.434 162.743 24.442 158.353 24.45 153.97 28.511 153.399 32.571 152.829 36.638 152.257 36.63 156.64"/><polygon points="44.825 116.04 41.145 114.038 45.206 113.467 48.885 115.469 44.825 116.04"/><polygon points="16.29 172.65 12.61 170.649 12.618 166.266 16.298 168.268 16.29 172.65"/><polygon points="65.206 78.101 61.526 76.1 65.587 75.529 69.267 77.531 65.206 78.101"/><polygon class="cls-6" points="36.679 130.336 32.999 128.335 37.06 127.764 40.74 129.766 36.679 130.336"/><polygon class="cls-5" points="36.671 134.719 32.991 132.717 32.999 128.335 36.679 130.336 36.671 134.719"/><polygon class="cls-5" points="57.046 96.789 53.366 94.787 53.374 90.397 57.054 92.399 57.046 96.789"/><polygon class="cls-6" points="57.054 92.399 53.374 90.397 57.435 89.827 61.115 91.828 57.054 92.399"/><polygon points="28.527 144.634 24.847 142.632 28.908 142.061 32.588 144.063 28.527 144.634"/><polygon points="48.894 111.079 45.214 109.078 45.222 104.695 48.902 106.697 48.894 111.079"/><polygon class="cls-6" points="40.756 120.993 37.076 118.991 41.137 118.421 44.817 120.422 40.756 120.993"/><polygon class="cls-5" points="40.748 125.376 37.068 123.374 37.076 118.991 40.756 120.993 40.748 125.376"/><polygon class="cls-5" points="61.123 87.446 57.443 85.444 57.451 81.061 61.131 83.063 61.123 87.446"/><polygon class="cls-6" points="61.131 83.063 57.451 81.061 61.518 80.489 65.198 82.491 61.131 83.063"/><polygon points="61.131 83.063 57.451 81.061 61.518 80.489 65.198 82.491 61.131 83.063"/><polygon points="61.123 87.446 57.443 85.444 57.451 81.061 61.131 83.063 61.123 87.446"/><polygon points="32.596 139.673 28.916 137.672 28.924 133.289 32.604 135.291 32.596 139.673"/><polygon points="52.977 101.742 49.297 99.74 49.305 95.358 52.985 97.359 52.977 101.742"/><polygon points="16.298 168.268 12.618 166.266 12.626 161.883 16.306 163.885 16.298 168.268"/><polygon points="36.679 130.336 32.999 128.335 33.008 123.945 36.687 125.947 36.679 130.336"/><polygon points="57.054 92.399 53.374 90.397 53.382 86.014 57.062 88.016 57.054 92.399"/><polygon points="48.91 102.314 45.23 100.312 49.297 99.74 52.977 101.742 48.91 102.314"/><polygon points="48.902 106.697 45.222 104.695 45.23 100.312 48.91 102.314 48.902 106.697"/><polygon points="40.756 120.993 37.076 118.991 37.085 114.609 40.764 116.61 40.756 120.993"/><polygon points="40.764 116.61 37.085 114.609 41.145 114.038 44.825 116.04 40.764 116.61"/><polygon points="61.139 78.673 57.459 76.671 61.526 76.1 65.206 78.101 61.139 78.673"/><polygon points="32.612 130.908 28.932 128.906 32.999 128.335 36.679 130.336 32.612 130.908"/><polygon points="52.993 92.97 49.314 90.968 53.374 90.397 57.054 92.399 52.993 92.97"/><polygon points="24.466 145.205 20.787 143.203 24.847 142.632 28.527 144.634 24.466 145.205"/><polygon class="cls-5" points="44.833 111.65 41.153 109.648 41.161 105.266 44.841 107.267 44.833 111.65"/><polygon points="16.306 163.885 12.626 161.883 12.634 157.493 16.314 159.495 16.306 163.885"/><polygon points="36.695 121.564 33.016 119.562 37.076 118.991 40.756 120.993 36.695 121.564"/><polygon class="cls-6" points="28.543 135.861 24.864 133.86 28.924 133.289 32.604 135.291 28.543 135.861"/><polygon class="cls-5" points="28.535 140.244 24.855 138.242 24.864 133.86 28.543 135.861 28.535 140.244"/><polygon class="cls-6" points="48.918 97.931 45.238 95.929 49.305 95.358 52.985 97.359 48.918 97.931"/><polygon class="cls-6" points="40.772 112.221 37.093 110.219 41.153 109.648 44.833 111.65 40.772 112.221"/><polygon class="cls-5" points="32.612 130.908 28.932 128.906 28.94 124.516 32.62 126.518 32.612 130.908"/><polygon class="cls-6" points="32.62 126.518 28.94 124.516 33.008 123.945 36.687 125.947 32.62 126.518"/><polygon points="32.62 126.518 28.94 124.516 28.949 120.134 32.628 122.135 32.62 126.518"/><polygon class="cls-8" points="32.62 126.518 36.687 125.947 36.679 130.336 32.612 130.908 32.62 126.518"/><polygon class="cls-6" points="53.001 88.587 49.322 86.585 53.382 86.014 57.062 88.016 53.001 88.587"/><polygon class="cls-6" points="24.474 140.815 20.795 138.813 24.855 138.242 28.535 140.244 24.474 140.815"/><polygon class="cls-5" points="44.841 107.267 41.161 105.266 41.169 100.883 44.849 102.884 44.841 107.267"/><polygon points="16.314 159.495 12.634 157.493 12.643 153.111 16.322 155.112 16.314 159.495"/><polygon class="cls-5" points="36.695 121.564 33.016 119.562 33.024 115.179 36.704 117.181 36.695 121.564"/><polygon points="57.07 83.633 53.39 81.632 53.399 77.242 57.078 79.244 57.07 83.633"/><polygon points="57.078 79.244 53.399 77.242 57.459 76.671 61.139 78.673 57.078 79.244"/><polygon points="48.918 97.931 45.238 95.929 45.246 91.54 48.926 93.541 48.918 97.931"/><polygon points="48.926 93.541 45.246 91.54 49.314 90.968 52.993 92.97 48.926 93.541"/><polygon points="20.399 145.776 16.72 143.774 20.787 143.203 24.466 145.205 20.399 145.776"/><polygon points="53.009 84.204 49.33 82.202 53.39 81.632 57.07 83.633 53.009 84.204"/><polygon class="cls-5" points="44.849 102.884 41.169 100.883 41.178 96.5 44.857 98.502 44.849 102.884"/><polygon points="16.322 155.112 12.643 153.111 12.651 148.728 16.33 150.73 16.322 155.112"/><polygon class="cls-6" points="36.712 112.791 33.032 110.79 37.093 110.219 40.772 112.221 36.712 112.791"/><polygon points="28.56 127.089 24.88 125.087 28.94 124.516 32.62 126.518 28.56 127.089"/><polygon class="cls-6" points="48.934 89.159 45.255 87.157 49.322 86.585 53.001 88.587 48.934 89.159"/><polygon class="cls-6" points="20.407 141.386 16.728 139.385 20.795 138.813 24.474 140.815 20.407 141.386"/><polygon points="32.636 117.753 28.957 115.751 33.024 115.179 36.704 117.181 32.636 117.753"/><polygon class="cls-5" points="44.857 98.502 41.178 96.5 41.186 92.11 44.865 94.112 44.857 98.502"/><polygon points="16.339 146.347 12.659 144.345 16.72 143.774 20.399 145.776 16.339 146.347"/><polygon points="16.33 150.73 12.651 148.728 12.659 144.345 16.339 146.347 16.33 150.73"/><polygon class="cls-6" points="28.568 122.706 24.888 120.704 28.949 120.134 32.628 122.135 28.568 122.706"/><polygon class="cls-5" points="28.56 127.089 24.88 125.087 24.888 120.704 28.568 122.706 28.56 127.089"/><polygon points="48.942 84.776 45.263 82.774 49.33 82.202 53.009 84.204 48.942 84.776"/><polygon points="48.934 89.159 45.255 87.157 45.263 82.774 48.942 84.776 48.934 89.159"/><polygon points="20.407 141.386 16.728 139.385 16.736 135.002 20.416 137.004 20.407 141.386"/><polygon class="cls-6" points="32.645 113.363 28.965 111.361 33.032 110.79 36.712 112.791 32.645 113.363"/><polygon class="cls-5" points="44.865 94.112 41.186 92.11 41.194 87.727 44.874 89.729 44.865 94.112"/><polygon points="28.576 118.323 24.896 116.322 28.957 115.751 32.636 117.753 28.576 118.323"/><polygon points="24.499 127.66 20.819 125.658 20.827 121.275 24.507 123.277 24.499 127.66"/><polygon class="cls-5" points="44.874 89.729 41.194 87.727 41.202 83.345 44.882 85.346 44.874 89.729"/><polygon class="cls-6" points="16.355 137.574 12.675 135.573 16.736 135.002 20.416 137.004 16.355 137.574"/><polygon class="cls-6" points="28.584 113.934 24.904 111.932 28.965 111.361 32.645 113.363 28.584 113.934"/><polygon points="20.432 128.231 16.752 126.229 20.819 125.658 24.499 127.66 20.432 128.231"/><polygon points="24.515 118.894 20.836 116.892 24.896 116.322 28.576 118.323 24.515 118.894"/><polygon class="cls-5" points="44.882 85.346 41.202 83.345 41.21 78.955 44.89 80.957 44.882 85.346"/><polygon points="16.355 137.574 12.675 135.573 12.683 131.19 16.363 133.192 16.355 137.574"/><polygon class="cls-6" points="20.44 123.848 16.76 121.847 20.827 121.275 24.507 123.277 20.44 123.848"/><polygon class="cls-6" points="24.523 114.504 20.844 112.503 24.904 111.932 28.584 113.934 24.523 114.504"/><polygon points="16.371 128.802 12.692 126.8 16.752 126.229 20.432 128.231 16.371 128.802"/><polygon points="16.363 133.192 12.683 131.19 12.692 126.8 16.371 128.802 16.363 133.192"/><polygon points="20.448 119.466 16.768 117.464 20.836 116.892 24.515 118.894 20.448 119.466"/><polygon points="40.829 81.527 37.15 79.526 41.21 78.955 44.89 80.957 40.829 81.527"/><polygon class="cls-6" points="16.379 124.419 12.7 122.417 16.76 121.847 20.44 123.848 16.379 124.419"/><polygon points="36.761 86.488 33.081 84.486 37.141 83.915 40.821 85.917 36.761 86.488"/><polygon class="cls-6" points="36.761 86.488 33.081 84.486 37.141 83.915 40.821 85.917 36.761 86.488"/><polygon class="cls-6" points="20.456 115.076 16.777 113.074 20.844 112.503 24.523 114.504 20.456 115.076"/><polygon points="32.685 91.442 29.006 89.44 33.073 88.869 36.752 90.871 32.685 91.442"/><polygon class="cls-6" points="32.685 91.442 29.006 89.44 33.073 88.869 36.752 90.871 32.685 91.442"/><polygon points="16.379 124.419 12.7 122.417 12.708 118.035 16.388 120.036 16.379 124.419"/><polygon points="16.388 120.036 12.708 118.035 16.768 117.464 20.448 119.466 16.388 120.036"/><polygon points="36.769 82.098 33.089 80.096 37.15 79.526 40.829 81.527 36.769 82.098"/><polygon points="32.693 87.059 29.014 85.058 33.081 84.486 36.761 86.488 32.693 87.059"/><polygon class="cls-6" points="32.693 87.059 29.014 85.058 33.081 84.486 36.761 86.488 32.693 87.059"/><polygon points="24.54 105.739 20.86 103.737 20.868 99.354 24.548 101.356 24.54 105.739"/><polygon class="cls-5" points="24.54 105.739 20.86 103.737 20.868 99.354 24.548 101.356 24.54 105.739"/><polygon class="cls-6" points="16.396 115.647 12.716 113.645 16.777 113.074 20.456 115.076 16.396 115.647"/><polygon points="28.625 92.013 24.945 90.011 29.006 89.44 32.685 91.442 28.625 92.013"/><polygon class="cls-6" points="28.625 92.013 24.945 90.011 29.006 89.44 32.685 91.442 28.625 92.013"/><polygon points="20.464 110.693 16.785 108.691 16.793 104.309 20.473 106.31 20.464 110.693"/><polygon class="cls-5" points="20.464 110.693 16.785 108.691 16.793 104.309 20.473 106.31 20.464 110.693"/><polygon points="32.702 82.67 29.022 80.668 33.089 80.096 36.769 82.098 32.702 82.67"/><polygon points="24.548 101.356 20.868 99.354 20.876 94.965 24.556 96.966 24.548 101.356"/><polygon class="cls-5" points="24.548 101.356 20.868 99.354 20.876 94.965 24.556 96.966 24.548 101.356"/><polygon points="16.396 115.647 12.716 113.645 12.724 109.262 16.404 111.264 16.396 115.647"/><polygon class="cls-6" points="28.633 87.63 24.953 85.628 29.014 85.058 32.693 87.059 28.633 87.63"/><polygon points="28.633 87.63 24.953 85.628 29.014 85.058 32.693 87.059 28.633 87.63"/><polygon class="cls-5" points="20.473 106.31 16.793 104.309 16.801 99.926 20.481 101.928 20.473 106.31"/><polygon points="20.473 106.31 16.793 104.309 16.801 99.926 20.481 101.928 20.473 106.31"/><polygon points="24.556 96.966 20.876 94.965 20.884 90.582 24.564 92.584 24.556 96.966"/><polygon points="24.564 92.584 20.884 90.582 24.945 90.011 28.625 92.013 24.564 92.584"/><polygon points="36.752 90.871 36.744 95.253 36.736 99.643 36.728 104.026 32.661 104.597 28.6 105.168 24.54 105.739 24.548 101.356 24.556 96.966 24.564 92.584 28.625 92.013 32.685 91.442 36.752 90.871"/><polygon class="cls-6" points="24.564 92.584 20.884 90.582 24.945 90.011 28.625 92.013 24.564 92.584"/><polygon class="cls-5" points="24.556 96.966 20.876 94.965 20.884 90.582 24.564 92.584 24.556 96.966"/><polygon points="16.404 111.264 12.724 109.262 12.732 104.879 16.412 106.881 16.404 111.264"/><polygon points="28.641 83.24 24.961 81.239 29.022 80.668 32.702 82.67 28.641 83.24"/><polygon points="20.481 101.928 16.801 99.926 16.809 95.536 20.489 97.538 20.481 101.928"/><polygon class="cls-5" points="20.481 101.928 16.801 99.926 16.809 95.536 20.489 97.538 20.481 101.928"/><polygon points="24.572 88.201 20.892 86.199 24.953 85.628 28.633 87.63 24.572 88.201"/><polygon class="cls-6" points="24.572 88.201 20.892 86.199 24.953 85.628 28.633 87.63 24.572 88.201"/><polygon points="16.412 106.881 12.732 104.879 12.74 100.497 16.42 102.498 16.412 106.881"/><polygon class="cls-5" points="20.489 97.538 16.809 95.536 16.817 91.153 20.497 93.155 20.489 97.538"/><polygon points="20.489 97.538 16.809 95.536 16.817 91.153 20.497 93.155 20.489 97.538"/><polygon points="24.58 83.811 20.901 81.809 24.961 81.239 28.641 83.24 24.58 83.811"/><polygon points="16.42 102.498 12.74 100.497 12.748 96.107 16.428 98.109 16.42 102.498"/><polygon points="20.497 93.155 16.817 91.153 16.825 86.771 20.505 88.772 20.497 93.155"/><polygon points="20.505 88.772 16.825 86.771 20.892 86.199 24.572 88.201 20.505 88.772"/><polygon class="cls-5" points="20.497 93.155 16.817 91.153 16.825 86.771 20.505 88.772 20.497 93.155"/><polygon class="cls-6" points="20.505 88.772 16.825 86.771 20.892 86.199 24.572 88.201 20.505 88.772"/><polygon points="16.428 98.109 12.748 96.107 12.757 91.724 16.436 93.726 16.428 98.109"/><polygon points="20.513 84.383 16.834 82.381 20.901 81.809 24.58 83.811 20.513 84.383"/><polygon points="16.436 93.726 12.757 91.724 12.765 87.341 16.444 89.343 16.436 93.726"/><polygon points="16.453 84.953 12.773 82.952 16.834 82.381 20.513 84.383 16.453 84.953"/><polygon points="16.444 89.343 12.765 87.341 12.773 82.952 16.453 84.953 16.444 89.343"/><path class="cls-7" d="M124.7856,182.2934l-.2361,127.1628,117.80989-16.5571.2362-127.1628Zm16.1675,41.5649.0082-4.3827.0081-4.3828.0082-4.3898.0081-4.3826.0082-4.3829.0081-4.3897,4.0607-.5706,4.067-.5717,4.06059-.5707,4.06071-.5707,4.06709-.5715,4.0607-.5707,4.0605-.5707-.0081,4.3898-.00819,4.3827-.00811,4.3828-.0081,4.3898-.0082,4.3826-.0081,4.3829-.0082,4.3826-4.0605.5708-4.0607.5705-4.06709.5717-4.06071.5707-4.06069.5707-4.0669.5715-4.0607.5707.0081-4.3827m28.364,35.4692-.00809,4.3828-.00811,4.3827-.0082,4.3897-.0081,4.3827-.0082,4.3828-.0081,4.3898-4.0606.5707-4.0606.5708-4.0672.5715-4.0606.5707-4.06069.5707-4.067.5716-4.0607.5707.0082-4.3899.0081-4.3828.0082-4.3826.0081-4.3899.0082-4.3827.0081-4.3826.0082-4.3829,4.0606-.5707,4.067-.5716,4.06069-.5707,4.06071-.5706,4.06709-.5716,4.0607-.5707,4.0605-.5707-.0082,4.3828m48.7292,6.3034-4.06729.5717-.00811,4.3826,4.0672-.5716-.00809,4.3828-.00811,4.3898-4.0673.5716-4.0607.5707-4.0605.5706-4.0671.5717.0081-4.3898-4.0605.5706-4.0607.5707-.0081,4.3899-4.0607.5706.0081-4.3898-4.0671.5716-.0081,4.3898-4.0607.5707.0081-4.3898.0082-4.3828-4.0607.5707-.0081,4.3827-.0082,4.3899-4.06689.5715.00809-4.3898.0081-4.3828.0082-4.3827.0081-4.3897.0082-4.3827,4.067-.5715.0081-4.3828-4.067.5715.00821-4.3827.00809-4.3898-4.0607.5707-4.0605.5707.00811-4.3828,4.06059-.5707,4.0607-.5707,4.0669-.5715.0082-4.3828-4.067.5716-4.0607.5706-4.0605.5707-4.0607.5707-.0081,4.3828-.0082,4.3828-4.0671.5715.0082-4.3828-4.0607.5707-.0082,4.3828-4.06059.5708-4.067.5715.0081-4.3827-4.0606.5707.0081-4.3828.0081-4.3898,4.0607-.5707,4.067-.5715.0081-4.3828-4.0669.5716-4.0607.5707.0081-4.3828,4.0607-.5707,4.067-.5717,4.06069-.5707,4.0606-.5706,4.06721-.5716-.00821,4.3828,4.0607-.5707.0081-4.3828,4.0606-.5707,4.0606-.5706,4.067-.5716.00821-4.3898-4.067.5716.00809-4.3827.0082-4.3826,4.067-.5717.0081-4.3828-4.067.5716.0082-4.3897,4.0669-.5715,4.0607-.5707.0082-4.3829-4.0607.5708-4.067.5716.0082-4.3828,4.0669-.5717,4.0607-.5707.0082-4.3896,4.0606-.5707,4.0671-.5717,4.0607-.5706-.00809,4.3897-.00821,4.3828-.0081,4.3828-.0082,4.3897-.0081,4.3828-4.0607.5707-.0081,4.3827,4.0606-.5706-.0081,4.3826-4.0607.5707.0082-4.3827-4.0671.5716-.0082,4.3827-4.0607.5707-.0081,4.3897-4.0607.5707-.0081,4.3828-4.067.5715-4.06069.5707-4.06051.5707-.0082,4.3828,4.0606-.5707,4.0607-.5707,4.0669-.5716-.0081,4.3898,4.0607-.5708.0081-4.3896,4.0607-.5707.00811-4.3828.00819-4.3828,4.0671-.5715-.0082,4.3826,4.0607-.5705.00821-4.3829,4.06049-.5707-.008,4.3828,4.06051-.5707.008-4.3828,4.06729-.5716-.0082,4.3828-.00809,4.3828-.00821,4.3897-.0081,4.3828-.0081,4.3828-.0082,4.3896-4.0671.5717.0081-4.3897.0082-4.3828-4.06059.5707-4.06061.5707-.0082,4.3827-.0081,4.3898,4.0607-.5707-.0082,4.3828-4.0607.5707.0082-4.3828-4.0607.5707-.0081,4.3827-4.0671.5716-.00819,4.3828,4.06709-.5716-.00809,4.3827,4.06059-.5707.0082-4.3827,4.0607-.5706-.0082,4.3826,4.0606-.5706-.0082,4.3898,4.0671-.5717.00821-4.3897.00809-4.3827-4.06709.5716.00819-4.3828,4.0671-.5716-.0082,4.3828,4.0606-.5707.0081-4.3827.00821-4.3828,4.06059-.5707,4.0671-.5717-.008,4.3828-.0081,4.3829,4.0605-.5708-.00809,4.3827-4.06061.5707-.0081,4.3898m8.1049,7.6241-4.0607.5707.0082-4.3828,4.0605-.5707-.008,4.3828M226.2,246.9515l-.00821,4.3827-4.0605.5707.008-4.3828.0083-4.3896,4.0605-.5707L226.2,246.9515m.01619-8.7726-4.0606.5707-4.0604.5708.008-4.3829.0083-4.3896-4.0673.5716-.0081,4.3897-.0082,4.3828-4.0607.5707.0082-4.3828.0081-4.3898.0082-4.3827.0081-4.3828,4.0607-.5707-.0081,4.3828,4.0671-.5716.0081-4.3828,4.0606-.5707-.00819,4.3828-4.06051.5707-.008,4.3828,4.06051-.5707-.00831,4.3896,4.0607-.5705-.0082,4.3826m.0896-48.2312-.0081,4.3828-.0081,4.3827-.0082,4.3898-.0081,4.3828-.0082,4.3827-.00809,4.3827-4.06061.5707-4.0605.5707-4.0673.5716-4.06059.5706-4.06061.5707-4.0671.5717-4.0605.5707.0081-4.3827.008-4.3828.0082-4.3828.0083-4.3897.008-4.3828.0081-4.3828.0082-4.3897,4.0605-.5707,4.0672-.5716,4.06061-.5707,4.06069-.5706,4.0671-.5716,4.0605-.5707,4.06071-.5708-.00821,4.3898" transform="translate(-124.5495 -112.59447)"/><polygon points="101.61 156.278 101.602 160.661 97.541 161.231 97.549 156.848 101.61 156.278"/><polygon points="101.659 129.967 101.651 134.357 101.643 138.74 97.582 139.31 97.59 134.928 97.598 130.538 101.659 129.967"/><polygon class="cls-8" points="85.361 158.561 81.3 159.132 81.308 154.749 85.369 154.179 85.361 158.561"/><polygon points="97.623 117.383 97.614 121.772 101.675 121.202 101.667 125.585 97.606 126.155 93.546 126.726 93.554 122.343 93.562 117.953 97.623 117.383"/><polygon points="81.333 141.594 81.325 145.977 77.258 146.548 77.266 142.166 81.333 141.594"/><polygon class="cls-8" points="69.112 160.845 69.12 156.462 73.181 155.892 73.173 160.274 69.112 160.845"/><polygon points="73.173 160.274 69.112 160.845 69.12 156.462 73.181 155.892 73.173 160.274"/><polygon points="89.511 109.759 89.503 114.142 93.57 113.571 93.562 117.953 89.495 118.525 89.487 122.915 89.479 127.297 85.418 127.868 85.426 123.485 85.434 119.096 85.442 114.713 85.451 110.33 89.511 109.759"/><polygon class="cls-7" points="52.879 154.356 56.94 153.785 56.932 158.175 52.871 158.746 52.879 154.356"/><polygon class="cls-8" points="73.246 120.809 73.238 125.198 69.177 125.769 69.185 121.379 73.246 120.809"/><polygon class="cls-7" points="65.116 126.34 61.049 126.911 61.058 122.522 65.125 121.95 65.116 126.34"/><polygon class="cls-7" points="56.964 140.637 56.956 145.02 52.895 145.591 52.904 141.208 52.912 136.818 56.972 136.248 61.033 135.677 61.041 131.294 65.108 130.722 65.1 135.105 65.092 139.495 61.025 140.067 56.964 140.637"/><polygon points="69.218 103.841 69.21 108.224 65.149 108.795 65.157 104.412 69.218 103.841"/><polygon points="65.165 100.029 65.157 104.412 61.09 104.984 61.098 100.601 65.165 100.029"/><polygon points="97.704 73.534 101.765 72.963 101.756 77.353 101.748 81.736 101.74 86.119 101.732 90.508 101.724 94.891 101.716 99.274 101.708 103.657 97.647 104.227 93.586 104.798 89.519 105.37 85.459 105.94 81.398 106.511 77.331 107.083 73.27 107.653 73.278 103.271 73.287 98.888 73.295 94.505 73.303 90.115 73.311 85.733 73.319 81.35 73.327 76.96 77.388 76.389 81.455 75.818 85.516 75.247 89.576 74.676 93.643 74.105 97.704 73.534"/><polygon points="61.09 104.984 61.082 109.366 57.021 109.937 57.03 105.554 61.09 104.984"/><polygon points="36.704 117.181 36.695 121.564 40.756 120.993 40.748 125.376 44.809 124.805 48.869 124.235 52.936 123.663 52.928 128.053 48.861 128.624 44.8 129.195 40.74 129.766 36.679 130.336 36.687 125.947 32.62 126.518 32.628 122.135 28.568 122.706 28.56 127.089 32.62 126.518 32.612 130.908 36.679 130.336 36.671 134.719 36.663 139.102 32.596 139.673 32.604 135.291 28.543 135.861 28.535 140.244 24.475 140.815 20.407 141.386 20.416 137.004 16.355 137.574 16.363 133.192 16.371 128.802 20.432 128.231 24.499 127.66 24.507 123.277 20.44 123.848 16.379 124.419 16.388 120.036 20.448 119.466 24.515 118.894 28.576 118.323 32.636 117.753 36.704 117.181"/><polygon points="77.323 111.472 81.39 110.901 81.382 115.284 81.374 119.666 81.365 124.056 81.357 128.439 81.349 132.822 81.341 137.211 77.274 137.783 77.282 133.393 77.29 129.01 73.23 129.581 69.169 130.152 69.161 134.535 69.153 138.924 65.092 139.495 65.1 135.105 65.108 130.722 61.041 131.294 61.033 135.677 56.972 136.248 52.912 136.818 52.904 141.208 52.895 145.591 48.828 146.162 48.837 141.779 48.845 137.39 44.784 137.96 40.723 138.531 40.732 134.148 44.792 133.578 48.853 133.007 52.92 132.435 52.928 128.053 56.989 127.482 56.997 123.092 61.058 122.522 61.049 126.911 65.116 126.34 65.125 121.95 61.058 122.522 61.066 118.139 61.074 113.756 65.141 113.184 65.133 117.567 69.193 116.996 69.202 112.614 73.262 112.043 73.254 116.426 77.315 115.855 77.323 111.472"/><polygon points="36.638 152.257 36.63 156.64 36.622 161.03 36.614 165.412 32.547 165.984 28.486 166.555 24.426 167.125 24.434 162.743 24.442 158.353 24.45 153.97 28.511 153.399 32.571 152.829 36.638 152.257"/><polygon class="cls-7" points="57.029 105.554 57.021 109.937 52.961 110.508 52.969 106.125 52.977 101.742 57.038 101.172 57.046 96.789 57.054 92.399 61.115 91.828 65.182 91.257 65.173 95.646 65.165 100.029 61.098 100.601 61.09 104.984 57.029 105.554"/><polygon class="cls-8" points="65.198 82.491 65.19 86.874 61.123 87.446 61.131 83.063 65.198 82.491"/><polygon points="65.19 86.874 61.123 87.446 61.131 83.063 65.198 82.491 65.19 86.874"/><polygon points="52.977 101.742 52.969 106.125 52.961 110.508 48.894 111.079 48.902 106.697 48.91 102.314 52.977 101.742"/><polygon points="52.953 114.897 52.944 119.28 48.877 119.852 44.817 120.423 40.756 120.993 40.764 116.61 44.825 116.04 48.885 115.469 52.953 114.897"/><polygon points="57.054 92.399 57.046 96.789 57.038 101.172 52.977 101.742 52.985 97.359 48.918 97.931 48.926 93.541 52.993 92.97 57.054 92.399"/><polygon class="cls-8" points="28.568 122.706 32.628 122.135 32.62 126.518 28.56 127.089 28.568 122.706"/><polygon points="65.206 78.101 69.267 77.531 69.259 81.92 69.25 86.303 69.242 90.686 69.234 95.076 69.226 99.459 65.165 100.029 65.173 95.646 65.182 91.257 61.115 91.828 57.054 92.399 57.062 88.016 53.001 88.587 48.934 89.159 48.942 84.776 53.009 84.204 57.07 83.633 57.078 79.244 61.139 78.673 65.206 78.101"/><polygon points="40.813 90.3 40.805 94.683 40.797 99.072 40.789 103.455 40.781 107.838 36.72 108.409 32.653 108.98 28.592 109.551 24.531 110.122 20.464 110.693 20.473 106.31 20.481 101.928 20.489 97.538 20.497 93.155 20.505 88.772 24.572 88.201 28.633 87.63 32.693 87.059 36.761 86.488 40.821 85.917 40.813 90.3"/><polygon class="cls-8" points="28.592 109.551 24.531 110.122 20.464 110.693 20.473 106.31 20.481 101.928 20.489 97.538 20.497 93.155 20.505 88.772 24.572 88.201 28.633 87.63 32.693 87.059 36.761 86.488 40.821 85.917 40.813 90.3 40.805 94.683 40.797 99.072 40.789 103.455 40.781 107.838 36.72 108.409 32.653 108.98 28.592 109.551"/><polygon class="cls-8" points="24.548 101.356 24.556 96.966 24.564 92.584 28.625 92.013 32.685 91.442 36.752 90.871 36.744 95.253 36.736 99.643 36.728 104.026 32.661 104.597 28.6 105.168 24.54 105.739 24.548 101.356"/><polygon points="40.829 81.527 44.89 80.957 44.882 85.346 44.874 89.729 44.865 94.112 44.857 98.502 44.849 102.884 44.841 107.267 44.833 111.65 40.772 112.221 36.712 112.791 32.645 113.363 28.584 113.934 24.523 114.504 20.456 115.076 16.396 115.647 16.404 111.264 16.412 106.881 16.42 102.498 16.428 98.109 16.436 93.726 16.444 89.343 16.453 84.953 20.513 84.383 24.58 83.811 28.641 83.24 32.702 82.67 36.769 82.098 40.829 81.527"/></g><g class="cls-4"><g class="cls-4"><g class="cls-9"><g class="cls-4"><path class="cls-10" d="M319.23369,367.4511l-5.276-2.8701a13.67618,13.67618,0,0,0,3.7817-1.1559l5.276,2.8701a13.67618,13.67618,0,0,1-3.7817,1.1559" transform="translate(-124.5495 -112.59447)"/><path class="cls-11" d="M323.01539,366.2952l-5.276-2.8701a14.90645,14.90645,0,0,0,2.1398-1.234l5.276,2.8701a14.92131,14.92131,0,0,1-2.1398,1.234" transform="translate(-124.5495 -112.59447)"/><path class="cls-12" d="M325.15519,365.0612l-5.276-2.8701a15.7141,15.7141,0,0,0,1.5707-1.243l5.276,2.8701a15.7141,15.7141,0,0,1-1.5707,1.243" transform="translate(-124.5495 -112.59447)"/><path class="cls-13" d="M326.72589,363.8182l-5.276-2.8701a16.18315,16.18315,0,0,0,1.3018-1.3146l5.276,2.8701a16.18315,16.18315,0,0,1-1.3018,1.3146" transform="translate(-124.5495 -112.59447)"/><path class="cls-14" d="M328.02769,362.5036l-5.276-2.8701a16.35334,16.35334,0,0,0,1.133-1.4374l5.2759,2.8701a16.3335,16.3335,0,0,1-1.1329,1.4374" transform="translate(-124.5495 -112.59447)"/><path class="cls-15" d="M329.16059,361.0662l-5.2759-2.8701a16.257,16.257,0,0,0,1.0079-1.6346l5.276,2.8701a16.26911,16.26911,0,0,1-1.008,1.6346" transform="translate(-124.5495 -112.59447)"/><path class="cls-16" d="M330.16859,359.4316l-5.276-2.8701a15.85393,15.85393,0,0,0,.922-2.0489l5.2759,2.87a15.84108,15.84108,0,0,1-.9219,2.049" transform="translate(-124.5495 -112.59447)"/><path class="cls-17" d="M331.09049,357.3826l-5.2759-2.87a14.71507,14.71507,0,0,0,.9155-5.0915l5.276,2.8701a14.71185,14.71185,0,0,1-.9156,5.0914" transform="translate(-124.5495 -112.59447)"/></g></g></g><polygon class="cls-18" points="95.98 269.72 90.704 266.85 189.408 251.987 194.684 254.857 95.98 269.72"/><g class="cls-4"><g class="cls-19"><g class="cls-4"><path class="cls-12" d="M213.50829,381.1236l-5.2759-2.87q.18975.1032.3843.1989l5.276,2.8701q-.19453-.0957-.3844-.199" transform="translate(-124.5495 -112.59447)"/><path class="cls-11" d="M213.89269,381.3226l-5.276-2.8701a10.69277,10.69277,0,0,0,2.05731.7601l5.276,2.8701a10.69941,10.69941,0,0,1-2.05731-.7601" transform="translate(-124.5495 -112.59447)"/><path class="cls-10" d="M215.95,382.0827l-5.276-2.8701a11.75108,11.75108,0,0,0,4.57909.2314l5.276,2.87a11.74921,11.74921,0,0,1-4.57909-.2313" transform="translate(-124.5495 -112.59447)"/></g></g></g><g class="cls-4"><g class="cls-20"><g class="cls-4"><path class="cls-21" d="M213.495,381.0951l-5.276-2.8701a11.22362,11.22362,0,0,1-5.68441-10.1088l5.276,2.87a11.22366,11.22366,0,0,0,5.68441,10.1089" transform="translate(-124.5495 -112.59447)"/></g></g></g><g class="cls-4"><g class="cls-22"><g class="cls-4"><path class="cls-17" d="M211.136,385.1022l-5.27591-2.8701a14.96255,14.96255,0,0,1-7.5903-13.4666l5.276,2.8701a14.96265,14.96265,0,0,0,7.59021,13.4666" transform="translate(-124.5495 -112.59447)"/></g></g></g><polygon class="cls-23" points="207.457 239.697 202.181 236.827 201.459 15.889 206.735 18.759 207.457 239.697"/><g class="cls-4"><g class="cls-24"><g class="cls-4"><path class="cls-17" d="M331.28419,131.3532l-5.276-2.8701a11.26683,11.26683,0,0,0-5.6979-10.138l5.2759,2.8701a11.2666,11.2666,0,0,1,5.698,10.138" transform="translate(-124.5495 -112.59447)"/></g></g></g><g class="cls-4"><g class="cls-25"><g class="cls-4"><path class="cls-26" d="M318.44059,120.0435l-5.276-2.8701a12.04577,12.04577,0,0,1,4.6967.2339l5.276,2.87a12.04582,12.04582,0,0,0-4.6967-.2338" transform="translate(-124.5495 -112.59447)"/><path class="cls-27" d="M323.13729,120.2773l-5.276-2.87a10.807,10.807,0,0,1,2.0786.768l5.276,2.8701a10.80725,10.80725,0,0,0-2.0786-.7681" transform="translate(-124.5495 -112.59447)"/><path class="cls-28" d="M325.21589,121.0454l-5.276-2.8701q.1944.0957.384.1988l5.2759,2.8701q-.18945-.10305-.3839-.1988" transform="translate(-124.5495 -112.59447)"/></g></g></g><g class="cls-4"><g class="cls-29"><g class="cls-4"><path class="cls-10" d="M318.43019,115.6332l-5.2759-2.8701a16.00253,16.00253,0,0,1,6.2383.3123l5.276,2.8701a16.00293,16.00293,0,0,0-6.2384-.3123" transform="translate(-124.5495 -112.59447)"/><path class="cls-11" d="M324.66859,115.9455l-5.276-2.8701a14.42526,14.42526,0,0,1,2.7747,1.0253l5.276,2.8701a14.42526,14.42526,0,0,0-2.7747-1.0253" transform="translate(-124.5495 -112.59447)"/><path class="cls-12" d="M327.44329,116.9708l-5.276-2.8701q.26.128.5136.2659l5.2759,2.8701q-.2535-.13785-.5135-.2659" transform="translate(-124.5495 -112.59447)"/></g></g></g><polygon class="cls-6" points="173.55 10.508 168.274 7.638 188.615 4.579 193.891 7.449 173.55 10.508"/><g class="cls-4"><g class="cls-30"><g class="cls-4"><path class="cls-21" d="M293.97189,130.1089l-5.276-2.8701a6.76871,6.76871,0,0,0,.4212-2.3541,4.95877,4.95877,0,0,1,.3027-1.7214l5.276,2.87a4.95975,4.95975,0,0,0-.3027,1.7215,6.76871,6.76871,0,0,1-.4212,2.3541" transform="translate(-124.5495 -112.59447)"/><path class="cls-31" d="M294.69579,126.0333l-5.276-2.87a4.879,4.879,0,0,1,.2829-.6295l5.276,2.87a4.89133,4.89133,0,0,0-.2829.6295" transform="translate(-124.5495 -112.59447)"/><path class="cls-32" d="M294.97869,125.4038l-5.276-2.87a4.8093,4.8093,0,0,1,.2997-.4863l5.276,2.8701a4.80781,4.80781,0,0,0-.2997.4862" transform="translate(-124.5495 -112.59447)"/><path class="cls-33" d="M295.27839,124.9176l-5.276-2.8701a4.71633,4.71633,0,0,1,.3265-.4144l5.276,2.8701a4.70157,4.70157,0,0,0-.3265.4144" transform="translate(-124.5495 -112.59447)"/><path class="cls-34" d="M295.60489,124.5032l-5.276-2.8701a4.58382,4.58382,0,0,1,.3708-.3745l5.276,2.8701a4.58382,4.58382,0,0,0-.3708.3745" transform="translate(-124.5495 -112.59447)"/><path class="cls-28" d="M295.97569,124.1287l-5.276-2.8701a4.43255,4.43255,0,0,1,.44231-.3499l5.276,2.8701a4.43255,4.43255,0,0,0-.44231.3499" transform="translate(-124.5495 -112.59447)"/><path class="cls-27" d="M296.418,123.7788l-5.276-2.8701a4.20193,4.20193,0,0,1,.60349-.3477l5.2759,2.8701a4.20633,4.20633,0,0,0-.60339.3477" transform="translate(-124.5495 -112.59447)"/><path class="cls-26" d="M297.02139,123.4311l-5.2759-2.8701a3.89453,3.89453,0,0,1,1.0784-.3288l5.276,2.8701a3.89622,3.89622,0,0,0-1.0785.3288" transform="translate(-124.5495 -112.59447)"/></g></g></g><g class="cls-4"><g class="cls-35"><g class="cls-4"><path class="cls-26" d="M288.52239,134.7322l-5.276-2.8701a6.2858,6.2858,0,0,0,1.7423-.532l5.276,2.8701a6.2858,6.2858,0,0,1-1.7423.532" transform="translate(-124.5495 -112.59447)"/><path class="cls-27" d="M290.26469,134.2002l-5.276-2.8701a6.83617,6.83617,0,0,0,.9827-.5667l5.276,2.8701a6.84557,6.84557,0,0,1-.9827.5667" transform="translate(-124.5495 -112.59447)"/><path class="cls-28" d="M291.24739,133.6335l-5.276-2.8701a7.20609,7.20609,0,0,0,.7212-.5706l5.276,2.87a7.20708,7.20708,0,0,1-.7212.5707" transform="translate(-124.5495 -112.59447)"/><path class="cls-34" d="M291.96859,133.0628l-5.276-2.87a7.44529,7.44529,0,0,0,.5975-.6034l5.276,2.8701a7.42787,7.42787,0,0,1-.5975.6033" transform="translate(-124.5495 -112.59447)"/><path class="cls-33" d="M292.56609,132.4595l-5.276-2.8701a7.51341,7.51341,0,0,0,.51991-.6597l5.276,2.8701a7.51341,7.51341,0,0,1-.51991.6597" transform="translate(-124.5495 -112.59447)"/><path class="cls-32" d="M293.086,131.7998l-5.276-2.8701a7.4571,7.4571,0,0,0,.46259-.7501l5.276,2.8701a7.47966,7.47966,0,0,1-.46259.7501" transform="translate(-124.5495 -112.59447)"/><path class="cls-31" d="M293.54859,131.0497l-5.276-2.8701a7.2773,7.2773,0,0,0,.4233-.9408l5.276,2.8701a7.2773,7.2773,0,0,1-.4233.9408" transform="translate(-124.5495 -112.59447)"/><path class="cls-21" d="M293.97189,130.1089l-5.276-2.8701a6.76871,6.76871,0,0,0,.4212-2.3541,4.95877,4.95877,0,0,1,.3027-1.7214l5.276,2.87a4.95975,4.95975,0,0,0-.3027,1.7215,6.76871,6.76871,0,0,1-.4212,2.3541" transform="translate(-124.5495 -112.59447)"/></g></g></g><polygon class="cls-6" points="127.577 27.613 122.301 24.743 158.697 19.268 163.973 22.138 127.577 27.613"/><g class="cls-4"><g class="cls-36"><g class="cls-4"><path class="cls-26" d="M250.04729,140.1041l-5.276-2.8701a5.3395,5.3395,0,0,0,2.0796.1037l5.276,2.8701a5.3395,5.3395,0,0,1-2.0796-.1037" transform="translate(-124.5495 -112.59447)"/></g></g></g><g class="cls-4"><g class="cls-37"><g class="cls-4"><path class="cls-28" d="M248.94769,139.6724l-5.276-2.8701q.0864.04695.1748.0904l5.2759,2.8701q-.08835-.0435-.1747-.0904" transform="translate(-124.5495 -112.59447)"/><path class="cls-27" d="M249.12239,139.7628l-5.2759-2.8701a4.81106,4.81106,0,0,0,.9248.3413l5.276,2.8701a4.82112,4.82112,0,0,1-.9249-.3413" transform="translate(-124.5495 -112.59447)"/><path class="cls-26" d="M250.04729,140.1041l-5.276-2.8701a5.3395,5.3395,0,0,0,2.0796.1037l5.276,2.8701a5.3395,5.3395,0,0,1-2.0796-.1037" transform="translate(-124.5495 -112.59447)"/></g></g></g><g class="cls-4"><g class="cls-38"><g class="cls-4"><path class="cls-17" d="M248.89609,139.6445l-5.2759-2.8701a5.15249,5.15249,0,0,1-2.6109-4.6385l5.276,2.8701a5.1526,5.1526,0,0,0,2.6108,4.6385" transform="translate(-124.5495 -112.59447)"/></g></g></g><g class="cls-4"><g class="cls-39"><g class="cls-4"><path class="cls-17" d="M246.28529,135.006l-5.276-2.8701a3.49853,3.49853,0,0,0-1.6934-3.2088l5.276,2.8701a3.49853,3.49853,0,0,1,1.6934,3.2088" transform="translate(-124.5495 -112.59447)"/></g></g></g><g class="cls-4"><g class="cls-40"><g class="cls-4"><path class="cls-26" d="M242.55679,131.4685l-5.276-2.87a3.50744,3.50744,0,0,1,1.368.0679l5.276,2.87a3.51126,3.51126,0,0,0-1.368-.0679" transform="translate(-124.5495 -112.59447)"/><path class="cls-27" d="M243.92479,131.5364l-5.276-2.87a3.13092,3.13092,0,0,1,.6029.2227l5.276,2.8701a3.13783,3.13783,0,0,0-.6029-.2228" transform="translate(-124.5495 -112.59447)"/><path class="cls-28" d="M244.52769,131.7592l-5.276-2.8701q.05625.02775.1112.0576l5.276,2.8701q-.0549-.02985-.1112-.0576" transform="translate(-124.5495 -112.59447)"/></g></g></g><polygon class="cls-6" points="95.302 22.295 90.026 19.425 112.731 16.004 118.007 18.874 95.302 22.295"/><polygon class="cls-18" points="95.292 17.885 90.016 15.015 188.605 0.169 193.881 3.039 95.292 17.885"/><polygon class="cls-5" points="83.261 258.392 77.985 255.522 77.263 34.584 82.539 37.454 83.261 258.392"/><polygon class="cls-23" points="78.996 259.041 73.72 256.171 72.999 35.223 78.275 38.093 78.996 259.041"/><g class="cls-4"><g class="cls-41"><g class="cls-4"><path class="cls-21" d="M207.08879,150.0484l-5.276-2.8701a14.685,14.685,0,0,1,.9141-5.101l5.276,2.87a14.68593,14.68593,0,0,0-.9141,5.1011" transform="translate(-124.5495 -112.59447)"/><path class="cls-31" d="M208.00289,144.9473l-5.276-2.87a15.81886,15.81886,0,0,1,.9203-2.0453l5.276,2.8701a15.82368,15.82368,0,0,0-.9203,2.0452" transform="translate(-124.5495 -112.59447)"/><path class="cls-32" d="M208.92319,142.9021l-5.276-2.8701a16.23427,16.23427,0,0,1,1.0064-1.6319l5.2759,2.87a16.2461,16.2461,0,0,0-1.0063,1.632" transform="translate(-124.5495 -112.59447)"/><path class="cls-33" d="M209.92949,141.2701l-5.2759-2.87a16.32961,16.32961,0,0,1,1.1315-1.4357l5.276,2.8701a16.3629,16.3629,0,0,0-1.1316,1.4356" transform="translate(-124.5495 -112.59447)"/><path class="cls-34" d="M211.06109,139.8345l-5.276-2.8701a16.16834,16.16834,0,0,1,1.3006-1.3133l5.276,2.8701a16.16834,16.16834,0,0,0-1.3006,1.3133" transform="translate(-124.5495 -112.59447)"/><path class="cls-28" d="M212.36169,138.5212l-5.276-2.8701a15.68278,15.68278,0,0,1,1.5697-1.2421l5.276,2.8701a15.68278,15.68278,0,0,0-1.5697,1.2421" transform="translate(-124.5495 -112.59447)"/><path class="cls-27" d="M213.93139,137.2791l-5.276-2.8701a14.90278,14.90278,0,0,1,2.1391-1.2337l5.276,2.8701a14.89735,14.89735,0,0,0-2.1391,1.2337" transform="translate(-124.5495 -112.59447)"/><path class="cls-26" d="M216.07049,136.0454l-5.276-2.8701a13.67645,13.67645,0,0,1,3.7814-1.1558l5.276,2.8701a13.67645,13.67645,0,0,0-3.7814,1.1558" transform="translate(-124.5495 -112.59447)"/></g></g></g><path class="cls-42" d="M335.54879,130.7138l.7219,220.938c.02831,9.7297-7.6074,18.7958-17.02669,20.2095l-98.57941,14.8449c-9.4968,1.3354-17.09059-5.4067-17.1188-15.0706l-.72179-220.948c-.02831-9.7297,7.60729-18.7958,17.01729-20.2084l98.5889-14.846C327.92679,114.2978,335.52079,121.0399,335.54879,130.7138Zm-16.3151,236.7373c7.0738-1.064,12.7866-7.8494,12.7724-15.1599l-.7219-220.938c-.0234-7.2667-5.7017-12.3147-12.7185-11.3281l-20.466,3.077a4.54708,4.54708,0,0,0-3.7064,4.4125,7.24669,7.24669,0,0,1-5.871,7.2175l-36.3241,5.4651a5.053,5.053,0,0,1-5.9129-5.1912c-.0049-2.3679-1.651-3.8298-3.6926-3.5429l-22.741,3.4263c-7.0739,1.0642-12.7865,7.8493-12.7629,15.1588l.7216,220.938c.0234,7.2665,5.7019,12.314,12.7187,11.3278l98.7046-14.8629" transform="translate(-124.5495 -112.59447)"/><path class="cls-7" d="M318.44059,120.0435c7.1419-1.0049,12.8203,4.0432,12.8437,11.3099l.7218,220.9378c.0142,7.3107-5.6985,14.0959-12.7723,15.1601l-98.5795,14.8448c-7.1419,1.0043-12.82029-4.0433-12.8437-11.3099l-.7218-220.9378c-.0235-7.3095,5.68921-14.0946,12.7631-15.1588l22.7049-3.4211a3.18789,3.18789,0,0,1,3.7291,3.2874c.0117,3.5851,2.6197,5.9046,5.841,5.4519l36.3955-5.4756a7.18058,7.18058,0,0,0,5.8707-6.9774,4.616,4.616,0,0,1,3.7068-4.6525Z" transform="translate(-124.5495 -112.59447)"/><g class="cls-4"><g class="cls-43"><g class="cls-4"><path class="cls-17" d="M202.824,150.6876l-5.276-2.87a19.53379,19.53379,0,0,1,1.21679-6.7786l5.276,2.8701a19.53323,19.53323,0,0,0-1.21679,6.7785" transform="translate(-124.5495 -112.59447)"/><path class="cls-16" d="M204.04079,143.9091l-5.276-2.8701a21.1517,21.1517,0,0,1,1.229-2.7314l5.276,2.8701a21.12455,21.12455,0,0,0-1.229,2.7314" transform="translate(-124.5495 -112.59447)"/><path class="cls-15" d="M205.26979,141.1777l-5.276-2.8701a21.71552,21.71552,0,0,1,1.3459-2.1823l5.2759,2.87a21.74566,21.74566,0,0,0-1.3458,2.1824" transform="translate(-124.5495 -112.59447)"/><path class="cls-14" d="M206.61559,138.9953l-5.2759-2.87a21.84944,21.84944,0,0,1,1.5135-1.9204l5.276,2.8701a21.88273,21.88273,0,0,0-1.5136,1.9203" transform="translate(-124.5495 -112.59447)"/><path class="cls-13" d="M208.12919,137.075l-5.276-2.8701a21.61352,21.61352,0,0,1,1.7394-1.7564l5.276,2.8701a21.61352,21.61352,0,0,0-1.7394,1.7564" transform="translate(-124.5495 -112.59447)"/><path class="cls-12" d="M209.86859,135.3186l-5.276-2.8701a20.97871,20.97871,0,0,1,2.0963-1.659l5.276,2.8701a20.97871,20.97871,0,0,0-2.0963,1.659" transform="translate(-124.5495 -112.59447)"/><path class="cls-11" d="M211.96489,133.6596l-5.276-2.8701a19.86583,19.86583,0,0,1,2.8518-1.6447l5.276,2.87a19.87586,19.87586,0,0,0-2.8518,1.6448" transform="translate(-124.5495 -112.59447)"/><path class="cls-10" d="M214.81669,132.0148l-5.276-2.87a18.15473,18.15473,0,0,1,5.0246-1.5357l5.276,2.8701a18.15453,18.15453,0,0,0-5.0246,1.5356" transform="translate(-124.5495 -112.59447)"/></g></g></g></g><g class="cls-4"><path class="cls-44" d="M307.75249,315.9372h0a9.48347,9.48347,0,0,1-8.0449,9.4619l-52.6051,8.0708a9.48359,9.48359,0,0,1-10.9213-9.2858v-.0001a9.48362,9.48362,0,0,1,8.045-9.4618l52.6051-8.0708A9.48345,9.48345,0,0,1,307.75249,315.9372Z" transform="translate(-124.5495 -112.59447)"/></g><text class="cls-45" transform="matrix(0.96415, -0.1543, -0.02144, 0.99977, 133.77343, 213.30496)">SCAN</text><polygon class="cls-46" points="100.589 97.111 116.567 94.24 173.949 83.929 189.83 81.076 189.83 101.928 189.83 170.318 100.589 186.353 100.589 97.111 100.589 97.111"/><path class="cls-47" d="M234.21579,240.8479l3.3851-.6082,3.38511-.6083,3.385-.6082,3.38509-.6083,3.385-.6082,3.3851-.6083,3.385-.6082V212.8947l-3.385.6083-3.3851.6082-3.385.6083-3.38509.6082-3.385.6083-3.38511.6082-3.3851.6083v23.6954m3.3851-3.9933,3.38511-.6083,3.385-.6082,3.38509-.6083,3.385-.6082,3.3851-.6083V216.8881l-3.3851.6082-3.385.6083-3.38509.6082-3.385.6083-3.38511.6082v16.9253" transform="translate(-124.5495 -112.59447)"/><path class="cls-47" d="M274.83659,226.7788l3.385-.6083V209.2452l-3.385.6082-3.3851.6083-3.3851.6082v3.3851l-3.385.6083-3.3851.6082v3.3851l3.3851-.6083,3.385-.6082v3.3851l3.3851-.6083,3.3851-.6083v6.7702m-3.3851-9.547,3.3851-.6082v-3.3851l-3.3851.6083v3.385" transform="translate(-124.5495 -112.59447)"/><path class="cls-47" d="M281.60669,232.3324l3.385-.6083,3.3851-.6082,3.385-.6083,3.3851-.6082,3.38511-.6083,3.38509-.6083,3.385-.6082V204.3791l-3.385.6083-3.38509.6083-3.38511.6082-3.3851.6083-3.385.6082-3.3851.6083-3.385.6082v23.6955m3.385-3.9934,3.3851-.6082,3.385-.6083,3.3851-.6082,3.38511-.6083,3.38509-.6082V208.3725l-3.38509.6082-3.38511.6083-3.3851.6083-3.385.6082-3.3851.6083V228.339" transform="translate(-124.5495 -112.59447)"/><polyline class="cls-47" points="116.437 120.267 119.822 119.659 123.207 119.05 126.592 118.442 126.592 115.057 126.592 111.672 126.592 108.287 123.207 108.895 119.822 109.503 116.437 110.112 116.437 113.497 116.437 116.882 116.437 120.267"/><polyline class="cls-47" points="163.827 111.751 167.212 111.143 170.597 110.535 173.983 109.927 173.983 106.541 173.983 103.156 173.983 99.771 170.597 100.38 167.212 100.988 163.827 101.596 163.827 104.981 163.827 108.366 163.827 111.751"/><polyline class="cls-47" points="140.132 116.009 143.517 115.401 143.517 112.016 143.517 108.631 140.132 109.239 136.747 109.847 136.747 113.232 140.132 112.624 140.132 116.009"/><polyline class="cls-47" points="136.747 123.387 140.132 122.779 140.132 119.394 140.132 116.009 136.747 116.617 136.747 120.002 136.747 123.387"/><polyline class="cls-47" points="146.902 118.178 150.287 117.569 150.287 114.184 146.902 114.793"/><polyline class="cls-47" points="143.517 122.171 146.902 121.563 146.902 118.178 143.517 118.786"/><polyline class="cls-47" points="150.287 120.954 153.672 120.346 153.672 116.961 150.287 117.569"/><polyline class="cls-47" points="140.132 126.164 143.517 125.556 143.517 122.171 140.132 122.779"/><polyline class="cls-47" points="113.051 147.956 116.437 147.347 119.822 146.739 119.822 143.354 123.207 142.746 123.207 146.131 126.592 145.523 126.592 142.138 126.592 138.752 123.207 139.361 123.207 135.976 119.822 136.584 119.822 133.199 123.207 132.591 123.207 135.976 126.592 135.367 126.592 138.752 129.977 138.144 133.362 137.536 136.747 136.928 140.132 136.319 140.132 132.934 136.747 133.543 133.362 134.151 129.977 134.759 129.977 131.374 126.592 131.982 126.592 128.597 123.207 129.206 119.822 129.814 116.437 130.422 113.051 131.03 109.666 131.639 109.666 135.024 113.051 134.415 116.437 133.807 116.437 137.192 113.051 137.8 109.666 138.409 109.666 141.794 109.666 145.179 113.051 144.571 113.051 147.956"/><polyline class="cls-47" points="129.977 131.374 133.362 130.766 136.747 130.158 140.132 129.549 140.132 126.164 136.747 126.772 133.362 127.381 129.977 127.989 129.977 131.374"/><path class="cls-47" d="M261.29629,263.0624l3.3851-.6083V255.684l3.385-.6082,3.3851-.6083v-3.3851l3.3851-.6082v6.7701l3.385-.6083v-6.7701l3.3851-.6083,3.385-.6082v6.7701l3.3851-.6082V234.5009l-3.3851.6083v3.385l-3.385.6083v-3.3851l-3.3851.6083v3.3851l-3.385.6082v-3.3851l-3.3851.6083v6.7701l3.3851-.6083v3.3851l-3.3851.6083v-3.3851l-3.3851.6082v3.3851l-3.385.6083v3.385l-3.3851.6083-3.3851.6082-3.385.6083v3.3851l3.385-.6083,3.3851-.6082v6.7701m16.9253-16.5815,3.3851-.6083v-3.3851l-3.3851.6083v3.3851" transform="translate(-124.5495 -112.59447)"/><polyline class="cls-47" points="167.212 134.838 170.597 134.23 170.597 130.845 170.597 127.46 173.983 126.852 173.983 123.467 170.597 124.075 170.597 120.69 167.212 121.298 167.212 124.683 167.212 128.068 167.212 131.453 167.212 134.838"/><polyline class="cls-47" points="173.983 123.467 177.368 122.859 177.368 119.473 173.983 120.082"/><polyline class="cls-47" points="173.983 133.622 177.368 133.014 180.753 132.405 180.753 129.02 177.368 129.629 177.368 126.244 173.983 126.852 173.983 130.237 173.983 133.622"/><polyline class="cls-47" points="177.368 143.169 180.753 142.561 180.753 139.176 180.753 135.791 177.368 136.399 177.368 139.784 177.368 143.169"/><path class="cls-47" d="M234.21579,288.2388l3.3851-.6083,3.38511-.6082,3.385-.6083,3.38509-.6082,3.385-.6083,3.3851-.6082,3.385-.6083V260.2856l-3.385.6082-3.3851.6083-3.385.6082-3.38509.6083-3.385.6082-3.38511.6083-3.3851.6082v23.6955m3.3851-3.9933,3.38511-.6083,3.385-.6083,3.38509-.6082,3.385-.6083,3.3851-.6082V264.2789l-3.3851.6083-3.385.6082-3.38509.6083-3.385.6082-3.38511.6083v16.9253" transform="translate(-124.5495 -112.59447)"/><path class="cls-47" d="M261.29629,283.3728l3.3851-.6083v-6.7701l3.385-.6083V272.001l-3.385.6083v-3.385l3.385-.6083v3.385l3.3851-.6082,3.3851-.6083v3.3851l-3.3851.6083-3.3851.6082v6.7701l3.3851-.6082v-3.3851l3.3851-.6083v3.3851l3.385-.6082v-3.3851l3.3851-.6083,3.385-.6082v3.3851l3.3851-.6083,3.385-.6082,3.3851-.6083,3.38511-.6082v-6.7702l-3.38511.6083V267.135l3.38511-.6083v-3.385l3.38509-.6082v-3.3851l-3.38509.6082v-6.7701l-3.38511.6082-3.3851.6083v6.7701l-3.385.6083v6.7701l3.385-.6082v3.385l-3.385.6083v-3.3851l-3.3851.6083v-3.3851l-3.385.6083v-3.3851l-3.3851.6083v3.385l-3.385.6083v-3.3851l-3.3851.6083v-3.3851l3.3851-.6082v-3.3851l-3.3851.6082-3.3851.6083v3.3851l-3.385.6082v3.3851l-3.3851.6082v16.9254m16.9253-9.8114,3.3851-.6083V269.568l-3.3851.6083v3.3851" transform="translate(-124.5495 -112.59447)"/><polyline class="cls-47" points="153.672 147.427 157.057 146.818 157.057 143.433 153.672 144.042"/><polyline class="cls-47" points="160.442 149.595 163.827 148.987 163.827 145.602 160.442 146.21"/><polyline class="cls-47" points="116.437 167.658 119.822 167.049 123.207 166.441 126.592 165.833 126.592 162.448 126.592 159.063 126.592 155.678 123.207 156.286 119.822 156.894 116.437 157.503 116.437 160.888 116.437 164.273 116.437 167.658"/><polyline class="cls-47" points="177.368 160.094 180.753 159.486 180.753 156.101 177.368 156.709"/><polygon class="cls-48" points="207.179 128.231 82.906 148.961 82.891 141.851 207.165 121.121 207.179 128.231"/></svg>