<svg xmlns="http://www.w3.org/2000/svg" xmlns:xlink="http://www.w3.org/1999/xlink" viewBox="0 0 107.20212 109.59736"><defs><style>.cls-1{fill:none;}.cls-2{isolation:isolate;}.cls-3{clip-path:url(#clip-path);}.cls-10,.cls-4{fill:#422900;}.cls-5{fill:#edf2ff;opacity:0.8;}.cls-6{fill:#d6001c;}.cls-7,.cls-9{fill:#fff;}.cls-7{opacity:0.2;}.cls-8{fill:#ecb478;}.cls-9{opacity:0.6;}.cls-10{mix-blend-mode:multiply;}.cls-10,.cls-12{opacity:0.4;}.cls-11{fill:#df8b2a;}.cls-12{fill:#5e96d1;}.cls-13{fill:#111104;}</style><clipPath id="clip-path" transform="translate(-316.84071 -31.80087)"><path class="cls-1" d="M325.80809,60.5688c0-4.8105-.1679-8.437,2.2344-12.5009,2.3594-3.9947,4.2119-7.4195,9.4297-7.4507,4.916-.0288,6.9355,5.5688,4.9131,9.5312a27.86829,27.86829,0,0,0-2.5244,5.8155c-.6123,2.2133-2.3995,3.7016-2.0274,6.0859,1.5986,1.1577,2.9268-1.5903,3.9453-2.478a24.14186,24.14186,0,0,0,3.74421-3.5327c1.20889-1.6011,5.73039-9.1973,7.53709-5.3174.1758-2.8306,3.37991-3.0757,5.0635-1.3111a2.39048,2.39048,0,0,1,2.6787-1.7348c1.6875.1084,1.413,1.1631,2.6953,1.8017.7011-1.2124,2.4551-1.6284,3.751-1.4951,1.89841.1948,1.4072,1.0181,2.2343,2.3467.53811-3.3828,4.4239-.064,5.0567,1.3135a6.29664,6.29664,0,0,1,.7685-2.0777,12.95379,12.95379,0,0,1,2.3174,1.7627c.1143-1.1494.25-3.0805,1.8564-2.7778.1944-2.4448,1.8448-4.6699,2.5098-7.0205.6602-2.3272,3.6035-4.9434,6.0537-2.8037,1.4532-1.5762,1.0567-3.0235,3.2168-4.1734,1.6133-.8588,5.2949-2.9653,5.3965.1988-.6572-.8281,1.0117-2.2422,1.9014-2.6616,1.3691-.6451,2.2802-.0054,3.62991-.0162.22159.6919.49309,1.3013.66009,1.9805a4.76468,4.76468,0,0,1,5.9082-.5845c2.4678,1.6079,2.51171,2.8218,2.7412,5.5645,1.4121.3721,1.7617-.3042,3.0147.3457,1.1006.5708,2.0556,2.1143,2.7021,3.0615,1.13871,1.6636,3.5332,5.3819.4668,6.4771,2.96491-.043,4.2266,1.2993,4.7598,4.2832.5176,2.8974-.33989,4.5805-2.6768,5.457,2.918.0381,4.3545,1.0879,4.2735,4.0586-.06059,2.165-1.1748,5.3853-3.6534,5.5859,3.6114,4.1529,1.2872,8.7452-2.99119,11.3145,3.14259-.1963,3.93749,3.1606,2.72169,5.2705a13.2983,13.2983,0,0,1-1.8193,2.7622c-1.2276,1.2026-2.2383,1.061-3.7442,1.5269,2.2149,2.3403,1.75,5.0556.0459,7.6826-1.2255,1.8877-5.7793,3.5478-7.6894,1.498-.2852,2.6612.7178,5.7334-1.9199,7.3428-2.5205,1.5342-4.2012-.6377-6.0606-2.1328.1445,1.4639-.8193,2.0742-1.9726,1.5332-1.0459-.4902-1.7754-2.3438-2.1553-3.3223-.5078-1.3144-1.4854-5.8193-3.2481-5.8691-.4209,1.8183.6602,3.8447.5606,5.7929-.1895,3.7237-1.0283.6954-3.0235,1.2745.09971.4502-.125.7959.13971,1.2656-1.19041.7471,3.10349,3.5576,3.73629,4.8271a45.37539,45.37539,0,0,1,2.6006,7.3848c.415,1.417,2.0527,6.3936-.3848,6.4443-2.375.0489-3.4697-3.833-5.3144-4.8183-.2813,1.1953,1.084,3.2051,1.2861,4.4424-1.1426.081-1.54779.5097-2.6543-.0245-.7988-.3857-1.459-1.5517-2.1631-2.04.083,1.0713.7891,2.1397.8262,3.2998-2.9043.7344-9.0928-4.0498-10.26559-6.376.86909,1.7237,4.44819,6.3672,1.15619,6.1338-2.6386-.1865-2.9775-.6113-5.1875.9746-1.7148,1.2305-3.2002,1.8692-3.46769,4.2256a11.635,11.635,0,0,0,.23239,4.0596c.3359,1.1875,1.5234,2.0078,1.2568,3.2607-.4004-.0849-1.0439.1797-1.4433.0938a5.723,5.723,0,0,1-.4063,2.6631c-2.3769.2285-4.7695,1.0127-7.0068.9736-2.4727-.043-4.9424-1.3174-7.5655-.2832a15.21776,15.21776,0,0,1,8.7002-3.0938,6.65094,6.65094,0,0,1-1.7011-.0449c-.2979-1.289,1.831-1.9863,2.63861-2.7939a15.18791,15.18791,0,0,0,2.44829-3.9805c.7881-1.5303,1.415-2.5537.3916-4.2295-.9014-1.4765-2.4883-1.1719-3.959-1.4355-4.2227-.7578-8.0732-2.7383-9.8721,2.4385-1.1074,3.1933-1.00679,6.9023-.88179,10.2392-2.335-.9434-4.94241.8184-7.084,1.4092-3,.8281-5.61131,2.0293-8.86031,1.7217.2832-1.3067,3.4687-1.0176,3.666-2.3946.23531-1.6543-3.086-1.5029-3.9893-1.5957.8487-1.4853,6.461-1.5205,8.2627-1.8056a12.54931,12.54931,0,0,0,3.37791-.9043c1.79979-.8203,1.17879-.8741,1.51859-2.7627.4531-2.5098,2.1143-4.8047,1.251-7.6817-.8242-2.747-3.6074-2.3369-5.5117-3.7548-2.003-1.4913-2.8331-3.7823-5.2696-5.004-2.2822-1.1435-4.2988-1.1298-6.36229-3.0371-.60641-.5615-1.46291-2.624-1.88871-2.8838-1.1279-.6894-1.166.8868-2.4619.8868-1.957,0-2.1103-3.2168-2.833-4.5869-2.4062,3.288-3.6953-3.2198-3.6601-5.2022-1.4014-.0449-2.3399.7461-3.4151-.5781-.7041-.8672-1.0273-2.9048.34481-3.2139-.169-1.2153-1.68361-1.8506-1.42481-3.3164.2714-1.5391,1.3251-1.852,1.163-3.6831a11.79346,11.79346,0,0,1,1.2979-7.2993,32.55061,32.55061,0,0,1,4.1445-5.3555c2.0557-2.1806,2.6475-2.5972,2.8477-5.7637.251-3.9921,2.9804-8.7148,4.59671-12.2631.61619-1.3521,3.17669-5.0171,1.25-6.17-1.669-.999-4.31061,1.8711-4.92681,3.0689-.8994,1.751-.8857,4.4971-2.1484,5.8481Z"/></clipPath></defs><g class="cls-2"><g id="Layer_1" data-name="Layer 1"><g class="cls-3"><path class="cls-4" d="M325.80809,60.5688c0-4.8105-.1679-8.437,2.2344-12.5009,2.3594-3.9947,4.2119-7.4195,9.4297-7.4507,4.916-.0288,6.9355,5.5688,4.9131,9.5312a27.86829,27.86829,0,0,0-2.5244,5.8155c-.6123,2.2133-2.3995,3.7016-2.0274,6.0859,1.5986,1.1577,2.9268-1.5903,3.9453-2.478a24.14186,24.14186,0,0,0,3.74421-3.5327c1.20889-1.6011,5.73039-9.1973,7.53709-5.3174.1758-2.8306,3.37991-3.0757,5.0635-1.3111a2.39048,2.39048,0,0,1,2.6787-1.7348c1.6875.1084,1.413,1.1631,2.6953,1.8017.7011-1.2124,2.4551-1.6284,3.751-1.4951,1.89841.1948,1.4072,1.0181,2.2343,2.3467.53811-3.3828,4.4239-.064,5.0567,1.3135a6.29664,6.29664,0,0,1,.7685-2.0777,12.95379,12.95379,0,0,1,2.3174,1.7627c.1143-1.1494.25-3.0805,1.8564-2.7778.1944-2.4448,1.8448-4.6699,2.5098-7.0205.6602-2.3272,3.6035-4.9434,6.0537-2.8037,1.4532-1.5762,1.0567-3.0235,3.2168-4.1734,1.6133-.8588,5.2949-2.9653,5.3965.1988-.6572-.8281,1.0117-2.2422,1.9014-2.6616,1.3691-.6451,2.2802-.0054,3.62991-.0162.22159.6919.49309,1.3013.66009,1.9805a4.76468,4.76468,0,0,1,5.9082-.5845c2.4678,1.6079,2.51171,2.8218,2.7412,5.5645,1.4121.3721,1.7617-.3042,3.0147.3457,1.1006.5708,2.0556,2.1143,2.7021,3.0615,1.13871,1.6636,3.5332,5.3819.4668,6.4771,2.96491-.043,4.2266,1.2993,4.7598,4.2832.5176,2.8974-.33989,4.5805-2.6768,5.457,2.918.0381,4.3545,1.0879,4.2735,4.0586-.06059,2.165-1.1748,5.3853-3.6534,5.5859,3.6114,4.1529,1.2872,8.7452-2.99119,11.3145,3.14259-.1963,3.93749,3.1606,2.72169,5.2705a13.2983,13.2983,0,0,1-1.8193,2.7622c-1.2276,1.2026-2.2383,1.061-3.7442,1.5269,2.2149,2.3403,1.75,5.0556.0459,7.6826-1.2255,1.8877-5.7793,3.5478-7.6894,1.498-.2852,2.6612.7178,5.7334-1.9199,7.3428-2.5205,1.5342-4.2012-.6377-6.0606-2.1328.1445,1.4639-.8193,2.0742-1.9726,1.5332-1.0459-.4902-1.7754-2.3438-2.1553-3.3223-.5078-1.3144-1.4854-5.8193-3.2481-5.8691-.4209,1.8183.6602,3.8447.5606,5.7929-.1895,3.7237-1.0283.6954-3.0235,1.2745.09971.4502-.125.7959.13971,1.2656-1.19041.7471,3.10349,3.5576,3.73629,4.8271a45.37539,45.37539,0,0,1,2.6006,7.3848c.415,1.417,2.0527,6.3936-.3848,6.4443-2.375.0489-3.4697-3.833-5.3144-4.8183-.2813,1.1953,1.084,3.2051,1.2861,4.4424-1.1426.081-1.54779.5097-2.6543-.0245-.7988-.3857-1.459-1.5517-2.1631-2.04.083,1.0713.7891,2.1397.8262,3.2998-2.9043.7344-9.0928-4.0498-10.26559-6.376.86909,1.7237,4.44819,6.3672,1.15619,6.1338-2.6386-.1865-2.9775-.6113-5.1875.9746-1.7148,1.2305-3.2002,1.8692-3.46769,4.2256a11.635,11.635,0,0,0,.23239,4.0596c.3359,1.1875,1.5234,2.0078,1.2568,3.2607-.4004-.0849-1.0439.1797-1.4433.0938a5.723,5.723,0,0,1-.4063,2.6631c-2.3769.2285-4.7695,1.0127-7.0068.9736-2.4727-.043-4.9424-1.3174-7.5655-.2832a15.21776,15.21776,0,0,1,8.7002-3.0938,6.65094,6.65094,0,0,1-1.7011-.0449c-.2979-1.289,1.831-1.9863,2.63861-2.7939a15.18791,15.18791,0,0,0,2.44829-3.9805c.7881-1.5303,1.415-2.5537.3916-4.2295-.9014-1.4765-2.4883-1.1719-3.959-1.4355-4.2227-.7578-8.0732-2.7383-9.8721,2.4385-1.1074,3.1933-1.00679,6.9023-.88179,10.2392-2.335-.9434-4.94241.8184-7.084,1.4092-3,.8281-5.61131,2.0293-8.86031,1.7217.2832-1.3067,3.4687-1.0176,3.666-2.3946.23531-1.6543-3.086-1.5029-3.9893-1.5957.8487-1.4853,6.461-1.5205,8.2627-1.8056a12.54931,12.54931,0,0,0,3.37791-.9043c1.79979-.8203,1.17879-.8741,1.51859-2.7627.4531-2.5098,2.1143-4.8047,1.251-7.6817-.8242-2.747-3.6074-2.3369-5.5117-3.7548-2.003-1.4913-2.8331-3.7823-5.2696-5.004-2.2822-1.1435-4.2988-1.1298-6.36229-3.0371-.60641-.5615-1.46291-2.624-1.88871-2.8838-1.1279-.6894-1.166.8868-2.4619.8868-1.957,0-2.1103-3.2168-2.833-4.5869-2.4062,3.288-3.6953-3.2198-3.6601-5.2022-1.4014-.0449-2.3399.7461-3.4151-.5781-.7041-.8672-1.0273-2.9048.34481-3.2139-.169-1.2153-1.68361-1.8506-1.42481-3.3164.2714-1.5391,1.3251-1.852,1.163-3.6831a11.79346,11.79346,0,0,1,1.2979-7.2993,32.55061,32.55061,0,0,1,4.1445-5.3555c2.0557-2.1806,2.6475-2.5972,2.8477-5.7637.251-3.9921,2.9804-8.7148,4.59671-12.2631.61619-1.3521,3.17669-5.0171,1.25-6.17-1.669-.999-4.31061,1.8711-4.92681,3.0689-.8994,1.751-.8857,4.4971-2.1484,5.8481Z" transform="translate(-316.84071 -31.80087)"/><path class="cls-5" d="M330.21239,42.5166c-1.48239.3955-1.98439,2.272-1.789,3.6362a6.77457,6.77457,0,0,1,2.5371-.1899c-.0869,1.6211,3.2851.8115,4.1797.5254.79881,1.0591-.8194,1.5337-.1709,2.8047,1.541.4033,2.5498-.8609,2.3584,1.5713,1.9404.2998,1.7548-2.875,4.1162-2.2793.4287,1.4956-1.833,1.9487-1.4873,3.5844,1.5478.3306.0322,2.0772-.3077,2.9292a9.70646,9.70646,0,0,0-.7461,3.6363c2.9805.0097,4.9659-4.1529,6.3155-6.2574,2.2236-3.4638,4.6972-5.727,2.6289-9.9672a17.10011,17.10011,0,0,0-2.419-4.2447c-1.3476-1.3286-3.7793-1.1709-5.5839-1.0049a10.88054,10.88054,0,0,0-5.628,1.9136c-1.0469.854-1.69629,1.8194-3.2177,1.7695Z" transform="translate(-316.84071 -31.80087)"/><path class="cls-6" d="M324.18409,60.0791c.2383,3.918,2.0996,1.6167,3.4062-.5244a14.30363,14.30363,0,0,1,2.30771-2.6934c.71769-.7519,1.00679-2.0171,1.83489-2.5219.5332,5.4394-6.3847,9.2236-6.2392,14.3896.0234.8169.44631,1.3438.5244,2.0972.1084,1.0639.1064.6377-.32809,1.5009-1.18361,2.3506-4.61231,4.775-3.61821,7.6753.7031,2.0552,1.7109,2.4029,3.6836,2.5625,1.4043.1138.6904.3926,1.6318,1.0474.6485.4517.8809.7315,1.7901.5962,1.1806-.1753,2.1826-1.5742,2.7978-2.4458,1.12991-1.6016,1.0723-2.4971.917-4.3828a6.2289,6.2289,0,0,1-.0205-2.5694c.2402-.4458,1.4746-.8935,1.8672-1.2968,2.4375-2.5039.2021-5.1524,1.5205-7.8311a10.14688,10.14688,0,0,1-1.0664.9883c-2.0313-1.4795.1572-3.6294-.04689-5.2358-.37691-.0372-.58011-.314-.957-.3531a13.92562,13.92562,0,0,1-.04491-2.313c.0986-1.3256.1992-.999.79291-1.8999.57519-.8725,1.86229-2.0087,2.10839-3.0942.1338-.5879-.4726-.9922.0332-1.7554.3106-.4673,1.2285-.6367,1.586-1.0356,1.414-1.5733.0058-1.5542-1.3291-2.2207-.0489-.9893.0683-2.4942-1.3848-2.7759-.5693-.1099-.9023.4634-1.1133.4404-.1308-.0131-.3896.1441-.6699.0967-.2471-.042-.3164-.7422-.54-.8564-1.0069-.5176-2.0889-.3472-3.1299-.7422-.0508.0776-1.8067,2.8584-2.083,1.7363a1.94443,1.94443,0,0,1,.1923-1.4761c-.0566.0938-.8398.4507-1.0312.6631a5.78928,5.78928,0,0,0-.5781,1.4077,44.27938,44.27938,0,0,0-1.5762,4.2412A24.31857,24.31857,0,0,0,324.18409,60.0791Z" transform="translate(-316.84071 -31.80087)"/><path class="cls-7" d="M356.94869,65.7886c0,4.8398-1.8691,9.0044-4.7363,12.8218-.1689-3.023,2.4912-5.9688,2.96-8.8326a4.21759,4.21759,0,0,0-.6543-3.6762c-.4268-.6319-2.1592-2.566-2.2559-.8252.2227.0195.4453.0586.6631.0835-.46,1.2983-1.874,2.4926-2.7256,1.2773-.59469-.8486-.3603-5.543-2.38569-4.2256.04689-.8901-.01271-2.3174-1.07331-2.6645-1.26069-.4131-1.539,1.3398-2.8642,1.0713.6758-3.441,4.7607-8.4663,8.5566-6.0801a7.31925,7.31925,0,0,1-1.0635-.1416C355.32669,57.1284,356.94869,61.208,356.94869,65.7886Z" transform="translate(-316.84071 -31.80087)"/><path class="cls-7" d="M357.73489,50.6426c-.4727-.084-.75489.1328-1.0137-.2163.1807.0923.4072.2715.6289.3618,3.9326.0386,8.7324,12.1391,5.4092,12.6777-.1162-2.81-1.335-7.6714-4.46-8.602-.2441,1.5049,1.8516,2.4751,1.5323,4.166-.47859,2.5317-1.5948-.5757-1.89159-1.6304-.77931-2.7666-2.51181-4.6709-5.42091-4.9746.6074-.9814,2.3076-1.2803,3.3818-1.2578Z" transform="translate(-316.84071 -31.80087)"/><path class="cls-7" d="M383.94779,52.7393c.2011-1.7652,4.8076-13.1587,1.7763-13.8467-2.7422-.6216-6.1552,10.4087-5.66209,12.2407a7.20466,7.20466,0,0,0,1.72269-.727c.9287,1.8242.2265,3.998,1.1601,5.6953,1.5987-.2637,4.9991,4.205,3.7237,5.5698a7.57648,7.57648,0,0,1,5.1426,1.2988c.9443.6074,3.6396,3.2139,1.0878,3.7075.0879,1.441,2.3682,2.9629,2.0635,4.4175-.2041.9751-1.1367.7373-1.5381,1.5596-.3427.6987.1065,1.9516.2793,2.6274.8799,3.4439.4825,6.3628-2.455,8.3809,1.0927,1.2339,4.2412,2.1416,3.6689,4.4248-2.874.085-2.2031,2.8628-1.2051,4.4873a12.08762,12.08762,0,0,1,1.4922,2.6294,28.72873,28.72873,0,0,1,.7998,3.6694c.2022,1.1074.1514,2.4551,1.3115,2.8819,1.5772.5791,1.3994-1.0498,1.3096-2.3584-.23049-3.3672-2.8564-6.3731-3.1113-9.6192,2.456,1.8135,3.7685,5.0454,5.209,7.711.63281,1.1699,2.6181,6.5068,4.2587,5.6552,2.2344-1.1591-.5048-6.601-1.1064-8.1894-.93749-2.4756-2.8037-4.3413-3.833-6.5923,1.68651.5425,3.1357,2.1641,4.5478,3.2295a30.8921,30.8921,0,0,0,5.3721,3.291c1.0508.5024,2.97461,1.7046,4.084.7856.6465-.5371.5879-2.3823.3779-3.0859-.8906-2.9971-4.3779-5.3027-6.958-6.6182-2.02929-1.0346-5.6709-1.4877-7.1728-3.1132,1.7422,1.2939,3.997,1.7387,5.9482,2.6533,1.8096.8486,3.7461,2.103,5.752,2.373,1.7539.2359,6.6924-1.2773,6.0351-3.1655-.4511-1.2974-3.3584-2.6201-4.4677-3.0874a23.839,23.839,0,0,0-5.03909-1.1587c-2.72071-.5195-6.18651-.8599-8.56351-1.7183,1.8262-.2485,3.751.0601,5.5996-.0522a22.20931,22.20931,0,0,0,6.4365-1.5205c1.8819-.6963,7.5538-2.0498,7.0967-5.0376-.3144-2.0571-5.98729-2.5254-7.6211-2.3594-3.0478.3106-6.2197,2.2383-9.3574,1.8467a31.20243,31.20243,0,0,1,5.9561-2.5679c2.1865-.5434,4.3779-1.0258,6.54-1.5732,2.0313-.5147,6.0615-1.6226,5.0596-4.5215-.7666-2.2148-5.5713-1.793-7.4121-1.3677-1.5108.3487-2.9649.9707-4.5205,1.3023-1.1045.2353-3.3457.2973-4.1133.7993a18.69624,18.69624,0,0,0,12.042-5.4526c1.35741-1.3233,4.9316-4.7823,2.1103-6.2896-2.6875-1.436-6.1474.8315-8.33589,2.1104-2.80761,1.6411-5.90921,3.7709-8.87891,4.9907a23.52806,23.52806,0,0,1,5.1455-4.9458c2.1592-1.5957,4.8242-2.4785,6.8193-4.2534,1.583-1.4068,3.5928-5.1709,1.7783-7.0122-2.7636-2.8033-6.9306.9033-8.9316,2.7534-2.9707,2.7456-5.4463,6.1372-8.34959,8.8842,1.37889-2.1103,2.48919-4.3906,3.957-6.4677,1.88769-2.6699,4.76169-4.9766,6.30859-7.7969.9629-1.7534.7481-6.9321-2.3701-6.3687-1.0801.1949-2.8467,2.1426-3.6113,2.961-1.2559,1.3452-2.6201,2.6914-3.7276,4.1347a36.8466,36.8466,0,0,0-2.8984,4.9146,20.16723,20.16723,0,0,0-2.0957,3.9175c-.0723-1.6006,1.2676-4.2603,1.8486-5.7642.7744-2.0049,1.7901-3.8677,2.0371-6.0278.0713-.6289.3789-2.5293.0069-3.0742-.9932-1.4517-1.8594,1.0937-2.2989,1.9131a40.73178,40.73178,0,0,0-3.3564,6.7421,54.24286,54.24286,0,0,1-1.9072,6.48c-.3477-4.0283,3.2382-8.4287,1.541-12.4682-.9961-.128-2.89359,1.7485-3.30959,2.5673-.61821,1.2188-.17281,2.625-.31641,3.9454-.2695,2.5102-1.8613,5.3159-1.5713,7.8637Z" transform="translate(-316.84071 -31.80087)"/><path class="cls-7" d="M381.90379,87.3657c-.3447,1.2515.6748,2.1973.7461,3.3814a11.59664,11.59664,0,0,1-.8574,3.4082c-.7383,2.6562-2.8438,5.582-5.668,6.2646-.2861-1.4941,1.7451-2.667,2.3907-3.8325.6826-1.2349.3037-2.623.4521-4.0049a16.14369,16.14369,0,0,0-.3135-4.3979c-.1191-.6841-.79879-1.2217-.4209-2.1031.3018-.7006,1.0244-.8071,1.2637-1.6259.5068-1.73-.4199-4.1822-.9883-5.7637-.94529-2.6318.6533-2.1108,2.0371-4.1958,2.2813-3.439-.5517-8.9795-4.1201-10.5039,5.0684,2.1641,5.0772,6.8296,5.5068,11.7373.1641,1.8784.6797,3.6899.96,5.5493C382.98289,81.8779,383.61179,88.6426,381.90379,87.3657Z" transform="translate(-316.84071 -31.80087)"/><path class="cls-7" d="M373.72509,65.8457a16.08264,16.08264,0,0,1,1.7754,2.8696c.5488,1.6109.1211,1.5459-.9883,2.4449-1.0273.8315-1.166.477-.7207,1.9658.1543.5141.6446.5234.7237,1.1015.1025.7383-.5586.9776-.5538,1.5791.0088,1.0381.7354,2.0899.81061,3.1968a10.35373,10.35373,0,0,1-1.36821,5.5249c-1.8476,3.3921-4.3066,4.5435-7.5019,6.1929.5908-2.5718,4.1894-5.27,4.1142-7.792-.8467-.4126-2.0674-.0879-2.0107-1.356.0459-1,1.5752-1.9882,1.7265-3.1455.253-1.9189-.8945-4.2622.33111-5.9765.69429-.9707,1.48539-.6734,1.56349-2.1494a7.71321,7.71321,0,0,0-.9893-3.1455,7.38964,7.38964,0,0,0-1.6894-2.8189c-.7989-.7549-2.00879-1.21-2.543-2.1157,1.4414-.4063,5.4854,2.083,5.4854,3.624Z" transform="translate(-316.84071 -31.80087)"/><path class="cls-7" d="M376.08449,53.7881c1.1084.0962,4.3057,1.3716,4.665,2.6807.27251.998-.5976,1.1201-.2793,2.0512.2373.6978,1.6651,1.4976,2.167,2.0835,1.4043,1.6402,2.2754,3.7114,3.46581,5.5049,1.28319,1.9336,2.85359,5.6333,1.04109,7.5801-.3252-2.4839-2.4258-9.6294-5.7715-9.461a16.74318,16.74318,0,0,0-2.1504-3.3681c-.5713-.7281-.9219-.8843-1.0537-1.8291-.0977-.6997.4199-1.1382.083-1.9058-.875-1.9946-4.2393-3.3374-6.02049-4.1343a12.71558,12.71558,0,0,0,1.75579.2735Z" transform="translate(-316.84071 -31.80087)"/><path class="cls-7" d="M366.647,51.6914c-.22851-.144-.24221-.2373-.03911-.2812a7.069,7.069,0,0,1,3.9698,1.7959,3.17927,3.17927,0,0,1,1.246,1.3681c.2334.5713-.0966,1.5767.0332,1.8477.45511.9458,2.0645,1.1997,2.5948,2.3476a7.13715,7.13715,0,0,1,.2617,3.6485c-.7061-1.0694-1.4043-2.5288-2.2998-3.6499-.3711-.4634-1.0137-1.3951-1.55859-1.5923-.82131-.2969-1.59281.4521-2.12211-.4917-.1914-.3418.292-.8462.2207-1.0611a3.026,3.026,0,0,0-.68259-1.1196,7.37355,7.37355,0,0,0-1.57231-1.3047,19.97742,19.97742,0,0,0-3.4589-2.2939Z" transform="translate(-316.84071 -31.80087)"/><path class="cls-7" d="M388.66649,78.9521c-1.0742,1.2979.9746,2.7759.4834,4.1348-.3525.9722-1.6758.4483-1.4785,1.8999.085.6367,1.0283,1.4746,1.3145,2.0908.9179,1.9834,2.03611,8.5772-1.8536,8.6158-.40129-1.6919,1.3125-3.3702,1.01371-4.9468-.167-.8784-.56441-1.6826-.792-2.6201a10.66849,10.66849,0,0,0-.98921-2.3594c-1.0215-2.0869.1699-1.438.9384-2.9356.6612-1.2895-.3144-3.7871-.9961-4.666Z" transform="translate(-316.84071 -31.80087)"/><path class="cls-8" d="M373.01709,101.4365c1.8623.8047,6.4707,2.4971,6.9717,4.7383-1.9639.4209-3.38479-1.2539-4.9531-2.1309a28.82259,28.82259,0,0,0-4.6856-1.6582c.4854,1.8809,4.749,4.0274,6.2568,5.4004,1.7842,1.6221,5.2774,4.2881,4.6797,7.0371-1.288.3936-2.1045-.7929-2.9013-1.5273-1.1787-1.085-2.44629-2.0068-3.61229-3.1514-1.53711-1.5107-4.86921-5.4853-7.29981-4.9404-1.0079,4.0449,6.9101,5.9023,7.5283,9.6191-1.43749.0303-3.3428-1.9638-4.4209-2.8574a27.92575,27.92575,0,0,0-3.93359-2.8037c-1.89061-1.085-5.22951-3.6572-6.002-5.7783.98929-.125,1.79789.6406,2.81639.4316.17-1.3174-1.7607-2.4326-2.292-3.5781.0284.0596,3.55861.2481,1.6338-2.0693,1.2442-.4629,3.1436.7138,4.3301,1.1035C369.11869,99.9248,371.09719,100.6064,373.01709,101.4365Z" transform="translate(-316.84071 -31.80087)"/><path class="cls-7" d="M332.57079,87.8652c.4541.9541,1.24221,1.9605,1.0088,3.106-.2627-.0518-.706.1309-.9687.0791.1318,1.1333-.5372,1.2046-.83889,2.0449-.40531,1.1275-.18561,1.5103-1.11331,2.5752-.8213.9414-2.8066,2.355-4.3789,2.3599-.7666.0019-1.7129-.1074-1.59179-1.2593.13089-1.2485,1.13089-.6543,1.86039-1.0361,2.68161-1.4043-.2442-2.2461-1.02839-3.3555a3.8922,3.8922,0,0,1,2.81059-.0918c-.0694-.3413.15041-.8892.0859-1.2373.6621-.0645,1.35551-.0147,2.0176-.0791a1.88418,1.88418,0,0,1,1.5664-2.1021,11.71065,11.71065,0,0,0-.2158-1.5283Z" transform="translate(-316.84071 -31.80087)"/><path class="cls-7" d="M335.978,88.6514c.01269.6513,2.74419,3.8335.03319,3.7085.0772,1.7153.5684,2.4463-.4931,3.9575a8.55816,8.55816,0,0,1-3.0049,2.833c-.376.1435-.8486.0576-1.2578.2568-.3799.1836-.5108.5518-.8477.7266a3.04873,3.04873,0,0,1-2.0312.582c-1.4473-.1191-4.21-.7832-4.1602-2.5879,1.209-.1015,2.72371.2549,3.8985-.0332,1.6328-.4023,1.6709-1.8413.0195-2.437.9824-.456,3.1855-.0215,4.17871-.8994,1.09669-.9683.35739-2.417,2.57809-2.2144.2705-.9331-.6084-1.4233-.6943-2.2622a12.9242,12.9242,0,0,1,.7334-2.6787Z" transform="translate(-316.84071 -31.80087)"/><path class="cls-7" d="M331.26029,88.6514a5.55191,5.55191,0,0,1-.3291,2.3007c-.2481.4146-.7139.5918-.9815.917a6.2892,6.2892,0,0,0-.7803,1.2383c-.8632,1.5093-2.1572,2.6841-4.1992,2.3584-1.4404-.2295-4.0859-.8354-4.9873-2.0766-1.2343-1.6988-.71189-4.9454,1.8008-4.9663.0996,1.1826-.0205,2.4145.0801,3.5966,1.1006.273,2.166-.7241,3.1191-1.0215.2813-.0878.74811.1719,1.2969-.0395.4326-.1665.8594-.7451,1.2578-.9692-.0303.2871.1211.6943.0918.9868a20.55691,20.55691,0,0,0,3.3682-2.5869Z" transform="translate(-316.84071 -31.80087)"/><path class="cls-7" d="M320.46829,86.0752c-.1446-.0298-.2901-.0601-.4346-.0898-.1309-1.5372-.0195-4.3199,2.0068-4.378.2891,1.2783-.9628,2.1079-.7529,3.1182.335,1.6147,1.4551.0981,2.3242.0278.03621.6289-.2011,1.1314-.17479,1.7622,2.94829.521,6.82909,1.9312,9.13279-1.1797-.1406.19.49321,1.46.1455,2.0293-.3447.5635-1.1679.7305-1.7255.9737-1.3067.5703-3.5811,2.3662-4.92579,2.4712-.88481.0688-.90431-.0557-1.45021-.7354-.3096-.3857-.1944-1.3843-.5967-1.6719-.4922-.3496-.6934.0547-1.24509-.0102C321.05809,88.1909,320.35789,88.2646,320.46829,86.0752Z" transform="translate(-316.84071 -31.80087)"/><path class="cls-7" d="M324.97019,95.9912c1.7627,0,2.9541-.4077,4.71781-.2622,1.51169.1245,4.28909.023,3.97069-2.0576a27.52211,27.52211,0,0,0,3.6309-.8247c1.8916-.3965,2.4609-.3721,3.9375-1.9077a12.32867,12.32867,0,0,0,2.2881-3.6548c.3212-.7925.746-3.3975-.9385-3.042-.4365.7436-.126,1.0757-.0586,1.7881.0361.3745.6123.4951.5615,1.061-.0391.4312-.5732.271-.7529.564-.8311,1.3593-1.1944,2.478-2.9014,2.3467.0576.4501-.1328,1.0405-.085,1.4873a4.41747,4.41747,0,0,1-2.5761.3076c-1.0283-.1499-1.9073-1.1978-2.8428-1.0078.1543,1.9941-.6416,1.6811-2.0928,1.5786-.3447,1.2993-1.9717.3921-2.72359.4145-2.21781.0664-4.21881.7554-6.49121.6807-1.207-.04-2.8897-.2925-3.9551.2666A14.82674,14.82674,0,0,0,324.97019,95.9912Z" transform="translate(-316.84071 -31.80087)"/><path class="cls-7" d="M320.25049,95.2046a1.80342,1.80342,0,0,0-1.0547,2.896c.6611.8408,1.8477.4375,2.1494,1.5146.9483.1162,1.8155-.4873,2.836-.2158,1.3886.3692.7793.8692,1.5752,1.833,1.6435,1.9873,3.997-1.1416,6.2187-1.0595,1.5068.0546,2.5674.4834,4.00291.2744,1.51079-.2198,2.41219.4004,3.94629.5361,1.6221.1445,1.6026-.6367,2.666-1.5254.8721-.7285,2.1612-.7695,2.7588-1.6269.6241-.8985.3262-2.2579.7754-3.2286.0664-.144.7412-.7993.8692-.9716.3076-.4156-.1162-.9458.5058-1.3282.7979-.4912,2.2041.1744,3.1573-.5595,1.3525-1.043.4609-2.5679,1.3574-3.6348.6787-.8086,2.3261-.6367,3.1123-1.8159a10.92909,10.92909,0,0,0,1.1074-3.1455c.5508-2.2232-.4287-5.626-3.4395-4.9409a5.28276,5.28276,0,0,0,.6817,2.9018c.8672,2.3682-.1572.6646-1.5137,1.4961-1.4931.9155.7237,1.7007.2852,2.9155-.4405,1.2246-2.666.7242-3.6475.8125-.1807,1.8492-.0664,1.5327-1.3496,2.6324-1.2002,1.0293-.4824,1.9941-1.3643,3.0415-.7334.8715-2.4384.394-3.2949.8989-.3906.23-.5234,1.0351-1.1094,1.3281a3.849,3.849,0,0,1-1.79389.2251c-.123,3.5508-1.72071,1.0903-3.72271,1.1948-.5898.0308-1.5888.6299-2.1425.6577a13.60243,13.60243,0,0,0-2.8311-.0625c-.8838.2525-1.2734.96-2.3535,1.0518a19.13637,19.13637,0,0,1-2.6201-.2598c-2.1719-.123-4.7237.8477-5.2432-1.8354Z" transform="translate(-316.84071 -31.80087)"/><path class="cls-7" d="M324.18309,100.1846c.0215-.1934-.0635-.292-.2549-.294-.8261.5069-1.2314,2.5459-.5498,3.2549,1.4873,1.5488,1.7823-.9121,2.6905-1.0781.9873-.1817,1.6562,1.7803,2.2363,2.3847,1.4043,1.4639,2.1103.7051,3.7353.4385,1.877-.3076,3.4629.7862,5.2481.8057,1.4912.0156,2.6816-.3682,4.2529-.0781,2.1504.3964,2.5391,1.0957,3.8164-.7149,1.1602-1.6455,1.7178-1.4355,3.6875-1.6133.0869-2.5156.6768-1.539,2.6211-2.3642.1231-1.4873-.3799-2.9024-.1826-4.3711.2647.0488.70411-.1309.9678-.0786.0674-.8726-.7149-1.3965-.7119-2.2803,3.8398.2988-.3672-4.2734.9296-5.0449a11.50108,11.50108,0,0,0-2.7392.8052c-1.376.8261-.96.916-.3213,2.0449.3223.5708,1.24411.7412,1.0742,1.6367-.1748.9228-1.3906.646-1.8076,1.3569-.3691.6294.2354,1.666-.0342,2.3072-.5176,1.2295-1.3965.6699-2.1142,1.3564-.8037.7676-.291,1.3389-1.3057,1.7949a5.474,5.474,0,0,1-2.5811-.2285c-.3271,2.1807-3.3457.3867-4.457.2627-.4189,2.1738-2.6836.291-3.6758-.209-.1211,4.1133-5.666,1.9395-7.6416.4317Z" transform="translate(-316.84071 -31.80087)"/><path class="cls-7" d="M327.06589,103.5928c0,1.0605-.58589,5.2168,1.3887,4.2715.8516-.4073.1758-1.3145,1.502-1.3936.7666-.0459,2.0517.8457,2.8896,1.0283.6865-1.7558,1.7686-1.2344,3.0791-.5254-.0684-.3457.1358-.8847.0928-1.2431,1.1787-.1182,2.4697.9355,3.62891.7509,1.00679-.1611,1.35549-.8955,2.36129-1.0517,1.4844-.2315,1.6738.499,3.1572-.5342a10.11585,10.11585,0,0,0,2.293-1.8223c.6514-.9921.416-1.8027,1.35651-2.6914.96279-.9082,1.29389-.6894,1.32419-2.2939a13.156,13.156,0,0,0-.5176-3.6821c-.417-.9439-1.5791-1.5992-2.1143-2.5157-.36029.8609-1.1152,1.3926-1.5156,2.2657-.7812,1.7041-.1094,1.1494-2.1484,1.8276-1.0156.3379-1.4219,1.1445-2.3545,1.5273-1.46679.6045-3.2266-.5937-4.6777-.4306-.1905,2.3799-3.4063,1.4678-4.6934.7842a5.70552,5.70552,0,0,1-2.915,1.0488c.0517.2637-.1319.707-.0791.9707-.9034.123-2.6475-.6416-3.3809-.2354-.9824.544-.376,2.2256.5371,2.3711Z" transform="translate(-316.84071 -31.80087)"/><path class="cls-7" d="M331.523,106.7373c-.03321-.2246.05369-.3047.26169-.2422.958,1.3203.8359,3.3897,2.1631,4.6328,1.3174,1.2354,3.3955.836,5.0791.8604-.0254-.2217-.1631-.0332-.1328-.086,1.12691.3282,2.1377,1.1993,3.33591,1.086.07029-.834.00979-1.707.08009-2.541,1.4892-.2774,2.8027.9443,4.3818.707-.0332-.7754-.5273-1.4746-.4502-2.2861,1.085.04,1.8604,1.0136,3.0654.7138-.0507-.4599.13291-1.0478.0791-1.5068.46981.1348,1.5743.7617,2.0704.5098.8398-.4287.2529-1.1553.6953-1.8536.61811-.9716.9892-.5117,1.91311-.7793,1.30659-.3798.90909-.0625,1.50869-1.3105.9434-1.9668,1.0625-1.9551.2549-3.9316-.4365-1.0704-.0634-1.1602-.9658-1.9014a11.75047,11.75047,0,0,0-3.0644-1.2627,3.326,3.326,0,0,1,1.1787,1.5234c-.6768.6739-1.4727.0801-2.2793.1075.0508.6035.583,1.7587-.0225,2.2793-.6025.5185-2.5449-.3047-3.1807.3398-.64159.6514.15141,1.791-.4882,2.3984-.5489.5196-2.1641.1621-2.86139.2246-.02831.8028.67779,1.8457-.27631,2.3379-.8282.4268-2.6045-.9609-3.6514-.7607-.03029.1455-.0596.29-.0898.4346-1.2032.3213-2.3184-.8291-3.3106-1.2393.03811,1.5107-1.1435,1.8154-2.3711,1.3828.044.2334-.125.669-.0791.9102-1.4189.3965-2.0312-1.4971-3.3691-.4844Z" transform="translate(-316.84071 -31.80087)"/><path class="cls-7" d="M347.25049,113.8799c1.0674-1.7764,1.9688-1.8291,3.8916-1.4092-.333-1.7266.9385-1.0283,1.875-1.0146,1.8115.0263.8975.0244,1.7705-1.3682.6973-1.1123,1.4639-.9404,1.6426-2.2959.13181-1.0039-.8809-2.1973.21581-2.9551-.36911-.5967-.71781-1.3379-1.06051-2.0039-1.4453.6816-5.043,1.2695-3.6436,3.6484-.957.5577-2.4746.2051-3.6045.2969-.0303.5723-.0537,1.1817-.06639,1.7549a16.567,16.567,0,0,1-3.60941-.1885c.0782.3496-.1435.8916-.0742,1.2373-.001-.0049-3.25-.1562-3.5273-.1308.00391,1.2051-1.5518,1.8642-1.07909,3.0527.249.626,2.80949,1.7598,3.47849,2.1221C345.02779,115.4756,346.11669,115.7656,347.25049,113.8799Z" transform="translate(-316.84071 -31.80087)"/><path class="cls-7" d="M342.79439,112.7676c.3125,1.122,1.5069,3.458,2.5674,3.9043-.0254-.292.1368-.7051.1006-1.001,1.125.7656,2.39261,2.2432,3.8447,2.3047.08791-1.0811-.207-2.084-.1679-3.0918a4.29,4.29,0,0,0,2.79,1.251c.2041-.8067-.207-1.5078-.1826-2.2784,1.1602-.1904,1.9561,1.0147,3.0713.9795.0889-1.0136-.0186-2.0673.0732-3.0781,1.00391-.2549,2.3643,1.2344,3.0664.5029.39551-.414-.416-3.1757,1.2569-1.8212-1.5479-1.7022-1.7422-4.8877-4.585-5.2481-.2558,1.3047,1.2832,1.8545,1.2373,3.0791-.8389.0811-1.7158.0088-2.55369.0791.28419,2.8428-.20211,1.7451-2.61621,2.0977.1807,3.0742-2.09179,2.4199-4.1943,2.3603.0517.2647-.127.7031-.0791.9678-1.7657.4473-2.21-1.1006-3.5723-1.5-.7168,1.2246-2.5772.8857-3.49609.0723,1.52439,1.4785.55369,3.2402,1.66309,4.874.58591.8642,4.9687,1.7656,4.6592,2.3613Z" transform="translate(-316.84071 -31.80087)"/><path class="cls-7" d="M346.46339,104.1162c-.6377.9463-.9072,2.8594-1.81639,3.4912-.99711.6934-2.89941.0049-3.91021-.3193a2.73583,2.73583,0,0,0,.1953,1.5654c-1.2246.6651-2.4443-.0439-3.5839-.5107-.4297,1.956-3.8721.7226-4.9893.5312a3.54081,3.54081,0,0,0-.08789.4405,2.82028,2.82028,0,0,1-2.60251-.6495c-.044,2.1817.7676,4.9209,3.4853,3.9375,1.0059,1.0479,2.6114,2.6436,4.0625,2.9952,2.1914.5293,1.7959-.9659,1.9473-2.5352,1.10941-.0801,2.35941.2959,3.0527-.5527.3203-.3916-.1845-1.1553.3692-1.5381.541-.376,1.2744.2187,1.7812.2295,1.7988.039,1.3135-.8877,2.8828-1.6573,1.0147-.496,2.5186-.1337,3.6309-.2246.3349-1.7939.6455-2.2461,2.1367-3.0976.7236-.4151,1.00491-.3242,1.3154-1.0449.3487-.8086-.4101-2.1182.0479-2.9063.55961-.9648.749-.3828,1.5195-.834.959-.5615.8838-.4863,1.3106-1.5078.60151-1.4414.51951-2.9736,2.3193-3.459.0234-.9394-.8682-1.6904-1.2187-2.5708a7.914,7.914,0,0,1-.5264-3.9043.57563.57563,0,0,1,.3955-.019,20.19808,20.19808,0,0,0-4.8125-2.1343c.8252,1.2261,2.6924,1.2173,3.2959,2.5996-1.4873.5611-3.6865-.1684-3.666,1.9326.0215,2.3042,2.1406,2.1851.2881,4.0767-.6455.6572-1.0039.4199-1.3233,1.375-.289.8682-.02539,1.2344-.5195,2.0527-.0723.1182-.6455.1504-.791.3604-.2422.3525-.0791.7021-.2491.9951-.458.7852-.3222,1.4824-1.58,1.5723Z" transform="translate(-316.84071 -31.80087)"/><path class="cls-7" d="M340.95849,81.312a4.48649,4.48649,0,0,0,.7598,2.3643,2.50184,2.50184,0,0,1-1.5127.3027c.0693.8491.94141,1.2759.7148,2.2744-.2177-.0141-.4922.0928-.709.0777.2061,2.0498-1.1689,1.6709-2.4697,2.3217-.6758.3374-.38769.9766-1.5.7901a1.122,1.122,0,0,1-1.0889-1.2779c-1.2197-.0044-2.4912-1.0073-3.3867-1.7797a2.185,2.185,0,0,1-1.0312,2.2133c-.3076.1939-.8135.167-1.0537.3164-.1934.1192-.8311.7305-1.03619.8047-2.54591.9204-2.33591-1.208-3.74121-2.6015-.6347.4531-1.165.1972-1.1982-.5376,2.1191,1.0117-1.0059,5.9262,2.8428,4.9594,1.3183-.331.8955-1.5976,2.6142-1.059.6231.1953,1.1133,1.0151,1.77741,1.125.61809.102.72549-.2627,1.15909-.2808,1.3711-.0576,1.9063.522,3.1075.7329,1.3027.229,1.9179-.7012,3.3945-.332.542.1357,1.4932.9731,2.041.8169.626-.1783.0606-1.0728.83591-1.295,1.14459-.3281,2.21679,1.5601,3.37309,1.564-.1182-1.9809.834-1.8887,1.5674-3.0923.4707-.7719.1992-4.0986,1.6426-3.2632-.2549-1.1416-.8643-2.1401-1.04009-3.27,1.41309-.1191,3.47069.4312,4.48629-.8076,1.4942-1.8203-.4726-3.6543-2.0752-4.2656,1.3838-1.6958,1.4707-6.6636-1.4199-3.9707.3291-.9971,1.25781-1.937,1.30081-3.0127-.61331-.0215-1.12011.1968-1.72271.1811a10.38161,10.38161,0,0,0,1.4668-2.0034,7.7006,7.7006,0,0,0-2.3877-.0522c-1.98039.4765-.2607.1777-.7773,1.3154-.3594.792-1.4043.6143-1.8066,1.2852-.77349,1.291.5683.9472.8183,1.8408.5655,2.0224-2.25879,1.4922-.79879,3.4199.95609,1.2646,2.08889,1.8042-.21681,2.668-.24119.9126.8545,2.2016.2334,2.7983-.8623.8291-1.9678-.4565-2.9004,1.0879Z" transform="translate(-316.84071 -31.80087)"/><path class="cls-7" d="M344.91749,75.4932c.832.0507,2.2393-.1568,2.6133.8252.4844,1.2724-1.3614,1.6211-1.6104,2.6342-.10639.4322.2783.9883.2217,1.3101-.0176.0996-.6484,1.4448-.6943,1.1074.1045.7783,1.582,1.6738-.2617,1.8223.3945,1.8096.04,2.1523-1.3379,3.2905-.8594.709-1.9707,2.7188-3.1114,2.3911-.1826-1.9951-.3076-3.9599,2.0235-4.4682a14.77558,14.77558,0,0,0-1.2461-3.022,1.44438,1.44438,0,0,0,.4677-.3203c-.2216-.9849-1.62789-1.1704-2.0507-2.0728.6396-.1098,2.4257-.2685,2.6181-1.0727.3155-1.3189-1.7588-1.4034-2.6074-1.3828a.16972.16972,0,0,1,.1279-.211c-3.0976-.1748-.2431-2.0888.3379-3.0722a10.89775,10.89775,0,0,1-1.7734-.9043c.1846.1377,2.5391-3.7369,3.6455-.6582a3.68839,3.68839,0,0,1-.8965,3.2802C340.355,72.4102,348.69779,70.3086,344.91749,75.4932Z" transform="translate(-316.84071 -31.80087)"/><path class="cls-7" d="M367.17139,80.0015c-.083-.3101.04-.4825-.2891-.6934a13.82631,13.82631,0,0,1,.5176,2.2402,5.1057,5.1057,0,0,1-1.04589-.6543c1.79689,1.6158,2.75489,9.313-.45511,6.2251.7618,1.2857,1.41511,5.7178-1.3613,3.7344-.2002.5137-.1455,2.0195-1.0361,2.0244-.7969.0039-1.2696-1.9941-1.5723-2.561-.4648.9902-1.709.7905-2.582.5298-.0274.6211.2373,1.8701-.5586,2.0361-.6152.1289-2.1445-1.9028-2.4365-2.3706-2.1162,1.5757-3.418-3.0967-3.6153-4.3892a6.19409,6.19409,0,0,1,1.2891,1.4009,11.36875,11.36875,0,0,1-.4443-3.2881c1.4795-.2392,2.623,1.2618,4.1191.9624a3.25557,3.25557,0,0,0-.2021-.7065c1.3652.8535,3.0517,2.0879,4.64741,2.2915.11129-1.0093-.00581-2.0718.085-3.085.84669.2764,1.67279.9585,2.55469.9883-.3213-1.2348-2.084-4.0776-3.6084-3.5918a.37382.37382,0,0,0,0,.4405c1.6132.082,3.1201-2.4498,3.3388-3.794a4.33009,4.33009,0,0,1-2.8154.6416c.2256-1.7353,2.3711-1.9682,3.3926-3.1006,1.6181-1.7905-.2539-1.1054-1.041-2.0376,1.17671-.6675,3.3252-.4135,4.6709-.2749-.1426.7647-1.2793,1.0762-1.7735,1.7232.8877.5976,1.9756.2651,2.3311,1.3706.3496,1.0923-.96779,2.9238-.7989,4.2002Z" transform="translate(-316.84071 -31.80087)"/><path class="cls-7" d="M360.854,90.2036a5.1235,5.1235,0,0,1-.46481-2.5737c1.29781.2832,2.5283,1.3535,3.872,1.2431-.373-.9052-1.11419-1.7646-.9814-2.8027,1.0107-.0918,2.0664.0215,3.0771-.0791-.12689-1.3179-2.5253-2.2109-.5087-3.5713.6123-.4136,1.8545-.0864,2.332-.833.3437-.5381.0371-2.23.0391-2.8374.00971-2.1987-.3057-2.6909.7802-4.7051,1.2149-2.2534,1.3828-2.9052-1.2646-2.9946-.4844-1.5435,3.7422-5.1152-.2617-4.7187-.211-1.2022.5654-2.5.4443-3.8521a6.68676,6.68676,0,0,1-2.5859-.2822c-.8887-.7754-.1524-1.0762.2011-2.1172.9522-2.7969-1.2968-2.4209-3.3154-3.2046,2.2344-3.1299-5.0078-1.6406-5.7578-1.4683.123.5415.2724.7027.9736.7871.625,2.2359-3.915,2.7242-.6943,3.8282.8457.29,3.042-.0074,3.1308,1.3745.0518.7988-1.6972,1.2695-1.89159,1.7573-.64061,1.6069,2.79889,1.7466,3.17,3.479.16889.7876-.41411,1.5459-.08111,2.1616.5117.9444,1.9072.8794,2.3887,2.0327.35941.8589-.1572,1.8301-.2881,2.6065-.2022,1.1929.167,1.5713.2686,2.6362.121,1.2666.1298.7212-.5245,1.8423a4.94679,4.94679,0,0,0-.663,2.0313c-.0342.1582.3222.4878.164.8584-.164.3842-.8242.392-1.0723.7734-.5019.7769-.4082,1.0513-.40129,2.0361.01169,1.98-1.40041,1.9175-2.13091,3.3296C358.08739,88.335,359.54149,89.6694,360.854,90.2036Z" transform="translate(-316.84071 -31.80087)"/><path class="cls-7" d="M352.49269,91.2729c-.4102-.0136-.8213.001-1.2315-.0063a16.108,16.108,0,0,0,5.3907.7529c.3818-1.7558-2.0713-2.4321-2.7686-3.6499,1.6309-1.0459,6.0254-1.7295,5.9815-4.3969,1.1289-.043,2.4648.0371,3.123-1.0831.835-1.4165-.7119-2.083-.5459-3.4125.1719-1.3716,1.7647-1.2125,2.3887-2.3589.73141-1.3413-.2588-1.7725-.7529-2.8838-1.1661-2.6236,2.6044-2.9951,1.999-5.1836-.209-.7593-1.2735-1.4458-1.5332-2.418-.4131-1.5498-.0332-1.1675-1.3106-2.2861-.87989-.7705-.79-.8496-.9892-1.9072-.083-.4371.4931-.6192.292-1.1202-.1338-.3354-.88869-.5673-1.1368-.9121-.5537-.7695-.3662-1.2153-.5185-2.1621-.2529-1.5669-.81639-1.4233-1.585-2.6216-.6093-.9482.1328-1.3637-.2383-2.1103-.3808-.7671-1.5556-.6978-2.3125-.8311-1.8017-.3169-3.5117.3828-4.0361-1.7309-1.5557-.5347-3.1728,1.73-3.8086,2.6338a8.13088,8.13088,0,0,0-.9404,1.1943c-.1797.4038.0098,1.0049-.167,1.3686-.4717.9761-1.4229,1.5254-1.8203,2.5889,1.9316-.4389,3.3867-1.4297,5.6943-1.2383.35551,1.2476-1.0986,1.8042-.706,2.8496.4082,1.0831,2.7802.6202,2.874,2.0899.10251,1.6196-2.0957.8169-.5537,2.6357.53421.6304,3.0654,1.4995,2.9131,2.6206-.1397,1.022-1.6045.5279-1.5508,1.7647.041.9355,1.456,1.3906,1.1972,2.6787-.1992.9863-.98529,1.6294-1.25,2.6211-.3359,1.2558-.083,1.6362-1.52729,2.1426-.68551,2.4965,5.49319,2.0224,1.291,4.9336.71489.9336.73729,1.0747.18259,2.04-.0625.1094-1.0019.6147-1.205.8374-.2071.2266-.2354.7886-.5059,1.1206-1.0371,1.2691-1.1563.6782-1.1074,2.2881.041,1.375-.1084,1.207.748,2.3135-.8398.3398-1.90229.4751-2.333,1.3623Z" transform="translate(-316.84071 -31.80087)"/><path class="cls-7" d="M348.82279,91.7969c1.1357,2.8247,8.4648-4.2305,5.3154-4.5215,1.0439-.2891,4.3389-1.3281,4.4014-2.8106.0302-.7075-1.0157-.8608-1.0264-1.3042-.0254-1.0952,1.084-1.0376,1.8662-1.5727.4775-.3272,1.6611-1.1143,1.4678-1.8608-.1338-.5181-1.2305-.6041-1.4727-1.0884-.9902-1.9781,1.8399-1.8233,1.792-3.6167-.0244-.9566-.97649-.7979-1.35349-1.5747-.56741-1.1719.01949-.9624.55759-1.8335,1.2119-1.9615-.3164-1.6529-.4922-3.67-.0703-.7968.502-.83.1485-1.7768-.2295-.6152-1.04789-1.169-1.4532-1.689-.663-.8515-.0468-.7851-1.2988-1.4487-.7988-.4243-1.9121-.2837-2.3916-1.0674a.31865.31865,0,0,1,.4092,0c-2.2451.7988-.2188,2.8731.4082,3.8838,1.2236,1.9697-.959,1.457-.3301,3.4077.458,1.4204,1.7891,1.6997,1.2637,3.6123-.1416.5156-.7647.7573-.7461,1.3687.0234.8061.9854,1.0825,1.0781,1.8354.1153.9317-.4345.9531-.8047,1.5581a4.51063,4.51063,0,0,0-.7275,1.8492c-.1523.5913-.0059.7529-.3076,1.3764-.4463.9268-.7949.3628-.8623,1.5137-.03319.5654.5244.9067.3379,1.5796-.20609.7446-1.1524.9101-1.5323,1.56-.4394.75-.0986,1.3443-.3105,2.0962a3.713,3.713,0,0,1-1.8399,2.0967Z" transform="translate(-316.84071 -31.80087)"/><path class="cls-7" d="M347.24949,85.2437a2.01557,2.01557,0,0,0-.4433-.3008c3.17181,2.5761,5.8886-1.9263,2.6201-3.3159.8691-.1109,3.0703.1738,3.3603-1.0889.3272-1.4219-2.6123-2.5796-1.3613-4.416.9004-1.3228,2.7119-.667,2.3906-2.9224-.1211-.8525-.8711-1.3418-1.0088-2.1103-.2197-1.2281.2647-.9458.7403-1.8291.4355-.8067.9775-.9165.5351-1.8472-.2714-.5703-1.5254-.6568-1.622-1.2901-.2188-1.4379,2.08-1.4233.831-3.0942-.4121-.5513-1.3916-.7432-1.85349-1.3184-.39061-.4887-.37011-1.1416-.834-1.5712a2.80816,2.80816,0,0,0-3.30171-.086c-.2246-.9311.791-2.3237-.1055-3.0654-.9209-.7622-2.665.4941-3.2891,1.0601-.7002.6362-4.7011,3.979-2.46869,4.436-.01471,1.0068,1.04489.8286,1.10449,1.79.0713,1.1348-1.8614,1.1909-1.6084,2.3731.41791,1.9536,4.3193.5962,5.4883,1.0805.3232,1.1319-.6963,1.4082-1.4336,1.9864,1.9853,1.0381-.00879,1.7636.1513,3.2226.0625.5747.8018.8096.8106,1.5601a2.11016,2.11016,0,0,1-1.2315,1.7768c2.211.3897.5459,1.7471.3692,2.8833-.1739,1.1192.38961.8594.7968,1.8936.4571,1.1611.0303,1.2563-.28119,2.3579-.45221,1.5981.71969,2.4746-.11821,3.9971-.2685.4863-.83879.7661-1.13279,1.2339-.44821.7109.16209,1.5673-1.29781,1.5849Z" transform="translate(-316.84071 -31.80087)"/><path class="cls-7" d="M348.29839,82.6226c.3134.0337.6474-.0015.9628.0063a3.85183,3.85183,0,0,1-1.1191-.5317c.8955-.7554,2.54591-1.3941,2.0098-2.8946-.5528-1.5454-1.9375-.5239-.542-2.3335,1.0879-1.4101,2.039-2.0117,1.7822-3.9511-.0898-.67-.6475-.7256-.4326-1.5664.1836-.7207,1.51951-.9175,1.2939-1.8477-.1298-.5381-1.1855-.6597-1.5957-.9653-.8535-.6338-.63469-.9077-1.0478-1.6436-.1153-.2051.1269-.6035.0176-.7988-.211-.3779-.5957-.2549-.8194-.5103-.3242-.3711-.82909-.2309-1.0469-.7749-.248-.624.3243-.9975.3399-1.5214a1.81116,1.81116,0,0,0-.334-1.3809,3.60707,3.60707,0,0,1-.5508-3.1001c-1.4385-.3145-2.15429.1221-2.5351,1.271-.16119.4858.2715.9263-.1055,1.5659-.3369.5689-1.18069.8482-1.76169,1.1133.39349.7241,1.21779.3843,1.81929.9131.5254.4609.5654.9702.84671,1.5844.55269,1.2007,1.22069,2.1949.22269,3.48,1.2949.7754,1.707.5879,2.0712,2.0908a10.59886,10.59886,0,0,1,.2745,1.835c-.06839.7949-.61039,1.1553-.7325,1.8423-.1797,1.0078.3526,1.8115.2608,2.9341-.1045,1.2837-.3272,2.5185-.3272,3.8735Z" transform="translate(-316.84071 -31.80087)"/><path class="cls-7" d="M371.63529,56.0967c2.207.6684,5.8213,2.2524,1.8613,3.2427-.0273,1.5551,2.73441,1.2138,2.5527,2.7978-.73629.0689-1.5195.0029-2.2451.0918,1.2285.8042,3.8936,1.2241,4.584,2.5703.50781.9898-.1973.9844-.1543,1.8335a3.85425,3.85425,0,0,0,.99611,2.3667c1.55469,2.145,1.63479,1.9898.57419,4.1992-.7021,1.4644.293,1.6138.17581,3.0879a13.55341,13.55341,0,0,1-3.02341.3472c.7773,1.4092,5.18941,2.6055,4.0673,4.8813-.3261.6631-1.5127.5982-1.8076,1.357-.4082,1.0493.7178,2.0923,1.0752,2.895,1.0811,2.4316-.4726,2.6616-1.3388,4.7192-.4219,1.0049.3212,1.2442-1.0284,1.7823-.8369.3344-2.1631.0087-3.0537.0918,1.002,1.7602-3.8281,1.875-2.9424-1.0547.2237.0048.5039-.0943.7217-.0718-.45989-.855-.9648-2.9053-.459-3.8389.6328-1.167,1.7256-.7593,2.8184-.8935-.3721-.8013-1.0088-1.5396-.7217-2.5288,1.1807-.107,2.4111.0141,3.5957-.0728.13871-1.749-3.331-3.7715-2.0869-5.6616a2.90788,2.90788,0,0,1-1.042-3.2295c.4609-1.0552,2.2363-1.3921,3.1299-2.1367-.2432-.834-1.1201-1.3208-1.6016-2.045a4.34032,4.34032,0,0,1-.665-2.3007c-.1123-.857.1269-1.1988-.5693-2.1553a20.15135,20.15135,0,0,1-2.1231-2.6211,16.19547,16.19547,0,0,0-2.6084-4.207c-1.1162-1.1182-2.8808-1.378-1.8613-3.3936-.9317-.7202-1.8535-1.0371-2.8037-.2895a2.901,2.901,0,0,1,.4443-2.0313c-1.0957-.105-2.2451.0283-3.335-.0854-.8359-2.0669-.622-2.147-2.90819-2.3521.51659-1.3638,6.32719-3.2363,7.84179-2.8437,1.7911.4633.6114,1.1567.45321,2.2539-.21781,1.4985,1.03709,2.5893,2.63179,2.6704.9385.0478,2.3193-1.2075,2.8711-.0362C374.25929,54.7285,372.08249,55.2305,371.63529,56.0967Z" transform="translate(-316.84071 -31.80087)"/><path class="cls-7" d="M373.98589,51.6919q-.33555.0579-.2354-.2427a5.36941,5.36941,0,0,1,2.8232-2.3457c-.1279.2027-.165.6817-.3984.9712.5361.1055,5.1885,1.7192,2.6152,2.1343a9.03737,9.03737,0,0,1,2.2286.8594c1.2382.9843.1826.8701.3457,1.769.29,1.5967,2.6093,1.9126,2.8115,3.3623-.294-.0156-.7061.1343-.9942.0986,1.253,1.3394,4.2803,2.3619,4.67091,4.3511-.24611.0557-.48821.311-.73431.3662.3486,1.291,1.5586,2.2217,2.0039,3.5528.5449,1.6235.14841,2.1211-.2598,3.4013-.5615,1.7613-.3486,1.9014,1.1123,3.2168,1.4902,1.3408,2.0322,1.9414.7861,3.6685-1.1015,1.5288-1.6718,1.6318-.7978,3.5991.9658,2.1738,2.0478,3.1294.0205,5.0571-1.7588,1.6719-1,1.3023.0059,3.416.6591,1.3863.4521,2.0054-1.043,2.6602.5146,1.2183,2.0986,2.0171,2.3525,3.3555.2149,1.1347-.15329,1.895.1836,3.145.4278,1.5889.584,1.7002-.1963,2.9424-.80559,1.2832-1.5654,1.5547-3.0537.9707a1.45267,1.45267,0,0,1,.6533,1.5508c-2.5351.4277-3.3046-4.2383-4.4863-5.6993-.7842.8829-4.3476,1.4903-4.3447-.2382,1.25981-.3164,1.457-2.69,2.05081-3.7339,1.15919-2.0357,2.13469-1.9507.21579-3.6436-.84379-.7446-3.67479-3.1094-3.0586-4.4805.7061-1.5732,2.6787.0484,1.8047-1.8676-.8164-1.7915-3.2451-2.3242-2.8916-4.7447.2764-1.8964,2.97171-1.8032,3.1806-3.3364.2208-1.6084-2.83589-2.8472-2.6562-4.7226.1279-1.3399,1.6074-1.3609,2.5908-2.1455-.6094-1.8272-3.5029-1.4283-4.4404-3.0342-.82809-1.4204.67191-1.0288.8242-2.4043.1953-1.7539-2.4121-2.2593-2.8574-3.6841-.6533-2.0977,2.1162-3.1182,2.8232-4.6641-1.1592-.6479-5.5088-.1723-5.4492-1.8432a5.65612,5.65612,0,0,0,.6533-.3145c-1.125-.1704-6.7949-2.5434-6.74119-3.6699.06839-1.4316,3.51559-1.7656,4.48149-1.8272,1.7236-.1093,3.0937.6011,4.7119.7862Z" transform="translate(-316.84071 -31.80087)"/><path class="cls-7" d="M370.31689,47.498c.918-.7519,4.1426-.3613,5.4824-.2236-.4795,1.5518-3.9941,1.5542-1.0312,2.917.708.3257,2.3203.314,2.7021,1.1655.3711.8277-.61419.771-.6191,1.6529-.0078,1.4233,2.4414,2.0927,2.8428,3.6489a12.63431,12.63431,0,0,0,.5849,2.373c.4258.9663,1.07721,1.5376,1.0449,2.6792-.0205.7549-.746,1.4751-.7304,2.0328.0322,1.2456.7324,1.0502,1.5254,1.8984.7226.7739.4902.8467.7216,1.7187.0245.0923-.2626.5401-.163.8462.1826.5606,1.0761.7867,1.289,1.3091.3672.9082-.2627,1.148-.2285,1.8936.041.8545.7481,1.4585.9434,2.3007a3.69267,3.69267,0,0,1-1.9864,3.898c-1.29679-2.272-1.6269-5.0645-2.4306-7.5679a4.72958,4.72958,0,0,0-1.0235-2.1489c-.8222-1.0127-2.2773-2.4619-2.3183-3.8857-.0235-.7959.8369-1.5235.7715-2.0972-.0918-.8213-2.3448-1.6875-2.9854-2.0977-1.6474-1.0571-2.4961-2.7373-.2764-3.6557-1.0878-.8789-8.6796-4.1074-7.0253-5.4468-.8926-.4829-4.0684-1.8403-1.88679-2.897-1.16791-.5498-2.62591-.2075-3.57031-1.0342a10.62,10.62,0,0,1,5.2217-.8525Z" transform="translate(-316.84071 -31.80087)"/><path class="cls-7" d="M360.61869,46.4492c-.3272-.104-.3594-.2983-.7139-.2085,1.16021.4385,4.6895.2163,5.3779,1.3233.6895,1.1093-.88469,1.6284-1.4785,2.4907,1.457,1.2583,3.793.9487,4.6836,2.6797.6191,1.2036.3721,2.8481,1.1094,4.1421a20.34955,20.34955,0,0,0,1.29,2.1543c.5742.6987,1.626.9951,1.9981,1.8296.3281.7377.2363,1.4223.5703,2.0893a5.75614,5.75614,0,0,1,1.0547,2.6484,14.31076,14.31076,0,0,0,.1914,2.0826c.1826.75.94431,1.2031.6084,2.1103-.2949.7969-1.03809.6069-1.585,1.0444-.9863.7896-.4365.3936-.5254,1.5645a13.23733,13.23733,0,0,1-.51069,3.9316c-.16991.4161-.66511.565-.81841,1.0489-.1211.3828.1719.938.0235,1.3164a1.41451,1.41451,0,0,1-1.7998,1.0093c-.15729-1.6255.6201-2.6978.7138-4.1221-2.6387-.4141-4.834-2.0435-5.1504-4.7569-.0732-.6264.2129-.8427-.1123-1.5727-.289-.6489-1.1513-.936-1.4668-1.5728-.7568-1.5278.5371-1.5542.4903-2.8823-.0293-.8545-1.3203-1.9482-1.5977-2.8843a10.38031,10.38031,0,0,0-1.0293-3.2041c-.7451-1.1328-2.8955-2.1098-3.2353-3.3422-.3877-1.4048.7587-1.3716,1.3603-2.3721-.7226-.4717-1.917.1113-2.5537-.5713-.90819-.9732,1.0752-1.6016-1.36519-2.0488-1.93171-.355-3.84181.4809-5.71391.228.043-.6885-.335-1.0357-1.0527-1.0542.083-1.0938,2.6699-2.499,3.6875-3.0493,1.7402-.9414,3.3554-.6792,5.1904-.5762Z" transform="translate(-316.84071 -31.80087)"/><path class="cls-7" d="M372.41359,68.73a1.68136,1.68136,0,0,1,.7471,1.789c-.4395.0215-.8096.3492-1.251.3536a2.40984,2.40984,0,0,1,.7207,2.0058c-.4512.0811-.5879.3882-.9766.5571a4.30452,4.30452,0,0,1,.2364,3.6827,10.14017,10.14017,0,0,1-.5176,1.3759,3.363,3.363,0,0,0-.3282,2.045c.0372,1.2251.0499,2.5219-.9257,3.393-1.2266,1.0957-2.5059.4908-2.1426-1.2129-1.0274.4175-1.66209-1.7622-1.334-2.6577.4482-1.2241,1.2647-.77,2.5332-.8862-.3281-.7861-1.0547-1.2647-1.2881-2.1157-.4189-1.5186.0069-.9444.8565-1.5.9257-.6045,1.0996-.1201,1.3154-1.3116.1777-.9726-.7139-1.9399-.7568-2.8569,2.3418.4478.0976-2.4048,1.2431-3.3755-.8662-.6875-1.9697-1.6943-1.8125-2.9555.1963-1.583,2.5586-1.8448.7969-2.9463-.9639-.6026-3.4521.5874-3.09079-1.1953.23039-1.1353,2.208-1.2056,1.74119-2.8897a11.216,11.216,0,0,0-2.7637-.5693c3.6006-.5083,4.7569,5.2226,4.1143,7.6006Z" transform="translate(-316.84071 -31.80087)"/><path class="cls-7" d="M367.43309,96.2529a1.02319,1.02319,0,0,0,.1485-.5371q-.15975.00735-.3194.0137a5.30329,5.30329,0,0,1,.8682.0127.6731.6731,0,0,1-.3447-.2178c1.58-.2602,4.4892,1.1294,5.9384,1.836,1.458.7109,6.2608,2.2734,6.25591,4.0957-2.374.5-6.75981-3.7012-8.332-2.6524,3.34079,1.457,9.43939,4.8399,9.375,8.9434-1.63191.4062-4.08211-2.2891-5.39851-3.1065a67.242,67.242,0,0,0-7.1211-3.8252c1.7813,3.0147,5.9551,5.4883,8.64261,7.6905,1.90529,1.5615,5.16019,3.9902,4.92479,6.8476-2.3984-.0449-5.7275-3.79-7.501-5.2207-1.8027-1.4541-3.788-3.2568-6.00779-3.9521,2.35549,1.5039,4.37989,4.3193,6.28229,6.3232,1.4072,1.4824,3.0898,3.1582,3.5722,5.2031-2.52049.6377-4.47949-2.3213-6.2138-3.5713a57.88458,57.88458,0,0,0-6.0801-3.9189,36.62126,36.62126,0,0,1-5.2412-3.749c-1.27539-1.0196-4.65139-2.8711-4.417-4.6719a3.0295,3.0295,0,0,0,1.7695-.2813c-.1045-.1943-.1006-.5605-.21189-.7656.96289-.1992,1.81639.2793,2.77929.2266a5.35971,5.35971,0,0,1-3.0449-2.5918c1.1562.0098,2.2138.9492,3.3593.9678-.4248-.6534-1.1943-1.211-1.25-2.0108.73731-.0644,1.5166-.0137,2.2461-.0791a6.37875,6.37875,0,0,1-1.7285-2.2798c1.3145-.1318,2.5449,1.0113,3.8779.6934-.2656-.4751-.7285-.9907-.9951-1.4653a14.85871,14.85871,0,0,1,4.167.9941Z" transform="translate(-316.84071 -31.80087)"/><path class="cls-7" d="M384.19579,101.502c2.1895,1.7392,4.333,3.5439,6.5723,5.2294,4.3857,3.2999,7.7607,7.3838,8.9062,12.793.4043,1.9082,1.2881,4.0938,1.0098,6.0527-1.4707.0362-2.5498-1.915-3.6494-2.7568-.13669,1.6631,1.3301,3.1699,1.289,4.8535-1.4453-.1084-2.7626-1.4092-4.1269-1.9717a3.07271,3.07271,0,0,1,.458,2.2334c-1.2754-.1376-2.5615-1.3281-3.8457-1.5048a18.31963,18.31963,0,0,1,.1758,2.8095c-2.2471.4561-3.7188-3.1455-5.4326-3.5947a3.13334,3.13334,0,0,1-.0079,2.5596c-3.9687-.5606-6.374-4.9893-9.1279-7.378-3.2207-2.7939-6.2558-5.2929-9.7119-7.7998a50.46194,50.46194,0,0,1-7.7168-7.2802c-1.2773-1.4219-2.166-2.9453-1.7773-5.0381a5.60346,5.60346,0,0,1,3.8984-3.7158c-.0312-.8057-.6904-1.4663-.7197-2.274a26.57115,26.57115,0,0,1,3.8652-.3471c-.1836-.523-.7646-1.1045-.7197-1.7495,3.7119-.4366,7.3594,2.1616,10.7207,3.374,1.8808.6792,3.76461,1.022,5.4385,2.1567C381.24369,99.2031,382.73,100.3379,384.19579,101.502Z" transform="translate(-316.84071 -31.80087)"/><path class="cls-7" d="M356.94779,104.9033c-.1739,1.6162,1.8584,3.8369,2.94821,4.9209,2.00679,1.9932,4.13279,3.9219,6.22659,5.8252,4.39741,4.001,8.7187,7.8418,14.4111,9.6914a100.145,100.145,0,0,0,10.69431,2.628c2.70019.5537,5.66309,1.2851,8.461,1.0546,1.76369-.1435,4.46289.0694,5.81739-1.0478,3.01561-2.4863,1.4043-5.4863-.3321-8.1963-1.2832-2.001-1.52929-4.0527-2.8925-5.9707-1.5479-2.1748-4.26079-3.5918-6.5381-4.915a55.84277,55.84277,0,0,1-8.9131-5.8389c-2.7695-2.419-6.2901-3.8076-9.4365-5.6953-3.28809-1.9727-7.0635-2.4131-10.4522-3.4199.0889.0898.2676.3501.3994.4912-1.5332-.0381-3.1045.1093-4.6328-.0069-1.2832-.0976-2.8232-1.1201-4.14649-.7529-.28711,1.6929,1.36039,2.231-1.03121,2.9014a5.7965,5.7965,0,0,1-3.4131-.2935c-.4502,4.3687,2.4678,7.1411,4.1416,10.9829Z" transform="translate(-316.84071 -31.80087)"/><path class="cls-9" d="M358.521,99.3975c1.37109,3.4423,5.71489,6.4629,8.59279,8.5927,2.5293,1.8721,5.0771,3.4571,7.456,5.5616,1.8145,1.6064,5.2178,3.5097,5.918,6.0234,1.11821,4.0215-3.5381-.0547-4.4639-.7734-2.9091-2.2598-5.9843-4.2579-8.8603-6.5596a46.37211,46.37211,0,0,1-5.7598-5.7666c-1.3349-1.5488-3.4189-3.0059-4.167-4.9277a2.17839,2.17839,0,0,1,1.5469.2089Z" transform="translate(-316.84071 -31.80087)"/><path class="cls-9" d="M360.88039,98.874c.0107-.1797-.2998-.3213-.0322-.2861a116.93173,116.93173,0,0,1,18.5839,13.8584c2.4424,2.166,7.1778,5.8711,7.0957,9.4551-2.1191.416-5.208-4.8506-6.5195-6.25-2.3008-2.4571-4.9297-3.9854-7.542-6.0303a66.50789,66.50789,0,0,1-5.2949-4.9805c-1.6533-1.6152-4.3291-2.5166-5.5049-4.456Z" transform="translate(-316.84071 -31.80087)"/><path class="cls-9" d="M366.647,98.6123c2.50579.8906,4.98629,3.3633,7.06439,4.9746a121.276,121.276,0,0,1,10.5039,8.8584c2.3321,2.2666,6.5958,5.6621,6.7764,9.1983-1.7803.0556-5.041-4.4913-6.17969-5.6602-1.59861-1.6445-3.164-3.3164-4.86131-4.8604-1.8203-1.6552-4.0449-2.83-5.7021-4.6474Z" transform="translate(-316.84071 -31.80087)"/><path class="cls-9" d="M370.57959,98.874c.3701-.209,1.3721.7041,2.0645,1.1026a93.42752,93.42752,0,0,1,7.9668,5.1162,101.97448,101.97448,0,0,1,12.458,11.1455c.5703.5742,4.41011,5.3515,1.625,4.875-1.0987-.1885-3.0137-3.3184-3.7022-4.1211a60.29544,60.29544,0,0,0-8.8789-8.1572Z" transform="translate(-316.84071 -31.80087)"/><path class="cls-9" d="M378.96729,100.9707a54.02705,54.02705,0,0,1,10.4893,8.3887c1.6406,1.6904,2.5166,3.9531,3.9003,5.7314a10.26707,10.26707,0,0,1-2.5908-2.1015,56.48078,56.48078,0,0,0-6.5566-5.7276Z" transform="translate(-316.84071 -31.80087)"/><path class="cls-7" d="M380.01609,100.709c-.6592-.457-1.6416-.6338-2.0703-1.2578,2.6084-.4561,11.7998,5.5556,11.46,8.3017-2.4199-.6015-4.2256-3.1611-6.75-3.8662,1.8711,3.752,8.1914,4.4033,10.2099,8.0938,1.087,1.9853-.3076,2.084-1.9072,1.3144-2.3174-1.1142-4.124-3.25-6.6543-3.9599,1.6152,2.0732,4.4824,3.0517,5.1143,5.7451a11.43207,11.43207,0,0,1-4.9258-.7149c.457,1.3946,2.6201,1.7862,2.8281,3.335-1.63379.249-5.0205-1.4453-6.4267-2.3447.7373.8076,4.5205,3.4179,2.8095,4.4345-1.7783,1.0547-6.5644-2.4267-8.1758-3.2412a10.222,10.222,0,0,1,2.8877,3.2998c-1.7998,1.2481-6.2314-2.3154-7.5742-3.6035-2.36129-2.2637-5.0049-4.2588-7.332-6.5586a39.45909,39.45909,0,0,1-3.874-4.7988c-1.3409-1.8057-2.6514-3.3818.4316-3.708-.58689-.9453-1.7705-1.5401-1.7744-2.7901,1.3086-.2666,2.6152.5098,3.8926.7071-.5645-.6387-1.4502-1.5567-1.2705-2.542,1.9843-.2837,3.9091.6631,5.7451,1.2783.9199.3076,3.19631,2.0508,4.1875,1.8399,2.8115-.6016-4.86619-3.8165-5.2217-4.417a12.997,12.997,0,0,1,8.3477,1.3256c1.3906.691,5.6152,2.7105,6.0429,3.8648Z" transform="translate(-316.84071 -31.80087)"/><path class="cls-10" d="M360.397,112.2871c-.05671,1.1055,1.88479,1.2813,2.56049,1.7315-.2363.0029-.5039.0791-.7461.0966.3028.8106,1.10061.9004,1.8145,1.3379a7.39224,7.39224,0,0,1,1.5586,1.5147c.8457.8711,2.1133,1.4824,2.93551,2.3535-.18061.1445-.41011.626-.52831.7256,1.1621.75,3.4375,1.04,3.6875,2.6416.6133-.1133.8672-.6875,1.5137-.6944.6103-.0068,1.5156.8379,1.8154,1.1983-1.9248.3789-2.6465,2.5908-4.6338.1572a7.54387,7.54387,0,0,1-2.5859.1514c.5068.3994.44241.6748.3916,1.2842-1.2686.3193-3.3057-.8291-2.6524-2.0381a1.7561,1.7561,0,0,1,.2999,1.5127,2.91934,2.91934,0,0,1-3.1055-2.4883,4.31,4.31,0,0,0-.3145.6416,3.47292,3.47292,0,0,1-3.3681-.1055c-1.2393,1.5401-2.59959-.3701-3.2061-1.3945-.4463.7773-2.9551,1.3515-3.0322.2734,1.8135.8047-.751,3.001-2.15629.585.31839,1.251-1.45991,1.6865-2.35151,1.165-1.0576-.6181-.6914-1.997-.835-3.0664a4.87038,4.87038,0,0,1-3.3154.5029c-1.3906-.4082-1.1983-1.0908-1.6572-2.3242-2.4034.1241-5.5801-.8076-5.4922-3.6709-1.8516.0215-4.7061-2.1172-4.1221-4.1914a4.85968,4.85968,0,0,1,.7139.0049.36332.36332,0,0,1-.001.4336c-3.7002.9824-2.5342-4.376-1.0928-3.1006-1.8916,1.6865-3.6826-3.2519-3.8183-4.416.76661-.0938,2.1377-.3574,2.0224.7129a.36333.36333,0,0,1-.4326-.002c-.8154-1.9531.3242-2.8183,2.2607-2.5429.0362.1504.0713.2998.1055.4492,1.1123-.6524,3.5879-.252,4.6192.5508.9296.7236,1.8242,3.248.0869,3.3808a2.98068,2.98068,0,0,1-.0059-.7158c2.25-.4307,4.15041,2.1982,5.2207,3.8135-.584-2.5,3.0108-1.6602,4.3975-1.7949.1181-1.3243-1.3721-2.3594-1.7491-3.6104.0401.0606.167.3135.2354.4209-.8262-1.1787-.8174-3.4512,1.0811-3.2891,1.7812.1514,3.34081,4.6446,1.54,4.8008,1.4121.4063,1.5029,2.2715.8662,3.3614a8.60077,8.60077,0,0,1,2.9805,2.2666c-.1133-.1504,1.03511-1.8897,1.0244-2.2569-.0156-.5361-1.3701-1.2246-.5322-2.0351.9804-.9512,2.913,1.0996,3.6923,1.6269C356.48589,108.5156,362.646,111.8066,360.397,112.2871Z" transform="translate(-316.84071 -31.80087)"/><path class="cls-10" d="M317.62939,80.5254a1.58279,1.58279,0,0,0,1.0147-1.0225c-2.1377,1.1363-2.1368,4.0992-1.2247,5.9629a2.71187,2.71187,0,0,1,1.2383-.0312c-1.9951.4707.4746,1.8755.5567,2.6992.1377,1.3989-1.39939,1.8037-.3389,3.4067a3.99074,3.99074,0,0,0,2.9424,1.5728,1.53511,1.53511,0,0,0,1.0937-2.6001c.4102,1.1597,3.462,1.4175,4.5938,1.5635a4.46946,4.46946,0,0,1-1.46-2.5938,9.71852,9.71852,0,0,1,4.1319.4585c.0605-1.0933-1.0098-2.7314-1.2491-3.8721,1.3829-.3628,2.1973.8614,3.3545.961-.2861-.4307-.0771-.772-.1963-1.2232a3.51261,3.51261,0,0,1,2.0362.1963c-.584-1.6479-2.9522-2.0376-2.8213-4.1411a5.51685,5.51685,0,0,1,1.9844.9912,1.33809,1.33809,0,0,1,.3212-.4634c1.5264.1783,2.9493,1.4532,4.41511,1.9615a4.202,4.202,0,0,0-1.76171-6.126c1.2441-.1568,3.6884.2158,3.9375-1.6323.1738-1.2969-1.8369-3.2334-2.0967-4.4756.2207-.0474.4316-.2549.7217-.2876.24021-.8389-.7237-2.6343-1.80079-2.3467-1.17871.3159.10449,2.0532-.03421,2.8765-.7959-.0186-1.4853.3598-2.2803.3413-.6748,2.2988,3.7178,3.9648-.2558,5.2485-.2725,1.1524.4365,2.1655.1758,3.3223-1.919.4438-2.89649-1.4351-2.8829-3.0659-.6289-.1314-2.0673.0849-2.3955.7334-.5634,1.1147.878,1.3193,1.0977,2.3334-1.8047-.1411-1.3897.1988-1.4805,1.3433-.1279,1.5869-.0068,1.6787-1.9004,1.8408-.7568.065-2.7353.2867-3.2226-.2431-.9248-1.0078.4873-2.9712,1.1064-3.6353a4.21257,4.21257,0,0,0-1.5586-.0586c-.6045.252-.5586,1.1363-.833,1.2622-1.1435.5269-1.8008-.4775-1.5263-1.7871.2109-1.0102,1.32221-1.5635,1.5839-2.6094a12.96625,12.96625,0,0,0-.0459-3.6411c-3.1816-.3383-1.21479,4.5127-3.62979,4.4219Z" transform="translate(-316.84071 -31.80087)"/><path class="cls-10" d="M337.23489,62.7007c.0625,1.6108-1.3936,1.1338-2.54689,1.6186.22559.4141,1.05269,1.2525,1.04589,1.7891-.0078.7007-.67189,1.0937-.8154,1.8496-.1436.7549.5722.6856.0752,1.6348-.3252.6225-.7969.2778-1.1114,1.2348-.6142,1.8736.4034,7.2017-3.3691,6.2505-.4795-1.6626,2.2012-3.3554,2.3203-5.2031a4.48212,4.48212,0,0,0,.0186-1.3154c-.1817-.4605-.9473-.4497-1.0137-.8345a1.58458,1.58458,0,0,1,1.7353-1.8267c.8067-1.3339-.46969-2.9218-.4384-4.3715,1.458.0214,1.708-.5098,1.6035-1.6831-.0381-.4346-.6113-.5674-.59279-1.2403.02639-.9834.31929-.6533.84959-1.2451.7891-.8809,1.625-1.1704,1.5137-2.6865-.1338-1.8091-.7168-1.6289.5889-3.3496.3359-.4434,1.332-2.5401,2.0244-2.4424.626.0879.5761.8779.52441,1.3349-.13281,1.1958-.61431.4668-.99511,1.1016-.6856,1.1426-.2647,2.0772-.5772,3.3545-.2431.9971-1.1113,3.2446-2.0781,3.5142C336.19189,61.1201,337.19679,61.7188,337.23489,62.7007Z" transform="translate(-316.84071 -31.80087)"/><path class="cls-10" d="M337.02689,52.478c-1.58689,1.1983.1533,2.4986-.83789,3.8799-.36131.5044-1.15041.625-1.57911,1.3486a5.3448,5.3448,0,0,0-.5117,2.5894c-2.2735.7925-2.1241,1.2334-2.3077,3.4536a29.57686,29.57686,0,0,1-.4726,5.0381c-.5186,1.8179-2.0576,2.7192-2.4033,4.6606-.26759,1.5025-.6211,3.7862-2.5899,3.6289-.708-1.6718-.1201-2.5942.6768-3.957.9472-1.6206.7353-2.7651.8906-4.6128.3408.0728.8906-.1523,1.2315-.0796.06541-.6601.0126-1.3549.0849-2.0117.377-.0366.5801-.3164.957-.3535a16.50166,16.50166,0,0,1,.3604-3.5718c.083-.3081.6113-.7256.748-1.0869.2237-.5947-.042-1.1914.293-1.8037.7754.021.9238-.354,1.32911-.7676.291-.2969.00679-.6216.17969-.8637.2178-.3057.6797-.3736.877-.7076a14.63989,14.63989,0,0,0,1.7636-3.4726Z" transform="translate(-316.84071 -31.80087)"/><path class="cls-10" d="M335.45459,51.9536c-2.4707,1.1577-2.1748,4.2095-3.4092,6.2769-.748,1.2529-1.77339,1.6513-2.1015,3.1538a19.5935,19.5935,0,0,1-1.0362,4.2129c-1.0058,2.1626-1.4716,4.4155-2.5693,6.5981-.6377,1.2681-.4463,2.4502-.5693,3.8872-.0616.7183-.3702,1.1011-.084,1.8931.2715.7558,1.0947,1.0586,1.08591,1.9858-1.98141.2417-2.01761-.4414-2.64651-2.0239-.14349.2412-.4033.291-.5117.707-1.2725.4639-1.6142-.8784-1.335-1.7881.337-1.0952,1.1114-1.123,1.9043-1.6391,1.6944-1.1021,1.8916-2.3194,1.3838-4.4038-.1572-.645-1.1318-1.9278-1.0742-2.6143.0527-.644.7002-1.1738,1.0674-1.7637.4355-.7001.5166-1.7309,1.0361-2.372.2315-.2862,1.0899-.3008,1.2237-.6284.2548-.627-.6934-.8658-.5078-1.5332.1328-.4815,1.1884-.9996,1.5917-1.2969.9014-.667.8829-.5811,1.3086-1.5737.64361-1.5.8448-2.9634,1.6309-4.398a17.75292,17.75292,0,0,1,.9141-2.2324c.4707-.5322,1.9023-.5,2.5-.9072.9638-.6558,2.05861-2.6558,3.042-2.9073a1.03961,1.03961,0,0,1-.7471,1.0083Z" transform="translate(-316.84071 -31.80087)"/><path class="cls-10" d="M330.17139,54.2671c-2.2148.3013-1.1602,2.0747-2.0439,3.46-.60649.9506-2.31449,2.2792-2.417,3.6284-1.4346.1259-1.2139-1.9048-.42-2.5201.4727-.3657,1.4151-.0708,1.7227-.3818.6484-.6557-.1465-.9057.04-1.5185.3604-1.1807,1.086-1.8028,1.3096-3.1602.2236-1.3608-.1953-1.7466-.4844-3.0923.8418-.0742,1.877.1958,2.543-.354.7979-.6582.2022-2.1069,1.8857-2.0566.7383.0224,4.4082,2.8789,4.21391.1142-.01561-.2329-2.38771.5909-2.62891.9468-.7324,1.084.7305,1.0122-.8252,1.583-.8711.3194-1.8183-.3169-2.626.4746C329.44779,52.3643,330.34519,53.165,330.17139,54.2671Z" transform="translate(-316.84071 -31.80087)"/><path class="cls-10" d="M357.21049,111.4561a33.636,33.636,0,0,0,4.915,3.6699c1.6602.9922,3.6533,1.8984,3.1709,4.1543-2.1172.5097-3.8691-1.9199-5.6348-2.6055,2.2471,2.1113-1.4531,1.1611-2.43059,1.3877.49609.5117,1.06929.9639.98729,1.7432-1.5498.4072-3.6377-1.1241-4.8311-1.8145a.19886.19886,0,0,1,.1221.2217c-2.0244.4609-9.5772-1.7744-9.3574-4.6592.1445-1.8848,6.1386-1.0146,6.997.2149a1.406,1.406,0,0,1-1.2568-.6875c1.2578-.169,3.0723.3525,3.7256-1.1016.6709-1.4951-1.0332-2.4092-1.4649-3.669-1.25-3.6552,4.0323-1.831,3.5118.4786.8086.1093,1.5302.4502,2.332.5703Z" transform="translate(-316.84071 -31.80087)"/><path class="cls-10" d="M388.40379,87.6025a5.326,5.326,0,0,1,2.6387,1.835c.5264,1.4707-1.0156.9023-2.0791,1.3564-.02439,1.2124,2.0762,1.6368,2.3027,2.8565-1.2529.7671-1.8515-.3569-1.7549,1.2915.043.7104,1.67781,2.1196-.5498,1.873.05861.8169,1.959,1.9029,1.5577,2.858-.3702.8818-2.0069.5195-2.8096.499,2.8047,2.3652.3213,3.2939-1.8633,1.2588-1.3144-1.2266-4.3564-1.6231-4.4853-3.5596,1.5263-.1592,3.1298.0781,4.6562-.0977-.4619-.4755-2.03709-1.7895-1.831-2.5747.3583-1.3686,2.7382.251,3.3896-.834.5889-.977-1.4463-1.8647-.9736-2.8496.4433-.9248,2.8466-.3945,3.4511-1.2133.80081-1.0835-.4267-5.1372-.8056-6.3697-.3203-1.0425-1.5117-2.187-1.64159-3.145-.24121-1.7788,2.35349-.9751,2.85449-2.6206.68751-2.2617-4.9287-3.687-4.1856-6.2905.2237-.7862,2.1113-1.4072,2.9199-1.0679.8829.3706,1.3545,2.7876,1.5088,3.7466.4326,2.6933-1.0674,4.498-.93059,6.9609a4.90255,4.90255,0,0,0,1.25779,2.9541c.8935,1.2735.3027,1.1363.5049,2.6221.0849.6348,1.0449,1.4048.7597,2.0962-.35639.8652-1.206.4995-1.4736,1.5029-.3643,1.3682,1.0635,3.3794.2031,4.7754Z" transform="translate(-316.84071 -31.80087)"/><path class="cls-4" d="M390.23879,76.8555a2.54333,2.54333,0,0,0,1.3105,1.5727Z" transform="translate(-316.84071 -31.80087)"/><path class="cls-7" d="M340.17239,39.3716c-2.0039-.7608-9.583-.9903-9.2139,2.3203-2.6572.3638-1.4326,1.0659-2.0517,2.7246-.1192.3174-.709.4565-.8047.7085-.1553.4092.0097.9424-.04009,1.1206-.17971.6406-.49021,1.3613-.74121,2.0249a19.73844,19.73844,0,0,0-1.50579,9.3706c1.17279-2.3042.57709-6.0332,2.57609-7.7314,1.875-1.5918,3.6543-2.1675,5.71391-.7735-.06741.1416-.12991.2471-.19821.3926,1.03021.7788,1.9257.1675,2.124-.9429,4.7334.9644.0635,6.1949-.54979,8.8321.94629.1626,1.57129-.6968,2.55469-.4444.4052,1.8047-4.34869,9.1866-1.80769,9.939.99029.293,1.61229-1.186,1.92679-1.9111.65721-1.5201.3369-1.815-.34179-3.0288-.75681-1.355-.835-.7872.26169-2.0909a11.52815,11.52815,0,0,0,1.6465-2.6845c1.3994-2.8482,2.5772-5.4883,4.1856-8.3311,1.6084-2.8408,2.0888-8.4204-1.8985-9.7563Z" transform="translate(-316.84071 -31.80087)"/><path class="cls-7" d="M325.75539,55.3613a15.28231,15.28231,0,0,0,.583,4.1729c1.05761-1.2739.917-3.8516,1.7109-5.4834a11.69079,11.69079,0,0,1,1.4336-2.6216c.999-1.1572,1.2129-.7666,1.0352-2.3203,1.3896-.188,4.664-.1187,5.7392.5093a19.528,19.528,0,0,1,2.1192,1.8486c.1709.9272-.8106.8633-1.3487,1.2744a2.73923,2.73923,0,0,0-1.3759,2.0376,43.03351,43.03351,0,0,1-1.8418,4.7764c-.668,1.5395-2.4024,10.4302.334,10.227,1.1123-.0825.9336-.959,1.625-1.5102.8086-.6441,1.1884-.4678,1.8408-1.313,1.1328-1.4683.99411-3.5088,1.5058-5.0518,2.2969-6.936,10.6065-14.9233,5.9786-22.8037-1.0704-1.8218-3.9502-2.9277-5.9776-3.1455a12.26111,12.26111,0,0,0-6.2314.7598c-2.3867,1.1108-2.2295,3.5029-3.6592,5.4341-1.0967,1.4834-2.499,2.3989-2.9902,4.2807a13.37764,13.37764,0,0,0-.004,4.4072C326.34229,52.4365,325.854,53.7896,325.75539,55.3613Z" transform="translate(-316.84071 -31.80087)"/><path class="cls-7" d="M327.00729,63.6841c-1.1865,1.9682-2.1552,3.5283-2.2998,5.8457-.0996,1.582-.3183,2.9263-.5302,4.4424-.169,1.2046-.5371,3.3086-.2032,4.455.8682,2.9859,4.8828,5.6812,4.6641.46-.1348-3.1987-1.2725-8.4492,3.6309-7.0381-.0235-.9189.6875-2.0122.5898-2.8574-.1162-1.0166-1.165-1.7271-.8311-2.8823.3497-1.2095,1.2051-1.0747,1.3291-2.564.086-1.0337-.4238-1.9702-.2744-2.9536.1289-.8516,1.3203-1.793,1.2539-2.5952-.1005-1.2095-1.9091-1.5088-2.81439-.9263-.87891.5659-1.083,2.1602-1.65631,2.9995C328.99069,61.3501,327.82769,62.3267,327.00729,63.6841Z" transform="translate(-316.84071 -31.80087)"/><path class="cls-7" d="M331.26029,61.1279c-2.1319.8169-1.1778,1.5-.8457,3.146.3886,1.9209-1.2051,2.3325-1.5332,3.9317-.1319.644.372,1.3022.3007,1.8344-.1064.7901-.7812,1.127-1.0214,1.835-.42,1.2368-.2071,2.6299-.6426,3.9312a4.25474,4.25474,0,0,0-.1807,3.4086c.60061,1.2998,2.2178,1.5708,2.3555-.2636.0498-.6704-.6953-1.1787-.5401-1.833.2979-1.2583.7276-.208,1.3331-.7681.4814-.4453.2929-1.2329.7558-1.6104.5166-.4204,1.4404-.2553,2.0752-.2827.1309-.7993-.375-1.3427-.6807-2.0576-.1298-.3037-.5-.7265-.5361-1.0473-.0713-.6255.42191-.6988.4258-1.0362.0156-1.312-.5752-1.1728-1.0088-2.1103-.5635-1.2149-.2187-.6416.4785-1.8423a4.883,4.883,0,0,0,.85741-1.814c.02059-.7397-.707-1.3056-.747-1.9077-.13871-2.1099,2.77149-2.1592,2.82419-3.8726Z" transform="translate(-316.84071 -31.80087)"/><path class="cls-7" d="M338.33739,64.2739c.9424.8086-.373,1.2368-.7861,1.8272-.9307,1.3271-.5518.9121-.3281,2.3603.2675,1.7315-.3946.9331-1.001,2.3662-.4893,1.1568.3086,1.7232.292,2.896-.0078.5952-.3448,1.4771-.3321,2.1416a10.15862,10.15862,0,0,0,.3213,2.8252,8.059,8.059,0,0,1,.7862,2.8833c-.0254.9781-.3662,1.8609-.3018,2.8492-1.6973.0703-2.8662-5.2149-.7803-5.5162-.2871-1.1103-1.124-1.769-1.2841-3.0415-.1661-1.333.458-1.6147.7343-2.6806.4112-1.5889-1.6084-4.6392.7989-5.0249.1259-.7784-.3838-1.3326-.4844-2.045a7.22146,7.22146,0,0,1,.333-2.3652,23.30417,23.30417,0,0,1,.7217-4.456Z" transform="translate(-316.84071 -31.80087)"/><path class="cls-11" d="M394.43209,93.3691c.085.0342-.5244-.226-.2148-.0903.5498.7866,1.1318,2.1421,2.2715,1.8848a1.49751,1.49751,0,0,0-.6416-1.5591c-.0654.0283.3779.2739.3691.2651a3.87961,3.87961,0,0,1,.0371-.6714c.1924.271.586.4737.7481.6685.2627-.937.02051-3.0391-1.2139-2.8101-.4814.8872-.1318,1.9043-.6152,2.7911a3.03082,3.03082,0,0,1-2.0508-.2164Z" transform="translate(-316.84071 -31.80087)"/><path class="cls-11" d="M399.15089,92.0586c-.2471-.0962-.5195-.0586-.7461-.2222.6318,1.3902,2.1719,2.8369,3.1367,4.0811a35.549,35.549,0,0,0-1.8984-3.5176,6.622,6.622,0,0,0,2.3447,2.188c.1816-.9092-.6377-1.6484-1.0283-2.4365a5.00812,5.00812,0,0,0,1.0918,1.125,4.33981,4.33981,0,0,0-.501-1.7217,4.87261,4.87261,0,0,0,2.2188,1.2568c-.4258-1.2065-1.9414-1.9355-1.9649-3.289a8.21882,8.21882,0,0,1,1.04881.8715c-1.05561-1.3559-1.291-2.9633-3.34761-2.0102.1797.2153.2715.603.4053.7666a8.13277,8.13277,0,0,1-1.0606-.4004,5.47646,5.47646,0,0,1,1.0537,1.9639c-.5625-.0679-1.0019-.6397-1.5-.9883a7.248,7.248,0,0,1,.45121,1.2451c-.377-.1338-.88281-.1182-1.22361-.4575a5.87909,5.87909,0,0,0-.0537,1.5454Z" transform="translate(-316.84071 -31.80087)"/><path class="cls-11" d="M405.17919,85.5059a6.32117,6.32117,0,0,1-1.2314-.8179,7.04115,7.04115,0,0,0,4.0351,1.0791c-1.2334-.0659-3.12789-.499-3.831-1.5327,1.70411.4658,3.5918,1.393,5.4023,1.2837-1.3955-.6783-2.86519-1.2803-4.3008-1.8662a14.77472,14.77472,0,0,1,4.3018,1.0937,29.45683,29.45683,0,0,0-3.2471-1.5391c1.08691-.0312,2.3467.1685,3.5108.2217a9.4013,9.4013,0,0,0-3.2491-1.5981c1.2569.0161,2.5157-.0044,3.7735.0117a35.52364,35.52364,0,0,1-4.2989-1.0684c1.0381.0293,3.3829.4375,3.5567-.7275-1.87109-.1714-4.6358-.0449-6.03809-.0449a7.8254,7.8254,0,0,1,3.11519.2041c-1.11619.1343-3.3886-.4238-4.0996.5239a2.05425,2.05425,0,0,1,1.52541.7925c-.67481.0776-1.37891.0259-2.05081.1118.46981.4419,1.3301.689,1.7881,1.1987-.6992.041-1.4775-.1103-1.9765.3804a1.21844,1.21844,0,0,1,.9209.937,5.48953,5.48953,0,0,1-1.46.0464,9.11545,9.11545,0,0,1,1.7559.5234Z" transform="translate(-316.84071 -31.80087)"/><path class="cls-11" d="M407.53859,76.8555a.68843.68843,0,0,0-.5039.0591c.8252.7558,2.918.727,3.3662-.5445-1.1582-.2388-2.3818.2774-3.582.2359a16.16381,16.16381,0,0,1,4.1123-1.3872c-.78519-.4131-2.9151-.002-3.3711-.9336a30.55163,30.55163,0,0,0,3.04391-.8506c-1.17481.0312-2.34961-.0034-3.52441.0268.9121-.3628,2.2441-.5044,2.8047-1.2719-.9395-.1055-1.9141-.0035-2.8496-.0982.4844-.9038,2.0996-1.457,3.0449-1.9985a11.25468,11.25468,0,0,0-3.248.2143,5.58927,5.58927,0,0,0,2.1992-.8105,17.3502,17.3502,0,0,0-5.92779,1.9253,19.066,19.066,0,0,0,2.05569.6577,15.67466,15.67466,0,0,0-3.3066.8579c.9707-.0264,2.6181-.2671,3.3066.1772a12.00873,12.00873,0,0,1-2.7832,1.1187c.7266.3975,1.6856.3203,2.2656.9775a21.73356,21.73356,0,0,1-2.3232,1.0611c.917.0801,2.1162-.0274,2.57811.7876-.83491.5088-1.74511.0825-2.50681.5957,1.0166-.0269,2.0351-.0132,3.0527-.0132Z" transform="translate(-316.84071 -31.80087)"/><path class="cls-11" d="M408.58739,67.6812a4.21876,4.21876,0,0,0,2.60061-.8575c-.57031-.3955-2.26271.0938-3.05181.3526a19.6591,19.6591,0,0,1,2.9932-1.0738,21.19773,21.19773,0,0,1-4.3613-.3086c.7578-.7856,2.2685-.7783,3.3125-1.2714a7.03867,7.03867,0,0,1-2.7832-.1783c.8603-.6025,1.9551-.5312,2.7754-1.1328a6.20235,6.20235,0,0,1-2.7754-.3066c.6133-.6885,1.747-.7105,2.5078-1.2661a13.03884,13.03884,0,0,0-4.0576.851c-.0254.1416-.05859.2828-.0948.4224a10.03212,10.03212,0,0,1-1.749.626.37466.37466,0,0,0-.00679.4297c.78509.0146,1.51659.3154,2.29589.3506a.36315.36315,0,0,1,0,.4355,2.86907,2.86907,0,0,0-1.7207.6392c2.21781.1499.6631,1.1718-.5244,1.5659a2.45735,2.45735,0,0,1,1.53121.7295,7.53637,7.53637,0,0,1-1.24311.7798c.5.2788.164.5385.1572.5234Z" transform="translate(-316.84071 -31.80087)"/><path class="cls-11" d="M398.62649,50.3813a2.64372,2.64372,0,0,1-.543.6944,10.88911,10.88911,0,0,1,1.3496-3.479,7.14164,7.14164,0,0,1-2.0322,2.7051c.83011-1.1714,2.0615-2.2207,1.9717-3.7598-.9405.3569-1.543,1.291-2.292,1.9248.4199-1.0234,1.1142-2.0151,1.5058-3.0317a12.6645,12.6645,0,0,0-2.331,3.0253c.1894-1.0468.9932-1.9458,1.0127-2.9809a9.96845,9.96845,0,0,1-2.0235,2.4766,16.43561,16.43561,0,0,0,.5108-2.4766c-.35739.7622-.73239,1.521-1.1318,2.2593-.3545-.5015-.0538-1.3111.083-1.9966-.4893,1.0229-1.9131,2.4346-1.8653,3.5049,1.34871-2.3623,1.9971.688.7862,2.0893a5.75218,5.75218,0,0,1,.8173-1.6694,4.8208,4.8208,0,0,1-.4384,2.5278c.8505-.4492,1.332-1.3296,2.0185-1.9834a1.56194,1.56194,0,0,1-.5195,1.6494c.4199-.81,1.0869-.8857,1.331.0533a2.29836,2.29836,0,0,0,1.5274-.7466Z" transform="translate(-316.84071 -31.80087)"/><path class="cls-11" d="M388.92819,46.7109a.70724.70724,0,0,0,.4854-.039,14.17181,14.17181,0,0,0,.3066-1.9785,19.478,19.478,0,0,1-1.0674,3.7797c-.0292-1.1377.252-2.3383.2891-3.5166-.582,1.313-.96289,2.7061-1.5996,4.0337a11.76573,11.76573,0,0,1,.4268-3.5239c-.41509.8066-.4776,1.6885-.9454,2.4761-.2168-.6231-.2929-1.5361-.4589-1.9966a10.71769,10.71769,0,0,1-.8584,4.332c.0058-.1098.0097-.2207.01461-.3305-.00191.7299.00489,1.4594-.01371,2.1894.3809-.7544.8389-2.1352,1.5332-2.5151a18.42859,18.42859,0,0,1,.0459,1.9897,6.932,6.932,0,0,1,.9952-2.52,8.56215,8.56215,0,0,1,.0537,1.7349c.1289-.7315.59471-1.9893,1.05471-1.7559Z" transform="translate(-316.84071 -31.80087)"/><path class="cls-11" d="M382.10009,48.9902a21.88812,21.88812,0,0,0-.0469-3.0503c-.5039.731-.5449,2.0909-1.2636,2.7818a4.05916,4.05916,0,0,0-.18559-1.9956,17.82986,17.82986,0,0,1-.86421,3.0376,4.88224,4.88224,0,0,1,.0713-1.1446c.4052.9678.1484,2.2383.2441,3.313.8935-.2685.9697-1.3061,1.5391-1.9819-.0811.0952.2812,2.0391.26171,2.3437.11909-.7006.33689-1.3671.51949-2.0517a.378.378,0,0,0,.0147.2158,4.47886,4.47886,0,0,0,.8417-4.1728C382.731,47.1221,382.53859,48.1128,382.10009,48.9902Z" transform="translate(-316.84071 -31.80087)"/><path class="cls-11" d="M404.13039,86.5542a10.64966,10.64966,0,0,0-1.2246-.5298c1.8008-.0078,4.5107,1.333,6.125,2.1152-1.8506.1607-3.5742-1.0356-5.3457-1.0209.7978.8925,2.2051,1.5888,2.7783,2.5415a16.7563,16.7563,0,0,1-2.5732-1.4405c.7285,1.4414,2.6035,2.8013,3.621,4.0552-.9238.04-1.916-.8462-2.625-1.4341A18.587,18.587,0,0,0,405.938,92.752c-1.38091-.9761-2.50491-2.8023-3.54391-4.1382a13.528,13.528,0,0,0,1.3818,1.3657,7.69538,7.69538,0,0,1-3.2227-2.6128c.8682.397,1.5313,1.1802,2.4356,1.5776-.7569-.997-1.919-1.6411-2.6914-2.6772a31.67515,31.67515,0,0,1,2.9678,1.6289,7.13851,7.13851,0,0,1-2.1817-2.1538,14.70962,14.70962,0,0,1,2.2998.9751,6.56411,6.56411,0,0,1-1.0605-1.6968.74687.74687,0,0,1,.497-.0391Z" transform="translate(-316.84071 -31.80087)"/><path class="cls-11" d="M404.91749,61.3901c.4307-.8881,2.8682-1.2251,3.9111-1.3676-1.0322-.8301-2.9375,1.2578-4.1523.3901,1.4023-.6118,2.4101-1.8823,3.831-2.4487a17.95812,17.95812,0,0,1-4.0468,1.02c.9013-.5996,1.8359-1.1821,2.7226-1.7998-1.1406.0674-2.1494.8286-3.2929.7583.371-.9561,1.8662-1.8291,2.7832-2.3511a30.1254,30.1254,0,0,1-4.1592,1.6162,4.0983,4.0983,0,0,1,1.0722-.2329c-.48039,1.3828-2.3017,1.6987-3.3086,2.5991a24.56448,24.56448,0,0,1,3.5625.0274c-.038.7832-1.73729,1.3984-2.5126,1.5332.663.0014,1.3339-.0254,1.9814.0395-.0215.7056-.8828.8252-1.4443,1.2774.99021.0229,2.7988-.2661,3.3564-.2749h-1.0908Z" transform="translate(-316.84071 -31.80087)"/><path class="cls-11" d="M391.81109,50.3813c.71091-1.5512.9355-3.4501,1.8544-4.8823-.3671,1.1621-1.7568,2.3018-2.5419,3.2237a8.36517,8.36517,0,0,0,1.6386-3.0972,14.34428,14.34428,0,0,0-1.7636,2.0488c.1806-.7827.5703-1.6977.3583-2.2529-.4111.7632-.7773,1.5552-1.1904,2.3174a2.84952,2.84952,0,0,1-.1894-1.2105,10.73868,10.73868,0,0,1-.74809,3.7671c.16509-.3774.54489-.7568.74809-1.1186a3.16225,3.16225,0,0,1,.3134,1.3813,5.51732,5.51732,0,0,0,1.0088-1.6704,3.11483,3.11483,0,0,1-.1767,1.5171.88482.88482,0,0,0,.6885-.2857Z" transform="translate(-316.84071 -31.80087)"/><path class="cls-11" d="M400.72319,51.9536c.0214.2046-.0528.2847-.2227.2422a14.24667,14.24667,0,0,1,1.8213-2.7705,7.01333,7.01333,0,0,1-2.5606,2.8032,7.92649,7.92649,0,0,0,3.2813-.7602c-.4619.7773-1.6348,1.1108-1.7598,2.0185a5.27251,5.27251,0,0,0,2.5459-.9682,3.89827,3.89827,0,0,1-1.9775,1.5439c1.0244-.1177,1.999-.6436,3.04491-.4976-.30471,1.127-2.34181,1.1661-3.10351,1.7432a4.55131,4.55131,0,0,1,1.7861-.1558c-.6748,1.0767-2.2822,1.2618-3.3008,1.9976a7.196,7.196,0,0,0,.8907-.2422,6.9211,6.9211,0,0,1-1.9844.7666,8.01852,8.01852,0,0,1,2.2471-1.9453c-.82519.4385-2.377,1.3848-3.0469,1.0132a15.9183,15.9183,0,0,0,2.26071-1.6035c-.75091.2241-1.48821.4756-2.25391.6489.1973-.7041.8438-1.1665,1.2432-1.6982a2.31976,2.31976,0,0,1-1.4922.4458c.1445-.5318-.1045-.587.3926-.983a1.19967,1.19967,0,0,1-1.4473.7139c.14161-.938,2.0811-2.3652,3.1123-2.5747Z" transform="translate(-316.84071 -31.80087)"/><path class="cls-11" d="M384.47119,55.8857a11.91467,11.91467,0,0,0,.79881-1.4936,5.67238,5.67238,0,0,1-.50481,2.5083,12.56436,12.56436,0,0,0,2.498-2.2461c-.3389.5674-.6553,1.1572-.9307,1.7085,1.2588.0884,2.27251-1.5405,3.3467-2.0288a3.0221,3.0221,0,0,1-1.1836,2.1011,12.928,12.928,0,0,1,1.709-.7847A2.03507,2.03507,0,0,1,389.02,57.4263a1.81075,1.81075,0,0,1,1.96389-.4532,1.4284,1.4284,0,0,1-.9805,1.4942,3.84365,3.84365,0,0,1,3.084-.7085c-.0351,1.1767-2.1103,1.5063-3.0185,2.0718.91211-.0249,3.0166-.4224,3.2998.5185-.8233.607-1.9668.458-2.7764,1.0547.8945-.0254,2.04-.2588,2.6992.3145-.6103.3955-1.4804.5893-1.9902.9233,1.1191.0127,2.2383.3682,3.3662.3735-.4512.8179-2.1816,1.2032-3.0977,1.316.5596.416,1.8936-.1582,2.78321-.0049a5.8097,5.8097,0,0,1-2.47551.792,21.68339,21.68339,0,0,0,4.8994,1.0488c-.666.6157-1.9522.2451-2.586.6567,1.0039.6241,2.8672.7896,3.3662,1.8604a24.65942,24.65942,0,0,1-2.7832.0395c1.042.2637,2.9639.6485,3.5635,1.5264a10.17124,10.17124,0,0,0-2.3105.3667c.581.7764,2.20211.8579,2.3037,1.999a22.08074,22.08074,0,0,1-2.7705.0332c.83691.3819,2.12991.9615,2.5146,1.7945a18.88769,18.88769,0,0,1-2.501.04c.8252.6992,2.0684,1.3198,2.2315,2.3267a4.58125,4.58125,0,0,1-2.61819-.3682,8.92446,8.92446,0,0,1,1.52539,1.4214c-.708.1113-1.2773-.3765-1.9326-.4365a7.55056,7.55056,0,0,1,1.6563,2.2714,2.20878,2.20878,0,0,1-1.7657-.6538c.252.9097,1.0274,1.5884,1.30861,2.5025a6.28714,6.28714,0,0,1-1.57131-.9297c.2295,1.0815.9961,1.9365,1.2227,3.0268-.7256-.4394-1.0918-1.1845-1.7481-1.7221.2998.9912,1.0323,1.7417,1.2373,2.7705a5.43849,5.43849,0,0,1-1.97159-1.4531,10.24378,10.24378,0,0,1,1.51949,2.4428,16.91588,16.91588,0,0,0-1.7744-1.4541,14.88219,14.88219,0,0,1,1.2568,2.043c-.8066-.3008-1.3721-1.1875-2.1084-1.7085a2.93147,2.93147,0,0,1,.792,1.1792,4.6148,4.6148,0,0,1-2.2412-1.7876,3.58943,3.58943,0,0,0,1.4541,1.2686c-.2451-1.0215-1.2363-1.941-1.7861-2.7832.76171.7192,1.6914,1.1533,2.4931,1.7866-.5586-.688-1.1035-1.3823-1.6435-2.0884.8359-.0786,1.416.6294,2.1748.7129-.3008-.7617-.97169-.999-1.1846-1.7686a3.58375,3.58375,0,0,1,1.7735.7134c-.4522-.6074-1.293-.9282-1.5118-1.7554.57821-.0214,1.20221-.0107,1.7744-.0849-.1445-.6953-1.0205-1.1724-1.2509-1.9844.3271-.0518.6162-.3579.9961-.3735a6.739,6.739,0,0,1-.4659-1.2202c.2002.0107.4581-.0352.6778-.0318a1.15229,1.15229,0,0,1-.9395-1.0176c.5147-.0102.7666-.3003,1.2451-.3652a7.8305,7.8305,0,0,1-.9941-1.2139c.3721.0581.8965-.1357,1.2686-.0781-.4307-.729-1.3262-1.3774-.0713-1.7944-.95409-.3926-1.71-1.3311-.4512-1.7774-1.3691.1031-1.2412-1.3647-.0596-1.6435a2.243,2.243,0,0,1-2.2539-.9702c.3399-.0762.55861-.3008.9434-.3218a5.97741,5.97741,0,0,1-1.46779-.7925c.25779-.1606.19819-.4219.66889-.5244-.9707-.1338-1.71189-.9956-.7998-1.8408-.86909-.7647-.6845-1.9859-.6689-3.0601a1.67416,1.67416,0,0,1-1.0664,1.2046,3.26038,3.26038,0,0,1-.252-1.9858c-.2197.479-.2255.1782-.4853.4052a6.98828,6.98828,0,0,1-.2998-2.2392c-.0694.3135-.1846.5576-.2608.8642-.1767-.4443-.3574-1.1191-.46089-1.4536-.25491.6363-.458.499-.80571.7315a12.16745,12.16745,0,0,0-.5771-1.7085c-.0986.1367-.20119.2729-.3135.3999-.2295-.2544-.7871-.4551-.9961-.9102-.3349.5518-.6103.1973-1.0488.4185Z" transform="translate(-316.84071 -31.80087)"/><path class="cls-11" d="M370.74859,97.5752a17.73358,17.73358,0,0,1-2.18659-.5488,12.4505,12.4505,0,0,1,3.84669,1.9062c1.0371.6387,4.7422,2.0508,4.4209,3.5713-2.083.1992-5.6445-1.8135-7.47459-2.7383,1.543,1.0635,3.71389,2.2686,4.81929,3.7862-1.2187.2519-3.15129-.8243-4.2871-1.3028,1.25881,1.6602,3.3682,2.4453,4.5303,4.2442-2,.1347-4.8203-1.5264-6.3516-2.67,1.42,2.1036,6.0606,4.3311,6.1475,7.0752-3.56739.0069-6.1553-5.0205-9.585-5.2275,2.72461,2.1426,7.7891,4.7295,8.0127,8.6416-1.7236-.291-3.8945-2.708-5.208-3.8408-1.9472-1.6797-3.74309-3.6651-5.7402-5.2285.0928.1767.1719.4306.2627.6318a5.61508,5.61508,0,0,1-1.0547-1.7236c1.4014.0449,3.2764,1.205,4.6182,1.832a29.43009,29.43009,0,0,1-3.8448-2.875c1.4258.1582,2.5938,1.3125,4.1065,1.2812a8.168,8.168,0,0,1-2.1934-1.6083,15.48991,15.48991,0,0,1,5.0625,2.415,11.49307,11.49307,0,0,1-3.2978-2.8731c1.5166-.0234,3.0273,1.626,4.62891,1.7461a11.59661,11.59661,0,0,1-3.836-2.789c1.40629-.0078,3.03909,1.0849,4.35939,1.4785a8.799,8.799,0,0,1-3.8359-2.2656c1.2168.1464,2.3496.9795,3.5683,1.2832a7.5192,7.5192,0,0,1-3-2.3516c1.3946.2383,2.5576,1.3418,4.0479,1.2881-1.4151-.1719-2.8711-2.0527-4.2959-2.6367,1.2549.0117,2.5449.9131,3.7783,1.2168a27.67341,27.67341,0,0,1-3.3125-2.4756,14.802,14.802,0,0,0,2.7813.7637c-.9327-.6387-1.8965-1.1451-2.7803-1.8623C368.30319,96.0254,369.98879,97.5293,370.74859,97.5752Z" transform="translate(-316.84071 -31.80087)"/><path class="cls-7" d="M366.647,128.7559c-1.55181,1.75-3.96971,3.8203-4.23241,6.247-1.1221.4727-2.6055.0811-3.64359.6133-.87991.4522-1.69141,1.2578-2.667,1.7246-.69041.3311-2.78221,1.1641-3.03421,1.9531-.6289,1.9698,2.7539,1.2579,3.8663,1.2579,3.25191,0,6.2578.4492,9.45991.7275a12.99788,12.99788,0,0,0,4.76559-.2041c2.1465-.6641,4.1553-4.3496.7539-4.5059.5713-.6582,1.6866-1.2705,1.5586-2.3222-.1123-.9268-.9638-1.4444-1.0019-2.6075-.03519-1.0468.5644-2.3808-1.1211-2.371-.9512.0058-2.085,1.496-2.1406,2.3505a3.09163,3.09163,0,0,1,.2939-2.8154c-1.0596.0469-3.166,2.1621-3.3818-.3096Z" transform="translate(-316.84071 -31.80087)"/><path class="cls-10" d="M347.77389,129.2803c.6485,4.0947-5.8701,4-8.3877,4.2529-1.9619.1963-8.3955,2.4268-5.7861,5.3809,1.4443,1.6338,5.3428,1.3398,7.3584,1.3759,1.6172.0274,3.2227.8584,4.7246.2666,1.3135-.5175,2.5264-1.6611,3.92091-2.0947,1.62889-.5058,3.05179-1.0586,4.67779-1.626.2451-1.0654-.21679-2.6953-.21679-3.8857a8.61536,8.61536,0,0,1,.78609-3.9316c.9326-2.2422,1.5-5.1075,4.626-5.0264-.5899-.9502-3.3037-1.6953-3.5303-2.5615-.46779-1.794,4.1846-2.4737,5.417-2.6739a3.97952,3.97952,0,0,0-.5283-2.0136,8.111,8.111,0,0,0-4.2276-.045c-.8681.1807-2.6865,1.0772-3.1113.0967-.9385.5869-4.0625,1.4024-4.4121-.0117-.1221,1.3311-2.543.9805-3.5713.9453.21,2.2617,2.457,2.8399,3.25,4.75.7363,1.7725-1.666,5.2442-3.6104,5.4912Z" transform="translate(-316.84071 -31.80087)"/><path class="cls-12" d="M332.939,46.4482c.37789.0562.59279.3179,1.11329.2505a4.6978,4.6978,0,0,0-.3995.4785,6.1069,6.1069,0,0,1,2.337,1.9004c.3193.5513-.5586.6953.1796,1.3741.4053.3725,1.3438.2231,1.8614.1469.0273-.1484.0595-.2949.0957-.4409,1.0224.0547.7392,1.1997.7871,2.0313,1.0879-.7261,1.56441-4.647,1.85641-6.001.48829-2.2656-.38181-4.0737-2.91791-3.3706.0136.2192-.0869.4897-.0772.7099a2.88645,2.88645,0,0,0-2.3281.8189C335.064,44.646,333.42339,46.52,332.939,46.4482Z" transform="translate(-316.84071 -31.80087)"/><path class="cls-11" d="M372.44,93.8721a5.29355,5.29355,0,0,1-1.36331-1.2764c2.0674,1.8867,4.86231,3.0195,7.3818,4.1602,2.4912,1.1269,6.5401,2.2177,8.335,4.3252-.6524-1.7481-3.376-2.4756-4.4444-4.0879,2.8223-.2246,5.295,2.9336,8.2276,2.4179-.1221-1.957-2.499-2.8105-3.7803-4a4.97663,4.97663,0,0,0,3.43261.5054c-.55661-1.708-1.45991-4.2817-3.70411-3.7915,1.8877-.0166,4.2715-.1411,2.2725-2.3604-1.4346-1.5937-5.1133-2.1879-7.0176-3.1445-1.334-.6699-3.8291-1.9883-5.4941-1.1528-3.4034,1.706,3.2978,2.4243,4.5136,2.8906-.667.7651-1.7949.5947-2.7314,1.0303.5224,1.4267,3.4443,1.5117,3.0557,3.3838-1.3243.1103-2.7022.0508-4.043.0532a7.798,7.798,0,0,1,3.7187,1.124c-.999,2.3203-8.5498-2.083-10.7607-1.7724-.0518,1.1826,1.498,1.4707,2.40141,2.0454Z" transform="translate(-316.84071 -31.80087)"/><path class="cls-7" d="M388.05229,90.0356c-2.0254-.0249-4.0528.0279-6.0782-.0249,1.6914.7813,4.586,1.7481,5.458,3.4424a14.24021,14.24021,0,0,1-4.0517-.3047c1.5469,1.1363,5.0937,2.2334,5.4482,4.1582-1.1543.3223-2.2842-.247-3.3525-.5849a5.49983,5.49983,0,0,1,2.2891,2.6543c-1.9219,1.8711-7.6797-3.1392-9.7256-3.7642-1.333-.4067-2.8409-.6015-4.1963-.9624-1.3565-.3623-3.4375-1.667-4.794-1.4761,1.4483-.0009,4.9405.7798,5.8086.0962a23.99765,23.99765,0,0,0-4.4101-1.5024,40.58426,40.58426,0,0,0,4.4101-.0527c-.6963-1.4034-2.6963-1.5801-3.789-2.3067,1.7285-.2222,4.0859.3013,5.4404-.8657a16.34039,16.34039,0,0,0-3.5977-1.3106,20.62111,20.62111,0,0,1,3.9659-1.6684,26.92319,26.92319,0,0,0-3.2832-.0791C378.53079,85.4805,383.53659,88.3394,388.05229,90.0356Z" transform="translate(-316.84071 -31.80087)"/><path class="cls-9" d="M370.34229,92.125c1.8232-1.3345,8.7412,2.6348,10.4854,3.835,2.4218,1.665,7.7539,4.2656,9.0507,6.9296-1.81439.5118-3.539-1.375-4.85539-2.2998a60.01522,60.01522,0,0,0-5.961-3.8437c-3.23141-1.7446-5.97651-4.2349-9.76951-4.272Z" transform="translate(-316.84071 -31.80087)"/><path class="cls-9" d="M378.03179,89.3286c-.0303-.23-.375-.438-.0254-.3745,3.5673,2.0474,10.3945,3.0156,12.5713,6.9536-2.0733.0908-4.97369-2.8955-6.68069-4.0449-1.98541-1.3355-4.21191-2.2651-6.21581-3.5825Z" transform="translate(-316.84071 -31.80087)"/><path class="cls-9" d="M373.83739,85.4839c2.7988-2.3545,13.332,2.5771,14.9932,5.5229-2.1602.6348-5.6211-2.2246-7.6719-3.0747-2.0762-.8608-5.0049-2.1079-7.3213-1.749Z" transform="translate(-316.84071 -31.80087)"/><path class="cls-9" d="M372.08939,88.6299c4.209.4844,8.1689,3.3833,11.6211,5.5049,2.1201,1.3022,7.4687,3.0283,7.5576,5.9677-1.7862.3086-3.8135-2.2226-5.1983-3.1796a44.06179,44.06179,0,0,0-5.2509-2.7886c-2.8262-1.4375-5.5254-2.8496-8.37889-4.1065Z" transform="translate(-316.84071 -31.80087)"/><circle class="cls-13" cx="20.78969" cy="13.71133" r="0.85915"/></g><path class="cls-10" d="M368.94389,61.3672c-.3721-.5347,2.2812,1.2441,2.7627,1.6714q-.31935.06225-.6329.1455c.4766.6001,1.2168,1.1816,1.3204,1.9673-.4405-.0684-1.1543.2002-1.58009.1215a19.584,19.584,0,0,0,1.24019,1.6163c-.6201-.1075-.9433.061-1.5889-.3218.4825.3808.9122,1.0522,1.3262,1.4487-3.4101,1.3008,3.18951,4.6558,3.7149,6.3623a3.05289,3.05289,0,0,1-.3418,2.6465c-.7032.6978-2.168-.0522-2.6553.4912-1.2774,1.4282,1.4014,2.8057,1.2832,4.4199-.3623-.0669-.9346.1602-1.2998.1055-.1406,1.1074.94631,1.6602.6689,2.7603-.1845.7378-1.2714.7192-1.4814,1.6709-1.4766.457-3.334.4272-4.415,1.895-.7149.9731-.1944,1.6362-1.4678,2.2881-.7422.3798-2.3135.0708-3.1446.0708-1.621.0005-4.9853.5947-4.8994-1.7486.0703-1.895,4.333-2.1845,5.9034-2.1484.0019-1.0244-1.337-2.0596-.9317-3.0244.4688-1.1153,2.3164-.5869,2.835-1.8081.5654-1.334-1.3242-2.1431-.4844-3.4336.3896-.5996,2.2041-1.2114,2.8184-1.8184,1.7421-1.7222,2.45991-2.8696,2.0996-5.2431-.3604-2.3755-.9151-4.5206-.0362-6.6475a.66435.66435,0,0,0-.665-.3418Z" transform="translate(-316.84071 -31.80087)"/><path class="cls-10" d="M393.855,71.7651c.63569.8536,1.40139,1.2227.28909,2.0982,2.3964,1.5996,8.6621,1.8955,9.8466,4.9629,1.4131,3.6621-3.4941,1.2944-4.6386.3584-1.4688-1.2002-4.5772-3.2383-4.5508.3564.0146,1.919,3.7246,3.334,3.55371,4.5449-.34771,2.4458-3.168.3389-.76761,3.2154.7744.9272,3.4141,4.2436,1.082,5.1884-1.8837.7632-2.3681-3.2158-4.5078-2.7573-.84659,2.9556,3.9082,4.482,3.0411,7.9326-3.2344.8955-2.3096-3.9819-4.7823-3.3818-.0361.1963-.0791.3921-.1269.5859-1.4248-.0903-1.7959-2.9633-2.3799-4.1416-.47359-.955-.9824-.9409-.97659-2.0991.00689-1.1416,1.23639-1.8432,1.003-3.1445-.19341-1.0791-1.70711-1.8184-1.43951-3.1538.2109-1.0469,1.5244-1.1001,1.7012-1.8101.5674-2.2729-2.7725-3.2446,1.0498-4.5337.3017-1.4555-.96-1.8403-1.43849-3.0068-.52731-1.2817-2.20611-6.3433.24019-6.9585C391.31009,65.7046,393.01119,70.6353,393.855,71.7651Z" transform="translate(-316.84071 -31.80087)"/><path class="cls-10" d="M390.26519,75.3481c2.1523,1.585,5.3974,2.0035,7.9599,3.2232a67.949,67.949,0,0,1,8.1162,4.5439c.6973.4615,4,2.4307,3.4512,3.3369-.9629,1.5904-5.2813-1.7607-6.2647-2.288a15.46384,15.46384,0,0,0-9.0332-2.1045c.9795,2.1157,5.6202,3.8681,7.5557,5.0947,2.2275,1.4097,5.041,2.5986,6.0039,5.2686-5.9316,1.4394-9.4756-9.9122-15.6474-8.2759.3408,2.5029,5.1074,4.5136,7.0214,5.8799,1.7637,1.2578,5.5577,4.7343,4.7637,7.2876-2.1533.58-4.9453-4.2964-6.3154-5.6338-1.9317-1.8838-4.3184-4.2676-6.8672-5.1119.3105,3.9136,7.1182,5.9395,6.8906,10.397-2.5683.586-5.6826-4.2846-7.1992-5.9761-.7764-.8647-2.2363-2.165-2.1211-3.3295.06741-.6871,1.31841-.5474,1.36041-1.8267.02529-.772-1.23341-1.8491-1.38771-2.7441,2.583.0869,1.916-1.6573,1.4072-3.1368a4.51937,4.51937,0,0,0,1.999-.4712c.0313-1.0224-1.0644-2.0092-1.7383-2.7353.1426-.2153.2442-.5039.3936-.6987Z" transform="translate(-316.84071 -31.80087)"/><path class="cls-10" d="M392.71139,74.6489a1.74339,1.74339,0,0,0-.5937-.3755c4.4648.1582,9.248.4981,13.5254-.7607,3.6738-1.0811,8.414-1.0049,11.7597-2.7266-5.2285.1416-10.79679-.6123-15.8769.4453-2.666.5557-7.7363,2.0215-10.1172.3511,5.4248-.0864,11.1191-3.4179,16.4258-4.6411,3.48051-.8013,9.8701-1.2275,11.3164-5.2495a47.50629,47.50629,0,0,0-15.2725,2.8989c-1.0156.3955-9.0341,4.1216-9.4521,1.6699-.2402-1.4101,12.749-5.5537,14.04-5.9682,2.3682-.7612,9.3906-2.3892,8.3086-6.211-1.5244-.2656-3.4785,1.1368-4.8926,1.6949a84.52723,84.52723,0,0,0-9.4179,3.8423c-1.9727,1.0654-5.3555,3.5327-7.6016,1.6611.9893-1.6616,4.2891-2.8184,5.9561-3.835,3.0097-1.8369,6.9228-3.4004,9.0254-6.31,1.4521-2.0093,2.2812-4.1416-.69929-3.0562-3.27631,1.1939-6.04981,4.397-8.667,6.5689-1.26171,1.0478-4.82611,4.1777-6.74211,3.2485-1.754-.8506-.1592-3.4287.707-4.4819,3.24511-3.9453,9.5439-7.6333,8.7012-13.6109a25.90373,25.90373,0,0,0-7.3829,10.3965c-.9306,2.3901-2.0869,4.4395-4.7363,4.832-.4678-4.9589,6.6123-9.0341,5.4795-14.2397-1.791-.0586-3.4736,6.5654-4.06539,8.0693-.82721,2.1065-1.67871,4.8018-3.50291,6.1792-.377-2.3657.5527-4.9966.9775-7.3208.3135-1.7109,1.4287-4.1621.998-5.8789-4.875.3399-2.2802,12.0523-6.1865,11.793-.1299-1.415,1.5801-11.2578.0244-10.7461-2.6631.8765.7598,10.2881-3.1621,9.3379-.8896-2.0913.3281-5.2027-.665-6.9082a7.13269,7.13269,0,0,0-1.1416,3.1181c-.0557,1.0728.61521,2.1031.3545,3.1456-.8057,3.2197-2.8506.5942-3.4424-.9248.5625.7875.2939,1.4453-.6367,1.6235,2.9629,1.1753,6.79681.6929,9.7754,2.4468,2.7138,1.5991,2.3076,3.7602-.7813,4.6113.5742.9258,2.3916,1.0356,2.8701,1.935.8614,1.6172-.69139,1.6387-1.7168,2.4537,1.9619,1.4516,5.1455.9907,1.0215,2.9004a6.72092,6.72092,0,0,1,4.3926,1.4594c-.38669,1.0244-1.6699,1.1475-2.6983,1.3804a15.73243,15.73243,0,0,1-.3476,3.0254,16.34963,16.34963,0,0,1,3.0908,1.1084Z" transform="translate(-316.84071 -31.80087)"/><path class="cls-10" d="M376.98289,82.688a.824.824,0,0,1-.0615.6382c-1.0322.6064-2.4316.4887-2.7959,1.7475-.9893.1001-2.0371.0254-3.0312.1138a3.85069,3.85069,0,0,0,.6259,3.1177c-2.8574,1.9448-10.0205-1.3701-12.2373,1.7055-.8818,1.2247.7657,1.6333-1.1045,2.4805-.8769.3975-2.73039-.0537-3.73039.0361.34369,1.3814,1.08389,2.7564,1.32809,4.1744-2.1748,1.1352-5.2109-.2481-7.6094.0117-.165,1.4497,1.3975,3.9048,2.3731,4.7759-4.3457.9472-9.1934-2.9375-11.9414,1.8984-.9395,1.6543-.711,2.0605-2.7872,2.0176-1.3037-.0274-2.4531-.9727-3.7304-.6446.40621,1.7832,4.6074,5.7725,6.6123,4.7676,1.0478-.5254.7715-1.8965,1.8027-2.7304.9385-.7579,3.6153-1.3477,4.0957-.0606q-.30615.06735-.6113.1348c.1182,1.5508,4.0156,2.4414,5.417,3.0771-.6709.3164-2.6807.5332-2.2774,1.6797.2413.6875,2.9053,1.1025,3.5254,1.124a57.0189,57.0189,0,0,0,6.8789.2901c-.2714-1.0821-1.1953-1.6582-1.3173-2.6914.7998-.1504,1.5605-.3008,2.3564-.461-.0039-.2236-4.2715-5.1396-.6348-4.8838.6504.0459,2.1768,2.7754,2.7784,3.2217.8623.6397,2.3515,1.541,3.4394,1.3184.2549-2.8487-2.7139-3.6377-3.4131-5.9131.8438-.3262,1.8281-.3389,2.7237-.7432-.3057-1.6679-3.2207-2.1074-2.6993-4.0722,3.8409-.5088,6.6211,3.0205,10.7276,2.6923.6318-3.6562-6.28709-3.9863-7.8428-5.54.3369-.0449.7432-.3672,1.2051-.4023-.06839-.3516.1758-.9429.1054-1.2935,1.16221.02,2.3428-.7837,3.4405-.6909,1.26271.1064,1.9746,1.2558,3.4433.9346-.0673-.3521.1768-.9419.1075-1.2925,1.456-.1255,2.9804.0259,4.4365-.106.4931-1.6836-1.5078-2.0415-2.375-3.0215,1.4219-.1699,3.6396.4751,4.5762-.7715-1.876-1.2207,1.1474-3.041,2.3886-3.0639,2.4912-.0454,3.8213,2.9863,6.6192,2.289a4.36751,4.36751,0,0,0-1.2647-.2719c1.4444.2651,2.6807-.5972,2.2803-2.0957-.3779-1.418-3.3213-2.1797-4.4551-2.8921.5733-.9678,4.8633-3.2871,1.4063-3.8194.9619-1.2719,6.5918-4.8642,3.8154-6.8681-1.6797-1.2134-8.2275,1.4438-8.7149,3.0493a30.14272,30.14272,0,0,1,5.45711-.6729c-2.14461,1.688-4.66021,2.6856-6.63771,4.6475-1.3604,1.3501-2.3819,3.0161-3.9502,4.1426a1.81444,1.81444,0,0,1,2.3057-.0352Z" transform="translate(-316.84071 -31.80087)"/><path class="cls-10" d="M368.62259,83.8071a15.51637,15.51637,0,0,0,4.0957-.77c.374-.1328,1.6152-.2524,1.7724-.6724.2832-.7539-.6943-1.1723-.6601-1.5009.2285-2.1875,1.2949-.0518,2.48441-1.7408.81249-1.1513-.81061-1.4077-1.376-2.2895.708-.564,1.68059-.5933,2.374-1.1372,1.58589-1.2446.499-.2383.28319-1.7378-.2031-1.398-.7764-.8711.0684-2.1743.6933-1.0664,2.5107-1.2656,2.4775-2.7363-.0225-.9947-1.459-1.7188-1.7852-2.8038-.3408-1.1342,1.0557-.5991-.3173-2.0815-.7618-.8223-2.6582-1.022-2.4873-2.4536.1132-.9546,1.8564-1.6572,2.4511-2.0015-1.3701-.602-3.6748-1.1489-4.4619-2.4463,2.7461-1.0039-.0166-1.6484-.708-2.8066a5.72124,5.72124,0,0,1,4.85551.1694c2.15429,1.5518.32909,1.9424-.93171,2.9947a14.04213,14.04213,0,0,1,3.0215,1.3901c.5606.394,1.334.4975,1.5078,1.31.2051.961-.5429.7227-.5547,1.3101-.0097.4751-.7783.3613-.5585,1.0576.1298.4116,1.3701.4785,1.7031.6822,1.0527.6455,2.2578,1.08,2.0342,2.4814-3.9766.6416.85931,2.3638,1.0478,3.9058.1651,1.3608-1.60349,1.5131-1.6572,2.437-.0586.9892,2.0293,1.5517,2.0078,2.542-.0352,1.5517-2.7637,1.3286-3.1074,3.06-.21,1.0581,1.3525,1.1118.3984,2.1992-.49409.563-2.0625.2705-2.7676.6578.1856.8979.836,1.6679.5918,2.6831-1.2558.0937-2.4765.3994-3.7461.4624.208.3891.09481,1.2309.25,1.6352-1.0488.0952-2.1963-.2153-3.0371.4707a2.16558,2.16558,0,0,1-.3076,1.7266c-.6894.6221-2.0752.0664-2.8574.3271-1.4297.4781-4.03709,3.2803-5.5723.709C366.522,87.8208,372.43609,86.0425,368.62259,83.8071Z" transform="translate(-316.84071 -31.80087)"/><path class="cls-10" d="M367.19679,67.3091c5.0967,1.896-.875,3.3833-2.7764,4.5273.5391,1.9048,6.376,4.1905.7149,4.2803.51171.751,2.7666,1.5063,2.4443,2.7354-.26659,1.0078-3.6094,1.3105-4.5312,1.4394.08,1.1758,1.581,1.6255,1.2978,3.0347a9.41943,9.41943,0,0,1-3.3887.4634c.4414,2.3217-2.4238,2.0219-3.51949,3.0063,3.25289,2.4077,10.88669-.1509,7.79389-4.832,2.1534.0859,4.1036.5786,4.7686-1.7227.60551-2.0942-.8418-3.2754,2.0352-3.9058.414-1.604-2.34669-2.3334-2.34869-4.0639,4.88769-1.1651-.69431-3.7612,2.01659-6.2827a3.31007,3.31007,0,0,1-2.0605-1.126Z" transform="translate(-316.84071 -31.80087)"/><path class="cls-10" d="M336.08939,64.5127a11.78955,11.78955,0,0,0-.0078,2.4551c.2705.7763,1.1191.8672,1.3173,1.479.7579,2.3354-3.7392,4.8921-3.00389,8.2466,2.24809.6962,3.18559-1.941,4.80369-2.8199a17.60294,17.60294,0,0,0-.9843-1.6714c.93161-.5957,9.707-3.9829,4.5439-5.6699.458-1.2978,2.0606-1.2055,3.0069-2.0195-.20319-.1689-.4249-.4795-.5635-.6108,1.9297-.8907,4.5605-2.4161,5.65331-4.2642,1.16409-1.9668.44239-3.2173,2.22069-4.9102-.3584-.0488-.71-.396-1.2061-.4018-.5-1.8057,1.5909-2.9614,1.293-4.8062-2.5351.6949-2.5019,2.3506-4.0547,3.8955-1.1416,1.1358-2.7441,1.8443-4.0176,2.9727-1.5507,1.3745-1.6015,2.7837-2.6835,4.2817-1.378,1.9048-4.4424,3.1563-6.1241,1.1939A4.13193,4.13193,0,0,0,336.08939,64.5127Z" transform="translate(-316.84071 -31.80087)"/><path class="cls-10" d="M339.23489,63.814c-.4903,1.2934,3.1972-1.6138,3.8437-2.3047.8496,1.0288.0362,2.2993-.93359,2.9341.709-.0645,1.03229.3486,1.58789.4902-.2998.8281-1.41989,1.0664-1.708,1.7461-.6445,1.5146.21,1.0464.7237,2.3076.6923,1.6997.2558,1.6816-1.1172,3.2148,3.9648,3.0196-1.5352,3.5835-1.0508,6.5884a6.99689,6.99689,0,0,0-3.1973.649c-1.1387.7998-.9306,2.3769-2.98829,1.7978a10.09287,10.09287,0,0,1-.06151-3.0933c.3906-1.3042,1.0654-1.4086,1.7207-2.3774-1.1308-.3447-2.1064-.9419-3.3555-.8208,1.1895-1.2734,2.1631-3.0093,4.0362-3.1436.0527-.6533-.4336-1.0605-.38189-1.6113.01859-.1987.10939-1.2104.10359-1.4658a23.1136,23.1136,0,0,1,.6816-4.2124Z" transform="translate(-316.84071 -31.80087)"/><path class="cls-10" d="M337.48779,70.4546c-1.416,1.042-2.3125,2.1157-2.1582,4.1333-3.1172,1.1846-3.751,4.0132-3.835,7-.5937.168-4.0898,1.3247-4.5097,1.1348-1.8682-.8443.2285-3.0552-3.0752-2.8824.0752-.9668.5166-1.3769.5918-2.3437-3.6582-.7183-4.1182,5.9121-1.7031,7.6474,3.5429,2.545,7.4248-.247,11.125.9947a23.89957,23.89957,0,0,1,1.55461-3.3633,11.18118,11.18118,0,0,0,.67-3.5215c.20019-.0459.39939-.0923.59959-.1392-.26759-.2905-.3487-.9331-.6055-1.2314.1865-.2671.3867-.3013.6455-.438Z" transform="translate(-316.84071 -31.80087)"/><path class="cls-10" d="M344.478,59.6196c.74029-1.2451,2.97859-3.6245,4.46589-3.9389,2.03711-.4317,2.6679,1.7944,1.16211,3.1523,1.64839.7783,4.80759,1.5938,1.38859,2.9785.8799.5191,7.959.6607,4.19541,3.3037,1.43939.9175,2.73819,1.3369,2.87109,2.6485.0263.2563-1.1846.3589-1.1944.935-.01269.7837,1.32031,1.0415,1.4678,1.7378.3828,1.8081-1.0234,2.1079-2.1328,2.8057-.3946.2485-.2578.7666-1.0313,1.0654a11.495,11.495,0,0,1-2.4101.0528c.1738.4501.0644.5991.5146,1.0292a8.25457,8.25457,0,0,1-1.5303-2.4965c-.3593-1.7027-.1923-1.1475,1.32041-2.1753,3.206-2.1763.20889-1.7862-1.70321-3.4864.53321-1.0092,2.1094-1.6503,2.0078-3.0068-1.288-.5415-3.2597.0117-4.122-1.0234a5.04083,5.04083,0,0,0,2.0342-1.4922c-.96779-.4517-4.5323-.605-3.1446-2.3599a13.62973,13.62973,0,0,1-2.4111-.7778Z" transform="translate(-316.84071 -31.80087)"/><path class="cls-10" d="M357.06009,51.9307c-.2168-.1328-.4092-.1348-.5752-.3677,1.3437.0381,2.7217-.0562,4.0429.0791-.5781,1.0859-2.165,1.0254-2.748,1.9775a12.99629,12.99629,0,0,1,3.7959.8252,2.51581,2.51581,0,0,1-1.6055,1.0679c.9834.5273,3.13581.5596,3.7559,1.6421,1.2851,2.2466-1.2637,1.2475-1.7969,2.3598-1.043,2.1827,5.794,2.5547.75881,4.3702,1.11619,2.5942-.31741,2.6963-2.77931,2.7768a5.41925,5.41925,0,0,0-.1289.9702c-1.083-1.2944.8311-2.5537,1.7959-3.04-3.7764-.5737-2.05569-.4443-1.05469-3.1274-2.69821-1.9571-3.32131-2.0586-.457-4.2901-1.08111-.853-3.74811-.313-3.64851-2.0386.5987-.1069.9903-.5927,1.3946-.7587-1.0059-1.0249-2.8106-.6114-4.209-.7686a2.869,2.869,0,0,1,2.3828-1.0474c-1.1182-1.4165-3.67089-.2841-5.16889-.3354-.14751-2.1773,3.19819-2.8335,4.84759-2.7417Z" transform="translate(-316.84071 -31.80087)"/><path class="cls-7" d="M383.62359,40.396a4.66754,4.66754,0,0,1,2.7509-.2881,14.07169,14.07169,0,0,0-.6093,2.3325c1.8417.5264,2.6103-1.7968,3.4599-3.0151,1.4375-2.0581,2.0225-1.9434,4.1846-2.5161,3.4834-.9219,7.19531-4.3169,7.3945,1.2676,3.59381-2.3892,11.4209,2.4223,5.92381,3.6953,1.47759,1.5537,7.47469,1.2763,7.31739,4.8159-.0722,1.6167-1.69139,1.2046-.9912,2.7085.5576,1.1982,3.21781,1.1772,3.50781,2.7978.27929,1.5689-1.33011,1.0879-1.93451,2.5245-.5977,1.4213.7841,2.4008.0244,3.851-.708,1.3506-1.7266,1.3755-2.0176,3.147-.29,1.7778.4756,4.0229-.7695,5.6084-3.9043,4.9712-4.4815-9.082-5.0684-10.4473-.4717-1.0942-2.6006-3.2173-3.9736-2.1064-1.5977,1.2934.9189,4.2007,1.3427,5.4609,1.2061,3.5781-2.4121,7.3516-4.2099,2.8184-.9268-2.334-.2061-12.3501-5.0928-11.0674-.1523,1.5913,2.2246,4.4062-.0576,4.854-2.74319.5386-3.9326-3.8726-3.8418-5.7007.10161-2.0552,1.0547-3.4136-1.0498-4.4477-1.4844-.7295-4.97459-.3291-3.5293,2.0429-1.2422.1206-4.5479.5293-5.1367-1.0654-.7168-1.9463,3.3135-2.8862,2.7256-3.7749Z" transform="translate(-316.84071 -31.80087)"/></g></g></svg>