<svg id="OBJECTS" xmlns="http://www.w3.org/2000/svg" viewBox="0 0 391.76164 330.13687"><defs><style>.cls-1{fill:#fff;}.cls-2{fill:#a62d11;}.cls-3{fill:#3d67ff;}.cls-4{fill:#de774b;}.cls-5{fill:#eb5050;}.cls-6{fill:#ffb442;}.cls-7{fill:#ffd6a3;}.cls-8{fill:#ff5233;}.cls-9{fill:#767f99;}.cls-10{fill:#bdcfff;}</style></defs><path class="cls-1" d="M99.9064,318.25689c5.1052-9.0252,12.5065-18.1706,21.4101-21.4632,5.3801-1.9896,12.7665-4.8179,21.2609.8165,2.3873,1.5836,2.939,8.0074,1.3446,13.001-3.1547,9.8807-7.1402,20.6354-21.5823,28.9996-4.3008,2.4909-13.81659,10.9944-19.1575,7.5301C97.0952,343.19259,94.8854,327.13289,99.9064,318.25689Z" transform="translate(-41.80195 -116.98493)"/><path d="M106.1417,348.37569a5.71776,5.71776,0,0,1-3.182-.8917c-3.0015-1.9469-5.23959-6.7646-5.9869-12.8876-.7533-6.1722.2102-12.3557,2.5776-16.5408,3.6461-6.4457,11.3038-17.8288,21.6242-21.6457l.17351-.0642c5.43539-2.0111,12.87859-4.7654,21.45539.9236,1.2462.8268,2.0793,2.7881,2.3464,5.5228a20.53663,20.53663,0,0,1-.8382,7.9435c-3.4314,10.7472-7.6783,21.0696-21.7671,29.2291-.8819.5109-1.9823,1.2755-3.2564,2.161C115.3606,344.85529,110.2948,348.37569,106.1417,348.37569Zm-5.8794-29.9174c-2.2843,4.0382-3.2104,10.0342-2.4776,16.0389.7077,5.7979,2.8612,10.5111,5.6201,12.3006,3.9972,2.5922,10.869-2.1833,15.4167-5.3437,1.2889-.8958,2.402-1.6693,3.3133-2.1972,13.8364-8.0135,18.0168-18.1815,21.3976-28.7701,1.56271-4.8944.9776-11.1038-1.181-12.5357-8.2305-5.4595-15.4488-2.7887-20.71929-.8382l-.17391.0644c-10.0759,3.7263-17.6048,14.9327-21.1959,21.281Z" transform="translate(-41.80195 -116.98493)"/><path class="cls-2" d="M276.09911,119.4376c-14.17162,3.4914-26.14362,11.6492-33.61712,24.1859a58.28425,58.28425,0,0,0-7.5446,38.5493,59.63322,59.63322,0,0,0,8.3838,23.39909,41.529,41.529,0,0,0,20.2895,17.3882,79.04931,79.04931,0,0,0,19.7239,3.7971c14.34.4913,26.8073-2.0048,38.90452-9.721,12.09708-7.7161,19.47348-15.6234,23.44558-29.18389,2.8303-9.6625,3.2039-23.3142-1.757-37.3237-4.3223-12.2058-13.4395-20.8074-22.2847-26.276-7.4298-4.5934-17.3512-6.43571-26.1064-6.814A76.48208,76.48208,0,0,0,276.09911,119.4376Z" transform="translate(-41.80195 -116.98493)"/><path d="M286.76411,227.22619q-1.694,0-3.44362-.0602a79.8873,79.8873,0,0,1-19.8542-3.8234,42.18657,42.18657,0,0,1-20.495-17.5588,60.22768,60.22768,0,0,1-8.438-23.5479,58.37467,58.37467,0,0,1,7.5974-38.82169c7.3275-12.2917,19.0395-20.7199,33.8705-24.3737h0a76.7688,76.7688,0,0,1,19.55292-2.0104c7.44738.3217,18.05618,1.7755,26.304,6.8746,7.63688,4.7215,17.73188,13.1495,22.45528,26.4874,4.4415,12.543,5.0845,26.2386,1.7638,37.5752-3.7196,12.69849-10.3415,20.94519-23.6182,29.41369C311.86679,224.13739,300.73989,227.22589,286.76411,227.22619ZM276.099,119.4376l.0979.3971c-14.6139,3.6003-26.1507,11.8988-33.3636,23.9983a57.55744,57.55744,0,0,0-7.492,38.2765A59.46684,59.46684,0,0,0,243.67111,205.36a41.35266,41.35266,0,0,0,20.08438,17.2176,78.84539,78.84539,0,0,0,19.593,3.7709c15.4445.5305,27.3704-2.4493,38.6708-9.657,13.0902-8.3498,19.6154-16.4677,23.273-28.954,3.2732-11.1755,2.6354-24.6878-1.75018-37.0724-4.64372-13.1135-14.58892-21.41221-22.11422-26.0646-8.0976-5.0064-18.559-6.4357-25.9089-6.7533a75.8744,75.8744,0,0,0-19.3221,1.9875Z" transform="translate(-41.80195 -116.98493)"/><path class="cls-3" d="M258.46229,233.96509c20.6767.5216,45.8513-.6105,60.3819-.8739,10.956-.1986,25.5953-1.7714,33.9173-1.3997,1.1442,29.7135-2.3437,59.0979-.9306,88.7998.8393,17.6411,3.3871,56.2151,2.5295,73.8553h-89.2949C259.35989,356.896,260.96,282.21929,258.46229,233.96509Z" transform="translate(-41.80195 -116.98493)"/><path d="M354.36039,394.75559h-89.2949a.40906.40906,0,0,1-.40438-.3474c-3.63132-23.83545-4.30582-62.6878-4.95832-100.2609-.3802-21.9025-.7395-42.5903-1.6489-60.161a.409.409,0,0,1,.1153-.3066.39263.39263,0,0,1,.3034-.1235c15.0816.3807,32.5349-.1188,46.5584-.52,5.0806-.1455,9.8798-.2828,13.8058-.3539,4.6437-.0841,9.9936-.4185,15.1674-.7417,7.182-.4486,13.9668-.872,18.7755-.6576a.40916.40916,0,0,1,.3906.3928c.5566,14.4548.0094,29.0628-.5196,43.1898-.559,14.9235-1.1369,30.3552-.4112,45.6062.1693,3.5609.4038,7.8885.6752,12.8992,1.0718,19.7912,2.5396,46.896,1.8542,60.9955A.409.409,0,0,1,354.36039,394.75559Zm-88.9432-.8179h88.553c.6384-14.1634-.8113-40.93-1.8723-60.5223-.2716-5.0124-.5061-9.3412-.6756-12.9048-.7271-15.2857-.1486-30.7351.411-45.6756.5239-13.9885,1.0654-28.4495.53382-42.7502-4.74132-.1747-11.33832.2365-18.312.6723-5.18252.3237-10.54162.6585-15.20362.743-3.9215.0711-8.7185.2084-13.7972.3536-13.8971.3976-31.1576.8916-46.1609.5311.8935,17.4892,1.25,38.0218,1.6272,59.7483C261.16949,331.496,261.84039,370.1266,265.41719,393.93769Z" transform="translate(-41.80195 -116.98493)"/><path class="cls-4" d="M284.31489,216.98929q.8445,5.44275,1.689,10.8856c.4037,2.6016.6586,5.6677-1.26678,7.4634a8.15379,8.15379,0,0,1-3.147,1.5559q-3.09378,1.0041-6.18772,2.0082c8.04272,9.3998,15.8192,18.4407,24.3016,27.4455,7.2832-10.0095,13.296-20.699,19.1402-31.6114-1.5374-.7097-3.5647-1.453-5.10208-2.1627a2.60553,2.60553,0,0,1-1.99682-2.6357q-.89445-8.19615-1.7887-16.3925C301.43139,213.83139,292.73749,215.64039,284.31489,216.98929Z" transform="translate(-41.80195 -116.98493)"/><path d="M299.704,266.75689a.40934.40934,0,0,1-.2978-.1286c-8.2633-8.7722-15.9005-17.6262-24.3145-27.46a.409.409,0,0,1,.1846-.6549l6.1876-2.0083a7.88749,7.88749,0,0,0,2.99422-1.466c1.72238-1.6062,1.56668-4.3623,1.14168-7.1015l-1.6891-10.8857a.40875.40875,0,0,1,.3395-.4664c1.8241-.2922,3.6968-.612,5.50792-.9214a151.80893,151.80893,0,0,1,20.18458-2.5273.40427.40427,0,0,1,.42042.3645l1.78868,16.3925a2.227,2.227,0,0,0,1.7616,2.3088c.7603.3508,1.6618.7182,2.5335,1.0736.8807.3589,1.7913.7302,2.5686,1.0889a.40912.40912,0,0,1,.1892.5645c-6.4701,12.0812-12.2062,22.0884-19.17,31.6589a.4094.4094,0,0,1-.305.1676Zm-23.5922-27.6547c8.1356,9.5062,15.5597,18.102,23.5512,26.6055,6.7328-9.3103,12.334-19.0674,18.614-30.7787-.6678-.2958-1.4138-.5998-2.13888-.8954-.88032-.3587-1.79052-.7297-2.56742-1.0884a2.99076,2.99076,0,0,1-2.2321-2.9627l-1.7474-16.0144a154.25981,154.25981,0,0,0-19.6953,2.5023c-1.6805.287-3.4142.5832-5.1145.858l1.6268,10.4838c.4593,2.9615.6087,5.9593-1.39208,7.8252a8.5039,8.5039,0,0,1-3.29982,1.6457Z" transform="translate(-41.80195 -116.98493)"/><path d="M286.24529,231.89249a19.67765,19.67765,0,0,0,5.1751-.0186,35.59954,35.59954,0,0,0,10.92672-3.5761,73.64354,73.64354,0,0,0,8.66418-5.0863q-.52755-4.83285-1.0548-9.6659c-8.525.2858-17.219,2.0948-25.6416,3.4437q.8445,5.44275,1.6889,10.8856A16.6713,16.6713,0,0,1,286.24529,231.89249Z" transform="translate(-41.80195 -116.98493)"/><path d="M295.55569,261.76559c-2.0631-3.0948-4.0165-6.2617-5.9064-9.4646-1.8474-3.1304-3.6333-6.2966-5.3984-9.4738q-1.59915-2.8782-3.1881-5.7619-2.8302.9186-5.6603,1.8371c6.80862,7.9574,13.428,15.6576,20.4448,23.2965C295.75019,262.05429,295.65219,261.91029,295.55569,261.76559Z" transform="translate(-41.80195 -116.98493)"/><path class="cls-4" d="M247.04179,170.1428c1.8145,11.5754,2.734,17.4012,3.1877,26.5032.4537,9.10189,2.3399,19.01919,9.3625,24.82739,5.70912,4.7219,13.6233,5.68,21.03112,5.5537,11.763-.2009,23.86678-2.8338,33.26688-9.9083,9.4002-7.0744,12.6805-15.9105,9.8935-32.18479-1.6396-9.575-4.5031-21.7803-7.8233-27.7683-5.0764-9.1553-9.1782-12.0636-19.1889-15.1253-5.5904-1.7099-16.9313-2.0318-24.9786-.2372-11.5545,2.5768-16.7853,7.2354-21.0387,12.9196A21.85815,21.85815,0,0,0,247.04179,170.1428Z" transform="translate(-41.80195 -116.98493)"/><path d="M279.42669,227.44639c-9.0347,0-15.4412-1.8086-20.0954-5.658-7.7205-6.3854-9.1253-17.3957-9.5101-25.12209-.4498-9.0211-1.3517-14.7738-3.1482-26.235l-.0353-.2252a22.15716,22.15716,0,0,1,3.7888-15.7283c4.4902-6.0006,9.8267-10.5202,21.2772-13.07391,8.436-1.88129,19.8341-1.39189,25.1872.24531,10.459,3.199,14.4533,6.3485,19.427,15.3181,1.0495,1.8925,4.7181,9.49759,7.8687,27.8977,1.4113,8.2413,1.2874,14.51259-.3902,19.73639-1.6106,5.0149-4.6802,9.0962-9.66028,12.8443-8.37722,6.3044-19.96332,9.7591-33.50592,9.9903Q280.02074,227.44634,279.42669,227.44639Zm-31.981-57.36689.0353.2252c1.8012,11.4896,2.7053,17.2567,3.157,26.3209.3775,7.57179,1.743,18.35289,9.2146,24.53259,4.6992,3.8865,11.2967,5.6206,20.7636,5.4599,13.3688-.2282,24.7896-3.626,33.028-9.8261,9.677-7.2827,12.4067-16.1954,9.7361-31.789-3.129-18.2728-6.7443-25.775-7.7777-27.63911-4.84648-8.74009-8.7427-11.81029-18.9509-14.93239-5.2531-1.6068-16.4601-2.0823-24.7698-.2291-11.2053,2.4989-16.4192,6.9104-20.8003,12.76549A21.60309,21.60309,0,0,0,247.44569,170.0795Z" transform="translate(-41.80195 -116.98493)"/><path d="M298.72739,281.28909a.40856.40856,0,0,1-.3177-.1516c-9.6757-11.943-18.6508-24.7406-27.3304-37.117l-2.0528-2.9263a.40889.40889,0,0,1,.1108-.5771,74.61506,74.61506,0,0,1,12.746-6.6754.409.409,0,1,1,.3075.7579,73.806,73.806,0,0,0-12.2515,6.3718l1.8096,2.5794c8.5711,12.2215,17.4299,24.8535,26.9599,36.6561,9.85732-13.6972,17.8164-28.318,25.7499-43.3418-.9339-.3089-1.931-.6774-2.8997-1.0354-1.1222-.4147-2.2826-.8436-3.3268-1.1728a.409.409,0,0,1,.2461-.78c1.06282.3351,2.2329.7674,3.3642,1.1855,1.1228.4149,2.28362.8439,3.3281,1.1732a.409.409,0,0,1,.2386.581c-8.1068,15.3606-16.2224,30.3076-26.3504,44.3034a.40881.40881,0,0,1-.3202.1689Z" transform="translate(-41.80195 -116.98493)"/><path d="M304.47949,272.22789a.40792.40792,0,0,1-.317-.1505c-1.7276-2.1166-3.5671-4.186-5.4675-6.1505a.409.409,0,0,1,.588-.5687c1.9164,1.9811,3.7712,4.0678,5.5133,6.202a.40911.40911,0,0,1-.3168.6677Z" transform="translate(-41.80195 -116.98493)"/><path class="cls-1" d="M326.23349,394.34659c4.2547-36.35975,19.4118-111.5035,18.206-163.0268a405.857,405.857,0,0,1,47.8647,1.4717c5.095.4726,10.4913,1.1589,14.4717,4.3742,3.1906,2.5775,5.0389,6.4679,6.256,10.3848,3.6741,11.8233,2.44222,24.586.32622,36.7848-5.72142,32.9831-17.57782,77.23441-24.38112,110.0113Z" transform="translate(-41.80195 -116.98493)"/><path d="M388.97711,394.75559H326.23349a.40915.40915,0,0,1-.4063-.4565c1.18592-10.1336,3.1871-23.07951,5.5047-38.06959,6.0447-39.10031,13.5678-87.76211,12.6989-124.90011a.40862.40862,0,0,1,.3998-.4185,406.18036,406.18036,0,0,1,47.9113,1.4733c5.4569.5063,10.6867,1.2286,14.6909,4.4635,2.78632,2.2507,4.8765,5.7119,6.3898,10.5813,3.8186,12.2891,2.314,25.5879.33852,36.9763-3.41922,19.7103-9.02022,43.4113-14.43732,66.3317-3.7063,15.68327-7.2073,30.4964-9.9463,43.6928A.4087.4087,0,0,1,388.97711,394.75559Zm-62.28382-.8179h61.9511c2.731-13.1248,6.2062-27.82936,9.8834-43.3888,5.414-22.9087,11.0125-46.5973,14.42732-66.2834,1.95888-11.2924,3.45348-24.4707-.31382-36.5937-1.4636-4.7096-3.4663-8.0422-6.1225-10.1878-3.82668-3.0914-8.9253-3.7911-14.2524-4.2853a404.4397,404.4397,0,0,0-47.4086-1.4788c.8062,37.1579-6.6899,85.6456-12.7175,124.63462C329.85879,371.11254,327.88369,383.88749,326.69329,393.93769Z" transform="translate(-41.80195 -116.98493)"/><path class="cls-1" d="M290.39211,394.71579c-1.76862-26.184-5.10232-66.5355-9.97782-92.3224-1.0128-5.3565-2.0919-10.7002-3.171-16.0438q-5.41635-26.82075-10.8326-53.6414c-9.3117-1.8317-33.7601-1.1786-42.8983,1.3812a20.49114,20.49114,0,0,0-8.4866,4.4351,30.92934,30.92934,0,0,0-5.8368,6.6893c-13.89629,22.6891-26.10379,46.679-43.63488,66.6929,9.75369,14.4945,19.159,35.552,28.91289,50.04642,10.64419-9.28831,22.422-24.30782,30.63929-36.54892-.956,18.1612-1.41318,50.3901-1.06618,68.5732Z" transform="translate(-41.80195 -116.98493)"/><path d="M290.39211,395.12489h-.00452l-66.3521-.7385a.40883.40883,0,0,1-.40438-.4012c-.35072-18.3881.11138-49.2282.99208-67.1351-9.7802,14.3884-20.8874,27.55774-29.88759,35.41111a.40851.40851,0,0,1-.608-.07989c-4.8882-7.26386-9.7628-16.30952-14.477-25.05742-4.7051-8.7305-9.5701-17.7582-14.4358-24.9889a.40883.40883,0,0,1,.0315-.4977c13.2532-15.1298,23.63481-32.8385,33.675-49.9642,3.218-5.4893,6.5457-11.1656,9.9189-16.6729a31.25588,31.25588,0,0,1,5.9167-6.7839,20.88587,20.88587,0,0,1,8.6451-4.5208c8.8936-2.4913,33.458-3.2829,43.0876-1.3886a.40925.40925,0,0,1,.3219.3204l10.8402,53.6782c1.0587,5.2434,2.1537,10.6652,3.16442,16.012,5.06938,26.8136,8.43138,69.3826,9.98408,92.3709a.40887.40887,0,0,1-.40808.4365Zm-65.95042-1.5521,65.5125.7291c-1.5645-23.06953-4.9124-65.2307-9.9417-91.8327-1.0099-5.3415-2.1043-10.7609-3.1625-16.0017l-.0074-.037-10.7784-53.3721c-9.7278-1.8122-33.7098-1.0211-42.4418,1.4248a20.121,20.121,0,0,0-8.3279,4.3495,30.41631,30.41631,0,0,0-5.7568,6.5947c-3.3689,5.5006-6.69458,11.1733-9.9109,16.6594-10.007,17.0694-20.35309,34.7172-33.558,49.8526,4.8292,7.219,9.644,16.1532,14.3017,24.7965,4.6213,8.5754,9.3975,17.43823,14.1768,24.60248,9.14129-8.06815,20.40649-21.544,30.21949-36.16208a.40884.40884,0,0,1,.7478.2495C224.59319,342.93249,224.09549,374.63929,224.44169,393.57279Z" transform="translate(-41.80195 -116.98493)"/><path d="M191.9247,277.62429s-16.9614,22.5539-26.3705,34.2824c9.7535,14.4945,19.15891,35.552,28.9127,50.04641a131.05467,131.05467,0,0,0,16.37289-16.84891C208.14929,338.77689,194.0149,285.36189,191.9247,277.62429Z" transform="translate(-41.80195 -116.98493)"/><path d="M329.16849,383.05679a.4091.4091,0,0,1-.2738-.7132c.29142-.2619,28.9683-26.08493,37.7827-36.2783-2.0902-2.414-4.7414-5.6928-7.794-9.4676-2.72928-3.3755-5.8231-7.2014-8.9198-10.897a.40922.40922,0,0,1-.0619-.4249c7.51842-17.3962,15.4569-39.9359,23.1339-61.7338,3.9284-11.1537,7.6389-21.6891,11.1993-31.2808a.409.409,0,1,1,.7668.2846c-3.5579,9.5853-7.2674,20.1175-11.19458,31.268-7.64762,21.7138-15.55492,44.1651-23.05442,61.555,3.0469,3.6408,6.0828,7.3954,8.7668,10.7146,3.1618,3.9098,5.8921,7.2865,8.00662,9.7115a.40892.40892,0,0,1,.00278.5343c-8.5682,10.0419-37.79278,36.3579-38.087,36.6227A.40748.40748,0,0,1,329.16849,383.05679Z" transform="translate(-41.80195 -116.98493)"/><path d="M225.10589,325.81319a.40914.40914,0,0,1-.4075-.3787c-.4698-6.3286-.9915-12.8013-1.4961-19.0608-1.8724-23.2341-3.809-47.2595-3.68-70.6794a.409.409,0,0,1,.818.0045c-.1288,23.3847,1.8061,47.3922,3.6773,70.6092.5048,6.2607,1.02652,12.7348,1.4964,19.0658a.40871.40871,0,0,1-.3774.4382Z" transform="translate(-41.80195 -116.98493)"/><path d="M289.41179,381.44009a.40768.40768,0,0,1-.2748-.1062c-7.0686-6.4195-21.5045-22.126-29.1158-33.7331a.40917.40917,0,0,1,.0045-.4553c1.6819-2.456,4.37342-6.7742,6.9762-10.9502,2.4813-3.9813,5.0445-8.0937,6.8151-10.7292-19.36388-22.91-32.0411-52.1285-39.8881-91.9202a.40892.40892,0,1,1,.8024-.1582c7.846,39.7855,20.5274,68.9511,39.9097,91.7858a.4091.4091,0,0,1,.027.4939c-1.7654,2.6072-4.4124,6.8537-6.9718,10.9604-2.5292,4.0583-5.1422,8.2503-6.8407,10.7528,7.6132,11.52775,21.84062,26.9989,28.8314,33.3477a.409.409,0,0,1-.2751.7118Z" transform="translate(-41.80195 -116.98493)"/><path d="M288.41679,180.3241c-.5611-2.7907.5758-4.4639,2.3224-4.8151,1.7466-.35111,3.4418.7527,4.00292,3.5434.561,2.7906-.57572,4.4639-2.32232,4.815-1.74668.3512-3.4419-.7526-4.003-3.5433" transform="translate(-41.80195 -116.98493)"/><path d="M258.80739,186.2774c-.5611-2.79051.57572-4.4639,2.3224-4.8151,1.7466-.3512,3.4417.7528,4.0028,3.5433.5611,2.7908-.5757,4.464-2.3224,4.8152-1.7465.3512-3.4417-.7526-4.0028-3.5434" transform="translate(-41.80195 -116.98493)"/><path class="cls-5" d="M306.47739,187.2495a5.80423,5.80423,0,1,1-6.8345-4.5463A5.80421,5.80421,0,0,1,306.47739,187.2495Z" transform="translate(-41.80195 -116.98493)"/><path class="cls-5" d="M262.38139,196.1155a5.80418,5.80418,0,1,1-6.8344-4.5462A5.80432,5.80432,0,0,1,262.38139,196.1155Z" transform="translate(-41.80195 -116.98493)"/><path d="M268.94919,201.61629a2.52425,2.52425,0,0,1-.5664-.063,3.3027,3.3027,0,0,1-2.3154-2.8667,8.90976,8.90976,0,0,1,.4671-3.53559l1.3227-4.8025a.4089.4089,0,1,1,.7884.2173l-1.3224,4.8025a8.29745,8.29745,0,0,0-.4454,3.20859,2.5251,2.5251,0,0,0,1.68832,2.1792,2.0311,2.0311,0,0,0,1.59568-.3541.409.409,0,0,1,.4737.667A2.94534,2.94534,0,0,1,268.94919,201.61629Z" transform="translate(-41.80195 -116.98493)"/><path d="M273.07711,209.21519a24.78786,24.78786,0,0,1-4.43372-.3951.409.409,0,0,1,.1462-.8048,26.45391,26.45391,0,0,0,25.9521-10.92449.409.409,0,0,1,.6778.4579A27.421,27.421,0,0,1,273.07711,209.21519Z" transform="translate(-41.80195 -116.98493)"/><path class="cls-2" d="M324.68339,162.4085c-3.2337,2.65839-3.6022,6.3517-3.00928,10.4059s2.419,8.0233,2.32458,12.1196a17.45515,17.45515,0,0,1-11.5785,15.51069c2.7887-2.99909,5.4291-6.94769,5.9528-11.00929a15.98927,15.98927,0,0,1-15.0225,12.59289c3.4254-2.1228,6.9237-5.809,7.4843-9.79969a13.67042,13.67042,0,0,1-11.561,3.3179,14.865,14.865,0,0,0,7.5064-22.6288c-4.1247-5.8987-11.7219-7.9683-18.5642-10.2024-10.9454-3.5739-21.7257-8.1817-27.29188-18.2608,1.74148,2.5325,1.72048,5.9139.93618,8.8856-.7843,2.97179-2.2424,5.7203-3.215,8.63579a27.74959,27.74959,0,0,0-.7467,14.77631,19.45944,19.45944,0,0,1-5.2967-12.6561,32.91882,32.91882,0,0,0,.2603,17.20679,19.241,19.241,0,0,1-5.8204-11.16009,33.76153,33.76153,0,0,1,.5876-12.7362c2.80372-13.0065,13.848-24.0686,26.8006-27.1113,12.9526-3.0429,26.6505.1177,38.84512,5.4391,6.33978,2.7666,13.06808,6.9279,14.50458,13.6942C329.13069,155.7926,329.709,158.2771,324.68339,162.4085Z" transform="translate(-41.80195 -116.98493)"/><path class="cls-4" d="M321.87111,169.9138a6.289,6.289,0,0,1,3.63148-7.19591,8.02773,8.02773,0,0,1,8.2171,1.52081,11.20815,11.20815,0,0,1,3.5645,7.8064,18.87612,18.87612,0,0,1-1.7699,8.55079,12.977,12.977,0,0,1-4.4891,5.91161c-2.1074,1.3646-5.0748,1.6323-7.0616.09739" transform="translate(-41.80195 -116.98493)"/><path d="M327.24,188.0604a5.7347,5.7347,0,0,1-3.5265-1.1319.409.409,0,0,1,.5001-.6473,5.82093,5.82093,0,0,0,6.5893-.117,12.42935,12.42935,0,0,0,4.3364-5.7318,18.4005,18.4005,0,0,0,1.7365-8.3637,10.76131,10.76131,0,0,0-3.4248-7.5216,7.58928,7.58928,0,0,0-7.7868-1.4536,5.90055,5.90055,0,0,0-3.4007,6.7049.409.409,0,0,1-.7848.2308,6.66213,6.66213,0,0,1,3.8621-7.687,8.42,8.42,0,0,1,8.6476,1.5882,11.58131,11.58131,0,0,1,3.7041,8.0911,19.20658,19.20658,0,0,1-1.8035,8.7381,13.19987,13.19987,0,0,1-4.6416,6.0912A7.432,7.432,0,0,1,327.24,188.0604Z" transform="translate(-41.80195 -116.98493)"/><path d="M324.38139,176.2488a.409.409,0,0,1-.409-.4071,9.21969,9.21969,0,0,1,4.7778-7.9914c2.1955-1.167,4.1268-.62641,4.8991.5112a.40894.40894,0,1,1-.6766.4595c-.7421-1.0925-2.5318-.94311-3.8387-.2483a8.382,8.382,0,0,0-4.3436,7.26519.40909.40909,0,0,1-.40728.41091Z" transform="translate(-41.80195 -116.98493)"/><path class="cls-2" d="M331.91439,209.86909c5.0166,5.6456,6.6642,12.4869,6.8591,20.0369.1949,7.5498-1.6718,15.0276-4.3495,22.0894-1.264,3.3335-2.724,6.6477-3.1708,10.1848-.7316,5.7918,1.3095,11.521,2.3934,17.2573a53.56176,53.56176,0,0,1-9.2519,41.5546c.4992-6.2104-.19358-11.9435-3.0759-17.4673,1.8276,10.756,1.9087,17.9219-.8661,28.4733-4.0972-7.7874-7.7279-16.4697-9.14058-26.226.078,5.6465,2.25088,11.3454,2.76958,17.904-10.772-8.816-12.3532-19.9003-11.6259-31.0828.7272-11.1826,6.2109-22.0754,10.7682-32.313,2.1676-4.8695,4.623-9.6343,6.2153-14.7211,2.84182-9.0782,3.5439-18.1403.6069-27.1881C324.60849,215.44239,328.85489,212.97769,331.91439,209.86909Z" transform="translate(-41.80195 -116.98493)"/><path d="M320.45259,332.407a.40879.40879,0,0,1-.3617-.2185,96.30444,96.30444,0,0,1-6.6737-15.5615,57.6194,57.6194,0,0,1,1.0722,7.017.4091.4091,0,0,1-.6669.3487,30.58992,30.58992,0,0,1-10.2562-14.8483c-1.467-4.6835-1.9496-9.9512-1.5188-16.5776.6491-9.9796,5.0035-19.6093,9.2145-28.9219q.80385-1.7775,1.5884-3.531c.5418-1.217,1.1101-2.4463,1.66-3.6353a92.74771,92.74771,0,0,0,4.5386-11.0416c3.0897-9.8702,3.2886-18.6823.60812-26.9396a.4089.4089,0,0,1,.16818-.4705q1.091-.70065,2.15482-1.3701c3.65318-2.3114,7.10368-4.4946,9.64278-7.0747a.40217.40217,0,0,1,.3019-.122.40941.40941,0,0,1,.2954.1373c4.52392,5.0912,6.7361,11.541,6.96192,20.298.17408,6.7439-1.25712,14.0203-4.37572,22.245-.1979.5219-.4006,1.0433-.6035,1.5652a36.7018,36.7018,0,0,0-2.5439,8.5258c-.5351,4.2368.463,8.5438,1.42812,12.7088.33538,1.4477.68218,2.9447.96118,4.4213a55.36971,55.36971,0,0,1-.3297,21.9331,52.25127,52.25127,0,0,1-8.9959,19.942.409.409,0,0,1-.73558-.2772,31.98777,31.98777,0,0,0-1.78932-14.5154,58.34088,58.34088,0,0,1-1.3494,25.6581.40949.40949,0,0,1-.34928.3024A.43083.43083,0,0,1,320.45259,332.407Zm-9.1401-27.0439a.409.409,0,0,1,.4044.3503c1.1598,8.0106,3.90022,16.0262,8.605,25.1485,2.6231-10.4866,2.2537-17.4984.5936-27.2685a.409.409,0,0,1,.7659-.2576,30.55661,30.55661,0,0,1,3.2146,16.2637,51.67391,51.67391,0,0,0,8.0234-18.4796,54.54434,54.54434,0,0,0,.3253-21.6066c-.2759-1.4601-.6209-2.9487-.95458-4.3883-.98132-4.2352-1.996-8.6145-1.44262-12.9963a37.30589,37.30589,0,0,1,2.5931-8.7195c.2019-.5197.4038-1.0391.6009-1.5588,3.0803-8.1235,4.4942-15.2981,4.3231-21.9339-.2159-8.3656-2.27448-14.5609-6.4709-19.4494a57.888,57.888,0,0,1-9.4762,6.8808q-.93075.5889-1.8859,1.1978c2.6332,8.3371,2.4027,17.2175-.7019,27.1357a93.28806,93.28806,0,0,1-4.5771,11.1405c-.5483,1.1863-1.11548,2.4131-1.6549,3.6247-.5208,1.1701-1.0539,2.3487-1.5905,3.5354-4.1808,9.246-8.5038,18.8067-9.1433,28.6379-.4241,6.5226.0471,11.6956,1.4828,16.2801a29.54861,29.54861,0,0,0,9.23642,13.8231,75.088,75.088,0,0,0-1.33342-7.6928,48.59886,48.59886,0,0,1-1.34658-9.2526.409.409,0,0,1,.37678-.4133Z" transform="translate(-41.80195 -116.98493)"/><path d="M252.60189,162.4601a.409.409,0,0,1-.409-.409,42.17475,42.17475,0,0,1,2.7891-12.7343.409.409,0,1,1,.74412.3398,41.047,41.047,0,0,0-2.71522,12.3945A.409.409,0,0,1,252.60189,162.4601Z" transform="translate(-41.80195 -116.98493)"/><path d="M314.061,183.33789a.42345.42345,0,0,1-.0632-.00489.40925.40925,0,0,1-.3414-.4672,25.52293,25.52293,0,0,0-7.6487-22.25091c-4.8293-4.535-11.2478-6.98769-17.4548-9.35979-1.117-.4267-2.2719-.86821-3.3962-1.3136-6.7235-2.6643-14.929-6.6832-18.7324-14.17461a.409.409,0,0,1,.7293-.37029c3.6792,7.2466,11.7149,11.17329,18.3044,13.7844,1.1196.4437,2.2722.8841,3.3868,1.3101,6.2811,2.4003,12.7762,4.8823,17.7229,9.5275a26.35177,26.35177,0,0,1,7.8971,22.9732A.40936.40936,0,0,1,314.061,183.33789Z" transform="translate(-41.80195 -116.98493)"/><path d="M318.33789,185.18489l-.0265-.00079a.40908.40908,0,0,1-.3821-.4343c.5875-9.1612.7101-17.9248-4.1753-24.4525a.40908.40908,0,0,1,.65512-.4901c5.05208,6.7506,4.93408,15.6751,4.33658,24.9949A.40913.40913,0,0,1,318.33789,185.18489Z" transform="translate(-41.80195 -116.98493)"/><path d="M340.47279,197.2432a.40881.40881,0,0,1-.3529-.2017,16.44453,16.44453,0,0,0-10.8875-7.6963.409.409,0,0,1,.1558-.803,17.27357,17.27357,0,0,1,11.4367,8.0845.409.409,0,0,1-.3521.6165Z" transform="translate(-41.80195 -116.98493)"/><path d="M311.32329,306.54209a.40932.40932,0,0,1-.4035-.344,63.32075,63.32075,0,0,1,3.0446-30.5283c1.296-3.7196,2.9933-7.4698,4.7901-11.4403,4.2175-9.3197,8.5788-18.9568,7.3014-27.9553a.40906.40906,0,0,1,.81-.115c1.3107,9.2341-3.1004,18.9812-7.3661,28.4076-1.7891,3.9534-3.4789,7.6874-4.763,11.3722a62.48922,62.48922,0,0,0-3.0093,30.1289.40924.40924,0,0,1-.3387.469A.41686.41686,0,0,1,311.32329,306.54209Z" transform="translate(-41.80195 -116.98493)"/><path d="M321.31869,303.93409a.40946.40946,0,0,1-.3827-.2647c-2.6384-6.9812-3.5063-12.7034-2.6533-17.4932.8237-4.6249,1.71642-8.7644,5.7253-19.966a.4089.4089,0,1,1,.77.2755c-3.9873,11.1417-4.8734,15.2485-5.69,19.8339-.8264,4.6406.0284,10.2212,2.6133,17.0607a.40946.40946,0,0,1-.3826.5538Z" transform="translate(-41.80195 -116.98493)"/><path d="M248.08859,197.2487a.40891.40891,0,0,1-.3557-.2063,59.62436,59.62436,0,0,1-7.6729-32.2518.40894.40894,0,1,1,.8168.0421,58.794,58.794,0,0,0,7.5666,31.8041.40922.40922,0,0,1-.3548.6119Z" transform="translate(-41.80195 -116.98493)"/><path d="M333.707,204.98229a.409.409,0,0,1-.4037-.3482c-.88118-5.8519-2.0537-9.43739-6.3327-13.98589a.40911.40911,0,0,1,.5959-.5607c4.4017,4.6791,5.6578,8.52889,6.54562,14.42479a.409.409,0,0,1-.34352.4653A.4152.4152,0,0,1,333.707,204.98229Z" transform="translate(-41.80195 -116.98493)"/><path d="M303.35059,202.43729a.409.409,0,0,1-.21548-.7567,15.79271,15.79271,0,0,0,7.03838-8.367,14.15125,14.15125,0,0,1-10.9745,2.635.409.409,0,0,1-.0538-.7903,14.45633,14.45633,0,0,0,7.29992-22.0062c-3.73192-5.337-10.36562-7.4728-16.78072-9.5384q-.7923-.255-1.5755-.5095a77.15507,77.15507,0,0,1-15.7467-6.7292,33.11728,33.11728,0,0,1-9.6837-8.4833,14.21418,14.21418,0,0,1-.4029,5.5527,40.42024,40.42024,0,0,1-1.8362,5.0748c-.4829,1.1679-.9822,2.3756-1.386,3.5861a27.17568,27.17568,0,0,0-.7357,14.5573.409.409,0,0,1-.6954.3716,19.94965,19.94965,0,0,1-5.144-10.3147,32.35375,32.35375,0,0,0,.79682,14.47.409.409,0,0,1-.66552.41839,19.623,19.623,0,0,1-5.9511-11.39639,33.85019,33.85019,0,0,1,.5911-12.8911.409.409,0,1,1,.7996.1724,33.05682,33.05682,0,0,0-.5843,12.5813,19.35763,19.35763,0,0,0,4.6403,9.8899,33.17128,33.17128,0,0,1,.1205-15.9694.409.409,0,0,1,.805.08829,19.12319,19.12319,0,0,0,4.1942,11.25651,27.994,27.994,0,0,1,1.0524-13.4929c.4131-1.2378.9179-2.4589,1.4061-3.6399a39.7692,39.7692,0,0,0,1.8015-4.9709c.4616-1.7494.9685-4.8946-.3214-7.5867q-.2988-.49185-.5775-.9968a.40895.40895,0,0,1,.6949-.4295,7.961,7.961,0,0,1,.5998,1.0301c5.6247,9.219,16.0285,13.6602,26.4823,17.0737q.7803.25485,1.57212.5087c6.54388,2.1069,13.31068,4.28569,17.20018,9.8481a15.26658,15.26658,0,0,1-6.1931,22.6504,13.3275,13.3275,0,0,0,9.6358-3.4063.40906.40906,0,0,1,.6818.3582c-.5286,3.7631-3.46068,7.08409-6.402,9.23259a15.59347,15.59347,0,0,0,13.1335-12.15939.409.409,0,0,1,.8074.1288c-.2922,2.2655-1.398,5.7456-4.8953,9.91889a16.9633,16.9633,0,0,0,9.4913-14.48179,33.44277,33.44277,0,0,0-1.06258-7.7742c-.30362-1.3958-.61732-2.8392-.82742-4.2769a16.81584,16.81584,0,0,1-.0337-5.8693,8.33978,8.33978,0,0,1,2.9725-4.9117.40908.40908,0,0,1,.5197.6319c-3.2292,2.6547-3.1817,6.3899-2.6494,10.0307.2064,1.4099.5169,2.8393.8175,4.2216a34.03859,34.03859,0,0,1,1.0809,7.9667,17.72948,17.72948,0,0,1-11.6398,15.88819.409.409,0,0,1-.4317-.6655c.5128-.5515,1.1239-1.25,1.7562-2.0633a16.02732,16.02732,0,0,1-10.5211,4.3344Z" transform="translate(-41.80195 -116.98493)"/><path d="M252.67139,179.9306a.409.409,0,0,1-.2754-.7115c2.2724-2.0665,6.8645-3.8071,10.0779-3.10521a.40907.40907,0,0,1-.1745.79931c-2.9227-.6392-7.2752,1.0214-9.353,2.911A.4072.4072,0,0,1,252.67139,179.9306Z" transform="translate(-41.80195 -116.98493)"/><path d="M285.12589,172.13889a.40907.40907,0,0,1-.3413-.63369c1.4958-2.2759,5.0433-3.939,7.7744-4.4057,2.4545-.4193,7.7684.00139,10.9566,1.8593a.409.409,0,0,1-.4118.7068c-2.9085-1.6949-8.0215-2.1671-10.4071-1.76-3.378.5774-6.1934,2.4739-7.22858,4.0489A.409.409,0,0,1,285.12589,172.13889Z" transform="translate(-41.80195 -116.98493)"/><path class="cls-6" d="M185.7387,411.22349l24.15429-.4014c2.4723-.0411,6.5999-.2493,8.1952-2.4231,1.7076-2.3269,2.1278-6.034.4696-8.4077-1.6581-2.3737-3.9155-5.2977-8.8534-4.9655-10.6031.7134-15.50049-7.8684-19.50849-16.0149-4.1927-.4392-8.26679-1.0862-12.4102-1.8637a248.46479,248.46479,0,0,0,.0045,32.1946C180.6473,410.31539,183.0299,409.89179,185.7387,411.22349Z" transform="translate(-41.80195 -116.98493)"/><path d="M185.7387,411.60389a.38131.38131,0,0,1-.168-.039,13.07965,13.07965,0,0,0-4.2849-1.1062,18.46383,18.46383,0,0,1-3.6184-.7567.38061.38061,0,0,1-.2567-.3338,249.23249,249.23249,0,0,1-.0047-32.2437.38074.38074,0,0,1,.4499-.3513c4.6296.8687,8.56321,1.4595,12.3795,1.8594a.38065.38065,0,0,1,.3019.2105c1.8714,3.8038,4.1264,8.1223,7.20981,11.2296a14.60454,14.60454,0,0,0,11.93188,4.5737c5.3545-.3628,7.7569,3.0746,9.1907,5.127,1.8378,2.6307,1.2017,6.5659-.475,8.8506-1.60458,2.1867-5.3829,2.5266-8.4953,2.5786l-24.15449.4013Zm-7.58659-2.5436a18.81534,18.81534,0,0,0,3.23659.6445,14.05065,14.05065,0,0,1,4.4345,1.1369l24.06359-.3999c1.7251-.0288,6.3076-.1052,7.8946-2.268,1.5182-2.0687,2.107-5.6135.4645-7.9647-1.8149-2.5983-3.9657-5.1099-8.516-4.8038q-.6408.04335-1.2555.0429c-9.6952.0004-14.48459-7.8918-18.52709-16.081-3.6544-.3891-7.4236-.953-11.80719-1.7668A248.17963,248.17963,0,0,0,178.15211,409.06029Z" transform="translate(-41.80195 -116.98493)"/><path d="M181.4517,403.79359a85.54173,85.54173,0,0,0,5.2583-6.7719q2.40945-3.44595,4.4915-7.1056c.8533-1.4926,1.6635-3.009,2.4439-4.5407a71.90144,71.90144,0,0,1-3.4495-6.3645c-4.1927-.4392-8.2669-1.0862-12.4102-1.8637a250.81556,250.81556,0,0,0-.0894,30.74Q179.63715,405.89939,181.4517,403.79359Z" transform="translate(-41.80195 -116.98493)"/><path class="cls-6" d="M75.161,403.36909a27.80454,27.80454,0,0,1-18.3656-11.9904c-3.58429-5.5079-4.6211-12.2743-4.7672-18.8441-.167-7.51115,1.3673-13.827,3.1362-21.8686,1.1654-5.2985,3.1289-10.5897,3.622-15.9923.9868-10.8132-5.1615-17.537-16.604-21.5374a13.622,13.622,0,0,1,16.2323.2359c-3.1932-3.8194-9.0074-5.7731-14.36959-8.4763,9.71279-3.3263,17.48979-.7642,22.86569,5.4027a58.11251,58.11251,0,0,0-11.15769-9.5149c10.54239-2.5543,22.09569,2.2669,28.94,10.6824s9.292,19.8569,8.11619,30.6404c-.4859,4.4578-1.5478,8.8647-1.5833,13.34875-.0355,4.48413,1.1206,9.23346,4.3692,12.32457,1.7818,1.69541,4.1486,2.86393,5.363,5.00268a11.86136,11.86136,0,0,1,1.1525,3.9183,56.2869,56.2869,0,0,1,1.1325,13.0415c-.33009,5.1101-1.6207,10.9467-6.9612,12.337C89.4092,403.86839,82.1929,404.71629,75.161,403.36909Z" transform="translate(-41.80195 -116.98493)"/><path d="M82.3798,404.41459a38.61835,38.61835,0,0,1-7.2904-.672,28.17107,28.17107,0,0,1-18.6128-12.1565c-3.1118-4.7817-4.6461-10.8328-4.8287-19.043-.1564-7.03367,1.139-12.88893,2.7791-20.30194q.18075-.81693.3659-1.657c.4071-1.8515.9191-3.7305,1.4143-5.5475a61.53363,61.53363,0,0,0,2.2004-10.3976c.9181-10.06-4.4303-16.9762-16.3508-21.1439a.38022.38022,0,0,1-.1036-.6625,14.0458,14.0458,0,0,1,13.606-1.5619,46.94688,46.94688,0,0,0-7.8172-4.1951c-1.2726-.5874-2.5886-1.195-3.8682-1.8401a.38038.38038,0,0,1,.048-.6994,22.86783,22.86783,0,0,1,13.2782-.867,18.57525,18.57525,0,0,1,3.6934,1.3918,57.6414,57.6414,0,0,0-5.3486-3.9588.38046.38046,0,0,1,.1186-.688c10.25871-2.4859,22.0436,1.8592,29.3248,10.8119,6.4841,7.9727,9.4727,19.2432,8.1994,30.9217-.176,1.6129-.4302,3.2413-.6761,4.8161a58.55681,58.55681,0,0,0-.9051,8.49435c-.0236,2.9658.4975,8.47448,4.251,12.046a23.5341,23.5341,0,0,0,1.9489,1.6001,9.309,9.309,0,0,1,4.6794,7.5324,56.69389,56.69389,0,0,1,1.1371,13.1301c-.4772,7.3877-2.847,11.5356-7.2449,12.6806A55.613,55.613,0,0,1,82.3798,404.41459Zm-7.1472-1.4191c6.2098,1.1899,13.0639.7697,20.95351-1.2843,4.09609-1.0663,6.21789-4.8774,6.67749-11.9934a56.06993,56.06993,0,0,0-1.1278-12.9531,8.59607,8.59607,0,0,0-4.3912-7.05546,24.142,24.142,0,0,1-2.01149-1.65377c-2.93621-2.79381-4.52971-7.26963-4.48741-12.60316a59.12768,59.12768,0,0,1,.9141-8.60571c.2446-1.5664.4975-3.1858.6715-4.7813,1.2513-11.4777-1.6767-22.5432-8.0333-30.3592-6.89589-8.479-17.9193-12.723-27.6912-10.7447a58.47514,58.47514,0,0,1,9.3259,7.8429q.59655.59235,1.1649,1.2442a.38041.38041,0,0,1-.5681.506q-.5727-.62955-1.1638-1.2422c-5.3804-5.3313-12.3902-6.8275-20.4167-4.3436,1.00311.4889,2.0208.9588,3.012,1.4163,4.1943,1.9364,8.15611,3.7653,10.6456,6.7432a.38042.38042,0,0,1-.5272.5429,13.30065,13.30065,0,0,0-15.1804-.6467c11.8132,4.325,17.1026,11.4239,16.1662,21.6838a62.08678,62.08678,0,0,1-2.22409,10.5284c-.49271,1.8083-1.00211,3.6779-1.40531,5.5111q-.1848.841-.366,1.65783c-1.629,7.363-2.91569,13.17875-2.7613,20.12057.1792,8.0627,1.67461,13.9873,4.7057,18.6451A27.41878,27.41878,0,0,0,75.2326,402.99549Z" transform="translate(-41.80195 -116.98493)"/><path d="M102.1107,376.70089a11.86051,11.86051,0,0,0-1.1525-3.9184c-1.2143-2.13875-3.58109-3.30729-5.363-5.00267-2.90009-2.75944-4.0836-7.1879-4.2893-11.22189a41.89306,41.89306,0,0,0-7.7715,20.58546,53.3725,53.3725,0,0,0,4.4555,26.6317,27.855,27.855,0,0,0,9.8608-3.4349c2.4111-1.4444,5.06241-5.4878,5.3926-10.5978A56.286,56.286,0,0,0,102.1107,376.70089Z" transform="translate(-41.80195 -116.98493)"/><path class="cls-7" d="M42.1824,313.13629c11.4425,4.0004,17.5908,10.7242,16.604,21.5374a44.49244,44.49244,0,0,1-1.2017,6.6309c2.0278.0758,4.0611-1.1561,5.5275-2.434a13.93911,13.93911,0,0,0,2.6467-3.0811,8.86522,8.86522,0,0,0,1.3456-3.377c.0142-.0972.1603-.0839.1833,0a5.26414,5.26414,0,0,0,2.3971,3.5267,3.98892,3.98892,0,0,0,2.9898.062,9.91318,9.91318,0,0,0,3.2011-1.8776,16.04854,16.04854,0,0,0,2.737-2.9417,11.14967,11.14967,0,0,0,1.6639-3.1602.09627.09627,0,0,1,.1737-.0227,9.14763,9.14763,0,0,0,3.6578,3.439,5.57486,5.57486,0,0,0,3.4094.4118,7.45577,7.45577,0,0,0,3.1818-1.5514,11.12562,11.12562,0,0,0,1.6521-1.6504,37.88026,37.88026,0,0,0-7.6583-17.1819c-6.8445-8.4155-18.3977-13.2367-28.9402-10.6824a58.12346,58.12346,0,0,1,10.0374,8.3192c-5.3136-5.2884-12.687-7.3091-21.74529-4.207,5.36209,2.7032,11.17639,4.6568,14.36969,8.4763A13.62212,13.62212,0,0,0,42.1824,313.13629Z" transform="translate(-41.80195 -116.98493)"/><path d="M57.7627,341.68829c-.0641,0-.1278-.0011-.1922-.0035a.38055.38055,0,0,1-.355-.4716,43.30046,43.30046,0,0,0,1.1921-6.5741c.9181-10.06-4.4303-16.9762-16.3508-21.1439a.38037.38037,0,0,1-.1036-.6627,14.04442,14.04442,0,0,1,13.6062-1.5614,46.92347,46.92347,0,0,0-7.8171-4.1952c-1.2728-.5876-2.5888-1.1952-3.8685-1.8403a.38054.38054,0,0,1,.048-.6996c6.29131-2.1543,12.0475-1.9639,16.95131.5096a57.59406,57.59406,0,0,0-5.32841-3.9434.38044.38044,0,0,1,.1187-.688c10.25871-2.4859,22.0434,1.8592,29.3248,10.8119a38.414,38.414,0,0,1,7.7374,17.3535.37951.37951,0,0,1-.07949.3088,11.54128,11.54128,0,0,1-1.70881,1.7068,7.75877,7.75877,0,0,1-3.34619,1.6277,5.91437,5.91437,0,0,1-3.64221-.4394,8.94781,8.94781,0,0,1-3.4976-3.1069,12.22668,12.22668,0,0,1-1.53,2.7276,16.39618,16.39618,0,0,1-2.8021,3.0118,10.15988,10.15988,0,0,1-3.3268,1.9468,4.39273,4.39273,0,0,1-3.2748-.082,4.80079,4.80079,0,0,1-2.2701-2.7703,10.20912,10.20912,0,0,1-1.1665,2.4812,14.2719,14.2719,0,0,1-2.719,3.1656C62.2646,340.11369,60.1017,341.68829,57.7627,341.68829ZM42.999,313.02439c11.8132,4.325,17.1025,11.4239,16.1662,21.6838a42.55684,42.55684,0,0,1-1.0942,6.2091,8.89483,8.89483,0,0,0,4.7912-2.3336,13.50331,13.50331,0,0,0,2.5745-2.9965,8.37462,8.37462,0,0,0,1.29141-3.2297.4582.4582,0,0,1,.43-.3924.48127.48127,0,0,1,.49649.3465c.4737,1.7186,1.1926,2.7935,2.1977,3.2862a3.66137,3.66137,0,0,0,2.7046.0417,9.42658,9.42658,0,0,0,3.0755-1.8083,15.62073,15.62073,0,0,0,2.67171-2.8718,10.69564,10.69564,0,0,0,1.60939-3.0505.4717.4717,0,0,1,.3882-.331.4815.4815,0,0,1,.4673.2133,8.62821,8.62821,0,0,0,3.4987,3.3016,5.16344,5.16344,0,0,0,3.1765.3839,7.10732,7.10732,0,0,0,3.0172-1.4751,10.69581,10.69581,0,0,0,1.48371-1.4593,37.60852,37.60852,0,0,0-7.54711-16.8362c-6.89589-8.479-17.9193-12.723-27.6914-10.7447a58.54994,58.54994,0,0,1,9.3579,7.8778.38039.38039,0,0,1-.5423.5335c-5.39309-5.3675-12.4558-6.8815-20.47309-4.404,1.00329.4891,2.02089.9588,3.01209,1.4165,4.1943,1.9362,8.15591,3.7651,10.6454,6.7428a.38042.38042,0,0,1-.5272.5429A13.30153,13.30153,0,0,0,42.999,313.02439Z" transform="translate(-41.80195 -116.98493)"/><path class="cls-6" d="M133.568,282.67819c.4696,8.9835-4.1014,17.3689-8.533,25.1972q-8.4519,14.9298-16.9038,29.8595c-4.6298,8.1782-12.9844,13.85382-17.1958,22.25516a44.95049,44.95049,0,0,0-4.0825,27.33764c3.2948,19.9787,13.5414,26.837,26.6163,30.1054,11.5453,2.886,26.6763,2.3608,39.8757-.362a62.26943,62.26943,0,0,1,18.2928-.6616c2.4185,3.1766,6.9482,4.4003,10.9355,4.6029,2.40291.1221,6.7804-.1291,8.9456-1.1782a8.02684,8.02684,0,0,0,4.4761-5.3409,7.48473,7.48473,0,0,0-.9586-4.909c-2.5327-4.8791-6.15819-9.0392-7.4276-13.4144l-1.92559-6.6363a46.76134,46.76134,0,0,0,7.34069-16.4539c1.5601,10.4419,4.6561,17.1794,8.62669,26.9622,2.4199,5.962,5.8442,10.4109,11.3161,12.1511a23.27813,23.27813,0,0,0,8.9343.8124c3.4496-.3867,5.8878-1.7635,7.2106-4.1402a6.373,6.373,0,0,0-.3715-6.4231,7.90113,7.90113,0,0,0-3.056-2.6917,9.0031,9.0031,0,0,1-4.07488-4.4004c-7.71622-17.3866-9.92232-31.95128-14.13732-50.4688-2.8033-12.3158-10.966-44.8168-11.82259-59.8288C176.306,283.27209,152.0837,283.27209,133.568,282.67819Z" transform="translate(-41.80195 -116.98493)"/><path d="M183.7557,421.42029c-.4417,0-.84759-.01-1.2018-.028-6.69479-.3401-9.8126-2.9803-11.1153-4.6192a61.18859,61.18859,0,0,0-18.0167.6706c-14.2303,2.9352-29.2003,3.0691-40.0449.3586-7.5342-1.8834-12.9846-4.7073-17.1528-8.8869-4.9959-5.0096-8.184-12.0505-9.7465-21.5258a45.46023,45.46023,0,0,1,4.1176-27.57014c2.2331-4.45463,5.6592-8.19552,8.9725-11.81306a59.39719,59.39719,0,0,0,8.2324-10.4588l16.9037-29.8595c3.9933-7.0536,8.963-15.8322,8.4844-24.99a.38032.38032,0,0,1,.392-.4c5.0952.1634,10.569.2807,16.3643.4049,14.8624.3184,31.7081.6792,45.73951,1.9708a.38037.38037,0,0,1,.34489.357c.7179,12.5814,6.59819,37.5522,10.11159,52.4716.6729,2.8579,1.2542,5.3261,1.7022,7.2944.8048,3.5361,1.5379,6.93488,2.247,10.22164,3.0259,14.029,5.63932,26.14476,11.8671,40.17716a8.6402,8.6402,0,0,0,3.9004,4.2161,8.29447,8.29447,0,0,1,3.2017,2.8231,6.78741,6.78741,0,0,1,.3846,6.8154c-1.3753,2.4716-3.8988,3.9294-7.5003,4.3332a23.78529,23.78529,0,0,1-9.092-.8278c-5.117-1.6274-8.78818-5.5582-11.5533-12.3708-.4331-1.0669-.8556-2.0975-1.267-3.1006-3.13249-7.6394-5.64849-13.775-7.10259-22.2019a45.56877,45.56877,0,0,1-6.8306,14.7156l1.8761,6.4658a32.50082,32.50082,0,0,0,4.1777,7.9611c1.1024,1.7186,2.242,3.4958,3.2223,5.3841a7.78262,7.78262,0,0,1,.9933,5.1621,8.36227,8.36227,0,0,1-4.6824,5.6054C189.7483,421.11459,186.203,421.42029,183.7557,421.42029Zm-19.5629-5.7585c2.36531,0,4.8521.1232,7.4804.3689a.38.38,0,0,1,.2671.1482c2.79681,3.6732,8.381,4.3382,10.6522,4.4537,2.4067.1217,6.7173-.1508,8.7605-1.1408a7.60031,7.60031,0,0,0,4.2695-5.0762,7.05552,7.05552,0,0,0-.9239-4.6562c-.9641-1.8574-2.0943-3.6196-3.1874-5.3239a33.02434,33.02434,0,0,1-4.268-8.1596l-1.9255-6.6363a.38131.38131,0,0,1,.0496-.3182,46.26153,46.26153,0,0,0,7.2884-16.3381.38038.38038,0,0,1,.7442.04c1.3831,9.2574,4.0096,15.6627,7.33509,23.7723.4116,1.0038.8345,2.0354,1.268,3.1032,2.6735,6.5869,6.1938,10.3782,11.079,11.9317a22.9646,22.9646,0,0,0,8.7766.797c3.3431-.3748,5.6714-1.7028,6.9203-3.9472a6.00969,6.00969,0,0,0-.3579-6.0311,7.53414,7.53414,0,0,0-2.9102-2.5602,9.40281,9.40281,0,0,1-4.2493-4.5847c-6.2595-14.1041-8.8805-26.25549-11.91538-40.32539-.70852-3.28473-1.44112-6.68121-2.24512-10.21311-.4474-1.9656-1.0283-4.4326-1.70088-7.2889-3.48912-14.816-9.30851-39.5279-10.11111-52.2754-13.9394-1.2649-30.62589-1.6224-45.3608-1.938-5.6422-.1209-10.9798-.2353-15.9623-.392.3245,9.2267-4.6176,17.9567-8.6001,24.9914l-16.9035,29.8595a59.96779,59.96779,0,0,1-8.3335,10.5979c-3.2781,3.57914-6.66769,7.28008-8.8532,11.64018a44.69253,44.69253,0,0,0-4.0474,27.10542c1.536,9.3131,4.6548,16.219,9.5346,21.1124,4.0665,4.0774,9.4044,6.8374,16.7987,8.6858,10.7391,2.6844,25.583,2.5479,39.70661-.3655A53.90209,53.90209,0,0,1,164.1928,415.66179Z" transform="translate(-41.80195 -116.98493)"/><path d="M131.2156,295.66209c3.4522,1.8368,7.7133,3.583,11.27551,5.1967a123.58525,123.58525,0,0,0,16.53309,6.2134,75.12385,75.12385,0,0,0,17.1031,3.0446,47.4192,47.4192,0,0,0,16.45381-1.8932,38.80188,38.80188,0,0,0,5.72758-2.3007,157.32414,157.32414,0,0,1-2.65939-18.5882c-19.3433-1.7803-43.5656-1.7803-62.0813-2.3742C133.7596,288.62639,132.3506,292.19259,131.2156,295.66209Z" transform="translate(-41.80195 -116.98493)"/><path class="cls-8" d="M131.9763,293.37979c3.4523,1.8368,6.9526,3.583,10.51481,5.1967a123.58525,123.58525,0,0,0,16.53309,6.2134,75.12385,75.12385,0,0,0,17.1031,3.0446,47.4192,47.4192,0,0,0,16.45381-1.8932,38.80188,38.80188,0,0,0,5.72758-2.3007,157.32414,157.32414,0,0,1-2.65939-18.5882c-19.3433-1.7803-43.5656-1.7803-62.0813-2.3741A29.345,29.345,0,0,1,131.9763,293.37979Z" transform="translate(-41.80195 -116.98493)"/><path d="M178.9283,308.28589q-1.39455,0-2.8201-.0716a74.8585,74.8585,0,0,1-17.1899-3.0591,123.159,123.159,0,0,1-16.58419-6.2322c-3.39321-1.537-6.83981-3.2406-10.53651-5.2075a.38043.38043,0,0,1-.1829-.4541,28.80889,28.80889,0,0,0,1.5736-10.5633.38.38,0,0,1,.392-.4c5.0956.1634,10.56981.2807,16.3655.4049,14.8621.3184,31.7071.6792,45.73831,1.9706a.38028.38028,0,0,1,.34489.3569,155.37127,155.37127,0,0,0,2.65339,18.5391.38042.38042,0,0,1-.2046.4117,39.34361,39.34361,0,0,1-5.78379,2.3232A46.2977,46.2977,0,0,1,178.9283,308.28589Zm-46.4921-15.0927c3.5761,1.8964,6.9197,3.5455,10.2118,5.0367a122.42307,122.42307,0,0,0,16.48211,6.1947,74.11572,74.11572,0,0,0,17.01629,3.03,46.96165,46.96165,0,0,0,16.32171-1.8766,38.51369,38.51369,0,0,0,5.41309-2.151,158.27213,158.27213,0,0,1-2.5922-18.0256c-13.93889-1.2648-30.6251-1.6223-45.3595-1.9379-5.6427-.1209-10.9806-.2353-15.96339-.392A29.59929,29.59929,0,0,1,132.4362,293.19319Z" transform="translate(-41.80195 -116.98493)"/><path d="M185.8816,421.02559l-.0182-.0004a.38065.38065,0,0,1-.3622-.3978,11.12389,11.12389,0,0,0-.3023-3.522,8.65572,8.65572,0,0,0-1.7581-3.6592.38031.38031,0,1,1,.5578-.5171,9.40668,9.40668,0,0,1,1.93951,3.9972,11.84863,11.84863,0,0,1,.32319,3.7368A.38024.38024,0,0,1,185.8816,421.02559Z" transform="translate(-41.80195 -116.98493)"/><path d="M192.25711,419.64789l-.02671-.0009a.38046.38046,0,0,1-.3531-.4059,10.3244,10.3244,0,0,0-2.1114-6.8746.38048.38048,0,0,1,.617-.4454,11.066,11.066,0,0,1,2.2533,7.3727A.3805.3805,0,0,1,192.25711,419.64789Z" transform="translate(-41.80195 -116.98493)"/><path d="M222.80269,413.19819a.38067.38067,0,0,1-.3702-.2942,11.25426,11.25426,0,0,0-4.28738-6.467.3804.3804,0,1,1,.44718-.6155,12.02709,12.02709,0,0,1,4.5813,6.9102.38.38,0,0,1-.3709.4665Z" transform="translate(-41.80195 -116.98493)"/><path d="M227.40189,410.93859a.38034.38034,0,0,1-.38-.3679c-.0641-1.9701-1.3183-3.6945-2.53678-5.1214a4.0215,4.0215,0,0,0-1.36452-1.0545.38043.38043,0,1,1,.33952-.6809,4.79607,4.79607,0,0,1,1.60358,1.2413c1.2279,1.438,2.6465,3.373,2.7185,5.5906a.38033.38033,0,0,1-.3676.3926Z" transform="translate(-41.80195 -116.98493)"/><path d="M164.9294,397.17129a.37813.37813,0,0,1-.0691-.0064,31.8217,31.8217,0,0,1-4.9227-1.4671c-1.1108-.3946-2.2597-.8029-3.5828-1.2033a6.43906,6.43906,0,0,1-4.5228-5.3962c-1.718-14.2808-7.1903-24.52071-11.3542-28.95008-9.503-10.10882-20.9318-11.43612-28.8468-10.76792a.38039.38039,0,1,1-.06389-.7581c8.08189-.6819,19.75409.6751,29.46489,11.00485,6.7889,7.2217,10.4677,20.34045,11.5552,29.38035a5.67832,5.67832,0,0,0,3.98791,4.759c1.34059.4056,2.49789.8169,3.61709,1.2145a31.31569,31.31569,0,0,0,4.8055,1.436.38032.38032,0,0,1-.0683.7544Z" transform="translate(-41.80195 -116.98493)"/><path d="M164.92911,396.79079c-2.635-.4843-5.02751-1.6202-8.46421-2.6603a6.05483,6.05483,0,0,1-4.2553-5.0776c-1.0102-8.3972-4.5288-21.79769-11.4547-29.16519-9.2944-9.887-21.136-11.222-29.15579-11.26681,12.89839-2.9666,22.52089,2.3112,28.28669,7.19761a29.41043,29.41043,0,0,1,8.4585,12.18336,111.07881,111.07881,0,0,1,4.9529,15.78213c.459,2.2132,1.1388,5.0353,2.6191,6.7435,1.4803,1.7081,7.7762,2.9252,7.7762,2.9252A32.07286,32.07286,0,0,1,164.92911,396.79079Z" transform="translate(-41.80195 -116.98493)"/><path d="M171.9158,416.97769a.38048.38048,0,0,1-.3568-.2488c-7.18889-19.4767-12.3794-38.7332-17.9613-61.65437a.38047.38047,0,0,1,.7393-.18016c5.5756,22.896,10.7593,42.12853,17.9355,61.57113a.38067.38067,0,0,1-.3567.5122Z" transform="translate(-41.80195 -116.98493)"/><path d="M186.2687,392.61749a.3806.3806,0,0,1-.3698-.2924c-1.4322-6.0261-2.81079-12.5886-4.1443-18.935-.7733-3.681-1.5729-7.48729-2.3544-11.04539a.38034.38034,0,0,1,.743-.16308c.7821,3.56126,1.5823,7.36936,2.3561,11.05217,1.3322,6.3414,2.71,12.899,4.13981,18.9153a.38063.38063,0,0,1-.37041.4684Z" transform="translate(-41.80195 -116.98493)"/><path d="M193.0233,373.46a.3804.3804,0,0,1-.3696-.292l-1.2175-5.09731a.38041.38041,0,1,1,.74-.17681l1.2175,5.09722a.38058.38058,0,0,1-.28159.4585A.38724.38724,0,0,1,193.0233,373.46Z" transform="translate(-41.80195 -116.98493)"/><path d="M73.9816,324.16989a.38056.38056,0,0,1-.36749-.2835c-1.93391-7.3184-4.46511-10.8953-8.45951-14.9359a.38039.38039,0,0,1,.541-.5349c4.087,4.1343,6.6766,7.7932,8.654,15.2766a.38047.38047,0,0,1-.2706.4649A.385.385,0,0,1,73.9816,324.16989Z" transform="translate(-41.80195 -116.98493)"/><path d="M65.7887,326.964a.38062.38062,0,0,1-.3651-.2746c-2.4607-8.4842-5.5488-11.7066-8.245-13.74a.38036.38036,0,1,1,.458-.6074c4.9829,3.7578,7.1019,9.2543,8.5177,14.1356a.38055.38055,0,0,1-.3656.4864Z" transform="translate(-41.80195 -116.98493)"/><path class="cls-6" d="M156.2429,223.92169c6.77-1.4365,13.8303-1.4365,19.8506-1.328,4.7761-6.8345,9.6252-14.9349,16.0303-20.2729a2.49671,2.49671,0,0,1,1.4291-.729c1.05121-.0335,1.6633,1.1481,2.0057,2.1426a173.40564,173.40564,0,0,1,8.39059,37.3467c.8092,7.3071.03,14.2316.2704,21.5795.17952,5.4852.4016,3.545,2.772,8.4948,2.0179,4.2142,5.4759,7.6343,7.321,11.9269,1.48052,3.4445-3.9594,8.6698-7.1392,10.6562-3.9292,2.4544-15.64159,5.806-19.38979,5.8968-25.3761.6146-30.2799-2.9397-49.3962-9.3009-5.7105-1.9003-11.7-4.2898-15.14429-9.2251-5.06421-7.2562-2.86641-17.114-.47091-25.6324,4.46791-15.8874,3.351-33.0091,10.242-48.0052.7996-1.7402,1.9873-3.7035,3.8994-3.8113,1.6791-.0945,3.0187,1.3147,4.0849,2.6153C145.8559,212.20109,151.9837,217.55279,156.2429,223.92169Z" transform="translate(-41.80195 -116.98493)"/><path class="cls-7" d="M187.2095,224.11959c.4165-3.6495,3.23261-11.6287,5.3108-12.7785.4372-.2419.82781,1.2554,1.1704,1.7219a9.56778,9.56778,0,0,1,1.3838,3.4231,43.00467,43.00467,0,0,1,1.3451,10.308.84735.84735,0,0,1-1.2296.7375C192.7196,226.28059,190.2642,225.44139,187.2095,224.11959Z" transform="translate(-41.80195 -116.98493)"/><path class="cls-7" d="M147.67711,225.64539a53.48563,53.48563,0,0,0-9.37431-11.9579,1.76838,1.76838,0,0,0-.9905-.6187c-.7377-.0814-1.2401.7058-1.55319,1.3787-.65271,1.4031-1.39741,2.7669-1.95821,4.2092a39.04452,39.04452,0,0,0-1.4735,9.6115,1.878,1.878,0,0,0,.19171.914c.40359.7174,1.42479.7136,2.23679.5792C138.7894,229.094,144.3189,227.97729,147.67711,225.64539Z" transform="translate(-41.80195 -116.98493)"/><path class="cls-7" d="M214.31259,283.08229c-1.8451-4.2926-4.8833-8.4272-7.321-11.9269-3.1368-4.5033-2.59248-3.0096-2.7719-8.4948-.2004-6.1233.3043-11.9533.0108-17.9549-.0551-.0635.0555.063,0,0-.6112-1.5018-2.2201-2.9194-5.0056-3.628-2.78549-.7085-5.52019.2562-8.46729,1.594a17.78478,17.78478,0,0,1-6.38649,1.9514c-4.15721.32-7.91451-1.0215-11.96281-2.0194a24.08685,24.08685,0,0,0-12.729-.065c-8.13,2.4843-14.2483,6.8744-15.5788,19.0358-.83639,7.6459-.1549,14.9813,3.1932,21.9695,5.31641,11.0962,17.99241,16.2768,26.4261,16.2768s17.9399-.4032,25.50509-2.5608c4.4831-1.2786,7.40822-3.5548,10.7343-5.2851C213.28529,290.24449,215.79319,286.52679,214.31259,283.08229Z" transform="translate(-41.80195 -116.98493)"/><path d="M214.87311,282.67819c-.66072-2.7837-1.90762-3.6926-3.54592-6.0494-2.909,0-15.03808-.3379-17.06589,4.1846-2.4627,5.4923,1.84981,12.0625,8.07729,15.1893a26.123,26.123,0,0,0,5.60652-2.4467C211.27129,291.82559,215.81569,286.65039,214.87311,282.67819Z" transform="translate(-41.80195 -116.98493)"/><path d="M202.33879,296.383h-.00168a.37982.37982,0,0,1-.16922-.0405c-6.13329-3.0794-10.89759-9.7883-8.25378-15.6848,2.01519-4.4936,12.78518-4.434,16.83978-4.4116.2179.0011.41022.0022.5734.0022a.38061.38061,0,0,1,.3125.1633c.4272.6148.8207,1.1211,1.2015,1.6107a10.60835,10.60835,0,0,1,2.4019,4.5681h0c.9797,4.1284-3.56408,9.4518-7.1225,11.303C204.97789,295.52839,202.83429,296.383,202.33879,296.383Zm7.4391-19.3794c-4.2263,0-13.50089.2442-15.16949,3.9654-1.9209,4.2841.4758,10.9157,7.79971,14.6425a31.4762,31.4762,0,0,0,5.36158-2.393c3.265-1.6986,7.6158-6.7338,6.7332-10.4524h0a9.86749,9.86749,0,0,0-2.2623-4.2769c-.33648-.4329-.7143-.9188-1.11148-1.4804-.11582-.0004-.24272-.0012-.37952-.0019C210.46859,277.00519,210.14189,277.00359,209.77789,277.00359Z" transform="translate(-41.80195 -116.98493)"/><path d="M195.0727,298.62139c-6.4275,0-16.5639-4.1765-19.99959-9.5614a.38047.38047,0,1,1,.64149-.4093c2.7173,4.2591,11.7653,9.21,19.3581,9.21a.38035.38035,0,1,1,0,.7607Z" transform="translate(-41.80195 -116.98493)"/><path d="M196.11111,264.28129c0-2.7476,1.39419-4.1146,3.11378-4.1146s3.1137,1.367,3.1137,4.1146c0,2.7474-1.3941,4.1145-3.1137,4.1145s-3.11378-1.3671-3.11378-4.1145" transform="translate(-41.80195 -116.98493)"/><path d="M166.9596,264.28119c0-2.7474,1.3941-4.1146,3.1137-4.1146,1.7197,0,3.1137,1.3672,3.1137,4.1146,0,2.7476-1.394,4.1146-3.1137,4.1146-1.7196,0-3.1137-1.367-3.1137-4.1146" transform="translate(-41.80195 -116.98493)"/><path d="M189.8304,226.02589a.3786.3786,0,0,1-.1447-.0287,35.936,35.936,0,0,0-13.6041-3.0233.38044.38044,0,1,1,.0238-.7605,37.10635,37.10635,0,0,1,13.87,3.0803.38043.38043,0,0,1-.145.7322Z" transform="translate(-41.80195 -116.98493)"/><path class="cls-1" d="M162.40711,257.22009a.38065.38065,0,0,1-.33881-.5529,9.49307,9.49307,0,0,1,3.3412-3.8866c1.3637-.8464,4.6379-1.8827,7.271.2551a.38047.38047,0,0,1-.4797.5907,5.72859,5.72859,0,0,0-6.3901-.1994,8.74927,8.74927,0,0,0-3.0641,3.585A.38033.38033,0,0,1,162.40711,257.22009Z" transform="translate(-41.80195 -116.98493)"/><path class="cls-1" d="M201.45839,253.71149a.38032.38032,0,0,1-.3648-.2735,3.26009,3.26009,0,0,0-5.71869-1.0631.38032.38032,0,1,1-.6044-.4618,4.02067,4.02067,0,0,1,7.05309,1.3109.38051.38051,0,0,1-.3652.4875Z" transform="translate(-41.80195 -116.98493)"/><path d="M147.6775,226.02589a.38048.38048,0,0,1-.3351-.1996,53.01306,53.01306,0,0,0-9.3106-11.8718,1.46785,1.46785,0,0,0-.7613-.5076c-.3947-.0417-.7877.3471-1.16639,1.161l-1.95821,4.2092a.38039.38039,0,1,1-.68979-.3209l1.95819-4.2091c.5315-1.1426,1.184-1.6794,1.93981-1.5963a2.09691,2.09691,0,0,1,1.21969.7297,53.69844,53.69844,0,0,1,9.4381,12.0441.38061.38061,0,0,1-.3344.5613Z" transform="translate(-41.80195 -116.98493)"/><path d="M187.21,224.49989a.376.376,0,0,1-.0436-.0024.3805.3805,0,0,1-.3349-.4212c.4021-3.5227,3.2041-11.7952,5.5048-13.0681.6255-.3463,1.3079.5201,2.0694,1.602.0629.0893.1178.1673.1622.2276a.38046.38046,0,0,1-.6133.4504c-.0466-.0636-.1046-.1459-.1709-.2402a5.263,5.263,0,0,0-1.13759-1.3396c-.83431.5208-1.96851,2.4605-3.05011,5.2233a33.37179,33.37179,0,0,0-2.0086,7.2311A.38024.38024,0,0,1,187.21,224.49989Z" transform="translate(-41.80195 -116.98493)"/><path class="cls-5" d="M167.6997,273.78079a5.39811,5.39811,0,1,1-6.3563-4.2282A5.39826,5.39826,0,0,1,167.6997,273.78079Z" transform="translate(-41.80195 -116.98493)"/><path d="M177.8392,300.63239c-11.479.0004-19.252-2.773-30.01309-6.6111-2.982-1.0636-6.06551-2.1635-9.559-3.326-5.54391-1.8449-11.75841-4.2424-15.33591-9.3683-5.1458-7.373-2.96909-17.2623-.5252-25.953a143.14772,143.14772,0,0,0,3.6016-19.854c1.2624-9.4883,2.5678-19.2996,6.661-28.2072.7683-1.6721,2.0419-3.9093,4.2237-4.0321,1.7983-.104,3.17881,1.2635,4.4004,2.7537,1.8887,2.3042,4.01341,4.567,6.0682,6.7552a89.73315,89.73315,0,0,1,9.0547,10.7074c6.6427-1.3739,13.5218-1.3914,19.4819-1.2872.8485-1.2172,1.6847-2.4516,2.5678-3.7552,4.0125-5.9232,8.1619-12.0481,13.415-16.426a2.81374,2.81374,0,0,1,1.6605-.817c1.0228-.0335,1.8179.7749,2.3775,2.3987a173.90489,173.90489,0,0,1,8.40909,37.4289,94.43187,94.43187,0,0,1,.2822,12.6964c-.0679,2.8962-.1379,5.8909-.0099,8.9088.0097.2285.0108.4601.0121.7053.0084,1.6718.0188,3.7524,2.6919,7.5884.8446,1.2121,1.82242,2.3688,2.7679,3.4875a28.68722,28.68722,0,0,1,4.8798,7.1689c1.5373,3.577-2.055,8.5911-6.0434,11.7361-3.8263,3.0171-13.61049,5.9701-22.75888,6.8687C183.146,300.49419,180.3996,300.63239,177.8392,300.63239Zm-40.7649-96.5961c-.04619,0-.0925.0012-.13919.0039-1.772.0998-2.88921,2.0969-3.57531,3.5903-4.0454,8.8036-5.3431,18.5573-6.598,27.9898a143.72475,143.72475,0,0,1-3.6233,19.9597c-2.3971,8.523-4.5392,18.2109.4165,25.3117,3.4444,4.935,9.5242,7.2753,14.9525,9.0818,3.501,1.1649,6.5885,2.2661,9.5742,3.3312,13.0646,4.6598,21.6959,7.7384,37.9931,6.1375,9.0221-.8863,18.63559-3.7705,22.36219-6.7089,3.8872-3.0653,7.13312-7.7726,5.8153-10.8383a28.09114,28.09114,0,0,0-4.7616-6.9783c-.9569-1.1321-1.9464-2.3026-2.8112-3.5436-2.80838-4.0303-2.8201-6.336-2.8285-8.0195-.0011-.238-.0022-.4627-.0114-.6768-.129-3.043-.0586-6.0505.0094-8.959a93.80657,93.80657,0,0,0-.27788-12.5949,173.13174,173.13174,0,0,0-8.372-37.2646c-.30121-.8748-.83411-1.9101-1.63421-1.8863a2.18714,2.18714,0,0,0-1.1976.641c-5.1707,4.3091-9.2893,10.3888-13.27219,16.2683-.925,1.3653-1.79841,2.6547-2.68981,3.9302a.38236.38236,0,0,1-.3187.1625c-6.0408-.1088-13.0472-.1055-19.7647,1.3199a.38.38,0,0,1-.395-.1607,87.41923,87.41923,0,0,0-9.1207-10.8229c-2.0633-2.1973-4.1968-4.4696-6.1019-6.7935C139.64511,205.22459,138.4737,204.03629,137.0743,204.03629Z" transform="translate(-41.80195 -116.98493)"/><path class="cls-1" d="M205.34429,287.85569l-.0277-.0009a.38057.38057,0,0,1-.3521-.4067,7.44,7.44,0,0,0-.1161-2.6189,2.25243,2.25243,0,0,0-1.5386-1.6431,2.72532,2.72532,0,0,0-2.0056.5965.38035.38035,0,1,1-.4372-.6225,3.362,3.362,0,0,1,2.6007-.7181,3.01347,3.01347,0,0,1,2.1106,2.1724,8.13513,8.13513,0,0,1,.1451,2.8883A.38055.38055,0,0,1,205.34429,287.85569Z" transform="translate(-41.80195 -116.98493)"/><path d="M96.6062,383.14169a.38022.38022,0,0,1-.3699-.2938,23.20973,23.20973,0,0,1,3.113-17.65756.38037.38037,0,0,1,.6369.416,22.43563,22.43563,0,0,0-3.0092,17.06842.3807.3807,0,0,1-.3708.4669Z" transform="translate(-41.80195 -116.98493)"/><path d="M102.2165,390.74079a.38061.38061,0,0,1-.3507-.2326,25.52564,25.52564,0,0,1-1.6634-13.8488.38036.38036,0,1,1,.7509.1218,24.75606,24.75606,0,0,0,1.6134,13.431.381.381,0,0,1-.3502.5286Z" transform="translate(-41.80195 -116.98493)"/><path d="M126.6792,267.47169a.38041.38041,0,0,1-.0288-.7597l11.1715-.8606a.38032.38032,0,1,1,.0583.7584l-11.1715.8608Z" transform="translate(-41.80195 -116.98493)"/><path d="M127.0633,275.28859a.38034.38034,0,0,1-.0437-.7581,36.7488,36.7488,0,0,0,11.3957-3.2535.38037.38037,0,1,1,.324.6883,37.50324,37.50324,0,0,1-11.63119,3.3207A.35766.35766,0,0,1,127.0633,275.28859Z" transform="translate(-41.80195 -116.98493)"/><path d="M178.9779,235.39689a.37806.37806,0,0,1-.2115-.0646,18.47614,18.47614,0,0,0-11.3571-3.0802.38031.38031,0,0,1-.0464-.7592,19.231,19.231,0,0,1,11.8273,3.2077.3804.3804,0,0,1-.2123.6963Z" transform="translate(-41.80195 -116.98493)"/><path d="M185.3783,233.39109a.37867.37867,0,0,1-.24819-.0922,21.57354,21.57354,0,0,0-7.86821-4.3003.3804.3804,0,1,1,.217-.7292,22.3379,22.3379,0,0,1,8.1479,4.4532.3803.3803,0,0,1-.2485.6685Z" transform="translate(-41.80195 -116.98493)"/><path d="M77.5236,395.59349a.38126.38126,0,0,1-.1611-.0358,27.25649,27.25649,0,0,1-15.1909-26.41848.3804.3804,0,1,1,.7578.0676,26.56637,26.56637,0,0,0,14.7558,25.66178.38041.38041,0,0,1-.1616.7249Z" transform="translate(-41.80195 -116.98493)"/><path d="M81.9398,392.42149a.37412.37412,0,0,1-.0944-.0119,11.29493,11.29493,0,0,1-5.4374-3.906,30.82812,30.82812,0,0,1-6.6826-13.6898.3804.3804,0,1,1,.7451-.1538,30.06358,30.06358,0,0,0,6.5172,13.3511,10.60476,10.60476,0,0,0,5.046,3.6616.3803.3803,0,0,1-.0939.7488Z" transform="translate(-41.80195 -116.98493)"/><ellipse class="cls-9" cx="151.52747" cy="209.05204" rx="11.39331" ry="12.79253"/><path d="M193.3294,339.23859c-6.5078,0-11.8024-5.9223-11.8024-13.2015,0-7.2793,5.2946-13.2016,11.8024-13.2016,6.50771,0,11.80229,5.9223,11.80229,13.2016C205.13169,333.31629,199.83711,339.23859,193.3294,339.23859Zm0-25.5851c-6.0569,0-10.9844,5.5552-10.9844,12.3836,0,6.8283,4.9275,12.3835,10.9844,12.3835,6.05679,0,10.98429-5.5552,10.98429-12.3835C204.31369,319.20869,199.38619,313.65349,193.3294,313.65349Z" transform="translate(-41.80195 -116.98493)"/><path d="M262.70219,282.39549a1.02287,1.02287,0,0,1-.9283-.5925l-23.7726-51.2723c-4.3287-9.3359-8.8049-18.9898-11.5187-29.1569a7.31411,7.31411,0,0,1-.32748-3.1953c.50248-2.88019,3.46328-4.2246,5.98658-5.07409,2.8542-.9608,5.4905-1.9401,8.0399-2.887,2.5638-.9524,5.2151-1.9373,8.0992-2.9082a1.02253,1.02253,0,0,1,.6527,1.9381c-2.8542.9608-5.49038,1.9401-8.0399,2.887-2.5641.9524-5.2151,1.9373-8.0994,2.9082-1.9865.6688-4.3073,1.6695-4.6245,3.48759a5.59966,5.59966,0,0,0,.2888,2.3162c2.6679,9.9956,7.106,19.5676,11.398,28.8242l23.7727,51.2721a1.02289,1.02289,0,0,1-.927,1.4529Z" transform="translate(-41.80195 -116.98493)"/><path d="M277.57739,283.817a1.0225,1.0225,0,0,1-.7059-1.7624c17.886-17.0601,56.8373-64.801,66.8337-80.8244,5.2352-8.39139,8.4147-13.63279,7.8455-15.57179-.6093-2.0763-.9313-2.5127-7.484-3.9492q-.7923-.1737-1.6907-.3729c-2.992-.66741-7.3745-1.3651-11.2412-1.9805-1.193-.19-2.328-.3706-3.3444-.5381a1.02256,1.02256,0,0,1,.3326-2.0179c1.0129.16709,2.1443.3472,3.3333.5364,3.8959.6201,8.3116,1.3229,11.3651,2.0043q.89565.19965,1.6833.3712c5.78,1.2671,7.9428,1.7413,9.0083,5.3707.8216,2.7996-1.881,7.30549-8.0727,17.23009-10.0484,16.1069-49.1888,64.083-67.1573,81.2218A1.019,1.019,0,0,1,277.57739,283.817Z" transform="translate(-41.80195 -116.98493)"/><path class="cls-8" d="M296.33169,262.34919a2.15126,2.15126,0,0,0-3.0405.108l-24.6996,26.5177-12.5721-27.1288a2.15137,2.15137,0,0,0-3.9039,1.8092l13.7454,29.6608c.5124,8.8159,4.87912,16.9817,9.1072,24.8824.7031,1.314,1.4301,2.6726,2.1223,4.0038,1.0748,2.0664,2.0971,3.9681,3.0858,5.8073,4.6613,8.6708,8.0291,14.9358,9.1122,24.12448,1.6812,14.25843-2.3859,21.63682-6.0938,25.31592a18.29683,18.29683,0,0,1-21.54458,2.6259,29.12741,29.12741,0,0,1-7.45292-6.6783c-3.0516-3.70688-6.0599-8.71292-9.2446-14.01288-3.2554-5.41722-6.6214-11.01862-10.1552-15.31982-5.77728-7.0317-10.4171-11.7715-14.60128-14.9166a25.01679,25.01679,0,0,0-7.99582-3.8688,36.37415,36.37415,0,0,0-15.19989-1.1957,2.15134,2.15134,0,1,0,.57571,4.264A32.039,32.039,0,0,1,210.965,329.401a20.81972,20.81972,0,0,1,6.6458,3.1867c3.9032,2.9337,8.3079,7.4487,13.8622,14.2088,3.333,4.0567,6.6163,9.52048,9.7916,14.80447,3.269,5.44009,6.357,10.57873,9.6109,14.53133a33.31749,33.31749,0,0,0,8.56662,7.6366,21.65484,21.65484,0,0,0,11.11438,2.9848,22.32786,22.32786,0,0,0,15.66862-6.2494c7.94768-7.8856,8.37638-20.05442,7.33678-28.874-1.1793-10.00163-4.8935-16.91063-9.5959-25.65793-.9818-1.8264-1.997-3.7149-3.0582-5.7555-.704-1.3534-1.4369-2.7236-2.1461-4.0484-3.9212-7.3276-7.9697-14.8956-8.5723-22.5964l26.2502-28.1825A2.151,2.151,0,0,0,296.33169,262.34919Z" transform="translate(-41.80195 -116.98493)"/><path d="M270.55639,387.16269a22.03947,22.03947,0,0,1-11.3242-3.0427,33.72265,33.72265,0,0,1-8.6725-7.7276c-3.2731-3.976-6.3682-9.12677-9.6451-14.57993-3.1681-5.272-6.44348-10.72257-9.7576-14.75647-5.5333-6.7342-9.9156-11.2278-13.7921-14.1415a20.41182,20.41182,0,0,0-6.5174-3.1215,31.61864,31.61864,0,0,0-13.21669-1.0397,2.56036,2.56036,0,0,1-.685-5.0747,36.79207,36.79207,0,0,1,15.37189,1.209,25.41686,25.41686,0,0,1,8.1243,3.9337c4.21112,3.1656,8.87312,7.9267,14.6713,14.9839,3.553,4.3244,6.92682,9.939,10.18982,15.36857,3.17628,5.2862,6.17638,10.279,9.20978,13.96383a28.7217,28.7217,0,0,0,7.3471,6.5872,17.8886,17.8886,0,0,0,21.0468-2.5652c3.6432-3.6152,7.63732-10.88331,5.9756-24.97753-1.0741-9.11117-4.4261-15.347-9.0655-23.97767-.9877-1.8371-2.0082-3.7353-3.0892-5.8134-.6974-1.3407-1.4207-2.6924-2.1203-3.9994-4.2335-7.9116-8.6111-16.0923-9.15-24.9738l-13.7129-29.5906a2.56035,2.56035,0,1,1,4.646-2.1532l12.3162,26.577,24.2852-26.0727a2.56009,2.56009,0,0,1,3.6183-.1284h0a2.55946,2.55946,0,0,1,.1285,3.6185l-26.1267,28.0504c.6444,7.5574,4.6427,15.0292,8.5104,22.2567.6681,1.2486,1.4256,2.6637,2.1484,4.0526,1.058,2.0351,2.0711,3.9197,3.0509,5.7422,4.72742,8.7938,8.4579,15.7329,9.64642,25.812,1.05018,8.91009.60938,21.211-7.45512,29.21237A22.73078,22.73078,0,0,1,270.55639,387.16269Zm-68.7561-59.5059a32.4361,32.4361,0,0,1,9.2821,1.3524,21.21373,21.21373,0,0,1,6.7741,3.2515c3.9297,2.9538,8.3569,7.4901,13.9323,14.2761,3.3525,4.0802,6.6436,9.55711,9.82632,14.85349,3.26138,5.42739,6.34138,10.55281,9.57608,14.482a32.92163,32.92163,0,0,0,8.4607,7.5455,21.22207,21.22207,0,0,0,10.9045,2.9269,21.90765,21.90765,0,0,0,15.3805-6.1308c7.8308-7.7693,8.2478-19.80615,7.2187-28.53567-1.17-9.92453-4.8679-16.80343-9.5499-25.51213-.9855-1.8335-2-3.7207-3.06058-5.7605-.72032-1.3846-1.47672-2.7975-2.14412-4.044-3.9377-7.359-8.0097-14.9681-8.6192-22.7575a.4101.4101,0,0,1,.1084-.3107l26.2501-28.1827a1.74139,1.74139,0,0,0-.0874-2.4621l-.0002-.0002a1.74178,1.74178,0,0,0-2.4621.0875l-24.6997,26.5179a.40924.40924,0,0,1-.6705-.1069l-12.572-27.129a1.74246,1.74246,0,0,0-3.1618,1.4655l13.7454,29.6608a.41091.41091,0,0,1,.0373.1481c.5075,8.7322,4.8551,16.8564,9.0595,24.7134.7005,1.3091,1.4251,2.6629,2.1247,4.0079,1.0783,2.0731,2.0975,3.9689,3.0832,5.8022,4.6829,8.7116,8.0658,15.0049,9.158,24.27038,1.70042,14.42156-2.43958,21.91092-6.2118,25.65422a18.70513,18.70513,0,0,1-22.0426,2.6866,29.527,29.527,0,0,1-7.5588-6.7694c-3.072-3.7317-6.0871-8.7497-9.27938-14.06226-3.24782-5.40464-6.606-10.99284-10.12072-15.27084-5.7559-7.0055-10.37328-11.724-14.5311-14.8493a24.61879,24.61879,0,0,0-7.8674-3.804,35.95539,35.95539,0,0,0-15.02759-1.1818,1.74221,1.74221,0,1,0,.4662,3.4531A32.02083,32.02083,0,0,1,201.80029,327.65679Z" transform="translate(-41.80195 -116.98493)"/><path class="cls-10" d="M246.07679,354.16063c-8.0462,2.11642-10.2061,13.10654-13.7729,25.56886-5.2586,18.3736-7.9707,35.1397-3.0259,38.0117,12.2918.7153,26.1732-14.0283,29.385-25.3371C261.87469,381.09529,257.806,357.505,246.07679,354.16063Z" transform="translate(-41.80195 -116.98493)"/><path d="M230.146,418.17509q-.449,0-.8917-.0256a.40961.40961,0,0,1-.1817-.0547c-2.4632-1.4307-3.3093-6.0027-2.5147-13.5889a155.11214,155.11214,0,0,1,5.3527-24.8887c.38052-1.3294.74752-2.6517,1.1026-3.9302,2.9756-10.71659,5.5454-19.97173,12.9595-21.92208a.40754.40754,0,0,1,.2162.00222c3.1374.89464,8.8915,4.21777,12.1787,16.42217,2.0787,7.71719,2.3491,16.48089.6888,22.32669-1.617,5.6938-5.9864,12.348-11.403,17.3658C241.85129,415.25659,235.67269,418.17509,230.146,418.17509Zm-.7438-.8367c5.4994.2783,11.7795-2.5766,17.6955-8.0567,5.3125-4.9216,9.59342-11.4314,11.1719-16.9894,1.62252-5.7134,1.3511-14.3057-.6918-21.8901-3.1444-11.67437-8.51168-14.92359-11.5055-15.81684-6.8778,1.89538-9.378,10.90109-12.2708,21.32054-.3556,1.2801-.723,2.6039-1.1045,3.9364C226.59129,401.176,225.39479,414.82129,229.40219,417.33839Z" transform="translate(-41.80195 -116.98493)"/><path class="cls-4" d="M261.89589,370.81927c-3.2329-1.33521-14.3301-7.65052-14.3301-7.65052-.5921-8.50428-15.994-17.86706-26.4969-22.41076-8.4652-3.662-16.878-5.1613-23.0692-11.9978a57.10373,57.10373,0,0,1-3.50609-4.9345,9.71515,9.71515,0,0,0-3.25949-3.0222c-2.41271-1.2699-4.85551-.0781-5.35341,1.34-.4943,1.4078.3588,3.2264.7343,4.6703a3.07166,3.07166,0,0,0-3.7445-.0156,4.57641,4.57641,0,0,0-1.5433,3.474,11.9789,11.9789,0,0,0,.7033,3.8426,107.29182,107.29182,0,0,0,4.6551,11.9528,20.98133,20.98133,0,0,0-.4451,8.52142,10.86956,10.86956,0,0,0,4.45361,6.888,6.83775,6.83775,0,0,0,.63339,7.53225c1.62661,2.05218,4.0178,3.32645,6.3541,4.50905,15.40329,7.7967,31.54709,18.2196,48.14309,22.9757C251.08,389.73829,259.73759,379.10179,261.89589,370.81927Z" transform="translate(-41.80195 -116.98493)"/><path d="M245.82469,396.90309a.41008.41008,0,0,1-.11258-.0158c-12.10642-3.4694-23.97042-9.9423-35.44422-16.202-4.4066-2.4046-8.5691-4.6753-12.77089-6.8022-2.4887-1.2594-4.8578-2.56046-6.49-4.61982a7.29806,7.29806,0,0,1-.8592-7.66289,11.40191,11.40191,0,0,1-4.307-6.92521,21.14031,21.14031,0,0,1,.4172-8.56188,107.28959,107.28959,0,0,1-4.618-11.8778,12.31889,12.31889,0,0,1-.7215-3.9748,4.93691,4.93691,0,0,1,1.6975-3.7825,3.57509,3.57509,0,0,1,3.31411-.5313l-.01431-.0449a6.41854,6.41854,0,0,1-.4209-3.894,3.315,3.315,0,0,1,1.9701-1.8425,4.76333,4.76333,0,0,1,3.9596.2763,10.03742,10.03742,0,0,1,3.4008,3.1445c.3986.5526.7974,1.1605,1.183,1.7482a26.04352,26.04352,0,0,0,2.29439,3.1511c4.524,4.9955,10.28932,7.1124,16.393,9.3537,2.1325.783,4.3376,1.5926,6.5354,2.5434a85.88092,85.88092,0,0,1,17.0498,9.7695c6.04212,4.582,9.2954,8.87618,9.6744,12.76724,1.4711.83437,11.1533,6.30629,14.0968,7.5217a.40914.40914,0,0,1,.2396.48109c-2.0214,7.75777-9.4874,17.30647-14.93868,24.27877q-.62643.8007-1.20552,1.5441A.409.409,0,0,1,245.82469,396.90309Zm-61.04529-70.3227a2.69211,2.69211,0,0,0-1.6546.5381,4.12864,4.12864,0,0,0-1.38869,3.1653,11.639,11.639,0,0,0,.68509,3.7099,107.18534,107.18534,0,0,0,4.6378,11.9071.40826.40826,0,0,1,.0267.2509,20.66919,20.66919,0,0,0-.4453,8.351,10.45115,10.45115,0,0,0,4.2759,6.631.40886.40886,0,0,1,.1224.56336,6.45439,6.45439,0,0,0,.6093,7.05819c1.5314,1.93195,3.7222,3.13477,6.2185,4.39807,4.213,2.1325,8.57489,4.5124,12.79329,6.8138,11.3501,6.1924,23.0847,12.5942,35.01232,16.0573q.49992-.642,1.03648-1.3273c5.0266-6.4289,12.5848-16.0956,14.6999-23.64187-3.5628-1.57088-13.6055-7.281-14.045-7.53108a.40912.40912,0,0,1-.2058-.32712c-.5282-7.58521-13.9781-16.75423-26.2512-22.06343-2.1768-.9418-4.3708-1.7474-6.4927-2.5265-6.201-2.2769-12.0581-4.4277-16.71719-9.5722a26.62444,26.62444,0,0,1-2.3722-3.2517c-.3984-.6071-.7747-1.1804-1.1625-1.7184a9.253,9.253,0,0,0-3.1184-2.8994,3.94994,3.94994,0,0,0-3.27939-.2386,2.5367,2.5367,0,0,0-1.49751,1.3522,5.88922,5.88922,0,0,0,.4291,3.3762c.1166.3685.2269.7166.3152,1.0557a.409.409,0,0,1-.6719.4048A2.32065,2.32065,0,0,0,184.7794,326.58039Z" transform="translate(-41.80195 -116.98493)"/><path d="M246.07679,358.78679c-.3192,1.78754-7.34368,27.1766-11.6375,34.1698,3.76882,1.2616,7.5649,3.6695,11.3855,4.7645,5.25532-6.7558,13.913-18.6193,16.0711-26.90186C258.22559,369.83484,246.07679,358.78679,246.07679,358.78679Z" transform="translate(-41.80195 -116.98493)"/><path d="M219.64869,348.15879a.40748.40748,0,0,1-.2111-.0589,17.62379,17.62379,0,0,0-5.5368-1.8117,15.90728,15.90728,0,0,1-6.3876-2.3306,15.10353,15.10353,0,0,1-4.0267-5.3251c-.6356-1.1892-1.3787-2.4522-2.0975-3.6736-.9703-1.6491-1.9738-3.3545-2.77988-4.9843a.409.409,0,1,1,.73328-.3626c.7929,1.6033,1.7886,3.2955,2.7516,4.9321.7229,1.2284,1.4705,2.4987,2.1139,3.7029a14.44176,14.44176,0,0,0,3.7914,5.0528c1.7253,1.2753,3.8356,1.7187,6.0696,2.1879a18.233,18.233,0,0,1,5.7917,1.9121.40893.40893,0,0,1-.2119.759Z" transform="translate(-41.80195 -116.98493)"/><path d="M208.31289,354.2622a.40829.40829,0,0,1-.1304-.02158c-4.0718-1.36977-8.687-2.92243-11.88059-6.34743a24.03471,24.03471,0,0,1-3.5187-5.3259,82.48836,82.48836,0,0,1-6.561-15.6397.409.409,0,1,1,.7857-.2273,81.74522,81.74522,0,0,0,6.50021,15.4879,22.72774,22.72774,0,0,0,3.39219,5.147c3.05209,3.2738,7.563,4.79136,11.543,6.13019a.40911.40911,0,0,1-.1304.79682Z" transform="translate(-41.80195 -116.98493)"/><path d="M204.44929,362.66261a.406.406,0,0,1-.2316-.07229c-1.3891-.95739-3.3351-2.00865-5.0519-2.93608-.4846-.26181-.9479-.512-1.37179-.7459-4.2386-2.33734-7.0121-5.863-9.3778-9.32445-.389-.5694-.7239-1.1259-1.0479-1.6641-.3173-.5274-.6454-1.0726-1.0204-1.6217a.40892.40892,0,1,1,.6754-.4612c.3884.5681.7227,1.1239,1.046,1.6611.31781.5284.6464,1.0746,1.0223,1.6242,2.6681,3.904,5.2363,6.94056,9.09739,9.07.422.23265.8833.48189,1.3656.7423,1.735.93721,3.7017,1.99965,5.1272,2.9824a.409.409,0,0,1-.2325.7457Z" transform="translate(-41.80195 -116.98493)"/><path d="M201.16459,368.11317a.41177.41177,0,0,1-.1518-.02936,44.12118,44.12118,0,0,1-8.98609-5.18994c-.5512-.38543-1.072-.7495-1.5605-1.07722a.409.409,0,0,1,.4557-.67939c.4951.33231,1.0189.69857,1.5735,1.0862a43.42647,43.42647,0,0,0,8.82139,5.10067.40918.40918,0,0,1-.1522.789Z" transform="translate(-41.80195 -116.98493)"/><path d="M246.07679,354.16063l-1.1716,40.55516,119.7663,1.6758c2.3044-11.1026,4.021-14.4659,7.0501-27.31775C355.88179,372.75729,246.07679,354.16063,246.07679,354.16063Z" transform="translate(-41.80195 -116.98493)"/><path class="cls-1" d="M229.278,417.74119c9.6047-21.0376,15.98-40.4686,16.7988-63.58056,29.3256,5.62976,82.7694,15.55486,109.805,18.59666,4.58632-29.1488,10.9564-63.2331,15.1606-98.3686.4753-3.9726,2.66-12.2222,5.2221-20.1621,2.9535-9.1526,8.3538-21.8231,15.1258-21.5003,13.11482,1.8289,27.2922,4.5792,34.7642,13.7769,6.3309,7.793,7.3082,18.3678,6.9262,28.401-.4625,12.1441-2.625,35.2658-7.6335,68.8602-5.9166,39.6853-11.716,68.2215-17.8546,84.903-3.6031,9.7909-10.1218,13.6829-18.3476,16.2116-10.4713,3.2191-25.21688,1.4615-36.0903.1276C316.51379,440.51169,265.502,424.85349,229.278,417.74119Z" transform="translate(-41.80195 -116.98493)"/><path d="M374.43329,447.12179a177.86728,177.86728,0,0,1-21.3283-1.7093c-22.349-2.7416-49.8427-9.5831-76.431-16.1991-17.141-4.2651-33.3311-8.2938-47.4748-11.0709a.4091.4091,0,0,1-.2932-.5713,209.77634,209.77634,0,0,0,11.6722-30.9525,137.36957,137.36957,0,0,0,5.0897-32.47271.40907.40907,0,0,1,.4859-.387c29.1916,5.60414,82.0899,15.43982,109.3848,18.54785,1.31752-8.35728,2.7646-17.02669,4.2953-26.1972,3.6661-21.9642,7.8216-46.8586,10.8025-71.7695.4555-3.8068,2.5609-11.9404,5.239-20.2391a73.454,73.454,0,0,1,6.1695-14.3885c3.0385-5.0581,6.1883-7.5474,9.365-7.3947.0124.0005.0245.0018.037.0034,12.9388,1.8045,27.3831,4.5173,35.025,13.924,6.9436,8.5471,7.3304,20.4584,7.0175,28.6745-.272,7.1383-1.56028,28.1419-7.6377,68.9051-6.1402,41.1853-11.9872,68.9839-17.8753,84.9838-3.91628,10.6428-11.2596,14.2013-18.61128,16.4616A51.793,51.793,0,0,1,374.43329,447.12179ZM229.86489,417.44c14.042,2.7771,30.0608,6.763,47.0066,10.9796,26.56462,6.6102,54.0335,13.4456,76.333,16.1809,10.1194,1.2415,25.4121,3.1177,35.9201-.1124,7.1507-2.1981,14.29052-5.6534,18.0842-15.9618,5.8686-15.9471,11.7019-43.6928,17.8337-84.8221,6.0714-40.7229,7.3581-61.6909,7.6295-68.8157.6429-16.8791-3.59288-24.1367-6.8351-28.1274-7.45078-9.1718-21.7044-11.8442-34.4841-13.6271-2.8408-.1203-5.7412,2.2297-8.60668,6.9998a72.64845,72.64845,0,0,0-6.09222,14.2185c-2.6635,8.2536-4.7554,16.3252-5.2056,20.0849-2.9828,24.9296-7.1399,49.8343-10.8076,71.8071-1.5539,9.31-3.0218,18.10383-4.3549,26.5765a.40708.40708,0,0,1-.4498.3429c-27.0613-3.04469-79.9297-12.86359-109.3682-18.51165a138.22648,138.22648,0,0,1-5.10168,32.18675A209.3307,209.3307,0,0,1,229.86489,417.44Z" transform="translate(-41.80195 -116.98493)"/><path d="M253.90639,423.55859a.40908.40908,0,0,1-.3401-.6357c3.2242-4.8436,7.06382-15.0222,10.2706-27.2274,3.4099-12.9789,5.5798-26.30821,5.9527-36.57026a.409.409,0,1,1,.81752.02955c-.82082,22.58361-9.68152,54.18871-16.35982,64.22141A.40921.40921,0,0,1,253.90639,423.55859Z" transform="translate(-41.80195 -116.98493)"/><path d="M378.59479,380.32809a.40741.40741,0,0,1-.2225-.066c-7.4388-4.8353-19.4357-7.0738-25.6847-7.3987a.40895.40895,0,0,1,.0423-.8168c6.3373.3295,18.5143,2.6067,26.08822,7.5297a.40894.40894,0,0,1-.22332.7518Z" transform="translate(-41.80195 -116.98493)"/><path class="cls-4" d="M102.3116,307.91889c-.8326,1.5903-2.8822,5.774-5.0242,7.8675-2.4254,2.3705-1.8988,7.4-.1356,10.4806a24.37841,24.37841,0,0,0,6.03831,6.8735,36.7196,36.7196,0,0,0,7.40439,5.1897c3.458,1.8521,6.3911,1.2097,6.96561-1.2569.55749-2.3937-1.98711-4.7598-3.26771-6.0482-1.5951-1.6047-3.3652-3.2751-4.7838-4.8731,4.682,2.5421,5.7489,3.377,8.2426,4.7685a18.36675,18.36675,0,0,0,6.6845,2.4858c2.1409.2054,3.8688-.4834,4.6853-1.8191.9348-1.5291.13711-4.0999-1.4954-5.4662-1.1603-.9711-2.7464-1.8178-4.4856-3.0399a59.6686,59.6686,0,0,1-6.2153-4.9715c4.0571,2.7017,7.41,4.5044,10.6277,6.3606,2.7426,1.5821,5.1772,2.8122,7.1325,1.8204a3.98641,3.98641,0,0,0,1.267-5.8661,37.70641,37.70641,0,0,0-4.6701-4.6879,73.20665,73.20665,0,0,0-5.9606-4.7578,44.85022,44.85022,0,0,1,4.8856,2.5001c2.135,1.1854,2.941,2.0046,4.57231,2.9368,3.90619,2.2321,7.21709-1.8246,4.85979-5.3462a32.05867,32.05867,0,0,0-5.41779-6.2926,42.588,42.588,0,0,0-6.84541-4.8988c-5.2822-2.8158-11.80759-5.494-15.4553-1.0957C108.6118,302.77169,105.4692,301.88779,102.3116,307.91889Z" transform="translate(-41.80195 -116.98493)"/><path d="M114.31211,339.82229a8.49746,8.49746,0,0,1-3.918-1.1181l-.02871-.0153a36.95952,36.95952,0,0,1-7.4495-5.2246,24.71619,24.71619,0,0,1-6.1324-6.9866c-1.9131-3.3422-2.2863-8.5577.2073-10.9948,1.8914-1.8486,3.7729-5.4932,4.6772-7.2448.0994-.1925.1889-.3657.2676-.5162h0a13.614,13.614,0,0,1,5.7773-6.0474,13.98134,13.98134,0,0,0,3.8808-3.163c3.83741-4.6268,10.5566-1.9002,15.9816.9922a42.93722,42.93722,0,0,1,6.9281,4.9566,32.69408,32.69408,0,0,1,5.4882,6.3732,4.31687,4.31687,0,0,1-.2022,5.4439,4.12416,4.12416,0,0,1-5.2209.5066c-.7537-.4306-1.3283-.833-1.9367-1.2588a27.16421,27.16421,0,0,0-2.631-1.6752c-.2331-.1295-.46-.2565-.6834-.3815l-.1488-.0833c.6389.5245,1.20151,1.0081,1.797,1.5204l.5922.5085a38.66223,38.66223,0,0,1,4.7298,4.7507,4.41,4.41,0,0,1-1.4108,6.5042c-2.1451,1.0891-4.68269-.1849-7.5363-1.8312-.6668-.3846-1.33939-.7672-2.0231-1.1557-1.0014-.5694-2.016-1.1461-3.06429-1.7589q.55018.4026,1.13079.8105c.7099.499,1.3861.9293,2.0398,1.3459a24.02406,24.02406,0,0,1,2.4742,1.7161c1.85421,1.5517,2.595,4.3614,1.5853,6.0127-.907,1.4835-2.8093,2.2381-5.08809,2.0204a18.86883,18.86883,0,0,1-6.85061-2.5378c-.9773-.5452-1.7529-1.0152-2.5739-1.5129-.8889-.5388-1.8577-1.1259-3.2679-1.9255.5003.5052,1.0121,1.0104,1.5167,1.5085.464.4582.9259.9141,1.3739,1.3648l.2231.2232c1.39771,1.3949,3.7372,3.7297,3.157,6.2206a3.21984,3.21984,0,0,1-1.8496,2.2915A4.37582,4.37582,0,0,1,114.31211,339.82229Zm-11.62461-31.7066c-.078.149-.1668.3209-.2653.5118-.9956,1.9286-2.8487,5.518-4.83809,7.4625-1.78651,1.7459-2.23841,6.1671-.064,9.9662a23.96982,23.96982,0,0,0,5.94409,6.7603,36.2459,36.2459,0,0,0,7.302,5.1243l.0287.0153c1.9204,1.0285,3.7348,1.2952,4.9787.7317a2.39791,2.39791,0,0,0,1.373-1.7108c.4733-2.0309-1.6571-4.157-2.9298-5.4272l-.2253-.2255c-.4463-.4488-.9062-.903-1.3682-1.3591-1.1809-1.1656-2.4019-2.371-3.4321-3.5314a.42438.42438,0,0,1,.5198-.6548c2.8687,1.5576,4.3727,2.469,5.6995,3.2734.8498.5149,1.58361.9596,2.54761,1.4975a18.06324,18.06324,0,0,0,6.51819,2.4338c1.9473.1871,3.5491-.4181,4.28281-1.6179.79219-1.2958.12209-3.6404-1.40571-4.9192a23.13685,23.13685,0,0,0-2.3855-1.6511c-.6619-.4215-1.3463-.8573-2.072-1.3672a60.20037,60.20037,0,0,1-6.2576-5.0056.42438.42438,0,0,1,.5216-.6664c3.203,2.1329,5.9349,3.686,8.577,5.1879.68521.3896,1.3593.7727,2.0276,1.1584,2.6358,1.5203,4.9614,2.7056,6.7284,1.8096a3.46337,3.46337,0,0,0,1.7383-2.3387,3.41415,3.41415,0,0,0-.615-2.8894,37.19051,37.19051,0,0,0-4.6104-4.6251l-.59369-.51a67.22111,67.22111,0,0,0-5.33941-4.226.42446.42446,0,0,1,.412-.7358,38.70316,38.70316,0,0,1,4.2473,2.1407c.2226.1246.4487.251.6807.3799a27.95782,27.95782,0,0,1,2.7059,1.7219c.592.4147,1.1511.8061,1.871,1.2175a3.24486,3.24486,0,0,0,4.1787-.3484,3.48424,3.48424,0,0,0,.1179-4.3932,31.87458,31.87458,0,0,0-5.3476-6.2118,41.95449,41.95449,0,0,0-6.7624-4.8412c-9.7869-5.2172-13.119-3.3814-14.9293-1.1994a14.8766,14.8766,0,0,1-4.0886,3.3439,12.74173,12.74173,0,0,0-5.4708,5.7186Z" transform="translate(-41.80195 -116.98493)"/><path d="M110.59411,327.29369a.42279.42279,0,0,1-.24561-.0785,58.4492,58.4492,0,0,1-4.8092-3.8891.42431.42431,0,1,1,.5723-.6266,57.55059,57.55059,0,0,0,4.729,3.824.42447.42447,0,0,1-.24649.7702Z" transform="translate(-41.80195 -116.98493)"/><path d="M119.076,320.41629a.4229.4229,0,0,1-.289-.1135,46.88083,46.88083,0,0,0-7.2732-5.7056.42441.42441,0,0,1,.4615-.7124,47.63328,47.63328,0,0,1,7.38981,5.7963.42436.42436,0,0,1-.28911.7352Z" transform="translate(-41.80195 -116.98493)"/><path d="M125.8977,311.80679a.4235.4235,0,0,1-.2792-.1048,32.11256,32.11256,0,0,0-6.5338-4.0656.42442.42442,0,0,1,.3693-.7643,32.29574,32.29574,0,0,1,6.7234,4.191.42434.42434,0,0,1-.2797.7437Z" transform="translate(-41.80195 -116.98493)"/></svg>