<svg id="OBJECTS" xmlns="http://www.w3.org/2000/svg" xmlns:xlink="http://www.w3.org/1999/xlink" viewBox="0 0 135.64231 144.07284"><defs><style>.cls-1{fill:#fff;}.cls-2{fill:#ecb52b;}.cls-3{fill:#f1cebe;}.cls-4{fill:#1e0b07;}.cls-5,.cls-7,.cls-9{fill:none;stroke-linecap:round;stroke-linejoin:round;}.cls-5,.cls-9{stroke:#130017;}.cls-5{stroke-width:1.00681px;}.cls-6{fill:#130017;}.cls-7{stroke:#e9bcad;stroke-width:0.6712px;}.cls-8{clip-path:url(#clip-path);}.cls-9{stroke-width:0.79729px;}.cls-10{clip-path:url(#clip-path-2);}</style><clipPath id="clip-path" transform="translate(-182.36269 -273.44466)"><path class="cls-1" d="M243.12739,323.4956s-.994-4.3531-7.33639-4.3464c-6.87281.0073-8.417,4.8822-8.417,4.8822s2.25039,4.8225,8.78759,4.0723C242.69869,327.3535,243.12739,323.4956,243.12739,323.4956Z"/></clipPath><clipPath id="clip-path-2" transform="translate(-182.36269 -273.44466)"><path class="cls-1" d="M255.277,323.4956s.99389-4.3531,7.33629-4.3464c6.8728.0073,8.4171,4.8822,8.4171,4.8822s-2.2505,4.8225-8.7877,4.0723C255.70559,327.3535,255.277,323.4956,255.277,323.4956Z"/></clipPath></defs><path class="cls-2" d="M302.06449,389.3872l-42.4267-11.556h-19.4901L198.303,389.3872s-15.94031,5.626-15.94031,28.1303H318.005C318.005,395.0132,302.06449,389.3872,302.06449,389.3872Z" transform="translate(-182.36269 -273.44466)"/><path class="cls-3" d="M224.41119,381.9884l15.7365-4.1572h19.4901l16.2325,4.1572s1.7711,15.6859-25.6641,15.6859S224.41119,381.9884,224.41119,381.9884Z" transform="translate(-182.36269 -273.44466)"/><path class="cls-4" d="M284.40929,366.8246h-67.7116c-5.8261,0-10.36669-4.5511-9.749-9.7714l7.7211-52.1827h70.7543l8.7268,52.1218C294.81179,362.233,290.26259,366.8246,284.40929,366.8246Z" transform="translate(-182.36269 -273.44466)"/><path class="cls-3" d="M220.63219,322.1876a7.21466,7.21466,0,0,0-7.3744-3.5926c-9.1759.9727-7.7291,22.0795,4.22,21.1291C230.95519,338.6522,220.63219,322.1876,220.63219,322.1876Z" transform="translate(-182.36269 -273.44466)"/><path class="cls-5" d="M211.66879,326.4682s5.5434-.7749,8.1799,6.2448" transform="translate(-182.36269 -273.44466)"/><path class="cls-3" d="M279.38839,322.1876a7.21467,7.21467,0,0,1,7.3744-3.5926c9.1759.9727,7.7291,22.0795-4.22,21.1291C269.06539,338.6522,279.38839,322.1876,279.38839,322.1876Z" transform="translate(-182.36269 -273.44466)"/><path class="cls-5" d="M288.35179,326.4682s-5.5434-.7749-8.1799,6.2448" transform="translate(-182.36269 -273.44466)"/><ellipse class="cls-4" cx="250.25857" cy="307.1327" rx="35.69372" ry="33.68377" transform="translate(-195.02776 -262.67493) rotate(-2.40449)"/><polygon class="cls-3" points="59.433 81.165 57.322 110.913 77.889 111.007 75.1 80.926 59.433 81.165"/><polygon class="cls-4" points="59.189 84.61 76.603 97.643 75.189 80.492 60.605 80.501 59.189 84.61"/><path class="cls-3" d="M219.93209,317.1032s-.1109,41.1739,28.5577,42.2826c32.3606,1.2514,32.0205-41.992,32.0205-41.992s3.653-32.717-31.2972-32.717C215.75869,284.6768,219.93209,317.1032,219.93209,317.1032Z" transform="translate(-182.36269 -273.44466)"/><path class="cls-6" d="M242.26509,311.055a88.01147,88.01147,0,0,0-15.84109,3.4703c-.67121.2274-1.33871-.1421-1.204-.6715.24709-.9719,1.23429-2.0187,3.45639-3.2658a22.25414,22.25414,0,0,1,10.9657-2.003,3.22178,3.22178,0,0,1,2.9383,2.1337h0C242.62259,310.8707,242.478,311.0288,242.26509,311.055Z" transform="translate(-182.36269 -273.44466)"/><path class="cls-6" d="M255.07449,311.055a88.0117,88.0117,0,0,1,15.8411,3.4703c.6712.2274,1.3387-.1421,1.204-.6715-.2471-.9719-1.2343-2.0187-3.4564-3.2658a22.25412,22.25412,0,0,0-10.9657-2.003,3.22153,3.22153,0,0,0-2.9382,2.1337h0C254.717,310.8707,254.86159,311.0288,255.07449,311.055Z" transform="translate(-182.36269 -273.44466)"/><polyline class="cls-5" points="65.02 58.317 65.02 63.011 67.659 63.011"/><path class="cls-5" d="M241.33959,341.7156a23.45013,23.45013,0,0,0,15.6363-.0992" transform="translate(-182.36269 -273.44466)"/><line class="cls-7" x1="74.6132" y1="54.73824" x2="78.2028" y2="57.29264"/><line class="cls-7" x1="59.4781" y1="54.73824" x2="55.0786" y2="57.29264"/><line class="cls-7" x1="64.0201" y1="73.15584" x2="70.4147" y2="73.15584"/><path class="cls-1" d="M243.12739,323.4956s-.994-4.3531-7.33639-4.3464c-6.87281.0073-8.417,4.8822-8.417,4.8822s2.25039,4.8225,8.78759,4.0723C242.69869,327.3535,243.12739,323.4956,243.12739,323.4956Z" transform="translate(-182.36269 -273.44466)"/><g class="cls-8"><circle class="cls-6" cx="53.3169" cy="49.57004" r="4.1006"/></g><path class="cls-9" d="M243.12739,323.4956s-1.4416-5.0042-7.761-4.5527c-6.566.4691-7.99239,5.0885-7.99239,5.0885" transform="translate(-182.36269 -273.44466)"/><path class="cls-1" d="M255.277,323.4956s.99389-4.3531,7.33629-4.3464c6.8728.0073,8.4171,4.8822,8.4171,4.8822s-2.2505,4.8225-8.7877,4.0723C255.70559,327.3535,255.277,323.4956,255.277,323.4956Z" transform="translate(-182.36269 -273.44466)"/><g class="cls-10"><path class="cls-6" d="M258.86789,322.7849a4.10065,4.10065,0,1,0,4.1006-4.1006A4.1006,4.1006,0,0,0,258.86789,322.7849Z" transform="translate(-182.36269 -273.44466)"/></g><path class="cls-9" d="M255.277,323.4956s1.44159-5.0042,7.76089-4.5527c6.56611.4691,7.9925,5.0885,7.9925,5.0885" transform="translate(-182.36269 -273.44466)"/><path class="cls-4" d="M236.59969,281.5674a35.43541,35.43541,0,0,1-19.2201,29.2888S214.28529,286.5264,236.59969,281.5674Z" transform="translate(-182.36269 -273.44466)"/><path class="cls-4" d="M223.98969,287.5606s13.2611,24.7059,58.5746,17.8692c0,0-1.5706-20.8917-25.45329-27.2255C257.111,278.2043,238.30679,274.6942,223.98969,287.5606Z" transform="translate(-182.36269 -273.44466)"/></svg>