<svg id="OBJECTS" xmlns="http://www.w3.org/2000/svg" xmlns:xlink="http://www.w3.org/1999/xlink" viewBox="0 0 135.6422 144.07284"><defs><style>.cls-1{fill:#fff;}.cls-2{fill:#1e0b07;}.cls-3{fill:#6dc0f2;}.cls-4{fill:#df9685;}.cls-5,.cls-7,.cls-9{fill:none;}.cls-5,.cls-9{stroke:#130017;stroke-linecap:round;stroke-linejoin:round;}.cls-5{stroke-width:1.00681px;}.cls-6{fill:#130017;}.cls-7{stroke:#d48377;stroke-miterlimit:10;stroke-width:0.75px;}.cls-8{clip-path:url(#clip-path);}.cls-9{stroke-width:0.79729px;}.cls-10{clip-path:url(#clip-path-2);}.cls-11{fill:#e17235;}</style><clipPath id="clip-path" transform="translate(-336.08759 -273.44466)"><path class="cls-1" d="M396.85219,323.4956s-.994-4.3531-7.3363-4.3464c-6.87289.0073-8.4171,4.8822-8.4171,4.8822s2.2505,4.8225,8.7876,4.0723S396.85219,323.4956,396.85219,323.4956Z"/></clipPath><clipPath id="clip-path-2" transform="translate(-336.08759 -273.44466)"><path class="cls-1" d="M409.00179,323.4956s.994-4.3531,7.3363-4.3464c6.87291.0073,8.4171,4.8822,8.4171,4.8822s-2.2505,4.8225-8.7876,4.0723S409.00179,323.4956,409.00179,323.4956Z"/></clipPath></defs><path class="cls-2" d="M444.00529,347.6609c-8.6402-9.838-4.34-38.0272-4.34-38.0272l-35.8525-17.4374-35.4496,17.749s3.8975,27.8776-4.7427,37.7156c-8.485,9.6615-16.11249,27.7028-1.4774,45.7664,14.6352,18.0635,41.6697,7.9027,41.6697,7.9027s27.0347,10.1608,41.6698-7.9027C460.11769,375.3637,452.49019,357.3224,444.00529,347.6609Z" transform="translate(-336.08759 -273.44466)"/><path class="cls-3" d="M455.78929,389.3872l-42.4267-11.556h-19.4901l-41.8446,11.556s-15.9403,5.626-15.9403,28.1303H471.72978C471.72978,395.0132,455.78929,389.3872,455.78929,389.3872Z" transform="translate(-336.08759 -273.44466)"/><polygon class="cls-4" points="42.048 108.544 57.785 104.387 77.275 104.387 93.507 108.544 67.843 124.23 42.048 108.544"/><path class="cls-4" d="M374.357,322.1876a7.21462,7.21462,0,0,0-7.37431-3.5926c-9.1759.9727-7.7292,22.0795,4.2199,21.1291C384.68,338.6522,374.357,322.1876,374.357,322.1876Z" transform="translate(-336.08759 -273.44466)"/><path class="cls-5" d="M365.39369,326.4682s5.54331-.7749,8.1798,6.2448" transform="translate(-336.08759 -273.44466)"/><path class="cls-4" d="M433.11329,322.1876a7.2146,7.2146,0,0,1,7.3743-3.5926c9.1759.9727,7.7291,22.0795-4.2199,21.1291C422.79019,338.6522,433.11329,322.1876,433.11329,322.1876Z" transform="translate(-336.08759 -273.44466)"/><path class="cls-5" d="M442.07659,326.4682s-5.5434-.7749-8.1798,6.2448" transform="translate(-336.08759 -273.44466)"/><ellipse class="cls-2" cx="403.98344" cy="307.1327" rx="35.69369" ry="33.68377" transform="matrix(0.99912, -0.04198, 0.04198, 0.99912, -348.62388, -256.21613)"/><polygon class="cls-4" points="59.433 81.165 57.322 110.913 77.889 111.007 75.1 80.926 59.433 81.165"/><polygon class="cls-2" points="59.189 84.61 76.603 97.643 75.189 80.492 60.605 80.501 59.189 84.61"/><path class="cls-4" d="M373.65689,317.1032s-.1108,41.1739,28.5578,42.2826c32.3605,1.2514,32.0205-41.992,32.0205-41.992s3.6529-32.717-31.29719-32.717C369.48359,284.6768,373.65689,317.1032,373.65689,317.1032Z" transform="translate(-336.08759 -273.44466)"/><path class="cls-6" d="M395.98989,311.055a88.01121,88.01121,0,0,0-15.841,3.4703c-.6712.2274-1.3387-.1421-1.2041-.6715.24721-.9719,1.2343-2.0187,3.4564-3.2658a22.25414,22.25414,0,0,1,10.9657-2.003,3.22179,3.22179,0,0,1,2.9383,2.1337h0C396.34749,310.8707,396.20279,311.0288,395.98989,311.055Z" transform="translate(-336.08759 -273.44466)"/><path class="cls-6" d="M408.79929,311.055a88.0117,88.0117,0,0,1,15.8411,3.4703c.6712.2274,1.3387-.1421,1.2041-.6715-.2472-.9719-1.2343-2.0187-3.45649-3.2658a22.254,22.254,0,0,0-10.96571-2.003,3.22176,3.22176,0,0,0-2.9382,2.1337h0C408.44179,310.8707,408.58649,311.0288,408.79929,311.055Z" transform="translate(-336.08759 -273.44466)"/><polyline class="cls-5" points="65.02 58.317 65.02 63.011 67.659 63.011"/><path class="cls-5" d="M395.06439,341.7156a23.45013,23.45013,0,0,0,15.6363-.0992" transform="translate(-336.08759 -273.44466)"/><line class="cls-7" x1="74.6131" y1="54.73824" x2="78.2028" y2="57.29264"/><line class="cls-7" x1="59.478" y1="54.73824" x2="55.0785" y2="57.29264"/><line class="cls-7" x1="64.0201" y1="73.15584" x2="70.4146" y2="73.15584"/><path class="cls-1" d="M396.85219,323.4956s-.994-4.3531-7.3363-4.3464c-6.87289.0073-8.4171,4.8822-8.4171,4.8822s2.2505,4.8225,8.7876,4.0723S396.85219,323.4956,396.85219,323.4956Z" transform="translate(-336.08759 -273.44466)"/><g class="cls-8"><circle class="cls-6" cx="53.3169" cy="49.57004" r="4.1006"/></g><path class="cls-9" d="M396.85219,323.4956s-1.4416-5.0042-7.7609-4.5527c-6.5661.4691-7.9925,5.0885-7.9925,5.0885" transform="translate(-336.08759 -273.44466)"/><path class="cls-1" d="M409.00179,323.4956s.994-4.3531,7.3363-4.3464c6.87291.0073,8.4171,4.8822,8.4171,4.8822s-2.2505,4.8225-8.7876,4.0723S409.00179,323.4956,409.00179,323.4956Z" transform="translate(-336.08759 -273.44466)"/><g class="cls-10"><circle class="cls-6" cx="80.6058" cy="49.34024" r="4.10061"/></g><path class="cls-9" d="M409.00179,323.4956s1.4416-5.0042,7.7609-4.5527c6.5661.4691,7.9925,5.0885,7.9925,5.0885" transform="translate(-336.08759 -273.44466)"/><circle class="cls-11" cx="66.3394" cy="29.30794" r="1.9376"/><path class="cls-2" d="M406.427,280.8047s-4,21.9115-35.32261,30.0515C371.10439,310.8562,365.39369,280.8047,406.427,280.8047Z" transform="translate(-336.08759 -273.44466)"/><path class="cls-2" d="M400.02939,280.8047s4,21.9115,35.32261,30.0515C435.352,310.8562,435.352,284.6768,400.02939,280.8047Z" transform="translate(-336.08759 -273.44466)"/></svg>