<svg id="OBJECTS" xmlns="http://www.w3.org/2000/svg" xmlns:xlink="http://www.w3.org/1999/xlink" viewBox="0 0 135.6422 144.07284"><defs><style>.cls-1{fill:#fff;}.cls-2{fill:#e17235;}.cls-3{fill:#30242a;}.cls-4{fill:#f1cebe;}.cls-10,.cls-5,.cls-7{fill:none;stroke-linecap:round;stroke-linejoin:round;}.cls-10,.cls-5{stroke:#130017;}.cls-5{stroke-width:1.00681px;}.cls-6{fill:#1e0b07;}.cls-7{stroke:#e9bcad;stroke-width:0.6712px;}.cls-8{clip-path:url(#clip-path);}.cls-9{fill:#130017;}.cls-10{stroke-width:0.79729px;}.cls-11{clip-path:url(#clip-path-2);}</style><clipPath id="clip-path" transform="translate(-29.1411 -273.44466)"><path class="cls-1" d="M89.90569,323.4956s-.994-4.3531-7.3363-4.3464c-6.8728.0073-8.4171,4.8822-8.4171,4.8822s2.2505,4.8225,8.7876,4.0723C89.47709,327.3535,89.90569,323.4956,89.90569,323.4956Z"/></clipPath><clipPath id="clip-path-2" transform="translate(-29.1411 -273.44466)"><path class="cls-1" d="M102.05529,323.4956s.994-4.3531,7.3363-4.3464c6.8729.0073,8.4171,4.8822,8.4171,4.8822s-2.2505,4.8225-8.7876,4.0723S102.05529,323.4956,102.05529,323.4956Z"/></clipPath></defs><rect class="cls-2" x="32.2827" y="31.82594" width="71.2611" height="83.5037"/><path class="cls-3" d="M148.84279,389.3872l-42.4267-11.556H86.926l-41.8446,11.556s-15.9403,5.626-15.9403,28.1303H164.78329C164.78329,395.0132,148.84279,389.3872,148.84279,389.3872Z" transform="translate(-29.1411 -273.44466)"/><path class="cls-4" d="M78.16129,380.1466l8.76471-2.3154h19.49009l8.995,2.3036s3.5043,12.5395-18.4266,12.5395C73.69509,392.6743,78.16129,380.1466,78.16129,380.1466Z" transform="translate(-29.1411 -273.44466)"/><path class="cls-4" d="M67.4105,322.1876a7.2146,7.2146,0,0,0-7.3743-3.5926c-9.1759.9727-7.7291,22.0795,4.2199,21.1291C77.73359,338.6522,67.4105,322.1876,67.4105,322.1876Z" transform="translate(-29.1411 -273.44466)"/><path class="cls-5" d="M58.4472,326.4682s5.5433-.7749,8.1798,6.2448" transform="translate(-29.1411 -273.44466)"/><path class="cls-4" d="M126.16679,322.1876a7.21461,7.21461,0,0,1,7.3743-3.5926c9.17591.9727,7.7292,22.0795-4.2199,21.1291C115.84379,338.6522,126.16679,322.1876,126.16679,322.1876Z" transform="translate(-29.1411 -273.44466)"/><path class="cls-5" d="M135.13009,326.4682s-5.5433-.7749-8.1798,6.2448" transform="translate(-29.1411 -273.44466)"/><ellipse class="cls-2" cx="97.03694" cy="307.1327" rx="35.69369" ry="33.68377" transform="translate(-41.94792 -269.10068) rotate(-2.40578)"/><polygon class="cls-4" points="59.433 81.165 57.322 110.913 77.889 111.007 75.1 80.926 59.433 81.165"/><polygon class="cls-6" points="59.189 84.61 76.603 97.643 75.189 80.492 60.605 80.501 59.189 84.61"/><path class="cls-4" d="M66.7104,317.1032s-.1108,41.1739,28.55779,42.2826c32.3605,1.2514,32.0205-41.992,32.0205-41.992s3.6529-32.717-31.2972-32.717C62.5371,284.6768,66.7104,317.1032,66.7104,317.1032Z" transform="translate(-29.1411 -273.44466)"/><path class="cls-2" d="M89.04349,311.055a88.0117,88.0117,0,0,0-15.8411,3.4703c-.67119.2274-1.33869-.1421-1.20409-.6715.2472-.9719,1.23429-2.0187,3.45649-3.2658a22.25389,22.25389,0,0,1,10.9657-2.003,3.22176,3.22176,0,0,1,2.9382,2.1337h0C89.401,310.8707,89.25629,311.0288,89.04349,311.055Z" transform="translate(-29.1411 -273.44466)"/><path class="cls-2" d="M101.85279,311.055a88.00991,88.00991,0,0,1,15.8411,3.4703c.6712.2274,1.3387-.1421,1.20411-.6715-.24721-.9719-1.23431-2.0187-3.45651-3.2658a22.25389,22.25389,0,0,0-10.9657-2.003,3.22177,3.22177,0,0,0-2.9382,2.1337h0C101.49529,310.8707,101.64,311.0288,101.85279,311.055Z" transform="translate(-29.1411 -273.44466)"/><polyline class="cls-5" points="65.02 58.317 65.02 63.011 67.659 63.011"/><path class="cls-5" d="M88.11789,341.7156a23.45023,23.45023,0,0,0,15.6363-.0992" transform="translate(-29.1411 -273.44466)"/><line class="cls-7" x1="74.6131" y1="54.73824" x2="78.2028" y2="57.29264"/><line class="cls-7" x1="59.478" y1="54.73824" x2="55.0785" y2="57.29264"/><line class="cls-7" x1="64.0201" y1="73.15584" x2="70.4146" y2="73.15584"/><path class="cls-1" d="M89.90569,323.4956s-.994-4.3531-7.3363-4.3464c-6.8728.0073-8.4171,4.8822-8.4171,4.8822s2.2505,4.8225,8.7876,4.0723C89.47709,327.3535,89.90569,323.4956,89.90569,323.4956Z" transform="translate(-29.1411 -273.44466)"/><g class="cls-8"><circle class="cls-9" cx="53.3169" cy="49.57004" r="4.1006"/></g><path class="cls-10" d="M89.90569,323.4956s-1.4416-5.0042-7.7609-4.5527c-6.5661.4691-7.9925,5.0885-7.9925,5.0885" transform="translate(-29.1411 -273.44466)"/><path class="cls-1" d="M102.05529,323.4956s.994-4.3531,7.3363-4.3464c6.8729.0073,8.4171,4.8822,8.4171,4.8822s-2.2505,4.8225-8.7876,4.0723S102.05529,323.4956,102.05529,323.4956Z" transform="translate(-29.1411 -273.44466)"/><g class="cls-11"><circle class="cls-9" cx="80.6058" cy="49.34024" r="4.1006"/></g><path class="cls-10" d="M102.05529,323.4956s1.4416-5.0042,7.761-4.5527c6.566.4691,7.9924,5.0885,7.9924,5.0885" transform="translate(-29.1411 -273.44466)"/><path class="cls-2" d="M112.70479,281.5674a35.43541,35.43541,0,0,0,19.2201,29.2888S135.01919,286.5264,112.70479,281.5674Z" transform="translate(-29.1411 -273.44466)"/><path class="cls-2" d="M115.45459,286.9361s-4.5835,19.2871-50.26019,19.6896c0,0,3.4156-28.5098,30.74169-27.538Z" transform="translate(-29.1411 -273.44466)"/></svg>