<svg id="OBJECTS" xmlns="http://www.w3.org/2000/svg" xmlns:xlink="http://www.w3.org/1999/xlink" viewBox="0 0 135.6422 153.0456"><defs><style>.cls-1{fill:#fff;}.cls-2{fill:#30242a;}.cls-3{fill:#f1cebe;}.cls-4{fill:#c97358;}.cls-5{fill:#1e0b07;}.cls-10,.cls-6,.cls-7{fill:none;stroke-linecap:round;stroke-linejoin:round;}.cls-10,.cls-6{stroke:#130017;}.cls-6{stroke-width:1.00681px;}.cls-7{stroke:#e9bcad;stroke-width:0.6712px;}.cls-8{clip-path:url(#clip-path);}.cls-9{fill:#130017;}.cls-10{stroke-width:0.79729px;}.cls-11{clip-path:url(#clip-path-2);}</style><clipPath id="clip-path" transform="translate(-336.08759 -77.4826)"><path class="cls-1" d="M396.85219,134.5063s-.994-4.3531-7.3363-4.3463c-6.87289.0073-8.4171,4.8822-8.4171,4.8822s2.2505,4.8224,8.7876,4.0723C396.42349,138.3643,396.85219,134.5063,396.85219,134.5063Z"/></clipPath><clipPath id="clip-path-2" transform="translate(-336.08759 -77.4826)"><path class="cls-1" d="M409.00179,134.5063s.994-4.3531,7.3363-4.3463c6.87291.0073,8.4171,4.8822,8.4171,4.8822s-2.2505,4.8224-8.7876,4.0723C409.43049,138.3643,409.00179,134.5063,409.00179,134.5063Z"/></clipPath></defs><path class="cls-2" d="M455.78929,202.398,414.877,190.8419H392.80569l-40.7778,11.5561s-15.9403,5.626-15.9403,28.1302H471.72978C471.72978,208.024,455.78929,202.398,455.78929,202.398Z" transform="translate(-336.08759 -77.4826)"/><path class="cls-3" d="M382.24829,193.8338l10.5574-2.9919H414.877l9.77679,2.7616s2.045,12.0816-20.72279,12.0816C380.49779,205.6851,382.24829,193.8338,382.24829,193.8338Z" transform="translate(-336.08759 -77.4826)"/><path class="cls-4" d="M383.51279,100.3464s-13.85679-1.8709-16.0315,9.7928c-2.1747,11.6638,8.9432,29.1575,8.9432,29.1575l.4233-26.2692Z" transform="translate(-336.08759 -77.4826)"/><path class="cls-4" d="M424.01089,97.9253s14.6432-4.3759,16.4157,12.2139c1.2588,11.7824-6.9433,29.1575-6.9433,29.1575L433.06,113.0275Z" transform="translate(-336.08759 -77.4826)"/><polygon class="cls-3" points="58.571 90.129 56.198 119.876 79.488 119.982 76.313 89.899 58.571 90.129"/><polygon class="cls-5" points="58.296 93.574 78.025 106.617 76.413 89.465 59.898 89.465 58.296 93.574"/><path class="cls-3" d="M374.357,129.1133a7.13351,7.13351,0,0,0-7.37431-4.2236c-9.1759,1.1436-7.7292,25.957,4.2199,24.8397C384.68,148.4692,374.357,129.1133,374.357,129.1133Z" transform="translate(-336.08759 -77.4826)"/><path class="cls-6" d="M365.39369,134.1456s5.54331-.911,8.1798,7.3414" transform="translate(-336.08759 -77.4826)"/><path class="cls-3" d="M433.11329,129.1133a7.13349,7.13349,0,0,1,7.3743-4.2236c9.1759,1.1436,7.7291,25.957-4.2199,24.8397C422.79019,148.4692,433.11329,129.1133,433.11329,129.1133Z" transform="translate(-336.08759 -77.4826)"/><path class="cls-6" d="M442.07659,134.1456s-5.5434-.911-8.1798,7.3414" transform="translate(-336.08759 -77.4826)"/><path class="cls-3" d="M373.65689,127.1139s-3.1602,44.1498,28.5578,45.2826c32.6364,1.1656,32.0205-44.9919,32.0205-44.9919s4.7307-38.7171-31.29719-38.7171C369.48359,88.6875,373.65689,127.1139,373.65689,127.1139Z" transform="translate(-336.08759 -77.4826)"/><path class="cls-4" d="M398.12109,121.3292a73.3,73.3,0,0,0-17.8516,4.2953,1.03359,1.03359,0,0,1-1.4234-1.1053,6.06,6.06,0,0,1,3.7167-4.7775c2.4326-1.115,8.0476-3.1763,12.3859-2.3622a4.59116,4.59116,0,0,1,3.5087,3.455h0A.39456.39456,0,0,1,398.12109,121.3292Z" transform="translate(-336.08759 -77.4826)"/><path class="cls-4" d="M407.46929,121.3292a73.29876,73.29876,0,0,1,17.8516,4.2953,1.03359,1.03359,0,0,0,1.4234-1.1053,6.06,6.06,0,0,0-3.7167-4.7775c-2.43259-1.115-8.04759-3.1763-12.3858-2.3622a4.59126,4.59126,0,0,0-3.50879,3.455h0A.39455.39455,0,0,0,407.46929,121.3292Z" transform="translate(-336.08759 -77.4826)"/><polyline class="cls-6" points="65.02 65.29 65.02 70.984 68.659 70.984"/><path class="cls-6" d="M393.19789,153.1059a27.8091,27.8091,0,0,0,20.0602-.427" transform="translate(-336.08759 -77.4826)"/><line class="cls-7" x1="74.6131" y1="61.7111" x2="78.2028" y2="64.2655"/><line class="cls-7" x1="59.478" y1="61.7111" x2="55.0785" y2="64.2655"/><line class="cls-7" x1="64.0201" y1="81.1287" x2="70.4146" y2="81.1287"/><path class="cls-1" d="M396.85219,134.5063s-.994-4.3531-7.3363-4.3463c-6.87289.0073-8.4171,4.8822-8.4171,4.8822s2.2505,4.8224,8.7876,4.0723C396.42349,138.3643,396.85219,134.5063,396.85219,134.5063Z" transform="translate(-336.08759 -77.4826)"/><g class="cls-8"><path class="cls-9" d="M393.50509,134.0255a4.1006,4.1006,0,1,1-4.1006-4.1007A4.1006,4.1006,0,0,1,393.50509,134.0255Z" transform="translate(-336.08759 -77.4826)"/></g><path class="cls-10" d="M396.85219,134.5063s-1.4416-5.0041-7.7609-4.5527c-6.5661.4691-7.9925,5.0886-7.9925,5.0886" transform="translate(-336.08759 -77.4826)"/><path class="cls-1" d="M409.00179,134.5063s.994-4.3531,7.3363-4.3463c6.87291.0073,8.4171,4.8822,8.4171,4.8822s-2.2505,4.8224-8.7876,4.0723C409.43049,138.3643,409.00179,134.5063,409.00179,134.5063Z" transform="translate(-336.08759 -77.4826)"/><g class="cls-11"><path class="cls-9" d="M412.59279,133.7956a4.10061,4.10061,0,1,0,4.1006-4.1006A4.10068,4.10068,0,0,0,412.59279,133.7956Z" transform="translate(-336.08759 -77.4826)"/></g><path class="cls-10" d="M409.00179,134.5063s1.4416-5.0041,7.7609-4.5527c6.5661.4691,7.9925,5.0886,7.9925,5.0886" transform="translate(-336.08759 -77.4826)"/><path class="cls-4" d="M431.82149,110.272s-4.6047-13.1712-22.1372-12.3743c-17.5324.7969-24.1458,9.1583-38.7562,9.6896L364.326,90.1935a.7747.7747,0,0,1,.94909-1.0323c3.9056,1.2967,12.5902-2.0189,20.43691-5.3488,11.94739-5.0701,22.59519-8.2508,34.72309-5.0324,9.6623,2.5642,18.3835,13.4484,13.4617,22.1455Z" transform="translate(-336.08759 -77.4826)"/><path class="cls-4" d="M376.57219,103.4869s.2756,9.5406-.6661,30.6289l-6.4225-9.2888Z" transform="translate(-336.08759 -77.4826)"/><path class="cls-4" d="M431.58949,103.4869s-.2757,9.5406.6661,30.6289l6.4225-9.2888Z" transform="translate(-336.08759 -77.4826)"/></svg>