<svg id="OBJECTS" xmlns="http://www.w3.org/2000/svg" xmlns:xlink="http://www.w3.org/1999/xlink" viewBox="0 0 135.64231 150.2495"><defs><style>.cls-1,.cls-12{fill:#fff;}.cls-2{fill:#543bda;}.cls-3{fill:#e18c72;}.cls-4{fill:#130017;}.cls-5{fill:#1e0b07;}.cls-11,.cls-6,.cls-7,.cls-9{fill:none;}.cls-6,.cls-9{stroke:#130017;stroke-linecap:round;stroke-linejoin:round;}.cls-6{stroke-width:1.00681px;}.cls-7{stroke:#d3725c;stroke-width:0.75px;}.cls-11,.cls-7{stroke-miterlimit:10;}.cls-8{clip-path:url(#clip-path);}.cls-9{stroke-width:0.79729px;}.cls-10{clip-path:url(#clip-path-2);}.cls-11{stroke:#fff;stroke-width:0.81918px;}.cls-12{opacity:0.13;}</style><clipPath id="clip-path" transform="translate(-182.36269 -80.2787)"><path class="cls-1" d="M243.12739,134.5063s-.994-4.3531-7.33639-4.3463c-6.87281.0073-8.417,4.8822-8.417,4.8822s2.25039,4.8224,8.78759,4.0723C242.69869,138.3643,243.12739,134.5063,243.12739,134.5063Z"/></clipPath><clipPath id="clip-path-2" transform="translate(-182.36269 -80.2787)"><path class="cls-1" d="M255.277,134.5063s.99389-4.3531,7.33629-4.3463c6.8728.0073,8.4171,4.8822,8.4171,4.8822s-2.2505,4.8224-8.7877,4.0723C255.70559,138.3643,255.277,134.5063,255.277,134.5063Z"/></clipPath></defs><path class="cls-2" d="M302.06449,202.398l-40.9123-11.5561h-22.0713L198.303,202.398s-15.94031,5.626-15.94031,28.1302H318.005C318.005,208.024,302.06449,202.398,302.06449,202.398Z" transform="translate(-182.36269 -80.2787)"/><polygon class="cls-3" points="42.048 114.721 56.718 110.563 78.789 110.563 93.508 114.721 67.843 130.406 42.048 114.721"/><path class="cls-4" d="M279.83309,133.16h-59.3586l-.58449-.9919c-13.64851-17.7112-4.44061-40.4197,14.13119-48.6701a42.35846,42.35846,0,0,1,16.2535-3.2193h.0001A42.92509,42.92509,0,0,1,265.215,82.9434c19.79319,7.9017,30.10709,32.225,14.61809,50.2166Z" transform="translate(-182.36269 -80.2787)"/><path class="cls-4" d="M229.788,100.3464s-11.85691-1.8709-14.03161,9.7928c-2.1746,11.6638,6.9433,29.1575,6.9433,29.1575l.42331-26.2692Z" transform="translate(-182.36269 -80.2787)"/><path class="cls-4" d="M270.28609,97.9253s12.6431-4.3759,14.4156,12.2139c1.2588,11.7824-4.9432,29.1575-4.9432,29.1575l-.4233-26.2692Z" transform="translate(-182.36269 -80.2787)"/><polygon class="cls-3" points="58.571 87.333 56.198 117.079 79.489 117.185 76.313 87.103 58.571 87.333"/><polygon class="cls-5" points="58.297 90.778 78.025 103.821 76.413 86.669 59.898 86.669 58.297 90.778"/><path class="cls-3" d="M220.63219,129.1133a7.13354,7.13354,0,0,0-7.3744-4.2236c-9.1759,1.1436-7.7291,25.957,4.22,24.8397C230.95519,148.4692,220.63219,129.1133,220.63219,129.1133Z" transform="translate(-182.36269 -80.2787)"/><path class="cls-6" d="M211.66879,134.1456s5.5434-.911,8.1799,7.3414" transform="translate(-182.36269 -80.2787)"/><path class="cls-3" d="M279.38839,129.1133a7.13355,7.13355,0,0,1,7.3744-4.2236c9.1759,1.1436,7.7291,25.957-4.22,24.8397C269.06539,148.4692,279.38839,129.1133,279.38839,129.1133Z" transform="translate(-182.36269 -80.2787)"/><path class="cls-6" d="M288.35179,134.1456s-5.5434-.911-8.1799,7.3414" transform="translate(-182.36269 -80.2787)"/><path class="cls-3" d="M219.93209,127.1139s-3.1602,44.1498,28.5577,45.2826c32.6364,1.1656,32.0206-44.9919,32.0206-44.9919s4.73061-32.7171-31.2973-32.7171C215.75869,94.6875,219.93209,127.1139,219.93209,127.1139Z" transform="translate(-182.36269 -80.2787)"/><path class="cls-4" d="M244.39629,121.3292a73.30033,73.30033,0,0,0-17.8517,4.2953,1.03363,1.03363,0,0,1-1.4234-1.1053,6.06041,6.06041,0,0,1,3.7167-4.7775c2.4327-1.115,8.0476-3.1763,12.3859-2.3622a4.591,4.591,0,0,1,3.5087,3.455h0A.39444.39444,0,0,1,244.39629,121.3292Z" transform="translate(-182.36269 -80.2787)"/><path class="cls-4" d="M253.74449,121.3292a73.29989,73.29989,0,0,1,17.8516,4.2953,1.03359,1.03359,0,0,0,1.4234-1.1053,6.0602,6.0602,0,0,0-3.7167-4.7775c-2.4327-1.115-8.0476-3.1763-12.3859-2.3622a4.59116,4.59116,0,0,0-3.5087,3.455h0A.3945.3945,0,0,0,253.74449,121.3292Z" transform="translate(-182.36269 -80.2787)"/><polyline class="cls-6" points="65.442 63.869 65.442 68.188 69.08 68.188"/><path class="cls-6" d="M239.47309,153.1059a27.8091,27.8091,0,0,0,20.0602-.427" transform="translate(-182.36269 -80.2787)"/><line class="cls-7" x1="74.6132" y1="58.915" x2="78.2028" y2="61.4694"/><line class="cls-7" x1="59.4781" y1="58.915" x2="55.0786" y2="61.4694"/><line class="cls-7" x1="64.0201" y1="78.3326" x2="70.4147" y2="78.3326"/><path class="cls-1" d="M243.12739,134.5063s-.994-4.3531-7.33639-4.3463c-6.87281.0073-8.417,4.8822-8.417,4.8822s2.25039,4.8224,8.78759,4.0723C242.69869,138.3643,243.12739,134.5063,243.12739,134.5063Z" transform="translate(-182.36269 -80.2787)"/><g class="cls-8"><path class="cls-4" d="M239.78019,134.0255a4.1006,4.1006,0,1,1-4.1006-4.1007A4.1006,4.1006,0,0,1,239.78019,134.0255Z" transform="translate(-182.36269 -80.2787)"/></g><path class="cls-9" d="M243.12739,134.5063s-1.4416-5.0041-7.761-4.5527c-6.566.4691-7.99239,5.0886-7.99239,5.0886" transform="translate(-182.36269 -80.2787)"/><path class="cls-1" d="M255.277,134.5063s.99389-4.3531,7.33629-4.3463c6.8728.0073,8.4171,4.8822,8.4171,4.8822s-2.2505,4.8224-8.7877,4.0723C255.70559,138.3643,255.277,134.5063,255.277,134.5063Z" transform="translate(-182.36269 -80.2787)"/><g class="cls-10"><path class="cls-4" d="M258.86789,133.7956a4.10065,4.10065,0,1,0,4.1006-4.1006A4.10068,4.10068,0,0,0,258.86789,133.7956Z" transform="translate(-182.36269 -80.2787)"/></g><path class="cls-9" d="M255.277,134.5063s1.44159-5.0041,7.76089-4.5527c6.56611.4691,7.9925,5.0886,7.9925,5.0886" transform="translate(-182.36269 -80.2787)"/><path class="cls-11" d="M247.18819,135.429a13.71125,13.71125,0,1,1-13.7114-13.711A13.7112,13.7112,0,0,1,247.18819,135.429Z" transform="translate(-182.36269 -80.2787)"/><path class="cls-11" d="M279.48179,135.429a13.71125,13.71125,0,1,1-13.7113-13.711A13.71118,13.71118,0,0,1,279.48179,135.429Z" transform="translate(-182.36269 -80.2787)"/><path class="cls-11" d="M247.18819,135.429a5.39293,5.39293,0,0,1,4.8711,0" transform="translate(-182.36269 -80.2787)"/><path class="cls-12" d="M232.05209,122.2031l14.0224,19.0373s-4.2292,8.0842-10.9659,7.1857l-14.1534-18.5721S224.78139,121.6888,232.05209,122.2031Z" transform="translate(-182.36269 -80.2787)"/><path class="cls-12" d="M264.30779,122.2031l14.0225,19.0373s-4.2292,8.0842-10.9659,7.1857l-14.1535-18.5721S257.03709,121.6888,264.30779,122.2031Z" transform="translate(-182.36269 -80.2787)"/><path class="cls-4" d="M222.73579,101.9685s2.374,7.2788-2.8486,31.018l-4.0778-7.9821Z" transform="translate(-182.36269 -80.2787)"/><path class="cls-4" d="M277.03319,101.9685s-6.0028,6.3604,2.8487,31.018l5.13311-8.2819Z" transform="translate(-182.36269 -80.2787)"/><path class="cls-4" d="M274.01959,93.3454l-15.2788-2.4214-1.3453-2.7694-8.06449,1.278-8.06461-1.278-1.3453,2.7694-15.2788,2.4214-2.0377,8.5648.5029,9.8739s2.4183-11.1996,10.8373-8.9688c1.9853.5261,4.3623,1.3966,7.1407,1.9849a36.06536,36.06536,0,0,0,7.4033.9033c.2761.0076.5618.0004.84221.0018.28039-.0014.566.0058.84219-.0018a36.06526,36.06526,0,0,0,7.4032-.9033,53.7578,53.7578,0,0,0,7.1407-1.9849c7.805-2.846,10.6794,8.4591,10.6794,8.4591l.6608-9.3642Z" transform="translate(-182.36269 -80.2787)"/></svg>