<svg id="OBJECTS" xmlns="http://www.w3.org/2000/svg" xmlns:xlink="http://www.w3.org/1999/xlink" viewBox="0 0 135.6422 151.29414"><defs><style>.cls-1{fill:#fff;}.cls-2{fill:#e17235;}.cls-3{fill:#f1cebe;}.cls-4{fill:#130017;}.cls-5{fill:#1e0b07;}.cls-6,.cls-7,.cls-9{fill:none;stroke-linecap:round;stroke-linejoin:round;}.cls-6,.cls-9{stroke:#130017;}.cls-6{stroke-width:1.00681px;}.cls-7{stroke:#e9bcad;stroke-width:0.6712px;}.cls-8{clip-path:url(#clip-path);}.cls-9{stroke-width:0.79729px;}.cls-10{clip-path:url(#clip-path-2);}</style><clipPath id="clip-path" transform="translate(-29.1411 -79.23406)"><path class="cls-1" d="M89.90569,134.5063s-.994-4.3531-7.3363-4.3463c-6.8728.0073-8.4171,4.8822-8.4171,4.8822s2.2505,4.8224,8.7876,4.0723C89.47709,138.3643,89.90569,134.5063,89.90569,134.5063Z"/></clipPath><clipPath id="clip-path-2" transform="translate(-29.1411 -79.23406)"><path class="cls-1" d="M102.05529,134.5063s.994-4.3531,7.3363-4.3463c6.8729.0073,8.4171,4.8822,8.4171,4.8822s-2.2505,4.8224-8.7876,4.0723C102.484,138.3643,102.05529,134.5063,102.05529,134.5063Z"/></clipPath></defs><path class="cls-2" d="M148.84279,202.398l-40.9123-11.5561H85.85929L45.0814,202.398s-15.9403,5.626-15.9403,28.1302H164.78329C164.78329,208.024,148.84279,202.398,148.84279,202.398Z" transform="translate(-29.1411 -79.23406)"/><path class="cls-3" d="M71.1895,194.9992l14.66979-4.1573h22.0712l14.7181,4.1573s1.7711,15.6859-25.6641,15.6859S71.1895,194.9992,71.1895,194.9992Z" transform="translate(-29.1411 -79.23406)"/><path class="cls-4" d="M76.56629,100.3464S62.7095,98.4755,60.5348,110.1392c-2.1747,11.6638,8.9433,29.1575,8.9433,29.1575l.4233-26.2692Z" transform="translate(-29.1411 -79.23406)"/><path class="cls-4" d="M117.06439,97.9253s14.6432-4.3759,16.4157,12.2139c1.2588,11.7824-6.9433,29.1575-6.9433,29.1575l-.4233-26.2692Z" transform="translate(-29.1411 -79.23406)"/><polygon class="cls-3" points="58.571 88.377 56.198 118.124 79.488 118.23 76.313 88.148 58.571 88.377"/><polygon class="cls-5" points="58.297 91.822 78.025 104.866 76.413 87.714 59.898 87.714 58.297 91.822"/><path class="cls-3" d="M67.4105,129.1133a7.13349,7.13349,0,0,0-7.3743-4.2236c-9.1759,1.1436-7.7291,25.957,4.2199,24.8397C77.73359,148.4692,67.4105,129.1133,67.4105,129.1133Z" transform="translate(-29.1411 -79.23406)"/><path class="cls-6" d="M58.4472,134.1456s5.5433-.911,8.1798,7.3414" transform="translate(-29.1411 -79.23406)"/><path class="cls-3" d="M126.16679,129.1133a7.1335,7.1335,0,0,1,7.3743-4.2236c9.17591,1.1436,7.7292,25.957-4.2199,24.8397C115.84379,148.4692,126.16679,129.1133,126.16679,129.1133Z" transform="translate(-29.1411 -79.23406)"/><path class="cls-6" d="M135.13009,134.1456s-5.5433-.911-8.1798,7.3414" transform="translate(-29.1411 -79.23406)"/><path class="cls-3" d="M66.7104,127.1139s-3.1602,44.1498,28.55779,45.2826c32.6364,1.1656,32.0205-44.9919,32.0205-44.9919s4.7307-32.7171-31.2972-32.7171C62.5371,94.6875,66.7104,127.1139,66.7104,127.1139Z" transform="translate(-29.1411 -79.23406)"/><path class="cls-4" d="M91.17459,121.3292A73.29974,73.29974,0,0,0,73.323,125.6245a1.03359,1.03359,0,0,1-1.4234-1.1053,6.0602,6.0602,0,0,1,3.71669-4.7775c2.43271-1.115,8.0476-3.1763,12.3859-2.3622a4.59116,4.59116,0,0,1,3.5087,3.455h0A.39449.39449,0,0,1,91.17459,121.3292Z" transform="translate(-29.1411 -79.23406)"/><path class="cls-4" d="M100.52279,121.3292a73.30023,73.30023,0,0,1,17.8517,4.2953,1.03354,1.03354,0,0,0,1.4233-1.1053,6.06,6.06,0,0,0-3.7167-4.7775c-2.4326-1.115-8.0475-3.1763-12.3858-2.3622a4.591,4.591,0,0,0-3.5087,3.455h0A.39444.39444,0,0,0,100.52279,121.3292Z" transform="translate(-29.1411 -79.23406)"/><polyline class="cls-6" points="65.02 63.539 65.02 69.233 68.659 69.233"/><path class="cls-6" d="M86.25139,153.1059a27.8091,27.8091,0,0,0,20.0602-.427" transform="translate(-29.1411 -79.23406)"/><line class="cls-7" x1="74.6131" y1="59.95964" x2="78.2028" y2="62.51404"/><line class="cls-7" x1="59.478" y1="59.95964" x2="55.0785" y2="62.51404"/><line class="cls-7" x1="64.0201" y1="79.37724" x2="70.4146" y2="79.37724"/><path class="cls-1" d="M89.90569,134.5063s-.994-4.3531-7.3363-4.3463c-6.8728.0073-8.4171,4.8822-8.4171,4.8822s2.2505,4.8224,8.7876,4.0723C89.47709,138.3643,89.90569,134.5063,89.90569,134.5063Z" transform="translate(-29.1411 -79.23406)"/><g class="cls-8"><path class="cls-4" d="M86.55859,134.0255a4.1006,4.1006,0,1,1-4.10059-4.1007A4.1006,4.1006,0,0,1,86.55859,134.0255Z" transform="translate(-29.1411 -79.23406)"/></g><path class="cls-9" d="M89.90569,134.5063s-1.4416-5.0041-7.7609-4.5527c-6.5661.4691-7.9925,5.0886-7.9925,5.0886" transform="translate(-29.1411 -79.23406)"/><path class="cls-1" d="M102.05529,134.5063s.994-4.3531,7.3363-4.3463c6.8729.0073,8.4171,4.8822,8.4171,4.8822s-2.2505,4.8224-8.7876,4.0723C102.484,138.3643,102.05529,134.5063,102.05529,134.5063Z" transform="translate(-29.1411 -79.23406)"/><g class="cls-10"><path class="cls-4" d="M105.64629,133.7956a4.1006,4.1006,0,1,0,4.1006-4.1006A4.10068,4.10068,0,0,0,105.64629,133.7956Z" transform="translate(-29.1411 -79.23406)"/></g><path class="cls-9" d="M102.05529,134.5063s1.4416-5.0041,7.761-4.5527c6.566.4691,7.9924,5.0886,7.9924,5.0886" transform="translate(-29.1411 -79.23406)"/><path class="cls-4" d="M125.41559,108.3289s-21.6614-16.059-57.07149-.2864c0,0-13.8965-20.7834,8.19439-27.2062C98.62929,74.4135,125.41559,88.0523,125.41559,108.3289Z" transform="translate(-29.1411 -79.23406)"/><path class="cls-4" d="M69.5142,101.9685s7.54769,3.295-2.8486,31.018l-4.0778-7.9821Z" transform="translate(-29.1411 -79.23406)"/><path class="cls-4" d="M123.81159,101.9685s-7.5477,3.295,2.8486,31.018l5.1331-8.2819Z" transform="translate(-29.1411 -79.23406)"/></svg>