<svg xmlns="http://www.w3.org/2000/svg" viewBox="0 0 102.895 127.61041"><defs><style>.cls-1{isolation:isolate;}.cls-2{fill:#ff8482;}.cls-3{fill:#ff5b59;}.cls-4{fill:#6f87ed;}.cls-5{fill:#420e2f;}.cls-6{fill:#7c1a59;}.cls-7,.cls-9{fill:#fdb193;}.cls-8{fill:#ff8282;opacity:0.39;}.cls-9{mix-blend-mode:multiply;opacity:0.55;}.cls-10{fill:#fdd5c5;}.cls-11{fill:#230f0b;}.cls-12{fill:#e8132c;}.cls-13{fill:#ff6a68;}.cls-14{fill:#25110d;}</style></defs><g class="cls-1"><g id="OBJECTS"><path class="cls-2" d="M408.01769,388.4432c-17.57169-7.0715-23.3575-15.8574-21.8575-28.5004h-19.3224c1.5,12.643-4.28579,21.4289-21.8574,28.5004-17.5717,7.0715-19.9289,14.7859-19.9289,14.7859h102.895S425.58929,395.5147,408.01769,388.4432Z" transform="translate(-325.05149 -275.61869)"/><path class="cls-3" d="M376.367,380.543a29.842,29.842,0,0,0,14.11809-3.5587c-3.8859-4.8235-5.113-10.3996-4.3249-17.0415h-19.3224c.7935,6.6884-.45379,12.2968-4.4046,17.1435A29.83471,29.83471,0,0,0,376.367,380.543Z" transform="translate(-325.05149 -275.61869)"/><path class="cls-4" d="M408.01769,388.4432A50.989,50.989,0,0,1,393.812,380.385l-16.19561,15.0468-18.2497-15.2069c-3.4628,3.015-8.1883,5.724-14.3863,8.2183-17.5717,7.0715-19.9289,14.7859-19.9289,14.7859h102.895S425.58929,395.5147,408.01769,388.4432Z" transform="translate(-325.05149 -275.61869)"/><path class="cls-2" d="M351.52609,336.9759c3.2387,6.1948,1.8816,13.2989-3.0316,15.8676-4.9132,2.5686-11.5214-.371-14.7599-6.5657-3.2389-6.1948-1.88159-13.2988,3.0315-15.8674C341.67929,327.8415,348.28749,330.7811,351.52609,336.9759Z" transform="translate(-325.05149 -275.61869)"/><path class="cls-3" d="M348.68419,348.8031c-.0193-.2521-.067-.4703-.0935-.7143.0367.1768.0592.3233.0725.4403a9.11632,9.11632,0,0,0-.5349-3.1024,15.02483,15.02483,0,0,0-12.3634-11.5421,32.41056,32.41056,0,0,1,9.9888,9.0461c-3.5256-1.4356-8.97469,1.6053-8.97469,1.6053,6.46509-1.7143,9.406-.295,10.756,1.3519A14.33793,14.33793,0,0,1,348.68419,348.8031Z" transform="translate(-325.05149 -275.61869)"/><path class="cls-2" d="M401.20789,336.9759c-3.2383,6.1948-1.881,13.2989,3.0319,15.8676,4.9128,2.5686,11.5213-.371,14.76-6.5657,3.2384-6.1948,1.8815-13.2988-3.0314-15.8674C411.05519,327.8415,404.44669,330.7811,401.20789,336.9759Z" transform="translate(-325.05149 -275.61869)"/><path class="cls-3" d="M404.05029,348.8031c.0192-.2521.067-.4703.0934-.7143-.0368.1768-.0596.3233-.0724.4403a9.12694,9.12694,0,0,1,.5346-3.1024,15.02565,15.02565,0,0,1,12.3638-11.5421,32.40154,32.40154,0,0,0-9.98869,9.0461c3.525-1.4356,8.97449,1.6053,8.97449,1.6053-6.465-1.7143-9.406-.295-10.7561,1.3519A14.3554,14.3554,0,0,0,404.05029,348.8031Z" transform="translate(-325.05149 -275.61869)"/><path class="cls-5" d="M414.89839,310.6864c3.9883-8.7297,8.8605-24.1528-10.8696-33.1499.1423.0739-8.437-7.1556-23.6853,5.9883-4.8612,4.2685-11.3832,6.1395-17.5611,4.0947-6.1595-2.0455-14.283-1.8087-18.834,9.3655a17.47575,17.47575,0,0,0-1.4105,8.0674c-1.4255-1.7954-3.3771-2.9688-5.2018-.1067-1.46909,2.2715-.25609,12.3266,3.3011,21.4159,0,.0002,2.076,21.8418,12.0329,25.2338l9.8047-13.436c8.1235-.1938,18.2467-.4545,26.5747-.6439l10.2746,14.0799c7.1088-2.4218,10.199-14.2444,11.386-20.8118.3868-.43.76791-.8634,1.157-1.2921,4.5865-5.0624,6.3188-12.085,3.5147-17.8853Q415.15561,311.13925,414.89839,310.6864Z" transform="translate(-325.05149 -275.61869)"/><path class="cls-6" d="M362.78239,287.6195c-6.1595-2.0455-14.283-1.8087-18.834,9.3655a20.95242,20.95242,0,0,0-1.0639,3.3936l.2542.6209S349.16009,286.9183,362.78239,287.6195Z" transform="translate(-325.05149 -275.61869)"/><path class="cls-6" d="M404.02879,277.5365c.1108.0575-5.071-4.3129-14.57279-.0385,1.86309-.0154,25.58989.2458,28.65129,23.5015C419.53759,292.9891,417.62619,283.737,404.02879,277.5365Z" transform="translate(-325.05149 -275.61869)"/><path class="cls-7" d="M367.31819,301.7367a20.75777,20.75777,0,0,0-20.7566,20.5411l-.20659,19.7891c0,18.0979,13.43689,32.769,30.012,32.769,16.57519,0,30.01209-14.6711,30.01209-32.769l-.056-20.9934c-.0285-10.6878-6.8972-25.4194-17.585-25.4194Z" transform="translate(-325.05149 -275.61869)"/><path class="cls-8" d="M378.73809,360.7652s5.3823.1667,7.3023-4.1111c0,0,1.531,3.1111-2.1356,4.9444C380.23809,363.4319,378.73809,360.7652,378.73809,360.7652Z" transform="translate(-325.05149 -275.61869)"/><path class="cls-9" d="M406.32309,321.0735c-.0285-10.6878-6.8972-25.4194-17.585-25.4194l-21.4199,6.0826a20.75777,20.75777,0,0,0-20.7566,20.5411l-.0979,9.3767,3.0149-5.1539c.0156-.0889,2.0781-8.9112,21.0903-9.1543,6.6416-.086,14.7256-2.0323,19.9776-9.6465,1.8916,5.6836,5.0498,10.792,8.81251,13.8603a14.23082,14.23082,0,0,0,6.97389,3.2054Z" transform="translate(-325.05149 -275.61869)"/><path class="cls-10" d="M376.367,370.5767a31.79457,31.79457,0,0,1-28.36141-17.7929c4.06741,12.833,15.2249,22.0521,28.36141,22.0521,13.13659,0,24.29429-9.2193,28.36149-22.0523A31.79429,31.79429,0,0,1,376.367,370.5767Z" transform="translate(-325.05149 -275.61869)"/><path class="cls-11" d="M385.50109,347.7785a8.90408,8.90408,0,0,1,.5393,3.0602,8.49585,8.49585,0,0,1-16.8479,1.7718Z" transform="translate(-325.05149 -275.61869)"/><path class="cls-12" d="M377.52839,359.567a8.29845,8.29845,0,0,1-4.0198-1.0405,8.66038,8.66038,0,0,1,8.6348-6.654,9.27674,9.27674,0,0,1,3.7115.7743A8.56738,8.56738,0,0,1,377.52839,359.567Z" transform="translate(-325.05149 -275.61869)"/><path class="cls-13" d="M380.65319,342.5558c0,2.8399-1.919,5.1421-4.2863,5.1421s-4.2862-2.3022-4.2862-5.1421c0-2.8403,1.9189-6.3922,4.2862-6.3922S380.65319,339.7155,380.65319,342.5558Z" transform="translate(-325.05149 -275.61869)"/><path class="cls-14" d="M391.81469,333.4263c0,2.3546-.79769,4.2635-1.781,4.2635-.9836,0-1.78069-1.9089-1.78069-4.2635,0-2.3548.79709-4.2635,1.78069-4.2635C391.017,329.1628,391.81469,331.0715,391.81469,333.4263Z" transform="translate(-325.05149 -275.61869)"/><path class="cls-5" d="M398.42019,328.7602c.23-.1341-9.6367-6.3688-15.7287-6.1448-.076.0998.1214-5.441,8.2028-2.5393C398.72559,323.3045,398.34989,328.8503,398.42019,328.7602Z" transform="translate(-325.05149 -275.61869)"/><ellipse class="cls-14" cx="37.6487" cy="57.80761" rx="1.7809" ry="4.2635"/><path class="cls-5" d="M353.41279,328.7602c-.23-.1341,9.6368-6.3688,15.729-6.1448.0758.0998-.1216-5.441-8.2031-2.5393C353.10739,323.3045,353.48329,328.8503,353.41279,328.7602Z" transform="translate(-325.05149 -275.61869)"/><path class="cls-13" d="M358.43169,347.9042a.78867.78867,0,0,1-.7095-1.1314l2.4872-5.1492a.78845.78845,0,1,1,1.4201.6855l-2.4868,5.1492A.7895.7895,0,0,1,358.43169,347.9042Z" transform="translate(-325.05149 -275.61869)"/><path class="cls-13" d="M353.45789,347.9042a.7886.7886,0,0,1-.7091-1.1314l2.487-5.1492a.78863.78863,0,0,1,1.4205.6855l-2.4875,5.1492A.78794.78794,0,0,1,353.45789,347.9042Z" transform="translate(-325.05149 -275.61869)"/><path class="cls-13" d="M393.82979,347.9042a.789.789,0,0,1-.711-.4459l-2.487-5.1492a.78854.78854,0,1,1,1.4203-.6855l2.4873,5.1492a.78874.78874,0,0,1-.7096,1.1314Z" transform="translate(-325.05149 -275.61869)"/><path class="cls-13" d="M398.80349,347.9042a.78871.78871,0,0,1-.7109-.4459l-2.4873-5.1492a.78858.78858,0,1,1,1.4204-.6855l2.4872,5.1492a.78867.78867,0,0,1-.7094,1.1314Z" transform="translate(-325.05149 -275.61869)"/><path class="cls-5" d="M407.664,312.5311l-14.09341-24.0863-34.0543,10.3053-18.2647,22.1343a21.21019,21.21019,0,0,1,5.2713,5.1031s1.97211-11.3592,24.0075-11.6414c14.4601-.1852,19.2539-9.2494,21.1434-16.576.401,8.5539,4.5593,17.3705,9.5811,21.4644a10.30378,10.30378,0,0,0,10.2484,2.1184Z" transform="translate(-325.05149 -275.61869)"/></g></g></svg>