<svg xmlns="http://www.w3.org/2000/svg" xmlns:xlink="http://www.w3.org/1999/xlink" viewBox="0 0 102.895 122.81794"><defs><style>.cls-1{isolation:isolate;}.cls-2{fill:#381706;}.cls-3{fill:#6a2b0c;}.cls-4{fill:#222961;}.cls-5{fill:#da9039;}.cls-6{fill:#d1f9f6;}.cls-7{fill:#fd9877;}.cls-8{fill:#fd8259;}.cls-10,.cls-11,.cls-14,.cls-9{opacity:0.45;}.cls-9{fill:url(#Degradado_sin_nombre_30);}.cls-10{fill:url(#Degradado_sin_nombre_12);}.cls-11{fill:url(#Degradado_sin_nombre_12-2);}.cls-12{fill:#fd6933;}.cls-13{fill:#ebbb81;}.cls-14{fill:url(#Degradado_sin_nombre_30-2);}.cls-15{fill:#ebc9a0;}.cls-16{fill:#381605;}.cls-17{fill:#25120b;}.cls-18{fill:#fd7949;}.cls-19{fill:#949ceb;mix-blend-mode:hue;opacity:0.77;}.cls-20{fill:#fff;opacity:0.4;}.cls-21{fill:#230f08;}</style><linearGradient id="Degradado_sin_nombre_30" x1="511.98513" y1="171.63512" x2="513.76289" y2="203.63511" gradientUnits="userSpaceOnUse"><stop offset="0" stop-color="#f00e47"/><stop offset="0.20857" stop-color="#f00e47" stop-opacity="0.79143"/><stop offset="0.3652" stop-color="#f00e47" stop-opacity="0.5024"/><stop offset="0.88548" stop-color="#f00e47" stop-opacity="0"/></linearGradient><linearGradient id="Degradado_sin_nombre_12" x1="481.99001" y1="213.61383" x2="489.01061" y2="188.73378" gradientUnits="userSpaceOnUse"><stop offset="0" stop-color="#ff9500"/><stop offset="0.20857" stop-color="#ff9500" stop-opacity="0.79143"/><stop offset="0.88548" stop-color="#ff9500" stop-opacity="0"/></linearGradient><linearGradient id="Degradado_sin_nombre_12-2" x1="541.8828" y1="210.31351" x2="535.57569" y2="183.73346" xlink:href="#Degradado_sin_nombre_12"/><linearGradient id="Degradado_sin_nombre_30-2" x1="512.39684" y1="107.49063" x2="512.69309" y2="185.71272" xlink:href="#Degradado_sin_nombre_30"/></defs><g class="cls-1"><g id="OBJECTS"><path class="cls-2" d="M564.14879,217.1985l-1.4252-9.0998a19.94014,19.94014,0,0,0-6.1674-11.5595l-5.5434-5.1221a12.64616,12.64616,0,0,1-3.7211-6.2275l-.0091-.037c-.4928-1.9951-.8858-4.1406-.1711-6.0675.8093-2.1815,2.8564-3.6218,4.24551-5.4885,2.45249-3.2954,2.71109-7.6772,2.876-11.7818a9.15158,9.15158,0,0,0-.16261-2.7212,7.83231,7.83231,0,0,0-2.1393-3.2985,27.41921,27.41921,0,0,0-3.3824-2.9334,11.58282,11.58282,0,0,0,1.2557-2.7287c8.7349-9.7468,8.3432-23.2822-.0246-38.0919-5.2041-9.2104-13.9521-10.6996-18.9592-9.1301-3.3973-7.6233-11.8775-10.1277-31.5527-7.5511,0,0-20.4353,2.6941-23.9615,23.8357-1.5673,9.3966-3.1495,21.7849,2.5283,36.1488a9.69336,9.69336,0,0,0-3.0872,2.4736,7.71071,7.71071,0,0,0-2.5348,6.9747c.4689,3.3169,2.47231,6.1763,4.2128,9.0384,1.7406,2.8621,3.3161,6.1223,2.7904,9.4306-.5665,3.5652-3.3961,6.2593-5.3877,9.27a21.72964,21.72964,0,0,0-3.4759,13.9286,2.87581,2.87581,0,0,0,.802,2.0324,3.01832,3.01832,0,0,0,1.4949.5086C494.07469,212.2006,564.14879,217.1985,564.14879,217.1985Z" transform="translate(-461.886 -94.38056)"/><path class="cls-3" d="M498.46779,100.6552c20.5529-2.5767,29.4114-.0722,32.9603,7.5511,5.2304-1.5695,14.3687-.0803,19.80491,9.1301a57.1171,57.1171,0,0,1,4.026,8.1698,51.9648,51.9648,0,0,0-5.47921-13.4651c-5.2041-9.2104-13.9521-10.6996-18.9592-9.1301-3.3973-7.6233-11.8775-10.1277-31.5527-7.5511,0,0-19.0168,2.5135-23.52289,21.6765C482.40539,102.6918,498.46779,100.6552,498.46779,100.6552Z" transform="translate(-461.886 -94.38056)"/><path class="cls-4" d="M544.85219,202.4126c-17.5717-7.0715-23.3575-15.8574-21.8575-28.5004h-19.3224c1.5,12.643-4.2858,21.4289-21.8574,28.5004-17.5717,7.0715-19.92889,14.7859-19.92889,14.7859H564.781S562.42379,209.4841,544.85219,202.4126Z" transform="translate(-461.886 -94.38056)"/><path class="cls-5" d="M513.33349,213.0768c10.2344,0,19.27351-6.0294,24.84651-13.7323-12.36431-6.5323-16.476-14.5537-15.18531-25.4323h-19.3224c1.2906,10.8786-2.8209,18.9001-15.18529,25.4323C494.06,207.0475,503.09919,213.0768,513.33349,213.0768Z" transform="translate(-461.886 -94.38056)"/><path class="cls-6" d="M513.33349,209.9121a27.34,27.34,0,0,0,22.5411-11.8581c-10.5709-6.2947-14.0868-13.9691-12.8799-24.1418h-19.3224c1.2069,10.1727-2.309,17.8471-12.8799,24.1418A27.34,27.34,0,0,0,513.33349,209.9121Z" transform="translate(-461.886 -94.38056)"/><path class="cls-7" d="M494.05769,195.9058a22.742,22.742,0,0,0,38.5516,0c-8.0297-5.8807-10.6876-12.9501-9.6146-21.9936h-19.3224C504.74519,182.9557,502.08729,190.0251,494.05769,195.9058Z" transform="translate(-461.886 -94.38056)"/><path class="cls-8" d="M522.99469,173.9122h-19.3224c.8273,6.9732-.5766,12.769-4.9379,17.7549a33.05213,33.05213,0,0,0,13.8349,3.1347,33.54816,33.54816,0,0,0,14.9259-3.6361C523.47159,186.2938,522.195,180.6518,522.99469,173.9122Z" transform="translate(-461.886 -94.38056)"/><path class="cls-9" d="M494.05769,195.9058a22.742,22.742,0,0,0,38.5516,0c-8.0297-5.8807-10.6876-12.9501-9.6146-21.9936h-19.3224C504.74519,182.9557,502.08729,190.0251,494.05769,195.9058Z" transform="translate(-461.886 -94.38056)"/><path class="cls-2" d="M500.68339,175.9129s.3352,13.3102-6.79339,20.7198c-7.12851,7.4095-14.89161,7.4849-13.01011,17.058,0,0-11.4371-4.2571,0-25.354Z" transform="translate(-461.886 -94.38056)"/><path class="cls-10" d="M500.68339,175.9129s.3352,13.3102-6.79339,20.7198c-7.12851,7.4095-14.89161,7.4849-13.01011,17.058,0,0-11.4371-4.2571,0-25.354Z" transform="translate(-461.886 -94.38056)"/><path class="cls-2" d="M524.45779,173.9304s-.3352,13.3102,6.7933,20.7198c7.1286,7.4095,14.8917,7.4849,13.0102,17.058,0,0,11.4371-4.2571,0-25.354Z" transform="translate(-461.886 -94.38056)"/><path class="cls-11" d="M524.45779,173.9304s-.3352,13.3102,6.7933,20.7198c7.1286,7.4095,14.8917,7.4849,13.0102,17.058,0,0,11.4371-4.2571,0-25.354Z" transform="translate(-461.886 -94.38056)"/><path class="cls-7" d="M487.72839,150.9453c3.2387,6.1948,1.88161,13.2989-3.0316,15.8676-4.9132,2.5686-11.5214-.371-14.7599-6.5657-3.23889-6.1948-1.8816-13.2988,3.0315-15.8674C477.88159,141.8109,484.48979,144.7505,487.72839,150.9453Z" transform="translate(-461.886 -94.38056)"/><path class="cls-12" d="M484.88649,162.7725c-.0193-.2521-.067-.4703-.09349-.7143.03669.1768.05919.3233.07249.4403a9.11632,9.11632,0,0,0-.5349-3.1024,15.02483,15.02483,0,0,0-12.3634-11.5421,32.41073,32.41073,0,0,1,9.98881,9.0461c-3.52561-1.4356-8.97471,1.6053-8.97471,1.6053,6.4651-1.7143,9.406-.295,10.756,1.3519A14.33769,14.33769,0,0,1,484.88649,162.7725Z" transform="translate(-461.886 -94.38056)"/><path class="cls-7" d="M537.41019,150.9453c-3.2383,6.1948-1.881,13.2989,3.0319,15.8676,4.9128,2.5686,11.5213-.371,14.76-6.5657,3.2384-6.1948,1.8815-13.2988-3.0314-15.8674C547.25749,141.8109,540.649,144.7505,537.41019,150.9453Z" transform="translate(-461.886 -94.38056)"/><path class="cls-12" d="M540.25259,162.7725c.0192-.2521.067-.4703.09341-.7143-.03681.1768-.05961.3233-.07241.4403a9.1267,9.1267,0,0,1,.5346-3.1024A15.02565,15.02565,0,0,1,553.172,147.854a32.40166,32.40166,0,0,0-9.98871,9.0461c3.525-1.4356,8.9745,1.6053,8.9745,1.6053-6.465-1.7143-9.406-.295-10.7561,1.3519A14.3554,14.3554,0,0,0,540.25259,162.7725Z" transform="translate(-461.886 -94.38056)"/><path class="cls-13" d="M503.52049,115.7061a20.75777,20.75777,0,0,0-20.7566,20.5411l-.2066,19.7891c0,7.315.6945,14.0701,4.60871,19.523a31.01236,31.01236,0,0,0,49.78279,1.4214c4.5648-5.6789,5.6326-12.9798,5.6326-20.9444l-.056-20.9934A19.38843,19.38843,0,0,0,523.137,115.7061Z" transform="translate(-461.886 -94.38056)"/><path class="cls-14" d="M503.52049,115.7061a20.75777,20.75777,0,0,0-20.7566,20.5411l-.2066,19.7891c0,7.315.6945,14.0701,4.60871,19.523a31.01236,31.01236,0,0,0,49.78279,1.4214c4.5648-5.6789,5.6326-12.9798,5.6326-20.9444l-.056-20.9934A19.38843,19.38843,0,0,0,523.137,115.7061Z" transform="translate(-461.886 -94.38056)"/><path class="cls-15" d="M536.94879,172.9918a31.01235,31.01235,0,0,1-49.7827-1.4215c-3.563-4.9636-4.4556-11.008-4.5876-17.5697l-.0212,2.0357c0,7.315.6945,14.0701,4.6088,19.523a31.01227,31.01227,0,0,0,49.7827,1.4214c4.5648-5.6789,5.6326-12.9798,5.6326-20.9444l-.0082-3.0643C542.48979,160.5757,541.336,167.5339,536.94879,172.9918Z" transform="translate(-461.886 -94.38056)"/><path class="cls-16" d="M528.84309,132.6976c-1.3707-.0965-4.7397-.1628-6.7019-.0813a1.36756,1.36756,0,0,0-1.3074,1.3122l-.11,2.481a1.0652,1.0652,0,0,0,1.0568,1.1186c7.3247.0122,18.9128,2.6741,18.7366,2.8563C540.46459,140.5131,539.07629,133.896,528.84309,132.6976Z" transform="translate(-461.886 -94.38056)"/><path class="cls-16" d="M496.67579,132.6976c1.3707-.0965,4.7397-.1628,6.7019-.0813a1.36748,1.36748,0,0,1,1.3074,1.3122l.11,2.481a1.06511,1.06511,0,0,1-1.0567,1.1186c-7.3247.0122-18.9128,2.6741-18.7366,2.8563C485.05439,140.5131,486.44259,133.896,496.67579,132.6976Z" transform="translate(-461.886 -94.38056)"/><path class="cls-17" d="M528.017,147.3957c0,2.3546-.79771,4.2635-1.781,4.2635-.98361,0-1.78071-1.9089-1.78071-4.2635,0-2.3548.7971-4.2635,1.78071-4.2635C527.21929,143.1322,528.017,145.0409,528.017,147.3957Z" transform="translate(-461.886 -94.38056)"/><ellipse class="cls-17" cx="37.01649" cy="53.01514" rx="1.7809" ry="4.2635"/><path class="cls-12" d="M515.756,156.2071c-.1-2.7807-1.48641-6.0741-3.18681-6.0741-1.7188,0-3.1165,3.365-3.1895,6.1639-3.9625,1.1034-3.2444,4.1479-3.2444,4.1479s6.5494,3.3415,13.0989,0C519.23419,160.4448,520.15909,157.2178,515.756,156.2071Z" transform="translate(-461.886 -94.38056)"/><path class="cls-12" d="M502.98369,166.3574c1.7669.2636,3.4672.4442,5.1575.5325a30.84006,30.84006,0,0,0,4.9985-.1721c.8279-.0627,1.629-.2584,2.4492-.3862.79711-.2101,1.6155-.3797,2.4005-.665a40.85236,40.85236,0,0,0,4.7722-1.9699,12.68011,12.68011,0,0,1-4.1629,3.4067,15.45246,15.45246,0,0,1-2.5324,1.0607,17.0872,17.0872,0,0,1-2.696.5398,16.50421,16.50421,0,0,1-5.43629-.2732A13.68863,13.68863,0,0,1,502.98369,166.3574Z" transform="translate(-461.886 -94.38056)"/><path class="cls-7" d="M509.79849,169.987s8.4968,1.4523,11.7037-2.9629c0,0-.377,4.9652-4.707,5.7233A7.63124,7.63124,0,0,1,509.79849,169.987Z" transform="translate(-461.886 -94.38056)"/><path class="cls-18" d="M494.634,161.8736a.78868.78868,0,0,1-.70951-1.1314l2.4872-5.1492a.78845.78845,0,1,1,1.4201.6855l-2.48679,5.1492A.78952.78952,0,0,1,494.634,161.8736Z" transform="translate(-461.886 -94.38056)"/><path class="cls-18" d="M489.66019,161.8736a.7886.7886,0,0,1-.7091-1.1314l2.487-5.1492a.78863.78863,0,1,1,1.4205.6855l-2.4875,5.1492A.78793.78793,0,0,1,489.66019,161.8736Z" transform="translate(-461.886 -94.38056)"/><path class="cls-18" d="M530.03209,161.8736a.789.789,0,0,1-.711-.4459l-2.487-5.1492a.78854.78854,0,1,1,1.4203-.6855l2.4873,5.1492a.78874.78874,0,0,1-.7096,1.1314Z" transform="translate(-461.886 -94.38056)"/><path class="cls-18" d="M535.00579,161.8736a.7887.7887,0,0,1-.7109-.4459l-2.4873-5.1492a.78859.78859,0,1,1,1.42041-.6855l2.48719,5.1492a.78867.78867,0,0,1-.7094,1.1314Z" transform="translate(-461.886 -94.38056)"/><circle class="cls-19" cx="33.95919" cy="56.16644" r="12.1051"/><path class="cls-20" d="M507.01239,145.872l-18.5478,14.2546a12.09966,12.09966,0,0,0,18.5478-14.2546Z" transform="translate(-461.886 -94.38056)"/><path class="cls-20" d="M496.66979,138.4835l-12.2139,7.9947a12.05776,12.05776,0,0,0-.7158,4.0688,12.1944,12.1944,0,0,0,.0898,1.4167l16.8818-12.496A12.0374,12.0374,0,0,0,496.66979,138.4835Z" transform="translate(-461.886 -94.38056)"/><path class="cls-21" d="M495.84519,138.4419a12.10515,12.10515,0,1,1-12.1051,12.1051,12.10512,12.10512,0,0,1,12.1051-12.1051m0-1.0445a13.14965,13.14965,0,1,0,13.1496,13.1496,13.16453,13.16453,0,0,0-13.1496-13.1496Z" transform="translate(-461.886 -94.38056)"/><circle class="cls-19" cx="68.05876" cy="56.16644" r="12.10509"/><path class="cls-20" d="M536.74439,140.5329l-16.4809,17.2591a12.113,12.113,0,0,0,5.6629,4.1625l15.4159-15.4532A12.1279,12.1279,0,0,0,536.74439,140.5329Z" transform="translate(-461.886 -94.38056)"/><path class="cls-21" d="M529.94479,138.4419a12.10515,12.10515,0,1,1-12.1051,12.1051,12.105,12.105,0,0,1,12.1051-12.1051m0-1.0445a13.14965,13.14965,0,1,0,13.1497,13.1496,13.16445,13.16445,0,0,0-13.1497-13.1496Z" transform="translate(-461.886 -94.38056)"/><path class="cls-21" d="M508.29979,148.2668l-.8682-.9532a9.23348,9.23348,0,0,1,10.5466-.7892l-.6291,1.1251A7.91238,7.91238,0,0,0,508.29979,148.2668Z" transform="translate(-461.886 -94.38056)"/><path class="cls-21" d="M487.12139,142.1679a2.456,2.456,0,0,0-.4998-.0519h-3.2972a2.44445,2.44445,0,1,0,0,4.8889h.945A12.0863,12.0863,0,0,1,487.12139,142.1679Z" transform="translate(-461.886 -94.38056)"/><path class="cls-21" d="M539.34229,142.1679a2.45788,2.45788,0,0,1,.4999-.0519h3.2972a2.44445,2.44445,0,1,1,0,4.8889h-.9451A12.085,12.085,0,0,0,539.34229,142.1679Z" transform="translate(-461.886 -94.38056)"/></g></g></svg>