<svg id="OBJECTS" xmlns="http://www.w3.org/2000/svg" viewBox="0 0 102.895 121.33201"><defs><style>.cls-1{fill:#0ac2b2;}.cls-2{fill:#078c81;opacity:0.44;}.cls-3{fill:#b23a3a;}.cls-4{fill:#9c2222;}.cls-5{fill:#080603;}.cls-6{fill:#a82929;}.cls-7{fill:#871313;}.cls-8{fill:#c06161;}.cls-9{fill:#d97979;}.cls-10{fill:#25110d;}</style></defs><path class="cls-1" d="M680.29708,388.4432c-17.57169-7.0715-23.35749-15.8574-21.85749-28.5004h-19.3224c1.5,12.643-4.2858,21.4289-21.8574,28.5004-17.5717,7.0715-19.9289,14.7859-19.9289,14.7859h102.895S697.86868,395.5147,680.29708,388.4432Z" transform="translate(-597.33089 -281.89709)"/><path class="cls-2" d="M649.41459,394.1661a20.64265,20.64265,0,0,0-17.10059,9.063h34.20129A20.643,20.643,0,0,0,649.41459,394.1661Z" transform="translate(-597.33089 -281.89709)"/><path class="cls-3" d="M632.62609,379.33a22.82508,22.82508,0,0,0,33.4366,1.0295c-6.4754-5.5604-8.6018-12.167-7.623-20.4167h-19.3225C640.03629,367.6896,638.213,373.9865,632.62609,379.33Z" transform="translate(-597.33089 -281.89709)"/><path class="cls-4" d="M648.64639,378.8181a29.30212,29.30212,0,0,0,13.1587-3.1302c-3.1202-4.5213-4.084-9.6891-3.3654-15.7451h-19.3225c.7236,6.099-.2626,11.2963-3.4369,15.8402A29.29373,29.29373,0,0,0,648.64639,378.8181Z" transform="translate(-597.33089 -281.89709)"/><path class="cls-5" d="M686.28588,331.9121c.5685-8.5255,2.4046-22.3614.3583-27.3816a5.57382,5.57382,0,0,0,3.3833-3.6176,3.122,3.122,0,0,0,.072-1.6006,3.3425,3.3425,0,0,0-.6114-1.1568,6.85509,6.85509,0,0,0-2.4573-1.9794,5.57665,5.57665,0,0,0,.6219-6.4133,3.12164,3.12164,0,0,0-1.112-1.1536,3.33837,3.33837,0,0,0-1.2602-.3523,7.27662,7.27662,0,0,0-7.3374,4.4036c-.21508.5384-.4467,1.1434-.6623,1.7802a14.41627,14.41627,0,0,0-6.76778-.8175c-.24851.0133-.38751.0277-.38751.0277l-.02249.0036a10.58635,10.58635,0,0,1-4.85411-.3652l-1.1548,44.997Z" transform="translate(-597.33089 -281.89709)"/><path class="cls-6" d="M623.80549,336.9759c3.2387,6.1948,1.8816,13.2989-3.0316,15.8676-4.9132,2.5686-11.5214-.371-14.75989-6.5657-3.23891-6.1948-1.88161-13.2988,3.03149-15.8674C613.95869,327.8415,620.56689,330.7811,623.80549,336.9759Z" transform="translate(-597.33089 -281.89709)"/><path class="cls-7" d="M620.96359,348.8031c-.0193-.2521-.067-.4703-.0935-.7143.0367.1768.0592.3233.0725.4403a9.11608,9.11608,0,0,0-.5349-3.1024,15.02483,15.02483,0,0,0-12.3634-11.5421,32.41056,32.41056,0,0,1,9.9888,9.0461c-3.5256-1.4356-8.9747,1.6053-8.9747,1.6053,6.4651-1.7143,9.406-.295,10.756,1.3519A14.33769,14.33769,0,0,1,620.96359,348.8031Z" transform="translate(-597.33089 -281.89709)"/><path class="cls-6" d="M673.48728,336.9759c-3.23828,6.1948-1.881,13.2989,3.0319,15.8676,4.91282,2.5686,11.5213-.371,14.76-6.5657,3.2384-6.1948,1.8815-13.2988-3.0314-15.8674C683.33458,327.8415,676.72608,330.7811,673.48728,336.9759Z" transform="translate(-597.33089 -281.89709)"/><path class="cls-7" d="M676.32968,348.8031c.0192-.2521.067-.4703.0934-.7143-.0368.1768-.0596.3233-.0724.4403a9.1267,9.1267,0,0,1,.5346-3.1024,15.02565,15.02565,0,0,1,12.3638-11.5421,32.40172,32.40172,0,0,0-9.9887,9.0461c3.525-1.4356,8.9745,1.6053,8.9745,1.6053-6.465-1.7143-9.406-.295-10.7561,1.3519A14.3554,14.3554,0,0,0,676.32968,348.8031Z" transform="translate(-597.33089 -281.89709)"/><path class="cls-5" d="M619.14649,348.0739a55.73668,55.73668,0,0,1-4.2368-34.0745l12.0722-9.6986Z" transform="translate(-597.33089 -281.89709)"/><path class="cls-5" d="M678.33538,348.0739a55.73668,55.73668,0,0,0,4.2368-34.0745L670.5,304.3008Z" transform="translate(-597.33089 -281.89709)"/><path class="cls-8" d="M639.59759,301.7367A20.75775,20.75775,0,0,0,618.841,322.2778l-.20661,19.7891c0,18.0979,13.4369,32.769,30.012,32.769,16.5752,0,30.01209-14.6711,30.01209-32.769l-.056-20.9934a19.38841,19.38841,0,0,0-19.38839-19.3368Z" transform="translate(-597.33089 -281.89709)"/><path class="cls-3" d="M678.61058,324.1156l-.0081-3.0421a19.38836,19.38836,0,0,0-19.38839-19.3368h-19.6165A20.75775,20.75775,0,0,0,618.841,322.2778l-.01851,1.7711c9.2868-4.3864,31.5029-13.703,45.8949-10.0495C669.90539,315.3164,674.57,319.2081,678.61058,324.1156Z" transform="translate(-597.33089 -281.89709)"/><path class="cls-9" d="M648.64639,370.8348a34.08443,34.08443,0,0,1-25.2176-11.0106c5.3445,9.0297,14.6384,15.0117,25.2176,15.0117,10.5793,0,19.873-5.9819,25.21761-15.0115A34.085,34.085,0,0,1,648.64639,370.8348Z" transform="translate(-597.33089 -281.89709)"/><path class="cls-6" d="M652.93259,342.5558c0,2.8399-1.919,5.1421-4.2863,5.1421s-4.2862-2.3022-4.2862-5.1421c0-2.8403,1.91891-6.3922,4.2862-6.3922S652.93259,339.7155,652.93259,342.5558Z" transform="translate(-597.33089 -281.89709)"/><path class="cls-10" d="M664.09409,333.4263c0,2.3546-.7977,4.2635-1.781,4.2635-.9836,0-1.7807-1.9089-1.7807-4.2635,0-2.3548.7971-4.2635,1.7807-4.2635C663.29639,329.1628,664.09409,331.0715,664.09409,333.4263Z" transform="translate(-597.33089 -281.89709)"/><path class="cls-5" d="M670.69959,328.7602c.23-.1341-9.6367-6.3688-15.7287-6.1448-.076.0998.1214-5.441,8.2028-2.5393C671.005,323.3045,670.62929,328.8503,670.69959,328.7602Z" transform="translate(-597.33089 -281.89709)"/><ellipse class="cls-10" cx="37.6487" cy="51.52921" rx="1.7809" ry="4.2635"/><path class="cls-5" d="M625.69219,328.7602c-.23-.1341,9.63681-6.3688,15.729-6.1448.07581.0998-.1216-5.441-8.2031-2.5393C625.38679,323.3045,625.76269,328.8503,625.69219,328.7602Z" transform="translate(-597.33089 -281.89709)"/><path class="cls-6" d="M630.71109,347.9042a.78867.78867,0,0,1-.7095-1.1314l2.4872-5.1492a.78845.78845,0,1,1,1.4201.6855l-2.4868,5.1492A.7895.7895,0,0,1,630.71109,347.9042Z" transform="translate(-597.33089 -281.89709)"/><path class="cls-6" d="M625.73729,347.9042a.7886.7886,0,0,1-.7091-1.1314l2.487-5.1492a.78863.78863,0,1,1,1.4205.6855l-2.4875,5.1492A.78794.78794,0,0,1,625.73729,347.9042Z" transform="translate(-597.33089 -281.89709)"/><path class="cls-6" d="M666.10919,347.9042a.789.789,0,0,1-.711-.4459l-2.487-5.1492a.78854.78854,0,1,1,1.4203-.6855l2.4873,5.1492a.78874.78874,0,0,1-.7096,1.1314Z" transform="translate(-597.33089 -281.89709)"/><path class="cls-6" d="M671.08289,347.9042a.78868.78868,0,0,1-.71089-.4459l-2.48731-5.1492a.78858.78858,0,1,1,1.4204-.6855l2.48719,5.1492a.78867.78867,0,0,1-.70939,1.1314Z" transform="translate(-597.33089 -281.89709)"/><path class="cls-6" d="M645.80729,353.473a14.769,14.769,0,0,1-6.9717-1.8692,1,1,0,1,1,.93941-1.7656c5.35549,2.8496,9.04589,1.1367,9.20019,1.0625a1.00014,1.00014,0,0,1,.88481,1.7939A9.68913,9.68913,0,0,1,645.80729,353.473Z" transform="translate(-597.33089 -281.89709)"/><path class="cls-5" d="M663.54709,284.121c-11.3043-3.1822-57.2612-8.1771-60.8468,27.3697a22.60973,22.60973,0,0,1,13.2321-4.8222c-8.2203,7.1898-7.8211,18.4708-7.8881,18.4624,31.1089-21.3913,63.82679-22.2981,70.19919-7.6736C678.07368,317.7533,684.52508,289.7828,663.54709,284.121Z" transform="translate(-597.33089 -281.89709)"/></svg>