<svg xmlns="http://www.w3.org/2000/svg" xmlns:xlink="http://www.w3.org/1999/xlink" viewBox="0 0 102.895 126.07765"><defs><style>.cls-1{isolation:isolate;}.cls-2{fill:#29080f;}.cls-3{fill:#8641ba;}.cls-4{fill:#bf5e2a;}.cls-5{fill:#ab4f1d;}.cls-15,.cls-6,.cls-9{opacity:0.45;}.cls-6{fill:url(#Degradado_sin_nombre_5);}.cls-7{fill:#b03d02;}.cls-10,.cls-8{fill:#e2773f;}.cls-9{fill:url(#Degradado_sin_nombre_30);}.cls-10{mix-blend-mode:multiply;opacity:0.31;}.cls-11{fill:#e28e56;}.cls-12{fill:#1f110b;}.cls-13{fill:#a33902;}.cls-14{fill:#b302c7;}.cls-15{fill:url(#Degradado_sin_nombre_5-2);}</style><linearGradient id="Degradado_sin_nombre_5" x1="685.7137" y1="219.65414" x2="674.75072" y2="182.32072" gradientUnits="userSpaceOnUse"><stop offset="0" stop-color="#fff200"/><stop offset="0.20857" stop-color="#fff200" stop-opacity="0.79143"/><stop offset="0.88548" stop-color="#fff200" stop-opacity="0"/></linearGradient><linearGradient id="Degradado_sin_nombre_30" x1="650.00583" y1="117.81147" x2="648.52438" y2="150.70039" gradientUnits="userSpaceOnUse"><stop offset="0" stop-color="#f00e47"/><stop offset="0.20857" stop-color="#f00e47" stop-opacity="0.79143"/><stop offset="0.3652" stop-color="#f00e47" stop-opacity="0.5024"/><stop offset="0.88548" stop-color="#f00e47" stop-opacity="0"/></linearGradient><linearGradient id="Degradado_sin_nombre_5-2" x1="609.89106" y1="225.5108" x2="620.26145" y2="184.32557" xlink:href="#Degradado_sin_nombre_5"/></defs><g class="cls-1"><g id="OBJECTS"><path class="cls-2" d="M689.55928,112.3314c-4.7312-4.4009-11.2638-5.4562-17.90928-5.5533-.041-.3835-20.05011-34.2726-60.91551-1.136-6.5181,5.2853-10.07049,9.6181-11.808,13.1755l-.0052.0009a13.14119,13.14119,0,0,0,1.952,15.1078,15.80872,15.80872,0,0,1,3.5132,6.5256,17.4354,17.4354,0,0,1-.5639,7.8652,20.03607,20.03607,0,0,0-3.54459,5.541c-.053.0559-.09561.111-.14971.167l.0681.0231a31.47619,31.47619,0,0,0-2.3766,15.7167,34.76527,34.76527,0,0,0,5.7295,15.9181c3.5648,5.4629,10.9814,15.8194,4.4629,26.0435l70.61419-.0183s13.2574-10.0554,15.5192-35.795a106.61061,106.61061,0,0,0-2.4367-31.809c.4488-.8396.8477-1.7138,1.2233-2.6012C697.14768,131.5435,696.68668,118.9612,689.55928,112.3314Z" transform="translate(-597.33089 -91.12085)"/><path class="cls-3" d="M680.29708,202.4126c-17.57169-7.0715-23.35749-15.8574-21.85749-28.5004h-19.3224c1.5,12.643-4.2858,21.4289-21.8574,28.5004-17.5717,7.0715-19.9289,14.7859-19.9289,14.7859h102.895S697.86868,209.4841,680.29708,202.4126Z" transform="translate(-597.33089 -91.12085)"/><path class="cls-4" d="M631.57569,194.2566a21.84693,21.84693,0,0,0,34.4054,0c-6.4102-5.5455-8.516-12.1303-7.5415-20.3444h-19.3224C640.09169,182.1263,637.98589,188.7111,631.57569,194.2566Z" transform="translate(-597.33089 -91.12085)"/><path class="cls-5" d="M648.61429,194.8018c4.9141,0,9.5676-2.0716,13.72771-4.4081-3.54351-4.6946-4.66021-10.0937-3.90241-16.4815h-19.3224c.7634,6.4351-.3754,11.8669-3.9817,16.5857C639.62279,192.8378,645.371,194.8018,648.61429,194.8018Z" transform="translate(-597.33089 -91.12085)"/><path class="cls-2" d="M690.894,179.9414c-.04542.0869-.08612.1773-.132.2639-1.09272,2.0612-2.54332,4.6906-3.84422,7.7073a13.0227,13.0227,0,0,0,1.7735,13.2551,22.4727,22.4727,0,0,0,2.91972,2.8181,25.189,25.189,0,0,1-6.80292,4.1289,18.93251,18.93251,0,0,1-6.08308,1.2878,9.2309,9.2309,0,0,1-5.98262-1.9648,38.2657,38.2657,0,0,1-13.75829-21.616l12.0452-5.8803Z" transform="translate(-597.33089 -91.12085)"/><path class="cls-6" d="M690.894,179.9414c-.04542.0869-.08612.1773-.132.2639-1.09272,2.0612-2.54332,4.6906-3.84422,7.7073a13.0227,13.0227,0,0,0,1.7735,13.2551,22.4727,22.4727,0,0,0,2.91972,2.8181,25.189,25.189,0,0,1-6.80292,4.1289,18.93251,18.93251,0,0,1-6.08308,1.2878,9.2309,9.2309,0,0,1-5.98262-1.9648,38.2657,38.2657,0,0,1-13.75829-21.616l12.0452-5.8803Z" transform="translate(-597.33089 -91.12085)"/><path class="cls-4" d="M623.77339,150.9453c3.2387,6.1948,1.88161,13.2989-3.0316,15.8676-4.9132,2.5686-11.5214-.371-14.7599-6.5657-3.23889-6.1948-1.8816-13.2988,3.0315-15.8674C613.92659,141.8109,620.53479,144.7505,623.77339,150.9453Z" transform="translate(-597.33089 -91.12085)"/><path class="cls-7" d="M620.93149,162.7725c-.0193-.2521-.067-.4703-.09349-.7143.03669.1768.05919.3233.07249.4403a9.11632,9.11632,0,0,0-.5349-3.1024,15.02483,15.02483,0,0,0-12.3634-11.5421,32.41073,32.41073,0,0,1,9.98881,9.0461c-3.52561-1.4356-8.97471,1.6053-8.97471,1.6053,6.4651-1.7143,9.406-.295,10.756,1.3519A14.33769,14.33769,0,0,1,620.93149,162.7725Z" transform="translate(-597.33089 -91.12085)"/><path class="cls-4" d="M673.45518,150.9453c-3.23829,6.1948-1.881,13.2989,3.0319,15.8676,4.9128,2.5686,11.5213-.371,14.76-6.5657,3.2384-6.1948,1.8815-13.2988-3.0314-15.8674C683.30248,141.8109,676.694,144.7505,673.45518,150.9453Z" transform="translate(-597.33089 -91.12085)"/><path class="cls-7" d="M676.29758,162.7725c.0192-.2521.067-.4703.09342-.7143-.03682.1768-.05962.3233-.07242.4403a9.1267,9.1267,0,0,1,.5346-3.1024A15.02566,15.02566,0,0,1,689.217,147.854a32.40159,32.40159,0,0,0-9.98872,9.0461c3.525-1.4356,8.9745,1.6053,8.9745,1.6053-6.465-1.7143-9.406-.295-10.7561,1.3519A14.3554,14.3554,0,0,0,676.29758,162.7725Z" transform="translate(-597.33089 -91.12085)"/><path class="cls-8" d="M639.56549,113.7061c-11.3797,0-20.6378,11.1621-20.7566,22.5411l-.2066,19.7891c0,12.2841,6.1905,22.9895,15.3512,28.5998,4.3354,2.6552,11.1051,5.1692,14.6608,5.1692,5.13171,0,9.9625-2.4063,14.187-4.8851,9.42029-5.5277,15.82509-16.3891,15.82509-28.8839l-.056-20.9934c-.0285-10.6878-8.70059-21.3368-19.38838-21.3368Z" transform="translate(-597.33089 -91.12085)"/><path class="cls-9" d="M639.56549,113.7061c-11.3797,0-20.6378,11.1621-20.7566,22.5411l-.2066,19.7891c0,12.2841,6.1905,22.9895,15.3512,28.5998,4.3354,2.6552,11.1051,5.1692,14.6608,5.1692,5.13171,0,9.9625-2.4063,14.187-4.8851,9.42029-5.5277,15.82509-16.3891,15.82509-28.8839l-.056-20.9934c-.0285-10.6878-8.70059-21.3368-19.38838-21.3368Z" transform="translate(-597.33089 -91.12085)"/><path class="cls-10" d="M635.32719,139.4685c11.7313-1.5555,26.012-.6667,31.5383-15.1111,0,0,7.53669,4.7872,11.72259,17.3099l-.0177-6.6244c-.0285-10.6878-8.70059-21.3368-19.38838-21.3368H639.56549c-11.3797,0-20.6378,11.1621-20.7566,22.5411l-.133,12.7371C621.73929,145.6255,627.57109,140.4969,635.32719,139.4685Z" transform="translate(-597.33089 -91.12085)"/><path class="cls-11" d="M663.53079,180.4589c-4.4417,2.4787-9.5209,4.885-14.9165,4.885-3.7386,0-10.8564-2.5139-15.4147-5.1692a32.495,32.495,0,0,1-13.5595-15.6013,32.55242,32.55242,0,0,0,14.3134,20.0627c4.3354,2.6552,11.1051,5.1692,14.6608,5.1692,5.13171,0,9.9625-2.4063,14.187-4.8851a32.48233,32.48233,0,0,0,14.78659-20.3581A32.46058,32.46058,0,0,1,663.53079,180.4589Z" transform="translate(-597.33089 -91.12085)"/><path class="cls-12" d="M664.062,147.3957c0,2.3546-.79771,4.2635-1.781,4.2635-.98361,0-1.78071-1.9089-1.78071-4.2635,0-2.3548.7971-4.2635,1.78071-4.2635C663.26429,143.1322,664.062,145.0409,664.062,147.3957Z" transform="translate(-597.33089 -91.12085)"/><path d="M672.7,145.2043c.23-.1341-9.63671-6.3688-15.72871-6.1448-.076.0998.1214-5.441,8.2028-2.5393C673.00538,139.7486,672.62968,145.2944,672.7,145.2043Z" transform="translate(-597.33089 -91.12085)"/><ellipse class="cls-12" cx="37.6166" cy="56.27485" rx="1.7809" ry="4.2635"/><path d="M625.66009,142.7296c-.23-.1341,9.6368-6.3688,15.729-6.1448.0758.0998-.1216-5.441-8.20309-2.5393C625.35469,137.2739,625.73059,142.8197,625.66009,142.7296Z" transform="translate(-597.33089 -91.12085)"/><path class="cls-13" d="M630.679,161.8736a.78868.78868,0,0,1-.70951-1.1314l2.4872-5.1492a.78845.78845,0,1,1,1.4201.6855L631.39,161.4277A.78952.78952,0,0,1,630.679,161.8736Z" transform="translate(-597.33089 -91.12085)"/><path class="cls-13" d="M625.70519,161.8736a.7886.7886,0,0,1-.7091-1.1314l2.487-5.1492a.78863.78863,0,1,1,1.4205.6855l-2.4875,5.1492A.78793.78793,0,0,1,625.70519,161.8736Z" transform="translate(-597.33089 -91.12085)"/><path class="cls-13" d="M666.07709,161.8736a.789.789,0,0,1-.711-.4459l-2.487-5.1492a.78854.78854,0,1,1,1.4203-.6855l2.4873,5.1492a.78874.78874,0,0,1-.7096,1.1314Z" transform="translate(-597.33089 -91.12085)"/><path class="cls-13" d="M671.05079,161.8736a.7887.7887,0,0,1-.7109-.4459l-2.4873-5.1492a.78859.78859,0,1,1,1.42041-.6855l2.48718,5.1492a.78867.78867,0,0,1-.70939,1.1314Z" transform="translate(-597.33089 -91.12085)"/><path class="cls-13" d="M642.18019,160.4448s6.5495,3.3416,13.099,0c0,0,1.3366-4.5677-6.5495-4.5446C641.10039,155.9226,642.18019,160.4448,642.18019,160.4448Z" transform="translate(-597.33089 -91.12085)"/><path class="cls-14" d="M638.83629,167.7421c3.5879-.0961,7.0265-.0129,10.3902-.3849a22.45488,22.45488,0,0,0,4.8783-1.0117,11.02736,11.02736,0,0,0,4.2871-2.6488,7.44307,7.44307,0,0,1-3.6418,4.0698,14.155,14.155,0,0,1-5.3074,1.5784,21.60331,21.60331,0,0,1-5.4281-.1376A18.84675,18.84675,0,0,1,638.83629,167.7421Z" transform="translate(-597.33089 -91.12085)"/><path class="cls-4" d="M646.49369,172.8544s9.00931,1.1111,11.8982-2.9152C658.39189,169.9392,656.15109,178.0182,646.49369,172.8544Z" transform="translate(-597.33089 -91.12085)"/><path class="cls-2" d="M684.56558,131.2914l-5.9392-20.0681-62.38269-1.2799-3.581,29.7013a50.41078,50.41078,0,0,0,6.1817,3.8058s1.66061-10.0619,25.5177-10.3441c15.6555-.1852,20.8456-9.2494,22.8913-16.576.4342,8.5539,11.373,10.6418,11.373,23.8558,0,5.0466,2.7642.8783,5.9392-.09Z" transform="translate(-597.33089 -91.12085)"/><path class="cls-2" d="M603.41719,185.4685c.0455.0706.0862.1441.1321.2145,1.09271,1.6745,2.5433,3.8108,3.8442,6.2617A9.01692,9.01692,0,0,1,605.62,202.7136a21.13428,21.13428,0,0,1-2.91971,2.2896,26.52352,26.52352,0,0,0,6.8028,3.3545,22.733,22.733,0,0,0,6.0832,1.0462,10.71032,10.71032,0,0,0,5.9826-1.5962,31.60826,31.60826,0,0,0,13.7583-17.5618l-12.0453-4.7774Z" transform="translate(-597.33089 -91.12085)"/><path class="cls-15" d="M603.41719,185.4685c.0455.0706.0862.1441.1321.2145,1.09271,1.6745,2.5433,3.8108,3.8442,6.2617A9.01692,9.01692,0,0,1,605.62,202.7136a21.13428,21.13428,0,0,1-2.91971,2.2896,26.52352,26.52352,0,0,0,6.8028,3.3545,22.733,22.733,0,0,0,6.0832,1.0462,10.71032,10.71032,0,0,0,5.9826-1.5962,31.60826,31.60826,0,0,0,13.7583-17.5618l-12.0453-4.7774Z" transform="translate(-597.33089 -91.12085)"/></g></g></svg>