<svg id="OBJECTS" xmlns="http://www.w3.org/2000/svg" xmlns:xlink="http://www.w3.org/1999/xlink" viewBox="0 0 102.895 125.3413"><defs><style>.cls-1{fill:#4a81d2;}.cls-2{fill:#6692d2;}.cls-3{fill:#e35224;}.cls-4{fill:#e33c07;}.cls-5{fill:#a61b08;}.cls-6{fill:#f08065;}.cls-7{opacity:0.45;fill:url(#Degradado_sin_nombre_30);}.cls-8{fill:#f0937c;}.cls-9{fill:#080603;}.cls-10{fill:#110918;}.cls-11{fill:#c4301b;}.cls-12{fill:#e3572a;}</style><linearGradient id="Degradado_sin_nombre_30" x1="239.84877" y1="123.02688" x2="240.9599" y2="161.91575" gradientUnits="userSpaceOnUse"><stop offset="0" stop-color="#f00e47"/><stop offset="0.20857" stop-color="#f00e47" stop-opacity="0.79143"/><stop offset="0.3652" stop-color="#f00e47" stop-opacity="0.5024"/><stop offset="0.88548" stop-color="#f00e47" stop-opacity="0"/></linearGradient></defs><path class="cls-1" d="M273.0517,202.4126c-17.5717-7.0715-23.3575-15.8574-21.8575-28.5004H231.8718c1.5,12.643-4.2858,21.4289-21.8574,28.5004-17.5717,7.0715-19.9289,14.7859-19.9289,14.7859h102.895S290.62329,209.4841,273.0517,202.4126Z" transform="translate(-190.0855 -91.8572)"/><path class="cls-2" d="M241.533,208.6969c11.2963,0,21.413-2.9732,28.2864-7.6657-15.0493-6.8322-20.029-15.2862-18.6252-27.119H231.8718c1.4038,11.8329-3.5758,20.2868-18.6251,27.1191C220.1202,205.7237,230.2367,208.6969,241.533,208.6969Z" transform="translate(-190.0855 -91.8572)"/><path class="cls-3" d="M217.5498,198.8822c5.7337,4.0699,14.3477,6.6603,23.9832,6.6603s18.2495-2.5904,23.9833-6.6603c-11.696-6.4479-15.5824-14.3472-14.3221-24.97H231.8718C233.1321,184.535,229.2457,192.4343,217.5498,198.8822Z" transform="translate(-190.0855 -91.8572)"/><path class="cls-4" d="M251.1942,173.9122H231.8718c.9231,7.7805-.9315,14.0957-6.5767,19.4539a37.135,37.135,0,0,0,8.2409,1.9783c1.2349,2.4863,4.578,4.2722,8.5198,4.2722,4.1116,0,7.5756-1.9416,8.6704-4.5962a35.46861,35.46861,0,0,0,6.8303-1.8645C252.082,187.8425,250.2831,181.5916,251.1942,173.9122Z" transform="translate(-190.0855 -91.8572)"/><path class="cls-3" d="M215.9651,151.7197c3.2212,6.161,1.8711,13.2262-3.0148,15.7806-4.8861,2.5546-11.4582-.3689-14.6791-6.5297-3.221-6.1607-1.8712-13.2257,3.0149-15.7805C206.1723,142.6356,212.7444,145.559,215.9651,151.7197Z" transform="translate(-190.0855 -91.8572)"/><path class="cls-5" d="M213.1388,163.4821c-.0192-.2505-.0666-.4676-.093-.7101.0366.1755.0591.3213.0722.4376a9.07787,9.07787,0,0,0-.5318-3.0854,14.94389,14.94389,0,0,0-12.2959-11.4788,32.22953,32.22953,0,0,1,9.9338,8.9967c-3.5059-1.4279-8.9253,1.5962-8.9253,1.5962,6.4298-1.7045,9.3545-.2932,10.6973,1.3445A14.26805,14.26805,0,0,1,213.1388,163.4821Z" transform="translate(-190.0855 -91.8572)"/><path class="cls-3" d="M265.3747,151.7197c-3.2209,6.161-1.8713,13.2262,3.015,15.7806,4.886,2.5546,11.458-.3689,14.679-6.5297,3.221-6.1607,1.8714-13.2257-3.015-15.7805C275.1676,142.6356,268.5956,145.559,265.3747,151.7197Z" transform="translate(-190.0855 -91.8572)"/><path class="cls-5" d="M268.2013,163.4821c.0192-.2505.0666-.4676.0929-.7101-.0365.1755-.0593.3213-.0721.4376a9.07542,9.07542,0,0,1,.5318-3.0854,14.94374,14.94374,0,0,1,12.29569-11.4788,32.226,32.226,0,0,0-9.93359,8.9967c3.5056-1.4279,8.92519,1.5962,8.92519,1.5962-6.42969-1.7045-9.35449-.2932-10.697,1.3445A14.26307,14.26307,0,0,0,268.2013,163.4821Z" transform="translate(-190.0855 -91.8572)"/><path class="cls-6" d="M271.2028,161.4014l-1.1034-4.3274-2.1907-25.1647c-.3651,4.7609-3.6512,5.0039-3.6512,5.0039,1.0953-2.4774-1.4605-9.7648-1.4605-9.7648-1.0954,4.4209-7.6677,4.0808-7.6677,4.0808,5.4769-7.8216,0-19.3836,0-19.3836-.7302,13.2624-10.9536,18.3634-28.4796,25.0676-13.0855,5.0057-15.5856,16.9658-16.013,22.7064.4251,14.2578,4.3006,27.4901,23.4073,29.9801,1.1499,2.3153,4.2631,3.9783,7.9336,3.9783,3.8287,0,7.0545-1.808,8.0739-4.28C267.2688,186.3011,270.7325,174.3544,271.2028,161.4014Z" transform="translate(-190.0855 -91.8572)"/><path class="cls-7" d="M271.2028,161.4014l-1.1034-4.3274-2.1907-25.1647c-.3651,4.7609-3.6512,5.0039-3.6512,5.0039,1.0953-2.4774-1.4605-9.7648-1.4605-9.7648-1.0954,4.4209-7.6677,4.0808-7.6677,4.0808,5.4769-7.8216,0-19.3836,0-19.3836-.7302,13.2624-10.9536,18.3634-28.4796,25.0676-13.0855,5.0057-15.5856,16.9658-16.013,22.7064.4251,14.2578,4.3006,27.4901,23.4073,29.9801,1.1499,2.3153,4.2631,3.9783,7.9336,3.9783,3.8287,0,7.0545-1.808,8.0739-4.28C267.2688,186.3011,270.7325,174.3544,271.2028,161.4014Z" transform="translate(-190.0855 -91.8572)"/><path class="cls-8" d="M250.4995,184.2315c-1.0695,2.472-4.4535,4.28-8.47,4.28-3.8506,0-7.1165-1.663-8.3228-3.9782-12.8698-1.5989-19.1464-7.6296-22.1131-15.5137,2.0027,10.2907,7.6639,18.6531,22.4504,20.5801,1.1499,2.3153,4.2631,3.9783,7.9336,3.9783,3.8287,0,7.0545-1.808,8.0739-4.28,13.4295-2.3376,18.4906-10.1205,20.291-19.5786C267.6198,176.81,261.9731,182.3278,250.4995,184.2315Z" transform="translate(-190.0855 -91.8572)"/><path class="cls-9" d="M261.3128,103.1797c-.1163-6.6591-6.3465-11.3225-6.3465-11.3225l2.2534,8.4549c-8.0977-4.9068-27.0854-12.6787-46.6652,6.0925,0,0-20.897,16.6794-6.9076,42.848l6.9374,13.5495a34.30816,34.30816,0,0,1,3.402-14.9673,23.495,23.495,0,0,1,12.6634-10.9215c7.579-2.8993,13.7852-5.5008,18.4558-8.59a35.04712,35.04712,0,0,1-5.5811,6.62c16.6149-8.7872,15.6049-23.0977,15.6049-23.0977s5.477,11.5621,0,19.3836c0,0,6.5723.3401,7.6676-4.0808,0,0,2.5559,7.2874,1.4606,9.7649,0,0,3.2861-.2431,3.6512-5.0039l.7851,9.0183.0001.0003,1.4055,16.146.1751.6869.6922,7.3707s.2449-.899.5681-2.4282l.0251.0987,5.35389-17.8114S290.92039,111.8456,261.3128,103.1797Z" transform="translate(-190.0855 -91.8572)"/><path class="cls-10" d="M255.9645,149.2408c0,2.3473-.8314,4.2501-1.8564,4.2502-1.0253,0-1.8565-1.9032-1.8567-4.2504.0002-2.3467.8315-4.2499,1.8571-4.2499C255.1336,144.9909,255.9646,146.8936,255.9645,149.2408Z" transform="translate(-190.0855 -91.8572)"/><path class="cls-10" d="M226.1104,149.2405c-.0004,2.3472.8313,4.25,1.8562,4.2499,1.0255.0004,1.8565-1.9027,1.8566-4.25-.0002-2.347-.831-4.25-1.8566-4.2499C226.9416,144.9905,226.1102,146.8932,226.1104,149.2405Z" transform="translate(-190.0855 -91.8572)"/><path class="cls-9" d="M219.6844,144.6882s10.2964-3.3434,15.4436-3.0457a5.73476,5.73476,0,0,0-7.016-4.7258A10.07394,10.07394,0,0,0,219.6844,144.6882Z" transform="translate(-190.0855 -91.8572)"/><path class="cls-9" d="M263.0457,142.1142c.4167-.5001-10.7393-4.5564-16.0319-1.2806.0198.2243-1.718-5.9347,6.3903-6.6331C263.1932,134.3733,263.1359,142.437,263.0457,142.1142Z" transform="translate(-190.0855 -91.8572)"/><path class="cls-11" d="M226.1091,163.673a.8525.8525,0,0,1-.3567-.0782.77077.77077,0,0,1-.3828-1.0498l2.5929-5.1331a.84132.84132,0,0,1,1.0974-.3663.77053.77053,0,0,1,.3828,1.0494l-2.5924,5.1334A.82641.82641,0,0,1,226.1091,163.673Z" transform="translate(-190.0855 -91.8572)"/><path class="cls-11" d="M220.9245,163.6728a.85633.85633,0,0,1-.3566-.0779.77143.77143,0,0,1-.3833-1.0501l2.5931-5.133a.8418.8418,0,0,1,1.0974-.3663.77042.77042,0,0,1,.3832,1.0496l-2.5927,5.1333A.82618.82618,0,0,1,220.9245,163.6728Z" transform="translate(-190.0855 -91.8572)"/><path class="cls-11" d="M257.5238,163.6734a.82648.82648,0,0,1-.7413-.4448l-2.5927-5.1329a.77133.77133,0,0,1,.3832-1.0497.84134.84134,0,0,1,1.0978.3662l2.5921,5.1333a.76975.76975,0,0,1-.383,1.0497A.84863.84863,0,0,1,257.5238,163.6734Z" transform="translate(-190.0855 -91.8572)"/><path class="cls-11" d="M261.6072,163.2164a.82617.82617,0,0,1-.7413-.4445l-2.5926-5.133a.77144.77144,0,0,1,.3832-1.0498.84172.84172,0,0,1,1.0978.3662l2.5922,5.1332a.77.77,0,0,1-.383,1.0499A.84555.84555,0,0,1,261.6072,163.2164Z" transform="translate(-190.0855 -91.8572)"/><path class="cls-11" d="M245.9359,155.2482c-.2566-2.9801-2.2032-9.1581-4.5321-9.1466-2.3185.0115-4.1947,6.1487-4.4355,9.1468a3.9316,3.9316,0,0,0-3.0056,4.4781l.1396.8386a2.01127,2.01127,0,0,0,1.984,1.6812h10.7329a2.01137,2.01137,0,0,0,1.9841-1.6813l.1395-.8385A3.93148,3.93148,0,0,0,245.9359,155.2482Z" transform="translate(-190.0855 -91.8572)"/><path class="cls-11" d="M240.3424,170.7855a27.30191,27.30191,0,0,1-10.6416-2.1099.99991.99991,0,0,1,.8399-1.8149c.1064.0493,10.75,4.8276,21.2241-1.0118a1,1,0,0,1,.9736,1.7471A25.21142,25.21142,0,0,1,240.3424,170.7855Z" transform="translate(-190.0855 -91.8572)"/><path class="cls-12" d="M233.2809,172.5055s10.0741,2.6438,17.1852-1.1225C250.4661,171.383,242.7624,179.3204,233.2809,172.5055Z" transform="translate(-190.0855 -91.8572)"/></svg>