<svg id="OBJECTS" xmlns="http://www.w3.org/2000/svg" viewBox="0 0 106.2487 124.3889"><defs><style>.cls-1{fill:#078c81;}.cls-2{fill:#e83f53;}.cls-3{fill:#fff;}.cls-4{fill:#fd9a8b;}.cls-10,.cls-5{fill:#fd7058;}.cls-6{fill:#fd8977;}.cls-7{fill:#fd5f47;}.cls-8{fill:#1e1c36;}.cls-9{fill:#ebb084;}.cls-10{opacity:0.49;}.cls-11{fill:#ebc5a9;}.cls-12{fill:#25110d;}.cls-13{fill:#fd5f44;}.cls-14{fill:#0ac2b2;}</style></defs><path class="cls-1" d="M563.28189,333.3606s-5.1034,16.9295-31.1458,4.9669V318.3137s15.5244,8.2363,27.01891,6.1824C565.43069,323.3749,563.28189,333.3606,563.28189,333.3606Z" transform="translate(-459.06509 -278.8402)"/><path class="cls-2" d="M544.73549,387.9613c-18.14449-7.302-24.1188-16.3742-22.57-29.4293h-19.9521c1.5488,13.0551-4.4255,22.1273-22.5699,29.4293s-20.5784,15.2678-20.5784,15.2678h106.2487S562.87979,395.2633,544.73549,387.9613Z" transform="translate(-459.06509 -278.8402)"/><path class="cls-3" d="M489.22169,383.2741l.53831.4298a34.38722,34.38722,0,0,0,44.85889-.0002l.5382-.4297c-.6166-.3734-1.2166-.7502-1.78609-1.1332-6.28871,5.021-13.50361,7.8849-21.18151,7.8849-7.678,0-14.8929-2.8639-21.1816-7.8848l.0007-.0006C490.439,382.5236,489.83859,382.9005,489.22169,383.2741Z" transform="translate(-459.06509 -278.8402)"/><path class="cls-4" d="M491.00779,382.1409c6.2887,5.0209,13.5037,7.8848,21.1816,7.8848,7.678,0,14.8929-2.8639,21.18161-7.8849-9.28861-6.2484-12.36851-13.8057-11.20551-23.6088h-19.9521C503.37639,368.3351,500.29659,375.8925,491.00779,382.1409Z" transform="translate(-459.06509 -278.8402)"/><path class="cls-5" d="M522.16549,358.532h-19.9521c.778,6.5585-.3565,12.1077-3.9651,16.9363a28.73749,28.73749,0,0,0,27.9436.0847C522.53309,370.7048,521.38289,365.1286,522.16549,358.532Z" transform="translate(-459.06509 -278.8402)"/><path class="cls-6" d="M487.21649,336.7546c3.2387,6.1948,1.8816,13.2989-3.0316,15.8676-4.9132,2.5686-11.5214-.371-14.75989-6.5657-3.23891-6.1948-1.88161-13.2988,3.03149-15.8674C477.36969,327.6202,483.97789,330.5598,487.21649,336.7546Z" transform="translate(-459.06509 -278.8402)"/><path class="cls-7" d="M484.37459,348.5818c-.0193-.2521-.067-.4703-.0935-.7143.0367.1768.0592.3233.0725.4403a9.11608,9.11608,0,0,0-.5349-3.1024,15.02483,15.02483,0,0,0-12.3634-11.5421,32.41056,32.41056,0,0,1,9.9888,9.0461c-3.5256-1.4356-8.9747,1.6053-8.9747,1.6053,6.4651-1.7143,9.406-.295,10.756,1.3519A14.33769,14.33769,0,0,1,484.37459,348.5818Z" transform="translate(-459.06509 -278.8402)"/><path class="cls-6" d="M536.89829,336.7546c-3.23829,6.1948-1.881,13.2989,3.0319,15.8676,4.91281,2.5686,11.5213-.371,14.76-6.5657,3.2384-6.1948,1.8815-13.2988-3.0314-15.8674C546.74559,327.6202,540.13709,330.5598,536.89829,336.7546Z" transform="translate(-459.06509 -278.8402)"/><path class="cls-7" d="M539.74069,348.5818c.0192-.2521.067-.4703.0934-.7143-.0368.1768-.0596.3233-.0724.4403a9.1267,9.1267,0,0,1,.5346-3.1024,15.02565,15.02565,0,0,1,12.3638-11.5421,32.40172,32.40172,0,0,0-9.9887,9.0461c3.525-1.4356,8.9745,1.6053,8.9745,1.6053-6.465-1.7143-9.406-.295-10.7561,1.3519A14.3554,14.3554,0,0,0,539.74069,348.5818Z" transform="translate(-459.06509 -278.8402)"/><path class="cls-8" d="M546.56549,322.4334s3.0741,25.8806-9.9629,29.2178l-10.9995-16.8309,5.61391-31.7327Z" transform="translate(-459.06509 -278.8402)"/><path class="cls-8" d="M477.39959,319.908s-1.689,21.721,8.16441,28.697l6.86129-46.9482Z" transform="translate(-459.06509 -278.8402)"/><path class="cls-9" d="M503.00859,301.5154A20.75775,20.75775,0,0,0,482.252,322.0565l-.20661,19.7891c0,18.0979,13.4369,32.769,30.012,32.769,16.5752,0,30.0121-14.6711,30.0121-32.769l-.056-20.9934a19.38843,19.38843,0,0,0-19.3884-19.3368Z" transform="translate(-459.06509 -278.8402)"/><path class="cls-10" d="M542.02849,326.4834l-.015-5.6312a19.38843,19.38843,0,0,0-19.3884-19.3368h-19.6165A20.75775,20.75775,0,0,0,482.252,322.0565l-.005.485C493.88129,319.9148,514.49949,318.0261,542.02849,326.4834Z" transform="translate(-459.06509 -278.8402)"/><path class="cls-11" d="M512.05739,368.7589a33.99173,33.99173,0,0,1-27.5107-13.8131c4.6304,11.5756,15.2025,19.6688,27.5107,19.6688s22.8803-8.0932,27.5107-19.6687A33.99164,33.99164,0,0,1,512.05739,368.7589Z" transform="translate(-459.06509 -278.8402)"/><path class="cls-12" d="M527.50509,333.205c0,2.3546-.7977,4.2635-1.781,4.2635-.9836,0-1.7807-1.9089-1.7807-4.2635,0-2.3548.7971-4.2635,1.7807-4.2635C526.70739,328.9415,527.50509,330.8502,527.50509,333.205Z" transform="translate(-459.06509 -278.8402)"/><path class="cls-8" d="M534.11059,328.5389c.23-.1341-9.6367-6.3688-15.7287-6.1448-.076.0998.1214-5.441,8.2028-2.5393C534.416,323.0832,534.04029,328.629,534.11059,328.5389Z" transform="translate(-459.06509 -278.8402)"/><ellipse class="cls-12" cx="39.3255" cy="54.3648" rx="1.7809" ry="4.2635"/><path class="cls-8" d="M489.10319,328.5389c-.23-.1341,9.63681-6.3688,15.729-6.1448.07581.0998-.1216-5.441-8.2031-2.5393C488.79779,323.0832,489.17369,328.629,489.10319,328.5389Z" transform="translate(-459.06509 -278.8402)"/><path class="cls-13" d="M494.12209,347.6829a.78867.78867,0,0,1-.7095-1.1314l2.4872-5.1492a.78845.78845,0,1,1,1.4201.6855l-2.4868,5.1492A.7895.7895,0,0,1,494.12209,347.6829Z" transform="translate(-459.06509 -278.8402)"/><path class="cls-13" d="M489.14829,347.6829a.7886.7886,0,0,1-.7091-1.1314l2.487-5.1492a.78863.78863,0,1,1,1.4205.6855l-2.4875,5.1492A.78794.78794,0,0,1,489.14829,347.6829Z" transform="translate(-459.06509 -278.8402)"/><path class="cls-13" d="M529.52019,347.6829a.789.789,0,0,1-.711-.4459l-2.487-5.1492a.78854.78854,0,1,1,1.4203-.6855l2.4873,5.1492a.78874.78874,0,0,1-.7096,1.1314Z" transform="translate(-459.06509 -278.8402)"/><path class="cls-13" d="M534.49389,347.6829a.78868.78868,0,0,1-.71089-.4459l-2.48731-5.1492a.78858.78858,0,1,1,1.4204-.6855l2.4872,5.1492a.78867.78867,0,0,1-.7094,1.1314Z" transform="translate(-459.06509 -278.8402)"/><path class="cls-13" d="M505.00839,353.4148c-.3833-.2504-.7296-.5022-1.0327-.7456a.84469.84469,0,0,1,1.0557-1.3189c.2883.2285,7.055,5.5254,11.8804.707a.845.845,0,0,1,1.1943,1.1958C513.89289,357.4595,508.19269,355.4945,505.00839,353.4148Z" transform="translate(-459.06509 -278.8402)"/><path class="cls-13" d="M504.29439,345.9535s7.8751,4.0179,15.7502,0c0,0,1.6072-5.4922-7.8751-5.4644C502.996,340.516,504.29439,345.9535,504.29439,345.9535Z" transform="translate(-459.06509 -278.8402)"/><path class="cls-14" d="M546.56549,322.4334s-44.2-13.3456-69.1659-2.5254c0,0-1.3103-20.1575,4.7593-26.7924,5.85511-6.4004,18.4985-12.6368,30.9615-12.2153,15.1841.5135,30.1004,8.8195,32.1464,12.419C552.69629,306.3895,546.56549,322.4334,546.56549,322.4334Z" transform="translate(-459.06509 -278.8402)"/><path class="cls-1" d="M496.14149,312.0886v3.7798c10.5671-.6791,21.757.5593,30.9064,2.1382l.5552-4.918-16.5967-8.7878Z" transform="translate(-459.06509 -278.8402)"/><path class="cls-1" d="M508.11239,280.9337c0,1.1562,2.48961,2.0935,5.5609,2.0935,3.0711,0,5.5608-.9373,5.5608-2.0935s-2.4897-2.0935-5.5608-2.0935C510.602,278.8402,508.11239,279.7775,508.11239,280.9337Z" transform="translate(-459.06509 -278.8402)"/><path class="cls-8" d="M527.60309,313.0886s-17.1364-5.0289-31.4616-1c0,0,2.0281-14.6674,14.4458-16.458C523.00519,293.84,527.60309,313.0886,527.60309,313.0886Z" transform="translate(-459.06509 -278.8402)"/></svg>