<svg xmlns="http://www.w3.org/2000/svg" viewBox="0 0 1800 1300"><defs><style>.cls-1{isolation:isolate;}.cls-2{fill:#fff;}.cls-3{fill:#4a4447;}.cls-4{fill:#544a4a;}.cls-12,.cls-5{fill:#d9d9d9;}.cls-5,.cls-6,.cls-9{mix-blend-mode:multiply;}.cls-7{fill:#ededed;}.cls-8{fill:#544444;}.cls-11,.cls-9{fill:#ebebeb;}.cls-10{fill:#615555;opacity:0.2;}.cls-13{fill:#f2e1d1;}.cls-14{fill:#383838;}.cls-15{fill:#333;mix-blend-mode:screen;}.cls-16{opacity:0.05;}.cls-17{fill:#be8e5d;}</style></defs><g class="cls-1"><g id="Layer_1" data-name="Layer 1"><rect class="cls-2" width="1800" height="1300"/><path class="cls-3" d="M233.14009,685.0505c5.6425,31.5034,16.8844,31.5034,17.8462,42.3181.9619,10.8146,3.7831,17.3974,6.6043,22.0994s-2.8212,21.6292,0,31.9736c2.8212,10.3445.4055,34.7949-2.6185,38.0863-3.0239,3.2914-16.3483,10.3444-8.9808,14.106s30.2806-.9404,28.4631-5.6424c-1.81739-4.702-3.4632-11.755.8862-9.404s6.14-4.702,4.7745-10.3444-1.8357-15.6342-2.1883-19.1607c-.3527-3.5265,8.31621-22.6005,10.447-32.0479,2.1308-9.4473-.4941-14.1551,6.931-20.0297,7.425-5.8746,7.8748-31.7357,7.6499-37.8483s-19.7743-65.3579-46.4401-49.371C229.84869,665.7723,233.14009,685.0505,233.14009,685.0505Z"/><path class="cls-4" d="M252.48709,821.6536c-4.7003,3.6214-12.5245,8.9022-6.4958,11.9803,5.4996,2.808,19.6574.8991,25.7289-2.2047A32.55491,32.55491,0,0,0,252.48709,821.6536Z"/><path class="cls-5" d="M302.95469,699.1566c-.2249-6.1127-19.7743-65.358-46.4401-49.3712s-23.3744,35.2651-23.3744,35.2651c5.6424,31.5035,16.8843,31.5035,17.8461,42.3181.9619,10.8146,3.7831,17.3974,6.6043,22.0994,1.3246,2.2078.78341,7.111.12841,12.7623,2.58139,1.9183,3.73629,5.2127,3.89209,9.7747.3374,9.8758,3.3002,16.2951,3.79391,20.4923.49379,4.1972-2.46891,10.8633-2.46891,16.295,0,5.4318-3.1923,9.1806-5.17609,12.8613a11.0009,11.0009,0,0,1-8.89691,5.9832,19.00282,19.00282,0,0,0-4.5058,1.4398c-.9685,1.7088-.8024,3.3134,1.634,4.5573,7.3675,3.7616,30.2806-.9405,28.4631-5.6424-1.81739-4.702-3.4632-11.755.8862-9.404s6.14-4.702,4.7745-10.3444-1.8357-15.6342-2.1884-19.1607c-.3526-3.5265,8.31631-22.6005,10.4471-32.0479,2.1308-9.4473-.4941-14.1551,6.931-20.0297C302.72979,731.1302,303.17969,705.2691,302.95469,699.1566Z"/><path class="cls-5" d="M302.95469,699.1566c-.2249-6.1127-19.7743-65.358-46.4401-49.3712s-23.3744,35.2651-23.3744,35.2651c5.6424,31.5035,16.8843,31.5035,17.8461,42.3181.9619,10.8146,3.7831,17.3974,6.6043,22.0994a9.18512,9.18512,0,0,1,.8126,4.5322c1.5262-.2588,2.5566.6399,3.2079,4.4256,1.57191,9.1351,2.8064,8.8763,5.2753,16.6595,2.469,7.7831,8.7284,11.243-1.4378,18.8951-4.0474,3.0464-5.93359,5.3517-6.8661,7.6754a85.55989,85.55989,0,0,1-1.816,13.2632l-.0046.0255c-1.9683,10.3361,9.1369,15.8215-8.1457,18.7842a16.42454,16.42454,0,0,1-1.95619.2037c7.98519,3.1938,29.56019-1.3726,27.79439-5.9409-1.81739-4.702-3.4632-11.755.8862-9.404s6.14-4.702,4.7745-10.3444-1.8357-15.6342-2.1884-19.1607c-.3526-3.5265,8.31631-22.6005,10.4471-32.0479,2.1308-9.4473-.4941-14.1551,6.931-20.0297C302.72979,731.1302,303.17969,705.2691,302.95469,699.1566Z"/><path class="cls-5" d="M302.95469,699.1566c-.2249-6.1127-19.7743-65.358-46.4401-49.3712s-23.3744,35.2651-23.3744,35.2651c5.6424,31.5035,16.8843,31.5035,17.8461,42.3181.9619,10.8146,3.7831,17.3974,6.6043,22.0994.9342,1.5569.9383,4.4584.6311,8.0134,7.19.4083,9.4702,2.9793,11.3806,10.9412,2.222,9.261-1.7159,22.3464-1.5987,30.7408.1173,8.3945,1.1049,12.9021-3.5861,20.5241-3.8844,6.3114-12.3391,13.3132-20.3186,12.3132a4.25986,4.25986,0,0,0,1.8924,1.6332c7.3675,3.7616,30.2806-.9405,28.4631-5.6424-1.81739-4.702-3.4632-11.755.8862-9.404s6.14-4.702,4.7745-10.3444-1.8357-15.6342-2.1884-19.1607c-.3526-3.5265,8.31631-22.6005,10.4471-32.0479,2.1308-9.4473-.4941-14.1551,6.931-20.0297C302.72979,731.1302,303.17969,705.2691,302.95469,699.1566Z"/><path class="cls-3" d="M499.42789,686.6216c-1.4133,9.8114-11.2666,44.6923-5.1922,58.1428s6.50831,19.091,3.905,25.5993-7.9338,23.9723-5.8652,33.4093c2.0687,9.437,2.5306,14.3183-.4664,13.6674-2.997-.6508-2.997,1.6271-1.3699,5.2067,1.6271,3.5795-7.078,4.9897-13.342,4.9897-6.2641,0-19.8503-1.7356-9.437-7.9185,10.4132-6.1829,8.7862-20.1757,8.4607-26.0332-.3254-5.8575-5.8574-24.7315-7.1591-28.3111-1.3016-3.5796-8.1354-9.1116-7.4845-16.9216.6508-7.81-26.0332-26.684-28.962-31.2398-2.9287-4.5559-19.9547-43.704,3.6901-54.7189C459.85019,651.4787,499.42789,686.6216,499.42789,686.6216Z"/><path class="cls-4" d="M489.84379,821.1835a108.51077,108.51077,0,0,0-17.7594-5.3453,15.84707,15.84707,0,0,1-4.4243,3.8801c-10.4132,6.1829,3.173,7.9185,9.4371,7.9185,6.264,0,14.9691-1.4102,13.342-4.9898C490.20369,822.129,490.007,821.6421,489.84379,821.1835Z"/><path class="cls-5" d="M494.23569,744.7644c-6.0744-13.4506,3.7789-48.3314,5.1922-58.1429,0,0-39.5777-35.1428-63.2225-24.1278-23.6448,11.0149-6.6188,50.163-3.6901,54.7189,2.6472,4.1177,24.6969,19.9312,28.4325,28.7012,6.2017,4.2097,4.56321,4.3168,8.2114,13.0057,4.8721,11.6041,12.01081,17.5296,11.2807,28.6399-.73,11.1103,1.9858,21.4984,2.7265,28.2788.4555,4.1693-10.2909,6.7312-18.9802,6.8168-2.2484,3.8162,7.7817,4.9818,12.911,4.9818,6.264,0,14.9691-1.4102,13.342-4.9898s-1.6271-5.8574,1.3699-5.2066,2.5351-4.2304.4664-13.6675c-2.0686-9.4369,3.2619-26.9009,5.8652-33.4092S500.31009,758.2148,494.23569,744.7644Z"/><path class="cls-5" d="M494.23569,744.7644c-6.0744-13.4506,3.7789-48.3314,5.1922-58.1429,0,0-39.5777-35.1428-63.2225-24.1278-23.6448,11.0149-6.6188,50.163-3.6901,54.7189,1.624,2.5262,10.54971,9.4551,18.0713,16.4587,9.9506,4.0665,19.2315,11.8557,19.9532,16.9886,1.0226,7.2721,4.1111,9.7363,7.5048,17.7627,3.3936,8.0265-.3312,9.261,2.3953,17.1616,2.7265,7.9007,3.961,10.8634,3.4672,18.2703-.4937,7.4068-4.4878,23.7974-18.04509,22.0213h-.00011c2.8283,1.2967,8.0032,1.761,11.2353,1.761,6.264,0,14.9691-1.4102,13.342-4.9898s-1.6271-5.8574,1.3699-5.2066,2.5351-4.2304.4664-13.6675c-2.0686-9.4369,3.2619-26.9009,5.8652-33.4092S500.31009,758.2148,494.23569,744.7644Z"/><path class="cls-5" d="M494.23569,744.7644c-6.0744-13.4506,3.7789-48.3314,5.1922-58.1429,0,0-39.5777-35.1428-63.2225-24.1278-23.6448,11.0149-6.6188,50.163-3.6901,54.7189,2.7635,4.2986,26.665,21.3405,28.8088,29.8118,10.87491,4.7476,23.5235,16.7907,24.373,33.4985.89491,17.5995-7.102,39.6567-21.7612,42.6809-1.0196,3.3808,8.2862,4.433,13.1613,4.433,6.264,0,14.9691-1.4102,13.342-4.9898s-1.6271-5.8574,1.3699-5.2066,2.5351-4.2304.4664-13.6675c-2.0686-9.4369,3.2619-26.9009,5.8652-33.4092S500.31009,758.2148,494.23569,744.7644Z"/><path class="cls-3" d="M505.741,595.4715c13.56849,1.3654,20.74969,18.8321,20.98909,34.5522.2393,15.7201.9575,54.3217,5.0268,59.387-1.915,3.3187-3.5906-3.3187-5.0268-12.2267-1.4363-8.9081-2.1544-23.7548-2.3938-30.9162s-.27829-26.3693-4.5481-32.4882c-4.2698-6.1188-6.9651-1.048-6.9651-1.048Z"/><path class="cls-5" d="M505.741,595.4715c13.56849,1.3654,20.74969,18.8321,20.98909,34.5522.2393,15.7201.9575,54.3217,5.0268,59.387-1.915,3.3187-3.5906-3.3187-5.0268-12.2267-1.4363-8.9081-2.1544-23.7548-2.3938-30.9162s-.27829-26.3693-4.5481-32.4882c-4.2698-6.1188-6.9651-1.048-6.9651-1.048Z"/><path class="cls-3" d="M527.73229,682.3797c.5519,5.6987-6.2086,13.2908-2.5506,21.6235a36.27758,36.27758,0,0,1,2.5828,17.0357,15.86082,15.86082,0,0,0,2.565-3.3287,2.35291,2.35291,0,0,0,.3164-1.8561c.2307.9259,4.6748-2.5924,3.3786-9.9992a7.93226,7.93226,0,0,1,1.1111,2.7775,18.16844,18.16844,0,0,0,0-14.4433,27.40628,27.40628,0,0,1,1.4813,2.4072,111.6568,111.6568,0,0,1-7.2547-15.3626C530.20049,684.401,527.73229,682.3797,527.73229,682.3797Z"/><g class="cls-6"><path class="cls-7" d="M532.35939,696.3755c0-2.442.4629-3.0205-1.4308-5.1974.97641,1.0636.5049,5.0471.5049,9.2911,0,3.0395,1.7528,7.2301,2.7502,9.3705a14.18966,14.18966,0,0,0-.0946-3.4982,11.57884,11.57884,0,0,0-.7113-1.6315C532.07689,702.2879,532.35939,698.8176,532.35939,696.3755Z"/><path class="cls-7" d="M532.221,714.9688a7.19591,7.19591,0,0,0,.58669-.8327Z"/><path class="cls-7" d="M528.19309,702.3199c-.7407-1.1215-.0926-7.4835-.0926-7.4835a11.43315,11.43315,0,0,0-.8333,7.0365c.7843,2.9018,3.7597,5.8058,3.5452,14.1109.2649.0384.8037-.2899,1.3868-.9868C532.19049,714.9492,530.52189,705.8461,528.19309,702.3199Z"/></g><path class="cls-3" d="M524.39649,630.078c-.4952-28.146-13.8247-39.997-40.826-37.3358-27.0012,2.6612-112.7413,13.6339-143.5896,4.2773-30.8484-9.3566-60.9966-.5193-70.895-.0255-5.6218.2805-18.38989-1.8269-31.5336-2.8872-.0012-.0006-34.522-15.6297-52.54559-10.692-18.024,4.9379-16.5426,18.2703-20.493,20.7392-3.9503,2.4689-19.2578,10.3696-22.2205,10.3696-2.9628,0-22.7143,10.3696-6.9131,29.1336-2.4689,6.9131,6.8651,7.4068,12.5677,6.4193,5.4239-.9393,30.2527-2.2982,36.2706,2.4738q.402.3774.7883.78h0c12.3622,12.8314,24.62689,48.5947,33.73519,75.5056,10.8634,32.0964,25.67711,32.0964,61.23,11.3572,35.5528-20.7392,50.3665,4.9379,79.6079,10.8634,29.24121,5.9255,75.9359-22.7143,89.03721-27.6522,13.10129-4.938,59.97959,15.8012,63.72769,0C516.09279,707.603,524.89169,658.224,524.39649,630.078Z"/><path class="cls-3" d="M187.3862,589.5255c-2.0369-7.2217,6.2677-15.7396-5.5692-15.7396s-15.5403,11.2955-9.0593,18.1468S187.3862,589.5255,187.3862,589.5255Z"/><path class="cls-5" d="M187.3862,589.5255c-2.0369-7.2217,6.2677-15.7396-5.5692-15.7396s-15.5403,11.2955-9.0593,18.1468S187.3862,589.5255,187.3862,589.5255Z"/><path class="cls-8" d="M436.25639,733.4894c2.6541,4.8144-.80239,15.4927,0,17.3444s2.6541-5.8638,3.3948-7.839c.7407-1.9751,3.9503-4.0737,4.3824-3.7651.432.3086-1.4814-4.5676-1.4814-4.5676Z"/><path class="cls-9" d="M442.55219,734.6621l-6.2958-1.1727a10.4484,10.4484,0,0,1,1.0114,4.7017c1.5075,2.607,1.7588,3.7579,1.3495,5.8054-.2258,1.13-.4695,2.7782-.6308,4.324.65251-1.9394,1.2961-4.3429,1.6647-5.3257.7407-1.9751,3.9503-4.0738,4.3824-3.7651C444.46559,739.5383,442.55219,734.6621,442.55219,734.6621Z"/><path class="cls-9" d="M442.55219,734.6621l-6.2958-1.1727a11.70073,11.70073,0,0,1,1.0152,5.7c1.2839-.8018,3.128-.7856,3.66041,1.2439a3.24453,3.24453,0,0,1,.09049.6407c1.20251-1.1841,2.7231-2.0501,3.0111-1.8443C444.46559,739.5383,442.55219,734.6621,442.55219,734.6621Z"/><path class="cls-9" d="M442.55219,734.6621l-6.2958-1.1727a9.84937,9.84937,0,0,1,.992,4.2019c1.3162.1399,2.1898,1.7169,2.3874,3.3827.2314,1.9517-2.0832,5.794-2.7313,8.5253a1.49818,1.49818,0,0,1-.7054,1.0536,1.12917,1.12917,0,0,0,.0573.1808c.8024,1.8517,2.6541-5.8637,3.3948-7.8389.7407-1.9751,3.9503-4.0738,4.3824-3.7651C444.46559,739.5383,442.55219,734.6621,442.55219,734.6621Z"/><path class="cls-8" d="M445.08289,737.7483c1.54311,3.1479-2.6541,13.8879-1.6048,15.9248,1.0493,2.0368,2.03691-4.9496,3.57991-8.2093a8.81413,8.81413,0,0,1,4.32069-3.8886Z"/><path class="cls-9" d="M445.08289,737.7483c.6004,1.2249.3307,3.6001-.1598,6.1638.7825,1.1202.28091,3.5575.1598,5.5946-.048.8077-.1016,1.6996-.1525,2.5409a60.266,60.266,0,0,1,2.12761-6.5838,8.81413,8.81413,0,0,1,4.32069-3.8886Z"/><path class="cls-9" d="M445.08289,737.7483a7.53652,7.53652,0,0,1,.2147,3.843,2.54669,2.54669,0,0,1,1.421,2.9158c-.3661,1.4643-1.2094,4.4795-1.5524,6.7665a45.57127,45.57127,0,0,1,1.89181-5.8098,8.81413,8.81413,0,0,1,4.32069-3.8886Z"/><path class="cls-9" d="M445.08289,737.7483c.4956,1.0111.3977,2.8067.07311,4.8443a2.79034,2.79034,0,0,1,2.589,1.7532,9.42644,9.42644,0,0,1,3.63369-2.7706Z"/><path class="cls-8" d="M452.428,739.168c1.17279,2.4072.80239,14.3199,2.34549,15.9864,1.5431,1.6666,1.1728-5.2026,1.4197-7.2614.2469-2.0589,2.6304-3.6973,3.7224-3.8965C457.98319,741.1431,452.428,739.168,452.428,739.168Z"/><path class="cls-9" d="M452.428,739.1679c.46909.963.69119,3.4478.88779,6.1885.9315.6354,1.4287,1.8579,1.7355,4.1503a27.66216,27.66216,0,0,0,.9103,3.5099c.1398-1.7809.1059-4.0753.2316-5.1236.2469-2.0589,2.6304-3.6973,3.7224-3.8965C457.98309,741.1431,452.428,739.1679,452.428,739.1679Z"/><path class="cls-9" d="M452.428,739.1679a19.6449,19.6449,0,0,1,.81869,5.258c2.6967,1.3909,2.5679,1.1114,2.3138,3.2291a33.564,33.564,0,0,1-1.4057,5.9389,3.66012,3.66012,0,0,0,.6187,1.5605c1.5431,1.6666,1.1728-5.2027,1.4197-7.2614.2469-2.0589,2.6304-3.6973,3.7224-3.8965C457.98309,741.1431,452.428,739.1679,452.428,739.1679Z"/><path class="cls-9" d="M452.428,739.1679a17.444,17.444,0,0,1,.77789,4.7448c1.54111.5409,1.9843,1.8698,1.9843,3.3776,0,1.8461.2777,4.2996.2777,5.6884a3.19759,3.19759,0,0,1-.8656,1.9296,1.37886,1.37886,0,0,0,.1712.2461c1.5431,1.6666,1.1728-5.2027,1.4197-7.2614.2469-2.0589,2.6304-3.6973,3.7224-3.8965C457.98309,741.1431,452.428,739.1679,452.428,739.1679Z"/><path class="cls-8" d="M426.791,726.8232c12.92189,12.3448,37.36449,32.8371,61.06639-1.2344C466.37759,685.3449,426.791,726.8232,426.791,726.8232Z"/><path class="cls-9" d="M426.791,726.8232c4.64769,4.4402,10.786,9.9342,17.844,13.5644-.10341-9.8302,9.00649-15.3978,18.47119-10.7868,6.0097,2.9278,4.6436,9.0734,2.2377,13.9674,7.3146-1.7989,14.9515-7.109,22.5136-17.9795C466.37759,685.3449,426.791,726.8232,426.791,726.8232Z"/><path class="cls-9" d="M426.791,726.8232a113.33874,113.33874,0,0,0,8.75289,7.6611c11.0602-8.6282,19.0113-11.3032,29.229-5.0687,5.3816,3.2837,5.166,8.6346,3.565,13.221,6.3915-2.4121,12.9835-7.6523,19.5196-17.0479C466.37759,685.3449,426.791,726.8232,426.791,726.8232Z"/><path class="cls-9" d="M432.45579,721.6706c8.3406-2.145,17.0403-4.0133,17.0403-4.0133,10.6474,5.4338,15.8707,18.4328,13.9308,26.3066,7.8912-1.3026,16.2053-6.5514,24.4306-18.3752C471.35649,694.673,444.17259,711.9838,432.45579,721.6706Z"/><path class="cls-3" d="M524.39649,630.078c-.4952-28.146-13.8247-39.997-40.826-37.3358-27.0012,2.6612-112.7413,13.6339-143.5896,4.2773-30.8484-9.3566-60.9966-.5193-70.895-.0255-5.6218.2805-18.38989-1.8269-31.5336-2.8872a175.9852,175.9852,0,0,0-17.4437-6.5564c-5.5702-1.7664-12.1629-11.2927-18.279-12.215-6.23289-.9399-13.05879,3.1356-17.89989,4.4619-4.6748,1.2807-6.9604,6.7437-9.446,8.8178-7.0979,5.9227-7.0442,13.7103-9.97,15.5389-3.9503,2.4689-19.2578,10.3696-22.2205,10.3696-2.9628,0-22.7143,10.3696-6.9131,29.1336-2.4689,6.9131,6.8651,7.4068,12.5677,6.4193,5.4239-.9393,30.2527-2.2982,36.2706,2.4738q.402.3774.7883.78h0c12.3622,12.8314,24.62689,48.5947,33.73519,75.5056,10.8634,32.0964,25.67711,32.0964,61.23,11.3572,35.5528-20.7392,50.3665,4.9379,79.6079,10.8634,29.24121,5.9255,75.9359-22.7143,89.03721-27.6522,13.10129-4.938,59.97959,15.8012,63.72769,0C516.09279,707.603,524.89169,658.224,524.39649,630.078Z"/><path class="cls-5" d="M207.75509,597.6971c4.3206,5.0614,21.7206,9.5543,29.1922,6.5055,4.6238-1.8868,7.0479-6.4403,9.3652-9.2564-2.8508-.3066-5.7933-.6001-8.7602-.8394,0,0-5.9484-2.6922-14.1928-5.4886Z"/><path class="cls-10" d="M163.1283,643.7886c-.5561-4.0282,5.247-1.1566,7.4691-4.341,2.222-3.1845.2469-4.2224-1.0023-8.1588-1.2493-3.9364-9.6142-7.9146-11.8363-9.1491-1.6548-.9193-5.964-5.888-11.994-8.612a12.38436,12.38436,0,0,1-3.4716.9959c-2.9628,0-22.7143,10.3696-6.9131,29.1336-2.4689,6.9131,6.8651,7.4068,12.5677,6.4193a109.68611,109.68611,0,0,1,14.234-.9182A13.85926,13.85926,0,0,0,163.1283,643.7886Z"/><path class="cls-10" d="M156.1355,649.3395c2.1681-1.6497,3.7657-3.4798,3.5985-5.2261-.4863-5.0774.9876-5.1848,2.2221-8.1475,1.2344-2.9628-1.7283-5.4317-1.9752-9.1395s-4.4441-3.6991-12.1208-7.8963c-5.4118-2.9589-7.5003-3.395-11.7213-1.3859-5.7193,4.3387-11.587,13.2544-.7587,26.113-2.4689,6.9131,6.8651,7.4068,12.5677,6.4193A80.14816,80.14816,0,0,1,156.1355,649.3395Z"/><path class="cls-10" d="M147.8601,645.7203c3.1868,1.36,4.4671-1.1131,7.6767-4.3228,3.2096-3.2096,3.9503-6.6661,1.9752-12.5916-1.9752-5.9255-2.9628-4.691-11.7241-6.4193-5.5783-1.1004-6.2087-3.2592-8.3504-5.403-.4137.16-.8419.3432-1.2987.5606-5.7193,4.3387-11.587,13.2544-.7587,26.113C142.6289,643.201,144.6734,644.3603,147.8601,645.7203Z"/><g class="cls-6"><path class="cls-11" d="M314.03269,626.8264c-8.1369,9.3863-20.3462,22.7197-15.2291,34.0764,5.1171,11.3566,18.979,33.3486,21.677,21.365,2.6979-11.9836-15.5453-36.1793,9.87141-51.9805,15.45419-9.6078,13.41829-22.7925,22.23379-30.8115a75.62493,75.62493,0,0,1-12.6049-2.4563,99.62783,99.62783,0,0,0-20.6704-3.8631C321.336,604.8649,321.07489,618.7027,314.03269,626.8264Z"/><path class="cls-11" d="M215.36339,656.9519c11.526-11.8509,16.138-42.3325,15.5603-47.0902,2.8788,7.0932-.2508,20.9194-1.4018,25.8573,7.2433-11.3572,9.3343-30.1516,6.7692-32.9252-2.565-2.7736,8.2947-1.4957,6.3596,7.0734s-17.8916,43.6983-18.757,63.3798c-.8654,19.6816,2.74231,32.2927,13.4855,38.8607s-10.8157-9.0613-6.4555-30.874c4.3602-21.8128,20.24831-27.7383,24.4021-47.9837,2.8773-14.0238,1.3624-28.7183,3.2055-36.9332-6.0174-.649-13.4324-1.6012-20.979-2.21,0,0-6.9787-3.1589-16.2966-6.1876C234.21929,618.667,217.53369,652.7583,215.36339,656.9519Z"/></g><path class="cls-9" d="M452.813,684.6042c-29.39511,11.8509-10.13731,34.1991-58.52881,53.1461-48.3914,18.9472-77.4937-30.7066-86.3976-42.914-8.9038-12.2073-26.6193,51.9854-63.4372,33.2214-28.9219-14.7399-39.8038-49.2482-50.39869-61.5911,9.15109,16.7313,17.81959,42.0668,24.69119,62.3693,10.8634,32.0965,25.67711,32.0965,61.23,11.3573,35.5528-20.7392,50.3665,4.9377,79.6079,10.8632,29.24121,5.9255,75.9359-22.7142,89.03721-27.6522,6.12-2.3065,19.61019.9896,32.63169,3.5469Z"/><path class="cls-9" d="M467.89929,721.0389c-23.1678-41.0903-77.0716,4.056-93.997,5.5374-16.9255,1.4814-50.5999-19.3539-59.8696-36.2964l-15.2291,42.5661c23.1021-4.0519,37.2846,13.4501,60.7762,18.2104,29.24121,5.9255,75.9359-22.7142,89.03721-27.6522,4.43309-1.6707,12.73479-.4009,21.92279,1.3975A23.423,23.423,0,0,1,467.89929,721.0389Z"/><g class="cls-6"><path class="cls-12" d="M222.19839,721.0389c4.3931,22.6629,21.2273,29.1193,28.4869,32.5622,6.235-1.4893,13.5294-4.6932,22.1914-9.4025C256.92309,744.6404,227.84019,743.9117,222.19839,721.0389Z"/><path class="cls-12" d="M294.49079,714.5525l-10.3036-13.4162s-27.5143,32.3531-68.8238-16.5321c16.9577,36.0466,42.75761,51.3541,61.7071,44.9348,10.0918-3.4186,13.131,1.0654,12.5731,5.9186,16.9445-6.6161,28.9902-1.9291,41.4027,4.1537C312.54,727.2609,294.49079,714.5525,294.49079,714.5525Z"/></g><path class="cls-3" d="M250.34449,678.9632c5.9254,33.0839,17.7313,33.0839,18.7414,44.4411,1.0102,11.3572,3.9729,18.2702,6.9356,23.2081,2.9628,4.9379-2.9627,22.7144,0,33.5777,2.9628,10.8634.4259,36.5405-2.7498,39.997-3.1756,3.4566-17.1684,10.8634-9.4314,14.8137,7.7371,3.9504,31.7998-.9875,29.8911-5.9254-1.9086-4.9379-3.637-12.3448.93061-9.8758,4.56769,2.4689,6.44809-4.9379,5.01409-10.8634s-1.9278-16.4185-2.29809-20.122c-.37041-3.7034,8.73339-23.7344,10.97109-33.6556,2.2377-9.9213-.5188-14.8653,7.2787-21.0347,7.7976-6.1693,8.2699-33.3277,8.0338-39.747-.2362-6.4193-20.7665-68.6368-48.7701-51.848C246.88789,658.7178,250.34449,678.9632,250.34449,678.9632Z"/><path class="cls-3" d="M520.92489,674.5169c-1.6084,11.166-12.8221,50.8626-5.909,66.17,6.91311,15.3075,7.4068,21.7268,4.44411,29.1337-2.96271,7.4068-9.02921,27.2819-6.67491,38.0218,2.3542,10.7399,2.88,16.2951-.5308,15.5544s-3.4108,1.8517-1.5591,5.9255c1.8517,4.0737-8.0551,5.6785-15.184,5.6785s-22.5909-1.9751-10.7399-9.0116c11.8509-7.0365,9.9992-22.9613,9.6289-29.6274-.3704-6.6662-6.66619-28.1461-8.1476-32.2198-1.4813-4.0738-9.2585-10.3696-8.5178-19.2578.7406-8.8883-29.6274-30.3681-32.9605-35.5529s-22.7097-49.7378,4.1995-62.2735S520.92489,674.5169,520.92489,674.5169Z"/><path class="cls-3" d="M202.94059,590.3279c15.8013-1.2345,20.4923-19.7516,32.09641-13.8261,11.604,5.9255,12.34469,19.9985,2.96269,22.7143-9.382,2.7159-31.6026,0-31.6026,0Z"/><path class="cls-3" d="M202.94059,590.3279c15.8013-1.2345,20.4923-19.7516,32.09641-13.8261,11.604,5.9255,12.34469,19.9985,2.96269,22.7143-9.382,2.7159-31.6026,0-31.6026,0Z"/><path class="cls-5" d="M188.3403,605.8446c4.6574-1.2344,8.9217-6.4192,8.9217-6.4192s-11.1103,4.4441-18.2944,3.2096c-6.402-1.1001-8.4244-7.3519-5.8174-12.8026-5.6217,5.5811-5.9004,12.2611-8.4382,14.175a22.25,22.25,0,0,1,10.6658,1.8372C180.1583,608.0667,183.6828,607.0791,188.3403,605.8446Z"/><polygon class="cls-5" points="172.918 649.539 172.917 649.538 172.917 649.538 172.918 649.539"/><path class="cls-5" d="M196.5213,655.7175c5.67859-.247,15.30749-5.1848,15.62789-11.1103-2.5293,6.2678-15.44379,8.5622-18.623,9.0368a6.85231,6.85231,0,0,1-.7083.0983s.2557-.0308.7083-.0983c1.6539-.3,6.12559-1.5357,12.13029-6.5862,7.6537-6.4376,6.4192-16.7705,6.4192-16.7705s-2.7158,14.3199-11.3571,18.764c-5.39569,2.7749-14.892,2.2744-21.26469,1.507a12.76881,12.76881,0,0,1,4.7645,1.992q.402.3774.7883.78a52.02584,52.02584,0,0,1,6.5556,8.8326C192.2751,659.0104,193.6942,655.8404,196.5213,655.7175Z"/><path class="cls-5" d="M135.277,643.9862c4.5597-.411,13.2898,1.9332,18.2846,3.0716,6.4193,1.463,11.6041-4.6727,12.8386-7.9934-4.9379,2.8518-15.5544,4.8021-21.9737,4.0614S132.4816,639.7,131.341,632.7562c-1.1405-6.9438,2.1788-12.8442,8.3945-15.3075,6.2158-2.4632,14.8137,1.7283,18.0233,4.691-.9875-2.4689-13.0261-8.2284-18.5589-6.5349-6.0277,3.1037-16.6575,12.8075-3.8198,28.0524C135.3398,643.7701,135.3111,643.8767,135.277,643.9862Z"/><path class="cls-13" d="M185.076,609.3085c2.1453-2.2002,2.7503-3.9604,4.6205-3.1353s5.1706.165,5.5006.8801c.3301.7151-.055,2.6953-2.5852,2.8053C190.0816,609.9686,186.5612,608.9785,185.076,609.3085Z"/><path class="cls-14" d="M188.1563,609.4614a26.76278,26.76278,0,0,0,4.4556.3972,3.4984,3.4984,0,0,0,1.2752-.2891,2.95088,2.95088,0,0,0,1.31-2.5162c-.33-.7151-3.6304-.055-5.5005-.8801a1.82089,1.82089,0,0,0-2.2705.4995A3.97127,3.97127,0,0,0,188.1563,609.4614Z"/><circle class="cls-15" cx="194.112" cy="608.1309" r="1.0451"/><g class="cls-16"><path class="cls-17" d="M347.01389,615.2981c-.3804,8.5699,13.4509,6.386,23.2007,3.4042,9.7497-2.9818,24.54341-3.6844,33.4417,0,7.17371,2.9703,13.826-12.5337,23.13471-20.3233-26.35871,2.147-55.11321,3.4749-74.61641,1.0481C354.11729,605.467,347.33239,608.1213,347.01389,615.2981Z"/><path class="cls-17" d="M442.44959,605.5361c10.8425,4.9996,17.0433-13.0034,28.3863-5.113,11.343,7.8905,18.2195,17.7873,21.07711,9.8762,1.48019-4.0979,4.30209-11.8164,8.03669-17.0755a56.7237,56.7237,0,0,0-16.3792-.4816c-9.3618.9226-25.787,2.8443-44.535,4.5715C438.15259,599.8215,437.29579,603.1597,442.44959,605.5361Z"/><path class="cls-17" d="M268.00359,630.2873c6.7835,4.691-8.562,25.8195-2.741,30.0689,5.821,4.2495,13.8658-17.5641,21.69441-21.1006,7.82859-3.5366,5.03609-28.452,9.39509-28.9563,4.35891-.5043,23.3325-2.9529,24.9038-9.8762.5106-2.2497,2.9804-4.5215,6.3164-6.2549-26.2107-4.2614-49.9247,2.3987-58.4864,2.8258a63.0295,63.0295,0,0,1-8.3766-.4513C268.52879,611.2794,263.53909,627.1999,268.00359,630.2873Z"/></g><path class="cls-9" d="M386.89859,707.3185c8.4736-13.4406,28.5639-97.1337,47.10841-92.0204,18.54449,5.1134,27.52049,14.0294,30.43929,15.9907,2.9189,1.9612-14.491,15.1935-21.9992,29.0674C434.93879,674.2301,375.06879,726.0825,386.89859,707.3185Z"/><g class="cls-6"><path class="cls-11" d="M276.43029,747.5519c1.6268,5.0358-1.7936,17.5748-1.1869,27.5334,2.48461-6.74,6.1609-13.0463,8.9438-17.894C287.25989,751.8385,281.17849,750.6554,276.43029,747.5519Z"/><path class="cls-11" d="M269.33419,725.7651c3.4289-4.1988,10.9329-4.1255,17.62281-9.7784,3.424-2.8931,6.56809-3.5359,8.70879-3.4533a46.16152,46.16152,0,0,1-4.7943-2.6937c-8.45-5.3191-22.0776-5.0021-34.1096-8.9497,5.5819,12.1634,11.6147,14.539,12.324,22.5142C269.15809,724.2156,269.24279,724.9983,269.33419,725.7651Z"/><path class="cls-11" d="M304.27679,767.2844c.3796-1.038.75021-2.068,1.1084-3.0828a58.81863,58.81863,0,0,1-12.1609,6.322S299.64009,770.916,304.27679,767.2844Z"/><path class="cls-11" d="M301.18879,737.7503c-3.0236,3.0544,3.4444,6.1324,8.1978,9.6089.4821-5.5397.59341-9.3667,6.2412-13.8353,2.5353-2.0059,4.2925-6.2358,5.5065-11.2451C314.34849,728.1966,304.38909,734.5176,301.18879,737.7503Z"/></g><g class="cls-6"><path class="cls-11" d="M510.74039,709.8397c-1.2986,10.3553.0599,16.5337,2.1929,21.1472-.8196-11.7519,2.1451-27.8363,4.7361-40.3186C514.02649,697.773,511.41739,704.4419,510.74039,709.8397Z"/><path class="cls-11" d="M482.28889,758.0023a46.34942,46.34942,0,0,1,3.7563,5.645c4.8233-.6028,10.321-1.8599,11.8467-4.4809C492.65679,761.994,487.26639,760.9028,482.28889,758.0023Z"/><path class="cls-11" d="M509.07919,782.3746c-1.3845,5.2043,1.1344,11.9258,3.2487,17.3429.6063-10.7068,4.8168-24.1089,7.13211-29.8969a21.86094,21.86094,0,0,0,1.11049-13.7013C518.09579,765.8425,510.78629,775.958,509.07919,782.3746Z"/><path class="cls-11" d="M449.17529,705.1486c8.9686-8.0954,39.4228,32.2911,37.44771,24.3904-1.97521-7.9006-37.03431-30.615-44.17591-63.0724l-7.5092,4.5686c-.5513,16.5357,7.7587,35.0642,9.8364,38.296a16.86045,16.86045,0,0,0,2.2932,2.5447C446.71949,709.2441,447.25089,706.8856,449.17529,705.1486Z"/></g><path class="cls-4" d="M293.19179,827.5939c-4.6415-2.7437-13.1626-5.2703-21.6775-5.8422-4.7451,3.7938-14.387,9.8217-7.674,13.2492,7.7371,3.9502,31.7998-.9877,29.8911-5.9255C293.548,828.6007,293.36639,828.1031,293.19179,827.5939Z"/><g class="cls-6"><path class="cls-11" d="M292.47109,818.8929c-2.9604.71-7.4957,1.9668-9.5365,7.1821-1.6117,4.1188-13.6298,7.7077-21.3235,6.5703a3.754,3.754,0,0,0,2.2292,2.3556c7.7371,3.9502,31.7998-.9877,29.8911-5.9255C292.25119,825.2455,290.88139,819.9338,292.47109,818.8929Z"/><path class="cls-11" d="M321.13429,717.935c-10.901,9.1093-20.5252,18.5171-20.7211,28.146-.196,9.6289-10.0718,27.8991-11.30619,36.5404-1.23451,8.6414,9.31149,24.9365,8.48259,28.6399s-1.4823,6.7552-4.3652,7.4514a3.58143,3.58143,0,0,1,1.43761.4868c4.56769,2.469,6.44809-4.9378,5.01409-10.8633s-1.9278-16.4186-2.29809-20.122c-.37041-3.7034,8.73339-23.7343,10.97109-33.6556s-.5188-14.8653,7.2787-21.0347c3.3658-2.6629,5.3647-9.2379,6.533-16.3661C321.792,717.4186,321.44159,717.6782,321.13429,717.935Z"/></g><path class="cls-4" d="M509.96679,827.5098c-6.2561-1.3228-14.9476-3.9297-20.81779-5.1446a18.10168,18.10168,0,0,1-4.37771,3.6239c-11.851,7.0365,3.611,9.0118,10.7399,9.0118s17.0357-1.6049,15.184-5.6787C510.40179,828.6767,510.161,828.0736,509.96679,827.5098Z"/><g class="cls-6"><path class="cls-11" d="M499.65109,731.7611c2.5263,19.7516,4.22191.2469,6.08991-7.9006.99189-4.3264,4.27619-3.8491,7.148-1.0823.85189-17.7958,6.888-40.2925,8.036-48.2613,0,0-1.91371-1.6984-5.18221-4.2825C507.58569,691.8498,497.88119,717.9225,499.65109,731.7611Z"/><path class="cls-11" d="M513.951,763.6473c-5.84821,9.8391-6.83571,16.7521-6.342,29.3437.49379,12.5917,2.71589,21.7454-3.20961,22.8472-5.9255,1.1017,7.5421,7.1197-4.4497,12.8448-7.6624,3.6582-14.7396,4.1443-19.2278,2.7806,1.6179,2.6599,10.0445,3.5373,14.7893,3.5373,7.1289,0,17.0357-1.6049,15.184-5.6787s-1.8517-6.6662,1.5591-5.9255,2.885-4.8144.5308-15.5544c-2.3543-10.7399,3.7122-30.6149,6.67491-38.0217,2.44909-6.1228,2.532-11.5759-1.41641-21.9276C517.88189,753.1706,516.97729,758.5558,513.951,763.6473Z"/></g><path class="cls-5" d="M142.081,639.5458c-2.4702,4.2542,7.7378-21.4626,13.7063-14.3815,5.9686,7.0812.2433,9.4714-2.4726,8.2231-2.7158-1.2484-4.243-1.5909-5.4546,0C146.6486,634.9783,144.3031,635.719,142.081,639.5458Z"/><path class="cls-5" d="M131.8323,634.7783c.1877-5.7255,6.0426-15.7195,4.4576-15.3981-1.5849.3215-6.7697,6.2734-6.2142,7.6953.5555,1.4218,1.3888.4034,1.3888,2.0699S131.8323,634.7783,131.8323,634.7783Z"/><path class="cls-5" d="M154.7035,624.8865c-4.6947.5142-9.3511,7.0951-9.2586,8.5009.0926,1.4057,4.3855.2021,5.0166.3873.6312.1851,3.0384-.9171,5.0753-1.8011,2.0369-.8839.7407-3.7541,0-4.5873C154.7961,626.553,155.9179,624.7534,154.7035,624.8865Z"/><path class="cls-9" d="M167.2026,644.2368c-9.7055,2.3558,25.4918-13.3463,30.0594-19.3573,4.56759-6.0111,14.01129-20.5811,15.67789-11.3518,1.6665,9.2293-3.5183,14.3303-10.9251,18.4459C194.6079,636.0893,174.0096,642.5846,167.2026,644.2368Z"/><path class="cls-5" d="M210.224,596.2158c7.90069-1.4814,21.97369-17.653,26.17089-12.962s2.4689,8.0241,2.4689,8.0241-2.3455-4.3207-7.5303.1234S210.224,596.2158,210.224,596.2158Z"/></g></g></svg>