<svg xmlns="http://www.w3.org/2000/svg" viewBox="0 0 1800 1300"><defs><style>.cls-1{isolation:isolate;}.cls-2{fill:#fff;}.cls-3{fill:#703722;}.cls-4{fill:#bd9f83;}.cls-11,.cls-5{fill:#f2e1d1;}.cls-6{fill:#e6e6e6;}.cls-6,.cls-7,.cls-9{mix-blend-mode:multiply;}.cls-10,.cls-7{fill:#ededed;}.cls-8{fill:#e3a7a1;}.cls-11{opacity:0.2;}.cls-12{fill:#874229;}.cls-13{fill:#fea484;opacity:0.1;}.cls-14{fill:#947a67;}.cls-15{fill:#4f4138;}.cls-16{fill:#333;mix-blend-mode:screen;}</style></defs><g class="cls-1"><g id="Layer_1" data-name="Layer 1"><rect class="cls-2" width="1800" height="1300"/><path class="cls-3" d="M1429.4993,733.8756c2.2287,15.8794,2.7858,32.873,4.7359,39.2805,1.9501,6.4074-2.7286,18.6261-2.45,24.1978s2.2922,14.0451,4.9573,18.7043c-1.9501,3.343-2.2692,1.9501-3.3633,3.343s6.3872,6.9646,0,10.0291c-6.3872,3.0644-23.938,4.1787-19.2021-1.9501,4.736-6.1289,12.5903-9.3019,12.5903-13.2021s1.1972-27.5435.3615-31.7223c-.8358-4.1787-20.4736-11.0538-23.8166-23.181-3.343-12.1271,0-28.285,0-28.285Z"/><path class="cls-4" d="M1419.64,819.6751a91.44517,91.44517,0,0,1-5.4629,7.805c-4.7359,6.1289,12.8149,5.0146,19.2021,1.9501,3.6521-1.7521,2.7695-4.3231,1.549-6.4648C1430.6389,821.8253,1424.3587,819.6512,1419.64,819.6751Z"/><path class="cls-5" d="M1421.1417,785.971c.8358,4.1788,2.2287,20.6153,2.2287,24.5155,0,2.3249-1.5897,5.741-3.8724,9.4178,5.1196.6198,9.8979-1.0216,10.0775-2.2289.1502-1.0087,3.5013-.006,6.2531-.2234a13.31571,13.31571,0,0,0,.9139-1.3938c1.9501-3.3431-2.2287-12.2578-2.5072-17.8295-.1795-3.5881.6764-10.2913.7909-16.3238-2.3831-3.3654-5.673-6.367-4.9255-7.5754,1.2005-1.9408-.3001-4.3619-2.1008-5.5624-1.8008-1.2005-4.5019,2.1009-5.3077-1.2894s-.2126-3.92,1.5676-8.1029c1.7801-4.1829-3.1628-.2117-7.4539-4.6628-4.2912-4.4513,2.1674-6.8046,2.7369-10.9452l-6.7359-11.667-9.4946-1.01s-3.343,16.1579,0,28.285C1406.6553,771.502,1420.306,781.7922,1421.1417,785.971Z"/><path class="cls-6" d="M1423.7981,822.7894c.6003-4.2018,10.2043-7.203,8.7551-12.3051-1.4491-5.1021-7.8547-14.1059-5.7538-23.4097,2.1008-9.3038-3.3014-16.2066,0-21.3088a42.74993,42.74993,0,0,1,5.3674-6.6572c-.7234-7.4557-1.4433-16.5106-2.6675-25.233l-26.187-2.7858s-3.343,16.1579,0,28.285c3.343,12.1272,16.9937,22.4174,17.8294,26.5962.8358,4.1788,2.2287,20.6153,2.2287,24.5155,0,3.9001-4.4573,10.8648-9.1933,16.9936-1.6124,2.0867-.6383,3.3322,1.5959,3.9486C1417.8154,830.0915,1423.3104,826.2037,1423.7981,822.7894Z"/><path class="cls-6" d="M1423.3704,810.4865c0,1.8229-.9811,4.319-2.5019,7.0827,3.53-1.6684,8.3318-4.2861,8.3318-6.1846,0-3.0012-.9003-10.8044.3002-15.3063,1.2005-4.5018-2.7011-13.8056-6.0025-25.2103-2.618-9.0441-.6986-12.6143,8.2872-15.8004-.6088-6.5672-1.2755-13.9926-2.2859-21.192l-26.187-2.7858s-3.343,16.1579,0,28.285c3.343,12.1272,16.9937,22.4174,17.8294,26.5962C1421.9775,790.1498,1423.3704,806.5863,1423.3704,810.4865Z"/><path class="cls-3" d="M1568.4053,699.9069c10.5862,26.4656,14.2078,46.8023,15.6007,58.5029s1.6715,26.4656-3.0644,35.3803c-4.736,8.9147-16.836,25.9924-15.0436,29.2238,1.7924,3.2313,26.187,4.1511,26.4656,0,.2786-4.1512,1.6715-12.2301,3.9002-8.6085,2.2286,3.6216,8.0789-1.393,5.0145-6.9647s0-24.794,3.343-29.2514c3.343-4.4573,10.0291-28.6942,5.8503-35.3803-4.1788-6.686-6.4075-32.3158-5.8503-35.3803C1605.1785,704.3643,1568.4053,699.9069,1568.4053,699.9069Z"/><path class="cls-4" d="M1570.4681,811.399c-3.138,5.4222-5.4212,10.0804-4.5701,11.6148,1.7924,3.2314,26.187,4.1512,26.4656,0,.1722-2.5671.7712-6.6336,1.7299-8.5088C1589.2085,811.2236,1578.0681,812.6851,1570.4681,811.399Z"/><path class="cls-7" d="M1610.4716,742.809c-4.1788-6.686-6.4075-32.3158-5.8503-35.3803.5572-3.0644-36.216-7.5217-36.216-7.5217,8.9899,22.4747,12.9488,40.5062,14.7939,52.6059,12.714,16.996,9.3004,39.2162,5.562,48.3674-3.6182,8.8571-15.7407,18.8774-22.9088,22.0113.0166.0394.0257.0862.0456.1222,1.7924,3.2314,26.187,4.1512,26.4656,0,.2786-4.1511,1.6715-12.23,3.9002-8.6084,2.2286,3.6216,8.0789-1.393,5.0145-6.9647s0-24.7941,3.343-29.2514S1614.6504,749.495,1610.4716,742.809Z"/><path class="cls-7" d="M1610.4716,742.809c-4.1788-6.686-6.4075-32.3158-5.8503-35.3803.5572-3.0644-36.216-7.5217-36.216-7.5217a253.05414,253.05414,0,0,1,12.4584,40.0595c22.4099,17.9948,20.9789,26.6206,18.8069,36.7792-2.4011,11.2293-12.2216,13.9304-16.7652,23.2342-3.3293,6.8172-2.4439,19.2528-6.5143,25.6584,7.3344.5002,15.8089-.1873,15.9725-2.6245.2786-4.1511,1.6715-12.23,3.9002-8.6084,2.2286,3.6216,8.0789-1.393,5.0145-6.9647s0-24.7941,3.343-29.2514S1614.6504,749.495,1610.4716,742.809Z"/><path class="cls-7" d="M1610.4716,742.809c-4.1788-6.686-6.4075-32.3158-5.8503-35.3803.5572-3.0644-36.216-7.5217-36.216-7.5217a241.44768,241.44768,0,0,1,14.4789,50.6007c10.321,4.1236,12.8537,6.4516,11.2093,16.97-1.9393,12.4051-8.2423,15.8739-8.5356,19.8363s4.7952,29.5466,0,32.3609c-3.0574,1.7944-12.8228,2.9417-19.5031,3.5383,2.6657,3.0669,26.0361,3.8644,26.3088-.1994.2786-4.1511,1.6715-12.23,3.9002-8.6084,2.2286,3.6216,8.0789-1.393,5.0145-6.9647s0-24.7941,3.343-29.2514S1614.6504,749.495,1610.4716,742.809Z"/><path class="cls-3" d="M1637.5184,607.6895c16.4936,1.6598,25.2231,22.8923,25.5141,42.0015s1.1639,66.0329,6.1106,72.1903c-2.3279,4.0342-4.3647-4.0341-6.1106-14.8627-1.7459-10.8285-2.6189-28.8761-2.9098-37.5814-.291-8.7053-.3384-32.0544-5.5287-39.4924s-8.4668-1.274-8.4668-1.274Z"/><path class="cls-8" d="M1560.8045,740.7431c-1.1254,6.6402-3.0387,13.8432,0,12.9428,3.0388-.9004,5.7399-9.9191,5.7399-9.9191Z"/><path class="cls-7" d="M1560.8045,740.7431c-.2609,1.5395-.563,3.106-.8371,4.5981,1.8485,2.1709,4.7604,4.8717.8371,8.3447,3.0388-.9004,5.7399-9.9191,5.7399-9.9191Z"/><path class="cls-8" d="M1575.4356,746.708c.5627,5.5148,1.5756,11.3672,3.9391,10.5794s1.8007-10.5794,1.8007-10.5794Z"/><path class="cls-7" d="M1581.1099,752.4042a46.80534,46.80534,0,0,0,.0655-5.6962h-5.7398c.1566,1.5346.3501,3.0907.5958,4.5273A4.71957,4.71957,0,0,1,1581.1099,752.4042Z"/><path class="cls-8" d="M1592.7677,743.7668c3.1513,7.6682,6.528,8.7012,7.7657,8.2667,2.0258-.7111-2.2509-11.2904-2.2509-11.2904Z"/><path class="cls-7" d="M1600.763,751.8755c1.4201-1.4795-2.4805-11.1324-2.4805-11.1324l-5.5148,3.0237a29.08509,29.08509,0,0,0,1.6715,3.45C1597.2015,746.5147,1601.7331,747.7147,1600.763,751.8755Z"/><path class="cls-8" d="M1547.9743,731.4017c7.6531,10.1292,16.6568,18.2325,34.214,17.5573,17.5573-.6753,29.2941-15.3063,29.6157-27.6864C1612.1257,708.8925,1547.9743,731.4017,1547.9743,731.4017Z"/><path class="cls-7" d="M1590.9669,728.4767a57.19426,57.19426,0,0,1,16.3367,6.2354,26.26685,26.26685,0,0,0,4.5004-13.4395c.3217-12.3801-63.8297,10.1291-63.8297,10.1291,3.8537,5.1007,8.0515,9.6859,13.5099,12.8969C1564.3626,733.6295,1571.9957,724.2849,1590.9669,728.4767Z"/><path class="cls-7" d="M1547.9743,731.4017a71.87651,71.87651,0,0,0,4.627,5.5799c14.3712-11.212,32.3423-6.0713,36.1599.2018,2.6603,4.3713-7.183,8.9207-14.1008,11.4861a46.623,46.623,0,0,0,7.5279.2895c17.5573-.6753,29.2941-15.3063,29.6157-27.6864C1612.1257,708.8925,1547.9743,731.4017,1547.9743,731.4017Z"/><path class="cls-3" d="M1642.6167,613.4994c-8.9147-13.6782-42.3448-24.7666-56.8313-24.7666-14.4864,0-119.7915,15.6008-143.7498,13.3721-20.825-1.9372-63.5351-3.8683-97.0382,4.5101l-.0046-.0035c-8.1733.2909-16.6112-3.6624-24.6139-7.3066-2.7007-1.2299-5.3329-1.4975-7.9077-2.4819-12.3316,13.7044-31.5318,5.228-38.7348,9.8036-7.203,4.5757-7.203,12.4076-4.802,16.2948-1.5786,2.4931-4.2526,6.7764-7.2641,10.9784-3.8591,5.385-3.6426,10.3511-7.0141,11.5311-6.0025,2.1009-16.0774,12.1117-8.4661,23.207-.4922,3.5923,7.913,7.1582,12.7151,8.1808,4.8019,1.0226,16.6319,2.5116,25.9357-3.1908,8.5805-5.259,20.3302-9.5878,25.9249-1.9843,9.9584,16.0014,14.2664,42.4594,19.8358,59.1675,6.686,20.0582,45.1308,26.7442,67.5636,20.0582,22.4328-6.6861,72.2861-1.6715,106.8306,3.9002,28.0473-1.0836,43.401-18.0545,55.6587-26.9692s27.9168,1.8965,47.9749,9.7387c20.0582,7.8422,27.8586-12.8567,32.873-29.046,5.0145-16.1894,5.5718-50.6711,6.129-59.5858C1648.1884,639.9925,1651.5315,627.1776,1642.6167,613.4994Z"/><path class="cls-6" d="M1333.7012,609.1764c21.5937-5.9549,16.3174,6.8659,10.979,9.7921s-15.306,7.7652-18.1021,5.9644c-2.7961-1.8007-7.2644-11.6178-7.2644-11.6178Z"/><path class="cls-5" d="M1453.8105,745.3575c-4.2017.6002-6.4462-1.4206-6.9747-3.7115-.5284-2.291,1.2723-4.6822-3.8297-3.6367-5.1022,1.0456-7.8033.7454-8.7036-1.6555-.9004-2.401-2.7011-1.5243-4.5019-5.264-1.8007-3.7397,2.401-6.8115-3.9016-7.6766s-8.2082-1.7655-10.413,2.1361-3.6488,11.4047-10.1234,14.1058c-6.4747,2.7011-23.1461,4.1117-23.1461,4.1117s-1.0912,3.6915-3.4646,4.5919c-2.3732.9003-8.1829-4.6774-8.4297,4.5627,9.8741,1.0023,19.8696.3243,27.843-2.0521,14.7133-4.3853,41.2224-3.7371,67.4713-1.1996C1460.5051,747.1793,1455.5731,745.1057,1453.8105,745.3575Z"/><path class="cls-5" d="M1583.9142,722.9379c-1.6509-2.4907-4.017-4.874-8.5362-3.5323-4.5193,1.3417-10.5218,1.7859-13.523-.387-3.0013-2.1729-10.2255,5.8806-16.0728,12.0712-5.8474,6.1905-16.9408,14.2677-19.6419,9.1656-2.7011-5.1022-7.203-7.5406-9.3038-1.9695-2.1009,5.5709-7.8033,11.2733-14.1059,11.8735a55.94989,55.94989,0,0,0-10.3725,2.7038c4.3733.6165,8.6125,1.2571,12.6377,1.9063,34.5446,5.5716,44.5736-15.0436,56.8313-23.9584,12.2578-8.9146,26.7442-1.1143,46.8023,6.7279l-6.6529-6.4492C1592.7677,727.3501,1585.5651,725.4286,1583.9142,722.9379Z"/><g class="cls-9"><path class="cls-10" d="M1350.3169,662.9736c8.586-26.2631,7.1005-51.6181,6.4364-58.8279q-1.4829.2598-2.9516.5404C1357.4147,621.4014,1350.3169,662.9736,1350.3169,662.9736Z"/><path class="cls-10" d="M1537.89,593.8347c6.1597,5.6486,5.2327,12.9237-3.6464,26.8214-10.3543,16.2067-3.1513,41.4171-3.1513,41.4171s0-24.7602,4.5019-33.3137c4.5018-8.5535,16.5797-18.2125,18.1939-25.538.8594-3.8997,4.2848-8.8741,9.1223-12.3551C1555.565,591.7113,1547.0126,592.7418,1537.89,593.8347Z"/><path class="cls-10" d="M1602.9344,616.0924c8.0295,6.3466,16.2563-8.1982,23.7618-15.3275-13.5666-7.2079-31.357-12.0321-40.9108-12.0321-.732,0-1.7065.0417-2.88.117C1591.3611,594.5076,1595.0778,609.8823,1602.9344,616.0924Z"/><path class="cls-10" d="M1366.1056,651.1187c-4.822,19.5144,1.6512,37.0652,10.1638,11.8549,8.5127-25.2104,16.1286-13.5056,25.6011-8.1034,9.4725,5.4023,12.5523-18.0074,15.9644-26.5609,3.4122-8.5535,5.628-18.0074,18.9261-18.0074a30.2921,30.2921,0,0,0,20.5307-8.2636,117.21594,117.21594,0,0,1-15.2561.0666c-17.0697-1.5878-48.8413-3.1673-78.1959.9273C1365.0084,608.125,1370.4286,633.6234,1366.1056,651.1187Z"/></g><g class="cls-9"><path class="cls-10" d="M1340.7869,691.986c-3.2285,10.2184-10.6734,13.3953-17.0498,14.1045.434,1.6161.8598,3.2258,1.278,4.8188C1331.9516,708.1768,1339.6975,700.8234,1340.7869,691.986Z"/><path class="cls-10" d="M1313.4536,676.4653c1.029,2.0472,1.9898,4.2102,2.8972,6.4525a9.28408,9.28408,0,0,1,4.0548-1.9202c2.8846-.6144,5.6967-1.1636,8.3633-1.95C1323.5969,679.1154,1318.1556,677.4007,1313.4536,676.4653Z"/><path class="cls-10" d="M1580.3204,687.7338c-7.9454,13.9557-44.3711,20.5285-69.9964,31.6718-71.9699,31.2964-70.8195-14.5466-86.3758-19.4987-15.5563-4.952-29.262-8.5717-38.6924,6.6442s-38.0471,9.9935-33.4937,2.5429c4.5534-7.4505,11.4111-13.7071,9.0572-49.9373,1.8116,29.434-13.4496,57.0852-31.958,66.0181.5716,1.9709,1.1486,3.8613,1.7403,5.6363,6.686,20.0582,45.1308,26.7442,67.5636,20.0582,22.4328-6.6861,72.2861-1.6715,106.8306,3.9002,34.5446,5.5716,44.5736-15.0436,56.8313-23.9584,12.2578-8.9146,26.7442-1.1143,46.8023,6.7279,20.0582,7.8422,27.8586-12.8567,32.873-29.046.1056-.3409.2063-.7011.308-1.0577C1618.1484,694.6131,1585.3196,678.953,1580.3204,687.7338Z"/></g><g class="cls-9"><path class="cls-10" d="M1342.4647,633.1113c.244,18.3024-10.2274,40.7706-26.7344,48.3023q.73485,1.7358,1.4228,3.5412C1341.5826,674.3693,1343.3185,645.9192,1342.4647,633.1113Z"/><path class="cls-10" d="M1344.5655,651.1187c0,15.0935-14.3619,39.5405-21.8433,51.2519q.41055,1.47915.8093,2.9553C1334.6757,690.4102,1345.943,664.0673,1344.5655,651.1187Z"/><path class="cls-10" d="M1643.6386,694.4865s-32.8635-31.5129-59.7244-32.8635c-26.8608-1.3505-4.2019,49.9706-18.1958,50.3184-13.994.3478-35.0763,23.9622-47.6802,22.719-12.6038-1.2431-28.3629-7.7605-47.2707-11.7225-18.9078-3.9619-23.8598-18.9975-40.4461-35.6543-16.5863-16.6569-38.6128,19.9582-38.6128,19.9582s-18.6313,29.4121-32.7372,27.3112c-14.1057-2.1009-13.5055-20.7085-8.6545-38.7159,4.7699-17.7068,7.9415-46.4305,4.0515-61.9375,1.5838,7.1428,1.1656,31.2223-9.6881,66.0074-4.4402,14.2302-10.9755,20.8126-16.5417,22.7257.8081,2.9015,1.6211,5.6527,2.463,8.1784,6.686,20.0582,45.1308,26.7442,67.5636,20.0582,22.4328-6.6861,72.2861-1.6715,106.8306,3.9002,34.5446,5.5716,44.5736-15.0436,56.8313-23.9584,12.2578-8.9146,26.7442-1.1143,46.8023,6.7279,20.0582,7.8422,27.8586-12.8567,32.873-29.046a94.34748,94.34748,0,0,0,2.9087-14.2796C1643.9145,694.39,1643.6386,694.4865,1643.6386,694.4865Z"/></g><path class="cls-7" d="M1537.3949,724.0297c-4.952-11.4237-17.5572,2.8702-23.4158-4.6241-5.8585-7.4943-26.5548-1.9596-38.7098-10.3116-12.155-8.3519-16.6568-16.8584-33.7639-28.0964-17.107-11.2381-24.4756,13.7593-32.1719,13.8075l-2.6621,54.2527c24.8958-3.7391,67.6409.7627,98.3244,5.7117,14.2281,2.2948,24.2916.1428,32.0706-3.8C1539.9199,743.9272,1541.6483,733.8418,1537.3949,724.0297Z"/><path class="cls-3" d="M1413.3414,684.0089c9.1933,20.8939,6.686,44.8522,1.6715,55.4384-5.0146,10.5862-4.1788,32.3159-3.9002,39.2805s-2.5073,11.7006-3.0645,16.9937c-.5571,5.2931,5.5717,29.2514,2.5073,30.6443s-5.5717.2786-7.2432,4.1788-10.8648,5.0145-19.7795,3.6216,6.9646-9.7505,8.0789-11.422c1.1144-1.6715,5.8503-26.187,3.9002-31.4801s-6.1288-11.1434-5.0145-19.5009c1.1143-8.3576-5.8503-28.9729-11.7006-37.609s-15.8793-22.844-11.7005-33.4302C1371.275,690.1378,1413.3414,684.0089,1413.3414,684.0089Z"/><path class="cls-4" d="M1389.2306,824.6193c-4.4248,3.0743-12.6926,8.454-5.6979,9.5469,8.9148,1.3929,18.1081.2786,19.7796-3.6216a6.8935,6.8935,0,0,1,.8085-1.4292C1400.42,826.1779,1394.6676,825.0428,1389.2306,824.6193Z"/><path class="cls-3" d="M1647.4873,651.6993s1.9747,37.3579-5.9849,56.7937c-7.9595,19.4357,8.6362,30.3971,13.3721,41.262,4.736,10.8648-6.4074,46.2451-3.0644,58.2242,3.343,11.9792,7.2432,18.6652,1.6715,17.8294-5.5717-.8357,4.2971,6.9647-5.6518,9.3326-9.949,2.368-26.6641,2.0894-20.2566-5.9895,6.4074-8.079,7.5218-27.5799,6.4074-36.7732-1.1143-9.1934-30.0871-57.11-35.6588-69.6463s-35.9375-30.3657-26.4656-59.06C1581.3281,634.978,1647.4873,651.6993,1647.4873,651.6993Z"/><path class="cls-3" d="M1282.44,607.1506c-4.652-5.2522-9.604-21.4588-18.3076-14.556s-8.7036,16.2067-3.7515,18.6077c4.952,2.4009,16.0566,2.1008,16.0566,2.1008Z"/><path class="cls-6" d="M1267.3253,591.009c3.2392,6.7657-.6401,6.3755-1.5885,12.2125-.7731,4.7584-5.6651,4.076-7.8754,5.4271a5.55752,5.55752,0,0,0,2.5195,2.5537c4.952,2.4009,16.0566,2.1008,16.0566,2.1008l6.0024-6.1525C1278.3893,602.5772,1274.1099,589.7041,1267.3253,591.009Z"/><path class="cls-3" d="M1319.055,606.4003c6.4527-1.9508,8.8537-19.9582,19.6581-14.1058,10.8045,5.8524,13.2986,22.9951,0,23.7097-13.2985.7146-20.4084-3.1513-20.4084-3.1513Z"/><path class="cls-3" d="M1319.055,606.4003c6.4527-1.9508,8.8537-19.9582,19.6581-14.1058,10.8045,5.8524,13.2986,22.9951,0,23.7097-13.2985.7146-20.4084-3.1513-20.4084-3.1513Z"/><path class="cls-4" d="M1318.3047,598.3656a15.68031,15.68031,0,0,1-6.7528,4.5833c-5.3842,1.8538-15.4563-1.6507-10.2251-7.3887,17.7282-7.6175,17.5782-15.4207,14.8771-25.0247-1.3814-4.9115-10.9471-20.8701-10.9471-20.8701s7.3176,4.0257,14.8487,13.8172C1327.6365,573.2741,1329.1092,584.6286,1318.3047,598.3656Z"/><path class="cls-11" d="M1319.3137,566.934c.2587,2.1009-1.7593,0-3.5834-2.1008-.8595-.99-.5375.3208-.3472,3.5048a18.76724,18.76724,0,0,1,.8207,2.1975c2.7011,9.604,2.8512,17.4071-14.877,25.0247-5.2312,5.738,4.8409,9.2425,10.2252,7.3886a15.67971,15.67971,0,0,0,6.7527-4.5832c10.5252-13.3819,9.3972-24.5022,2.37-34.1198A4.72341,4.72341,0,0,0,1319.3137,566.934Z"/><path class="cls-11" d="M1320.5557,569.7852c-.3002,1.6507-.4502,3.0012-1.242,1.5006-.6392-1.2114-1.6858-1.3422-2.3814,2.1338,1.8148,8.3093.314,15.3002-15.6055,22.1406-5.2312,5.738,4.8409,9.2425,10.2252,7.3886a15.67971,15.67971,0,0,0,6.7527-4.5832c9.4616-12.0295,9.5027-22.2306,4.3104-31.1564C1321.1274,564.7201,1320.8486,568.1737,1320.5557,569.7852Z"/><path class="cls-11" d="M1322.7222,575.0265c-1.8851-2.7121-1.8664.0109-2.4667.6111-.3856.3856-1.4716.3867-2.942-.1303,1.0723,7.4067-1.4187,13.7932-15.9867,20.0529-5.2312,5.738,4.8409,9.2425,10.2252,7.3886a15.67971,15.67971,0,0,0,6.7527-4.5832c5.99-7.6157,8.2005-14.4978,7.7015-20.7882A8.86136,8.86136,0,0,1,1322.7222,575.0265Z"/><path class="cls-11" d="M1322.7222,581.2705c-.6845-.9697-2.1665-4.2823-3.4085-2.9318-.5903.6419-1.1762,1.6493-2.0428,2.7686-1.0085,5.1274-5.174,9.8251-15.9441,14.4529-5.2312,5.738,4.8409,9.2425,10.2252,7.3886a15.67971,15.67971,0,0,0,6.7527-4.5832c4.5091-5.733,6.875-11.0499,7.5571-16.0119A4.80163,4.80163,0,0,1,1322.7222,581.2705Z"/><path class="cls-11" d="M1321.456,585.8418c-2.1009,3.4514-2.7478,5.5817-5.7257,4.8917a19.75907,19.75907,0,0,0-5.3508-.1016,47.614,47.614,0,0,1-9.0527,4.9283c-5.2312,5.738,4.8409,9.2425,10.2252,7.3886a15.67971,15.67971,0,0,0,6.7527-4.5832,37.33268,37.33268,0,0,0,6.7738-12.4189C1323.6095,583.4351,1323.2123,582.9564,1321.456,585.8418Z"/><path class="cls-11" d="M1319.3137,592.5946c-1.7593.9004-2.7777,2.1227-5.6449,1.0613-1.4877-.5507-3.4116-1.3152-4.9222-1.9248a52.57568,52.57568,0,0,1-7.4198,3.8291c-5.2312,5.738,4.8409,9.2425,10.2252,7.3886a15.67971,15.67971,0,0,0,6.7527-4.5832,41.88706,41.88706,0,0,0,5.3369-8.6004C1321.0095,590.8238,1320.6321,591.9199,1319.3137,592.5946Z"/><path class="cls-4" d="M1292.4544,597.9173c-5.3625-1.9088-9.4142-4.5724-10.7648-15.677-1.3505-11.1045,3.8648-22.9207,3.8648-22.9207s-8.1887,8.7024-10.1395,13.9545c-1.9508,5.2522-4.075,11.0695,5.3016,29.5259C1283.6404,604.1494,1290.9142,602.1896,1292.4544,597.9173Z"/><path class="cls-11" d="M1281.6896,582.2403a41.266,41.266,0,0,1,.9742-13.7667,2.015,2.015,0,0,1-.9742-.9007c-.3376-.9742-1.1254,1.8747-1.7791,3.1127s-.8094-.4502-.4718-2.0259a.83107.83107,0,0,0-.7371-1.0458,26.64923,26.64923,0,0,0-3.2867,5.6602c-1.9508,5.2522-4.075,11.0694,5.3016,29.5259,2.924,1.3493,10.1977-.6105,11.7379-4.8827C1287.0919,596.0085,1283.0402,593.3449,1281.6896,582.2403Z"/><path class="cls-11" d="M1281.6896,582.2403a34.52581,34.52581,0,0,1-.0919-6.9c-.8824.3585-1.9148.6493-2.3841.2973-.9003-.6753-1.3505,2.0259-2.5885,2.382s-.4502-1.144.4501-4.1748c.406-1.3664-.6774-.9892-2.0181.4041-1.8101,5.0378-3.1427,11.2255,5.6594,28.5511,2.924,1.3493,10.1977-.6105,11.7379-4.8827C1287.0919,596.0085,1283.0402,593.3449,1281.6896,582.2403Z"/><path class="cls-11" d="M1281.6896,582.2403c-.0806-.6632-.1316-1.3284-.1673-1.9937-.9251-.0291-1.6635.0395-1.6118.3431.1341.7878-2.3851,2.476-3.0603,2.2509a13.605,13.605,0,0,0-3.0929-.6567c.2204,4.4878,1.9426,10.7416,6.9592,20.6161,2.924,1.3493,10.1977-.6105,11.7379-4.8827C1287.0919,596.0085,1283.0402,593.3449,1281.6896,582.2403Z"/><path class="cls-11" d="M1282.0579,584.6606c-1.0492-.6978-1.9076-.8796-2.1474.2306-.3592,1.6634-1.4847,2.2261-2.3851,1.776a22.0186,22.0186,0,0,0-3.3245-.9312c.7922,4.1379,2.6988,9.5511,6.5156,17.064,2.924,1.3493,10.1977-.6105,11.7379-4.8827C1287.5081,596.1567,1283.6827,593.7372,1282.0579,584.6606Z"/><path class="cls-11" d="M1283.7253,590.4245a39.48653,39.48653,0,0,1-2.4858,3.2314c-1.5896,1.798-.8203-.5499-5.3943-2.0042a90.64269,90.64269,0,0,0,4.8713,11.1483c2.924,1.3493,10.1977-.6105,11.7379-4.8827C1288.7762,596.6081,1285.7198,594.929,1283.7253,590.4245Z"/><path class="cls-11" d="M1286.3473,594.3799a8.31106,8.31106,0,0,0-1.7315,1.4035c-1.3505,1.1255-3.4457.858-4.7053.8229a10.15719,10.15719,0,0,0-1.9588.3677c.7833,1.7892,1.6955,3.7212,2.7648,5.826,2.924,1.3493,10.1977-.6105,11.7379-4.8827A15.41692,15.41692,0,0,1,1286.3473,594.3799Z"/><path class="cls-12" d="M1664.2507,713.3344c.671,6.9274-7.547,16.1562-3.1004,26.2854a44.09842,44.09842,0,0,1,3.1397,20.7085,19.2831,19.2831,0,0,0,3.1179-4.0464,2.85963,2.85963,0,0,0,.3846-2.2562c.2805,1.1255,5.6827-3.1513,4.1071-12.155a9.64333,9.64333,0,0,1,1.3505,3.3764,22.08488,22.08488,0,0,0,0-17.5572,33.31949,33.31949,0,0,1,1.8007,2.9262,135.7274,135.7274,0,0,1-8.8188-18.6747C1667.2511,715.7915,1664.2507,713.3344,1664.2507,713.3344Z"/><g class="cls-9"><path class="cls-10" d="M1669.8754,730.3477c0-2.9685.5628-3.6717-1.7393-6.318,1.1869,1.2929.6139,6.1352.6139,11.2942,0,3.6949,2.1307,8.7889,3.3431,11.3908a17.252,17.252,0,0,0-.115-4.2524,14.09719,14.09719,0,0,0-.8646-1.9833C1669.5321,737.5347,1669.8754,733.3162,1669.8754,730.3477Z"/><path class="cls-10" d="M1669.7072,752.9496a8.74426,8.74426,0,0,0,.7132-1.0123Z"/><path class="cls-10" d="M1664.8109,737.5736c-.9004-1.3633-.1126-9.0969-.1126-9.0969s-2.1384,4.3893-1.0129,8.5535c.9533,3.5275,4.5703,7.0575,4.3095,17.1531.322.0467.977-.3523,1.6858-1.1995C1669.6701,752.9257,1667.6418,741.86,1664.8109,737.5736Z"/></g><path class="cls-6" d="M1311.3822,672.672a10.15053,10.15053,0,0,1,3.171-3.7531,90.9262,90.9262,0,0,1,9.2288-2.794c4.7269-1.1255,11.2546-13.7307,8.1033-20.4835,0,4.2768-4.0517,13.9558-9.4539,16.2067s-17.5572,1.5757-27.8071,7.0708c6.2738-2.1162,12.5066-2.2152,16.1415,2.7247C1310.9749,671.9796,1311.178,672.3268,1311.3822,672.672Z"/><g class="cls-9"><path class="cls-10" d="M1401.8265,784.0734c1.15,2.7784,5.242,3.2697,8.2077,3.2393a31.50153,31.50153,0,0,0,1.0511-6.1104C1408.1442,784.4513,1403.8542,786.6105,1401.8265,784.0734Z"/><path class="cls-10" d="M1399.188,721.6477c.9004,6.0025,12.3615-2.1932,14.0932,7.8032s-9.5913,16.8044-7.1903,26.2595a64.24105,64.24105,0,0,0,4.7969,11.7673c.057-9.2403.8205-21.0542,4.1251-28.0304,3.0412-6.4205,5.1546-17.7621,4.3003-30.3533C1410.4453,717.3601,1398.541,717.3347,1399.188,721.6477Z"/><path class="cls-10" d="M1408.792,812.285c1.2005,8.4035,1.8007,16.2114-3.9017,13.5079-5.7023-2.7034-1.578,4.7517-1.578,4.7517,1.6715-3.9002,4.1787-2.7858,7.2432-4.1788,2.1138-.9608-.1463-12.6573-1.5693-21.5595A28.8372,28.8372,0,0,0,1408.792,812.285Z"/></g><path class="cls-7" d="M1628.006,762.8071c-4.378-9.1112,2.5773-16.9994,3.4461-26.6723.8689-9.6728-9.8725-12.8364-18.7273-19.5892-8.8549-6.7528-20.8575-42.3174-22.0451-54.4724-.98-10.0303-15.7796,4.1577-19.7827,19.9086,4.261,18.383,23.1476,31.1267,27.4248,40.7504,4.9666,11.1748,28.5264,50.4611,34.3748,65.3745C1634.0045,780.6295,1631.5837,770.2529,1628.006,762.8071Z"/><g class="cls-9"><path class="cls-10" d="M1652.663,745.7383a60.35318,60.35318,0,0,1-1.0712,8.4486c-1.2004,4.6278-10.8044-.7261-11.4045-9.1296a48.81908,48.81908,0,0,0-7.1313-21.0276c3.073,11.6858,2.0291,22.5283,4.4624,28.4137,2.4332,5.8855,9.2715,13.3224,13.7734,10.4065a11.49043,11.49043,0,0,0,4.7661-5.3297,20.55933,20.55933,0,0,0-1.1833-7.7653A28.66407,28.66407,0,0,0,1652.663,745.7383Z"/><path class="cls-10" d="M1626.6962,755.7104c-4.7717-4.1211-2.5173,5.2965-2.9815,13.9675,1.0127,1.9039,1.9828,3.7536,2.8975,5.5304,1.5804-1.8056,3.9798-4.9119,4.5713-7.7306.9004-4.2908,5.7024,5.4911,9.0038,6.8518,3.3012,1.3606,3.6015,15.4462,6.0023,24.45.3003-6.3026,2.101-16.2067-1.7785-23.1096C1640.5315,768.7671,1632.0839,760.3636,1626.6962,755.7104Z"/></g><path class="cls-7" d="M1646.7741,622.0572c-1.6029,13.076-25.4451,13.992-30.9565,15.8986-5.762,1.9934,1.2601,13.313,4.1301,21.2009,2.8701,7.8879-1.0693,14.1711-4.1301,29.0272-3.0608,14.8562,9.8136,8.5536,17.2384-4.175,5.6932-9.7602,6.2394-15.0652,13.8094-18.4306.3791-7.4114.5728-13.5798.766-16.6711C1648.0703,641.8834,1650.2341,632.4378,1646.7741,622.0572Z"/><path class="cls-5" d="M1269.1822,611.2624a9.08831,9.08831,0,0,0,.5567,3.5413c2.0467,6.3026,3.8058,8.7787,0,13.0554a51.51212,51.51212,0,0,1-8.6407,6.8317c-3.7178,5.0993-7.8655,9.9035-11.0716,11.0256-6.0024,2.1009-14.0219,12.9238-6.4107,24.0192-.4921,3.5922,7.3111,9.3502,12.1131,10.3728,4.8019,1.0226,19.8081-.7781,29.1119-6.4805q.7908-.4845,1.6155-.956c-.2648-2.4954,3.5617-5.1965,1.986-7.4474-1.5756-2.2509-.4502-.6753-1.5756-2.2509-1.1255-1.5757,1.8892-4.5019,1.9575-5.1772.0683-.6752-.5185-2.0258,0-2.9262.5185-.9003-1.4076-1.3505.0056-2.476,1.4133-1.1254,9.0501-7.203,5.7944-8.3284-3.2557-1.1255-5.0564-1.3506-5.0564-3.3764s4.5018-22.6331,11.4797-24.597,15.6347.0619,14.6827-4.665-4.9126-9.4162,3.5834-12.605c-2.3322-1.0566-4.6268-2.0721-6.8614-2.9264-10.2042-3.9017-31.5129,6.155-38.7159,10.7306A13.6415,13.6415,0,0,0,1269.1822,611.2624Z"/><path class="cls-13" d="M1263.0104,675.5558c4.055-.6982,3.598-2.228,1.5722-5.6828-2.0258-3.4549,3.8266-5.9991,1.5757-10.84-2.2509-4.8406-16.1304-13.3157-21.3439-9.5908a15.88442,15.88442,0,0,0-1.1985,20.2934c-.4921,3.5922,7.3111,9.3502,12.1131,10.3728,2.0612.4389,6.0045.3558,10.5679-.3309A6.55284,6.55284,0,0,0,1263.0104,675.5558Z"/><path class="cls-13" d="M1263.082,674.0781c1.6507-1.4028.6002-.7503.3001-4.6519s2.0943-4.4934,0-9.0037c-1.8626-4.0115-11.9527-10.2759-19.5211-9.8039a15.77471,15.77471,0,0,0-.2451,19.117c-.4921,3.5922,7.3111,9.3502,12.1131,10.3728a31.08685,31.08685,0,0,0,8.9526-.1103C1263.5181,678.0398,1261.9916,675.0048,1263.082,674.0781Z"/><path class="cls-13" d="M1261.7314,672.672c-1.2789-2.8839,1.9096-6.0331,0-11.7993-1.5801-4.7714-12.7761-8.6635-18.8823-8.7322-2.7639,4.619-3.7209,11.0531.7668,17.5951-.4921,3.5922,7.3111,9.3502,12.1131,10.3728a20.67483,20.67483,0,0,0,4.7149.2413C1261.2597,678.5181,1262.6712,674.7911,1261.7314,672.672Z"/><path class="cls-6" d="M1295.4203,666.2266a21.2178,21.2178,0,0,0,15.5314-9.3305c-3.6015,3.6014-14.4059,6.9778-18.4973,6.9778-4.0913,0-6.9382,2.0259-9.3623,5.8617s-16.4837,6.2933-21.6608,5.7453-13.5056-3.5036-17.8154-5.7453c-.4921,3.5922,7.3111,9.3502,12.1131,10.3728,4.1127.8758,15.7082-.322,24.7979-4.2656a50.552,50.552,0,0,0,4.0889-3.1708C1288.1013,669.765,1290.6934,666.5751,1295.4203,666.2266Z"/><path class="cls-6" d="M1257.6798,673.4779c-1.6507-3.9016-4.1439-15.2997,1.58-15.745,5.7238-.4453,8.2998,5.3441,4.9355,6.718-3.3642,1.3738-5.7652,1.824-5.7652,2.8745C1258.4301,668.3758,1257.6798,673.4779,1257.6798,673.4779Z"/><path class="cls-6" d="M1256.3292,662.2233c1.3673-3.4217,5.1771-5.5329,7.4281-3.0666,2.2509,2.4663,2.8269,3.9203.438,5.2942-2.3888,1.3738-4.7148.4717-6.0654,1.0353-1.3505.5636-1.6571,4.1451-1.6571,4.1451S1255.7502,663.6722,1256.3292,662.2233Z"/><path class="cls-6" d="M1262.9319,659.1567c2.0395,2.4342-1.8007,4.8957-3.9766,5.2942-2.1759.3984-2.5112-.0963-1.9174-2.2276C1257.6317,660.0919,1261.4313,657.3657,1262.9319,659.1567Z"/><path class="cls-6" d="M1242.6736,663.858c.5621-2.9621,1.4949-7.4435-.5224-10.4135a16.00543,16.00543,0,0,0-1.5216,5.1063C1241.6827,658.9253,1242.2081,662.6088,1242.6736,663.858Z"/><path class="cls-6" d="M1250.0266,645.7164a11.25761,11.25761,0,0,0-3.0719,1.7311c1.182-.8763,7.2338-4.7407,15.4029,1.0748-4.1035-2.9981-5.7428-6.1713-4.2596-9.9304C1255.262,642.0617,1252.3888,644.8897,1250.0266,645.7164Z"/><path class="cls-6" d="M1324.4572,611.8025c4.2018-4.2017,8.8537-15.0062,12.9054-13.9557.15,1.2005-1.5007,4.2659-1.5007,4.2659s3.9016,2.0151,4.9521,0c.6002,2.787-3.0013,2.6762-3.0013,2.6762s3.9241,1.3113,4.8132,4.3875c.8892,3.0763-3.7627,4.751-7.5143,4.1387C1331.3601,612.7029,1324.4572,611.8025,1324.4572,611.8025Z"/><path class="cls-14" d="M1295.9322,630.7538c3.3174-6.8006,7.6299-16.4208,16.4208-6.8006-1.8245,3.6491-6.3029,4.4784-8.2104,3.3174C1302.2352,626.1095,1295.9322,630.7538,1295.9322,630.7538Z"/><path class="cls-15" d="M1302.802,627.1444a1.96714,1.96714,0,0,1,1.3406.1262,3.0045,3.0045,0,0,0,.6357.2771,6.42475,6.42475,0,0,0,2.5156-.4764c3.1042-1.2426,3.4607-3.5033,3.2049-4.9162-4.5683-3.8796-7.8126-2.2361-10.3422,1.07A3.97865,3.97865,0,0,0,1302.802,627.1444Z"/><path class="cls-16" d="M1310.1686,623.7256a1.4491,1.4491,0,1,1-1.4491-1.4492A1.44912,1.44912,0,0,1,1310.1686,623.7256Z"/><path class="cls-7" d="M1417.9272,730.3709c-4.1504,11.7407-14.4863,22.4183-14.9876,31.9435-.6003,11.4048.3001,22.2092-2.7011,23.8599,4.952,5.1021.475,11.1532,1.588,18.632,1.1131,7.4787,6.8154,15.8822,1.5633,19.1835-5.2522,3.3014-6.3026,1.5007-6.3026,4.0517,0,1.8863-10.4962,4.0994-15.9693,5.1254a3.873,3.873,0,0,0,2.4148.9993c8.9148,1.3929,18.1081.2786,19.7796-3.6216s4.1787-2.7858,7.2432-4.1788c3.0644-1.3929-3.0645-25.3512-2.5073-30.6443.5572-5.2932,3.3431-10.0291,3.0645-16.9937s-1.1144-28.6943,3.9002-39.2805A42.57737,42.57737,0,0,0,1417.9272,730.3709Z"/><path class="cls-4" d="M1630.57,823.7141a21.61228,21.61228,0,0,1-2.9968,5.4375c-6.4075,8.079,10.3077,8.3576,20.2566,5.9897,7.003-1.6669,4.1905-6.022,3.8519-8.1655C1645.2037,826.4172,1636.6113,824.2747,1630.57,823.7141Z"/><path class="cls-7" d="M1654.8746,749.7549a31.94292,31.94292,0,0,0-2.8983-5.0545c-.5447,11.2509-6.5853,16.7131-10.1659,15.6279,13.1943,10.2144,4.1233,29.1473,2.6007,38.4512-1.5227,9.3038,4.4029,15.0061,4.2912,18.6076-.0867,2.7962-12.4065,12.7424-22.4071,14.0646-1.66,5.8032,12.6366,5.8073,21.5346,3.6896,9.9489-2.368.0801-10.1684,5.6518-9.3327,5.5717.8358,1.6715-5.8503-1.6715-17.8294C1648.4671,796,1659.6105,760.6198,1654.8746,749.7549Z"/><path class="cls-7" d="M1654.8746,749.7549c-4.736-10.8648-21.3317-21.8262-13.3722-41.2619a61.63839,61.63839,0,0,0,3.0122-10.0488c-4.6526,10.7641-13.5078,21.4983-6.9962,30.0325,8.0711,10.5782,12.6253,20.6189,8.4586,26.2353-4.1666,5.6163-9.626,9.2442-5.5958,15.1011,4.0299,5.8568,2.492,24.4645.999,31.3674-1.4932,6.9028,7.6664,17.4088,5.4875,24.6109-1.8537,6.128-10.9692,10.2972-19.1301,9.0023,3.7642,2.327,13.4372,1.9315,20.0922.3476,9.9489-2.368.0801-10.1684,5.6518-9.3327,5.5717.8358,1.6715-5.8503-1.6715-17.8294C1648.4671,796,1659.6105,760.6198,1654.8746,749.7549Z"/></g></g></svg>