<svg xmlns="http://www.w3.org/2000/svg" viewBox="0 0 1800 1300"><defs><style>.cls-1{isolation:isolate;}.cls-2{fill:#fff;}.cls-10,.cls-3{fill:#f2e1d1;}.cls-4{fill:#bd9f83;}.cls-12,.cls-5{fill:#e6e6e6;}.cls-11,.cls-16,.cls-17,.cls-5,.cls-7,.cls-8{mix-blend-mode:multiply;}.cls-6{fill:#fdbcb4;}.cls-7{fill:#ebebeb;}.cls-8{fill:#f2f2f2;}.cls-9{fill:#2f2f2f;}.cls-10{opacity:0.1;}.cls-13{fill:#050505;}.cls-13,.cls-15{mix-blend-mode:screen;}.cls-14{fill:#383838;}.cls-15{fill:#333;}.cls-16{fill:#ccc;}.cls-17{fill:#d9d9d9;}</style></defs><g class="cls-1"><g id="Layer_1" data-name="Layer 1"><rect class="cls-2" width="1800" height="1300"/><path class="cls-3" d="M1063.9535,181.544c8.5772,13.1465-14.3595,104.1207-4.9976,124.1034,9.3619,19.9828,11.6638,18.4052,5.8319,33.1294-5.8319,14.7241-10.411,44.1724-8.1214,52.5862,2.2895,8.4138-6.1362,2.1034-6.6043,6.8362-.4681,4.7327,8.4258,16.3017,0,17.8793-8.4257,1.5776-34.1709,8.4138-27.6176,0,6.5534-8.4138,15.4472-18.931,18.2557-34.181,2.8086-15.25,8.8938-34.7069-1.4042-65.2069-10.2981-30.5001,5.3858-107.8018,5.3858-107.8018Z"/><path class="cls-4" d="M1034.3988,399.0928c-3.7017,6.6747-8.2085,12.1765-11.9543,16.9857-6.5533,8.4138,19.1919,1.5776,27.6176,0a4.53759,4.53759,0,0,0,2.835-1.4794C1051.4094,409.8425,1045.8669,402.0452,1034.3988,399.0928Z"/><path class="cls-5" d="M1048.4508,396.0265c-1.7973-4.1141,2.5814-3.2097,2.9892-9.8758.4078-6.6662-.1609-11.3572,0-16.6351.1609-5.2778,4.2832-16.202,8.4804-22.3743a69.983,69.983,0,0,0,4.8238-8.2504c.0146-.0371.029-.0772.0436-.1142,5.8319-14.7241,3.53-13.1465-5.8319-33.1292-9.3618-19.9828,13.5748-110.957,4.9976-124.1035l-19.2718,27.3448s-15.6838,77.3018-5.3857,107.8017c10.2981,30.5001,4.2128,49.957,1.4042,65.2069-2.8085,15.25-11.7023,25.7673-18.2557,34.1811-6.5533,8.4138,19.1919,1.5776,27.6176,0a5.15017,5.15017,0,0,0,2.3343-.9799C1051.3472,408.5924,1049.6267,398.7183,1048.4508,396.0265Z"/><path class="cls-5" d="M1044.2057,405.9845c1.1564-8.8882,8.4037-9.798,9.1122-25.0186.7085-15.2207.5948-28.3107,4.6972-38.5157,2.6364-6.5583,6.4381-12.8456,9.249-19.2919-1.2248-3.7423-4.0251-8.3687-8.3082-17.5108-9.3618-19.9828,13.5748-110.957,4.9976-124.1035l-19.2718,27.3448s-15.6838,77.3018-5.3857,107.8017c10.2981,30.5001,4.2128,49.957,1.4042,65.2069-2.8085,15.25-11.7023,25.7673-18.2557,34.1811-6.5245,8.3768,18.9603,1.6392,27.4996.0229C1047.0665,414.5167,1043.4982,411.4228,1044.2057,405.9845Z"/><path class="cls-6" d="M989.73607,337.1804c2.8334,7.6154-.0324,16.8739,2.9745,17.7998,3.0068.9258,4.9515-11.6658,5.3679-12.5917C998.495,341.4627,989.73607,337.1804,989.73607,337.1804Z"/><path class="cls-7" d="M989.73607,337.1804a21.11363,21.11363,0,0,1,1.0953,4.5992c2.29763,3.4916,4.5014,9.0409,3.8717,11.8449,1.86693-3.1428,3.06-10.5346,3.3754-11.236C998.495,341.4627,989.73607,337.1804,989.73607,337.1804Z"/><path class="cls-7" d="M989.73607,337.1804a23.85523,23.85523,0,0,1,1.3046,6.7405c2.709,2.1882,5.162,2.2165,5.5356,4.7071.7941-2.9142,1.3105-5.8132,1.5022-6.2395C998.495,341.4627,989.73607,337.1804,989.73607,337.1804Z"/><path class="cls-6" d="M1008.8978,341.0254c4.8148,6.5452,4.6002,16.2347,7.7457,16.2997,3.1455.0651,1.5595-12.5768,1.7058-13.5814C1018.4957,342.7391,1008.8978,341.0254,1008.8978,341.0254Z"/><path class="cls-7" d="M1018.5084,353.5116c.3534-3.7903-.2521-9.1293-.1591-9.7679.1464-1.0046-9.4515-2.7183-9.4515-2.7183,2.8437,3.8658,3.933,8.8272,4.9964,12.2559A5.96035,5.96035,0,0,1,1018.5084,353.5116Z"/><path class="cls-7" d="M1018.606,349.5173c-.0655-2.7834-.3193-5.3438-.2567-5.7736.1464-1.0046-9.4515-2.7183-9.4515-2.7183,4.4077,5.9918,4.6022,14.6136,7.0166,16.0794C1014.6312,353.7211,1015.4733,350.7047,1018.606,349.5173Z"/><path class="cls-6" d="M1057.3658,324.8792c-7.8173,20.325-30.6399,26.8099-48.3536,23.4587-17.71373-3.3513-37.82112-18.6712-37.34242-33.5124.4788-14.8412,62.23732-76.8364,77.07862-58.765C1063.5896,274.1318,1066.9408,299.9843,1057.3658,324.8792Z"/><path class="cls-7" d="M1002.3939,310.8477c7.6538-13.5792,13.3323-38.0218,22.4675-13.0854,6.3828,17.4235-5.9112,39.2925-13.9023,50.897,17.4031,2.5376,38.8727-4.1918,46.4067-23.7801a83.00343,83.00343,0,0,0,3.3508-10.8846c-3.9221-16.185-7.4365-41.0627-5.5033-48.2559a59.67838,59.67838,0,0,0-6.4649-9.6783c-14.8413-18.0713-76.59992,43.9238-77.07862,58.7651-.2894,8.9733,6.9511,18.1169,16.6336,24.689C986.24868,327.8605,995.00907,323.9499,1002.3939,310.8477Z"/><path class="cls-8" d="M999.27057,319.5445c-4.3013-23.1606,13.7-32.5918,16.21243-46.652,0,0,.423-3.8834,1.0403-9.0782-21.37383,15.2533-44.56092,41.9397-44.85352,51.0112-.47878,14.8412,19.62869,30.1611,37.34242,33.5124,17.7137,3.3512,40.5363-3.1337,48.3536-23.4587a75.94879,75.94879,0,0,0,4.5746-38.8734C1052.3067,345.211,1003.2952,341.2156,999.27057,319.5445Z"/><path class="cls-5" d="M991.03667,329.9409c-3.29189-15.1429.9236-24.7485,12.07393-38.6737,0,0-.397-6.5944-.8591-15.8842-16.29042,14.696-30.35422,32.3908-30.58172,39.4425-.47878,14.8412,19.62869,30.1611,37.34242,33.5124a47.81869,47.81869,0,0,0,4.7475.6455C1002.5254,344.1087,992.61,337.1779,991.03667,329.9409Z"/><path class="cls-7" d="M1048.7484,256.0604c-3.9086-4.7592-11.073-3.9609-19.5135.0626l24.083,13.9648c1.1709,41.2537-13.1491,71.2254-44.5047,70.436a59.23561,59.23561,0,0,1-28.51312-7.636,57.47636,57.47636,0,0,0,28.71212,15.4501c17.7137,3.3512,40.5363-3.1337,48.3536-23.4587C1066.9408,299.9842,1063.5896,274.1318,1048.7484,256.0604Z"/><path class="cls-3" d="M855.58488,308.1671c.6383,9.2558,2.5533,20.4266,4.4683,30.3208,1.915,9.8941-1.2767,16.2774-2.23418,22.6607s9.89418,41.8108,9.25578,45.0024c-.6383,3.1917-4.1491,2.2342-4.1491,2.2342s6.7567,5.1066,4.17632,7.66c-2.58052,2.5533-20.77292,11.671-21.09212,6.9526-.3192-4.7185,6.2303-12.3785,5.5089-18.1235-.7214-5.7449-5.5089-30.6516-9.6581-38.6249-4.1491-7.9733-2.2341-41.8048-5.4258-46.9115C833.24328,314.2313,855.58488,308.1671,855.58488,308.1671Z"/><path class="cls-5" d="M866.83608,416.2845a5.1442,5.1442,0,0,0,.8368-1.7967c-.1837-2.6476-4.7472-6.1027-4.7472-6.1027s2.9302.7909,3.92032-1.5136c-1.80742-5.6669-5.56422-12.5907-8.47422-18.9926-2.4896-5.4771-2.1344-14.3592-.5019-23.9703a12.1275,12.1275,0,0,1-.05088-2.76c.95748-6.3833,4.14918-12.7666,2.23418-22.6607-1.915-9.8942-3.83-21.065-4.4683-30.3208,0,0-22.3416,6.0641-19.15,11.1708,3.1917,5.1067,1.2767,38.9382,5.4258,46.9115,4.1492,7.9733,8.9367,32.8799,9.6581,38.625.7214,5.7449-5.8281,13.4049-5.5089,18.1234.3099,4.5816,17.4687-3.881,20.82612-6.7133Z"/><path class="cls-5" d="M856.72888,409.6433c10.1797-10.1568.32612-12.2178-2.3074-22.0936s-2.9627-22.0559-2.5154-28.6545c.29492-4.3491,3.7475-11.8339,8.2488-19.7944-.03588-.2058-.0612-.4041-.1017-.6129-1.915-9.8942-3.83-21.065-4.4683-30.3208,0,0-22.3416,6.0641-19.15,11.1708,3.1917,5.1067,1.2767,38.9382,5.4258,46.9115,4.1492,7.9733,8.9367,32.8799,9.6581,38.625.7214,5.7449-5.8281,13.4049-5.5089,18.1234.31,4.5816,17.469-3.8812,20.8262-6.7133C858.684,416.2556,851.40088,414.9593,856.72888,409.6433Z"/><path class="cls-5" d="M845.99858,366.2495c2.7018-21.9455,8.7673-20.7205,14.4972-24.6662-.097-.9959-.2347-2.0214-.4426-3.0954-1.915-9.8942-3.83-21.065-4.4683-30.3208,0,0-22.3416,6.0641-19.15,11.1708,3.1917,5.1067,1.2767,38.9382,5.4258,46.9115a54.38743,54.38743,0,0,1,3.3122,9.1258C845.371,372.2101,845.64158,369.1488,845.99858,366.2495Z"/><path class="cls-3" d="M794.054,173.5946c9.575,15.32,44.04488,21.5437,75.64228,18.1925,31.5975-3.3513,108.1972-8.6175,129.26219-12.4475,21.06493-3.83,60.97-16.7562,65.43373,1.4362,4.4636,18.1925-9.8989,80.9086-12.7714,98.6223-1.6277,10.0376-10.7846,19.0583-28.5484,27.0872-18.9047-36.9903-23.0213-4.8848-34.9984,4.8562-11.21242,9.119-13.33642,9.7459-18.79792,10.6652-48.3536,8.1387-70.37608,8.1387-88.5685,3.83-18.1925-4.3087-77.07858,31.1187-86.65358,5.745-9.57492-25.3737-3.35122-75.6423-29.68242-110.591C738.04038,186.0421,794.054,173.5946,794.054,173.5946Z"/><path class="cls-5" d="M997.94977,233.3891c-4.6087,14.9118-3.6212,25.7752,3.29193,43.8809,1.9555,5.1216,1.6964,10.5212.322,15.6325,5.2113-6.2057,11.1322-6.7206,21.5087,13.5828,1.3192-.5963,2.5756-1.1998,3.8003-1.807Z"/><path class="cls-9" d="M869.69628,191.787c-2.7128.2877-5.4471.4996-8.1847.6465-1.206,4.3849-.479,8.5977,2.6211,9.2866-2.4689,2.4689-3.1776,7.9006-1.5888,9.382s-2.7913,5.4317-1.5888,7.9006c1.2024,2.469,7.8221,3.9504,6.7343,7.4069-1.0877,3.4565-4.2568,5.4317-3.413,7.4068.8439,1.9752-2.4785.9876-3.5332,7.4069-1.0546,6.4193,5.6521,10.9103,3.5332,14.8371-2.1189,3.9269-3.6928,7.3834-3.6465,9.3586s7.1597,11.851,7.0595,14.3199c-.1002,2.469-4.8649,0-3.4701,6.9131,1.3948,6.913,4.8513,25.7476,12.7519,21.5151,1.4814,5.6433,30.1212,17.9881,31.6026,17.0005s5.9255-4.4441,5.9255-4.4441,13.3323.9876,14.81372.4938,9.382-3.4566,12.83848-4.9379c3.4566-1.4814.4938-8.3945,0-10.8634,11.851-2.469,14.8137-6.9131,13.3324-10.8634-1.4814-3.9503-5.4317-4.9379-7.40688-7.4068-1.97522-2.469-3.95032-6.4193,0-11.851s6.62948-10.3696,7.75878-14.8137c1.1294-4.4441-.3519-11.3572-5.28978-14.3199s-12.34482-3.4565-11.851-12.3448c.49378-8.8882,7.40678-14.3199,10.86338-9.8758,3.4565,4.4442,14.3199,7.9007,14.3199,7.9007s.9876-8.3147,5.43172-2.676,14.31988,7.6139,14.31988,7.6139,10.93069-.4226,11.69339,2.4689,15.465,6.4193,16.94643-.4938a92.27615,92.27615,0,0,1,4.9413-14.8137s4.8287,2.9628,3.6471,8.3945c-1.1815,5.4317-8.0878,9.8758-3.6471,13.8261s10.4948,3.9973,12.1588,9.8992c1.6639,5.9021.6763,9.3586,2.6515,12.8151,1.9752,3.4566,17.7764,3.4566,18.2702-.9875.2196-1.9763,2.2478-4.1355,4.6368-6.1017,5.0426-25.9015,12.9305-66.8816,9.4639-81.0104-2.6251-10.699-17.5096-10.6319-33.6093-7.9852-1.4943,5.3478-2.2018,9.2074-4.1933,8.7533-2.4689-.5631-2.5748-.9184-5.7315,0-3.1567.9183-2.1623,3.3872-3.6471,4.8686s-2.9661,3.9503-5.9289,4.9379c-2.9627.9876-2.4689-1.9386-8.8882-2.2038-6.41933-.2651-10.86343,1.2528-10.86343,0,0-1.2527,9.87583-5.6968,11.851-4.7093,1.9751.9876,8.2267,1.6109,7.4068-2.8934a37.28989,37.28989,0,0,0-1.2044-4.4194c-3.8442.8527-7.4511,1.6378-10.62543,2.215C977.89358,183.1696,901.29378,188.4358,869.69628,191.787Z"/><path class="cls-8" d="M1013.7511,252.7903l-11.1926-19.4012c-6.90293,24.1278,3.9583,47.0444-30.89712,70.1956-34.8553,23.1512-80.794-.3085-111.0325,15.1636-25.8133,13.2079-54.5366,21.5429-69.5592,2.0232a71.17,71.17,0,0,0,2.9844,10.8102c9.57492,25.3736,68.461-10.0538,86.6535-5.745,18.19242,4.3087,40.2149,4.3087,88.56842-3.83,5.46158-.9193,7.58558-1.5462,18.798-10.6652,11.9771-9.741,16.0937-41.8465,34.9984-4.8562,1.6926-.7651,3.2823-1.5421,4.8195-2.3251Z"/><path class="cls-5" d="M995.32617,290.1085c-6.59379,17.118-16.79879,24.7398-43.46349,26.8544s-81.6073-1.6924-94.1493-3.4817c-12.5419-1.7893-22.3851,24.6895-44.7702,23.0436-15.7029-1.1546-18.4484-10.2919-22.4371-18.6968a78.94862,78.94862,0,0,0,3.548,13.7537c9.57492,25.3736,68.461-10.0538,86.6535-5.745,18.19242,4.3087,40.2149,4.3087,88.56842-3.83,5.46158-.9193,7.58558-1.5462,18.798-10.6652C988.074,311.3415,994.34847,305.5806,995.32617,290.1085Z"/><path class="cls-5" d="M843.63018,299.1422l-16.038,13.041-.7564,26.3399c20.0931-4.7708,43.5417-15.133,53.8718-12.6864a108.22789,108.22789,0,0,0,22.27342,2.7977C887.77428,313.0029,850.777,324.2534,843.63018,299.1422Z"/><path class="cls-9" d="M774.39538,238.0892l-.00138-.0145s.02118.0502.054.1261c.045.1.08948.2001.13418.3003.7521,1.6531,3.7477,7.6601,7.5814,7.6601,4.4441,0,2.6041-.4938,5.4992,2.4689,2.89522,2.9628,9.75122,3.0097,8.54522,7.4303-1.20592,4.4207.45058,7.8772,6.53538,12.3213,6.0848,4.4442,20.7413,0,21.3137-.9875.5724-.9876,21.8054-14.3199,21.8054-18.7641,0-4.4441,5.4317-5.4316-.9876-10.8633s-13.3323-9.6116-11.851-14.1878c1.2619-3.8981,10.3939-20.2361,4.2262-31.7081-19.891-2.0807-36.9094-8.2177-43.196-18.2763,0,0-56.0137,12.4475-29.6825,47.3961A89.103,89.103,0,0,1,774.39538,238.0892Z"/><path class="cls-3" d="M1053.3179,171.8975c18.0912,2.495,27.6662,34.4116,27.9854,63.1365.3191,28.7249,1.2766,99.2606,6.7025,108.5164-2.5534,6.0642-4.7875-6.0641-6.7025-22.3416s-2.8725-43.4066-3.1917-56.4924-.3711-48.184-6.0641-59.3648c-5.6931-11.1808-9.2869-1.915-9.2869-1.915Z"/><path class="cls-9" d="M1077.737,248.2653c2.7557-3.3272,3.6321-7.5585-.706-14.8762C1077.373,238.4285,1077.5898,243.5319,1077.737,248.2653Z"/><path class="cls-9" d="M1076.6301,228.2207a56.20982,56.20982,0,0,0,4.0901-4.3526c-2.3412-25.278-11.6366-49.7963-27.4023-51.9706l-4.8671-.5362,14.3098,32.0753s3.5938-9.2658,9.2869,1.915C1074.3995,209.9709,1075.7871,218.6753,1076.6301,228.2207Z"/><path class="cls-3" d="M1053.3179,208.1394c11.7145,14.5137-2.0162,88.1418-3.2929,101.0498-1.2766,12.9079,1.5958,20.4375,2.8725,27.2501,1.2767,6.8125-9.8941,20.5265-11.8091,34.2863-1.915,13.7599,1.2766,41.3685-3.1917,42.0856s-8.3317-8.0045-7.1979-3.1058c1.1338,4.8986,11.6662,14.3923-2.6962,15.9201-14.3625,1.5279-33.19333,2.245-27.7674-2.4162,5.4258-4.6612,13.1593-9.3224,20.6229-27.9672s6.5061-63.464,2.9953-84.9773c-3.5108-21.5132-18.8308-24.0231-27.7674-68.1252S1053.3179,208.1394,1053.3179,208.1394Z"/><path class="cls-3" d="M796.20838,278.4406c-.10738,31.5974,22.74062,43.0874,22.2618,55.5348-.4787,12.4475-.9575,25.3737,2.8725,34.4699,3.83,9.0963,4.3088,41.1724,0,46.4387-4.30868,5.2662-17.5942,13.4049-12.4474,13.4049,5.14672,0,23.698,2.0163,27.528-1.5053,3.83-3.5215-2.3937-10.9421,0-10.224s5.9844.7181,5.0269-3.3513c-.9575-4.0693-5.2663-21.3043-3.5907-30.8793,1.6757-9.5749,5.1049-24.6555,3.7493-31.8367-1.3555-7.1813.5595-30.8793,5.347-45.0024s7.66-25.6131,1.1968-36.6243c-6.4631-11.0112-22.9799-18.9889-35.6667-16.0773C799.799,255.7,796.23118,271.734,796.20838,278.4406Z"/><path class="cls-4" d="M745.83838,156.7762s.8641,5.3699-5.49338,3.5182c-5.06142-13.3323-4.38242-24.0723,0-29.6274C738.80188,139.7404,742.50528,149.5545,745.83838,156.7762Z"/><path class="cls-10" d="M740.55018,141.1337a2.0175,2.0175,0,0,0-.20518.3967c-.37042.9876-2.04312-.2469-2.19432,1.7283-.1512,1.9751,1.021.5254,0,2.6166-.384.7864-.71,1.5012-1.0133,2.0778a54.81746,54.81746,0,0,0,3.20762,12.3413c6.35748,1.8517,5.49338-3.5182,5.49338-3.5182A65.76885,65.76885,0,0,1,740.55018,141.1337Z"/><path class="cls-10" d="M745.83838,156.7762a77.299,77.299,0,0,1-4.1473-10.8299,1.91926,1.91926,0,0,1-.3605.3985c-.98558.8642.1519-.5508-1.9732.8642-2.1238,1.4142-.30238.2391-2.1222,1.4132a55.434,55.434,0,0,0,3.10982,11.6722C746.70248,162.1461,745.83838,156.7762,745.83838,156.7762Z"/><path class="cls-9" d="M754.34668,152.8349c1.646-10.5342,30.2858-22.7144,16.1305,5.9255C759.28458,160.7355,754.34668,152.8349,754.34668,152.8349Z"/><path class="cls-3" d="M794.054,173.5946c6.657,6.2892-24.03972-22.5615-37.56762-24.0184-13.5278-1.4568-20.6039.6244-28.7206,6.4518-8.1167,5.8273-14.5684,7.7004-21.2282,14.1521-6.6599,6.4518-16.8578,11.4467-22.8933,12.9035s-2.4974,9.5735-3.3299,11.0304c-.8325,1.4568-.62438,7.2842,3.7462,8.741,3.538,3.33,12.90342,2.0812,18.9389,1.665s14.9847,4.5786,19.9796,4.5786,12.9034,6.4518,18.7308,5.8274c4.9168-.5268,17.42012,2.2108,24.165,8.7618,1.24912,1.2132,2.8977,2.1078,3.667,3.5859,7.3134-21.8502,30.7684-45.0583,30.7684-45.0583S787.39708,167.3054,794.054,173.5946Z"/><path class="cls-9" d="M770.76148,155.9147c-6.6737-2.3002-12.6044-3.8819-13.4297-2.5855-1.9975,3.1374-21.0084,1.4808-21.0084,1.4808s-7.3245,3.292-8.8059,5.9496c-1.4814,2.6577-5.7609,4.2554-8.7237,4.9138-2.9627.6584-8.22978,3.9503-9.87578,5.6336-1.64592,1.6833-5.92552,5.559-7.90062,6.2174-1.9752.6583-4.2795,7.2422-5.5963,9.5397A3.94765,3.94765,0,0,1,691.8,189.1374a11.23133,11.23133,0,0,1-2.96272.0093c-1.3168-.2286-.3292,3.8497,1.9751,3.8497s3.2919-.3291,4.9379,0c1.646.3293-.6584,2.9628-1.646,6.2547-.9876,3.292,0,0,6.25472,1.2468s3.62108,1.716,6.91308,1.1393c3.29192-.5768,4.6087,1.8934,5.6217,4.8559l.0009.002c3.7875,1.2425,7.4757,2.6035,10.08432,2.6035,4.995,0,12.90348,6.4518,18.73088,5.8274a25.7416,25.7416,0,0,1,7.4045.6785,29.52146,29.52146,0,0,1,2.30662-2.5272c2.63288-2.4575,5.23008,0,5.91078-.9997.6807-.9996,3.2696-3.2799,4.3921-3.4941,1.1225-.2143,2.8278,1.2018,2.6465,3.4941s.1813,2.9748,0,5.9255,2.8148,1.3288,3.1441,3.8368c.1781,1.3569-.3362,1.7727-.7842,2.7415a15.18655,15.18655,0,0,1,2.2146,3.1416c5.7986,11.141,33.7985-45.9191,33.7985-45.9191s-5.7442-5.4268-8.6782-8.1988C798.80948,178.0875,784.31348,164.4738,770.76148,155.9147Z"/><path class="cls-9" d="M793.28638,172.8694l-.8446-.798C792.54578,172.1697,792.81758,172.4265,793.28638,172.8694Z"/><path class="cls-9" d="M792.44178,172.0714c-.0713-.0673-.07078-.0669,0,0Z"/><path class="cls-9" d="M793.28638,172.8694c.227.2144.4882.4612.7788.7357l-.0111-.0105C793.74788,173.3054,793.50308,173.0741,793.28638,172.8694Z"/><path class="cls-10" d="M757.982,146.703l-.00082.0003c-1.1655.3707-.8364,1.0956-1.4948,2.8729-.6583,1.7773-.4328,1.7949-2.798,1.3591a17.29718,17.29718,0,0,1-2.40038-.5856,79.34368,79.34368,0,0,0,3.05868,9.892c8.4768,2.469,7.3246-4.691,7.3246-4.691C760.42188,152.8437,759.13938,149.8595,757.982,146.703Z"/><path class="cls-9" d="M798.95238,277.27a28.56622,28.56622,0,0,0-2.3698,8.0871c2.9025,26.4369,22.3296,37.1262,21.8876,48.6183-.4787,12.4475-.9575,25.3737,2.8725,34.4699,1.0255,2.4355,1.808,6.5253,2.3254,11.2998a5.1411,5.1411,0,0,1,.389,1.2208c.929,5.3444,3.5351,1.4813,5.5103,1.9751s0,2.469,0,8.8882c0,6.4193,2.9627,5.4317,6.5554,5.4317s-1.1237-3.9503,0-8.8882a2.90176,2.90176,0,0,1,1.3688-2.0158,27.81583,27.81583,0,0,1,.3679-4.0279c1.6263-9.2923,4.89052-23.7484,3.8436-31.1588-1.1894-2.7411-2.1976-4.9037-2.759-6.0315-2.6647-5.3536.4991-8.6139,2.92-13.4073.2098-2.1258.4677-4.3131.773-6.5145a61.40172,61.40172,0,0,1-.0322-21.6322c2.174-11.707,4.7389-7.5507,0-11.9948-4.739-4.4441.7886-8.8882,5.4036-15.3075,3.0726-4.2738-.9446-9.6424-5.4844-14.2036a38.18047,38.18047,0,0,0-6.1518-4.5179c3.4824-6.1326-24.1587-12.9753-31.74128-11.2351-6.23142,1.4301-7.15992,13.6615-4.89782,17.5903q-.3387.69315-.6398,1.3969C802.22718,270.6958,800.43358,273.8139,798.95238,277.27Z"/><path class="cls-9" d="M1009.307,241.2233c5.4317-1.9752,4.832-11.5606,11.5511-12.1996,6.7191-.6389-9.5692,10.2244-3.6471,17.1375s16.2917,5.456,15.3041,12.3569-16.1635,11.8388.0658,17.2705,9.81,5.4317,6.8473,14.3199c-2.9628,8.8882-3.1655,10.5915,10.5968,19.0807,1.2767-12.908,21.3841-120.4741,9.6696-134.9879,0,0-70.176,23.0594-63.98113,65.7797C997.49327,242.3006,1004.3664,243.0199,1009.307,241.2233Z"/><path class="cls-9" d="M1041.2816,369.5156c2.3676-13.348,12.8551-26.4636,11.6159-33.0764-.7811-4.1682-2.1561-8.6118-2.8161-14.3847-2.7739,3.0661-5.6635,6.8713-5.3997,12.4951.6719,14.3199-4.266,15.8013-5.2535,23.7019C1038.9811,361.8274,1040.0159,366.0078,1041.2816,369.5156Z"/><g class="cls-11"><path class="cls-12" d="M1051.44,298.8143c-1.6773,1.8126-3.4502,2.7054-5.2794,2.1685-10.0565-2.9518-15.1269-16.7998-18.2687-13.8801s16.4742,26.7077,22.1895,34.9518a59.77069,59.77069,0,0,1-.0564-12.8653C1050.2293,307.1237,1050.7533,303.4981,1051.44,298.8143Z"/><path class="cls-12" d="M1042.4071,221.9584c-4.9216-.9947-16.8051,16.3022-9.892,11.4307s14.8137-10.436,20.4838,7.4381a101.98263,101.98263,0,0,0,4.1908,11.1061c.4582-5.8327.7605-11.557.815-16.8845C1051.9066,231.2095,1044.9423,222.4707,1042.4071,221.9584Z"/><path class="cls-12" d="M1010.9992,272.8259c12.5557-1.4814,22.9973-21.233,18.3369-24.5606-3.7025-2.6437-17.08,13.079-31.25763,2.6463a120.70725,120.70725,0,0,0,9.15663,25.2439C1007.2443,274.3623,1008.2815,273.1465,1010.9992,272.8259Z"/></g><path class="cls-5" d="M1052.8975,336.4392c-.0285-.152-.0617-.3068-.0917-.4596-2.3795,12.1558-11.9372,18.5328-18.3155,13.0038-8.0677-6.9931-7.2713-9.2455-6.5984-3.1983s9.8115,12.7741,13.3897,23.7305h0C1043.6492,356.1676,1054.1367,343.052,1052.8975,336.4392Z"/><path class="cls-4" d="M1012.2505,411.371c-4.4775,6.1056-8.6821,8.9747-12.0154,11.8383-5.42573,4.6612,13.405,3.9441,27.7675,2.4162,3.4905-.3713,5.5021-1.2156,6.5441-2.3476C1030.2622,416.9601,1020.8448,412.5807,1012.2505,411.371Z"/><g class="cls-11"><path class="cls-12" d="M1032.0213,416.8479c-4.2795,2.7981-5.7609,5.4317-16.7889,6.2547-7.4284.5543-13.4195,1.9006-15.64173.7948-2.7985,3.8921,14.80473,3.1756,28.41193,1.7281,9.8555-1.0484,7.9886-5.8475,5.4802-10.3391A3.72744,3.72744,0,0,1,1032.0213,416.8479Z"/><path class="cls-12" d="M1040.2467,390.1833c.0902,13.3154-1.9707,18.4348-4.6042,16.9534-2.6336-1.4813-5.5572-1.3915-5.0833,1.0977.4759-.4889,3.707,5.1595,7.3375,4.5768,2.7893-.4477,2.5938-11.3741,2.5187-22.8695Z"/></g><path class="cls-13" d="M975.56458,189.1467c6.2536,2.2421,24.37759,12.4454,38.19512,10.7811,13.8175-1.6642,32.9107-23.7202,36.2026-14.832,3.292,8.8883-13.1677,20.41-25.0187,26.0063-11.8509,5.5963-20.0609,9.8758-29.61743,4.2795-9.55659-5.5963-43.13429-21.0684-37.538-24.0311S966.63468,185.9451,975.56458,189.1467Z"/><path class="cls-13" d="M1004.5465,216.028a15.93606,15.93606,0,0,1-8.22233-2.3509c-2.4188-1.4162-6.2533-3.4044-10.69309-5.707-8.2642-4.285-23.1604-12.0091-26.0846-15.32.1568-.0839.31152-.1678.4649-.2503,2.997-1.6183,5.16262-2.7877,8.20062-2.7877a20.17366,20.17366,0,0,1,6.68638,1.3941c1.2441.4461,3.092,1.2731,5.23162,2.2307,7.87208,3.5236,19.76887,8.8487,30.4635,8.8487a28.66282,28.66282,0,0,0,3.4025-.1967c6.7352-.8116,14.2848-5.8918,20.9456-10.3744,4.7826-3.2188,9.7283-6.5466,12.1557-6.5466.4427,0,.7316.0545,1.0127.8135,2.4067,6.4983-10.3175,17.069-24.0096,23.5346l-1.3126.6211C1015.6009,213.3401,1009.9237,216.028,1004.5465,216.028Z"/><path class="cls-13" d="M1004.5465,214.0528a14.01854,14.01854,0,0,1-7.22413-2.0798c-2.4545-1.4375-6.29237-3.4281-10.737-5.7331-6.3277-3.2805-18.3913-9.5358-23.537-13.2093a11.016,11.016,0,0,1,5.16362-1.4433,18.29734,18.29734,0,0,1,6.01948,1.2783c1.1742.421,2.9897,1.2335,5.0917,2.1743,8.026,3.5926,20.15429,9.0209,31.27032,9.0209a30.63591,30.63591,0,0,0,3.6379-.2108c7.2091-.8689,14.968-6.0903,21.813-10.697,3.4715-2.3363,8.0873-5.4427,10.3412-6.0889.5907,4.9268-9.8045,14.1743-23.1286,20.4657l-1.314.6221C1014.9798,211.4488,1009.4801,214.0528,1004.5465,214.0528Z"/><path class="cls-13" d="M1004.5465,212.0776a12.10062,12.10062,0,0,1-6.22593-1.8088c-2.5012-1.4649-6.359-3.4657-10.82569-5.7822-5.2273-2.7101-14.1415-7.3316-19.9643-10.8909.2223-.0222.4489-.0333.68142-.0333a16.42764,16.42764,0,0,1,5.35258,1.1627c1.1043.3954,2.887,1.1934,4.9519,2.1179,8.1784,3.6605,20.53809,9.1929,32.077,9.1929a32.66158,32.66158,0,0,0,3.8732-.2247c7.6827-.9258,15.6503-6.2886,22.6806-11.0196,1.6067-1.0811,3.6368-2.4477,5.4948-3.5949-3.1411,4.0612-10.2644,9.842-20.2285,14.547l-1.316.623C1014.3587,209.5576,1009.036,212.0776,1004.5465,212.0776Z"/><path class="cls-13" d="M940.17638,251.9333c-13.4269,7.3391-67.1555,24.263-67.6493,35.1694s42.9598,16.3381,53.8231,7.9437c10.8634-8.3944,23.8532-27.3846,25.6771-36.5283S948.57418,247.343,940.17638,251.9333Z"/><path class="cls-13" d="M907.11368,296.1796c-13.0893-.0005-26.9164-3.3263-30.8229-7.4136a2.27974,2.27974,0,0,1-.80378-1.5291c.01488-.338.55068-3.5057,14.44858-10.4844,9.0966-4.5675,20.6896-9.2084,30.91742-13.3033,8.88768-3.5578,16.56318-6.631,20.74448-8.9162,3.1893-1.7433,5.0941-2.0036,5.9457-2.0036,1.0073,0,1.2759.3269,1.3637.4344.4697.5724.7725,2.1796.21512,4.9746-1.62372,8.1393-13.83632,26.4592-24.58342,34.7635-2.81758,2.1777-9.3305,3.4777-17.4221,3.4777Z"/><path class="cls-13" d="M907.11368,293.2169c-12.5652-.0005-24.4634-3.0838-28.15668-6.0244,1.14578-1.1925,4.243-3.7424,12.30808-7.7921,8.97792-4.5082,20.5-9.1211,30.6661-13.1915,8.9962-3.6012,16.746-6.7038,21.0874-9.0763a15.73991,15.73991,0,0,1,3.4271-1.4582,12.44521,12.44521,0,0,1-.2291,1.6844c-1.4968,7.5028-13.3839,25.19-23.4897,32.9985-1.7066,1.3194-6.8191,2.8596-15.6104,2.8596Z"/><path class="cls-13" d="M907.11368,290.2541a69.86068,69.86068,0,0,1-22.71968-3.579,80.47965,80.47965,0,0,1,8.20058-4.6268c8.8622-4.4504,20.3172-9.0368,30.424-13.0836,7.497-3.0008,14.1425-5.6612,18.7655-7.8808-3.7194,8.1007-13.0035,20.8515-20.8689,26.9289-.8068.624-4.8569,2.2413-13.7987,2.2413Z"/><path class="cls-13" d="M907.11368,287.2914a73.93586,73.93586,0,0,1-15.1933-1.5667q.9621-.50565,2.0037-1.0286c8.74792-4.393,20.1383-8.9538,30.1877-12.9779,3.88622-1.5551,7.5009-3.0023,10.7361-4.3467-4.3308,6.6985-10.4164,14.1603-15.6875,18.2529-.7908.4518-4.5565,1.667-12.0439,1.667Z"/><path class="cls-13" d="M918.44958,202.9546c-2.1554,4.1738,5.4317,43.3516,7.9006,46.6122,2.469,3.2606,12.5917-1.4304,11.6041-6.1214C936.96668,238.7543,919.58828,200.7496,918.44958,202.9546Z"/><path class="cls-13" d="M929.07038,248.6764c-.677-.0004-1.0401-.1629-1.1452-.3018-1.4973-1.9771-7.0091-28.0964-7.8303-39.7911,5.1684,9.5961,15.2313,31.9647,15.9267,35.2688a2.37689,2.37689,0,0,1-.6558,1.75A9.3892,9.3892,0,0,1,929.07038,248.6764Z"/><path class="cls-13" d="M907.09238,209.1269c-1.3517,3.2194.8499,44.9819,5.3629,46.9336,4.5129,1.9517,6.4671.6153,5.6135-6.4937C917.21508,242.4578,908.08118,206.772,907.09238,209.1269Z"/><path class="cls-13" d="M915.54088,254.8985a6.07519,6.07519,0,0,1-2.2028-.6086c-.6442-.7551-2.4752-5.8845-3.7984-21.4234-.4519-5.3049-.6949-10.0243-.7995-13.7716,2.8952,10.1077,6.7751,25.7759,7.36782,30.707.488,4.068-.16982,4.9423-.24652,5.0286C915.82148,254.8758,915.714,254.8985,915.54088,254.8985Z"/><path class="cls-13" d="M897.71038,221.9584c-3.4505,1.5391-5.1848,43.2137,0,43.2137s5.4317-9.4839,4.1972-15.6053C900.67318,243.4454,902.15448,219.9762,897.71038,221.9584Z"/><path class="cls-13" d="M898.13958,263.1478a9.31746,9.31746,0,0,1-.7484-2.3846c-2.00118-9.4977-.652-29.6414.854-35.6349.4793,2.3152.8309,7.1576,1.0474,14.4641a77.87558,77.87558,0,0,0,.6785,10.3648c1.0565,5.2378.664,10.6401-.9134,12.5671A1.69282,1.69282,0,0,1,898.13958,263.1478Z"/><path class="cls-4" d="M819.50338,416.8326c-5.3278,5.1107-15.153,11.4563-10.6081,11.4563,4.7518,0,20.9212,1.7152,26.3901-.7927A16.71439,16.71439,0,0,0,819.50338,416.8326Z"/><path class="cls-4" d="M850.42908,410.8412c-1.6906,4.395-4.6359,8.9534-4.4192,12.1566.3192,4.7184,18.5116-4.3993,21.09212-6.9526a2.019,2.019,0,0,0,.35728-.4787C863.25978,412.2214,855.84318,410.8631,850.42908,410.8412Z"/><g class="cls-11"><path class="cls-12" d="M848.465,300.8822l-.45652-.0133c-7.4131,20.5129-13.0662,36.3142-11.8857,54.7491,1.1806,18.4348-2.8347,25.677-3.4606,37.528-.6258,11.851,11.7144,20.6608,3.7611,23.4136,2.39372.7181,5.9843.7181,5.0269-3.3513-.9575-4.0693-5.2663-21.3043-3.5907-30.8793,1.6757-9.5749,5.1049-24.6555,3.7493-31.8368-1.3555-7.1812.5595-30.8793,5.347-45.0024C847.48768,303.9208,847.99058,302.3892,848.465,300.8822Z"/><path class="cls-12" d="M808.965,425.8962c-1.43572,1.4498-1.82032,2.3927-.06972,2.3927,5.14672,0,23.698,2.0163,27.528-1.5053,2.5226-2.3194.6843-6.3296-.1811-8.5925C833.63678,421.8532,819.00128,428.1028,808.965,425.8962Z"/></g><path class="cls-5" d="M826.83578,340.8164c5.9921-5.5842,3.2254-4.6209,0-9.5259-3.2253-4.9051.2627-6.9459,0-15.8281-.1685-5.6995-6.8112,2.6912-13.102,6.8306,2.866,4.1992,4.882,7.8982,4.7364,11.6824-.4787,12.4475-.9575,25.3737,2.8725,34.4699a39.72113,39.72113,0,0,1,2.10632,9.4463,21.187,21.187,0,0,0,.60808-4.4972c0-7.5715.737-7.9006-2.5506-20.6468C818.219,340.0014,820.84378,346.4006,826.83578,340.8164Z"/><path class="cls-5" d="M824.05708,290.2541c-.0786-9.401-11.4432,7.755-16.956,10.6148-5.5128,2.8597,4.8545-27.2201,9.7924-32.158,4.5809-4.5809-13.7836,4.3613-19.27048,22.9548a61.72438,61.72438,0,0,0,9.03118,20.4752C812.22958,304.6165,824.111,296.7022,824.05708,290.2541Z"/><g class="cls-11"><path class="cls-12" d="M761.72388,204.189c-.5042,5.0566-6.11888,9.0288-12.3883,11.4666,5.4656,1.1947,12.0328,3.7705,16.3582,7.8708.3753-5.3513,1.4543-11.5226,1.8207-14.9347a110.41014,110.41014,0,0,1,2.0274-13.2909c.7107-2.9627,5.8732-5.5963,6.522-7.0999C776.71278,186.6973,762.90578,192.3381,761.72388,204.189Z"/><path class="cls-12" d="M720.43978,202.8623c1.646-1.6559,7.24222-2.9528,14.9208-2.3644,7.6785.5884,8.452-3.8803,13.0606-9.4839,4.60882-5.6036,14.1554-7.8934,15.9492-10.8561s8.082-1.9752,5.1715-8.8534c-1.5777-3.7287-.0185-10.0469,1.7398-15.054-5.4892-3.5122-10.8666-6.2512-14.7953-6.6743-12.8896-1.3881-19.9235.444-27.5796,5.6601,2.0959,2.5349-1.35478,8.779.7504,11.8717,3.3271,4.8879,6.9131-4.3973,11.6812-3.2088,4.7682,1.1884,6.0952.1282,6.7537,4.0466.6584,3.9183-8.2299,8.2618-10.9734,7.9186-2.7436-.3433-11.0826,22.0699-16.34968,20.0948-5.26712-1.9752-10.205,0-15.80132,3.2919-5.5962,3.292-10.8634,0-16.7202,1.646a27.13994,27.13994,0,0,1-5.70548,1.1669,5.40987,5.40987,0,0,0,1.51848.791c3.5381,3.3299,12.9036,2.0812,18.939,1.665,6.03552-.4162,14.9847,4.5786,19.97952,4.5786a14.68458,14.68458,0,0,1,5.36318,1.4688C724.75488,206.9315,719.31948,203.9893,720.43978,202.8623Z"/></g><path class="cls-4" d="M761.67128,155.5507s1.1522,7.16-7.3246,4.691c-6.7484-17.7764-5.8432-32.0963,0-39.5032C752.28928,132.8364,757.22718,145.9218,761.67128,155.5507Z"/><path class="cls-10" d="M754.62028,134.6941a2.698,2.698,0,0,0-.2736.5289c-.4938,1.3168-2.7241-.3292-2.92568,2.3044-.20162,2.6335,1.36138.7005,0,3.4889-.512,1.0485-.94662,2.0016-1.35112,2.7703a73.10078,73.10078,0,0,0,4.2768,16.4551c8.4768,2.469,7.3246-4.691,7.3246-4.691C758.91358,149.5757,755.96878,142.2692,754.62028,134.6941Z"/><path class="cls-10" d="M761.67128,155.5507a103.03975,103.03975,0,0,1-5.5297-14.4398,2.55715,2.55715,0,0,1-.4807.5314c-1.3142,1.1522.2025-.7344-2.63088,1.1522-2.83182,1.8856-.40322.3188-2.82972,1.8842a73.9159,73.9159,0,0,0,4.1464,15.563C762.82348,162.7107,761.67128,155.5507,761.67128,155.5507Z"/><path class="cls-5" d="M770.76148,155.9147l-15.0901,6.796c11.8431,7.0776,14.1474,12.0875,22.3772,10.1587,4.4042-1.0323,12.1535.9391,18.4079,2.995-.8764-.8281-1.7106-1.6161-2.3913-2.2593C798.80948,178.0875,784.31348,164.4738,770.76148,155.9147Z"/><path class="cls-9" d="M752.28928,154.0694c3.3531.3418,24.9364-5.9255,31.3556-8.3945,6.6662,6.6662,4.9379,19.9985-4.4441,22.4675-9.382,2.4689-21.809-3.7034-24.8541-3.2097C749.32648,160.4886,752.28928,154.0694,752.28928,154.0694Z"/><path class="cls-3" d="M735.36058,169.6086c1.6048-1.646,2.0575-2.9628,3.4565-2.3455,1.3991.6172,3.8681.1234,4.115.6584.24692.5349-.0412,2.0163-1.93408,2.0986C739.10518,170.1024,736.47158,169.3617,735.36058,169.6086Z"/><path class="cls-14" d="M737.66488,169.723a20.02888,20.02888,0,0,0,3.33312.2971,2.6162,2.6162,0,0,0,.954-.2163,2.20749,2.20749,0,0,0,.98-1.8823c-.24692-.535-2.71582-.0412-4.11482-.6584a1.36213,1.36213,0,0,0-1.6985.3736A2.97032,2.97032,0,0,0,737.66488,169.723Z"/><path class="cls-15" d="M742.90208,168.7276a.78185.78185,0,1,1-.7818-.7818A.78185.78185,0,0,1,742.90208,168.7276Z"/><path class="cls-5" d="M794.05408,173.5946s-.104.0234-.2853.0666c11.0933,18.1906,16.4518,35.3601,33.0005,34.9223,11.3658-.3007,37.04472-11.4883,59.2139-18.3655-6.1697.5564-11.7039,1.083-16.2869,1.569C838.09888,195.1383,803.629,188.9145,794.05408,173.5946Z"/><path class="cls-16" d="M764.80378,167.3751a28.14057,28.14057,0,0,1,4.7381-3.4759c2.6859-1.2806-1.2045,3.2088-1.2045,3.2088s5.7609-2.4222,7.7265-4.3973c2.1302-.1646,1.8202,3.1788,1.8202,3.1788s2.3043-3.3434,3.6211-5.1299c1.31682.518-.6584,3.1396-.6584,3.1396s6.0213-3.1862,1.97522-11.0365c-4.44412,5.7888-20.73922,9.6834-25.49022,12.4849l-.05-.0095C759.25468,165.8308,761.88028,166.6559,764.80378,167.3751Z"/><path class="cls-17" d="M688.24748,199.0865c2.5376,1.9752,5.8568.1646,9.7464-1.646,3.8895-1.8105,4.83412-1.3167,8.4552-1.8105s4.4441-2.9627,3.9503-4.5369c-.4938-1.5741,2.1398-3.1991,2.9627-3.8575.8231-.6584.8231-2.9628,1.1522-5.4317.3292-2.469,3.6212-3.6212,5.5963-4.9379,1.9752-1.3168-4.4441,1.1522-6.7485,2.9823-2.3043,1.83-2.9627,4.5891-6.5838,6.3997a31.40019,31.40019,0,0,0-7.7361,5.7609c-1.9751,1.8106-4.2795,5.4738-7.5714,4.4441s-3.1273-3.2919.32922-7.3156c3.45648-4.0236-7.40692-5.3584-8.06532-1.1749-.42968,2.7307-1.4983,5.782-3.694,6.9855a8.404,8.404,0,0,0,.56232,4.5723,6.51417,6.51417,0,0,0,1.939-.2692C684.28008,198.5369,685.70988,197.1114,688.24748,199.0865Z"/><path class="cls-17" d="M683.73468,187.9625a16.43705,16.43705,0,0,1-.8123,3.1734c1.0789,3.6068,4.1105,6.3075,6.1971,2.6717h.0001a7.00085,7.00085,0,0,1,1.5205-3.2166c.9388-2.7589.2122-4.3623-2.9139-4.1784a19.13334,19.13334,0,0,1-2.971-.0577A2.45573,2.45573,0,0,0,683.73468,187.9625Z"/><path class="cls-3" d="M1084.1209,339.5429c.7359,7.5984-8.278,17.721-3.4007,28.8313a48.37086,48.37086,0,0,1,3.4437,22.7144,21.15081,21.15081,0,0,0,3.42-4.4384,3.13715,3.13715,0,0,0,.4219-2.4747c.3076,1.2345,6.233-3.4565,4.5048-13.3323a10.5764,10.5764,0,0,1,1.4814,3.7034,24.2242,24.2242,0,0,0,0-19.2578,36.54655,36.54655,0,0,1,1.9751,3.2096,148.87094,148.87094,0,0,1-9.673-20.4835C1087.4118,342.238,1084.1209,339.5429,1084.1209,339.5429Z"/></g></g></svg>