<svg xmlns="http://www.w3.org/2000/svg" xmlns:xlink="http://www.w3.org/1999/xlink" viewBox="0 0 107.3095 79.88786"><defs><style>.cls-1{fill:none;}.cls-2{isolation:isolate;}.cls-3{clip-path:url(#clip-path);}.cls-4{fill:#d1964b;}.cls-5{fill:#f99f00;}.cls-6{fill:#2a2426;}.cls-10,.cls-7,.cls-8{fill:#663915;}.cls-10,.cls-7{opacity:0.5;}.cls-11,.cls-9{fill:#fff;}.cls-9{opacity:0.2;}.cls-10{mix-blend-mode:multiply;}.cls-11{opacity:0.4;}</style><clipPath id="clip-path" transform="translate(-131.42369 -352.07734)"><path class="cls-1" d="M208.075,356.096a10.49925,10.49925,0,0,0-5.15521,4.0039c-1.0196,1.5-1.6885,2.7129-1.3506,4.5977.33881,1.8945,1.5781,3.0674,2.9013,4.2949a25.345,25.345,0,0,0,3.462,3,38.59112,38.59112,0,0,1,3.8974,2.2764c.7774.6318,2.6963,1.8857,2.9483,2.8369.5576,2.1015-2.0567,1.9551-3.3223,1.7109-3.1094-.6006-5.9668-2.1269-8.8984-3.3554-4.0176-1.6856-7.9161-1.9082-12.2168-1.6573-4.8985.2862-9.9932.7198-14.6944,2.4268a55.30569,55.30569,0,0,0-13.9179,7.9219c-1.2911.9609-2.4942,2.0566-3.71639,3.0976-1.19141,1.0166-2.86521,1.8828-3.70751,3.2403,1.4556-.8301,8.2657-1.4668,7.8467,1.4804-.3657,2.5723-6.2607,1.2813-7.3823,3.5235a10.92,10.92,0,0,1,3.084.3984c.9819.3848,1.8833.9961,2.8603,1.335.3555,1.1572-2.1274,1.1709-2.8603,1.4072A20.01188,20.01188,0,0,1,154.971,399.72c1.003.5577,2.63279.2588,3.916.3643,1.53519.124,3.04009.5918,4.55279.8438,4.2134.6992,8.5239,1.5742,12.7759,2.4726,2.1074.4453,4.58,1.7988,5.0234,4.1406a6.53948,6.53948,0,0,1-1.375,4.9297,1.60612,1.60612,0,0,0,1.4365-.5117c.8838,2.0137-2.22559,4.2441-1.6855,6.3105,2.2314.1895,4.206-.6386,6.2236-.957,1.5274-.2383,5.6074.75,6.2871-1.0332-.457-.2637-1.0019-.2275-1.4951-.4512.3936.1778.2109-.7832.1592-.8798-.1895-.3497-1.2266-.4131-1.5537-.418a21.26754,21.26754,0,0,0-3.2471.2422,21.83377,21.83377,0,0,1-2.1045.5849c-1.5791.0801-1.5283-.9589-1.1279-2.1611a12.13914,12.13914,0,0,0,.5527-4.415c-.0039-1.1963.3965-2.5293,1.6514-2.9024,1.292-.3847,2.9345.0772,4.28121-.0625a4.27692,4.27692,0,0,1,3.39359.6963c1.706,1.3955,1.7715,4.6641.9746,6.5674-.3066.7363-1.0137,1.375-1.1621,2.0859.082-.041.4043-.0898.5371-.1445,1.9746,1.9844-1.61619,3.5488-1.1807,5.2637.3516,1.3828,3.2237.4746,4.2901.7539,1.3369.3476,2.7851.5039,4.1855.7715,1.8428.3476,4.0703.3027,5.8067.9863.9414.373,2.3535,1.3398,3.2753.2656-.0937-.4687-2.3769-1.9629-.6289-2.3125.0313-.7988-1.5273-1.1719-2.207-1.4492.3613-2.9414-2.2793-1.3184-4.1758-1.0449-1.8896.2715-5.7011.8633-6.9033-.9942-1.501-2.3203.0732-5.3759.0732-7.8593,0-1.1094-.5195-2.418.3575-3.1621.90621-.7676,2.5664-.6934,3.6855-.8331a30.3381,30.3381,0,0,0,5.4766-1.1279,15.40273,15.40273,0,0,0,5.4336-2.6904,31.85136,31.85136,0,0,1,2.6797-2.6231,9.67581,9.67581,0,0,1,3.4306-1.1084c1.4707-.3183,2.41121-1.4072,3.61621-2.6845,2.64649-2.8037,5.25779-5.4717,6.62309-9.1582a11.25582,11.25582,0,0,0-.8447-9.7276c-.7881-1.2031-1.8096-3.1972-2.9776-4.0918-1.0371-.7949-2.375-1.2754-3.5176-2.0703-.6591-.459-2.4004-1.3193-1.8769-2.4219.30571-.6425,2.3125-.8984,2.957-.9355a8.90372,8.90372,0,0,1,3.1094.6152,29.32755,29.32755,0,0,0,7.57231.9961c1.05559.0196,5.03219.0469,4.35839-1.9492-2.1036-.4766-4.0928.168-6.1397-.9043-1.4863-.7773-2.8242-1.7109-4.3008-2.5293-4.2578-2.3603-5.084-8.6426-10.7324-8.5898-1.9492.0195-4.1152.955-5.9424,1.5468C208.34849,355.9984,208.21179,356.0452,208.075,356.096Z"/></clipPath></defs><g class="cls-2"><g id="Layer_1" data-name="Layer 1"><g class="cls-3"><path class="cls-4" d="M208.075,356.096a10.49925,10.49925,0,0,0-5.15521,4.0039c-1.0196,1.5-1.6885,2.7129-1.3506,4.5977.33881,1.8945,1.5781,3.0674,2.9013,4.2949a25.345,25.345,0,0,0,3.462,3,38.59112,38.59112,0,0,1,3.8974,2.2764c.7774.6318,2.6963,1.8857,2.9483,2.8369.5576,2.1015-2.0567,1.9551-3.3223,1.7109-3.1094-.6006-5.9668-2.1269-8.8984-3.3554-4.0176-1.6856-7.9161-1.9082-12.2168-1.6573-4.8985.2862-9.9932.7198-14.6944,2.4268a55.30569,55.30569,0,0,0-13.9179,7.9219c-1.2911.9609-2.4942,2.0566-3.71639,3.0976-1.19141,1.0166-2.86521,1.8828-3.70751,3.2403,1.4556-.8301,8.2657-1.4668,7.8467,1.4804-.3657,2.5723-6.2607,1.2813-7.3823,3.5235a10.92,10.92,0,0,1,3.084.3984c.9819.3848,1.8833.9961,2.8603,1.335.3555,1.1572-2.1274,1.1709-2.8603,1.4072A20.01188,20.01188,0,0,1,154.971,399.72c1.003.5577,2.63279.2588,3.916.3643,1.53519.124,3.04009.5918,4.55279.8438,4.2134.6992,8.5239,1.5742,12.7759,2.4726,2.1074.4453,4.58,1.7988,5.0234,4.1406a6.53948,6.53948,0,0,1-1.375,4.9297,1.60612,1.60612,0,0,0,1.4365-.5117c.8838,2.0137-2.22559,4.2441-1.6855,6.3105,2.2314.1895,4.206-.6386,6.2236-.957,1.5274-.2383,5.6074.75,6.2871-1.0332-.457-.2637-1.0019-.2275-1.4951-.4512.3936.1778.2109-.7832.1592-.8798-.1895-.3497-1.2266-.4131-1.5537-.418a21.26754,21.26754,0,0,0-3.2471.2422,21.83377,21.83377,0,0,1-2.1045.5849c-1.5791.0801-1.5283-.9589-1.1279-2.1611a12.13914,12.13914,0,0,0,.5527-4.415c-.0039-1.1963.3965-2.5293,1.6514-2.9024,1.292-.3847,2.9345.0772,4.28121-.0625a4.27692,4.27692,0,0,1,3.39359.6963c1.706,1.3955,1.7715,4.6641.9746,6.5674-.3066.7363-1.0137,1.375-1.1621,2.0859.082-.041.4043-.0898.5371-.1445,1.9746,1.9844-1.61619,3.5488-1.1807,5.2637.3516,1.3828,3.2237.4746,4.2901.7539,1.3369.3476,2.7851.5039,4.1855.7715,1.8428.3476,4.0703.3027,5.8067.9863.9414.373,2.3535,1.3398,3.2753.2656-.0937-.4687-2.3769-1.9629-.6289-2.3125.0313-.7988-1.5273-1.1719-2.207-1.4492.3613-2.9414-2.2793-1.3184-4.1758-1.0449-1.8896.2715-5.7011.8633-6.9033-.9942-1.501-2.3203.0732-5.3759.0732-7.8593,0-1.1094-.5195-2.418.3575-3.1621.90621-.7676,2.5664-.6934,3.6855-.8331a30.3381,30.3381,0,0,0,5.4766-1.1279,15.40273,15.40273,0,0,0,5.4336-2.6904,31.85136,31.85136,0,0,1,2.6797-2.6231,9.67581,9.67581,0,0,1,3.4306-1.1084c1.4707-.3183,2.41121-1.4072,3.61621-2.6845,2.64649-2.8037,5.25779-5.4717,6.62309-9.1582a11.25582,11.25582,0,0,0-.8447-9.7276c-.7881-1.2031-1.8096-3.1972-2.9776-4.0918-1.0371-.7949-2.375-1.2754-3.5176-2.0703-.6591-.459-2.4004-1.3193-1.8769-2.4219.30571-.6425,2.3125-.8984,2.957-.9355a8.90372,8.90372,0,0,1,3.1094.6152,29.32755,29.32755,0,0,0,7.57231.9961c1.05559.0196,5.03219.0469,4.35839-1.9492-2.1036-.4766-4.0928.168-6.1397-.9043-1.4863-.7773-2.8242-1.7109-4.3008-2.5293-4.2578-2.3603-5.084-8.6426-10.7324-8.5898-1.9492.0195-4.1152.955-5.9424,1.5468C208.34849,355.9984,208.21179,356.0452,208.075,356.096Z" transform="translate(-131.42369 -352.07734)"/><path class="cls-5" d="M224.86209,358.4066c-.0068.5976-3.0576.5185-3.916.0332.0645,1.5156,1.6768,2.5488,1.8535,4.0166.27541,2.2666-1.3574,2.0244-2.8828,2.4883,1.11721.663,2.7129,1.2236,1.6719,2.7392,2.919,2.5156,12.5557,3.4629,15.5986.7529,3.7618-3.3505-.166-4.1396-3.0488-4.8017-2.6396-.6055-7.3701-.1074-7.9502-3.5713Z" transform="translate(-131.42369 -352.07734)"/><path class="cls-6" d="M216.91,359.4007a.99416.99416,0,1,1-.99411-.9941A.99376.99376,0,0,1,216.91,359.4007Z" transform="translate(-131.42369 -352.07734)"/><path class="cls-7" d="M220.88659,365.3656c-1.9248.5312-3.9463.2148-5.9649.331-2.7724.1602-2.8721,1.9248-.0254,1.707-1.3369,1.3721-.0478,1.2842.3819,2.1778a5.66571,5.66571,0,0,0,.9531,1.8291c1.1719,1.2744,3.0508,1.1054,4.2402,1.9902,1.1387.8467,2.7481,3.1377,2.749,4.5635.001,1.3252-1.35049,2.9902-1.6298,4.2412,1.08.3144,2.0791-.7891,2.624.3721.3096.6611-.4551.9072-.4365,1.3252.0175.4257.1982,1.5879.1816,1.9316a7.04636,7.04636,0,0,1-3.4043,5.3848,25.52671,25.52671,0,0,1-7.291,2.9902c-.5137.1191-7.9092.8301-4.3379,2.7148-.7148,1.502-3.4668,1.629-4.9385,1.8985-1.9697.3594-3.8877,1.1738-5.8916,1.3418a25.35609,25.35609,0,0,1-5.6328-.0821c-1.8154-.289-3.6435-1.1464-5.6562-.8701-.0743,1.6553.2226,2.0791-1.377,2.6084-1.2344.4082-2.85249-.2558-3.9912-.6709a59.89322,59.89322,0,0,1-7.29-2.9072c-3.9581-2.0615-8.5909-4.2393-12.854-3.1064.0073-1.6612,8.7036-3.7666,10.186-5.8487-2.61129-.2656-4.2969.916-6.584,1.2676-2.6099.4023-4.4561.3203-6.9487,1.3184-3.9478,1.5771-9.7725,1.2402-12.8057,4.6464.9478.7159,3.0923,1.8477,3.60011,2.8907.82619,1.6933-.49121,1.416-1.72221,2.3115,4.3394,3.4863,11.1851,1.2715,16.2115,2.0059,2.5361.3691,5.0088,1.4658,7.3632,1.9873,2.417.5371,5.1241.1152,7.4991.7841-.01759.2784.1093.6202.0976.8975,2.8692.2363,5.3985-.5293,8.2344-.2822,1.2363.1064,2.8555-.2119,3.9766-.0069,1.3925.2559,1.6425,1.8282,3.2646,1.6133-.00879-.2832.1074-.6191.0967-.9023,1.4629-.1289,2.0058,1.8232,3.1982.8847.4131-.3242-.1845-1.249.2998-1.6865.4756-.4267,1.47951-.2685,2.1036-.251,1.0996.0313,2.33391.5606,3.62791.2813a30.8443,30.8443,0,0,0,4.30759-1.8389c6.3477-2.501,10.1748-6.6074,15.168-11.0332,4.2588-3.7763,7.8828-10.1924,6.3867-16.2363a9.701,9.701,0,0,0-4.65629-5.542c-1.25391-.7012-4.77051-1.9043-4.89451-3.791a3.65737,3.65737,0,0,1-.0254-.8731.90443.90443,0,0,1,.6123-.0488Z" transform="translate(-131.42369 -352.07734)"/><path class="cls-8" d="M212.60239,354.0989c-.6738-.6455-1.6621.1055-2.2949.6055a7.87545,7.87545,0,0,1,2.2949-.6055Z" transform="translate(-131.42369 -352.07734)"/><path class="cls-7" d="M221.54959,357.7445c.4327.0293.6573-.0821.9688.3154-.8223,3.0439-4.6191-.5869-5.9219-.9951-1.9414-.6045-6.4101.2011-7.8633,1.334a5.27142,5.27142,0,0,0,1.5245.9941c-.5245,1.0898-1.8663.9609-2.7061,1.584-1.207.8926-.6475,1.209-1.2383,2.4082-.3164.6396-1.7881,1.4082-1.6865,2.3193.0928.8408,1.7227,1.3272,2.292,1.7334-.2852.3985-.084.8223-.2217,1.1846,3.7266,1.4658,8.1934,4.4902,9.5606,8.6611.6552,2.001-.5381,1.4024-.9629,2.7344-.3936,1.2285.8261,1.9316-1.0186,2.9082-1.8848.9971-5.7881-1.1895-7.0664-2.6338-1.5332-1.7314-1.0566-4.1631-3.13279-5.7314a28.94867,28.94867,0,0,0-6.73441-3.8926c-2.0215-.7227-5.709.1308-6.9394-1.9746a7.19951,7.19951,0,0,1-.5977-4.2481c.6377-1.7695,3.0313-1.5947,3.9336-3.0488.5977-.9619-.1387-2.0869.2852-3.0059.3925-.8545,2.1328-1.4931,2.998-1.8906,2.375-1.0898,4.8926-1.7617,7.2969-2.6592a24.6898,24.6898,0,0,1,6.626-1.7275c2.8544-.2461,3.9277.8105,6.2959,1.6543Z" transform="translate(-131.42369 -352.07734)"/><path class="cls-7" d="M213.26449,379.9437c-2.5254.3926-4.9229-1.2813-7.2891-1.7285a77.22923,77.22923,0,0,0-8.2832-1.5098c-2.48919-.1914-5.5849-1.0352-7.9453,0-4.4883,1.9707,2.832,1.4512,3.3379,3.5703.1494.625-.8516,2.7324-1.0176,3.0625-.69919,1.3965-2.2607,1.5264-.5879,3.4971,1.7969,2.1162,5.0674.6806,7.2071.1494,1.1113-.2774,2.9453-1.0703,3.5781.2422.7031,1.4648-.9102,2.459-1.8379,3.0713-2.2598,1.4873-5.4561,1.4384-2.5107,4.2256-2.3155,2.371-6.4815-.1211-9.1788-.3399-2.289-.1855-7.7636-.7725-9.5986.7285-3.9111,3.2012,6.7451,1.2305,3.6416,3.917-1.5654,1.3555-6.5068-1.0928-7.5527,1.0615-1.3506,2.7862,12.7959,3.4366,14.8262,3.2461,6.02341-.5644,11.1699-.7695,16.5683-3.7265,3.07811-1.6856,10.3096-3.5039,11.58011-7.1397a4.7855,4.7855,0,0,1-3.23631-.7959c.8007-1.4775,2.4697-2.5371,3.3535-4.1504a16.47141,16.47141,0,0,0,1.8242-4.7363c.1787-.7441,1.083-1.416.6748-2.2461a2.40941,2.40941,0,0,0-2.2744-.6787c-.6875.3867-.3242,1.8584-1.3027,2.5332a4.18879,4.18879,0,0,1-2.95509.3311c1.623-1.9473,4.625-4.835,3.63469-7.9024-.5234-1.6172-4.7666-4.4512-6.2539-4.5791-.6601,1.9512,1.15821,1.9492,2.1778,3.0059a5.73176,5.73176,0,0,1,1.4082,3.9101c-.2842,1.9092-1.1485,1.8272-2.9825,1.9873a14.62709,14.62709,0,0,1-4.9687-.33Z" transform="translate(-131.42369 -352.07734)"/><path class="cls-9" d="M203.325,380.6068c-4.75191-1.4053-9.83591-2.5772-14.91011-1.7295a59.75692,59.75692,0,0,0-8.9561,2.4746c-.8486.2851-3.4345.8574-3.8994,1.6484-.89839,1.5274.81061,1.1074,1.8789,1.6563-.6045.9619-5.1211,1.5234-6.5117,1.9961-1.3047.4433-5.5527.789-5.6641,2.5117,5.7207.5888,11.7793-1.3496,17.5098-1.9375,3.1514-.3242,6.7734-1.0059,9.9492-.6563,1.5723.1729,1.8887.795,3.31551,1.252,1.39349.4453,3.39939.0635,4.85929.082-1.2881-.5117-6.1816-1.9863-5.8037-3.6035,3.4697-.2871,6.3418.8896,9.5567,1.2832a34.357,34.357,0,0,0,10.8916-.3945c-.0674-2.4278-8.1163-2.6641-9.5655-4.252Z" transform="translate(-131.42369 -352.07734)"/><path class="cls-9" d="M206.30749,388.2269a79.04008,79.04008,0,0,0-15.81349,2.0078,72.28179,72.28179,0,0,0-7.30761,1.5547c-1.60939.4922-4.7217.9678-5.6719,2.3359,1.0898.0547,2.0644.4356,3.18751.4141,1.23629-.0254,2.42379-.7735,3.63479-.6123a12.97462,12.97462,0,0,1-5.1993,2.2353c-1.3007.2071-4.3906.5987-4.5957,1.9492,6.4141.2559,13.2705,1.5977,19.4961-.1933a35.139,35.139,0,0,0,10.2989-4.2969c.6875-.4629,2.3291-1.4648,2.7148-2.3223.9316-2.0703-1.3379-1.414-3.0635-1.414Z" transform="translate(-131.42369 -352.07734)"/><path class="cls-9" d="M182.45,376.2991c-5.23731.3282-9.56441,3.0274-14.248,5.375-3.39451,1.7032-11.18211,3.9395-12.55711,7.8282,4.0439-1.1602,6.978-3.2715,11.2329-3.5957,2.8965-.2188,9.9004-1.625,9.666-5.2422a76.6496,76.6496,0,0,1,7.5801-3.3613,27.5553,27.5553,0,0,1,3.6445-.9864c.9238-.1719,3.0273-.1738,3.6289-.6797Z" transform="translate(-131.42369 -352.07734)"/><path class="cls-10" d="M170.52229,385.9085c-2.6504-.2226-6.9902,2.0293-9.2046,3.3867-.7012.4297-.99269.9395-1.7226,1.252a22.99863,22.99863,0,0,1-2.99709.6621c-1.64551.4414-3.30961.9004-4.91211,1.374a1.81229,1.81229,0,0,0,.0005.8975c4.0044.291,8.4028-.2813,12.54-.2832a43.06725,43.06725,0,0,0,11.8799-1.7051c-.5108-2.6738,7.3613-2.96,9.3262-3.2832,3.5-.5762,7.9336-1.6113,11.4961-1.3066-5.5215,0-11.294-.4707-16.7969-.0079a41.83892,41.83892,0,0,1-6.959.3555c-2.0186-.165-4.7686-.8066-6.627.3145Z" transform="translate(-131.42369 -352.07734)"/><path class="cls-10" d="M131.42369,399.8245c3.2636.1719,6.6626,1.0743,9.9585.9922,2.7612-.0683,5.6587-.8808,8.2822-1.3066,4.9648-.8028,10.6084-2.3438,15.6294-.752,2.5166.7979,5.2187.9981,7.6211,1.6485a42.1732,42.1732,0,0,0,7.8779,1.0742c2.8369.2627,5.335.9951,8.28421.9951a30.02806,30.02806,0,0,0,7.95309-.9853c2.6787-.6719,5.29491-1.0596,7.9522-1.9981,2.0244-.7129,6.9101-2.1016,7.5859-4.3047a2.75947,2.75947,0,0,0-1.9199-.7305,14.32684,14.32684,0,0,1,3.9248-2.5927,11.44051,11.44051,0,0,0,3.9121-3.0557c2.1035-2.2461,4.7764-5.0527,4.7207-8.2021-.0518-2.9424-1.9981-6.0459-4.3731-7.8702-1.4101-1.0839-2.9316-.9814-2.916-3.0634.0137-1.9209,1.5078-2.5108,3.2696-2.378-.1036-.2148-.084-.6777-.2539-.9433,1.8662-.9766,1.9746-.2608,3.60151.3476,1.44139.5371,3.10939.375,4.64849.6368,3.3027.5634,6.47751.4062,9.8798.7373a5.89513,5.89513,0,0,1,.38871,3.5869c-.55271,2.2275-1.14261,1.1709-2.73051,2.2383-2.3418,1.5742-.4511,6.3066-.582,8.9462-.4414,8.8584-5.7724,14.0225-11.9267,19.5567-2.0674,1.8584-4.2911,4.3017-6.96879,5.0342-2.334.6386-5.23441.2714-7.61131.6543a22.03518,22.03518,0,0,1-7.9336,0c-1.2676-.2032-2.6055.3769-3.6553.291-1.42479-.1172-2.7139-.7285-4.332-.6211-.9444.0625-1.2686.3642-2.292.0078-.7266-.252-1.3213-1.0586-2.0733-1.2402-1.5341-.3711-4.0908.5898-5.8896.5869-2.1572-.0049-4.1201.3213-6.29489.331-2.27051.0117-3.89461-1.0527-5.95711-1.334a79.87609,79.87609,0,0,0-16.1616-.0087c-2.6172.2197-5.4428.6904-8.1079.2744-2.1973-.3438-6.7173-1.8506-8.2095-3.2383Z" transform="translate(-131.42369 -352.07734)"/><path class="cls-10" d="M203.69609,371.137c1.7325-1.0947,5.3477.2481,6.7852.7168,3.0625.9961,6.4199,1.9991,6.7598,5.7715.29291,3.2588-2.9239,3.9844-5.5586,2.9082-1.06349-.4355-1.9336-1.3847-3.0567-1.832-2.1025-.8379-7.0947-3.5234-5.6562-6.7266A1.88492,1.88492,0,0,1,203.69609,371.137Z" transform="translate(-131.42369 -352.07734)"/><path class="cls-9" d="M233.80649,365.3656c-5.47849-.9903-9.7901-4.4737-14.8897-6.7198-2.8554-1.2568-5.3203-2.459-8.3759-1.3154-1.9385.7256-6.4502,2.6035-6.5108,4.9941.586-.0381,1.3301.1856,1.9111.125-1.9326,2.4961-3.1923,5.584.3487,7.6368,2.8037,1.625,6.5508.9209,9.20311,2.6523a5.4009,5.4009,0,0,1,2.42769,3.8926c.1338.8476-.0781,1.789-.0166,2.6504a4.85932,4.85932,0,0,0,.6543,2.2285c.5889,1.3457,1.0899.6543.5869,2.4101a10.64807,10.64807,0,0,1-1.3232,2.3028c-.8154,1.3965-2.7822,3.6172-2.5185,5.2676,3.581.8789,4.8398-4.3301,5.8408-6.6504a10.32188,10.32188,0,0,0-.2588-8.209,15.22922,15.22922,0,0,0-4.9707-5.9629c-2.4717-1.668-4.9492-2.625-5.5996-5.9902a3.85072,3.85072,0,0,1,2.5761-.6954c-.0322-1.2578-1.915-1.2226-1.9599-2.5849-.0557-1.7139,1.623-1.6133,2.581-1.251,2.3184.875,2.793,3.1426,5.4766,2.584.4678-.0957.6465-.6895,1.584-.6963.3955-.0029,1.2168.5654,1.6474.6709a22.33564,22.33564,0,0,1,3.6358,1.25c2.21871.9297,5.1289,2.2607,7.6201,1.0781Z" transform="translate(-131.42369 -352.07734)"/><path class="cls-9" d="M219.22929,359.7327c-2.7597-1.0078-4.1181-3.5439-7.6211-3a10.46874,10.46874,0,0,0-3.99119,1.5918c-1.30371,1.209-.874,2.9258,1.041,1.8711-.34271.8457-2.10641,3.459-.29591,4.1143,1.6602.6025,2.3663-3.5518,3.00591-4.5029,2.26559-3.3594,5.34469-2.2383,8.52439-1.0694Z" transform="translate(-131.42369 -352.07734)"/><path class="cls-9" d="M220.88559,375.97c.5097.9053,1.4941,5.3057-.6699,4.9913-1.7666-.2579-.3575-3.5743-1.6504-4.3301-2.0977-1.2256-.7852,2.8906-1.9209,3.6094-.2412-2.086.04-4.8672-1.3096-6.6006-1.5137-1.9444-4.0117-1.3955-5.7305-2.8838-.7031-.6074-1.6982-1.8184-.6699-2.6905,1.0039-.8525,2.082.4747,2.7578.8624C214.59069,370.5882,219.17169,372.9281,220.88559,375.97Z" transform="translate(-131.42369 -352.07734)"/><path class="cls-9" d="M208.62579,382.9261c-2.3096-1.0996-5.8262-1.0313-8.373-1.584a39.425,39.425,0,0,0-8.2676-.7353c-2.8389-.001-15.5859.7158-15.7861,4.581,4.9326.416,9.7627-1.3662,14.8242-.8789a4.751,4.751,0,0,1-.917,1.5332c2.0254.3672,4.2969-.583,6.2598-.9101a42.11326,42.11326,0,0,1,6.96091-.3497c3.52149,0,9.74409,1.1758,12.92189-.331Z" transform="translate(-131.42369 -352.07734)"/><path class="cls-11" d="M190.73319,376.6312c-6.03119.0625-12.0097,3.2461-17.5039,5.5488-3.5918,1.5059-10.6201,3.043-12.9448,6.3213,2.4761.081,5.9614-2.3272,8.5064-3.0068,2.9775-.795,5.6904-2.4024,8.6884-3.1563,4.541-1.1426,9.63971-1.0039,14.22271-1.4746-.77251-.7217-2.37891-.2529-3.00491-1.2598,3.7705-3.4619,11.46-.2226,15.9522-.9843Z" transform="translate(-131.42369 -352.07734)"/><path class="cls-11" d="M186.42659,375.637c-5.8379,0-10.9092,1.9649-16.1621,4.3985-4.3027,1.9922-10.37549,4.0996-12.8716,8.2246,2.3525-.418,4.7857-2.3672,6.8335-3.586a72.52878,72.52878,0,0,1,6.8838-3.4873c4.332-1.9892,8.2559-2.1064,12.9629-2.6337-.4395-.2793-.7207-.9629-.917-1.2051a41.72071,41.72071,0,0,1,7.5771-.3858,72.50351,72.50351,0,0,0,7.9532,0Z" transform="translate(-131.42369 -352.07734)"/><path class="cls-11" d="M182.78209,376.6312c-3.8672-.5274-8.8243,3.5605-12.2588,5.0625a73.78135,73.78135,0,0,0-9.5835,4.9668c1.0034.4863,3.5747-.9141,4.9263-1.0996,1.7822-.2481,4.5527-.9102,6.2636-.5977-.0879,1.6231,2.7198,1.7402,3.9737,1.6572a2.2103,2.2103,0,0,1-.0079.8877c-2.2548,1.2451-6.2099,2.3965-2.6074,5.125,2.4795,1.8789,8.374,1.2276,11.2813,1.2276a43.31545,43.31545,0,0,0,7.04-.3496c1.1973-.1944,4.68361-.3252,5.4824-1.3916,1.211-1.6153-4.96479-3.2334-5.5302-5.5664,3.2978-2.8301,9.0146-.0684,12.5156-2.045-3.7744-3.9912-10.1748-4.8008-15.20019-6.2207Z" transform="translate(-131.42369 -352.07734)"/><path class="cls-11" d="M174.49689,377.9554c-2.3808,1.6982-5.5137,2.4883-7.87689,4.3105-.99811.7686-5.26711,3.7832-4.99421,4.92,1.2529.1113,2.5698.9609,1.6568,2.2832.3989.1347.8188.6836,1.2319.8125-1.0986,2.5-4.1724,1.582-6.1441,2.5947,3.0621,1.3643,8.107.124,11.4898.6357,1.9355.294,3.59181,1.1182,5.63281,1.3252,2.08589.2119,4.06059.6465,6.22069.6797,4.5742.0703,9.0469.0635,13.6768,0,2.1308-.0283,4.7548-.1045,6.6093-1.2431,2.5059-1.5391.1123-1.8125-1.2763-3.1465,1.1172-1.2403-.3916-1.7803.3496-2.8242.4805-.6778,3.5674-1.0958,4.3125-1.3282.98241-.3066,3.6338-.7177,3.5957-2.0703-.03129-1.1289-3.0996-2.7324-3.999-3.2207-8.0137-4.3476-16.9317-4.0596-25.8448-4.0596Z" transform="translate(-131.42369 -352.07734)"/><path class="cls-11" d="M218.89829,359.4007a.791.791,0,0,0-.0576-.6055c-3.0098-1.4072-5.5948-2.4004-8.9639-1.1328-3.7627,1.4141-5.13279,4.0401-4.8467,7.9854.2754-.0186.6211.1162.8965.0967.2598,2.8652.9316,3.9541,3.6855,4.9961a25.16063,25.16063,0,0,1,6.3047,3.6523c2.1436,1.5293,3.1875,2.25,4.3887,4.5488.31251.5996.1621,1.169.6484,1.6719.5323.5527,1.1407.0898,1.6875.5566.8731.7481.5254,2.2071,2.1719,2.045.8633-3.3164-3.4004-5.5918-2.5527-8.8526a11.14837,11.14837,0,0,1,1.56641.2217c-.668-1.1641-2.21091-1.1777-3.28811-1.8379a19.33258,19.33258,0,0,1-2.876-2.4951c-1.4941-1.4131-3.7021-3.6318-3.3545-5.8311.64361-.0263.9717-.3867,1.5743-.4541-1.417-1.1816-6.3711-2.9306-3.8682-5.4853,2.1133-2.1543,5.5508-.0684,6.8838,1.914Z" transform="translate(-131.42369 -352.07734)"/><path class="cls-5" d="M184.10819,431.9652c1.0655-1.3848,3.6192-1.6094,5.2754-1.8965,3.4141-.5938,6.9336-1.0332,10.295-1.8321,3.373-.7988,9.0351-1.7207,11.6796-4.1347,2.2813-2.0801,2.21681-6.5723-.40519-8.3897-2.68071-1.8603-6.24521-.8603-9.28421-1.292-3.461-.4902-3.0723-3.0136-5.0527-4.9043a3.62137,3.62137,0,0,0-3.2315-1.0761,7.052,7.052,0,0,0-1.9228.0654c-.42.1416-.6954,1.0986-1.125,1.1943-2.2832.5069-3.2061-2.5214-5.5665-2.5839-1.9199-.0508-5.44329-.0625-6.8769,1.4082-1.1875,1.2168-1.6836,3.3906-2.4023,4.8867a15.50743,15.50743,0,0,0-1.6622,5.2929c-.207,2.709.084,3.9414,2.252,5.3809,2.5566,1.6992,3.3008,3.3438,5.0449,5.8926Z" transform="translate(-131.42369 -352.07734)"/><path class="cls-10" d="M185.02719,407.8636c-.5371,1.5732-1.2783,2.9668.7373,3.9102,2.10351.9863,3.709.0546,5.3017,2.2968,3.7452,5.2735-3.3154,6.8047-6.8857,9.3711-1.7109,1.2324-3.4824,3.3633-5.7051,3.2207-2.44039-.1562-2.9297-2.6914-3.2968-4.6386a20.66578,20.66578,0,0,1,1.8691-12.7393,6.07354,6.07354,0,0,1,3.4189-2.8887c.4756-.1572,4.9307-.5752,4.9229-.2256A5.72794,5.72794,0,0,1,185.02719,407.8636Z" transform="translate(-131.42369 -352.07734)"/><path class="cls-10" d="M192.48319,412.8695c.1006.125.2051.2461.3106.3652.1523.0254.3066.043.4609.0547.44731-1.1289,1.15431-2.3897,2.0528-2.4805.0507.4766.39251.7412.4531,1.2168,2.0703.4316,1.9189-2.25,1.9316-3.5859l.6621-1.6563c-1.08,1.1875-3.02629.2051-4.3066.9932-1.6289,1.0029-1.3731,1.9228-1.63969,3.6631a2.24633,2.24633,0,0,1-.18261.58A1.059,1.059,0,0,1,192.48319,412.8695Z" transform="translate(-131.42369 -352.07734)"/><path class="cls-11" d="M201.66679,419.7152c1.3184.2714,5.9356,1.9589,6.2627.0566-.89449-.5234-2.3623-.0371-2.2431-1.3437.8545.0253,1.4668-.295,1.5703-.9844a27.087,27.087,0,0,0-4.211.1445c-1.1504.0762-3.8242-.3769-4.791.1387C195.37,419.262,200.35919,419.4437,201.66679,419.7152Z" transform="translate(-131.42369 -352.07734)"/></g></g></g></svg>