<svg xmlns="http://www.w3.org/2000/svg" xmlns:xlink="http://www.w3.org/1999/xlink" viewBox="0 0 682.05999 534.53772"><defs><style>.cls-1,.cls-11,.cls-12,.cls-16,.cls-19,.cls-20{fill:none;}.cls-2{isolation:isolate;}.cls-3{fill:#7d90fa;}.cls-4{clip-path:url(#clip-path);}.cls-5{fill:#eec272;}.cls-6{fill:#fff;}.cls-7{fill:#3c655f;}.cls-18,.cls-8{fill:#a15329;}.cls-9{clip-path:url(#clip-path-2);}.cls-10,.cls-18{opacity:0.5;}.cls-11,.cls-12{stroke:#d17e5d;stroke-width:20px;}.cls-11,.cls-12,.cls-16,.cls-19,.cls-20{stroke-miterlimit:10;}.cls-11,.cls-18{mix-blend-mode:multiply;}.cls-13{clip-path:url(#clip-path-3);}.cls-14{fill:#352a2b;}.cls-15{fill:#50867f;}.cls-16{stroke:#7d90fa;stroke-dasharray:3.195;}.cls-16,.cls-20{stroke-width:2px;}.cls-17{fill:#de5724;}.cls-19,.cls-20{stroke:#352a2b;}.cls-19{stroke-linecap:round;}.cls-21{fill:#d17e5d;}.cls-22{fill:#dfb38c;}.cls-23{fill:#5d5555;}</style><clipPath id="clip-path" transform="translate(114.8668 -14.9705)"><circle class="cls-1" cx="250" cy="250" r="223.879"/></clipPath><clipPath id="clip-path-2" transform="translate(114.8668 -14.9705)"><path class="cls-1" d="M478.8301,404.4801v-220.35c-73.3921,0-147.3302,9.3951-208.5512,49.8722C209.0579,274.4793,162.0953,335.1345,134.6456,403.2H453.9147"/></clipPath><clipPath id="clip-path-3" transform="translate(114.8668 -14.9705)"><path class="cls-1" d="M-26.5036,404.4801v-220.35c73.3921,0,147.3302,9.3951,208.5512,49.8722,61.221,40.477,108.1835,101.1322,135.6333,169.1977H-1.5882"/></clipPath></defs><g class="cls-2"><g id="OBJECTS"><circle class="cls-3" cx="364.8668" cy="235.0295" r="223.879"/><g class="cls-4"><circle class="cls-5" cx="299.58578" cy="87.00752" r="29.35309" transform="translate(141.08983 222.35255) rotate(-45)"/><path class="cls-6" d="M24.9848,194.2366c4.6531-23.4186,13.5623-46.1417,24.1066-67.5636a36.98367,36.98367,0,0,1,20.361,11.9504,31.94253,31.94253,0,0,1,55.7544-12.3472,18.5733,18.5733,0,0,1,13.9877-13.5802,20.8887,20.8887,0,0,1,19.8578,6.078,46.30438,46.30438,0,0,1,82.7618,1.6323c9.4919-7.8946,25.197-3.2802,32.583,6.6126,2.2961-7.3479,6.5254-14.342,12.9681-18.5557,6.4428-4.2137,15.2994-5.1555,21.8497-1.1109,1.1371-13.0194,12.9175-23.7194,25.8718-25.4467,12.9544-1.7272,26.2019,4.5298,34.748,14.4173,4.1424-3.7546,9.3992-4.5488,14.7249-2.8479,5.3258,1.7009,9.7086,5.7283,12.6173,10.5029a21.39891,21.39891,0,0,1,31.7682-4.6475c10.055,8.5223,16.2924,22.352,23.8921,33.1213,7.6258,10.8064,15.2365,22.447,16.3058,35.6299L250.4497,267.9919Z" transform="translate(114.8668 -14.9705)"/><path class="cls-7" d="M21.2974,210.6244V156.3462A27.86006,27.86006,0,0,1,46.9943,172.973a20.63471,20.63471,0,0,1,33.5612,7.8262c6.264-7.1016,20.9978-7.3355,27.1827-.165a17.19257,17.19257,0,0,1,28.2461-2.0534c5.1676-5.3823,13.5405-3.8796,20.1756-.4666s11.3015,9.7171,14.915,16.2453a18.78434,18.78434,0,0,1,31.1334,8.419c9.4766-4.2068,17.9198,5.4478,23.46,14.212a19.48753,19.48753,0,0,1,31.7194-3.9706c.5905-5.2968,6.3714-8.9828,11.6292-9.8551,5.2577-.8723,10.6362.893,15.2932,3.4847a23.95931,23.95931,0,0,1,38.3492-15.754c2.2549-5.5642,5.8069-9.6754,11.5567-11.4033a20.45955,20.45955,0,0,1,17.2089,2.6887c.5117-6.4196,6.7238-11.4778,13.1527-11.8548s12.6425,3.209,16.6713,8.2331c2.45-5.7375,6.8032-11.2927,12.8789-12.7097a20.28483,20.28483,0,0,1,17.5207,4.286,15.403,15.403,0,0,1,26.9378-5.8921,21.74664,21.74664,0,0,1,30.8993-13.2716v51.6038L216.5762,300.9092Z" transform="translate(114.8668 -14.9705)"/><path class="cls-8" d="M478.8301,404.4801v-220.35c-73.3921,0-147.3302,9.3951-208.5512,49.8722C209.0579,274.4793,162.0953,335.1345,134.6456,403.2H453.9147" transform="translate(114.8668 -14.9705)"/><g class="cls-9"><g class="cls-10"><path class="cls-11" d="M489.9496,208.8172c-72.3956-11.4255-148.3343,8.0734-209.0368,49.1448-60.7026,41.0715-106.3286,102.7336-132.4359,171.2177" transform="translate(114.8668 -14.9705)"/><path class="cls-11" d="M508.8708,238.0088c-72.3956-11.4255-148.3343,8.0734-209.0368,49.1449-60.7026,41.0714-106.3286,102.7335-132.4359,171.2176" transform="translate(114.8668 -14.9705)"/><path class="cls-11" d="M527.792,267.2004c-72.3956-11.4254-148.3343,8.0734-209.0368,49.1449-60.7026,41.0714-106.3286,102.7335-132.4359,171.2176" transform="translate(114.8668 -14.9705)"/><path class="cls-11" d="M546.7131,296.392c-72.3955-11.4254-148.3342,8.0734-209.0367,49.1449-60.7026,41.0714-106.3286,102.7335-132.436,171.2176" transform="translate(114.8668 -14.9705)"/><path class="cls-12" d="M565.6343,325.5836c-72.3956-11.4254-148.3342,8.0735-209.0368,49.1449C295.895,415.8,250.269,477.462,224.1616,545.9461" transform="translate(114.8668 -14.9705)"/></g></g><path class="cls-8" d="M-26.5036,404.4801v-220.35c73.3921,0,147.3302,9.3951,208.5512,49.8722,61.221,40.477,108.1835,101.1322,135.6333,169.1977H-1.5882" transform="translate(114.8668 -14.9705)"/><g class="cls-13"><g class="cls-10"><path class="cls-11" d="M-37.6231,208.8172c72.3956-11.4255,148.3343,8.0734,209.0368,49.1448,60.7025,41.0715,106.3285,102.7336,132.4359,171.2177" transform="translate(114.8668 -14.9705)"/><path class="cls-11" d="M-56.5443,238.0088c72.3956-11.4255,148.3343,8.0734,209.0368,49.1449,60.7025,41.0714,106.3286,102.7335,132.4359,171.2176" transform="translate(114.8668 -14.9705)"/><path class="cls-11" d="M-75.4655,267.2004c72.3956-11.4254,148.3343,8.0734,209.0368,49.1449,60.7025,41.0714,106.3286,102.7335,132.4359,171.2176" transform="translate(114.8668 -14.9705)"/><path class="cls-11" d="M-94.3867,296.392c72.3956-11.4254,148.3343,8.0734,209.0368,49.1449,60.7026,41.0714,106.3286,102.7335,132.4359,171.2176" transform="translate(114.8668 -14.9705)"/><path class="cls-12" d="M-113.3079,325.5836c72.3956-11.4254,148.3343,8.0735,209.0368,49.1449C156.4315,415.8,202.0575,477.462,228.1648,545.9461" transform="translate(114.8668 -14.9705)"/></g></g><path class="cls-5" d="M89.8935,222.6858c2.9974-3.9898,6.9586-7.1389,10.3243-10.8233.2433,6.3824.3289,13.3105-3.4472,18.4621a28.62836,28.62836,0,0,1-5.3853,5.1568c-1.5615,1.2539-3.0953,2.583-4.72,3.7451C85.6677,233.0188,85.9204,227.974,89.8935,222.6858Z" transform="translate(114.8668 -14.9705)"/><path class="cls-8" d="M86.1594,239.7282c.1992-.83.4066-1.6612.6278-2.4902l.7921-2.4482.9518-2.392,1.0523-2.3496c1.4681-3.1048,3.2102-6.0597,4.9026-9.0242,1.7377-2.9396,3.4748-5.8672,5.0857-8.8605a63.54616,63.54616,0,0,0,4.1327-9.3274q-.30375,1.244-.6379,2.4877l-.8008,2.4454-.9594,2.3889-1.0578,2.347c-1.4676,3.1049-3.1948,6.0685-4.9136,9.0172-1.764,2.9238-3.48,5.864-5.077,8.8644A62.45686,62.45686,0,0,0,86.1594,239.7282Z" transform="translate(114.8668 -14.9705)"/><path class="cls-5" d="M60.3558,352.3556c3.8894-3.1265,8.5053-5.2008,12.6763-7.9406-1.3396,6.2451-2.9665,12.9801-7.8969,17.0404a28.633,28.633,0,0,1-6.4914,3.6682c-1.8229.8298-3.6372,1.7392-5.4983,2.4644C53.7106,361.3261,55.2005,356.4996,60.3558,352.3556Z" transform="translate(114.8668 -14.9705)"/><path class="cls-8" d="M52.5314,367.9494q.597-1.1328,1.2229-2.2583l1.3719-2.177,1.5125-2.0831,1.5998-2.0172c2.1887-2.6465,4.6063-5.08,6.9779-7.5352,2.4095-2.4197,4.8153-4.8281,7.1151-7.3312a63.53413,63.53413,0,0,0,6.3069-8.0189q-.60135,1.13055-1.2322,2.2533l-1.3795,2.1721-1.5192,2.0782-1.6045,2.0133c-2.1883,2.6467-4.5936,5.0923-6.9869,7.5257-2.431,2.398-4.8195,4.8237-7.1076,7.3371A62.46819,62.46819,0,0,0,52.5314,367.9494Z" transform="translate(114.8668 -14.9705)"/><path class="cls-5" d="M49.3032,350.9129c-2.9566-4.0201-6.8857-7.2097-10.2133-10.9286-.3086,6.3799-.4649,13.3068,3.2582,18.4968a28.63723,28.63723,0,0,0,5.3322,5.2114c1.5489,1.27,3.0688,2.6145,4.6818,3.7933C53.4229,361.2886,53.222,356.2414,49.3032,350.9129Z" transform="translate(114.8668 -14.9705)"/><path class="cls-8" d="M52.8626,367.9926a62.48041,62.48041,0,0,0-4.0028-9.383c-1.5663-3.0165-3.2521-5.9741-4.9861-8.9157-1.6885-2.9662-3.3854-5.9473-4.821-9.0671l-1.0338-2.3577-.9348-2.3985-.7757-2.4535q-.324-1.24545-.6125-2.4941a63.50957,63.50957,0,0,0,4.0371,9.3692c1.5802,3.0096,3.2871,5.9548,4.9947,8.912,1.662,2.9817,3.3739,5.9542,4.81,9.0738l1.0283,2.3603.9272,2.4016.7671,2.4562C52.473,366.3273,52.6718,367.1606,52.8626,367.9926Z" transform="translate(114.8668 -14.9705)"/><path class="cls-5" d="M61.2674,335.0602c3.8895-3.1265,8.5054-5.2008,12.6764-7.9406-1.3396,6.2451-2.9665,12.9801-7.8969,17.0406a28.63463,28.63463,0,0,1-6.4914,3.6682c-1.8229.8296-3.6371,1.739-5.4985,2.4642C54.6223,344.0307,56.1122,339.2044,61.2674,335.0602Z" transform="translate(114.8668 -14.9705)"/><path class="cls-8" d="M53.4429,350.654q.59715-1.1328,1.2231-2.2583l1.3718-2.177,1.5126-2.0831,1.5997-2.0172c2.1887-2.6465,4.6063-5.0799,6.9779-7.5351,2.4095-2.4198,4.8153-4.8281,7.1151-7.3313a63.52622,63.52622,0,0,0,6.3068-8.0189q-.60135,1.13055-1.2322,2.2533l-1.3794,2.1722-1.5192,2.0782-1.6045,2.0133c-2.1883,2.6466-4.5936,5.0923-6.9869,7.5257-2.431,2.3979-4.8195,4.8237-7.1075,7.3371A62.46868,62.46868,0,0,0,53.4429,350.654Z" transform="translate(114.8668 -14.9705)"/><path class="cls-5" d="M50.2149,333.6175c-2.9568-4.0201-6.8856-7.2095-10.2134-10.9282-.3084,6.3795-.4649,13.3064,3.2583,18.4963a28.62957,28.62957,0,0,0,5.3322,5.2117c1.5489,1.2698,3.0689,2.6143,4.6816,3.7931C54.3347,343.9932,54.1337,338.9462,50.2149,333.6175Z" transform="translate(114.8668 -14.9705)"/><path class="cls-8" d="M53.7744,350.6972a62.4951,62.4951,0,0,0-4.0028-9.383c-1.5663-3.0165-3.2521-5.9741-4.9861-8.9157-1.6885-2.9662-3.3854-5.9472-4.8212-9.067l-1.0338-2.3577-.9348-2.3985-.7758-2.4534c-.216-.8303-.4184-1.6628-.6125-2.4941a63.54537,63.54537,0,0,0,4.0372,9.3691c1.5803,3.0096,3.2872,5.9548,4.9949,8.9119,1.662,2.9817,3.3739,5.9542,4.8099,9.0739l1.0283,2.3602.9273,2.4016.7671,2.4562C53.3847,349.0319,53.5834,349.8652,53.7744,350.6972Z" transform="translate(114.8668 -14.9705)"/><path class="cls-5" d="M63.3532,318.9814c4.0837-2.8684,8.8242-4.6393,13.1636-7.1036-1.7409,6.1453-3.8002,12.7609-8.9831,16.4936a28.62779,28.62779,0,0,1-6.7152,3.2405c-1.8726.7101-3.7419,1.5-5.6462,2.1032C56.1413,327.503,57.9406,322.7832,63.3532,318.9814Z" transform="translate(114.8668 -14.9705)"/><path class="cls-8" d="M54.5361,334.0361q.669-1.0917,1.3666-2.1744l1.5097-2.0836,1.6443-1.9809,1.7269-1.9095c2.3555-2.4993,4.9253-4.7712,7.451-7.0678,2.561-2.2587,5.1175-4.5063,7.5745-6.8554a63.52511,63.52511,0,0,0,6.8125-7.594q-.6732,1.08915-1.3754,2.1688l-1.5171,2.0783-1.6505,1.9756-1.7314,1.9053c-2.3551,2.4995-4.9134,4.7843-7.4592,7.0577-2.5812,2.2357-5.1216,4.5018-7.5675,6.8619A62.46359,62.46359,0,0,0,54.5361,334.0361Z" transform="translate(114.8668 -14.9705)"/><path class="cls-5" d="M52.417,316.8264c-2.6902-4.2029-6.4044-7.6402-9.4847-11.5665-.7206,6.3465-1.3248,13.2489,2.0546,18.6687a28.63049,28.63049,0,0,0,4.9838,5.5457c1.4635,1.3675,2.8934,2.8075,4.4263,4.0882C55.8569,327.447,55.9828,322.3974,52.417,316.8264Z" transform="translate(114.8668 -14.9705)"/><path class="cls-8" d="M54.8638,334.1007a62.47388,62.47388,0,0,0-3.3872-9.6224c-1.3676-3.1115-2.8585-6.172-4.3985-9.2197-1.4931-3.0692-2.9936-6.1539-4.2243-9.36l-.8791-2.4196-.7777-2.454-.6153-2.4986c-.1618-.8425-.31-1.6863-.4498-2.5284a63.53317,63.53317,0,0,0,3.4224,9.6107c1.3822,3.1056,2.895,6.155,4.4076,9.2165,1.4655,3.083,2.9815,6.1601,4.2127,9.3661l.8733,2.4219.7699,2.4566.6066,2.5007C54.5828,332.4137,54.7272,333.2581,54.8638,334.1007Z" transform="translate(114.8668 -14.9705)"/><path class="cls-5" d="M67.596,302.3077c4.2537-2.6095,9.0949-4.0836,13.5788-6.2741-2.1185,6.0257-4.584,12.5008-9.9882,15.9051a28.63118,28.63118,0,0,1-6.9032,2.818c-1.9131.5927-3.8278,1.2652-5.7659,1.7493C59.87,310.3661,61.9583,305.7666,67.596,302.3077Z" transform="translate(114.8668 -14.9705)"/><path class="cls-8" d="M57.8629,316.7869q.7353-1.0482,1.4986-2.0855l1.6361-1.9861,1.7638-1.8751,1.8419-1.7988c2.5059-2.3485,5.2117-4.4567,7.8748-6.5924,2.696-2.0956,5.387-4.1804,7.9849-6.3727a63.546,63.546,0,0,0,7.2701-7.1571q-.7395,1.04535-1.5072,2.0794l-1.6431,1.9803-1.7697,1.8694-1.8461,1.7943c-2.5055,2.3487-5.2007,4.4706-7.8825,6.5818-2.7147,2.0714-5.3907,4.1757-7.9781,6.3796A62.45867,62.45867,0,0,0,57.8629,316.7869Z" transform="translate(114.8668 -14.9705)"/><path class="cls-5" d="M56.8145,299.479c-2.4245-4.3616-5.9186-8.0224-8.7494-12.1322-1.1126,6.2896-2.1438,13.1412.8933,18.7602a28.62812,28.62812,0,0,0,4.6305,5.844c1.3758,1.4556,2.7137,2.9815,4.1644,4.3546C59.5896,310.2924,60.0281,305.2602,56.8145,299.479Z" transform="translate(114.8668 -14.9705)"/><path class="cls-8" d="M58.186,316.8716a62.47988,62.47988,0,0,0-2.7844-9.8138c-1.1723-3.1903-2.4705-6.3373-3.8186-9.4746-1.3-3.1558-2.6062-6.3276-3.636-9.6038l-.7275-2.4695-.624-2.4975-.4592-2.5319c-.1093-.8509-.2048-1.7022-.2922-2.5514a63.53545,63.53545,0,0,0,2.82,9.8044c1.187,3.1853,2.5078,6.3226,3.8279,9.4719,1.2716,3.168,2.5939,6.3331,3.624,9.6092l.7216,2.4713.6162,2.4996.4503,2.5335C58.01,315.1704,58.1019,316.0222,58.186,316.8716Z" transform="translate(114.8668 -14.9705)"/><path class="cls-5" d="M72.7663,286.2388c4.4014-2.352,9.3216-3.5354,13.9278-5.4555-2.4731,5.889-5.3192,12.2062-10.9163,15.2831a28.63536,28.63536,0,0,1-7.0585,2.4025c-1.9451.4778-3.8963,1.0354-5.8598,1.4034C64.5747,293.8235,66.9328,289.3563,72.7663,286.2388Z" transform="translate(114.8668 -14.9705)"/><path class="cls-8" d="M62.1893,300.1136q.79635-1.0026,1.62-1.9927l1.7513-1.8852,1.8722-1.767,1.9457-1.686c2.641-2.1953,5.4674-4.139,8.2528-6.1124,2.8159-1.9317,5.6261-3.8527,8.3497-5.8866a63.5445,63.5445,0,0,0,7.6829-6.7121q-.8004.99945-1.6282,1.986l-1.7579,1.8791L88.4,279.6976l-1.9495,1.6813c-2.6407,2.1956-5.4574,4.1534-8.2599,6.1015-2.8331,1.9062-5.6295,3.8477-8.3435,5.8938A62.467,62.467,0,0,0,62.1893,300.1136Z" transform="translate(114.8668 -14.9705)"/><path class="cls-5" d="M62.1722,282.7741c-2.1611-4.4982-5.4311-8.3603-8.0127-12.6309-1.4846,6.2122-2.9213,12.9903-.2239,18.78a28.63317,28.63317,0,0,0,4.275,6.1091c1.2868,1.5347,2.5315,3.1374,3.8981,4.5944C64.2991,293.7333,65.0364,288.7361,62.1722,282.7741Z" transform="translate(114.8668 -14.9705)"/><path class="cls-8" d="M62.5069,300.2176a62.46386,62.46386,0,0,0-2.1959-9.962c-.9805-3.2545-2.0893-6.4731-3.2486-9.685-1.1098-3.2276-2.2253-6.4714-3.0583-9.8031l-.5794-2.5084-.4743-2.5302-.3079-2.5547c-.0584-.8559-.1032-1.7115-.14-2.5643a63.53179,63.53179,0,0,0,2.2321,9.9548c.9954,3.2502,2.1274,6.4606,3.2578,9.6828,1.0809,3.238,2.2127,6.4761,3.0462,9.8077l.5734,2.5099.4664,2.5318.299,2.5558C62.4324,298.5089,62.4735,299.3646,62.5069,300.2176Z" transform="translate(114.8668 -14.9705)"/><path class="cls-5" d="M78.411,270.4473c4.4012-2.3521,9.3216-3.5355,13.9278-5.4557-2.4729,5.8892-5.3191,12.2064-10.9164,15.2832a28.62355,28.62355,0,0,1-7.0584,2.4025c-1.9451.4778-3.8963,1.0353-5.8598,1.4034C70.2195,278.0318,72.5775,273.5648,78.411,270.4473Z" transform="translate(114.8668 -14.9705)"/><path class="cls-8" d="M67.8341,284.3221q.7965-1.0026,1.6199-1.9927l1.7514-1.8853,1.8723-1.7669,1.9456-1.6861c2.6411-2.1953,5.4674-4.139,8.2528-6.1124,2.8159-1.9317,5.6261-3.8528,8.3497-5.8867a63.53661,63.53661,0,0,0,7.6829-6.7122q-.8004.9996-1.6283,1.9861l-1.7578,1.8791-1.8779,1.7609-1.9495,1.6813c-2.6407,2.1956-5.4573,4.1535-8.2598,6.1015-2.8331,1.9063-5.6295,3.8477-8.3435,5.8939A62.45942,62.45942,0,0,0,67.8341,284.3221Z" transform="translate(114.8668 -14.9705)"/><path class="cls-5" d="M67.8168,266.9826c-2.1608-4.4982-5.431-8.3605-8.0124-12.6311-1.4848,6.2123-2.9215,12.9905-.2239,18.7801a28.626,28.626,0,0,0,4.2748,6.1089c1.2868,1.5347,2.5317,3.1375,3.8981,4.5947C69.944,277.9417,70.681,272.9445,67.8168,266.9826Z" transform="translate(114.8668 -14.9705)"/><path class="cls-8" d="M68.1516,284.4258a62.477,62.477,0,0,0-2.1958-9.962c-.9806-3.2544-2.0894-6.473-3.2487-9.6849-1.11-3.2276-2.2253-6.4714-3.0585-9.803l-.5792-2.5084-.4745-2.5302-.3078-2.5547c-.0585-.8559-.1033-1.7114-.1401-2.5643a63.53933,63.53933,0,0,0,2.2321,9.9547c.9956,3.2503,2.1276,6.4606,3.2579,9.6829,1.0811,3.2379,2.2128,6.476,3.0463,9.8076l.5734,2.5099.4664,2.5318.2989,2.5558C68.0771,282.7172,68.1181,283.5729,68.1516,284.4258Z" transform="translate(114.8668 -14.9705)"/><path class="cls-5" d="M84.3458,254.3865c4.4012-2.352,9.3214-3.5356,13.9276-5.4555-2.4731,5.889-5.3191,12.2062-10.9164,15.2831a28.63114,28.63114,0,0,1-7.0585,2.4025c-1.9448.4778-3.8962,1.0354-5.8597,1.4034C76.1542,261.9712,78.5121,257.504,84.3458,254.3865Z" transform="translate(114.8668 -14.9705)"/><path class="cls-8" d="M73.7686,268.2613q.7965-1.0026,1.62-1.9927l1.7514-1.8853,1.8723-1.7669,1.9455-1.686c2.6411-2.1954,5.4674-4.139,8.2528-6.1125,2.816-1.9317,5.6261-3.8528,8.3498-5.8867a63.536,63.536,0,0,0,7.6828-6.7121q-.80025.9996-1.6283,1.986l-1.7578,1.8792-1.8778,1.7609-1.9494,1.6813c-2.6408,2.1956-5.4573,4.1535-8.2599,6.1015-2.8332,1.9062-5.6296,3.8477-8.3435,5.8938A62.47613,62.47613,0,0,0,73.7686,268.2613Z" transform="translate(114.8668 -14.9705)"/><path class="cls-5" d="M73.7514,250.9218c-2.1608-4.4982-5.4311-8.3603-8.0126-12.6311-1.4847,6.2124-2.9213,12.9905-.2237,18.7802a28.631,28.631,0,0,0,4.2748,6.1089c1.2868,1.5349,2.5315,3.1376,3.8981,4.5946C75.8785,261.881,76.6156,256.8838,73.7514,250.9218Z" transform="translate(114.8668 -14.9705)"/><path class="cls-8" d="M74.0861,268.3653a62.46722,62.46722,0,0,0-2.1958-9.9621c-.9804-3.2544-2.0893-6.473-3.2485-9.6849-1.11-3.2276-2.2254-6.4714-3.0584-9.8031l-.5793-2.5084-.4745-2.5302-.3077-2.5547c-.0586-.8559-.1034-1.7115-.14-2.5643a63.52778,63.52778,0,0,0,2.232,9.9547c.9955,3.2503,2.1275,6.4606,3.2578,9.6829,1.081,3.2379,2.2127,6.4761,3.0462,9.8077l.5733,2.5099.4665,2.5318.2989,2.5558C74.0117,266.6566,74.0527,267.5123,74.0861,268.3653Z" transform="translate(114.8668 -14.9705)"/><path class="cls-5" d="M92.2704,238.4246c4.4581-2.2427,9.406-3.3045,14.0581-5.11-2.6176,5.8261-5.6187,12.0712-11.2904,15.0087a28.633,28.633,0,0,1-7.1154,2.2278c-1.9563.4295-3.9207.9387-5.8926,1.258C83.8941,245.8045,86.3618,241.3971,92.2704,238.4246Z" transform="translate(114.8668 -14.9705)"/><path class="cls-8" d="M81.3541,252.034q.8208-.98265,1.6687-1.9521l1.7972-1.8415,1.9154-1.7201,1.9866-1.6375c2.6944-2.1295,5.568-4.0028,8.4012-5.9068,2.8627-1.8616,5.7195-3.7127,8.4925-5.6787a63.53977,63.53977,0,0,0,7.8463-6.5203q-.8247.9795-1.6768,1.9452l-1.8037,1.8351-1.9208,1.714-1.9903,1.6327c-2.6942,2.1297-5.5582,4.0174-8.4081,5.8956-2.8793,1.8357-5.7228,3.7075-8.4863,5.6861A62.449,62.449,0,0,0,81.3541,252.034Z" transform="translate(114.8668 -14.9705)"/><path class="cls-5" d="M81.765,234.6993c-2.0493-4.5502-5.223-8.4918-7.6983-12.8249-1.6377,6.1736-3.2411,12.9143-.6874,18.7688a28.63918,28.63918,0,0,0,4.1227,6.2126c1.2485,1.5659,2.4533,3.1991,3.7834,4.6893C83.6207,245.7076,84.481,240.7302,81.765,234.6993Z" transform="translate(114.8668 -14.9705)"/><path class="cls-8" d="M81.6689,252.1457a62.472,62.472,0,0,0-1.9492-10.0133c-.8998-3.2775-1.9289-6.5226-3.0085-9.7621-1.0299-3.254-2.0648-6.5244-2.8154-9.8756l-.5171-2.5219-.4118-2.5412-.2447-2.5615c-.0373-.8571-.061-1.7135-.0766-2.567a63.51971,63.51971,0,0,0,1.9856,10.0068c.9149,3.2739,1.9671,6.5112,3.0177,9.7604,1.0007,3.2636,2.0521,6.5287,2.8031,9.8799l.5112,2.5232.4038,2.5426.2357,2.5624C81.6367,250.4356,81.6566,251.2921,81.6689,252.1457Z" transform="translate(114.8668 -14.9705)"/><path class="cls-14" d="M89.0248,235.8937c-2.7407,5.9161-5.6241,11.7571-8.1583,17.7576-2.8264,5.8647-5.3402,11.8685-7.896,17.852A296.55157,296.55157,0,0,0,60.486,308.4481a210.71679,210.71679,0,0,0-6.4789,38.4007c-.374,6.4866-.6115,12.9884-.3613,19.4857-.0423,6.5053.4038,13.0057.9102,19.5036-.8327-6.4603-1.6084-12.9477-1.8953-19.4752-.2512-6.5282-.0131-13.0636.3633-19.5831a211.69235,211.69235,0,0,1,6.5084-38.5804,297.53589,297.53589,0,0,1,12.5261-37.0699c2.5608-5.9997,5.0863-12.017,7.9119-17.8971C82.7935,247.3502,85.9921,241.6591,89.0248,235.8937Z" transform="translate(114.8668 -14.9705)"/><path class="cls-5" d="M381.6868,219.6332c-3.4707-3.7807-7.8429-6.6036-11.6596-10.0345.3957,6.5567,1.0078,13.6559,5.3927,18.5469a29.44066,29.44066,0,0,0,6.0324,4.7339c1.7248,1.1256,3.4288,2.3309,5.209,3.3561C387.0553,229.7817,386.2872,224.644,381.6868,219.6332Z" transform="translate(114.8668 -14.9705)"/><path class="cls-8" d="M387.2298,236.6981a64.24362,64.24362,0,0,0-5.1383-9.1467c-1.9452-2.9045-4.0148-5.7277-6.0914-8.5593-2.0566-2.8446-4.1239-5.703-5.9394-8.7326l-1.3197-2.2952-1.2231-2.348-1.0664-2.4219q-.47025-1.2372-.9043-2.4816.59,1.18305,1.1483,2.3695l1.2622,2.3028,1.3359,2.256,1.4253,2.2005c1.9512,2.9007,4.0242,5.7217,6.1001,8.5544,2.0555,2.8457,4.1205,5.7065,5.9286,8.7408l1.3145,2.2984,1.2156,2.352,1.0581,2.4257Q386.8008,235.4519,387.2298,236.6981Z" transform="translate(114.8668 -14.9705)"/><path class="cls-5" d="M425.0134,349.3605c-4.2964-2.8071-9.23-4.4638-13.7755-6.8467,2.0017,6.2564,4.347,12.9849,9.8031,16.6425a29.44433,29.44433,0,0,0,7.0141,3.0986c1.9494.6652,3.8981,1.4126,5.8761,1.9669C432.7205,357.8701,430.7081,353.0809,425.0134,349.3605Z" transform="translate(114.8668 -14.9705)"/><path class="cls-8" d="M434.5963,364.5296a64.25182,64.25182,0,0,0-7.2366-7.5957c-2.6018-2.3346-5.3041-4.5597-8.0154-6.7912-2.6948-2.2491-5.4037-4.5088-7.9108-6.9966l-1.8453-1.8985-1.7648-1.9735-1.6311-2.0838q-.76095-1.08285-1.4886-2.1816.86355,1.0008,1.6975,2.0128l1.7915,1.9201,1.8513,1.8564,1.9243,1.7806c2.6067,2.3295,5.3118,4.5516,8.0225,6.7843,2.6942,2.2504,5.4014,4.5131,7.9025,7.0073l1.8409,1.903,1.7584,1.9792,1.6239,2.0895Q433.8731,363.4279,434.5963,364.5296Z" transform="translate(114.8668 -14.9705)"/><path class="cls-5" d="M436.1795,346.7676c2.6199-4.413,6.319-8.0743,9.3491-12.2164.9601,6.4984,1.8196,13.5719-1.4665,19.2597a29.45314,29.45314,0,0,1-4.931,5.8721c-1.4569,1.4562-2.8767,2.9857-4.4084,4.355C433.011,357.8027,432.707,352.6168,436.1795,346.7676Z" transform="translate(114.8668 -14.9705)"/><path class="cls-8" d="M434.2617,364.6073c.1112-.8708.2306-1.7437.3642-2.6159l.537-2.5913.7064-2.5515.8141-2.5195c1.146-3.341,2.5791-6.5651,4.006-9.7725,1.4496-3.1988,2.8987-6.3855,4.2122-9.6253l.9426-2.4463.8439-2.4824.7619-2.513q.3021-1.2768.637-2.5549c-.1146.8704-.2378,1.7428-.375,2.6144l-.546,2.5894-.7145,2.5492-.82,2.5173c-1.1541,3.338-2.5901,6.5602-4.0182,9.7667-1.4504,3.1979-2.8957,6.3861-4.2026,9.6283A64.24265,64.24265,0,0,0,434.2617,364.6073Z" transform="translate(114.8668 -14.9705)"/><path class="cls-5" d="M422.3337,331.7515c-4.2966-2.807-9.2302-4.4637-13.7757-6.8465,2.0017,6.2563,4.3471,12.9849,9.8032,16.6426a29.44938,29.44938,0,0,0,7.014,3.0986c1.9494.665,3.8981,1.4125,5.8763,1.9667C430.0405,340.2613,428.0283,335.4722,422.3337,331.7515Z" transform="translate(114.8668 -14.9705)"/><path class="cls-8" d="M431.9164,346.9207a64.24978,64.24978,0,0,0-7.2364-7.5957c-2.6019-2.3345-5.3042-4.5596-8.0155-6.7911-2.6948-2.2491-5.4037-4.5089-7.9107-6.9967l-1.8453-1.8985-1.7648-1.9735-1.6311-2.0838q-.761-1.08285-1.4886-2.1816.86355,1.0008,1.6975,2.0128l1.7914,1.9201,1.8514,1.8565,1.9242,1.7806c2.6067,2.3295,5.3118,4.5516,8.0225,6.7843,2.6942,2.2504,5.4013,4.5131,7.9024,7.0073l1.841,1.9029,1.7585,1.9792,1.6239,2.0895Q431.19325,345.819,431.9164,346.9207Z" transform="translate(114.8668 -14.9705)"/><path class="cls-5" d="M433.4996,329.1587c2.6201-4.413,6.3189-8.074,9.3492-12.216.96,6.498,1.8198,13.5715-1.4667,19.2591a29.43878,29.43878,0,0,1-4.9308,5.8725c-1.457,1.456-2.8768,2.9855-4.4083,4.3548C430.3312,340.1938,430.0271,335.0081,433.4996,329.1587Z" transform="translate(114.8668 -14.9705)"/><path class="cls-8" d="M431.5817,346.9984c.1114-.8707.2306-1.7437.3643-2.6158l.537-2.5913.7064-2.5516.8141-2.5195c1.1461-3.341,2.5792-6.5651,4.006-9.7724,1.4495-3.1988,2.8986-6.3856,4.2121-9.6253l.9428-2.4463.8438-2.4824.7621-2.513q.3021-1.2768.637-2.5548c-.1146.8704-.2378,1.7428-.375,2.6143l-.546,2.5894-.7146,2.5492-.82,2.5174c-1.1543,3.3379-2.5902,6.5601-4.0182,9.7666-1.4505,3.1979-2.8958,6.3861-4.2027,9.6282A64.243,64.243,0,0,0,431.5817,346.9984Z" transform="translate(114.8668 -14.9705)"/><path class="cls-5" d="M418.575,315.5064c-4.4691-2.5233-9.4997-3.857-14.1897-5.9408,2.4023,6.1136,5.1781,12.6763,10.8596,15.9731a29.43892,29.43892,0,0,0,7.1999,2.6383c1.9882.5377,3.9812,1.1573,5.991,1.5823C426.8167,323.4994,424.4985,318.8506,418.575,315.5064Z" transform="translate(114.8668 -14.9705)"/><path class="cls-8" d="M429.1193,330.0236a64.22583,64.22583,0,0,0-7.7129-7.1115c-2.7474-2.1613-5.588-4.2069-8.4381-6.2582-2.8347-2.0701-5.6842-4.1498-8.3468-6.4702l-1.9643-1.7751-1.8888-1.8551-1.7626-1.9739q-.82935-1.0314-1.6267-2.0807.92655.94275,1.8242,1.8987l1.912,1.8001,1.9677,1.7328,2.0354,1.6524c2.7519,2.1559,5.5952,4.1983,8.4447,6.2509,2.8342,2.0714,5.6821,4.1542,8.3393,6.4813l1.9602,1.7798,1.8829,1.8613,1.7557,1.98Q428.32635,328.9709,429.1193,330.0236Z" transform="translate(114.8668 -14.9705)"/><path class="cls-5" d="M429.55,312.1963c2.3288-4.5732,5.7829-8.4662,8.5389-12.7957,1.3786,6.4226,2.694,13.4258-.2173,19.314a29.44234,29.44234,0,0,1-4.5405,6.1791c-1.3597,1.5473-2.6777,3.1655-4.1172,4.6311C427.1021,323.4134,426.4632,318.258,429.55,312.1963Z" transform="translate(114.8668 -14.9705)"/><path class="cls-8" d="M428.7905,330.1228c.0547-.8762.1173-1.755.1942-2.634l.3681-2.6206.5398-2.5919.6493-2.5669c.9275-3.4082,2.149-6.7183,3.3653-10.0113,1.2395-3.2858,2.4793-6.5597,3.5804-9.8777l.7825-2.5022.6814-2.5318.5979-2.557q.21885-1.29375.4702-2.5908c-.058.876-.1245,1.7546-.205,2.6332l-.3774,2.6193-.548,2.5901-.6554,2.5652c-.9358,3.4056-2.1601,6.714-3.3777,10.0062-1.2406,3.285-2.4765,6.5601-3.5709,9.8801A64.22617,64.22617,0,0,0,428.7905,330.1228Z" transform="translate(114.8668 -14.9705)"/><path class="cls-5" d="M412.5487,298.8701c-4.617-2.2411-9.7205-3.2608-14.5308-5.0498,2.7767,5.9531,5.954,12.3311,11.8288,15.2694a29.44349,29.44349,0,0,0,7.3496,2.1868c2.0178.4134,4.0454.9082,6.0778,1.208C421.2697,306.3372,418.668,301.8408,412.5487,298.8701Z" transform="translate(114.8668 -14.9705)"/><path class="cls-8" d="M423.9725,312.7058a64.24813,64.24813,0,0,0-8.1388-6.6197c-2.8762-1.9868-5.8382-3.8524-8.8097-5.7232-2.9577-1.8903-5.9306-3.7894-8.7319-5.9403l-2.0706-1.6499-2.0001-1.7345-1.8816-1.8608q-.89175-.978-1.7526-1.9759.98325.88365,1.9385,1.782l2.0199,1.6781,2.0712,1.6075,2.1339,1.523c2.8803,1.9812,5.8447,3.8435,8.8159,5.7155,2.9571,1.8918,5.9287,3.794,8.725,5.9519l2.0669,1.6549,1.9946,1.741,1.875,1.8674Q423.1158,311.7044,423.9725,312.7058Z" transform="translate(114.8668 -14.9705)"/><path class="cls-5" d="M423.2974,294.8862c2.0408-4.7088,5.2471-8.8083,7.7292-13.3003,1.774,6.3247,3.5213,13.2328.9804,19.2903a29.44274,29.44274,0,0,1-4.1487,6.4487c-1.2611,1.6287-2.4763,3.3255-3.8224,4.8773C421.5493,306.2335,420.5922,301.1275,423.2974,294.8862Z" transform="translate(114.8668 -14.9705)"/><path class="cls-8" d="M423.6503,312.8252c.0003-.8779.0083-1.7589.0307-2.6409l.2051-2.6384.3781-2.6204.4889-2.6022c.7145-3.4591,1.7284-6.8386,2.7383-10.2006,1.0334-3.3563,2.068-6.7008,2.9612-10.0806l.6258-2.5459.5232-2.5691.4381-2.5892q.1383-1.30485.3088-2.6149c-.0036.8779-.0154,1.7588-.0414,2.6408l-.2143,2.6376-.3863,2.6191-.4951,2.6008c-.7228,3.4571-1.7399,6.8351-2.751,10.1964-1.0346,3.3556-2.0651,6.701-2.9515,10.0824A64.25517,64.25517,0,0,0,423.6503,312.8252Z" transform="translate(114.8668 -14.9705)"/><path class="cls-5" d="M405.6342,282.9467c-4.7421-1.9627-9.8972-2.6769-14.8053-4.1768,3.1258,5.7773,6.6767,11.9552,12.7159,14.5389a29.44274,29.44274,0,0,0,7.4666,1.7459c2.0389.2926,4.0922.6663,6.1389.8446C414.784,289.8819,411.9194,285.5481,405.6342,282.9467Z" transform="translate(114.8668 -14.9705)"/><path class="cls-8" d="M417.8607,296.0785a64.2419,64.2419,0,0,0-8.5181-6.124c-2.9893-1.8123-6.0569-3.4984-9.1345-5.1891-3.0648-1.7111-6.1454-3.4301-9.0697-5.4105l-2.1651-1.5239-2.0997-1.6125-1.9889-1.7457q-.9483-.9231-1.8669-1.8681,1.034.8235,2.041,1.6635l2.1161,1.5551,2.1632,1.4815,2.2207,1.3934c2.9929,1.8064,6.0628,3.4891,9.1401,5.1811,3.0645,1.7126,6.1438,3.4347,9.0635,5.4225l2.1616,1.5291,2.0946,1.6192,1.9828,1.7526Q416.9461,295.12985,417.8607,296.0785Z" transform="translate(114.8668 -14.9705)"/><path class="cls-5" d="M416.1269,278.3307c1.7574-4.822,4.7141-9.1048,6.9249-13.7363,2.1468,6.2078,4.3018,12.9999,2.1259,19.1977a29.44581,29.44581,0,0,1-3.7583,6.6841c-1.162,1.7007-2.274,3.4667-3.5255,5.0959C415.057,289.7617,413.7977,284.7218,416.1269,278.3307Z" transform="translate(114.8668 -14.9705)"/><path class="cls-8" d="M417.5461,296.217c-.0519-.8763-.0963-1.7563-.1265-2.6381l.0479-2.6459.2217-2.6383.3332-2.6266c.5076-3.4955,1.3187-6.9293,2.1268-10.3454.8321-3.4119,1.6659-6.812,2.3566-10.2389l.4734-2.5786.3695-2.5957.2833-2.6107q.06045-1.3107.1527-2.6287c.0486.8766.0893,1.7567.1158,2.6386l-.0571,2.6457-.2299,2.6375-.3396,2.6257c-.516,3.4939-1.3304,6.9264-2.1398,10.3419-.8331,3.4112-1.663,6.8119-2.3468,10.2401A64.24273,64.24273,0,0,0,417.5461,296.217Z" transform="translate(114.8668 -14.9705)"/><path class="cls-5" d="M398.2623,267.3549c-4.742-1.9627-9.8972-2.6769-14.8054-4.177,3.1257,5.7776,6.6766,11.9555,12.7159,14.5391a29.44166,29.44166,0,0,0,7.4667,1.746c2.0389.2925,4.0921.666,6.1388.8445C407.4119,274.2899,404.5475,269.9563,398.2623,267.3549Z" transform="translate(114.8668 -14.9705)"/><path class="cls-8" d="M410.4886,280.4868a64.24263,64.24263,0,0,0-8.5181-6.1241c-2.9892-1.8123-6.0569-3.4984-9.1345-5.1891-3.0648-1.7112-6.1453-3.4302-9.0697-5.4106l-2.1649-1.5239-2.0997-1.6125-1.9889-1.7457q-.9483-.92325-1.867-1.8682,1.034.82365,2.041,1.6636l2.116,1.5551,2.1632,1.4815,2.2207,1.3934c2.9931,1.8065,6.0629,3.4891,9.1401,5.1812,3.0645,1.7125,6.1438,3.4347,9.0635,5.4225l2.1616,1.5291,2.0946,1.6193,1.9828,1.7526C409.259,279.229,409.8776,279.8564,410.4886,280.4868Z" transform="translate(114.8668 -14.9705)"/><path class="cls-5" d="M408.755,262.7389c1.7572-4.8219,4.714-9.105,6.9246-13.7364,2.1471,6.208,4.302,13,2.1259,19.1979a29.442,29.442,0,0,1-3.7581,6.6839c-1.162,1.7006-2.2742,3.4667-3.5254,5.096C407.6848,274.17,406.4258,269.13,408.755,262.7389Z" transform="translate(114.8668 -14.9705)"/><path class="cls-8" d="M410.1741,280.6251c-.052-.8764-.0964-1.7563-.1264-2.6381l.0477-2.6459.2217-2.6383.3334-2.6266c.5074-3.4955,1.3187-6.9293,2.1268-10.3454.832-3.4119,1.6659-6.8119,2.3567-10.2389l.4732-2.5786.3697-2.5957.2833-2.6106q.06045-1.3107.1528-2.6287c.0486.8766.0891,1.7567.1156,2.6386l-.057,2.6457-.23,2.6375-.3396,2.6257c-.5159,3.4939-1.3303,6.9263-2.1397,10.3418-.8333,3.4112-1.6631,6.8119-2.347,10.2401A64.25385,64.25385,0,0,0,410.1741,280.6251Z" transform="translate(114.8668 -14.9705)"/><path class="cls-5" d="M390.5663,251.5169c-4.742-1.9627-9.8971-2.6771-14.8052-4.1768,3.1258,5.7773,6.6766,11.9553,12.7159,14.5389a29.44191,29.44191,0,0,0,7.4666,1.746c2.0388.2926,4.0922.6662,6.1389.8445C399.716,258.4521,396.8516,254.1183,390.5663,251.5169Z" transform="translate(114.8668 -14.9705)"/><path class="cls-8" d="M402.7928,264.6488a64.24361,64.24361,0,0,0-8.5182-6.1241c-2.9891-1.8123-6.0568-3.4984-9.1344-5.1891-3.0648-1.7112-6.1454-3.4302-9.0697-5.4106l-2.165-1.5239-2.0996-1.6125-1.9889-1.7457q-.9483-.92325-1.8671-1.8682,1.0341.82365,2.041,1.6636l2.1161,1.5551,2.1632,1.4815,2.2207,1.3934c2.9929,1.8064,6.0629,3.4891,9.1401,5.1812,3.0644,1.7125,6.1438,3.4347,9.0635,5.4225l2.1615,1.5291,2.0946,1.6193,1.9828,1.7526Q401.8781,263.7,402.7928,264.6488Z" transform="translate(114.8668 -14.9705)"/><path class="cls-5" d="M401.0591,246.9009c1.7573-4.8219,4.7141-9.1048,6.9249-13.7365,2.1469,6.2081,4.3018,13.0001,2.1256,19.198a29.44165,29.44165,0,0,1-3.758,6.6839c-1.162,1.7008-2.274,3.4668-3.5254,5.096C399.989,258.332,398.7299,253.292,401.0591,246.9009Z" transform="translate(114.8668 -14.9705)"/><path class="cls-8" d="M402.4783,264.7873c-.052-.8764-.0963-1.7563-.1264-2.6381l.0477-2.646.2217-2.6382.3334-2.6267c.5074-3.4955,1.3186-6.9292,2.1267-10.3454.832-3.4119,1.6659-6.8119,2.3565-10.2389l.4734-2.5786.3695-2.5957.2835-2.6107q.06045-1.3107.1527-2.6286c.0486.8765.0891,1.7566.1157,2.6386l-.0571,2.6457-.23,2.6374-.3395,2.6257c-.5161,3.494-1.3303,6.9264-2.1398,10.3419-.8332,3.4113-1.6629,6.812-2.3468,10.2401A64.25507,64.25507,0,0,0,402.4783,264.7873Z" transform="translate(114.8668 -14.9705)"/><path class="cls-5" d="M380.8437,235.9811c-4.7892-1.8451-9.9603-2.432-14.9038-3.8101,3.2673,5.6984,6.9695,11.7868,13.071,14.2205a29.447,29.447,0,0,0,7.5072,1.5613c2.0455.242,4.1075.5647,6.1579.6924C390.1618,242.6881,387.1911,238.4265,380.8437,235.9811Z" transform="translate(114.8668 -14.9705)"/><path class="cls-8" d="M393.3906,248.807a64.24928,64.24928,0,0,0-8.6667-5.9119c-3.033-1.7379-6.1413-3.3478-9.2598-4.962-3.1061-1.6349-6.2282-3.2773-9.2005-5.1849l-2.202-1.47-2.1389-1.5601-2.0314-1.696q-.9708-.89955-1.9125-1.8215,1.05405.79785,2.0814,1.6126l2.1539,1.5024,2.1991,1.4276,2.2543,1.3382c3.0368,1.7319,6.1473,3.3382,9.2654,4.9538,3.1057,1.6363,6.2267,3.2819,9.1946,5.1971l2.1986,1.4752,2.134,1.5671,2.0254,1.7031C392.1303,247.58,392.7643,248.1919,393.3906,248.807Z" transform="translate(114.8668 -14.9705)"/><path class="cls-5" d="M391.2192,231.1073c1.6378-4.8638,4.4878-9.2183,6.5835-13.9031,2.2997,6.153,4.6214,12.8899,2.5991,19.1395a29.4468,29.4468,0,0,1-3.5919,6.7747c-1.1196,1.7287-2.1877,3.5219-3.3984,5.1814C390.4318,242.5613,389.0486,237.554,391.2192,231.1073Z" transform="translate(114.8668 -14.9705)"/><path class="cls-8" d="M393.0797,248.9531c-.0737-.8748-.1398-1.7533-.1917-2.6341l-.0175-2.6463.1564-2.6429.2685-2.6341c.421-3.507,1.1472-6.9597,1.8707-10.3948.7475-3.4314,1.4972-6.8509,2.103-10.2939l.4094-2.5895.3053-2.604.2189-2.6169q.02805-1.31175.0878-2.6316c.0702.8751.1325,1.7539.1809,2.6349l.0083,2.6463-.1648,2.6423-.2747,2.6333c-.4295,3.5057-1.1588,6.9571-1.8836,10.3916-.7488,3.4307-1.4943,6.8509-2.0933,10.2949A64.22835,64.22835,0,0,0,393.0797,248.9531Z" transform="translate(114.8668 -14.9705)"/><path class="cls-14" d="M383.9097,233.063c3.6861,5.5943,7.5346,11.0958,11.018,16.8308,3.4857,5.7326,6.6782,11.636,9.9049,17.5177a305.94266,305.94266,0,0,1,16.5638,36.6741,217.6889,217.6889,0,0,1,10.5576,38.8278c1.0436,6.6343,1.9474,13.2989,2.3497,20.0055.3656,6.7096.2269,13.4275.0272,20.1234-.1381-6.7014-.3379-13.3993-1.0384-20.0529-.4-6.6749-1.2998-13.3052-2.3377-19.9061a216.68715,216.68715,0,0,0-10.5093-38.6469,304.95958,304.95958,0,0,0-16.5084-36.5502c-3.2201-5.8657-6.3993-11.7564-9.8842-17.4731C390.8532,244.5278,387.3123,238.841,383.9097,233.063Z" transform="translate(114.8668 -14.9705)"/><path class="cls-5" d="M357.5001,267.7675c-3.1968-3.4823-7.2239-6.0825-10.7394-9.2426.3644,6.0392.9282,12.5782,4.9671,17.0832a27.12057,27.12057,0,0,0,5.5563,4.3603c1.5887,1.0368,3.1583,2.147,4.7979,3.0914C362.445,277.1151,361.7375,272.3829,357.5001,267.7675Z" transform="translate(114.8668 -14.9705)"/><path class="cls-8" d="M362.6057,283.4857a59.17569,59.17569,0,0,0-4.7327-8.4249c-1.7847-2.6798-3.6758-5.2918-5.6106-7.884-1.8731-2.6355-3.79-5.2584-5.4708-8.0433a41.68891,41.68891,0,0,1-4.1574-8.7933,60.18226,60.18226,0,0,0,4.7636,8.4083c1.7885,2.6775,3.6853,5.2858,5.6185,7.8796,1.8711,2.6372,3.7883,5.2606,5.4609,8.0509A41.309,41.309,0,0,1,362.6057,283.4857Z" transform="translate(114.8668 -14.9705)"/><path class="cls-5" d="M397.4077,387.2575c-3.9574-2.5856-8.5017-4.1116-12.6884-6.3064,1.8437,5.7626,4.0039,11.9602,9.0294,15.3292a27.12277,27.12277,0,0,0,6.4606,2.854c1.7956.6127,3.5905,1.3012,5.4125,1.8117C404.5065,395.0956,402.653,390.6843,397.4077,387.2575Z" transform="translate(114.8668 -14.9705)"/><path class="cls-8" d="M406.2343,401.2296a59.15281,59.15281,0,0,0-6.6655-6.9964c-2.3906-2.1565-4.8679-4.221-7.3827-6.2554-2.4656-2.0917-4.9706-4.1604-7.2866-6.4444a41.68838,41.68838,0,0,1-6.1989-7.4952,60.18087,60.18087,0,0,0,6.6914,6.9726c2.3941,2.1531,4.8758,4.2127,7.3893,6.2491,2.4641,2.0939,4.9695,4.163,7.2789,6.4542A41.3099,41.3099,0,0,1,406.2343,401.2296Z" transform="translate(114.8668 -14.9705)"/><path class="cls-5" d="M407.6926,384.8692c2.4132-4.0648,5.8203-7.4371,8.6113-11.2523.8843,5.9855,1.6761,12.5009-1.3508,17.7398a27.131,27.131,0,0,1-4.5418,5.4087c-1.342,1.3413-2.6497,2.7501-4.0605,4.0114C404.7742,395.0335,404.4941,390.2568,407.6926,384.8692Z" transform="translate(114.8668 -14.9705)"/><path class="cls-8" d="M405.9261,401.3011a41.30984,41.30984,0,0,1,2.2306-9.4671c1.0636-3.0744,2.4009-6.0358,3.6902-9.0012,1.3589-2.9357,2.6792-5.8781,3.8795-8.8659a60.21494,60.21494,0,0,0,2.9341-9.2077,41.69338,41.69338,0,0,1-2.2618,9.4599c-1.0726,3.0708-2.4097,6.0317-3.7012,8.9959-1.361,2.9343-2.6751,5.8792-3.8709,8.8685A59.17285,59.17285,0,0,0,405.9261,401.3011Z" transform="translate(114.8668 -14.9705)"/><path class="cls-5" d="M394.9394,371.0381c-3.9575-2.5855-8.5018-4.1114-12.6885-6.3063,1.8437,5.7627,4.004,11.9603,9.0295,15.3293a27.11953,27.11953,0,0,0,6.4606,2.8541c1.7955.6125,3.5904,1.301,5.4125,1.8115C402.0381,378.8763,400.1846,374.4652,394.9394,371.0381Z" transform="translate(114.8668 -14.9705)"/><path class="cls-8" d="M403.7661,385.0102a59.18476,59.18476,0,0,0-6.6656-6.9963c-2.3907-2.1564-4.8679-4.221-7.3827-6.2554-2.4655-2.0917-4.9705-4.1604-7.2866-6.4443a41.69617,41.69617,0,0,1-6.1988-7.4953,60.18753,60.18753,0,0,0,6.6912,6.9726c2.3941,2.1532,4.8759,4.2127,7.3893,6.2491,2.4641,2.0939,4.9695,4.163,7.2791,6.4542A41.31679,41.31679,0,0,1,403.7661,385.0102Z" transform="translate(114.8668 -14.9705)"/><path class="cls-5" d="M405.2242,368.6499c2.4134-4.0648,5.8203-7.4369,8.6114-11.252.8842,5.9852,1.6762,12.5006-1.3509,17.7393a27.11767,27.11767,0,0,1-4.5418,5.4091c-1.342,1.3411-2.6497,2.7499-4.0604,4.0111C402.3058,378.8142,402.0257,374.0377,405.2242,368.6499Z" transform="translate(114.8668 -14.9705)"/><path class="cls-8" d="M403.4577,385.0818a41.30984,41.30984,0,0,1,2.2306-9.4671c1.0636-3.0744,2.4008-6.0358,3.6902-9.0012,1.3589-2.9356,2.6792-5.878,3.8795-8.8658a60.18218,60.18218,0,0,0,2.9342-9.2077,41.69212,41.69212,0,0,1-2.2618,9.4599c-1.0727,3.0708-2.4098,6.0317-3.7013,8.9958-1.3611,2.9344-2.6751,5.8792-3.8709,8.8686A59.179,59.179,0,0,0,403.4577,385.0818Z" transform="translate(114.8668 -14.9705)"/><path class="cls-5" d="M391.4774,356.0749c-4.1165-2.3241-8.7501-3.5526-13.07-5.4719,2.2128,5.6311,4.7695,11.676,10.0026,14.7126a27.11378,27.11378,0,0,0,6.6318,2.43c1.8313.4953,3.667,1.066,5.5182,1.4575C399.0686,363.4372,396.9334,359.1552,391.4774,356.0749Z" transform="translate(114.8668 -14.9705)"/><path class="cls-8" d="M401.1896,369.4465a59.17149,59.17149,0,0,0-7.1042-6.5503c-2.5253-1.9972-5.131-3.8972-7.7721-5.7645-2.5957-1.9278-5.2294-3.8301-7.6884-5.9594a41.69683,41.69683,0,0,1-6.6709-7.0784,60.18887,60.18887,0,0,0,7.1286,6.525c2.5283,1.9937,5.1382,3.8883,7.7782,5.7579,2.5945,1.93,5.2284,3.8326,7.6814,5.9695A41.313,41.313,0,0,1,401.1896,369.4465Z" transform="translate(114.8668 -14.9705)"/><path class="cls-5" d="M401.5863,353.0261c2.145-4.2124,5.3265-7.7981,7.865-11.7859,1.2698,5.9157,2.4815,12.3662-.2001,17.7898a27.11685,27.11685,0,0,1-4.1822,5.6915c-1.2524,1.4252-2.4664,2.9157-3.7923,4.2656C399.3315,363.3579,398.7431,358.6094,401.5863,353.0261Z" transform="translate(114.8668 -14.9705)"/><path class="cls-8" d="M400.8867,369.5379a41.31661,41.31661,0,0,1,1.6132-9.5916c.8625-3.1368,2.0053-6.1785,3.1-9.2212,1.166-3.0174,2.2932-6.0391,3.2976-9.0983a60.1794,60.1794,0,0,0,2.3322-9.3783,41.68885,41.68885,0,0,1-1.6449,9.5864c-.8716,3.1339-2.0144,6.175-3.1113,9.2166-1.1684,3.0162-2.289,6.04-3.2889,9.1004A59.183,59.183,0,0,0,400.8867,369.5379Z" transform="translate(114.8668 -14.9705)"/><path class="cls-5" d="M385.9266,340.7515c-4.2526-2.0642-8.9535-3.0034-13.3841-4.6513,2.5575,5.4833,5.4841,11.358,10.8953,14.0644a27.11668,27.11668,0,0,0,6.7697,2.0142c1.8585.3808,3.7261.8366,5.5981,1.1127C393.9594,347.6293,391.563,343.4878,385.9266,340.7515Z" transform="translate(114.8668 -14.9705)"/><path class="cls-8" d="M396.4489,353.4954a59.1743,59.1743,0,0,0-7.4966-6.0974c-2.6441-1.8368-5.3625-3.5716-8.1143-5.2717-2.7103-1.7632-5.4567-3.4985-8.043-5.4713a41.70255,41.70255,0,0,1-7.0968-6.6513,60.17408,60.17408,0,0,0,7.5193,6.0705c2.6471,1.8332,5.3692,3.5624,8.1201,5.2647,2.7091,1.7655,5.4559,3.5012,8.0366,5.482A41.31676,41.31676,0,0,1,396.4489,353.4954Z" transform="translate(114.8668 -14.9705)"/><path class="cls-5" d="M395.827,337.082c1.8798-4.3372,4.8331-8.1132,7.1194-12.2508,1.6339,5.8256,3.2433,12.1886.903,17.7681a27.119,27.119,0,0,1-3.8214,5.9398c-1.1615,1.5001-2.2808,3.063-3.5207,4.4924C394.217,347.5338,393.3354,342.8308,395.827,337.082Z" transform="translate(114.8668 -14.9705)"/><path class="cls-8" d="M396.1522,353.6053a41.311,41.311,0,0,1,1.0157-9.6731c.6664-3.1842,1.6184-6.2909,2.5225-9.3956.9768-3.0839,1.9144-6.1696,2.7273-9.2852a60.17349,60.17349,0,0,0,1.7462-9.5048,41.68525,41.68525,0,0,1-1.0474,9.67c-.6756,3.1818-1.6277,6.2879-2.534,9.3916-.9792,3.0829-1.9102,6.1703-2.7185,9.2868A59.181,59.181,0,0,0,396.1522,353.6053Z" transform="translate(114.8668 -14.9705)"/><path class="cls-5" d="M379.5578,326.0846c-4.3679-1.8077-9.1162-2.4656-13.637-3.8471,2.8791,5.3214,6.1499,11.0117,11.7124,13.3915a27.11808,27.11808,0,0,0,6.8774,1.6082c1.8781.2695,3.7693.6137,5.6545.7779C387.9855,332.4725,385.347,328.4808,379.5578,326.0846Z" transform="translate(114.8668 -14.9705)"/><path class="cls-8" d="M390.8194,338.1802a59.1674,59.1674,0,0,0-7.8459-5.6407c-2.7488-1.6764-5.5655-3.2465-8.4135-4.7799-2.8103-1.5989-5.6552-3.1678-8.3541-4.9833a41.693,41.693,0,0,1-7.4798-6.2175,60.18362,60.18362,0,0,0,7.867,5.6126c2.7513,1.6726,5.5716,3.2368,8.4188,4.7725,2.8092,1.6013,5.6544,3.1706,8.3483,4.9944A41.307,41.307,0,0,1,390.8194,338.1802Z" transform="translate(114.8668 -14.9705)"/><path class="cls-5" d="M389.2225,321.8329c1.6187-4.4414,4.342-8.3863,6.3784-12.6523,1.9774,5.718,3.9622,11.974,1.9581,17.6827a27.12318,27.12318,0,0,1-3.4617,6.1567c-1.0703,1.5664-2.0945,3.1931-3.2473,4.6937C388.237,332.3618,387.0771,327.7197,389.2225,321.8329Z" transform="translate(114.8668 -14.9705)"/><path class="cls-8" d="M390.5296,338.3078a41.31768,41.31768,0,0,1,.4388-9.7165c.4758-3.2182,1.2414-6.376,1.9593-9.529.7916-3.1365,1.5442-6.2725,2.1703-9.4309a60.17833,60.17833,0,0,0,1.1779-9.5919,41.69239,41.69239,0,0,1-.4704,9.7151c-.4854,3.2164-1.251,6.3737-1.9712,9.5258-.794,3.1356-1.5398,6.2729-2.1614,9.432A59.18094,59.18094,0,0,0,390.5296,338.3078Z" transform="translate(114.8668 -14.9705)"/><path class="cls-5" d="M372.7676,311.7233c-4.3678-1.8078-9.1162-2.4657-13.6371-3.8474,2.8791,5.3216,6.1498,11.012,11.7125,13.3918a27.12034,27.12034,0,0,0,6.8774,1.6082c1.8781.2694,3.7693.6134,5.6545.7778C381.1952,318.111,378.5568,314.1194,372.7676,311.7233Z" transform="translate(114.8668 -14.9705)"/><path class="cls-8" d="M384.029,323.8189a59.16715,59.16715,0,0,0-7.8458-5.6408c-2.7488-1.6764-5.5656-3.2465-8.4136-4.7799-2.8102-1.5989-5.655-3.1679-8.354-4.9834a41.69658,41.69658,0,0,1-7.4797-6.2175,60.19279,60.19279,0,0,0,7.8669,5.6127c2.7513,1.6725,5.5717,3.2368,8.4187,4.7725,2.8093,1.6012,5.6545,3.1706,8.3484,4.9944A41.31441,41.31441,0,0,1,384.029,323.8189Z" transform="translate(114.8668 -14.9705)"/><path class="cls-5" d="M382.4323,307.4716c1.6185-4.4414,4.342-8.3865,6.3781-12.6525,1.9777,5.7181,3.9626,11.9742,1.9582,17.6829a27.12108,27.12108,0,0,1-3.4615,6.1565c-1.0703,1.5664-2.0948,3.1931-3.2473,4.6939C381.4466,318.0005,380.2868,313.3583,382.4323,307.4716Z" transform="translate(114.8668 -14.9705)"/><path class="cls-8" d="M383.7394,323.9463a41.31233,41.31233,0,0,1,.4388-9.7165c.4758-3.2182,1.2414-6.376,1.9592-9.5289.7917-3.1366,1.5443-6.2726,2.1704-9.431a60.17594,60.17594,0,0,0,1.1781-9.5918,41.6873,41.6873,0,0,1-.4706,9.7151c-.4853,3.2164-1.251,6.3736-1.9712,9.5257-.794,3.1357-1.5399,6.273-2.1615,9.4321A59.18807,59.18807,0,0,0,383.7394,323.9463Z" transform="translate(114.8668 -14.9705)"/><path class="cls-5" d="M365.6789,297.1352c-4.3678-1.8079-9.1161-2.4659-13.6369-3.8473,2.8792,5.3214,6.1498,11.0119,11.7125,13.3916a27.11609,27.11609,0,0,0,6.8774,1.6082c1.8779.2695,3.7693.6136,5.6544.7779C374.1065,303.5231,371.4683,299.5312,365.6789,297.1352Z" transform="translate(114.8668 -14.9705)"/><path class="cls-8" d="M376.9405,309.2307a59.18277,59.18277,0,0,0-7.8458-5.6408c-2.7488-1.6764-5.5656-3.2464-8.4136-4.7799-2.8103-1.5989-5.655-3.1678-8.354-4.9834a41.6847,41.6847,0,0,1-7.4797-6.2175,60.17294,60.17294,0,0,0,7.8668,5.6127c2.7514,1.6725,5.5716,3.2368,8.4188,4.7726,2.8093,1.6012,5.6545,3.1705,8.3484,4.9943A41.31441,41.31441,0,0,1,376.9405,309.2307Z" transform="translate(114.8668 -14.9705)"/><path class="cls-5" d="M375.3437,292.8834c1.6186-4.4414,4.3421-8.3863,6.3784-12.6525,1.9775,5.7182,3.9623,11.9742,1.9579,17.683a27.11662,27.11662,0,0,1-3.4615,6.1564c-1.0702,1.5666-2.0945,3.1933-3.2472,4.6939C374.358,303.4124,373.1983,298.7702,375.3437,292.8834Z" transform="translate(114.8668 -14.9705)"/><path class="cls-8" d="M376.6509,309.3583a41.31233,41.31233,0,0,1,.4388-9.7165c.4757-3.2182,1.2413-6.3761,1.9592-9.529.7916-3.1365,1.5442-6.2726,2.1703-9.4309a60.18,60.18,0,0,0,1.1781-9.5919,41.6982,41.6982,0,0,1-.4706,9.7151c-.4854,3.2164-1.251,6.3737-1.9712,9.5257-.7939,3.1357-1.5398,6.273-2.1614,9.4321A59.19193,59.19193,0,0,0,376.6509,309.3583Z" transform="translate(114.8668 -14.9705)"/><path class="cls-5" d="M356.7236,282.8253c-4.4113-1.6995-9.1743-2.2401-13.7277-3.5094,3.0095,5.2487,6.4195,10.8566,12.0395,13.0982a27.12068,27.12068,0,0,0,6.9147,1.4382c1.8842.2229,3.7834.5201,5.672.6377C365.3063,289.003,362.5701,285.0777,356.7236,282.8253Z" transform="translate(114.8668 -14.9705)"/><path class="cls-8" d="M368.2803,294.6391a59.16685,59.16685,0,0,0-7.9828-5.4453c-2.7893-1.6081-5.6439-3.1081-8.5289-4.5708-2.8489-1.529-5.7315-3.0272-8.4746-4.7755a41.69569,41.69569,0,0,1-7.631-6.0309,60.18126,60.18126,0,0,0,8.0032,5.4167c2.7919,1.6041,5.6499,3.0982,8.5341,4.5631,2.8479,1.5315,5.7309,3.03,8.4691,4.7868A41.30972,41.30972,0,0,1,368.2803,294.6391Z" transform="translate(114.8668 -14.9705)"/><path class="cls-5" d="M366.2803,278.3362c1.5086-4.4801,4.1337-8.491,6.064-12.806,2.1182,5.6674,4.2567,11.8726,2.394,17.6291a27.12187,27.12187,0,0,1-3.3085,6.24c-1.0312,1.5924-2.0151,3.2441-3.1302,4.7726C365.5551,288.8862,364.281,284.2741,366.2803,278.3362Z" transform="translate(114.8668 -14.9705)"/><path class="cls-8" d="M367.9938,294.7737a41.31749,41.31749,0,0,1,.1988-9.7244c.3962-3.2289,1.0836-6.4047,1.7234-9.5744.7139-3.1551,1.3889-6.3087,1.9367-9.4816a60.15976,60.15976,0,0,0,.9408-9.618,41.6895,41.6895,0,0,1-.2304,9.7237c-.4058,3.2274-1.0932,6.4026-1.7354,9.5715-.7163,3.1543-1.3844,6.3091-1.9277,9.4825A59.17136,59.17136,0,0,0,367.9938,294.7737Z" transform="translate(114.8668 -14.9705)"/><path class="cls-14" d="M359.5477,280.1375l5.1506,7.6987c1.7388,2.5546,3.3706,5.1769,4.9978,7.8039,3.2107,5.2802,6.1513,10.7177,9.1233,16.1354a281.819,281.819,0,0,1,15.2567,33.7799,200.52824,200.52824,0,0,1,9.7245,35.7638c.9613,6.1107,1.7937,12.2494,2.1642,18.4268.3351,6.1795.2427,12.3679.0251,18.5353-.1609-6.1726-.3095-12.3412-.9564-18.4704-.3685-6.1482-1.1973-12.2552-2.1533-18.3353a199.59748,199.59748,0,0,0-9.6799-35.597,280.89379,280.89379,0,0,0-15.2057-33.6659c-2.9661-5.4028-5.8943-10.8287-9.1043-16.0943C365.9455,290.6957,362.6484,285.4809,359.5477,280.1375Z" transform="translate(114.8668 -14.9705)"/><path class="cls-7" d="M478.744,471.1967V336.0114c-.9696-5.5474-2.0175-11.7635-2.987-17.3109a30.37965,30.37965,0,0,0-47.1564,15.0111,24.41973,24.41973,0,0,0-43.7523,5.8886,20.68149,20.68149,0,0,0-16.8009-8.0783c-6.4527.1812-13.5984,3.8046-17.191,9.1677a41.90507,41.90507,0,0,0-61.1387-18.0795c-5.8246,3.7903-10.8839,9.4659-11.9352,16.3352-6.7363-9.1804-22.9976-10.3694-30.4437-1.7547a33.3861,33.3861,0,0,0-61.6288-5.9444,37.68982,37.68982,0,0,0-67.0545-3.5207c-8.4151-9.8867-20.9055-16.7678-33.8854-16.4754s-25.9338,8.7044-29.6845,21.134a34.64007,34.64007,0,0,0-30.9324-17.8597V469.3435" transform="translate(114.8668 -14.9705)"/><path class="cls-15" d="M478.744,516.5629V381.3776c-.9696-5.5474-2.0175-11.7636-2.987-17.311a30.37974,30.37974,0,0,0-47.1564,15.0112,24.41969,24.41969,0,0,0-43.7523,5.8885,20.68168,20.68168,0,0,0-16.8009-8.0782c-6.4527.1812-13.5984,3.8045-17.191,9.1677a41.90519,41.90519,0,0,0-61.1387-18.0796c-5.8246,3.7904-10.8839,9.4659-11.9352,16.3353-6.7363-9.1804-22.9976-10.3694-30.4437-1.7547a33.3861,33.3861,0,0,0-61.6288-5.9444,37.68974,37.68974,0,0,0-67.0545-3.5207c-8.4151-9.8868-20.9055-16.7678-33.8854-16.4754s-25.9338,8.7043-29.6845,21.1339a34.64007,34.64007,0,0,0-30.9324-17.8597V514.7097" transform="translate(114.8668 -14.9705)"/><path class="cls-14" d="M344.3907,349.403a15.9911,15.9911,0,0,1,6.2549-.5132,19.204,19.204,0,0,1,6.1206,1.7295,18.21632,18.21632,0,0,1,8.9181,9.0626l-1.5015.0714a14.78506,14.78506,0,0,1,21.7206-8.7053,15.11724,15.11724,0,0,1,6.0837,6.4554l-1.7595.0825a20.11926,20.11926,0,0,1,14.0781-12.2248,19.28468,19.28468,0,0,1,9.4554.2885,18.82035,18.82035,0,0,1,8.0844,4.5962,19.76035,19.76035,0,0,0-8.2687-3.8403,19.28588,19.28588,0,0,0-8.9454.2592,19.01312,19.01312,0,0,0-12.6088,11.5935l-.7663,2.1108-.9934-2.0283a13.17351,13.17351,0,0,0-5.3449-5.5721,13.37617,13.37617,0,0,0-19.2082,7.4483l-.7022,2.1281-.7994-2.0567a17.5,17.5,0,0,0-7.9044-8.7708A17.97819,17.97819,0,0,0,344.3907,349.403Z" transform="translate(114.8668 -14.9705)"/><path class="cls-14" d="M338.6528,410.8511a13.75033,13.75033,0,0,1,4.4764-5.4752,14.57159,14.57159,0,0,1,6.7344-2.6943,14.97059,14.97059,0,0,1,7.2955.9493,15.31858,15.31858,0,0,1,6.0227,4.3109l-1.7606.6308a12.83416,12.83416,0,0,1,2.1478-6.8439,12.55,12.55,0,0,1,5.4197-4.6029,12.124,12.124,0,0,1,13.015,2.2427,12.47519,12.47519,0,0,0-12.3589-.848,11.72312,11.72312,0,0,0-6.2303,10.0706l-.0116,2.7242-1.7491-2.0933a14.31731,14.31731,0,0,0-11.6407-4.9736,14.50069,14.50069,0,0,0-6.3398,1.9589A15.40083,15.40083,0,0,0,338.6528,410.8511Z" transform="translate(114.8668 -14.9705)"/><path class="cls-14" d="M54.7867,342.7403a23.01769,23.01769,0,0,1,3.4322-.8792,11.45381,11.45381,0,0,1,3.6553-.0662,7.85906,7.85906,0,0,1,3.5282,1.5046,5.90048,5.90048,0,0,1,2.24,3.3592l-1.917.2174a11.80824,11.80824,0,0,1,1.0103-5.0997,13.36883,13.36883,0,0,1,2.9154-4.2291,13.03167,13.03167,0,0,1,4.2428-2.7686,10.26288,10.26288,0,0,1,4.8852-.7228,13.9515,13.9515,0,0,0-7.8901,4.6595,12.70189,12.70189,0,0,0-3.225,8.1333l-.0516,9.1628-1.8655-8.9454a4.48121,4.48121,0,0,0-1.4581-2.4133,7.13089,7.13089,0,0,0-2.7157-1.4856C59.4914,342.5389,57.132,342.7035,54.7867,342.7403Z" transform="translate(114.8668 -14.9705)"/></g><circle class="cls-16" cx="364.8668" cy="235.0295" r="234.0295"/><polygon class="cls-8" points="240.486 400.618 200.764 485.029 170.882 485.029 195.103 370.691 243.01 356.755 240.486 400.618"/><polygon class="cls-14" points="241.509 485.029 430.626 485.029 426.756 460.699 241.509 460.699 241.509 485.029"/><path class="cls-17" d="M138.696,469.1904c3.9746-6.4096,12.2562-9.284,19.7305-8.2766,7.4743,1.0073,14.1569,5.3194,19.5661,10.5749,3.1194-6.7783,10.7249-10.9534,18.185-10.7978,7.46.1554,14.5423,4.2564,19.1473,10.1276a19.5309,19.5309,0,0,1,32.823-.9739,16.88435,16.88435,0,0,1,26.9045-2.9501,16.60244,16.60244,0,0,1,27.317-2.7375,17.79885,17.79885,0,0,1,9.612-10.0656c-4.512-19.592-10.7344-47.6508-15.2424-72.0692-7.8979-42.78-13.1631-140.845-13.1631-140.845s-52.6524-18.4284-62.5247-30.9333a34.95423,34.95423,0,0,1-3.4928-5.528,56.12974,56.12974,0,0,1-30.9095,11.9266q-1.811,8.9271-4.0595,17.7576a102.2191,102.2191,0,0,1-4.4923-17.7673,53.8855,53.8855,0,0,1-9.2023-1.5245,32.33086,32.33086,0,0,1-.4959,8.2987c-1.9744,8.556-48.0453,15.1376-60.5503,35.5403C95.3437,279.3501,80.2358,385.662,80.2358,385.662a58.19864,58.19864,0,0,1,45.383,29.9261l-4.8584,41.0752C128.032,457.0128,133.9527,463.361,138.696,469.1904Z" transform="translate(114.8668 -14.9705)"/><path class="cls-5" d="M302.3694,464.157a16.60244,16.60244,0,0,0-27.317,2.7375,16.88435,16.88435,0,0,0-26.9045,2.9501,19.5309,19.5309,0,0,0-32.823.9739c-4.605-5.8712-11.6873-9.9722-19.1473-10.1276-7.4601-.1556-15.0656,4.0195-18.185,10.7978-5.4092-5.2555-12.0918-9.5676-19.5661-10.5749-7.4743-1.0074-15.7559,1.867-19.7305,8.2766-4.7433-5.8294-10.664-12.1776-17.9356-12.5271l-2.3813,20.1332s30.9333,16.4539,94.1162,14.4794C275.678,489.3014,317.8,478.7709,317.8,478.7709s-2.4259-9.947-5.8186-24.6795A17.79885,17.79885,0,0,0,302.3694,464.157Z" transform="translate(114.8668 -14.9705)"/><path class="cls-14" d="M211.0751,186.4038a151.93577,151.93577,0,0,1-3.187-16.9655L166.4245,197.739a121.71949,121.71949,0,0,1,2.1574,13.228A63.88419,63.88419,0,0,0,211.0751,186.4038Z" transform="translate(114.8668 -14.9705)"/><path class="cls-8" d="M217.5584,204.7159a86.01322,86.01322,0,0,1-6.4833-18.3121,63.88419,63.88419,0,0,1-42.4932,24.5632c.1395,1.3744.2517,2.7688.3129,4.1413a53.8855,53.8855,0,0,0,9.2023,1.5245,102.2191,102.2191,0,0,0,4.4923,17.7673q2.2575-8.82465,4.0595-17.7576h-.0015A56.1293,56.1293,0,0,0,217.5584,204.7159Zm-38.1778,11.9926q.6693.0375,1.3397.0597Q180.05,216.7466,179.3806,216.7085Zm2.9616.0911c.063.0002.1261-.0024.1892-.0024C182.4683,216.7972,182.4052,216.7998,182.3422,216.7996Z" transform="translate(114.8668 -14.9705)"/><path class="cls-8" d="M102.4288,139.037a27.81041,27.81041,0,0,0,6.7212,15.0481,21.005,21.005,0,0,0,8.5428,6.2803,10.93866,10.93866,0,0,0,9.5775-.7581,14.066,14.066,0,0,0,5.3394-7.7201c2.3421-7.3366.8275-16.1971-3.2224-23.0686-2.813-4.7732-7.0319-8.8229-11.8661-9.8273C107.775,116.9676,101.441,129.1543,102.4288,139.037Z" transform="translate(114.8668 -14.9705)"/><path class="cls-18" d="M129.1603,152.7281a12.81952,12.81952,0,0,1-6.487-2.9291,1.82362,1.82362,0,0,1-.479-2.9946,21.09037,21.09037,0,0,1,5.389-4.8102,42.24554,42.24554,0,0,0-4.1095-9.3475c-1.848-2.8376-4.5151-5.2362-7.6751-5.9344a7.4796,7.4796,0,0,0-8.2848,3.6647s-5.0851,8.66,4.167,19.2198C121.4383,160.7339,129.1603,152.7281,129.1603,152.7281Z" transform="translate(114.8668 -14.9705)"/><path class="cls-14" d="M107.514,130.377a7.19849,7.19849,0,0,1,5.9897-4.5435,8.51538,8.51538,0,0,1,4.0584.4368,11.53384,11.53384,0,0,1,3.5417,1.9804,16.50493,16.50493,0,0,1,2.7918,2.8725,23.32884,23.32884,0,0,1,2.0597,3.3621,49.88521,49.88521,0,0,1,2.7633,7.1155l.3159.9432-.8187.4718a20.00964,20.00964,0,0,0-3.4262,2.5055,20.92648,20.92648,0,0,0-1.5372,1.4943,8.69567,8.69567,0,0,0-.6317.7344.66413.66413,0,0,0-.1568.4437,2.62166,2.62166,0,0,0,.9916,1.3695,15.09772,15.09772,0,0,0,1.6917,1.3314,14.31584,14.31584,0,0,0,4.0131,1.8335,11.36092,11.36092,0,0,1-4.4804-.9677,12.47845,12.47845,0,0,1-2.062-1.1328,3.99259,3.99259,0,0,1-1.7763-2.0638,2.27565,2.27565,0,0,1,.2254-1.7126,9.08738,9.08738,0,0,1,.7216-1.0571,22.96686,22.96686,0,0,1,1.518-1.8008,21.84039,21.84039,0,0,1,3.644-3.0206l-.5027,1.4148a70.97313,70.97313,0,0,0-2.7347-6.7843,18.7953,18.7953,0,0,0-4.0422-5.6618,9.23128,9.23128,0,0,0-6.0646-2.6623A7.26837,7.26837,0,0,0,107.514,130.377Z" transform="translate(114.8668 -14.9705)"/><path class="cls-8" d="M116.6928,114.6748c0,34.4976,8.5381,87.6286,46.7352,89.8755,47.2398,2.7788,78.1917-55.3779,78.1917-89.8755a62.46345,62.46345,0,1,0-124.9269,0Z" transform="translate(114.8668 -14.9705)"/><path class="cls-14" d="M170.3542,122.3968a6.37015,6.37015,0,1,0,6.3701-6.3702A6.3702,6.3702,0,0,0,170.3542,122.3968Z" transform="translate(114.8668 -14.9705)"/><path class="cls-14" d="M196.0967,117.6793a24.52866,24.52866,0,0,0-5.0342-6.8073,22.85711,22.85711,0,0,0-3.2053-2.5946,21.72749,21.72749,0,0,0-3.5194-1.9901,17.26338,17.26338,0,0,0-3.8141-1.1544c-1.293-.2629-2.5557-.5346-3.8349-.8563-2.5737-.6573-5.2-1.1075-8.285-1.752l-.1078-.4647a13.891,13.891,0,0,1,9.0418-2.51,13.22521,13.22521,0,0,1,4.6519,1.093,32.055,32.055,0,0,1,4.1803,2.2961,25.21715,25.21715,0,0,1,3.6964,2.883,25.64492,25.64492,0,0,1,3.0118,3.5027,23.34807,23.34807,0,0,1,3.6679,8.1948Z" transform="translate(114.8668 -14.9705)"/><path class="cls-14" d="M145.7582,122.3968a6.37015,6.37015,0,1,1-6.3701-6.3702A6.3702,6.3702,0,0,1,145.7582,122.3968Z" transform="translate(114.8668 -14.9705)"/><path class="cls-14" d="M122.6764,118.2191a25.67658,25.67658,0,0,1,3.0268-7.7484,26.46779,26.46779,0,0,1,2.4926-3.4661,24.46279,24.46279,0,0,1,3.1388-3.0008,28.13453,28.13453,0,0,1,3.6637-2.5214,12.38051,12.38051,0,0,1,12.8147.5935l-.101.4328a66.83271,66.83271,0,0,0-7.5224,1.9252c-1.1424.3815-2.2714.7293-3.4335,1.0817a15.30639,15.30639,0,0,0-3.402,1.4142,21.199,21.199,0,0,0-3.079,2.1748,23.86624,23.86624,0,0,0-2.7764,2.6753,27.87006,27.87006,0,0,0-4.4013,6.5813Z" transform="translate(114.8668 -14.9705)"/><circle class="cls-18" cx="133.2464" cy="143.85997" r="8.24733" transform="translate(64.21267 196.94013) rotate(-67.49996)"/><circle class="cls-18" cx="184.35847" cy="143.85997" r="8.24734" transform="translate(67.13978 157.52624) rotate(-45)"/><path class="cls-14" d="M158.1508,117.0617c-1.9927,3.9669-3.8845,7.9382-5.558,11.9962a126.70032,126.70032,0,0,0-4.3864,12.3783c-.6471,2.09-1.2063,4.2065-1.7123,6.3357a6.38339,6.38339,0,0,0-.3836,2.7704c.1548.6224,1.0396,1.2387,1.9462,1.8618a50.571,50.571,0,0,0,11.7081,5.8807,35.25784,35.25784,0,0,1-12.5468-4.5644,16.26942,16.26942,0,0,1-1.4756-.9453,3.71529,3.71529,0,0,1-1.2913-1.6699,4.288,4.288,0,0,1-.1269-2.0681c.0921-.6137.2136-1.1266.3225-1.682.4597-2.1842,1.0156-4.3482,1.6443-6.4904a80.26782,80.26782,0,0,1,4.8856-12.448A68.58787,68.58787,0,0,1,158.1508,117.0617Z" transform="translate(114.8668 -14.9705)"/><path class="cls-17" d="M161.101,168.9966a18.77489,18.77489,0,0,0-7.9692,4.9067,12.29559,12.29559,0,0,0,4.17.9051c5.2343.1805,10.0194-3.0896,12.3382-6.3093A18.71728,18.71728,0,0,0,161.101,168.9966Z" transform="translate(114.8668 -14.9705)"/><path class="cls-14" d="M161.101,168.9966a18.71728,18.71728,0,0,1,8.539-.4975c1.4411-2.0012,1.9317-3.9829.9782-5.1047-2.4876-2.9267-11.853,3.8046-14.6334,3.8046-2.7803,0-8.3411-5.9996-10.5359-3.951-1.8093,1.6887,1.6576,8.238,7.6829,10.6553A18.77489,18.77489,0,0,1,161.101,168.9966Z" transform="translate(114.8668 -14.9705)"/><path class="cls-14" d="M230.2614,142.2557c-7.2656-2.4726-12.6285-9.0028-15.2557-16.214s-2.1577-14.5384-1.7191-22.2007a80.80566,80.80566,0,0,1-61.0727-30.5844c-7.8184,12.881-19.5728,24.0366-33.3614,30.1129a112.48169,112.48169,0,0,0-2.0538,23.7865S90.3338,107.9995,99.6775,78.0125c9.7488-31.2869,50.8048-48.1229,89.3466-41.3214,38.5417,6.8015,40.5822,26.2991,40.5822,26.2991s15.5108,5.0756,21.3113,18.364C263.387,109.9205,230.2614,142.2557,230.2614,142.2557Z" transform="translate(114.8668 -14.9705)"/><path class="cls-8" d="M255.0265,139.037a27.81041,27.81041,0,0,1-6.7212,15.0481,21.005,21.005,0,0,1-8.5428,6.2803,10.93866,10.93866,0,0,1-9.5775-.7581,14.066,14.066,0,0,1-5.3394-7.7201c-2.3421-7.3366-.8275-16.1971,3.2224-23.0686,2.813-4.7732,7.0319-8.8229,11.8661-9.8273C249.6803,116.9676,256.0143,129.1543,255.0265,139.037Z" transform="translate(114.8668 -14.9705)"/><path class="cls-18" d="M228.295,152.7281a12.81952,12.81952,0,0,0,6.487-2.9291,1.82362,1.82362,0,0,0,.479-2.9946,21.09037,21.09037,0,0,0-5.389-4.8102,42.24554,42.24554,0,0,1,4.1095-9.3475c1.848-2.8376,4.5151-5.2362,7.6751-5.9344a7.4796,7.4796,0,0,1,8.2848,3.6647s5.0851,8.66-4.167,19.2198C236.017,160.7339,228.295,152.7281,228.295,152.7281Z" transform="translate(114.8668 -14.9705)"/><path class="cls-14" d="M249.9413,130.377a7.26849,7.26849,0,0,0-6.0924-3.0979,9.231,9.231,0,0,0-6.0645,2.6623,18.79559,18.79559,0,0,0-4.0423,5.6618,70.97313,70.97313,0,0,0-2.7347,6.7843l-.5028-1.4148a21.84111,21.84111,0,0,1,3.6441,3.0206,22.96686,22.96686,0,0,1,1.518,1.8008,9.09938,9.09938,0,0,1,.7217,1.0571,2.27656,2.27656,0,0,1,.2253,1.7126,3.99377,3.99377,0,0,1-1.7762,2.0638,12.47936,12.47936,0,0,1-2.0621,1.1328,11.36129,11.36129,0,0,1-4.4804.9677,14.31774,14.31774,0,0,0,4.0132-1.8335,15.11363,15.11363,0,0,0,1.6915-1.3314,2.62081,2.62081,0,0,0,.9917-1.3695.66448.66448,0,0,0-.1567-.4437,8.718,8.718,0,0,0-.6318-.7344,20.88678,20.88678,0,0,0-1.5372-1.4943,20.0128,20.0128,0,0,0-3.4261-2.5055l-.8188-.4718.316-.9432a49.87332,49.87332,0,0,1,2.7633-7.1155,23.31855,23.31855,0,0,1,2.0595-3.3621,16.50913,16.50913,0,0,1,2.7919-2.8725,11.53384,11.53384,0,0,1,3.5417-1.9804,8.51538,8.51538,0,0,1,4.0584-.4368A7.19863,7.19863,0,0,1,249.9413,130.377Z" transform="translate(114.8668 -14.9705)"/><path class="cls-5" d="M253.5069,108.4106c-.6183.5299-39.9231-10.9459-77.3371-13.7766-38.7493-2.9317-77.3156,1.3773-78.8896.1853-3.0938-2.3427.5149-8.4934.6816-11.1504s-2.5198-8.8178-.2456-12.2259c1.1824-1.7721,37.9585-5.7312,78.993-2.3389,37.8844,3.1319,78.6206,14.0535,79.1627,15.6563,1.1293,3.3391-1.2735,7.6409-1.4554,12.5528S254.7654,107.3318,253.5069,108.4106Z" transform="translate(114.8668 -14.9705)"/><path class="cls-19" d="M157.4935,67.2633a92.16741,92.16741,0,0,1,15.694,4.7206c21.5153,7.9261,43.4998,16.6035,60.0862,32.4345" transform="translate(114.8668 -14.9705)"/><path class="cls-19" d="M97.1357,75.213c19.3384.0704,38.7723.1484,57.8605,3.2498s37.9785,9.3847,53.5664,20.8301" transform="translate(114.8668 -14.9705)"/><path class="cls-19" d="M96.2593,88.9311c14.9518-2.4566,30.0067-4.9046,45.1558-4.596,15.1491.3085,30.5596,3.5363,43.3514,11.658" transform="translate(114.8668 -14.9705)"/><path class="cls-19" d="M205.4904,85.2268a197.32795,197.32795,0,0,0,23.5587-12.1289" transform="translate(114.8668 -14.9705)"/><path class="cls-19" d="M219.1289,92.8278A100.29558,100.29558,0,0,0,248.3205,81.57" transform="translate(114.8668 -14.9705)"/><path class="cls-19" d="M229.7348,100.8946a85.83339,85.83339,0,0,0,25.3086-7.3925" transform="translate(114.8668 -14.9705)"/><path class="cls-17" d="M283.5759,241.1772s26.9341,11.6536,35.1906,36.7821c11.8496,36.0639,2.0478,129.0053,2.0478,129.0053l-51.934-41.5471Z" transform="translate(114.8668 -14.9705)"/><path class="cls-5" d="M85.0355,375.0311a6.00822,6.00822,0,0,0-3.6343-.4676c-3.1336.9152-2.8119,5.3264-3.1888,8.5691-.4864,4.1848-3.1723,7.7247-5.0477,11.4972-1.8753,3.7725-2.8368,8.6872-.1486,11.931,2.9491,3.5586,15.0303,3.3386,19.6498,3.4814,16.4118.5076,32.9529,5.5459,32.9529,5.5459l1.5626-14.8515S98.3232,379.7758,85.0355,375.0311Z" transform="translate(114.8668 -14.9705)"/><path class="cls-14" d="M80.7812,387.8245a69.625,69.625,0,0,1,12.2725,1.9588,84.31757,84.31757,0,0,1,22.9863,9.4552,69.35017,69.35017,0,0,1,10.0956,7.2484c-3.6017-2.0454-7.191-4.0356-10.8481-5.8811-3.6612-1.8332-7.3667-3.5597-11.151-5.0981-3.7702-1.5728-7.6179-2.9542-11.509-4.2293C88.7308,390.0151,84.7797,388.9037,80.7812,387.8245Z" transform="translate(114.8668 -14.9705)"/><path class="cls-14" d="M82.6519,401.9456a54.031,54.031,0,0,1,8.8568-.1517,72.11152,72.11152,0,0,1,17.4053,3.1777,53.69338,53.69338,0,0,1,8.2299,3.2774c-2.9098-.5495-5.7648-1.1761-8.6221-1.7668-2.8593-.5781-5.7079-1.1634-8.5719-1.6691-2.8574-.5424-5.7291-1.0024-8.6079-1.4735C88.4604,402.8809,85.5681,402.4583,82.6519,401.9456Z" transform="translate(114.8668 -14.9705)"/><path class="cls-20" d="M168.9681,220.3103l3.7778.8096,5.6666,24.5554,11.0635.5397,5.1269-24.0158a35.49813,35.49813,0,0,0,26.1377-12.4604" transform="translate(114.8668 -14.9705)"/><path class="cls-14" d="M119.6802,268.2498c1.7548,12.1873,3.1628,24.4226,4.3298,36.68.6163,6.1263,1.0859,12.2655,1.5938,18.4022.4345,6.1424.861,12.2855,1.1912,18.4357.3522,6.1483.5604,12.3059.7845,18.461.1175,6.16.2935,12.318.2111,18.4814a289.88152,289.88152,0,0,1-2.1718,36.878q.21825-4.61625.4949-9.2151c.1093-3.072.1295-6.1483.1986-9.2189l.0531-2.303-.009-2.3052-.0181-4.6093-.0074-4.6075-.101-4.6085c-.2156-12.287-.7538-24.5701-1.4308-36.8449-.6294-12.278-1.467-24.5473-2.3385-36.8162C121.5571,292.793,120.6668,280.5215,119.6802,268.2498Z" transform="translate(114.8668 -14.9705)"/><path class="cls-14" d="M261.2788,267.978q.6804,10.3518.9792,20.7151c.2269,6.9078.3368,13.8179.4241,20.7283.0499,6.9107.0747,13.8216-.017,20.7326q-.0951,10.3662-.5784,20.7303-.684-10.3635-.9823-20.7229c-.2263-6.9068-.3363-13.8135-.421-20.7205-.0473-6.9075-.0721-13.815.02-20.7249Q260.8,278.35175,261.2788,267.978Z" transform="translate(114.8668 -14.9705)"/><path class="cls-5" d="M219.3145,276.7078c3.2173,0,3.2226-5,0-5-3.2173,0-3.2226,5,0,5Z" transform="translate(114.8668 -14.9705)"/><path class="cls-5" d="M232.6401,315.0188c3.2172,0,3.2226-5,0-5-3.2173,0-3.2226,5,0,5Z" transform="translate(114.8668 -14.9705)"/><path class="cls-5" d="M250.9627,259.218c3.2173,0,3.2226-5,0-5-3.2173,0-3.2226,5,0,5Z" transform="translate(114.8668 -14.9705)"/><path class="cls-5" d="M290.1065,273.3764c3.2173,0,3.2226-5,0-5-3.2172,0-3.2225,5,0,5Z" transform="translate(114.8668 -14.9705)"/><path class="cls-5" d="M279.2795,315.0188c3.2173,0,3.2226-5,0-5-3.2172,0-3.2226,5,0,5Z" transform="translate(114.8668 -14.9705)"/><path class="cls-5" d="M310.0949,320.8487c3.2172,0,3.2226-5,0-5-3.2173,0-3.2226,5,0,5Z" transform="translate(114.8668 -14.9705)"/><path class="cls-5" d="M197.6605,303.3589c3.2172,0,3.2226-5,0-5-3.2173,0-3.2226,5,0,5Z" transform="translate(114.8668 -14.9705)"/><path class="cls-5" d="M166.0123,265.8808c3.2172,0,3.2226-5,0-5-3.2173,0-3.2226,5,0,5Z" transform="translate(114.8668 -14.9705)"/><path class="cls-5" d="M144.3582,250.8895c3.2173,0,3.2226-5,0-5-3.2172,0-3.2226,5,0,5Z" transform="translate(114.8668 -14.9705)"/><path class="cls-5" d="M131.8655,266.7136c3.2173,0,3.2226-5,0-5-3.2172,0-3.2226,5,0,5Z" transform="translate(114.8668 -14.9705)"/><path class="cls-5" d="M111.0443,298.3618c3.2173,0,3.2226-5,0-5-3.2172,0-3.2226,5,0,5Z" transform="translate(114.8668 -14.9705)"/><path class="cls-5" d="M102.7159,325.013c3.2172,0,3.2225-5,0-5-3.2173,0-3.2226,5,0,5Z" transform="translate(114.8668 -14.9705)"/><path class="cls-5" d="M113.5429,369.1539c3.2172,0,3.2226-5,0-5-3.2173,0-3.2226,5,0,5Z" transform="translate(114.8668 -14.9705)"/><path class="cls-5" d="M143.5254,348.3327c3.2172,0,3.2226-5,0-5-3.2173,0-3.2226,5,0,5Z" transform="translate(114.8668 -14.9705)"/><path class="cls-5" d="M172.675,357.494c3.2173,0,3.2226-5,0-5-3.2172,0-3.2225,5,0,5Z" transform="translate(114.8668 -14.9705)"/><path class="cls-5" d="M147.6896,382.4794c3.2173,0,3.2226-5,0-5-3.2172,0-3.2226,5,0,5Z" transform="translate(114.8668 -14.9705)"/><path class="cls-5" d="M142.6925,420.7904c3.2173,0,3.2226-5,0-5-3.2172,0-3.2226,5,0,5Z" transform="translate(114.8668 -14.9705)"/><path class="cls-5" d="M175.1736,387.4765c3.2172,0,3.2226-5,0-5-3.2173,0-3.2226,5,0,5Z" transform="translate(114.8668 -14.9705)"/><path class="cls-5" d="M211.8189,402.4678c3.2172,0,3.2226-5,0-5-3.2173,0-3.2226,5,0,5Z" transform="translate(114.8668 -14.9705)"/><path class="cls-5" d="M176.0064,425.7875c3.2173,0,3.2226-5,0-5-3.2172,0-3.2226,5,0,5Z" transform="translate(114.8668 -14.9705)"/><path class="cls-5" d="M149.3553,449.1072c3.2173,0,3.2226-5,0-5-3.2172,0-3.2226,5,0,5Z" transform="translate(114.8668 -14.9705)"/><path class="cls-5" d="M203.4904,449.1072c3.2173,0,3.2226-5,0-5-3.2173,0-3.2226,5,0,5Z" transform="translate(114.8668 -14.9705)"/><path class="cls-5" d="M237.6372,418.2919c3.2172,0,3.2225-5,0-5-3.2173,0-3.2226,5,0,5Z" transform="translate(114.8668 -14.9705)"/><path class="cls-5" d="M240.1357,444.943c3.2173,0,3.2226-5,0-5-3.2173,0-3.2226,5,0,5Z" transform="translate(114.8668 -14.9705)"/><path class="cls-5" d="M280.1124,444.1101c3.2172,0,3.2226-5,0-5-3.2173,0-3.2226,5,0,5Z" transform="translate(114.8668 -14.9705)"/><rect class="cls-21" x="201.51083" y="8.84965" width="7.17769" height="473.72934" transform="translate(350.02921 -87.90589) rotate(45.24159)"/><path class="cls-14" d="M348.452,114.5664c52.6049,43.6426,95.4121,130.0918,100.6189,157.8658,3.6975-33.1896-.4842-107.2599-80.1282-178.2899" transform="translate(114.8668 -14.9705)"/><g class="cls-10"><path class="cls-6" d="M342.8776,98.4123q5.11065,4.05225,10.184,8.1702l9.8428,8.594,9.4432,9.0413,9.0905,9.4058a295.23122,295.23122,0,0,1,32.0789,41.3209,248.88138,248.88138,0,0,1,23.585,46.7024c.4243,1.0061.7692,2.0425,1.1091,3.0806l1.0385,3.1064,2.0752,6.2095c.372,1.0261.6273,2.0894.9181,3.1411l.8562,3.1595,1.7059,6.3166c.9407,4.2594,1.7179,8.5543,2.5824,12.8204.634,4.3113,1.1456,8.6391,1.6835,12.9512l-2.3473-12.8252c-1.0498-4.2163-2.0097-8.4489-3.1291-12.6352-1.2835-4.1436-2.4331-8.3246-3.8021-12.4336l-2.2257-6.1068-1.1118-3.0517c-.3643-1.0195-.7332-2.0369-1.1815-3.0243a277.28841,277.28841,0,0,0-23.9021-46.037,336.89542,336.89542,0,0,0-31.3801-41.3842l-8.7897-9.5948-9.1515-9.2608-9.4318-8.9911Q347.7249,102.7861,342.8776,98.4123Z" transform="translate(114.8668 -14.9705)"/></g><rect class="cls-22" x="200.22048" y="7.54835" width="7.17769" height="473.72934" transform="translate(348.72025 -87.37496) rotate(45.24102)"/><rect class="cls-23" x="340.69334" y="76.12828" width="22.79443" height="44.89793" transform="translate(289.0414 -235.8164) rotate(45.24155)"/><path class="cls-5" d="M277.4042,348.7097c16.7559,3.1816,33.2797,9.2699,46.5076,20.0358a46.47556,46.47556,0,0,1,7.0546,6.9192,5.03992,5.03992,0,0,1,1.1628,2.134c.4219,2.2669-1.933,3.934-3.4004,5.7127-3.2772,3.9727-2.3736,9.7671-1.9144,14.8966.286,3.1957,1.885,7.4655.1253,9.6153-1.7597,2.1499-6.1254-1.0587-6.1254-1.0587-5.7095-2.9717-10.8092-2.4041-15.1528-7.1541-9.6804-10.5863-20.7682-19.7691-32.2331-28.3478-5.7525-4.3043-11.6121-8.4627-17.4823-12.6041-2.0628-1.4553-6.6684-3.444-7.2765-6.1145-.6699-2.9421,2.2828-4.087,4.5344-4.6255C261.0938,346.2318,269.5394,347.2163,277.4042,348.7097Z" transform="translate(114.8668 -14.9705)"/><path class="cls-8" d="M183.6326,317.5693l-11.0184-34.7568-6.0123,5.6158s-14.4536-18.7872-15.6752-19.3658c-1.2217-.5784-6.2746,3.4599-6.8402,5.286-.5654,1.826,1.634,5.709,1.634,5.709s-4.2414.6637-6.1789,2.6165-2.2741,7.3393-2.2741,7.3393a8.02817,8.02817,0,0,0-5.272,4.5484,9.02574,9.02574,0,0,0-.0657,6.623s-4.5898,4.4819-3.3101,7.78c1.28,3.2981,12.5293,14.5465,22.3434,19.879,7.9716,4.3316,23.9888,7.7884,23.9888,7.7884Z" transform="translate(114.8668 -14.9705)"/><path class="cls-8" d="M174.9519,336.6321s96.5566,84.3355,122.1083,93.0135c17.3951,5.9077,23.7541-22.681,23.7541-22.681-5.8509-14.5103-12.9232-26.5504-32.0133-38.5989-10.284-6.4905-21.7775-10.7015-33.168-14.961-28.4399-10.6351-46.2877-19.6866-72.0004-35.8354" transform="translate(114.8668 -14.9705)"/><path class="cls-14" d="M254.4549,352.7523a81.87993,81.87993,0,0,1,20.1815,1.4034,91.59466,91.59466,0,0,1,36.9896,16.2068,81.71833,81.71833,0,0,1,14.709,13.8898,117.024,117.024,0,0,0-15.6086-12.6146,111.86354,111.86354,0,0,0-36.4165-15.9619A116.70291,116.70291,0,0,0,254.4549,352.7523Z" transform="translate(114.8668 -14.9705)"/></g></g></svg>