<svg xmlns="http://www.w3.org/2000/svg" xmlns:xlink="http://www.w3.org/1999/xlink" viewBox="0 0 373.62319 428.98378"><defs><style>.cls-1,.cls-10,.cls-18,.cls-21,.cls-22,.cls-23,.cls-4,.cls-5,.cls-6{fill:none;}.cls-2{isolation:isolate;}.cls-3{fill:#d37946;}.cls-21,.cls-4,.cls-5,.cls-6{stroke:#364a63;}.cls-10,.cls-18,.cls-21,.cls-22,.cls-23,.cls-4,.cls-5,.cls-6{stroke-miterlimit:10;}.cls-4{stroke-width:2px;}.cls-10,.cls-5,.cls-6{stroke-width:6px;}.cls-6{stroke-dasharray:0.94327 62.2558;}.cls-7,.cls-8,.cls-9{fill:#f0c43e;}.cls-8{mix-blend-mode:screen;}.cls-23,.cls-8{opacity:0.2;}.cls-13,.cls-17,.cls-23,.cls-26,.cls-27,.cls-9{mix-blend-mode:multiply;}.cls-17,.cls-26,.cls-9{opacity:0.3;}.cls-10{stroke:#d37946;}.cls-11{fill:#7fc3cb;}.cls-12,.cls-13{fill:#a3b060;}.cls-13{opacity:0.25;}.cls-14{fill:#eca78e;}.cls-15{clip-path:url(#clip-path);}.cls-16,.cls-17{fill:#446fb2;}.cls-18,.cls-22,.cls-23{stroke:#ecb5a1;}.cls-18{stroke-width:13.1052px;}.cls-19{fill:#3c639e;}.cls-20{fill:#fff;}.cls-21{stroke-width:7.412px;}.cls-22,.cls-23{stroke-linecap:round;stroke-width:14.0248px;}.cls-24,.cls-26{fill:#ecb5a1;}.cls-25{fill:#364a63;}.cls-27{opacity:0.5;}</style><clipPath id="clip-path" transform="translate(-65.3175 -36.98902)"><rect class="cls-1" x="68.3175" y="70.4571" width="195.3399" height="315.3314"/></clipPath></defs><g class="cls-2"><g id="OBJECTS"><path class="cls-3" d="M117.8982,384.4212a68.12771,68.12771,0,0,0-30.2359,7.456c11.6826,7.0765,26.6049,1.9598,40.2532,2.4924,10.2485.3999,20.1968,4.1237,30.4529,4.0805,8.8006-.037,17.4564-2.8537,26.2491-2.4775,8.4408.3611,16.4744,3.638,24.8235,4.9309,10.85,1.6802,21.8931-.0246,32.831-.9764,42.7366-3.7188,86.1667,4.1006,128.4957-2.8636,6.6566-1.0952,13.769-2.8512,18.0905-8.0315-33.1216-5.6488-66.9426-5.1859-100.539-4.7067q-83.6988,1.194-167.3977,2.3879" transform="translate(-65.3175 -36.98902)"/><line class="cls-4" x1="3" y1="348.79948" x2="3" y2="32.74748"/><line class="cls-5" x1="3" y1="348.79948" x2="3" y2="348.29948"/><line class="cls-6" x1="3" y1="286.04368" x2="3" y2="64.37538"/><line class="cls-5" x1="3" y1="33.24748" x2="3" y2="32.74748"/><polygon class="cls-7" points="61.811 271.598 16.991 271.094 17.019 349.147 61.229 348.372 61.811 271.598"/><polygon class="cls-8" points="61.811 271.598 16.991 271.094 17.019 349.147 61.229 348.372 61.811 271.598"/><polygon class="cls-9" points="61.811 271.598 45.676 271.094 45.686 349.147 61.602 348.372 61.811 271.598"/><polygon class="cls-7" points="133.743 195.263 88.924 194.756 88.857 271.959 90.527 348.368 134.543 349.052 133.058 271.961 133.743 195.263"/><polygon class="cls-8" points="133.743 195.263 88.924 194.756 88.857 271.959 90.527 348.368 134.543 349.052 133.058 271.961 133.743 195.263"/><polygon class="cls-9" points="134.255 195.263 118.12 194.756 118.096 271.959 118.697 348.368 134.543 349.052 134.008 271.961 134.255 195.263"/><polygon class="cls-7" points="205.718 224.125 160.923 223.535 160.817 286.379 162.441 348.297 206.476 349.094 205.018 286.38 205.718 224.125"/><polygon class="cls-8" points="205.718 224.125 160.923 223.535 160.817 286.379 162.441 348.297 206.476 349.094 205.018 286.38 205.718 224.125"/><polygon class="cls-9" points="206.203 224.125 190.077 223.535 190.039 286.379 190.623 348.297 206.476 349.094 205.951 286.38 206.203 224.125"/><polygon class="cls-7" points="277.667 96.727 232.87 96.14 232.767 159.617 234.553 222.676 232.988 285.738 234.383 348.306 278.354 349.047 278.439 285.742 278.675 222.684 277.828 159.622 277.667 96.727"/><polygon class="cls-8" points="277.667 96.727 232.87 96.14 232.767 159.617 234.553 222.676 232.988 285.738 234.383 348.306 278.354 349.047 278.439 285.742 278.675 222.684 277.828 159.622 277.667 96.727"/><polygon class="cls-9" points="278.312 96.727 262.185 96.14 262.148 159.617 262.791 222.676 262.228 285.738 262.73 348.306 278.56 349.047 278.59 285.742 278.675 222.684 278.37 159.622 278.312 96.727"/><polygon class="cls-7" points="349.62 195.263 304.801 194.756 304.734 271.959 306.404 348.368 350.42 349.052 348.935 271.961 349.62 195.263"/><polygon class="cls-8" points="349.62 195.263 304.801 194.756 304.734 271.959 306.404 348.368 350.42 349.052 348.935 271.961 349.62 195.263"/><polygon class="cls-9" points="350.132 195.263 333.997 194.756 333.973 271.959 334.574 348.368 350.42 349.052 349.885 271.961 350.132 195.263"/><polyline class="cls-10" points="28.542 225.799 77.635 269.374 166.303 170.24 212.664 197.522 345.891 52.954"/><polygon class="cls-3" points="348.635 71.704 345.031 71.723 344.957 53.973 327.258 55.343 326.983 51.751 348.539 50.086 348.635 71.704"/><line class="cls-4" x1="366.365" y1="348.79948" x2="3" y2="348.79948"/><path class="cls-11" d="M437.0069,274.8222l-3.7844.0971a18.12686,18.12686,0,0,0-2.6265-5.9423l.0104-.0707,2.607-2.7739a1.54132,1.54132,0,0,0-.0557-2.1689l-4.7736-4.5418a1.524,1.524,0,0,0-2.1548.0517l-2.5623,2.7416a16.90153,16.90153,0,0,0-5.9306-2.2683l-.0005-.0173-.0971-3.7849a1.53915,1.53915,0,0,0-1.6501-1.4043l-6.5823.1689c-.8413.0216-1.139.6339-1.1174,1.4753l.0971,3.7845a18.52032,18.52032,0,0,0-6.0114,2.628l-.1049-.0097-2.791-2.6062a1.55152,1.55152,0,0,0-2.1772.0559l-4.5467,4.774a1.52413,1.52413,0,0,0,.0496,2.1544l2.7444,2.7054a17.65227,17.65227,0,0,0-2.2656,6.0734l-.0175.0005-3.7849.0971a1.19634,1.19634,0,0,0-1.2739,1.3609l.1689,6.5823a1.2845,1.2845,0,0,0,1.3449,1.4066l3.7846-.0971a17.72544,17.72544,0,0,0,2.6244,5.8685l-.0115.0334-2.6074,2.7554a1.53031,1.53031,0,0,0,.0554,2.1596l4.7739,4.5374a1.5235,1.5235,0,0,0,2.1543-.054l2.7742-2.7483a18.01689,18.01689,0,0,0,6.1422,2.2616l.0005.0175.0971,3.7849c.0216.841.3892,1.5847,1.2305,1.5631l6.5824-.1689a1.63266,1.63266,0,0,0,1.5369-1.6341l-.0971-3.7846a17.34934,17.34934,0,0,0,5.7996-2.6226l-.001.0123,2.7383,2.6075a1.51913,1.51913,0,0,0,2.1508-.0551l4.5332-4.7734a1.52353,1.52353,0,0,0-.0562-2.1542l-2.7458-2.6316a22.18314,22.18314,0,0,0,2.2645-5.9992l.0171-.0005,3.7851-.0971a1.67616,1.67616,0,0,0,1.6935-1.5199l-.1689-6.5821C438.7498,275.2286,437.8481,274.8006,437.0069,274.8222ZM409.767,288.8431c-.0927-.0382-.1849-.0774-.2761-.1185q-.41955-.189-.8168-.4168-.19845-.11385-.3909-.2367-.1923-.12285-.3784-.2547-.09285-.066-.1843-.134a9.53927,9.53927,0,0,1-1.868-1.8421q-.1605-.20925-.3094-.4275a9.484,9.484,0,0,1,1.2848-12.1894q.2466-.236.51-.4541.0876-.0726.1771-.1432.1791-.14115.3649-.2738a9.47176,9.47176,0,0,1,1.1726-.7146q.2046-.10515.415-.2006a9.50532,9.50532,0,0,1,8.0117.0867q.207.09945.4084.2085.30225.1635.5909.348.1923.123.3784.2548.09285.06585.1843.1339.1827.13605.3585.2807.2637.2169.5112.452.165.15675.3223.3211a9.51589,9.51589,0,0,1,.7363.8678q.137.1824.2652.3716t.2475.3847q.1788.2934.3366.6005a9.51965,9.51965,0,0,1,.8025,6.4615q-.0525.2286-.1161.4531-.09525.33645-.2145.6628-.07935.21735-.1689.4298c-.0398.0943-.0815.1875-.1242.2802q-.1284.2787-.2733.5477-.10905.20145-.2275.3969c-.0627.1037-.1279.2056-.1945.3066-.059.0895-.1189.1784-.1808.2657q-.06585.093-.1339.1844-.1362.18255-.2807.3584-.07245.0879-.1467.1741-.14865.1722-.3053.3372-.07845.0825-.1587.163-.321.32235-.6724.6133-.0876.07275-.1771.1433-.1791.141-.3649.2737-.18585.1326-.3782.2564-.0963.06195-.194.1215-.19545.11925-.3972.2292a9.50358,9.50358,0,0,1-7.8433.5556Q409.91685,288.905,409.767,288.8431Z" transform="translate(-65.3175 -36.98902)"/><path class="cls-3" d="M103.6072,388.5718c4.5116-3.3944,9.0734-6.8187,14.2352-9.106,5.1617-2.2873,11.0538-3.3691,16.5002-1.8819,7.8884,2.154,13.4054,9.116,20.4111,13.3334" transform="translate(-65.3175 -36.98902)"/><path class="cls-12" d="M128.8626,384.1706c1.1831-4.902.7798-10.2571.7742-15.2749a160.73215,160.73215,0,0,0-.7545-17.1177.23456.23456,0,0,0-.4688,0,160.707,160.707,0,0,0-.7545,17.1177c-.0056,5.0282-.4108,10.365.7742,15.2749a.22439.22439,0,0,0,.4294,0Z" transform="translate(-65.3175 -36.98902)"/><path class="cls-12" d="M128.9708,353.4461s-.5365-.615-1.303-1.7157a35.42143,35.42143,0,0,1-2.6563-4.6339,45.544,45.544,0,0,1-2.5827-6.7175c-.3754-1.2427-.7177-2.5332-.994-3.8546-.3055-1.3174-.5138-2.6701-.7354-4.0209-.1639-1.359-.3472-2.7152-.4194-4.0656-.1131-1.3447-.129-2.6814-.1233-3.9781a45.02141,45.02141,0,0,1,.6124-7.1708,35.13393,35.13393,0,0,1,1.2715-5.1909c.4331-1.2709.7804-2.0112.7804-2.0112s.5394.6145,1.3088,1.7148a35.13815,35.13815,0,0,1,2.6648,4.6327,45.01949,45.01949,0,0,1,2.5823,6.7176c.3661,1.2441.7224,2.5325.9878,3.8555.306,1.3173.5071,2.671.7275,4.022.1629,1.3591.3389,2.7164.4118,4.0666.102,1.3462.1321,2.6811.117,3.979a45.54427,45.54427,0,0,1-.6129,7.1709,35.39163,35.39163,0,0,1-1.263,5.1897C129.315,352.7062,128.9708,353.4461,128.9708,353.4461Z" transform="translate(-65.3175 -36.98902)"/><path class="cls-13" d="M122.821,310.0869s.4233.6309,1.0355,1.7536a43.10664,43.10664,0,0,1,2.1497,4.7057,58.8106,58.8106,0,0,1,2.1643,6.777c.3175,1.2508.6293,2.5456.8747,3.8714.2754,1.3217.4743,2.6757.6873,4.0276.1704,1.3582.3507,2.7149.4541,4.0608.1248,1.343.1957,2.6719.2318,3.9627a59.534,59.534,0,0,1-.1948,7.1117,43.45823,43.45823,0,0,1-.7503,5.1169c-.2735,1.2483-.5025,1.9718-.5025,1.9718" transform="translate(-65.3175 -36.98902)"/><path class="cls-12" d="M128.1309,352.1688a17.9163,17.9163,0,0,1-.4454-1.7865,28.92592,28.92592,0,0,1-.494-4.3996,34.33079,34.33079,0,0,1,.2846-5.778c.1265-1.0252.3056-2.0656.5378-3.1055.2126-1.0462.5072-2.0828.7957-3.1215.3323-1.0254.6525-2.0543,1.0538-3.0434.3702-.9981.8094-1.9604,1.2613-2.8871a33.87219,33.87219,0,0,1,2.9545-4.9733,28.69994,28.69994,0,0,1,2.8507-3.3921,17.77352,17.77352,0,0,1,1.3641-1.2417,16.27141,16.27141,0,0,1,.6926,1.7129,22.882,22.882,0,0,1,1.0011,4.3789,28.92772,28.92772,0,0,1-.3322,9.2066c-.1873,1.0988-.5038,2.1797-.7954,3.2677-.3592,1.0677-.6994,2.1413-1.1498,3.1607a29.25122,29.25122,0,0,1-4.8158,7.855,23.02647,23.02647,0,0,1-3.2455,3.0996A16.37172,16.37172,0,0,1,128.1309,352.1688Z" transform="translate(-65.3175 -36.98902)"/><path class="cls-13" d="M138.294,318.4401s.2008.6081.4236,1.6513a26.29771,26.29771,0,0,1,.4971,4.2499,34.26107,34.26107,0,0,1-.2797,5.8303c-.146,1.0461-.308,2.1263-.5608,3.2001-.2152,1.0844-.5322,2.1584-.8291,3.2382-.35,1.0639-.6842,2.1327-1.1035,3.1557-.3903,1.032-.8422,2.025-1.3049,2.9756a34.60382,34.60382,0,0,1-2.9883,5.0139,26.48708,26.48708,0,0,1-2.7564,3.2697c-.7598.7472-1.2611,1.144-1.2611,1.144" transform="translate(-65.3175 -36.98902)"/><path class="cls-12" d="M128.7734,360.6566a7.97269,7.97269,0,0,1-1.5083.2469,9.79949,9.79949,0,0,1-1.7195-.0168,12.12427,12.12427,0,0,1-2.0542-.4471,18.97754,18.97754,0,0,1-4.1794-1.8723,15.04887,15.04887,0,0,1-2.001-1.4244,18.62084,18.62084,0,0,1-1.8611-1.7636,17.93112,17.93112,0,0,1-1.599-2.0828,14.21151,14.21151,0,0,1-1.2593-2.3011,13.73063,13.73063,0,0,1-1.1892-4.7321,11.2014,11.2014,0,0,1,.3609-3.7038,9.40154,9.40154,0,0,1,.5488-1.4471s.5752.2239,1.3882.6101c.8232.3844,1.8818.9129,2.9895,1.5272a29.18467,29.18467,0,0,1,3.3661,2.1772,19.23419,19.23419,0,0,1,1.6337,1.3654c.5457.4761,1.0348,1.0249,1.559,1.5612.4758.5755.9811,1.1402,1.4212,1.7695a18.49782,18.49782,0,0,1,1.2536,1.926,17.10327,17.10327,0,0,1,1.6986,3.9611c.3278,1.2635.6121,2.3597.8186,3.1556C128.6506,360.0377,128.7734,360.6566,128.7734,360.6566Z" transform="translate(-65.3175 -36.98902)"/><path class="cls-13" d="M112.3121,341.1124s.4646.2632,1.1348.7196c.6822.4531,1.5751,1.0835,2.5511,1.812.9673.7353,2.0266,1.5707,3.0812,2.5115.5254.4727,1.0676.958,1.5848,1.4879.5353.5119,1.0353,1.0766,1.5642,1.6294.4925.5824,1.0099,1.1538,1.4787,1.7688.4798.6003.932,1.2269,1.3515,1.8603a22.91709,22.91709,0,0,1,2.0232,3.6878c.2367.5645.4559,1.0874.6524,1.5556.211.4765.3974.897.5528,1.2478.3084.7473.4866,1.2635.4866,1.2635" transform="translate(-65.3175 -36.98902)"/><path class="cls-3" d="M124.3697,385.3121c2.4258-1.772,5.8749-1.2399,8.2997.2055,1.0877.6484,1.975-.9613.9764-1.6704a7.60864,7.60864,0,0,0-4.5495-1.2792,13.70221,13.70221,0,0,0-2.5012.3013c-.8043.1625-2.2336.9112-3.0155.6489l.7455.7455c-.3886-1.0915,2.7442-1.1386,3.1004-1.1238a9.91857,9.91857,0,0,1,3.5534.8672q.4479-1.06245.8959-2.125c-2.7238-1.1097-7.2542-.9986-9.6691.846-1.1651.89-.124,2.8688,1.187,2.0308,2.9247-1.8695,6.3626-2.7971,9.507-.8531q.4926-1.168.985-2.3363c-3.6274-1.4245-9.6753-2.435-12.2603,1.333-.724,1.0553.9854,2.4047,1.7931,1.3835,1.9101-2.4151,7.0079-2.2625,9.4204-.8595q.49665-1.1781.9933-2.3561a16.53208,16.53208,0,0,0-11.1625,1.1975c-1.1038.5301-.4959,2.1572.5929,2.189,3.019.088,5.7161-.2528,8.7037.5659a1.2315,1.2315,0,0,0,.6542-2.373,16.92839,16.92839,0,0,0-4.2504-.6936c-1.5079-.0408-3.3345.5592-4.7952.1933v2.2654a16.72639,16.72639,0,0,1,9.5719-.8585c1.3601.2772,2.3562-1.6387.9933-2.3561-3.4487-1.8152-9.5771-1.611-12.3362,1.4711l1.6146,1.6146c2.1528-2.6817,7.0799-1.0858,9.7876-.2513a1.284,1.284,0,0,0,.985-2.3363c-3.9544-2.3003-8.2897-1.2736-11.9844,1.0297q.59355,1.01535,1.187,2.0308c2.0121-1.4283,5.5874-1.1832,7.8639-.6346,1.217.2932,2.1575-1.5902.8959-2.125-2.5339-1.074-9.1193-2.5944-9.983,1.5808a1.68107,1.68107,0,0,0,1.8784,2.1552,29.7005,29.7005,0,0,0,3.4919-.8719,8.65672,8.65672,0,0,1,5.1296.6542q.48825-.8352.9764-1.6704c-3.5673-1.5655-6.8785-2.2285-9.9152.6367-.4253.4013.1475,1.1874.6391.8282Z" transform="translate(-65.3175 -36.98902)"/><path class="cls-3" d="M173.626,388.9293a61.40125,61.40125,0,0,1,14.1246-12.157c2.7614-1.7237,5.9098-3.2755,9.1343-2.8291,2.4837.3439,4.6399,1.8266,6.6921,3.2671q9.1455,6.41895,18.2909,12.8381" transform="translate(-65.3175 -36.98902)"/><path class="cls-12" d="M195.8546,383.4681c1.5285-6.0619,1.0324-12.6593,1.0922-18.8668q.1005-10.4154.0257-20.8296c-.0787-13.8922-.0474-27.8119-1.2914-41.6552a.26967.26967,0,0,0-.539,0c-.6527,13.873-.2471,27.7697-.2133,41.6552.0161,6.6125.0066,13.2252.0089,19.8377.0023,6.5132-.6832,13.4674.7587,19.8587a.08268.08268,0,0,0,.1582,0Z" transform="translate(-65.3175 -36.98902)"/><path class="cls-12" d="M195.8101,308.4704s-.3386-.8641-.7585-2.3546a47.13631,47.13631,0,0,1-1.2196-6.1085,63.10472,63.10472,0,0,1-.5495-8.4872c-.003-1.5402.0392-3.1259.154-4.7282.0854-1.6058.2745-3.2242.4503-4.8444.2335-1.6127.4476-3.2279.7667-4.8042.2783-1.5815.6476-3.1257,1.0263-4.6174a62.338,62.338,0,0,1,2.6522-8.0806,46.72992,46.72992,0,0,1,2.7158-5.609,2.51281,2.51281,0,0,1,.4606-.638l.0753-.0597a.19921.19921,0,0,0,.031-.0327l.0113-.0189.0014-.0027.0007-.0013.0001-.0004.141-.1123-.0012-.0009-.0094-.006-.0185-.012c-.0371-.0339-.0183.0174-.0082.0256l-.0103.0496a.08581.08581,0,0,0-.0415-.0686.25706.25706,0,0,0-.2947-.004.17607.17607,0,0,0-.0382.1341.22871.22871,0,0,1-.1202-.1469.55709.55709,0,0,1,.3047-.5643.669.669,0,0,1,.6439-.0377,1.1842,1.1842,0,0,1,.5523.5116,6.11548,6.11548,0,0,1,.4133,1.2512,46.7351,46.7351,0,0,1,1.2281,6.1097,62.38112,62.38112,0,0,1,.5489,8.4871c-.0061,1.5391-.0345,3.1265-.1601,4.7273-.0849,1.606-.2812,3.2235-.4581,4.8434-.2346,1.6126-.4559,3.227-.7744,4.8033-.2894,1.5801-.6447,3.126-1.0326,4.6166a63.1161,63.1161,0,0,1-2.6526,8.0807,47.15108,47.15108,0,0,1-2.7074,5.61C196.354,307.7183,195.8101,308.4704,195.8101,308.4704Z" transform="translate(-65.3175 -36.98902)"/><path class="cls-13" d="M201.3472,258.0881a.22981.22981,0,0,1-.0994-.1452.50366.50366,0,0,1,.3034-.49.59541.59541,0,0,1,.5554-.0168,1.01186,1.01186,0,0,1,.4617.4601,4.312,4.312,0,0,1,.299,1.171,58.8782,58.8782,0,0,1,.7121,6.0442,82.35381,82.35381,0,0,1,.13,8.434c-.0549,1.5328-.1278,3.1146-.2734,4.7128-.1156,1.6021-.3141,3.2193-.4984,4.8383-.227,1.6137-.4441,3.2285-.7321,4.8087-.2666,1.583-.5808,3.1342-.9176,4.6312a83.32763,83.32763,0,0,1-2.2336,8.1338,59.4245,59.4245,0,0,1-2.1936,5.6753c-.6222,1.3582-1.0506,2.1249-1.0506,2.1249" transform="translate(-65.3175 -36.98902)"/><path class="cls-12" d="M194.644,308.9599s.1377-.1236.3535-.3599a4.68256,4.68256,0,0,0,.7299-1.0538,38.15017,38.15017,0,0,0,1.4847-3.9054c.651-1.655,1.3831-3.5019,2.2357-5.3821.4301-.9371.8579-1.9138,1.3518-2.8637.4535-.9795.9864-1.9307,1.4805-2.9159.542-.9604,1.0596-1.9366,1.6355-2.8831.5532-.9516,1.1495-1.8841,1.7524-2.7818a46.25452,46.25452,0,0,1,3.7162-4.8747,32.55413,32.55413,0,0,1,3.3406-3.3216,18.96743,18.96743,0,0,1,1.5418-1.1858,17.90523,17.90523,0,0,1,.4448,1.8972,25.24509,25.24509,0,0,1,.3612,4.7738,28.37616,28.37616,0,0,1-.8657,6.4271,26.48479,26.48479,0,0,1-1.1087,3.4733,28.43155,28.43155,0,0,1-3.6227,6.6979,24.81526,24.81526,0,0,1-2.4238,2.8847,22.26572,22.26572,0,0,1-5.3684,4.1402,11.40261,11.40261,0,0,1-5.0115,1.6933,4.1459,4.1459,0,0,1-1.5382-.24A3.003,3.003,0,0,1,194.644,308.9599Z" transform="translate(-65.3175 -36.98902)"/><path class="cls-13" d="M214.2666,277.4321s.1126.6699.1848,1.8041a29.57443,29.57443,0,0,1-.1231,4.5838,34.35789,34.35789,0,0,1-1.2386,6.224,31.73159,31.73159,0,0,1-1.1929,3.3828,33.00938,33.00938,0,0,1-3.5564,6.5802,28.3505,28.3505,0,0,1-2.2836,2.8821,24.72022,24.72022,0,0,1-4.9586,4.3026,10.88264,10.88264,0,0,1-4.5499,1.9828,4.103,4.103,0,0,1-1.4325-.0707,3.02046,3.02046,0,0,1-.4718-.1439" transform="translate(-65.3175 -36.98902)"/><path class="cls-12" d="M195.6998,318.659a15.42524,15.42524,0,0,1-1.797-.6807,15.05944,15.05944,0,0,1-1.8716-.9945,17.97544,17.97544,0,0,1-2.1964-1.5394,23.876,23.876,0,0,1-4.4851-4.7712,24.88385,24.88385,0,0,1-1.9042-3.1253,31.17036,31.17036,0,0,1-1.5347-3.4455,30.84367,30.84367,0,0,1-1.0147-3.6326,24.64844,24.64844,0,0,1-.5248-3.6217,23.71881,23.71881,0,0,1,.4254-6.5358,17.91984,17.91984,0,0,1,.7194-2.5858,15.01177,15.01177,0,0,1,.8164-1.9585,15.31485,15.31485,0,0,1,.9597-1.6686s.4818.5697,1.146,1.5306c.3191.481.7066,1.0568,1.1164,1.7066.3985.651.8245,1.3748,1.2719,2.1516.8545,1.5602,1.788,3.3236,2.604,5.2028.4376.9339.8397,1.8995,1.2305,2.8816.3934.9808.7674,1.9796,1.1292,2.9829.3578,1.0046.6979,2.016,1.0188,3.0232.313,1.011.6298,2.0061.878,3.0093.5633,1.9707.9652,3.9257,1.3,5.6724.1498.8837.2826,1.7126.3906,2.4676.0984.7613.167,1.4513.2279,2.0246C195.7067,317.9149,195.6998,318.659,195.6998,318.659Z" transform="translate(-65.3175 -36.98902)"/><path class="cls-13" d="M183.2922,284.0994s.3646.5729.8705,1.5486c.2411.4859.532,1.0718.8636,1.7396.3028.6612.6425,1.4031,1.0112,2.2084.6872,1.606,1.4788,3.4324,2.2077,5.3772.3948.9663.7596,1.9668,1.1382,2.9784.3679,1.0131.7409,2.0402,1.1142,3.068.3639,1.0314.7276,2.062,1.0863,3.0784.3439,1.0247.7083,2.0246,1.0121,3.0245.673,1.9656,1.2243,3.8787,1.7169,5.5546.2286.8556.4391,1.6438.6269,2.346.17.7256.3193,1.3622.443,1.8899.2321,1.0735.317,1.746.317,1.746" transform="translate(-65.3175 -36.98902)"/><path class="cls-12" d="M195.9405,325.9433a10.33952,10.33952,0,0,1-1.2281.7617,11.72117,11.72117,0,0,1-3.1718,1.1144,12.724,12.724,0,0,1-4.2969.1167,12.28833,12.28833,0,0,1-2.2708-.5333,15.65755,15.65755,0,0,1-2.2023-.9147,15.46006,15.46006,0,0,1-1.9977-1.3015,12.14626,12.14626,0,0,1-1.7203-1.5742,12.62,12.62,0,0,1-2.3183-3.6208,11.68,11.68,0,0,1-.8546-3.257,10.29982,10.29982,0,0,1-.0557-1.4486s.5737-.0939,1.4335-.1497a24.30931,24.30931,0,0,1,3.1853.0299,19.44016,19.44016,0,0,1,3.6869.6395,14.06185,14.06185,0,0,1,1.8151.6059,18.99939,18.99939,0,0,1,1.7398.801c.557.3135,1.1123.6296,1.6366.9966a14.39088,14.39088,0,0,1,1.5187,1.1672,19.79682,19.79682,0,0,1,2.6008,2.6921,24.50273,24.50273,0,0,1,1.8169,2.6105C195.6954,325.419,195.9405,325.9433,195.9405,325.9433Z" transform="translate(-65.3175 -36.98902)"/><path class="cls-13" d="M175.824,315.286s.4944-.0075,1.2532.0594a25.37709,25.37709,0,0,1,2.8804.4522,26.15715,26.15715,0,0,1,3.5078,1.0295c.6051.2153,1.2084.4589,1.8027.7327.5999.2639,1.1869.5643,1.7736.8664.579.3163,1.155.6381,1.7106.9859.557.3454,1.1018.6983,1.617,1.0843a26.64719,26.64719,0,0,1,2.8228,2.3246,25.67992,25.67992,0,0,1,1.9943,2.1232c.4821.5881.7541.9991.7541.9991" transform="translate(-65.3175 -36.98902)"/><path class="cls-12" d="M195.9602,342.8304a2.1195,2.1195,0,0,0,.7142-1.2564,7.39925,7.39925,0,0,0,.1062-1.5983,20.44511,20.44511,0,0,1,.2378-2.3379,41.22866,41.22866,0,0,1,1.1424-5.4617c.2538-.9561.5591-1.9148.8941-2.8737.3236-.9638.7097-1.9133,1.0846-2.868.4179-.9368.8069-1.8846,1.2699-2.7907.4221-.9209.9271-1.7988,1.4043-2.66a42.29374,42.29374,0,0,1,3.0775-4.6536,34.81115,34.81115,0,0,1,2.8356-3.2856c.7878-.7936,1.3402-1.2428,1.3402-1.2428a15.03808,15.03808,0,0,1,.7219,1.6904,19.78967,19.78967,0,0,1,.9851,4.3968,23.53062,23.53062,0,0,1-.1284,6.0474,23.27439,23.27439,0,0,1-.6978,3.2803,26.35846,26.35846,0,0,1-2.6583,6.3462,23.83377,23.83377,0,0,1-1.843,2.8023,24.23519,24.23519,0,0,1-4.2085,4.3448c-.7307.5742-1.3827,1.0062-2.0802,1.4751a6.1645,6.1645,0,0,1-2.1334.9932,2.90041,2.90041,0,0,1-1.531-.0878,2.33263,2.33263,0,0,1-.399-.1825Z" transform="translate(-65.3175 -36.98902)"/><path class="cls-13" d="M210.067,311.8017a16.26214,16.26214,0,0,1,.452,1.6318,22.25733,22.25733,0,0,1,.4853,4.2514,29.71006,29.71006,0,0,1-1.3045,9.0643c-.309,1.0795-.7251,2.1391-1.1405,3.1986-.4656,1.0385-.9237,2.0808-1.4781,3.0576a29.75973,29.75973,0,0,1-5.5261,7.3027c-.6509.6065-1.2314,1.0947-1.8392,1.5878a5.76426,5.76426,0,0,1-1.8683,1.0723,2.60958,2.60958,0,0,1-1.3915.0524,2.02758,2.02758,0,0,1-.3707-.1319l-.1252-.0583" transform="translate(-65.3175 -36.98902)"/><path class="cls-3" d="M193.21,384.3665a4.59884,4.59884,0,0,1,5.4169.57q.63855-1.097,1.277-2.1937c-3.5207-1.2224-7.2722-1.8671-10.3086.779a1.33072,1.33072,0,0,0,.932,2.25c1.3302-.0303,1.9093-1.2577,2.9824-1.8916.7025-.415,3.9731-1.758,4.6427-.7506l1.6388-2.1317c-3.2324-.6965-7.8913-1.5937-10.3279,1.3479l2.2167,1.7103a4.12113,4.12113,0,0,1,2.3501-2.2619c.388-.1585,3.4066-.6079,3.4058-.6182l.6929-1.208-.204.1183q.5397-.07065,1.0793-.1412c-2.3498-.5006-3.8635-1.969-6.3513-1.099-1.7297.6049-3.2258,1.4499-3.9425,3.1891-.5216,1.2655,1.3379,2.145,2.1972,1.2791a7.81839,7.81839,0,0,1,4.8359-2.4102,5.65361,5.65361,0,0,1,2.5986.2064c.5281.2364.7644.6132,1.2681.8458a.951.951,0,0,0,1.105-.1425l.1708-.1636a1.27637,1.27637,0,0,0,.1956-1.5153c-1.0598-1.9467-4.008-1.9341-5.9263-1.6627a10.94619,10.94619,0,0,0-6.1069,2.9829q1.03245.79665,2.0647,1.5931c.7657-1.7182,3.182-1.8938,4.6903-1.3235,1.1844.4478,2.5044,1.397,3.7377.6593a1.38115,1.38115,0,0,0,.6929-1.208c-.2051-2.2887-3.1592-2.7093-4.975-2.4597a7.57385,7.57385,0,0,0-6.0163,3.9152c-.641,1.349,1.0876,3,2.2167,1.7103,1.6786-1.9176,5.417-.9636,7.5603-.5453,1.1282.2201,2.4198-1.005,1.6388-2.1317-1.1927-1.7207-3.2743-1.734-5.1863-1.3643a9.55284,9.55284,0,0,0-3.04,1.1574,10.79092,10.79092,0,0,0-1.2262.8653,6.69339,6.69339,0,0,0-.6679.5661q-.82485.6912-.0107.2465.466,1.125.932,2.25c2.207-1.863,5.2956-.8581,7.7468-.1118,1.2009.3657,2.3033-1.3389,1.277-2.1937a7.063,7.063,0,0,0-8.4205-.6768,1.13754,1.13754,0,0,0,1.1474,1.963Z" transform="translate(-65.3175 -36.98902)"/><path class="cls-3" d="M236.1794,388.18l13.6902-8.2947c4.1303-2.5025,8.7209-5.1032,13.4901-4.3443,2.5598.4074,4.8559,1.7529,7.1349,2.9875a151.73952,151.73952,0,0,0,22.1533,9.6515" transform="translate(-65.3175 -36.98902)"/><path class="cls-12" d="M262.0687,385.1625c2.4161-9.1328,1.3342-19.9945,1.4503-29.4.1284-10.4164.4118-20.9478-.7162-31.3197a.258.258,0,0,0-.5156,0c-.9766,10.3877-.711,20.8966-.8128,31.3197-.0923,9.4495-1.6177,20.1219.2779,29.4a.16535.16535,0,0,0,.3164,0Z" transform="translate(-65.3175 -36.98902)"/><path class="cls-12" d="M263.1685,328.2188c2.0862-4.7711,3.0486-10.0365,4.7868-14.9529,1.9157-5.4186,4.217-10.7365,6.4014-16.0503.176-.4281-.4748-.6354-.7068-.298-5.8505,8.5073-11.3159,20.6572-10.8744,31.1947.0079.1897.3032.3119.393.1065Z" transform="translate(-65.3175 -36.98902)"/><path class="cls-12" d="M266.0734,314.1814c-.3634-4.3263-2.2162-8.4566-3.4705-12.5924-1.2607-4.1568-2.4188-8.3382-3.3962-12.5718-2.0876-9.0423-3.3481-18.222-4.914-27.3585-.0734-.428-.7279-.3092-.7366.0997a111.29939,111.29939,0,0,0,3.1548,26.9828c1.8598,8.1696,3.6442,18.812,8.8603,25.5762.1427.1852.5274.1637.5022-.136Z" transform="translate(-65.3175 -36.98902)"/><path class="cls-12" d="M254.1278,262.4412s-.4556-.7514-1.0794-2.0908a33.35685,33.35685,0,0,1-1.9469-5.6211,43.57979,43.57979,0,0,1-1.2527-8.0803,45.19217,45.19217,0,0,1-.0637-4.5684c.0178-1.5565.1948-3.1237.3407-4.6942.2373-1.5592.4377-3.1238.7976-4.6383a44.74079,44.74079,0,0,1,1.1611-4.4184,43.21415,43.21415,0,0,1,3.1705-7.5379,33.13685,33.13685,0,0,1,3.2576-4.9813c.9322-1.1478,1.5591-1.7659,1.5591-1.7659s.2354.8601.4826,2.2991a58.10159,58.10159,0,0,1,.6367,5.7898c.1311,2.3393.1881,5.0149.0629,7.823-.0453,1.4077-.1286,2.8503-.2582,4.3069-.1128,1.459-.2821,2.9306-.4513,4.4026-.1931,1.469-.3922,2.9371-.6351,4.3802-.2378,1.4437-.4921,2.8649-.7981,4.2411-.5607,2.755-1.2632,5.3376-1.9545,7.5759-.7072,2.2364-1.4319,4.1277-2.0104,5.4641C254.5614,261.6638,254.1278,262.4412,254.1278,262.4412Z" transform="translate(-65.3175 -36.98902)"/><path class="cls-13" d="M260.0717,214.0446s.1226.8285.2154,2.2294c.0888,1.3998.1496,3.3696.1273,5.684-.0391,2.3118-.133,4.9743-.3603,7.7857-.0954,1.4093-.2249,2.856-.3763,4.3214-.1451,1.4663-.3185,2.9501-.4967,4.4334-.1869,1.4823-.3831,2.9635-.5966,4.4214-.2159,1.4577-.4299,2.8938-.6851,4.2839-.4618,2.7827-1.0149,5.3892-1.5349,7.642-.537,2.2511-1.0701,4.1478-1.4926,5.4845-.4269,1.3369-.744,2.1109-.744,2.1109" transform="translate(-65.3175 -36.98902)"/><path class="cls-12" d="M255.2113,272.2497a16.46523,16.46523,0,0,1-1.8606-.6135,16.86876,16.86876,0,0,1-1.956-.9137,20.125,20.125,0,0,1-2.3248-1.4275,26.34189,26.34189,0,0,1-4.9109-4.479,27.28253,27.28253,0,0,1-2.2176-2.9702,34.51569,34.51569,0,0,1-1.9092-3.3063,34.08911,34.08911,0,0,1-1.4501-3.5314,26.98393,26.98393,0,0,1-.9946-3.5705,26.14707,26.14707,0,0,1-.5316-6.6264,20,20,0,0,1,.2999-2.7135,16.80916,16.80916,0,0,1,.4809-2.1068,16.32057,16.32057,0,0,1,.6612-1.8479s.5722.4962,1.3934,1.3671c.8156.8722,1.8801,2.1126,3.0024,3.5815a57.86632,57.86632,0,0,1,3.3908,5.0166c.5701.9137,1.1149,1.865,1.6393,2.8404.5327.9713,1.0366,1.9699,1.5343,2.9719.4859,1.0078.9599,2.0213,1.4018,3.0375.4399,1.0175.8703,2.024,1.2351,3.0394a59.13294,59.13294,0,0,1,1.8871,5.7546c.475,1.7863.8058,3.3856.998,4.5626C255.1676,271.4954,255.2113,272.2497,255.2113,272.2497Z" transform="translate(-65.3175 -36.98902)"/><path class="cls-13" d="M238.4979,238.143s.4573.5193,1.1246,1.4299c.6637.9114,1.5438,2.2084,2.5075,3.7437.9416,1.5439,2.0036,3.3154,3.0166,5.2272.5304.9476,1.0409,1.9341,1.5549,2.9359.5029,1.0054,1.0129,2.025,1.5233,3.0451.4919,1.0295.9835,2.0583,1.4683,3.0727.4696,1.0242.9455,2.0268,1.3635,3.0303.8888,1.9732,1.6383,3.8981,2.2828,5.5878.6242,1.7017,1.1121,3.1905,1.4275,4.2719.3126,1.0841.4444,1.7622.4444,1.7622" transform="translate(-65.3175 -36.98902)"/><path class="cls-12" d="M256.5473,281.8914s-.1565-.7031-.2806-1.8437a31.87592,31.87592,0,0,1-.1181-4.4805,37.92137,37.92137,0,0,1,.711-5.8044c.1928-1.0255.4414-2.0611.7337-3.0961.2776-1.0405.6264-2.0704.9729-3.1014.3833-1.0177.7585-2.0381,1.2029-3.019.4184-.9897.8949-1.9442,1.386-2.8629a37.35047,37.35047,0,0,1,3.1237-4.943,31.598,31.598,0,0,1,2.936-3.3911,18.48406,18.48406,0,0,1,1.3904-1.248,16.27344,16.27344,0,0,1,.6583,1.7534,22.37841,22.37841,0,0,1,.8856,4.4908,28.55035,28.55035,0,0,1-.7184,9.4261c-.2426,1.1215-.6245,2.2169-.9782,3.3216-.4265,1.0787-.8313,2.1658-1.3529,3.1878a28.85473,28.85473,0,0,1-5.4174,7.7481,22.51712,22.51712,0,0,1-3.5206,2.9192A16.41979,16.41979,0,0,1,256.5473,281.8914Z" transform="translate(-65.3175 -36.98902)"/><path class="cls-13" d="M268.6052,248.1013s.1889.6204.3902,1.6872a25.57576,25.57576,0,0,1,.3855,4.3471,33.37248,33.37248,0,0,1-.4986,5.9574c-.195,1.0655-.4052,2.1673-.7157,3.2566-.2691,1.1031-.6499,2.1887-1.0077,3.2819-.416,1.0727-.8134,2.1521-1.3031,3.1766-.4568,1.0367-.9819,2.0264-1.512,2.9721a33.67965,33.67965,0,0,1-3.3856,4.9268,25.762,25.762,0,0,1-3.0446,3.1234c-.8292.6993-1.3663,1.061-1.3663,1.061" transform="translate(-65.3175 -36.98902)"/><path class="cls-12" d="M273.8496,298.0701s.2656-.743.7861-1.8685c.2649-.548.5834-1.2067.9452-1.9552.3716-.7103.7875-1.5054,1.2378-2.3661.9287-1.66,1.9568-3.5392,3.1321-5.4.5518-.9642,1.1749-1.897,1.7785-2.863.6211-.9487,1.2501-1.9096,1.8799-2.8715.6444-.9519,1.2882-1.9028,1.9237-2.8416.6506-.9333,1.2854-1.8596,1.9557-2.7432,1.2648-1.8,2.6056-3.4694,3.7839-4.9628.6233-.7454,1.199-1.4338,1.7135-2.0491.5541-.6207,1.0418-1.1671,1.4474-1.6214.8426-.9117,1.4298-1.4416,1.4298-1.4416a16.48754,16.48754,0,0,1,.6178,1.9514,15.04455,15.04455,0,0,1,.4016,2.2424,18.26285,18.26285,0,0,1,.1441,2.8997,25.084,25.084,0,0,1-1.1627,7.0528,26.49091,26.49091,0,0,1-1.4895,3.7291,27.133,27.133,0,0,1-4.595,6.8707,26.66215,26.66215,0,0,1-2.8767,2.8018,25.23075,25.23075,0,0,1-6.0661,3.7782,18.35726,18.35726,0,0,1-2.7301.9819,15.13506,15.13506,0,0,1-2.2216.4931A16.62619,16.62619,0,0,1,273.8496,298.0701Z" transform="translate(-65.3175 -36.98902)"/><path class="cls-13" d="M295.8632,265.0861a19.09769,19.09769,0,0,1,.3499,1.8847,15.873,15.873,0,0,1,.1597,2.1611,19.77365,19.77365,0,0,1-.0989,2.7885,28.25976,28.25976,0,0,1-1.5058,6.7793,30.09733,30.09733,0,0,1-1.5505,3.6001,30.18483,30.18483,0,0,1-4.4915,6.7193,30.26844,30.26844,0,0,1-2.7329,2.8097,28.41139,28.41139,0,0,1-5.6821,3.9904,19.8227,19.8227,0,0,1-2.535,1.163,15.92612,15.92612,0,0,1-2.0546.6844c-1.1764.3038-1.8719.4035-1.8719.4035" transform="translate(-65.3175 -36.98902)"/><path class="cls-12" d="M269.2542,307.6227l.3209-.2211c.2026-.1412.4814-.3239.803-.5795a21.81088,21.81088,0,0,0,2.1082-1.8411,22.9176,22.9176,0,0,1,2.3799-2.083,11.58612,11.58612,0,0,1,1.4784-.9443,16.12367,16.12367,0,0,1,1.7574-.8289,15.83214,15.83214,0,0,1,1.9817-.5912,12.117,12.117,0,0,1,2.0216-.3054,14.169,14.169,0,0,1,3.884.2423,15.01109,15.01109,0,0,1,3.0496.9623,12.47356,12.47356,0,0,1,1.2643.6462,12.48533,12.48533,0,0,1-.5108,1.3249,15.00542,15.00542,0,0,1-1.6299,2.7512,14.16565,14.16565,0,0,1-2.7316,2.7716,12.126,12.126,0,0,1-1.7099,1.1211,13.42963,13.42963,0,0,1-3.9785,1.4915,11.86916,11.86916,0,0,1-2.3218.2847,10.78413,10.78413,0,0,1-4.57-.7973,7.07689,7.07689,0,0,1-2.8772-2.146,5.21387,5.21387,0,0,1-.5612-.906C269.3021,307.7509,269.2542,307.6227,269.2542,307.6227Z" transform="translate(-65.3175 -36.98902)"/><path class="cls-13" d="M290.3032,302.079a10.84512,10.84512,0,0,1-.6094,1.0669,15.15975,15.15975,0,0,1-1.8156,2.2654,16.93952,16.93952,0,0,1-2.8824,2.3772,15.87141,15.87141,0,0,1-1.7506,1.0144c-.6043.3244-1.2473.5773-1.8853.8438a19.2721,19.2721,0,0,1-2.062.6384,13.18942,13.18942,0,0,1-2.2114.3711,10.89692,10.89692,0,0,1-4.2836-.4205,6.85108,6.85108,0,0,1-2.7765-1.6243,4.75006,4.75006,0,0,1-.5927-.7117l-.1795-.277" transform="translate(-65.3175 -36.98902)"/><path class="cls-12" d="M263.0576,330.0728a21.45564,21.45564,0,0,1-1.7929-1.2524,31.07847,31.07847,0,0,1-3.9887-3.7417,40.07112,40.07112,0,0,1-4.4391-5.9745,41.06932,41.06932,0,0,1-1.9904-3.6299c-.6445-1.2527-1.1721-2.5784-1.7223-3.8948-.4763-1.3448-.9813-2.6792-1.3435-4.0409a40.55869,40.55869,0,0,1-.9656-4.025,39.70794,39.70794,0,0,1-.7176-7.4088,30.8733,30.8733,0,0,1,.4553-5.4534,21.23149,21.23149,0,0,1,.4949-2.1333s.6212.5536,1.5348,1.5562a43.85138,43.85138,0,0,1,3.3298,4.2345,56.76034,56.76034,0,0,1,3.7087,6.1752c.602,1.1463,1.1925,2.3377,1.7305,3.5689.5624,1.2223,1.0614,2.4888,1.5676,3.7528.4718,1.2775.9447,2.5541,1.3484,3.8377.4169,1.2782.7915,2.5523,1.1059,3.8099a57.59945,57.59945,0,0,1,1.3928,7.068,44.287,44.287,0,0,1,.3799,5.3706C263.1441,329.2469,263.0576,330.0728,263.0576,330.0728Z" transform="translate(-65.3175 -36.98902)"/><path class="cls-13" d="M247.0477,288.5181s.5082.5844,1.2691,1.6317c.7564,1.0488,1.7594,2.5601,2.8346,4.394,1.0666,1.8375,2.2223,3.9922,3.3175,6.3365.5578,1.1691,1.1084,2.383,1.6303,3.6287.5362,1.2406,1.0361,2.516,1.5383,3.7905.4821,1.2825.9622,2.5656,1.3974,3.8451.4414,1.2771.857,2.5426,1.2215,3.7865.7592,2.4741,1.3482,4.8473,1.7914,6.9248.4346,2.0807.7072,3.8733.8522,5.1575.1404,1.2862.1576,2.0594.1576,2.0594" transform="translate(-65.3175 -36.98902)"/><path class="cls-12" d="M263.6574,342.833a5.09389,5.09389,0,0,0,.2138-1.2731c.0475-.767-.1823-1.5974-.0962-2.7781a16.65656,16.65656,0,0,1,.6109-3.5572,12.26341,12.26341,0,0,1,.6219-1.733,16.57382,16.57382,0,0,1,.8225-1.6488,17.30743,17.30743,0,0,1,1.0432-1.5175,12.08565,12.08565,0,0,1,1.2193-1.3786,16.17178,16.17178,0,0,1,2.828-2.243,19.52991,19.52991,0,0,1,2.7288-1.4381c.771-.3266,1.3115-.4926,1.3115-.4926a10.48466,10.48466,0,0,1,.6598,1.2455,11.95219,11.95219,0,0,1,.7876,7.12,11.12147,11.12147,0,0,1-.5985,2.0742,13.59234,13.59234,0,0,1-.9503,1.983,14.37112,14.37112,0,0,1-1.2887,1.7824,11.34317,11.34317,0,0,1-1.5405,1.5154,12.09772,12.09772,0,0,1-3.4837,2.0182,8.70053,8.70053,0,0,1-3.4552.7544,3.6862,3.6862,0,0,1-1.0672-.2565A2.96076,2.96076,0,0,1,263.6574,342.833Z" transform="translate(-65.3175 -36.98902)"/><path class="cls-13" d="M274.9611,324.773a9.43386,9.43386,0,0,1,.4019,1.147,12.02943,12.02943,0,0,1,.4148,2.8788,13.72377,13.72377,0,0,1-.4573,3.7912,13.42273,13.42273,0,0,1-.6798,1.9832,16.287,16.287,0,0,1-.9624,1.9221,17.39809,17.39809,0,0,1-1.2277,1.765,14.33553,14.33553,0,0,1-4.5282,3.7633,7.66362,7.66362,0,0,1-2.9904,1.0192,3.28653,3.28653,0,0,1-.9444-.1021,2.62171,2.62171,0,0,1-.3302-.1077" transform="translate(-65.3175 -36.98902)"/><path class="cls-3" d="M261.2352,385.9064a2.337,2.337,0,0,1-.373-.625q-.41685,1.0245-.8337,2.0491a15.80431,15.80431,0,0,1,3.8337-.5154l-.8958-2.1627c-.0006.0007-2.6168-.286-2.7187-.282a16.87743,16.87743,0,0,0-3.2856.6634q.6579,1.13025,1.3158,2.2604a5.599,5.599,0,0,1,7.4175-.542q.38595-1.42515.772-2.8502c-1.2906-.1374-2.4855-1.1182-3.7985-1.3525a8.97691,8.97691,0,0,0-3.0615-.0053,9.3197,9.3197,0,0,0-5.5276,3.1085q.98325.75855,1.9663,1.5172c1.486-2.6795,6.9376-4.9269,9.5056-2.6187q.8871-1.1496,1.7741-2.2993c-4.5508-2.2782-10.2985-2.5688-13.6118,1.8493q1.13565.3075,2.2712.6151c.6152-5.2406,8.0098-1.6445,10.8399-2.1324a.78344.78344,0,0,0,.4622-1.1362c-1.2946-2.8127-5.9811-2.891-8.5445-2.3375-2.8118.6071-5.2671,2.5262-5.1951,5.6061a1.23022,1.23022,0,0,0,2.2711.6151c2.6156-3.4878,7.1293-1.7532,10.3789-.4037,1.3632.5661,2.4707-1.5211,1.4244-2.4469-4.1667-3.6874-11.1704-.9609-13.738,3.4253-.7048,1.2038.9885,2.5863,1.9663,1.5172a6.32248,6.32248,0,0,1,5.6153-2.112c1.7919.2449,3.1872,1.4339,5.0017,1.6497,1.6693.1986,1.849-2.0766.772-2.8502a7.929,7.929,0,0,0-10.8741,1.2708c-.8969,1.114.2347,3.0016,1.6389,2.124,2.2285-1.3929,4.8425.5971,6.7538-1.0616a1.27518,1.27518,0,0,0-.559-2.1174,8.93475,8.93475,0,0,0-4.9121.3137,1.40758,1.40758,0,0,0,0,2.6902,3.47585,3.47585,0,0,0,1.0275.1805,1.07257,1.07257,0,0,0,.9208-1.6046Z" transform="translate(-65.3175 -36.98902)"/><path class="cls-3" d="M315.2749,390.8878a130.15235,130.15235,0,0,1,21.9737-23.4546c3.166-2.6347,7.1767-5.2666,11.113-4.0539,2.2389.6898,3.9209,2.5026,5.4906,4.2417,6.63,7.3456,13.3309,14.7983,18.8776,22.9536" transform="translate(-65.3175 -36.98902)"/><path class="cls-12" d="M347.6898,380.7794c.8786-8.4435.1203-17.2661.1569-25.7602q.05775-13.376.2658-26.7522.1812-12.88035.5676-25.7561c.2587-8.8717,1.0676-17.8777.3318-26.7339-.0333-.4016-.6793-.5632-.7596-.1028-1.4816,8.4907-1.3904,17.2498-1.6508,25.8463q-.40485,13.3695-.5476,26.7465-.1635,13.3773.0038,26.7522c.0944,8.5204-.4388,17.4363.7574,25.8786.0758.5349.8272.3378.8747-.1184Z" transform="translate(-65.3175 -36.98902)"/><path class="cls-12" d="M347.6299,306.1164c.3494-6.4728-1.1765-13.2251-2.0573-19.6404-.931-6.7816-1.8492-13.5651-2.8009-20.3439-1.9231-13.6983-2.8779-28.0701-6.6047-41.4169a.28252.28252,0,0,0-.5524.0748c.0779,13.3098,2.9588,26.8295,4.7893,39.9839.943,6.7762,1.9177,13.548,2.8838,20.321.9866,6.917,1.3693,14.4951,3.6516,21.115a.35333.35333,0,0,0,.6906-.0935Z" transform="translate(-65.3175 -36.98902)"/><path class="cls-12" d="M349.7611,277.2262c6.3566-5.7797,7.5424-17.0785,9.1522-25.029a182.91628,182.91628,0,0,0,3.7877-30.7715c.0081-.2716-.4324-.3423-.4834-.0654-1.7375,9.4426-3.2616,18.9204-5.1425,28.3365-.8525,4.2678-1.7085,8.5501-2.7951,12.7663-1.2869,4.9932-3.4937,9.3085-5.5128,13.9962a.63593.63593,0,0,0,.9939.7669Z" transform="translate(-65.3175 -36.98902)"/><path class="cls-12" d="M349.0535,280.1629c2.6334-16.5178,1.8565-33.8677,2.0613-50.5551.2142-17.4533.8762-35.0923-.6944-52.4937a.35183.35183,0,0,0-.7032,0c-1.1811,17.1133-.5428,34.3563-.7465,51.5033-.2023,17.0312-1.8597,34.5111-.3315,51.4894.0195.2171.374.3089.4143.0561Z" transform="translate(-65.3175 -36.98902)"/><path class="cls-12" d="M350.4821,180.0919s-.4732-.859-1.1281-2.3817a44.94481,44.94481,0,0,1-2.1083-6.369,59.9824,59.9824,0,0,1-1.5713-9.1243c-.1539-1.6754-.2778-3.4095-.2929-5.1695-.0621-1.7619.0188-3.5473.0732-5.3339.1372-1.782.2418-3.5663.4937-5.3112.1935-1.749.5175-3.4586.8416-5.1086a59.428,59.428,0,0,1,2.5441-8.9026,44.62823,44.62823,0,0,1,2.7902-6.104c.818-1.443,1.3841-2.2456,1.3841-2.2456s.3194.9366.7058,2.5373a65.91321,65.91321,0,0,1,1.1636,6.5267c.3365,2.667.6037,5.7436.6886,9.0063.0545,1.6328.0776,3.3134.0418,5.0153-.0123,1.7035-.0949,3.4277-.172,5.1523-.1102,1.723-.2209,3.4457-.3914,5.1407-.1589,1.6956-.3487,3.3645-.5879,4.9816-.4385,3.2347-1.0351,6.2649-1.6548,8.8802-.6304,2.6144-1.3047,4.814-1.8511,6.3636C350.8975,179.1952,350.4821,180.0919,350.4821,180.0919Z" transform="translate(-65.3175 -36.98902)"/><path class="cls-13" d="M353.5084,124.0415s.2036.9191.4323,2.4992c.2242,1.5794.4699,3.8173.6464,6.4714.1648,2.6535.2814,5.7255.2655,8.9927.005,1.635-.0172,3.3194-.0736,5.0275-.0438,1.7089-.1293,3.4409-.2142,5.1731-.1029,1.7313-.2097,3.4622-.3499,5.1659-.136,1.704-.2847,3.3814-.4725,5.0063-.3382,3.2499-.7846,6.2917-1.2328,8.9121-.4597,2.6197-.9425,4.8182-1.333,6.3642-.3954,1.5462-.6945,2.438-.6945,2.438" transform="translate(-65.3175 -36.98902)"/><path class="cls-12" d="M351.3529,193.4634s-.0954-.8247-.112-2.1789a44.39825,44.39825,0,0,1,.3211-5.3714,57.71938,57.71938,0,0,1,1.3126-7.0779c.2997-1.2602.6594-2.5375,1.0613-3.8194.3885-1.287.846-2.568,1.3025-3.8497.4908-1.2689.9747-2.54,1.5219-3.7679.523-1.2365,1.0985-2.434,1.6863-3.5865a56.85062,56.85062,0,0,1,3.6304-6.2155,43.94391,43.94391,0,0,1,3.2748-4.2734c.9003-1.0135,1.5144-1.5749,1.5144-1.5749a21.20534,21.20534,0,0,1,.5225,2.1259,30.79688,30.79688,0,0,1,.5252,5.4451,39.57732,39.57732,0,0,1-.6253,7.4149,40.39469,40.39469,0,0,1-.9166,4.0354c-.3456,1.3657-.8348,2.7056-1.295,4.0556-.5349,1.3225-1.0468,2.6539-1.6769,3.9137a40.94952,40.94952,0,0,1-1.9485,3.6512,39.97224,39.97224,0,0,1-4.3719,6.0211,31.0043,31.0043,0,0,1-3.9477,3.7823A21.389,21.389,0,0,1,351.3529,193.4634Z" transform="translate(-65.3175 -36.98902)"/><path class="cls-13" d="M366.8662,151.7479s.1399.7552.2561,2.0538a36.48659,36.48659,0,0,1,.0279,5.2918,48.87187,48.87187,0,0,1-1.0184,7.258c-.2926,1.3001-.6026,2.6441-1.0173,3.9766-.372,1.3477-.8606,2.6786-1.3249,4.018-.5245,1.3172-1.0293,2.6419-1.6278,3.9053-.5642,1.2767-1.1981,2.5006-1.8324,3.6733a49.32293,49.32293,0,0,1-3.9717,6.1592,36.71951,36.71951,0,0,1-3.4731,3.9903c-.9345.908-1.5317,1.3892-1.5317,1.3892" transform="translate(-65.3175 -36.98902)"/><path class="cls-12" d="M350.2283,203.329a2.1304,2.1304,0,0,1-.5207.0464,3.23316,3.23316,0,0,1-1.3356-.3473,23.80211,23.80211,0,0,1-3.5936-2.0903,21.11054,21.11054,0,0,1-3.9978-3.7316,19.531,19.531,0,0,1-1.7915-2.515,23.68755,23.68755,0,0,1-1.4852-2.8806,22.33973,22.33973,0,0,1-1.0231-3.1555,17.6067,17.6067,0,0,1-.4894-3.235,16.11252,16.11252,0,0,1,.6831-5.8902,12.24253,12.24253,0,0,1,1.9959-3.8644,8.46108,8.46108,0,0,1,1.1958-1.2638s.3661.5624.9077,1.4313c.4914.8162,1.1748,1.9513,1.9718,3.275.7444,1.2584,1.5312,2.6258,2.2851,4.0733.3774.7254.764,1.4637,1.1068,2.2342.3811.7583.6902,1.5512,1.0519,2.3491.3118.8176.6645,1.6298.9447,2.4774.3056.8349.5779,1.693.8156,2.5524a32.479,32.479,0,0,1,1.0263,5.0344,19.97367,19.97367,0,0,1,.1258,4.0121,3.48883,3.48883,0,0,0,.0212,1.1101A2.26255,2.26255,0,0,0,350.2283,203.329Z" transform="translate(-65.3175 -36.98902)"/><path class="cls-13" d="M339.8662,174.4017s.2502.5428.6324,1.4093c.3574.8248.8594,1.9831,1.4528,3.3523.5614,1.2759,1.2076,2.7448,1.8967,4.3109.3335.7687.6774,1.5614,1.026,2.3652.3463.8108.697,1.6323,1.0482,2.4546.3301.8416.6976,1.6758,1.0154,2.5302.3362.8449.6533,1.6999.9432,2.5475a44.40075,44.40075,0,0,1,1.4152,4.864,24.57606,24.57606,0,0,1,.5795,3.7606,3.214,3.214,0,0,0,.1936,1.0099,1.83987,1.83987,0,0,0,.1591.3228" transform="translate(-65.3175 -36.98902)"/><path class="cls-12" d="M362.0427,225.9042a14.29841,14.29841,0,0,0,.7568-1.8422c.4091-1.1316.7661-2.6443,1.2737-4.5096a48.26932,48.26932,0,0,1,2.2793-6.3033c.4827-1.1062,1.0093-2.2271,1.5925-3.3337.562-1.1198,1.2057-2.2106,1.8319-3.3122.6757-1.072,1.3214-2.1612,2.0479-3.1828.6858-1.045,1.4393-2.0302,2.1783-2.9828a48.2627,48.2627,0,0,1,4.4922-5.0122,37.39053,37.39053,0,0,1,3.8569-3.2858c1.0362-.754,1.7227-1.1486,1.7227-1.1486a19.46225,19.46225,0,0,1,.1761,2.069,28.57811,28.57811,0,0,1-.3385,5.1387,35.5927,35.5927,0,0,1-1.7545,6.7357,36.09945,36.09945,0,0,1-1.5006,3.5586c-.5519,1.1915-1.2141,2.345-1.8731,3.5-.7093,1.125-1.4139,2.253-2.2072,3.3a35.23807,35.23807,0,0,1-2.4309,3.0015,36.17922,36.17922,0,0,1-5.1254,4.7512,14.4814,14.4814,0,0,1-4.8508,2.6049,7.77407,7.77407,0,0,1-1.5678.2535C362.234,225.9154,362.0427,225.9042,362.0427,225.9042Z" transform="translate(-65.3175 -36.98902)"/><path class="cls-13" d="M384.0749,190.991s.0181.7256-.0723,1.9486a33.842,33.842,0,0,1-.7988,4.8962,44.04479,44.04479,0,0,1-2.1128,6.5102c-.4751,1.15-.9933,2.3262-1.5892,3.4833-.5748,1.1693-1.2349,2.3143-1.896,3.4585-.6985,1.1219-1.3952,2.2451-2.1582,3.3016-.7409,1.0701-1.5261,2.0869-2.3211,3.0449a44.04937,44.04937,0,0,1-4.753,4.9544,14.71191,14.71191,0,0,1-4.3828,2.854,8.03574,8.03574,0,0,1-1.4315.3965c-.3357.0422-.5165.065-.5165.065" transform="translate(-65.3175 -36.98902)"/><path class="cls-12" d="M359.7088,243.2871l.2918-.4305c.1881-.265.462-.6507.8059-1.1351.6856-.9404,1.6109-2.2014,2.6848-3.5931,1.0768-1.3993,2.3137-2.9373,3.7469-4.5076.7146-.7899,1.4756-1.5909,2.302-2.3701.8086-.8024,1.7027-1.558,2.5785-2.319.9124-.7207,1.8109-1.4576,2.7593-2.1091.9233-.6809,1.8898-1.2851,2.838-1.8583a38.13377,38.13377,0,0,1,5.5503-2.7599,30.95206,30.95206,0,0,1,4.4829-1.4125c1.1685-.2584,1.907-.3379,1.907-.3379a17.256,17.256,0,0,1-.4701,1.8832,25.853,25.853,0,0,1-1.8397,4.3827,33.35139,33.35139,0,0,1-5.882,7.8722c-.826.8572-1.7451,1.635-2.6528,2.4259-.9493.7449-1.8834,1.4912-2.8884,2.1503a29.4548,29.4548,0,0,1-3.0778,1.8524,24.141,24.141,0,0,1-6.2672,2.3185,16.40028,16.40028,0,0,1-4.9448.3105,11.349,11.349,0,0,1-1.422-.2358C359.8858,243.3317,359.7088,243.2871,359.7088,243.2871Z" transform="translate(-65.3175 -36.98902)"/><path class="cls-13" d="M389.6562,220.454s-.204.6454-.6581,1.6811a30.31318,30.31318,0,0,1-2.1855,3.994,39.48592,39.48592,0,0,1-3.7926,4.9492c-.7569.8394-1.5541,1.6919-2.4174,2.4972-.842.8303-1.7584,1.6028-2.6667,2.3845-.9397.747-1.8686,1.4945-2.8479,2.1724-.966.6949-1.9682,1.3376-2.9762,1.9202a27.00258,27.00258,0,0,1-5.9374,2.6048,17.70969,17.70969,0,0,1-4.6492.74,11.68491,11.68491,0,0,1-1.3414-.0564l-.475-.0539" transform="translate(-65.3175 -36.98902)"/><path class="cls-12" d="M359.1916,243.7747a18.19992,18.19992,0,0,1-1.0487-1.6065,27.861,27.861,0,0,1-1.9786-4.2355,34.16658,34.16658,0,0,1-1.613-5.9879,33.59484,33.59484,0,0,1-.4422-3.3773c-.1172-1.1501-.1333-2.3184-.1629-3.4867.0288-1.1684.0381-2.3367.1563-3.4867a33.06446,33.06446,0,0,1,.4371-3.3774,29.814,29.814,0,0,1,1.7066-6.1203,18.9355,18.9355,0,0,1,2.343-4.2195,11.74265,11.74265,0,0,1,1.2843-1.4537s.3354.6588.8085,1.7235c.4663,1.0672,1.0638,2.5207,1.644,4.2193a38.88082,38.88082,0,0,1,1.5261,5.8526,33.0748,33.0748,0,0,1,.4361,3.3772c.1178,1.15.1265,2.3183.1549,3.4867-.0298,1.1683-.0463,2.3366-.164,3.4867a33.58413,33.58413,0,0,1-.4433,3.377,34.16179,34.16179,0,0,1-1.6149,5.9875,27.84105,27.84105,0,0,1-1.98,4.2348A18.19309,18.19309,0,0,1,359.1916,243.7747Z" transform="translate(-65.3175 -36.98902)"/><path class="cls-13" d="M359.8736,206.4232s.2201.6368.5346,1.6882c.3099,1.0532.7137,2.5071,1.1224,4.2194a56.98785,56.98785,0,0,1,1.103,5.8875c.1384,1.0951.2652,2.2272.3218,3.3772.0869,1.1501.0935,2.3184.1143,3.4867-.022,1.1684-.0343,2.3367-.1211,3.4867-.0652,1.1502-.1819,2.2819-.3276,3.3772a44.062,44.062,0,0,1-1.1926,5.9874,33.09973,33.09973,0,0,1-1.462,4.2349c-.4463,1.0222-.7748,1.6063-.7748,1.6063" transform="translate(-65.3175 -36.98902)"/><path class="cls-12" d="M338.1541,242.1422a18.18546,18.18546,0,0,1-1.3327-1.3772,27.79116,27.79116,0,0,1-2.7417-3.7792,34.05876,34.05876,0,0,1-2.7129-5.5667,33.462,33.462,0,0,1-1.0712-3.2277c-.3319-1.1056-.5681-2.2481-.8173-3.3881-.1921-1.151-.4033-2.2982-.5041-3.4481a32.96493,32.96493,0,0,1-.2075-3.3938,33.6768,33.6768,0,0,1,.4563-6.1756,27.59172,27.59172,0,0,1,1.1543-4.5277,18.04179,18.04179,0,0,1,.7334-1.7743,18.02489,18.02489,0,0,1,1.3388,1.3761,27.59026,27.59026,0,0,1,2.75,3.7776,33.67444,33.67444,0,0,1,2.7124,5.5667,32.97419,32.97419,0,0,1,1.065,3.2291c.3325,1.1053.5615,2.2493.8097,3.3894.191,1.1512.395,2.2998.4964,3.4497a33.44768,33.44768,0,0,1,.2013,3.3949,34.05317,34.05317,0,0,1-.4568,6.1757,27.79753,27.79753,0,0,1-1.1458,4.5261A18.17166,18.17166,0,0,1,338.1541,242.1422Z" transform="translate(-65.3175 -36.98902)"/><path class="cls-13" d="M331.1107,205.4838s.4348.5104,1.0676,1.4283a32.78284,32.78284,0,0,1,2.2393,3.8757,43.44675,43.44675,0,0,1,2.2977,5.6464c.3425,1.0477.6804,2.1335.9529,3.2506.3022,1.1112.5289,2.2555.7696,3.3971.1986,1.1496.4069,2.2974.5385,3.4415.1528,1.14.2517,2.2717.3152,3.3732a43.95539,43.95539,0,0,1-.0422,6.0959,33.05149,33.05149,0,0,1-.6372,4.4283c-.2456,1.0866-.458,1.7214-.458,1.7214" transform="translate(-65.3175 -36.98902)"/><path class="cls-12" d="M340.9855,261.1938a17.33738,17.33738,0,0,1-1.9139-.2997,24.81135,24.81135,0,0,1-4.5356-1.4536,27.85538,27.85538,0,0,1-5.607-3.2273,27.05348,27.05348,0,0,1-2.7883-2.3514,32.5322,32.5322,0,0,1-2.5761-2.7943,30.68063,30.68063,0,0,1-2.1888-3.169,24.25775,24.25775,0,0,1-1.6885-3.3722,22.00521,22.00521,0,0,1-1.6084-6.5915,16.64249,16.64249,0,0,1,.3211-4.9292,11.40357,11.40357,0,0,1,.5785-1.8693s.5748.477,1.4436,1.266c.8547.7944,2.002,1.8833,3.2469,3.1265,1.2549,1.2441,2.6098,2.6473,3.9752,4.1591.6806.7588,1.3952,1.5259,2.0595,2.3461.7068.7922,1.36,1.6443,2.0546,2.4723.6582.8634,1.3509,1.7068,1.9816,2.5967.6591.8674,1.2752,1.7641,1.8655,2.6584a48.07282,48.07282,0,0,1,3.0602,5.2487,33.225,33.225,0,0,1,1.8046,4.3202C340.8365,260.4685,340.9855,261.1938,340.9855,261.1938Z" transform="translate(-65.3175 -36.98902)"/><path class="cls-13" d="M318.9785,231.1363s.4603.5028,1.1789,1.345c.6803.8227,1.6404,1.9837,2.7802,3.3623,1.0813,1.3208,2.331,2.8474,3.6655,4.4774.6532.8082,1.3463,1.6247,2.011,2.4803.6842.8465,1.3779,1.7046,2.0721,2.5635.6802.8784,1.3919,1.7373,2.0595,2.6225.6898.8674,1.3486,1.7493,1.9862,2.6182,1.2804,1.7317,2.4448,3.4366,3.3934,4.9842a40.748,40.748,0,0,1,2.1619,3.9452c.4724,1.0208.6983,1.6589.6983,1.6589" transform="translate(-65.3175 -36.98902)"/><path class="cls-12" d="M343.6788,280.4256l.0954.0444a.39957.39957,0,0,1,.2016.3197,1.60215,1.60215,0,0,1-.8176,1.2861,2.39674,2.39674,0,0,1-.9875.4056,2.04911,2.04911,0,0,1-.3603.0242,1.176,1.176,0,0,0-.2066.0573q-.19425.0594-.4001.1221a14.16537,14.16537,0,0,1-1.8076.4091,14.62165,14.62165,0,0,1-4.3102.0542,13.114,13.114,0,0,1-2.3168-.5114,16.033,16.033,0,0,1-2.3004-.9056,16.25509,16.25509,0,0,1-2.1555-1.3169,12.78206,12.78206,0,0,1-1.8942-1.6663,12.19462,12.19462,0,0,1-2.5421-3.9195,10.14281,10.14281,0,0,1-.7406-3.4928,8.77018,8.77018,0,0,1,.0936-1.4877s.601.0039,1.4665.0668c.8662.0643,1.9939.1656,3.1722.3199a28.02067,28.02067,0,0,1,3.6367.7124,15.98738,15.98738,0,0,1,1.8269.6038c.6248.2097,1.2045.5167,1.8228.7877.5849.3282,1.1961.6305,1.7694,1.0157a16.5132,16.5132,0,0,1,1.6903,1.2063,18.80945,18.80945,0,0,1,2.8933,2.8568c.4022.4992.7739,1.0032,1.088,1.4795q.1161.1809.2259.352l.0533.086.0262.0428.013.0212.0033.0054.0016.0027.0008.0013.0004.0006c-.0851.2295.191-.5128-.1907.5148l.0079-.0196a2.372,2.372,0,0,0,.0874-.2967l.0123-.0569-.0062.0306.0004.0599a.50211.50211,0,0,0,.0202.1208,1.112,1.112,0,0,0,.0918.2267,3.01455,3.01455,0,0,0,.2354.3705c.0557.0928.2036.2434.2353.2314C343.6137,280.6529,343.6784,280.3895,343.6788,280.4256Z" transform="translate(-65.3175 -36.98902)"/><path class="cls-13" d="M323.2299,269.8481s.5091.0769,1.2624.2527c.7552.1753,1.7601.4276,2.854.735,1.0954.3105,2.275.6866,3.4935,1.1322.5957.237,1.2347.4535,1.8357.7428.6313.2487,1.2325.5699,1.8663.8568.6082.3312,1.2384.6375,1.8389,1.0014.6079.3453,1.2015.7226,1.7723,1.1153a23.66166,23.66166,0,0,1,3.0788,2.476c.4354.4206.8372.8393,1.182,1.2323q.1281.14955.2487.29l.059.0708.0291.035.0142.0175.0037.0043.0018.0022.0009.0011.0005.0005c-.0188.049.0423-.1085-.0419.1098l.0079-.0196.0242-.0645-.0054.0223a.09709.09709,0,0,0,0,.0464.7259.7259,0,0,0,.2151.3534,1.163,1.163,0,0,0,.5161.3547c.1591.0005.1879-.2177.1911-.1909" transform="translate(-65.3175 -36.98902)"/><path class="cls-12" d="M355.0484,268.33s.223-.5412.6256-1.3092a28.26857,28.26857,0,0,1,1.6721-2.7374,22.00576,22.00576,0,0,1,2.401-2.8986,15.45191,15.45191,0,0,1,1.4109-1.3038c.4894-.4139,1.0094-.7872,1.5335-1.1547.5384-.3463,1.0769-.6914,1.646-.9863a15.076,15.076,0,0,1,1.7375-.8146,21.56511,21.56511,0,0,1,3.5919-1.1196,27.98712,27.98712,0,0,1,3.1733-.501c.8654-.0787,1.4531-.0776,1.4531-.0776a10.06128,10.06128,0,0,1,.1423,1.4586,11.39456,11.39456,0,0,1-.4447,3.4025,12.63908,12.63908,0,0,1-1.9402,3.9796,12.40048,12.40048,0,0,1-1.5943,1.8151,15.70925,15.70925,0,0,1-1.9195,1.562,15.89171,15.89171,0,0,1-2.1779,1.1756,12.52395,12.52395,0,0,1-2.2871.7798,12.73594,12.73594,0,0,1-4.4174.2825,11.43409,11.43409,0,0,1-3.3128-.8731A10.0986,10.0986,0,0,1,355.0484,268.33Z" transform="translate(-65.3175 -36.98902)"/><path class="cls-13" d="M374.2933,255.4272a9.54788,9.54788,0,0,1-.0664,1.2778,11.57306,11.57306,0,0,1-.8017,3.023,14.13419,14.13419,0,0,1-2.1563,3.6053,14.47521,14.47521,0,0,1-1.6132,1.6842,18.2468,18.2468,0,0,1-1.8835,1.4867,18.46676,18.46676,0,0,1-2.0937,1.173,14.62455,14.62455,0,0,1-2.1726.8484,14.23405,14.23405,0,0,1-4.1534.6246,11.62259,11.62259,0,0,1-3.0982-.4006,9.60024,9.60024,0,0,1-1.2059-.4196" transform="translate(-65.3175 -36.98902)"/><path class="cls-12" d="M347.8726,322.5147s-.2308-.815-.4691-2.1885a38.55075,38.55075,0,0,1-.4872-5.5307,49.31294,49.31294,0,0,1,.4408-7.4625c.1745-1.3362.3987-2.7034.696-4.0727.2689-1.3773.6411-2.7479,1.0004-4.1223.4154-1.3588.8122-2.7225,1.3078-4.0364.4562-1.3246.9978-2.6031,1.5429-3.8354a53.87409,53.87409,0,0,1,3.5177-6.5831c1.1597-1.8473,2.2159-3.3304,2.9762-4.4441.789-1.1337,1.2527-1.8002,1.2527-1.8002a11.14164,11.14164,0,0,1,.8361,2.1006,22.80214,22.80214,0,0,1,.8265,5.6694,44.26893,44.26893,0,0,1-.4231,7.5011c-.1855,1.3414-.3989,2.7224-.7101,4.1002-.2714,1.3886-.6542,2.77-1.0181,4.1566-.4201,1.371-.8273,2.7456-1.3256,4.0707-.47,1.3333-1.0007,2.6255-1.557,3.8631a49.10876,49.10876,0,0,1-3.5536,6.607,37.19429,37.19429,0,0,1-3.3126,4.4209C348.4931,321.9571,347.8726,322.5147,347.8726,322.5147Z" transform="translate(-65.3175 -36.98902)"/><path class="cls-13" d="M359.6508,278.4388a11.84125,11.84125,0,0,1,.5628,2.0613,24.78238,24.78238,0,0,1,.329,5.509,55.763,55.763,0,0,1-.828,7.3811c-.2326,1.3272-.4889,2.6947-.819,4.0656-.3009,1.3787-.6854,2.7579-1.0562,4.1408-.4121,1.3715-.8147,2.7455-1.2829,4.0775-.4474,1.3379-.9381,2.6399-1.4445,3.8904a64.37986,64.37986,0,0,1-3.1462,6.719,46.18439,46.18439,0,0,1-2.8155,4.5662c-.7685,1.0737-1.2777,1.665-1.2777,1.665" transform="translate(-65.3175 -36.98902)"/><path class="cls-3" d="M344.8589,381.9298c.1292.5429.5117.1116,1.1162.0004.3336-.0614,2.1426-.0143,2.1908-.4719l2.3031-.954c-2.9529-2.6794-6.6027-1.8265-9.7048.1526q.839,1.0872,1.6778,2.1745a8.40209,8.40209,0,0,1,3.8798-2.6621c1.0044-.3111,3.6477-.947,4.3664.15q1.1154-1.11555,2.2309-2.2309c-5.0586-2.5171-10.3044-3.3098-15.1715.099-1.5682,1.0983-.0902,3.6925,1.5164,2.5942,1.9438-1.3287,7.5824-5.1298,9.7037-2.294l2.5665-1.9803c-3.6279-3.8476-10.6628-3.4272-14.3457.1517a1.53849,1.53849,0,0,0,1.4854,2.5517c2.435-.6293,9.3714-7.6295,11.6989-3.3859l2.7264-2.1036c-3.9942-3.4285-9.5598-3.7523-13.3058.2561q1.25685.96975,2.5136,1.9395a8.97634,8.97634,0,0,1,2.5682-3.0265c.3881-.282,2.8936-1.9616,3.1484-.8618q1.36455-.7944,2.7291-1.5887a5.95591,5.95591,0,0,0-9.7648,1.0705c-.9522,1.6789,1.4337,2.9627,2.5296,1.4786a3.06164,3.06164,0,0,1,4.926-.2399,1.64529,1.64529,0,0,0,2.7291-1.5887c-1.8352-6.5602-9.8269.0002-11.6294,3.1409a1.60734,1.60734,0,0,0,2.5136,1.9395c2.5011-2.4947,5.9582-2.2613,8.5874-.0645,1.4321,1.1964,3.8196-.3148,2.7264-2.1036-1.601-2.6197-4.3474-3.0996-7.1875-2.3567a18.17485,18.17485,0,0,0-4.3197,1.8013c-1.203.6849-2.7071,2.4024-4.0013,2.7491q.7428,1.2759,1.4854,2.5517a7.89789,7.89789,0,0,1,9.8757.0003,1.6351,1.6351,0,0,0,2.311-2.311c-3.8147-4.2649-10.0108-.7675-13.7866,1.6801q.75825,1.297,1.5164,2.5942c4.037-2.6826,7.8733-1.8584,12.0091.1226,1.3429.6433,3.2246-.7627,2.2309-2.2309-3.1264-4.6196-10.2745-1.0075-13.02,2.2001-.9684,1.1312.2688,3.0636,1.6778,2.1745,1.9144-1.2078,4.3805-2.3667,6.3992-.6356a1.36956,1.36956,0,0,0,2.3031-.954c.5778-4.6041-9.5901-1.68-7.2,1.167.4853.578,1.3482-.0509,1.1948-.6955Z" transform="translate(-65.3175 -36.98902)"/><path class="cls-14" d="M227.0392,101.968c-3.5217-10.5652,3.7547-26.3705,7.0188-24.6589,2.1977,1.1524-2.1642,5.8751-1.6133,6.8702,1.2939,2.3373,6.2961-2.8569,7.4359-3.695,2.6379-1.9395,5.5603,10.1098,4.376,12.4837-3.3517,6.718-5.9449,6.4967-13.3044,6.2609Z" transform="translate(-65.3175 -36.98902)"/><path class="cls-12" d="M318.6658,62.7849c-9.4324,9.5965-21.8531,22.8087-31.2856,32.4051l10.0451,15.7594q12.6144-22.74915,24.1165-46.0916Z" transform="translate(-65.3175 -36.98902)"/><path class="cls-12" d="M314.4726,49.9064c5.8407,5.0119,11.9292,9.7304,18.2115,14.1764q-8.3817,2.33355-16.7341,4.7705C315.1888,62.5621,314.7106,56.2392,314.4726,49.9064Z" transform="translate(-65.3175 -36.98902)"/><path class="cls-12" d="M254.0964,87.5854q15.2118-4.25535,30.5313-8.1034,8.0607,18.5595,16.1216,37.1192L256.8954,127.554Q254.9898,107.5851,254.0964,87.5854Z" transform="translate(-65.3175 -36.98902)"/><path class="cls-12" d="M286.6729,84.304q-3.2862,1.12125-6.6487,1.9932c-1.7405-7.0231-2.4815-13.5461-3.5785-20.3773a.912.912,0,0,1,1.7214-.5407C281.193,71.5978,283.8567,77.4647,286.6729,84.304Z" transform="translate(-65.3175 -36.98902)"/><path class="cls-12" d="M270.7293,84.8012a21.59385,21.59385,0,0,0-12.6936-19.9465c-9.0847-4.1933-17.4893-.6108-21.083,8.6647-3.7909,9.7841-1.196,23.0505,2.9905,32.3475,3.2676,7.2565,12.0724,17.0339,21.0828,14.2545a1.80865,1.80865,0,0,0,0-3.4574c-2.9955-.9698-5.9112-1.2802-8.6286-3.0688a20.56116,20.56116,0,0,1-6.8548-8.0966,53.27589,53.27589,0,0,1-5.0227-23.1501c.124-9.0062,5.6105-17.5647,15.5066-13.469a19.96967,19.96967,0,0,1,11.7812,15.9217c.1845,1.8319,2.9243,1.9192,2.9216,0Z" transform="translate(-65.3175 -36.98902)"/><path class="cls-11" d="M333.0112,58.8112c5.076-.0035,9.3254.4033,13.0639,4.2964a18.89116,18.89116,0,0,1,4.8938,13.1372c.061,9.8531-6.0884,17.1714-9.4541,25.9096-.1372.3562.382.6254.6268.3649,7.8925-8.4028,13.9093-22.7113,9.7341-34.1401-2.339-6.4023-12.0031-15.7779-19.0717-10.0682-.2048.1655-.0286.5003.2072.5002Z" transform="translate(-65.3175 -36.98902)"/><path class="cls-11" d="M327.0123,54.844c5.8343-2.1676,10.8704-4.5408,17.2703-4.5291a28.7271,28.7271,0,0,1,17.51,5.9517c11.8274,9.1242,11.9888,22.3169,11.4923,36.0165a.37669.37669,0,0,0,.7366.0997c3.3411-14.295,1.4157-28.646-10.9283-38.0432-9.6801-7.3692-27.2141-9.6008-36.537-.2791-.3129.3129.0017.9523.4561.7835Z" transform="translate(-65.3175 -36.98902)"/><path class="cls-11" d="M323.3308,49.5839c6.0781-4.6535,11.8921-7.8232,19.5046-9.2789a62.094,62.094,0,0,1,26.7972.6088c16.3262,4.1867,28.5096,16.7194,31.2417,33.4761.0807.4949.843.3576.8517-.1153.3223-17.5613-14.7265-30.9955-30.6848-35.298a64.12861,64.12861,0,0,0-27.2944-.977c-7.6,1.2958-16.6868,4.0985-20.9291,11.0712-.1826.3001.2047.7492.5131.5131Z" transform="translate(-65.3175 -36.98902)"/><path class="cls-11" d="M145.7225,171.7606l-4.6176.1185a22.12,22.12,0,0,0-3.205-7.2508l.0128-.0862,3.181-3.3847a1.88077,1.88077,0,0,0-.0679-2.6465l-5.8248-5.5419a1.85952,1.85952,0,0,0-2.6293.063l-3.1265,3.3453a20.62719,20.62719,0,0,0-7.2365-2.7678l-.0005-.021-.1185-4.6183a1.878,1.878,0,0,0-2.0134-1.7136l-8.0317.2061c-1.0266.0264-1.3898.7735-1.3635,1.8002l.1185,4.6178a22.60107,22.60107,0,0,0-7.3351,3.2066l-.128-.0117-3.4055-3.1801a1.89315,1.89315,0,0,0-2.6566.0682l-5.5478,5.8252a1.85953,1.85953,0,0,0,.0604,2.6287l3.3488,3.3012a21.53587,21.53587,0,0,0-2.7645,7.4107l-.0214.0006-4.6183.1185a1.45968,1.45968,0,0,0-1.5544,1.6605l.2061,8.0317a1.56744,1.56744,0,0,0,1.6411,1.7164l4.6178-.1185a21.62971,21.62971,0,0,0,3.2024,7.1607l-.0141.0407-3.1815,3.3622a1.8672,1.8672,0,0,0,.0676,2.6351l5.8251,5.5365a1.85893,1.85893,0,0,0,2.6286-.0659l3.3851-3.3535a21.98552,21.98552,0,0,0,7.4947,2.7597l.0005.0214.1186,4.6182c.0263,1.0262.4749,1.9337,1.5014,1.9073l8.0318-.206a1.99235,1.99235,0,0,0,1.8753-1.994l-.1185-4.618a21.16988,21.16988,0,0,0,7.0766-3.2l-.0011.0149,3.3412,3.1818a1.85377,1.85377,0,0,0,2.6245-.0674l5.5312-5.8244a1.859,1.859,0,0,0-.0684-2.6285l-3.3505-3.2111a27.06691,27.06691,0,0,0,2.7632-7.3202l.0208-.0005,4.6185-.1185a2.04538,2.04538,0,0,0,2.0665-1.8546l-.2061-8.0314C147.8492,172.2565,146.749,171.7342,145.7225,171.7606Zm-33.2379,17.1082c-.1131-.0466-.2256-.0944-.3369-.1446q-.51195-.2307-.9967-.5086-.2421-.13875-.4769-.2888-.23475-.15-.4618-.3108-.11325-.0804-.2248-.1635a11.634,11.634,0,0,1-2.2794-2.2477q-.19575-.2553-.3775-.5216a11.5725,11.5725,0,0,1,1.5677-14.8735q.3009-.28785.6223-.554.10695-.08865.2161-.1748.21855-.1722.4452-.3341a11.56153,11.56153,0,0,1,1.4308-.8719q.24975-.1284.5064-.2448a11.59874,11.59874,0,0,1,9.7758.1058q.2526.12135.4984.2544.3687.1995.721.4247.2346.15.4617.3108.1134.0804.2249.1634.2229.16605.4374.3425.32175.2646.6238.5516.2013.1911.3933.3918a11.63168,11.63168,0,0,1,.8984,1.0589q.1671.2226.3235.4534.1566.2307.3021.4694.2181.3579.4108.7326a11.61745,11.61745,0,0,1,.9791,7.8844q-.064.279-.1417.5528-.11625.4107-.2617.8088-.09675.2652-.2061.5244c-.0485.1151-.0995.2288-.1516.342q-.15645.3399-.3334.6683-.13305.2457-.2776.4843c-.0765.1264-.156.2508-.2373.3741-.072.1092-.1451.2176-.2206.3242q-.0804.1134-.1635.2249-.166.2229-.3424.4374-.08835.10725-.179.2123-.18135.2103-.3726.4115-.09555.10065-.1936.199-.3918.3933-.8204.7483-.10695.08865-.2162.1748-.2184.1722-.4452.334-.22665.16185-.4615.3129-.11745.07545-.2367.1483-.2385.14535-.4847.2796a11.59639,11.59639,0,0,1-9.5703.678Q112.6675,188.94425,112.4846,188.8688Z" transform="translate(-65.3175 -36.98902)"/><g class="cls-15"><path class="cls-16" d="M135.4554,198.8975c-4.033,4.6557-7.2141,10.5222-8.2338,15.7943-.0804.3333-.1065.6488-.1693.9756l-.0421.2437-.0381.3434-.0755.7066-.2686,2.7974c-.1593,1.8489-.276,3.6661-.3339,5.4515a60.085,60.085,0,0,0,.4711,10.3253c.1182.8305.2555,1.6402.4166,2.4664.2036.8574.3717,1.7183.5994,2.581.443,1.7255.9371,3.4607,1.516,5.183a84.46948,84.46948,0,0,0,4.1238,10.168,64.90249,64.90249,0,0,0,12.1539,17.7174l-8.963,10.4146a79.36719,79.36719,0,0,1-17.5076-20.1058,101.57424,101.57424,0,0,1-6.2875-11.6034c-.9329-2.0082-1.7834-4.0698-2.5809-6.1732-.4039-1.0482-.7551-2.1333-1.1324-3.2026-.3658-1.1164-.7138-2.2601-1.0226-3.3966a79.35508,79.35508,0,0,1-2.3626-13.6268c-.2038-2.2373-.3315-4.4469-.4111-6.6223l-.0863-3.2375-.0126-.8015-.0046-.4106.0118-.5091c.0238-.6755.0226-1.3683.0793-2.0326a52.05469,52.05469,0,0,1,3.3637-15.0758,65.08711,65.08711,0,0,1,6.8107-13.201Z" transform="translate(-65.3175 -36.98902)"/><path class="cls-16" d="M221.1037,294.8883c-3.8285-22.6692-4.8487-25.1443-9.7763-47.5974-4.8483-22.0922-4.3494-15.2061-4.3972-37.824-.025-11.7766,1.3867-24.1592-3.6377-34.8101-.0312-.0662-.0688-.1294-.1006-.1953a22.195,22.195,0,0,0-1.7443-3.0481c-2.6107-3.2968-6.8203-4.5607-12.6259-4.8622l-18.0578-.2623-14.1916-.2061-12.0674,3.8965-18.6251,6.0139c-5.1215,1.8677-8.6566,4.1301-10.3388,7.6341a24.235,24.235,0,0,0-.7209,2.5973c-.1543.712-.2695,1.4281-.3711,2.1454-.8293,5.8576-.0091,11.8734.9026,17.7441,2.4781,15.9578,8.6379,27.6106,12.2411,43.3481a126.16268,126.16268,0,0,1,2.679,13.8372,188.66154,188.66154,0,0,1,.8681,20.945c-.5117,23.6714-.7307,27.1032-.3757,30.1775,9.0741-.1662,11.1826.4549,20.2324-.2282a478.65274,478.65274,0,0,0,53.7446-7.1248c6.5571-1.2523,11.2519-2.3769,17.7506-3.9033Q221.80065,299.02665,221.1037,294.8883Z" transform="translate(-65.3175 -36.98902)"/><path class="cls-17" d="M221.1037,294.8883c-3.8285-22.6692-4.8487-25.1443-9.7763-47.5974-4.8483-22.0922-4.3494-15.2061-4.3972-37.824-.025-11.7766,1.3867-24.1592-3.6377-34.8101-.0312-.0662-.0688-.1294-.1006-.1953a22.195,22.195,0,0,0-1.7443-3.0481c-2.6107-3.2968-6.8203-4.5607-12.6259-4.8622l-18.0578-.2623-14.1916-.2061-12.0674,3.8965-18.6251,6.0139c-5.1215,1.8677-8.6566,4.1301-10.3388,7.6341a24.235,24.235,0,0,0-.7209,2.5973c-.1543.712-.2695,1.4281-.3711,2.1454-.8293,5.8576-.0091,11.8734.9026,17.7441,2.4781,15.9578,8.6379,27.6106,12.2411,43.3481a126.16268,126.16268,0,0,1,2.679,13.8372,188.66154,188.66154,0,0,1,.8681,20.945c-.5117,23.6714-.7307,27.1032-.3757,30.1775,9.0741-.1662,11.1826.4549,20.2324-.2282a478.65274,478.65274,0,0,0,53.7446-7.1248c6.5571-1.2523,11.2519-2.3769,17.7506-3.9033Q221.80065,299.02665,221.1037,294.8883Z" transform="translate(-65.3175 -36.98902)"/><path class="cls-18" d="M201.8908,446.9891a161.48552,161.48552,0,0,1,.5308-23.1776" transform="translate(-65.3175 -36.98902)"/><path class="cls-18" d="M171.7225,451.7907a7.61038,7.61038,0,0,0-.6596-3.3476q-2.811-7.7982-5.622-15.5962" transform="translate(-65.3175 -36.98902)"/><path class="cls-19" d="M194.9569,235.7059s18.4852,29.508,22.0495,53.2678c4.1711,27.8051-40.8356,6.1258-40.8356,6.1258l-8.3002-55.3304Z" transform="translate(-65.3175 -36.98902)"/><path class="cls-19" d="M140.393,242.8541s-9.0133,33.6331-5.4491,57.3929c4.1711,27.8051,48.6605-5.3659,48.6605-5.3659l-16.1251-56.0903Z" transform="translate(-65.3175 -36.98902)"/><polygon class="cls-19" points="150.34 245.245 157.332 304.633 157.585 307.934 149.518 403.531 127.462 402.782 124.905 307.125 125.159 310.425 111.002 252.327 150.34 245.245"/><path class="cls-11" d="M209.1592,443.032s13.8454,4.1199,22.1171,7.5331c.837.3454,1.8361,1.215,1.3021,1.9462a1.53835,1.53835,0,0,1-1.1218.4578q-13.4175,1.5303-26.835,3.0605a8.06873,8.06873,0,0,0-3.9278-5.4852q-.6585,2.35395-1.3169,4.7078a2.13423,2.13423,0,0,1-.8787,1.2709l-4.917.4558s-.9202-3.4564-.6056-5.1447a44.37712,44.37712,0,0,0,1.0263-5.043c.0473-.6972.0647-1.5059.62-1.9299a2.16932,2.16932,0,0,1,1.2809-.3096c3.9663-.108,13.2564-1.5197,13.2564-1.5197" transform="translate(-65.3175 -36.98902)"/><path class="cls-11" d="M163.6285,449.8621s-12.0271,8.0011-18.9333,13.6912c-.6988.5757-1.3988,1.7002-.6737,2.2426a1.53837,1.53837,0,0,0,1.2067.1084q13.27605-2.474,26.5519-4.9481a8.06908,8.06908,0,0,1,2.1455-6.3963l2.6403,4.1142a2.13437,2.13437,0,0,0,1.2129.9572l4.8343-1.0071s-.1345-3.5742-.9306-5.0959a44.37782,44.37782,0,0,1-2.4608-4.5199c-.2499-.6526-.5037-1.4207-1.1591-1.663a2.16848,2.16848,0,0,0-1.3153.0798c-3.8234,1.0606-13.1188,2.4369-13.1188,2.4369" transform="translate(-65.3175 -36.98902)"/><path class="cls-19" d="M188.2261,308.4538l-6.7422-10.6878-3.2294-6.9505-6.6779,2.8605-.4731,7.7793s-7.7123,11.2707-8.2202,10.8002c-.508-.4705-8.5163-8.3442-8.6157-9.532s-.6715-6.4596,1.7397-9.336c2.4113-2.8765,10.7466-7.0791,11.7678-7.5603s8.233-1.2402,10.781-1.0185c2.5481.2217,7.8305,1.1787,9.5575,3.2158,1.727,2.037,3.5502,2.5289,4.6997,7.2766C193.9629,300.0489,188.2261,308.4538,188.2261,308.4538Z" transform="translate(-65.3175 -36.98902)"/><polygon class="cls-19" points="108.824 252.956 102.963 314.801 102.756 311.556 113.45 406.648 91.71 410.439 70.501 316.876 70.294 313.63 68.878 251.523 108.824 252.956"/><path class="cls-20" d="M203.8299,251.4571l.782-66.8231c.199-13.7828-5.1242-17.5288-15.7902-18.0828l-32.2494-.4684,13.5653,90.4285Z" transform="translate(-65.3175 -36.98902)"/><path class="cls-20" d="M136.4453,261.5655l-20.3548-63.6523c-4.2344-13.1177-.2447-18.2607,9.7893-21.92l30.6925-9.9104,9.2278,40.9505,4.3375,49.478Z" transform="translate(-65.3175 -36.98902)"/><path class="cls-16" d="M192.1837,166.9862a38.371,38.371,0,0,0,9.4629-.7852,101.69817,101.69817,0,0,0,10.8916-2.7406c3.6914-1.1274,7.4058-2.4251,11.0988-3.837q2.7699-1.0584,5.5169-2.2019l2.7275-1.1579,2.6026-1.1535-5.201,9.4092c-.1342-5.2692-.3543-10.6993-.6103-16.0548q-.3897-8.0592-.9335-16.1072c-.7322-10.725-1.6825-21.4231-3.0433-31.9942l13.5243-2.4282c2.4265,10.8184,4.4076,21.6519,6.1678,32.5029q1.31265,8.13885,2.4708,16.2948c.7701,5.4561,1.4937,10.8458,2.154,16.4079a9.1681,9.1681,0,0,1-4.531,9.0277l-.6701.3819-2.9431,1.6892-2.8691,1.583q-2.87445,1.559-5.7935,3.0338c-3.8972,1.9685-7.8701,3.837-11.9796,5.5719a124.93178,124.93178,0,0,1-12.8906,4.6875c-2.2631.6805-4.6232,1.2796-7.1148,1.7709a52.182,52.182,0,0,1-8.0373.9874Z" transform="translate(-65.3175 -36.98902)"/><line class="cls-21" x1="71.9432" y1="228.62198" x2="138.0131" y2="218.71068"/><path class="cls-16" d="M195.9811,296.3023c-4.1682-30.8355-5.8623-36.8434-13.5898-67.0898-7.383-28.8976-5.9473-33.6717-11.6274-62.9236l18.0578.2623c5.8056.3015,10.0152,1.5654,12.6259,4.8622a22.195,22.195,0,0,1,1.7443,3.0481c.0318.0659.0694.1291.1006.1953,5.0244,10.6509,3.6127,23.0335,3.6377,34.8101.0478,22.6179-.4511,15.7318,4.3972,37.824,4.9276,22.4531,5.9478,24.9282,9.7763,47.5974q.69885,4.13775,1.388,8.2773c-6.4987,1.5264-18.5235,3.7506-25.0806,5.0029Q196.7754,302.2219,195.9811,296.3023Zm-51.4762-126.323-18.6251,6.0139c-5.1215,1.8677-8.758,4.0994-10.4402,7.6035a11.01326,11.01326,0,0,0-.7917,2.4583c-.1543.712-.2109,1.491-.3125,2.2083-.8293,5.8576.1045,11.9801,1.0162,17.8508,2.4781,15.9578,8.6379,27.6106,12.2411,43.3481a126.16268,126.16268,0,0,1,2.679,13.8372,188.66154,188.66154,0,0,1,.8681,20.945c-.5117,23.6714-.7307,27.1032-.3757,30.1775,9.0741-.1662,14.8476-.0949,23.8974-.778q.6477-6.784,1.0624-13.5811c1.8676-30.4137,1.1029-31.5254-2.0319-62.095C150.6567,208.371,149.159,199.3469,144.5049,169.9793Z" transform="translate(-65.3175 -36.98902)"/><path class="cls-12" d="M158.8035,175.9598a18.79758,18.79758,0,0,1,4.7349,1.2505,7.10648,7.10648,0,0,1,2.4374,1.5952,1.52516,1.52516,0,0,1,.2143,1.9286,13.22584,13.22584,0,0,0-1.1051,2.1264,26.84178,26.84178,0,0,1-1.6236,4.1651,37.999,37.999,0,0,1-2.3567,4.275l-1.466.22a37.984,37.984,0,0,1-3.5073-3.3954,26.853,26.853,0,0,1-2.7743-3.5054,13.21032,13.21032,0,0,0-1.6804-1.7087,1.52513,1.52513,0,0,1-.3608-1.9066,7.10151,7.10151,0,0,1,1.862-2.24,18.79513,18.79513,0,0,1,4.1596-2.5847Z" transform="translate(-65.3175 -36.98902)"/><path class="cls-12" d="M159.8735,184.3417c1.5962,4.7182,2.9797,9.4682,4.381,14.2156l1.998,7.1366,1.8331,7.1614c.5822,2.3915,1.4205,4.7446,2.1355,7.1161a26.23863,26.23863,0,0,1,1.146,7.2645,43.37291,43.37291,0,0,1-.5213,7.5145,30.16786,30.16786,0,0,1-2.2444,7.7731l-1.0995.1649a30.16435,30.16435,0,0,1-4.4265-6.7723,43.392,43.392,0,0,1-2.7033-7.0309,26.24587,26.24587,0,0,1-1.036-7.2809c-.0122-2.477.0988-4.9724-.0465-7.4294l-.3487-7.3841-.184-7.4088c-.0535-4.9496-.1245-9.8965.0171-14.8753Z" transform="translate(-65.3175 -36.98902)"/><line class="cls-22" x1="91.9821" y1="120.78058" x2="91.8522" y2="133.07598"/><line class="cls-23" x1="91.9821" y1="120.78058" x2="91.8522" y2="133.07598"/><path class="cls-24" d="M168.4017,163.8292l-22.3297-.236a14.87733,14.87733,0,0,1-14.7194-15.0338l.3061-28.9623A23.96365,23.96365,0,0,1,155.8742,95.888l4.1583.044a23.96365,23.96365,0,0,1,23.7091,24.2155l-.3061,28.9623A14.87746,14.87746,0,0,1,168.4017,163.8292Z" transform="translate(-65.3175 -36.98902)"/><path class="cls-24" d="M121.0437,143.2071a8.07128,8.07128,0,0,0,3.1654,1.8815,13.2926,13.2926,0,0,0,4.4838.7313,10.51739,10.51739,0,0,0,3.3057-.3914,7.9562,7.9562,0,0,0,2.7684-.9944,4.25956,4.25956,0,0,0,1.7886-1.5745,2.52809,2.52809,0,0,0,.7581-1.8994l-.2922-1.3193a5.28176,5.28176,0,0,0-2.1805-2.2077q-.863-.39615-1.726-.7923a13.605,13.605,0,0,0-4.3175-.7216l-.1143.0058q2.1588.36075,4.3176.7216l-.1038-.0312q1.5276.90435,3.0552,1.8085l-.0584-.0576a5.68116,5.68116,0,0,0-2.1922-1.4122,8.74151,8.74151,0,0,0-2.9046-.9169,11.0828,11.0828,0,0,0-3.4158-.1245,9.92031,9.92031,0,0,0-3.192.5538c-1.8367.6621-3.458,1.6598-3.969,2.9168a3.31335,3.31335,0,0,0,.8235,3.8237Z" transform="translate(-65.3175 -36.98902)"/><path class="cls-25" d="M124.6931,140.474a.98787.98787,0,0,1,.0321-.1422c-.0291.0882-.024.0289.0169-.0116-.0748.0741.1422-.1398.1498-.1456a2.27514,2.27514,0,0,1,.6528-.3131,5.879,5.879,0,0,1,1.8435-.2287,5.06493,5.06493,0,0,1,1.5164.2315,2.04565,2.04565,0,0,1,.5483.2496c.0591.0335.0744.0597.0118.0039.0164.0146.1516.1479.0758.0617-.0632-.0719.0153.0235.0263.0458.0487.0994-.0551-.1834-.0081-.0007q.50085-.5007,1.0015-1.0015c-1.479-.2384-3.8161.2931-3.8407,2.1607-.0237,1.7949,2.0363,2.3446,3.4538,2.4999a.81914.81914,0,0,0,.8141-.8141.83294.83294,0,0,0-.8141-.8141,5.28024,5.28024,0,0,1-1.048-.2211c-.0728-.0238-.1448-.0493-.216-.0774q-.08385-.03315.0308.0128-.0459-.02085-.0907-.0437c-.1077-.0601-.2111-.119-.3138-.1875-.0593-.0396.115.1242-.0024-.0072a1.4703,1.4703,0,0,0-.1209-.1224c-.1046-.0915.0723.1508.0168.0208a.462.462,0,0,0-.065-.1097c-.0864-.0919.0416.1754.0176.0469a.68231.68231,0,0,0-.0328-.1105c-.0607-.1573.0746.0586.0041.0703-.0005.0001-.0058-.1031-.0056-.1076.0075-.2313-.0572.1498-.0044-.0242a.7886.7886,0,0,0,.0565-.1892c.0462.0957-.107.1892-.0301.08a.60365.60365,0,0,0,.045-.0785c.0568-.1217-.1549.1204-.0077.0098a2.27929,2.27929,0,0,1,.5848-.3097,2.49727,2.49727,0,0,1,1.1359-.1141.82561.82561,0,0,0,1.0015-1.0015c-.3782-1.469-2.4882-1.7686-3.7407-1.7872a6.81374,6.81374,0,0,0-2.5827.3958,2.46145,2.46145,0,0,0-1.6826,1.6408.83778.83778,0,0,0,.5687,1.0015.82115.82115,0,0,0,1.0015-.5687Z" transform="translate(-65.3175 -36.98902)"/><path class="cls-24" d="M177.8732,141.3414l-.0046.0824a2.52849,2.52849,0,0,0,.7178,1.9151,4.25837,4.25837,0,0,0,1.7549,1.6119,7.95752,7.95752,0,0,0,2.7467,1.0527,10.51658,10.51658,0,0,0,3.2968.4612l2.2797-.1527a11.10745,11.10745,0,0,0,3.7944-1.2332q.6753-.4938,1.3504-.9877a3.51656,3.51656,0,0,0,1.1963-2.4861l.0046-.0825a2.52827,2.52827,0,0,0-.7178-1.915,4.25837,4.25837,0,0,0-1.7549-1.6119,7.95353,7.95353,0,0,0-2.7467-1.0527,10.51656,10.51656,0,0,0-3.2968-.4613q-1.13985.07635-2.2797.1528a11.108,11.108,0,0,0-3.7945,1.2331q-.67515.49395-1.3504.9877a3.51681,3.51681,0,0,0-1.1962,2.4862Z" transform="translate(-65.3175 -36.98902)"/><path class="cls-25" d="M191.4957,140.9633c-.1252-1.9098-2.6085-2.3704-4.1244-2.427-1.3362-.05-3.3234.1853-3.8646,1.6326a.8175.8175,0,0,0,.7851,1.0305,2.76441,2.76441,0,0,1,1.1954.1156,2.03684,2.03684,0,0,1,.6483.3871c.0871.0645-.0939-.1824-.0641-.0805a.2419.2419,0,0,0,.0429.0725c.1306.1008-.0869-.0809-.0325-.0868a.51044.51044,0,0,1,.0305.0881.52156.52156,0,0,0,.0236.0934c.0587.1098-.0012-.2075-.0095-.0848a.82891.82891,0,0,0,.0045.103c.0076.1208-.049.0769.0049.0336.0371-.0298.0265-.0926-.0085.0184a.49719.49719,0,0,0-.0329.1097c-.0015.0506.1078-.1788.0186-.0481a.99549.99549,0,0,0-.0635.109c-.0721.1436.069-.0534.0198-.0221a.7142.7142,0,0,0-.0989.104c-.0184.019-.1581.1341-.0547.0533.1048-.0818-.0541.0335-.0771.0479-.0512.0322-.1038.0619-.1574.09-.0199.0104-.2074.0963-.1118.0561.094-.0396-.1135.0393-.1378.0474-.0744.0249-.1496.047-.2254.0674a4.80754,4.80754,0,0,1-1.0848.159.83225.83225,0,0,0-.8141.8141.82146.82146,0,0,0,.8141.8141c1.4534-.0838,3.4943-.5512,3.6307-2.33.1347-1.7543-2.0304-2.5128-3.4603-2.3596l.7851,1.0305c-.0225.0602-.0267.1207-.0044.0308-.0139.0559-.0878.0826-.0078.015.0348-.0294.065-.0637.1009-.0921-.069.0544-.0419.0282.0152.0009.0467-.0223.0914-.052.1373-.0765.2191-.1171-.0636.0182.0752-.0366a3.435,3.435,0,0,1,.3458-.1124,5.05644,5.05644,0,0,1,1.5315-.1694,6.01511,6.01511,0,0,1,1.7061.2658,2.27781,2.27781,0,0,1,.682.3308c.0502.0386.1768.1724.1873.1835-.0497-.0524.0705.1185.0212.0358-.0316-.0532.0112.1525.0003-.014a.83308.83308,0,0,0,.8141.8141.82106.82106,0,0,0,.8141-.8141Z" transform="translate(-65.3175 -36.98902)"/><path class="cls-25" d="M171.9128,112.2147c.0261-.0011-.0862-.0013.0537-.003-2.3557-.3287-4.937-.4202-7.1537-1.3489-.5402-.2226-.9207-.5146-.925-.6771-.0049-.0191.0103-.0363.013-.0489a.4991.4991,0,0,1,.172.0745c.0034-.0328-.1481-.1728-.1835-.2125-.123-.1079.1511.1293.1225.1027a6.216,6.216,0,0,1-.7938-3.3805,1.51366,1.51366,0,0,1,.0523-.2099c.0241-.0483.0408-.1447.0798-.0074.0162.018.0182.1374.0314.0742q.0351-.20265.0694-.4054c.0124-.2306-.0132.2933-.0089.2339,1.0942-3.8765,1.4907-8.0436-.3761-11.7295-2.919-5.7633-8.4841-7.7015-14.5206-7.6111a8.63077,8.63077,0,1,0,3.0198,16.7923c.0368.7157.0024,1.4416.0474,1.9941a14.80887,14.80887,0,0,0,1.1522,4.8075c1.6835,3.8675,4.8384,7.441,9.1376,8.2246,4.01.7309,8.5642-.3168,12.5452-1.1958a46.37017,46.37017,0,0,0,16.4912-7.5271A42.53939,42.53939,0,0,1,171.9128,112.2147Z" transform="translate(-65.3175 -36.98902)"/><path class="cls-25" d="M159.4408,87.181c3.7336-.1421,7.0283.3082,10.1624,2.5637a13.80439,13.80439,0,0,1,5.1463,7.067,14.28029,14.28029,0,0,1,.397,6.0647c-.2501,1.8171-1.8471,4.8123-1.51,6.583l.1993.2281c.0516.0608.0037.0276.0085.0509l-.0266.0423c-.2263,2.2679,10.5734,3.277,11.9158,3.417a30.94958,30.94958,0,0,0,12.0548-.7998c-6.2626,4.4838-15.8688,6.8166-23.5157,6.3173a12.08414,12.08414,0,0,1-8.7942-4.1188,13.18625,13.18625,0,0,1-2.6394-6.0866c-.354-1.9662-.0654-4.1988-.7097-6.0954-.1152-.3649-.2569-.5573-.3756-.6008-.0255-.0205-.0624-.0062-.084-.0103a.71163.71163,0,0,0,.008.2633q-.11805-.1917-.2349-.3841a3.57156,3.57156,0,0,1,.1268,1.2762.67929.67929,0,0,0,.3611.5538,1.67125,1.67125,0,0,0,1.2386.2046c-.2662.111-.5216.1969-.5014.1922C151.8891,105.9886,148.6553,89.2616,159.4408,87.181Z" transform="translate(-65.3175 -36.98902)"/><path class="cls-25" d="M169.4968,91.8536c3.3329-.0176,6.1212.0807,9.1142,1.8746a13.70459,13.70459,0,0,1,6.4435,8.6754c.9211,4.3143-1.102,7.6049-1.3685,11.6736-.3655-.3119-.0951-.0792-.1739-.1456.0545.0578.3909.4165.3648.4515a.14923.14923,0,0,0-.0395.0204c-.0627.0071.031.0854.0692.1426,1.5967,1.957,5.6437,2.4795,8.0299,2.4441,2.9906-.0444,5.9487-1.3063,8.7135-2.3368-2.6976,3.0058-5.5195,6.1892-9.4042,7.6299a16.33363,16.33363,0,0,1-12.4817-.3893,10.24674,10.24674,0,0,1-4.1031-3.843,15.39836,15.39836,0,0,1-1.9976-6.5904c-.1365-1.3384.2648-4.0125-.7555-4.9073a.20591.20591,0,0,0-.1646-.0775c-.0112.0067-.026-.0147-.0304.0152a1.08,1.08,0,0,0,.0184.2454l-.2378-.3902a7.94841,7.94841,0,0,1,.1469,1.406.82786.82786,0,0,0,.4513.4995,1.82472,1.82472,0,0,0,1.1455.1363,2.98225,2.98225,0,0,0-.5132.1938,8.63469,8.63469,0,1,1-3.2272-16.7282Z" transform="translate(-65.3175 -36.98902)"/><path class="cls-25" d="M131.57,145.8884l.4585,2.3301c.0602.3977.1531.7515.2317,1.1167a7.25968,7.25968,0,0,0,.2852,1.0654,13.55577,13.55577,0,0,0,1.801,3.8365,12.45719,12.45719,0,0,0,2.6615,3.0295,14.57574,14.57574,0,0,0,3.2689,2.0847,16.14684,16.14684,0,0,0,3.6161,1.0018l.922.0945c.3082.0155.619-.0004.9259.0055.2745.0091.6746-.0073,1.067-.0235l1.1631-.0442c3.1011-.0725,6.2012-.0498,9.3019-.0794,3.0993.0851,6.1991.1422,9.2982.2673l1.1619.0692c.3919.0246.7916.0495,1.066.0464.3066.0006.6169.0233.9253.0144l.9231-.0746a16.32477,16.32477,0,0,0,3.6333-.9265,14.389,14.389,0,0,0,3.3096-2.0135,12.37161,12.37161,0,0,0,2.7244-2.9695,13.5083,13.5083,0,0,0,1.8842-3.7945,7.27352,7.27352,0,0,0,.309-1.0588c.0864-.3632.1878-.715.2558-1.1113l.5108-2.3198.3786.004a38.04505,38.04505,0,0,1-.1728,4.6695,14.35656,14.35656,0,0,1-1.3651,4.4957,15.2519,15.2519,0,0,1-6.4292,6.7315,16.055,16.055,0,0,1-4.4589,1.559,24.02346,24.02346,0,0,1-4.6937.2467l-9.3006-.052-9.2994-.1455a24.01347,24.01347,0,0,1-4.6873-.3457,16.05054,16.05054,0,0,1-4.4248-1.6527,15.25183,15.25183,0,0,1-6.2856-6.8653,14.35433,14.35433,0,0,1-1.2699-4.5235,38.02617,38.02617,0,0,1-.0743-4.6721Z" transform="translate(-65.3175 -36.98902)"/><path class="cls-24" d="M149.0471,156.1934c-.0944,8.938,16.5752,9.4294,16.665.9281" transform="translate(-65.3175 -36.98902)"/><path class="cls-25" d="M149.2324,156.1954a6.14081,6.14081,0,0,0,2.5389,4.8525,11.01745,11.01745,0,0,0,10.8843.6469,5.44263,5.44263,0,0,0,2.8712-4.5753l.3706.004a4.65424,4.65424,0,0,1,.5136,3.7171,6.88666,6.88666,0,0,1-2.2476,3.4139,10.74145,10.74145,0,0,1-14.1816-.8465,7.07049,7.07049,0,0,1-1.8319-3.5805,5.03839,5.03839,0,0,1,.7119-3.6361Z" transform="translate(-65.3175 -36.98902)"/><path class="cls-25" d="M159.5773,133.6502a40.48827,40.48827,0,0,1,.7304,5.8249,25.16405,25.16405,0,0,1-.1889,5.7216,9.051,9.051,0,0,1-.7967,2.5254c-.13.2532-.3042.7091-.5761.8375-.119.0562-.1827.0398-.1489.0594-.0932-.0541-.1232-.5086-.145-.6048a19.23394,19.23394,0,0,0-1.9851-5.1195,1.08577,1.08577,0,0,0-1.8498,0,1.31908,1.31908,0,0,1-.7442.5559c-.1463.0258-.3064.0257-.2038-.0632,1.0437-.9044-.477-2.4141-1.5148-1.5148a2.12254,2.12254,0,0,0,.5696,3.4795c1.4715.6974,2.8749-.2079,3.743-1.3762h-1.8498a16.77048,16.77048,0,0,1,1.4064,3.2412c.3021.977.3432,2.3019,1.1367,3.0407a2.2459,2.2459,0,0,0,2.7846.0793,5.48907,5.48907,0,0,0,1.7289-2.6833,18.66622,18.66622,0,0,0,.8205-6.9469,44.01075,44.01075,0,0,0-.8512-7.6261c-.268-1.3511-2.3333-.7792-2.0658.5694Z" transform="translate(-65.3175 -36.98902)"/><path class="cls-25" d="M159.5398,155.6093c.1045-.0502-.0389.018-.0717.0287a3.10771,3.10771,0,0,1-.3071.0804c-.1994.0428.1405-.0061-.0641.0099q-.16035.0126-.3214.0106a3.1324,3.1324,0,0,1-.9149-.131,9.45592,9.45592,0,0,1-1.0128-.3126c-.0711-.0262-.1416-.054-.2123-.0812-.1173-.0451.1065.0522-.0848-.0351-.1555-.0708-.3098-.1435-.4617-.2221a8.04687,8.04687,0,0,1-.828-.4913c-.0776-.0528-.1538-.1074-.2294-.1629-.1534-.1126.1195.1002-.026-.0212-.1284-.1072-.255-.216-.3758-.3318q-.17985-.17235-.345-.3593-.0729-.0828-.1426-.1684c-.1185-.1451.0905.1307-.0156-.0235-.0941-.1366-.186-.2734-.2689-.4171-.0462-.0801-.0896-.1616-.1311-.2441-.0175-.035-.1211-.2632-.0419-.0732a1.21556,1.21556,0,0,0-1.4553-.8263,1.19454,1.19454,0,0,0-.8263,1.4553,7.366,7.366,0,0,0,3.5931,3.7586c1.7487.8753,3.882,1.4919,5.7378.6008a1.19394,1.19394,0,0,0,.4245-1.6187,1.20859,1.20859,0,0,0-1.6187-.4245Z" transform="translate(-65.3175 -36.98902)"/><path class="cls-25" d="M172.9966,127.1566a47.16327,47.16327,0,0,1-6.8369-.0122q.31455,2.324.629,4.6479l.2159-.0538a2.38987,2.38987,0,0,0,1.6527-2.9107,2.41412,2.41412,0,0,0-2.9107-1.6527l-.2159.0538a2.36231,2.36231,0,0,0-1.6949,2.5962,2.38894,2.38894,0,0,0,2.3239,2.0517,47.16327,47.16327,0,0,0,6.8369.0122,2.51723,2.51723,0,0,0,1.6732-.693,2.36626,2.36626,0,0,0-1.6732-4.0394Z" transform="translate(-65.3175 -36.98902)"/><path class="cls-25" d="M149.9698,126.7553q-.2676.04155-.5358.0782.31455-.0423.629-.0845a23.59556,23.59556,0,0,1-6.0736.0074q.31455.0423.6291.0845-.2013-.027-.4022-.0565a2.59724,2.59724,0,0,0-1.8233.2386,2.366,2.366,0,0,0-.8488,3.2374,2.27775,2.27775,0,0,0,1.4141,1.0874,24.46391,24.46391,0,0,0,8.2695-.0291,2.367,2.367,0,0,0,1.4141-1.0874,2.366,2.366,0,0,0-.8488-3.2374,2.73769,2.73769,0,0,0-1.8233-.2386Z" transform="translate(-65.3175 -36.98902)"/><path class="cls-26" d="M171.4926,139.7631c3.3832-.598,6.4057.233,6.7511,1.8561.3455,1.6231-2.117,3.4238-5.5002,4.0218-3.3831.5981-6.4057-.2329-6.7512-1.856C165.6469,142.1617,168.1095,140.3612,171.4926,139.7631Z" transform="translate(-65.3175 -36.98902)"/><path class="cls-26" d="M136.7015,141.1802c.3797-1.6155,3.4191-2.3824,6.7889-1.713,3.3697.6694,5.7936,2.5216,5.414,4.1372-.3796,1.6155-3.4192,2.3824-6.7889,1.713C138.7458,144.6479,136.3218,142.7957,136.7015,141.1802Z" transform="translate(-65.3175 -36.98902)"/><path class="cls-25" d="M170.6546,141.2787c1.2247.013,2.2317-1.3163,2.2491-2.9689.0175-1.6526-.9612-3.0027-2.1859-3.0157-1.2247-.0129-2.2317,1.3163-2.2491,2.9689C168.4512,139.9156,169.4299,141.2658,170.6546,141.2787Z" transform="translate(-65.3175 -36.98902)"/><path class="cls-25" d="M144.2962,141.0001c-1.2248-.0129-2.2034-1.3631-2.186-3.0157.0175-1.6526,1.0245-2.9818,2.2492-2.9689,1.2247.013,2.2034,1.3632,2.1859,3.0158C146.5279,139.6839,145.5209,141.0131,144.2962,141.0001Z" transform="translate(-65.3175 -36.98902)"/><path class="cls-20" d="M150.1791,165.8988a17.81833,17.81833,0,0,0-6.058,4.2048c.8354,6.2398,3.543,15.0547,9.6572,17.6508.8716-2.0862,3.3703-8.9075,4.7691-11.021C151.9665,175.4166,150.3944,169.4925,150.1791,165.8988Z" transform="translate(-65.3175 -36.98902)"/><path class="cls-20" d="M164.2417,164.336a10.7586,10.7586,0,0,1,5.4036,1.9387c1.0322,6.2102,1.0304,15.4316-4.053,19.7075-1.4454-1.7386-5.8356-7.5266-7.793-9.1365C163.7042,173.6558,164.1902,167.2315,164.2417,164.336Z" transform="translate(-65.3175 -36.98902)"/><path class="cls-11" d="M153.8397,187.9847a49.68215,49.68215,0,0,0,2.5095-5.6643c.7566-1.8047,1.9855-3.7719,2.0766-5.7407a.09472.09472,0,0,0-.1601-.0663c-1.2017,1.3003-1.6549,3.1769-2.3297,4.7949a56.05671,56.05671,0,0,0-2.5675,6.4778.259.259,0,0,0,.4712.1986Z" transform="translate(-65.3175 -36.98902)"/><path class="cls-11" d="M158.1402,176.6205c.3379,1.8013,1.8831,3.5156,2.9628,4.9572a40.06293,40.06293,0,0,0,3.8503,4.4217c.4049.4017,1.0046-.2057.6232-.6232-1.4105-1.5435-2.7815-3.1163-4.0465-4.7828-1.0105-1.3311-1.814-3.0891-3.1156-4.1325a.16559.16559,0,0,0-.2742.1596Z" transform="translate(-65.3175 -36.98902)"/><path class="cls-11" d="M165.5301,186.343c3.4078-2.5401,5.9023-8.7876,4.7197-12.9435a.11813.11813,0,0,0-.226,0c-.4325,2.1461-.4451,4.3074-1.1941,6.3967-.8493,2.3691-2.3118,4.117-3.6588,6.1876-.137.2106.1458.5182.3592.3592Z" transform="translate(-65.3175 -36.98902)"/><path class="cls-11" d="M153.5787,187.7776c-1.1439-1.4248-2.8549-2.3485-4.0426-3.7951a47.52728,47.52728,0,0,1-3.0793-5.1188.12284.12284,0,0,0-.2271.0615,10.05735,10.05735,0,0,0,2.4994,5.4127c1.1121,1.4075,2.8688,3.337,4.7219,3.6591a.13252.13252,0,0,0,.1277-.2194Z" transform="translate(-65.3175 -36.98902)"/><path class="cls-16" d="M128.8604,187.3615q6.6357,3.9585,13.2715,7.917a93.86925,93.86925,0,0,1-7.7608,13.4947,375.72052,375.72052,0,0,1,20.35,38.1159c-1.9439-22.8371-2.928-28.0668-5.7543-50.6838-.399-3.1936-3.5305-23.5573-4.0989-26.724Q136.86405,178.42145,128.8604,187.3615Z" transform="translate(-65.3175 -36.98902)"/><path class="cls-16" d="M191.6691,177.962q-5.0529,5.8455-10.106,11.6911A93.872,93.872,0,0,0,193.1762,200.02a375.71615,375.71615,0,0,0-7.3216,42.5833c-5.9563-21.6829-6.1687-24.8607-10.6033-47.2181-.6262-3.157-3.9461-26.1731-4.4031-29.3577Q181.2588,171.99465,191.6691,177.962Z" transform="translate(-65.3175 -36.98902)"/><path class="cls-16" d="M138.2551,176.1702c-1.8736,1.6085-3.6699,3.2949-5.4767,4.9775-.9559.8902-3.217,2.3293-3.6667,3.6135-.4783,1.3657-.3809,1.4266.1924,2.7016,1.1368,2.5284,4.8902,4.0867,7.1557,5.2266,2.2937,1.1541,5.2425,1.6889,4.8967,5.1222-.1569,1.5574-2.2266,3.9251-3.0967,5.2188-1.379,2.0507-4.1894,4.4748-4.2439,7.1936-.0522,2.5992,2.3995,6.0347,3.4636,8.2591a117.86884,117.86884,0,0,0,12.7724,21.3815c.1421.184.4288-.0514.3165-.2442-3.5747-6.1395-7.3037-12.1909-10.5486-18.5154-2.1352-4.1617-5.3678-9.0676-3.4838-13.9328,1.0699-2.7628,4.0088-5.3133,5.3954-8.0204,1.7905-3.4955.5099-4.6842-2.8876-6.4047-2.9171-1.4773-8.164-2.9319-8.2365-6.6327-.0676-3.45,5.4979-7.0028,7.9184-9.4736.3036-.3098-.1489-.7469-.4706-.4706Z" transform="translate(-65.3175 -36.98902)"/><g class="cls-27"><path class="cls-16" d="M138.2551,176.1702c-1.8736,1.6085-3.6699,3.2949-5.4767,4.9775-.9559.8902-3.217,2.3293-3.6667,3.6135-.4783,1.3657-.3809,1.4266.1924,2.7016,1.1368,2.5284,4.8902,4.0867,7.1557,5.2266,2.2937,1.1541,5.2425,1.6889,4.8967,5.1222-.1569,1.5574-2.2266,3.9251-3.0967,5.2188-1.379,2.0507-4.1894,4.4748-4.2439,7.1936-.0522,2.5992,2.3995,6.0347,3.4636,8.2591a117.86884,117.86884,0,0,0,12.7724,21.3815c.1421.184.4288-.0514.3165-.2442-3.5747-6.1395-7.3037-12.1909-10.5486-18.5154-2.1352-4.1617-5.3678-9.0676-3.4838-13.9328,1.0699-2.7628,4.0088-5.3133,5.3954-8.0204,1.7905-3.4955.5099-4.6842-2.8876-6.4047-2.9171-1.4773-8.164-2.9319-8.2365-6.6327-.0676-3.45,5.4979-7.0028,7.9184-9.4736.3036-.3098-.1489-.7469-.4706-.4706Z" transform="translate(-65.3175 -36.98902)"/></g><path class="cls-16" d="M176.3497,169.1569c2.3074,1.8107,4.7319,3.4583,7.0771,5.2192,1.9593,1.4712,5.7181,3.2858,4.7224,6.4907-.3094.996-2.1837,2.1739-2.897,2.8641-1.6741,1.6199-5.6181,4.5089-4.3489,7.3855.5751,1.3035,2.8044,2.5315,3.8424,3.3072,1.2066.9018,2.4189,1.7964,3.6201,2.7055,2.9688,2.247,2.9321,4.4511,2.3994,7.8784-1.201,7.7262-3.5718,15.2421-4.7465,22.9861a.21114.21114,0,0,0,.4068.1122c1.3433-4.3771,2.3594-8.7823,3.3492-13.2502.8943-4.0365,2.6788-8.7586,2.7434-12.8715.0739-4.7048-4.5846-6.4617-7.9617-9.0163-7.2318-5.4706,5.1798-8.2489,5.2944-13.3809.0407-1.8239-1.9698-2.9759-3.1715-3.928a77.78,77.78,0,0,0-9.9944-6.9364c-.2624-.1477-.5904.2341-.3352.4344Z" transform="translate(-65.3175 -36.98902)"/><g class="cls-27"><path class="cls-16" d="M176.3497,169.1569c2.3074,1.8107,4.7319,3.4583,7.0771,5.2192,1.9593,1.4712,5.7181,3.2858,4.7224,6.4907-.3094.996-2.1837,2.1739-2.897,2.8641-1.6741,1.6199-5.6181,4.5089-4.3489,7.3855.5751,1.3035,2.8044,2.5315,3.8424,3.3072,1.2066.9018,2.4189,1.7964,3.6201,2.7055,2.9688,2.247,2.9321,4.4511,2.3994,7.8784-1.201,7.7262-3.5718,15.2421-4.7465,22.9861a.21114.21114,0,0,0,.4068.1122c1.3433-4.3771,2.3594-8.7823,3.3492-13.2502.8943-4.0365,2.6788-8.7586,2.7434-12.8715.0739-4.7048-4.5846-6.4617-7.9617-9.0163-7.2318-5.4706,5.1798-8.2489,5.2944-13.3809.0407-1.8239-1.9698-2.9759-3.1715-3.928a77.78,77.78,0,0,0-9.9944-6.9364c-.2624-.1477-.5904.2341-.3352.4344Z" transform="translate(-65.3175 -36.98902)"/></g><path class="cls-16" d="M117.4896,216.3713c1.2509,11.4216,6.625,22.186,9.5935,33.2135,3.4362,12.7649,2.7826,26.0785,4.1863,39.1349a.136.136,0,0,0,.2718,0c.0794-12.171.0573-24.9577-2.8096-36.8464-2.8927-11.9959-7.3586-23.7001-10.7724-35.5656-.0715-.2484-.4999-.2133-.4696.0636Z" transform="translate(-65.3175 -36.98902)"/><g class="cls-27"><path class="cls-16" d="M117.4896,216.3713c1.2509,11.4216,6.625,22.186,9.5935,33.2135,3.4362,12.7649,2.7826,26.0785,4.1863,39.1349a.136.136,0,0,0,.2718,0c.0794-12.171.0573-24.9577-2.8096-36.8464-2.8927-11.9959-7.3586-23.7001-10.7724-35.5656-.0715-.2484-.4999-.2133-.4696.0636Z" transform="translate(-65.3175 -36.98902)"/></g><path class="cls-16" d="M206.5315,183.7209c-.6706,10.0226-.2575,20.2931-.0242,30.3329a.08445.08445,0,0,0,.1688,0c.6505-9.9963,1.249-20.3313.521-30.3329a.333.333,0,0,0-.6656,0Z" transform="translate(-65.3175 -36.98902)"/><g class="cls-27"><path class="cls-16" d="M206.5315,183.7209c-.6706,10.0226-.2575,20.2931-.0242,30.3329a.08445.08445,0,0,0,.1688,0c.6505-9.9963,1.249-20.3313.521-30.3329a.333.333,0,0,0-.6656,0Z" transform="translate(-65.3175 -36.98902)"/></g><path class="cls-16" d="M206.8433,189.1753c10.2344-1.3421,21.1161-6.3914,29.3586-12.4729.1472-.1086.0204-.3449-.1466-.251a137.29745,137.29745,0,0,1-14.208,7.1437c-4.9234,2.0598-10.0839,3.325-15.0526,5.2211-.1749.0668-.1723.3881.0486.3591Z" transform="translate(-65.3175 -36.98902)"/><g class="cls-27"><path class="cls-16" d="M206.8433,189.1753c10.2344-1.3421,21.1161-6.3914,29.3586-12.4729.1472-.1086.0204-.3449-.1466-.251a137.29745,137.29745,0,0,1-14.208,7.1437c-4.9234,2.0598-10.0839,3.325-15.0526,5.2211-.1749.0668-.1723.3881.0486.3591Z" transform="translate(-65.3175 -36.98902)"/></g><path class="cls-16" d="M211.6063,163.8826a166.95685,166.95685,0,0,0,24.2143-7.1463.16421.16421,0,0,0-.0872-.3164,90.06188,90.06188,0,0,0-24.239,7.1971c-.1552.0719-.0418.3003.1119.2656Z" transform="translate(-65.3175 -36.98902)"/><g class="cls-27"><path class="cls-16" d="M211.6063,163.8826a166.95685,166.95685,0,0,0,24.2143-7.1463.16421.16421,0,0,0-.0872-.3164,90.06188,90.06188,0,0,0-24.239,7.1971c-.1552.0719-.0418.3003.1119.2656Z" transform="translate(-65.3175 -36.98902)"/></g></g><path class="cls-24" d="M231.9193,81.6795a24.57379,24.57379,0,0,1,7.9848-1.7258,1.69937,1.69937,0,0,1,.9026.1301,1.76065,1.76065,0,0,1,.6858,1.1242,130.83977,130.83977,0,0,1,3.5158,15.1733,2.80945,2.80945,0,0,1,.0011,1.3733,2.63276,2.63276,0,0,1-1.3241,1.293,16.61683,16.61683,0,0,1-8.1206,2.122,36.19746,36.19746,0,0,0,4.7901-5.3338q-4.1298.65775-8.2596,1.3156c-.5904.094-1.3367.118-1.6284-.4039a72.00664,72.00664,0,0,0,7.5838-5.7907,28.72852,28.72852,0,0,1-9.8607,1.6981c2.4974-2.1948,5.7979-2.9591,7.1876-5.9796a16.9617,16.9617,0,0,1-6.6197,1.3329.94754.94754,0,0,1-.7038-.1694c-.4299-.4172.1962-1.0694.7376-1.3259q3.13575-1.48605,6.2717-2.972a1.28615,1.28615,0,0,0-1.3025-.2581c-.4576.0971-3.0999.3856-3.2377-.0613-.2843-.9223.9306-1.4972,1.3962-1.542" transform="translate(-65.3175 -36.98902)"/><path class="cls-24" d="M232.0886,82.2933a25.75327,25.75327,0,0,1,4.1113-1.2375,22.77573,22.77573,0,0,1,2.3403-.3643c.7788-.0793,1.7633-.385,2.2561.4236a7.98878,7.98878,0,0,1,.5373,1.8382q.30585,1.08555.593,2.1763.57435,2.1813,1.0733,4.3815.4761,2.09985.8832,4.2145.213,1.1076.4069,2.2187c.1742.998.2928,1.7801-.651,2.3919a15.37047,15.37047,0,0,1-8.0743,2.1968q.22515.5433.4502,1.0867a38.94245,38.94245,0,0,0,4.8896-5.4626c.3708-.5004-.2402-1.0114-.7189-.9352q-2.37465.3783-4.7493.7565l-2.2713.3618c-.5925.0944-1.7913.5365-2.248-.0428q-.0645.4998-.1289.9997a76.33861,76.33861,0,0,0,7.7127-5.8902.64107.64107,0,0,0-.6194-1.064,29.154,29.154,0,0,1-9.6915,1.6754q.22515.5433.4502,1.0867c2.4418-2.0832,5.7891-3.0567,7.2871-6.1084.2192-.4467-.1551-1.1493-.7189-.9352a21.1411,21.1411,0,0,1-3.0995.9695,13.81535,13.81535,0,0,1-1.4588.227,5.33267,5.33267,0,0,1-1.7044.1074c-.2632-.104-.1241-.1061.1673-.3028a5.67,5.67,0,0,1,.7379-.3496q.9222-.4371,1.8446-.8741,1.84455-.8742,3.6892-1.7483a.64006.64006,0,0,0,.1289-.9997c-.8161-.7221-1.7141-.4147-2.6921-.3245a5.4792,5.4792,0,0,1-1.5661.0512c-.3527-.0803-.4393.128.0484-.1711a2.10667,2.10667,0,0,1,.7849-.3531c.8055-.1412.4641-1.3684-.3385-1.2277-1.0418.1827-2.9063,1.9389-1.4269,2.8233a3.84287,3.84287,0,0,0,2.0477.1857c.4754-.0299,1.8717-.4115,2.2423-.0836q.0645-.49995.1289-.9998-2.7669,1.3113-5.5339,2.6224c-.8448.4003-2.4928,1.2341-1.7653,2.4508.62,1.0368,2.7093.5346,3.6677.4147a19.16442,19.16442,0,0,0,4.4361-1.19l-.7188-.9351c-1.413,2.8786-4.7688,3.8721-7.0881,5.8508a.64282.64282,0,0,0,.4501,1.0867,30.23922,30.23922,0,0,0,10.03-1.7209q-.30975-.5319-.6194-1.0639a73.766,73.766,0,0,1-7.4549,5.6911.64992.64992,0,0,0-.1289.9998c.9222,1.1699,2.903.4632,4.1062.2716q3.20055-.50985,6.4012-1.0196-.35955-.46755-.7189-.9351a37.2509,37.2509,0,0,1-4.6906,5.205.64307.64307,0,0,0,.4501,1.0867c3.0294-.0311,6.6626-.7395,9.1132-2.6485,1.3039-1.0157,1.0622-2.291.8045-3.7539q-.51585-2.9283-1.1648-5.831-.6261-2.80185-1.3747-5.5742c-.2494-.9236-.5042-1.8466-.7787-2.7631a3.01475,3.01475,0,0,0-.7609-1.4927c-1.0053-.876-3.028-.3317-4.1954-.155a25.46892,25.46892,0,0,0-5.4578,1.4778c-.7548.2947-.4264,1.5263.3385,1.2277Z" transform="translate(-65.3175 -36.98902)"/><path class="cls-25" d="M143.4305,97.6637s-10.6956,6.7826-12.2609,15.913c-1.5652,9.1305-1.3043,22.4348-1.3043,22.4348l2.0869.5218s-1.0434,2.3478.7827,2.6087c1.826.2608,3.6521-22.174,3.6521-22.174s12.7826-4.4347,11.2174-14.0869S143.4305,97.6637,143.4305,97.6637Z" transform="translate(-65.3175 -36.98902)"/></g></g></svg>