<svg id="OBJECTS" xmlns="http://www.w3.org/2000/svg" viewBox="0 0 750 309.33819"><defs><style>.cls-1{fill:#56657b;}.cls-2{fill:#09203f;}</style></defs><path class="cls-1" d="M326.5447,377.3703a5.84157,5.84157,0,0,0,1.153-5.1089,6.751,6.751,0,0,1-1.7603,2.7375,4.79283,4.79283,0,0,1-2.9232.9022c-.4706-.126-.956-.2137-1.4062-.3135-1.4282-.3166-3.5608-.9596-4.9847-.3478a3.42551,3.42551,0,0,0-.8352.5246,2.65491,2.65491,0,0,1-1.9217-.7636c-.8511-.7999-.9134-2.2775-1.6086-2.9579a2.84,2.84,0,0,0-1.0786,2.552c.0532,1.2018.7582,1.8219,1.0651,2.887-3.278-1.3126-4.2016,2.6291-6.3163,3.9669a7.2533,7.2533,0,0,0,7.3206-.0141,17.03039,17.03039,0,0,1-1.885,5.8214c-.8236,1.4058-2.452,1.736-3.9302,2.04-1.4568.2994-2.9374.7002-4.4241.9395a43.05427,43.05427,0,0,1-6.8667.1076,44.92933,44.92933,0,0,1-9.6689-.9084,75.80475,75.80475,0,0,0-9.1128-1.6737,17.36031,17.36031,0,0,0-6.0359.7073,15.06517,15.06517,0,0,0-3.418,1.1763,5.9332,5.9332,0,0,1-2.4829.7445c-2.2904.3844-3.186,2.7206-4.5788,4.2356-1.6758,1.823-5.0356,1.4124-5.7557,4.8333a6.03288,6.03288,0,0,0,1.1402,4.5653c.132-1.7417,1.6709-4.1068,3.6738-3.9569a52.78208,52.78208,0,0,0,1.3789,9.8904c.7257,2.8916,1.385,4.865.0208,7.7497-.7859,1.662-1.9054,2.3962-3.2163,3.5369-1.4167,1.2331-1.1329,1.9511-.7783,3.6299a25.2504,25.2504,0,0,1,.6289,6.3686c-.0886,1.9723-.9881,4.1211-1.008,5.9633-.0124,1.1531,1.1701,2.8075,1.8692,3.9998.6426,1.0963.8119,1.1074,2.268,1.5133.8971.25,1.9413.4783,2.836.6314.115-1.7514-1.8572-3.3796-2.5156-5.0101-.8964-2.2198-.4857-4.2538-.4584-6.6035.0191-1.6532-.536-4.4896.1873-5.8102.5316-.9703,2.3166-2.0293,3.113-2.8906a13.08742,13.08742,0,0,1,2.3369-2.4821c.195,2.892.3867,3.6743,2.1913,5.6163,1.228,1.3217,3.4603,3.2726,3.8498,5.0316.1768.7982-.3996,2.0864-.0211,3.0032.4429,1.0728.6352.6374,1.3419,1.3351.7247.7156,1.2729,1.7237,2.3246,2.007a19.79126,19.79126,0,0,0,4.4453.0036c-.7655-2.4294-2.7267-4.6098-3.8111-7.0228-1.0346-2.3022-2.9137-4.1569-3.861-6.5565-1.248-3.1618.532-5.3775,2.3039-7.8593,1.2114-1.6968,1.259-.7864,2.9134.6016a10.72945,10.72945,0,0,0,5.1045,2.426c5.0814,1.1485,9.9571-.1828,14.7238-1.8843a7.35021,7.35021,0,0,1,2.9257-.7422c.2992.6098-.0303,1.6325.0136,2.33a17.26977,17.26977,0,0,0,.6935,3.4558,20.26124,20.26124,0,0,1,.8258,5.7061c0,2.2644.1784,4.4862.1784,6.7523,0,1.517-.2931,2.8222-.357,4.3005-.0657,1.519-.6403,2.8357-.7837,4.3035a2.915,2.915,0,0,0,.7866,2.2359,4.872,4.872,0,0,0,.9587.6896,8.78864,8.78864,0,0,0,.913.7602,6.19745,6.19745,0,0,0,3.8211.0868c1.045-.4432.2853-1.1173-.1602-1.8941-.7457-1.2996-1.7366-2.1136-1.9454-3.6857a25.83772,25.83772,0,0,1-.114-4.4623c.0934-2.048.805-4.422.4285-6.421-.5698-3.0264.44-5.7772,1.0239-8.7234.8614.9012.5879,3.8097.519,5.0805-.0516.953-.4324,1.9514-.4536,2.8768-.0282,1.2296.674,2.3255.6285,3.6413-.0553,1.5956-.2028,3.2203-.4013,4.8027-.1315,1.0485-.1941,1.3263.4735,2.159a6.90628,6.90628,0,0,0,1.6166,1.807,6.52335,6.52335,0,0,0,3.0214.3343c1.2688-.0768.9827-.3037.5583-1.11a15.85805,15.85805,0,0,1-2.0553-7.3896,21.968,21.968,0,0,1-.1818-3.2405,14.93541,14.93541,0,0,0,.6298-2.8115c-.01-1.3106-.2394-2.5545-.1756-3.8799.052-1.0822-.2903-2.3182.1336-3.3459.5138-1.2454,2.1999-2.4723,3.2136-3.2851,1.2895-1.0342,2.6922-1.7652,3.3709-3.361.845-1.9874.883-4.1802,1.5851-6.2065a14.30528,14.30528,0,0,0,.8003-3.6527c.1655-2.0042.201-4.038.4435-6.0377.1818-1.5003-.4757-3.0601-.1776-4.5532a1.84622,1.84622,0,0,1,.2719-.6932,3.08691,3.08691,0,0,0,1.8621.7506,3.52761,3.52761,0,0,0,3.6641-2.9494c.0851-1.2643-.5508-2.4741-.7188-3.7192a12.33763,12.33763,0,0,1-.0782-2.1795A10.05283,10.05283,0,0,1,326,383.7408a15.19773,15.19773,0,0,0,.3184-2.4232,5.37476,5.37476,0,0,0,3.0381-.0292c1.1626-.3322,2.2749-1.8392,3.4865-1.7337C331.803,377.5389,328.6176,376.232,326.5447,377.3703Z" transform="translate(0 -190.66181)"/><path class="cls-1" d="M364.0669,257.6598a10.0377,10.0377,0,1,0,10.0378,10.0375A10.03785,10.03785,0,0,0,364.0669,257.6598Zm0,18.0749a8.0371,8.0371,0,1,1,8.0373-8.0374A8.03712,8.03712,0,0,1,364.0669,275.7347Z" transform="translate(0 -190.66181)"/><path class="cls-1" d="M365.5533,259.8031a7.96639,7.96639,0,0,1,1.2753.3546l2.2534-8.4046,1.3355.2641L381.69,218.4757l-14.2935-13.2514-1.8775,45.8238,1.9337.3829Z" transform="translate(0 -190.66181)"/><path class="cls-1" d="M359.5793,254.7747l1.6741,5.402a7.9641,7.9641,0,0,1,1.3854-.3823l-1.4877-5.5554,1.2892-.4391-7.0088-34.6839-19.0043-4.3293,21.286,40.6233Z" transform="translate(0 -190.66181)"/><path class="cls-1" d="M353.4855,258.9002l4.2169,3.9026a8.0902,8.0902,0,0,1,.9739-1.0543l-4.0972-4.0981.8967-1.0247-23.4117-26.5328-18.6229,5.753,38.7459,24.5377Z" transform="translate(0 -190.66181)"/><path class="cls-1" d="M374.3098,256.2178l-4.9968,5.3996a8.045,8.045,0,0,1,.9625.9769l5.2841-5.2828,1.0247.8966,26.5331-23.4116-5.753-18.623-24.5377,38.7459Z" transform="translate(0 -190.66181)"/><path class="cls-1" d="M347.008,266.6915l.2995-1.3282,8.7852,1.373a7.99383,7.99383,0,0,1,.2625-1.2882l-8.6825-1.7048.4331-1.9232L305.448,244.9778l6.3272,18.4358Z" transform="translate(0 -190.66181)"/><path class="cls-1" d="M381.1197,264.7629l34.6839-7.0084,4.3294-19.0046-40.6233,21.286.6355,1.8663-8.666,2.6857a7.92541,7.92541,0,0,1,.3983,1.2437l8.8031-2.3575Z" transform="translate(0 -190.66181)"/><path class="cls-1" d="M376.5245,277.3393l-6.0153-4.8506a8.081,8.081,0,0,1-.8996,1.0196l5.7888,5.0513-1.3367,1.4491,28.5215,35.9144,3.7387-19.1295-28.874-20.4549Z" transform="translate(0 -190.66181)"/><path class="cls-1" d="M370.3122,282.2628l-2.8204-7.3026a7.91909,7.91909,0,0,1-1.2711.4737l2.5058,7.3224-1.882.5866,6.7432,45.3638L386.39,314.0092l-14.7778-32.1513Z" transform="translate(0 -190.66181)"/><path class="cls-1" d="M376.8622,267.8787l-.3828,1.9337-4.4597-1.0118a7.99584,7.99584,0,0,1-.3335,1.4422l4.471,1.1986-.2641,1.3358,33.5412,11.2725,13.2517-14.2939Z" transform="translate(0 -190.66181)"/><path class="cls-1" d="M355.871,279.2568l3.8668-4.795a8.03011,8.03011,0,0,1-1.1243-.8729l-3.9631,4.5418-1.4488-1.3367-35.9147,28.5216,19.1295,3.7383,20.455-28.8737Z" transform="translate(0 -190.66181)"/><path class="cls-1" d="M353.0617,273.9348l-.4048-1.2999,4.1113-1.5878a7.97268,7.97268,0,0,1-.4915-1.4053l-4.1134,1.4077-.5865-1.8823-45.3639,6.7435,14.6975,12.8022Z" transform="translate(0 -190.66181)"/><path class="cls-1" d="M363.7667,275.7194a8.04512,8.04512,0,0,1-1.46-.1841l-.9231,4.702-1.9231-.4331-16.8421,42.6581,18.4359-6.3272,3.2776-35.233-1.3283-.2996Z" transform="translate(0 -190.66181)"/><polygon class="cls-1" points="399.346 260.499 342.583 260.499 352.186 118.268 355.873 118.516 346.537 256.803 395.027 256.803 372.279 111.458 375.93 110.885 399.346 260.499"/><path class="cls-1" d="M363.0023,451.1608a1.848,1.848,0,0,1-1.768-1.3138l-15.0726-49.9339a1.8482,1.8482,0,0,1,1.7692-2.3822h13.2246V280.6019a1.848,1.848,0,1,1,3.6959,0v116.929h24.5194a1.848,1.848,0,0,1,0,3.696H364.8514v48.0859a1.84872,1.84872,0,0,1-1.5778,1.8287A1.89451,1.89451,0,0,1,363.0023,451.1608Zm-12.5834-49.9339,10.7366,35.5687V401.2269Z" transform="translate(0 -190.66181)"/><path class="cls-1" d="M363.0017,451.1608a1.8488,1.8488,0,0,1-1.6327-2.7107l26.3674-49.9338a1.84811,1.84811,0,0,1,3.2689,1.7252l-26.3674,49.9339A1.84719,1.84719,0,0,1,363.0017,451.1608Z" transform="translate(0 -190.66181)"/><path class="cls-1" d="M386.3901,381.9242H349.5328a1.848,1.848,0,0,1-1.6061-2.7612l12.9635-22.7977h-7.4148a1.848,1.848,0,0,1,0-3.6959h28.8747a1.848,1.848,0,1,1,0,3.6959H368.1347l19.6474,22.4958a1.84783,1.84783,0,0,1-1.392,3.0631Zm-33.6804-3.696h29.6127L364.387,357.6935Z" transform="translate(0 -190.66181)"/><path class="cls-1" d="M379.1642,336.0099H354.0295a1.848,1.848,0,1,1,0-3.696h25.1347a1.848,1.848,0,0,1,0,3.696Z" transform="translate(0 -190.66181)"/><path class="cls-1" d="M503.5479,353.6774l-54.2661-33.1425-49.1674,30.2289-29.8648,39.6981,16.025.7284v60.4578H512.2889l.7284-59.7293h14.204Zm-23.1625,56.4514-13.4083,15.891-12.9523-15.891Zm-44.4826-28.0049,13.1525-15.5884,12.7055,15.5884Zm27.5182-2.338-12.5522-15.3995,12.5522-14.8767Zm-24.1951-32.4697h22.4298l-12.5635,14.8897-12.1359-14.8897Zm-4.4699,1.6739,12.5231,15.3656L434.756,379.1974Zm8.9721,61.1387-13.4083,15.891-12.9523-15.891Zm-36.1789-28.0049h-5.2309V369.8795h5.2309Zm7.47,29.7914,13.3656,16.3991-13.3656,15.8399Zm1.2241,35.3623,14.0371-16.637,13.56,16.637Zm29.3689-2.4952L432.2159,428.347l13.3963-15.8771Zm6.0643-32.8671,13.3656,16.3991-13.3656,15.8399Zm1.2241,35.3623,14.0371-16.637,13.56,16.637Zm29.3689-2.4952L468.8732,428.347l13.3963-15.8771Zm18.453-62.6585h-5.231V369.8795h5.231Z" transform="translate(0 -190.66181)"/><polygon class="cls-1" points="625.817 201.462 532.423 201.462 507.014 161.377 454.025 129.873 560.403 129.873 604.942 160.292 625.817 201.462"/><path class="cls-1" d="M516.1639,395.0438v56.6043H618.6326V395.0438Zm18.0738,28.3023h-6.4279V402.7106h6.4279Zm18.5276,0h-6.4279V402.7106h6.4279Zm18.5276,0h-6.4281V402.7106h6.4281Zm18.5274,0h-6.4279V402.7106h6.4279Zm18.5276,0H601.92V402.7106h6.4279Z" transform="translate(0 -190.66181)"/><path class="cls-1" d="M662.183,444.5563c.0153.0422.0333.0835.0484.1255C662.5041,444.933,662.3443,444.7414,662.183,444.5563Z" transform="translate(0 -190.66181)"/><path class="cls-1" d="M723.5463,344.6549c2.9039-8.336-1.6836-3.1731-5.7714-3.9844.7046-1.6605-.2065-3.1706-.7711-4.603,3.9844-.2202,6.8428-1.6009,7.095-5.7425.1787-2.935.1185-7.5393-3.527-5.0651.6396-1.6218,1.0073-3.5431-1.1624-3.7405.0666,2.4809-2.7513,2.0381-4.476,2.1815,2.4688,3.7927-4.2875,5.5626-2.629.7778-3.1361,1.3621-1.5073-1.2243-1.485-2.1553.0344-1.4401.8339-2.0676.0654-3.5389,1.1876-1.0059,4.7402-2.2748,4.807-4.0179.1016-2.652-2.3995-2.3371-3.7239-1.4474,3.046-2.0461-1.7253-3.9998-3.9259-1.7703-.4361.4417-4.4252,6.4805-3.9139,1.9226-2.2782.8688-8.5555.8466-6.1651-3.3682.9943-1.7536,3.9771-.453,5.3451-1.7893,3.7449-3.6588-6.0936-5.7939-.8057-9.7457-3.2877-.4799.4969-3.3316,1.7815-4.0286-1.0709-.5353-5.1593-3.318-5.4991-4.3221-.6225-1.8398,4.7908-5.0584-.5293-6.0149,2.0647-2.7139,2.6789-5.8438.755-8.7884-.4458.2769-.7415.2582-1.1695.6932,1.4148-3.2814.4906-8.6279-3.6057-9.0491-4.732-.4868-3.1225,5.546-1.6663,8.5486-2.4454.3564-3.1927.8062-4.2314,2.675-1.4627,2.6318-1.8098,4.5676-5.5166,3.1115.2543-.5061.1917-1.5508.4397-2.0301a7.54927,7.54927,0,0,1-3.3636.5105c1.2814-3.7204,5.4839-4.201,7.2699-7.0799.9511-1.5332.2116-6.0996-2.4947-6.6048.5465-2.2913-1.9057-2.4992-3.0141-4.1438-.707,1.7667-3.1789,3.6726-5.0294,2.4905-1.8049-1.153.1905-3.117.9143-4.8082-3.0571-1.2605-3.6194-5.5696-6.7609-7.2285-1.5446-.8158-4.9237-2.1732-6.7113-2.223-2.954-.0826-7.8996,5.1473-10.6128,1.4221-1.5533.3927-3.9093-1.2187-5.4097-.5161-2.046.9583-.7743,2.9672-2.3637,3.8549-1.0157.5673-2.5251-.603-3.7446.1456-.7101.436-.007,1.9316-.5595,2.4048-.5712.4891-1.5965-.0047-2.267.3576-2.5309,1.367-4.1135,2.2348-6.3121-.0074-2.0107-2.0506-4.2723-5.2058-5.5642-.0101-2.0372.0465-3.3678-2.0311-5.285-.7649-1.5256,1.0077-1.5447,4.8536-1.7626,6.5257-1.9713-.6383-2.7044-1.3308-4.0346.5163-1.2489,1.7342-.9824,5.1701.2395,6.7872-1.4089-.5545-2.9331-1.4121-4.4644-1.216-.0699,2.014,1.8847,3.2099,1.3327,5.1169-.3644,1.2585-2.7816,1.9293-2.021,4.455-4.2876-3.8089-7.2306.3716-4.7692,4.4969-.2682-.113-.8023-.2244-1.0902-.3301-5.3646,5.7233,10.2439,6.6079-.7683,9.6577-.9227.2555-.9447.9241-1.9107.8953-1.2678-.0378-2.3045-1.7936-3.6794-1.9358-2.9694-.3071-3.2422,1.7797-3.0753,4.203-3.2697-1.0608-5.1569-.9784-4.6683,2.7414.1916,1.4597,1.573.8803.9156,2.7679-.2676.7683-1.8065,1.5834-2.4507,1.9856a13.54028,13.54028,0,0,1-.0545,3.5858c1.4744-.6716,3.7706-1.3607,4.2516.7227,1.7094-.2899,8.673-.9087,5.6633,2.8937-1.7669,2.2326-5.9059-1.4972-6.7535,1.6066,2.4993.0706,4.6725,2.0823,1.6702,2.9707-1.3077.387-2.5642-.9344-4.1756-.044-1.2417.6863-1.5053,1.4923-1.8132,2.8405-.2255.9878-.7731,4.3514-1.509,5.0307-1.2567,1.1598-3.7173.27-4.9769,1.3815-2.547,2.2476.2889,5.6485.6314,8.353a1.90577,1.90577,0,0,1-.4707-.0036c.9912,2.2069.9276,5.3657,3.6021,6.1659-1.2981,2.8146-6.1721,4.0331-8.4411,1.6553-1.0228,1.534-6.1664-1.5177-8.622-.6544-3.1177,1.0961-5.1838,4.0164-4.2207,7.2285,1.56,5.2022,3.7755,1.302,7.1791,3.3151,4.5019,2.6625.3674,2.4517-1.4036,5.0269.2425.3388,1.1783,1.4932,1.393,1.719,1.9557-1.3646,5.7302-.8337,5.5521,2.0783a4.61256,4.61256,0,0,0-4.7259,1.3547,23.48965,23.48965,0,0,1,4.775,1.5901c.1898,2.7565,6.6624,2.2277,8.6118,2.3005-.3312,5.7581,5.7761.096,7.9516-.1248.4907-.0501,3.2459.9015,3.3499,1.3692.4311,1.9387-3.3536,2.6011-4.2735,3.8408a21.91523,21.91523,0,0,0,10.3393-2.3693,6.47315,6.47315,0,0,1,.9044.7473c.9099.9647,1.2731,2.7116,2.9096,2.7357,1.3646.0199,2.4943-1.5235,3.1169-2.604,1.2296-2.1343,1.686-4.2019.2305-6.1761a3.637,3.637,0,0,0-.3374-.3821,3.885,3.885,0,0,1,3.2001-2.2231c.7942-.1331,1.493.7489,2.4069.57.9298-.1823,1.2949-1.0649,2.051-1.4385a22.19583,22.19583,0,0,1,5.3583-1.9119,15.608,15.608,0,0,1,2.2512-.3392c-.4131,1.5648.1724,3.6612,1.7482,4.3091a11.1008,11.1008,0,0,0-.7487,1.107c-.7216-1.166-4.9306-.6063-6.4802-.4397-2.6765.2881-4.9702,1.6401-4.5457,4.62-.8876,2.5701,1.5074,2.9285,3.4314,3.1916,1.7036.2327,5.0572.6648,6.1881-1.2343-.0977,1.3924.5551,1.8565,1.4174,2.7386,1.1926,1.2205,1.3584.5901,2.735.1316.1823,1.0054,1.0124,1.8248,1.9855,1.122.7932-.5729.9212-1.8342.9864-2.7081,1.043,1.051,1.2799-1.0061,1.2655-1.5948-.0404-1.6475,1.37-.9853,2.212-1.9709a3.58806,3.58806,0,0,0,.655-1.1122,74.2242,74.2242,0,0,1,8.4176,11.6071,17.0552,17.0552,0,0,1,1.6126,3.3959c-.1085,5.3349-.6705,10.7109-.2113,16.0808.6325,7.3985-1.2412,15.3508-1.7586,22.8287-.625,9.0334-1.7642,20.3854-5.9563,28.4786l23.6835-2.8403c.0344.0402.1066.1218.1785.2044-1.6053-4.3904-4.1027-8.5528-4.574-13.2724-.7008-7.0195.1059-14.2551-.0572-21.3116-.1384-5.9884-.6325-12.1252-.3685-18.1126a18.28748,18.28748,0,0,1,9.4441-6.7267c.4337-.1327.8879-.2696,1.3522-.4112a6.582,6.582,0,0,1,.7693.9103c1.2287,1.6292.9959,1.0876,2.7946.4371.3306,1.3621.8008,3.278,1.9969.9601.1204,1.3274,2.3064.2302,1.0225-1.5604a5.95577,5.95577,0,0,0,2.1429-1.1875c.7146,1.5093,1.2053,2.9426,3.464,2.1514,2.4452-.8567,4.7243-3.1204,4.0027-5.9243-.0305-.1183-.0695-.2479-.1157-.3854,1.8395.4057,3.7419.9388,5.4258.2313,3.7949-1.5941,1.5441-2.8615,1.0432-4.5353-.4485-1.499.3126-3.5025-2.1246-3.3457.1657-.7419-.2789-1.3777-.1977-2.0819a1.69734,1.69734,0,0,1-1.9546-2.0593,12.29248,12.29248,0,0,1-3.4158,1.4306,11.21919,11.21919,0,0,0-.5228-1.3035c-.0617.0386-.1233.0989-.1851.1436.9621-3.1128,2.1191-6.2847,3.113-9.483a6.38239,6.38239,0,0,0,1.6603-.2626,7.40231,7.40231,0,0,1,.3675,3.3561c3.0284-.1,6.0704,4.486,8.0233-.0323,1.6087.0661,2.2328,1.4105,3.4666,1.9322.8838.3736,1.4736.1496,2.394.4368,1.6385.5114,5.358.1981,5.7302,1.133,2.718-4.8945,4.7702-.6405,8.2182-1.5973,1.6938-.4699,2.5548-2.9276,2.9401-4.41.9068-3.488-.0195-1.7677-1.5686-4.3994-.548-.9308-.5819-3.8343-.3122-4.84,3.4719.578,8.7476-1.9141,7.9857-6.0138C723.868,344.4534,723.7926,344.6625,723.5463,344.6549Zm-81.7246,20.665c-1.6632-1.693-3.4381-3.3452-5.2204-4.9797.0135-.059.024-.1175.04-.1765a5.51219,5.51219,0,0,1,1.0512-1.6374c.8799.1686,1.7372.7131,2.9444,1.0943,1.205.3808.7149-.8842,2.3314.4551,1.0779.8931,1.3033,2.5589,1.6881,3.7736a30.15636,30.15636,0,0,1,1.1219,6.4147C644.4192,368.6712,643.152,366.6742,641.8217,365.3199Zm22.5114,1.6835c2.0706-.3848,1.3928,1.3016,3.3565,1.2821,1.5656-.0156,2.2519-1.9673,3.7267-2.3708.1449.2883.0826.3834.2277.5764.9161-2.1042,2.5518-3.5579,2.3171-5.8972-.0837-.8346-1.2347-1.704-1.3687-2.887-.1674-1.4778,1.4598-2.4756,1.3314-3.8895a6.43092,6.43092,0,0,0,.9224,2.5325c-.0085-.1337-.0491-.6912-.0334-.8345.0306.914.4379,4.4042,1.4038,4.8493,1.0146.4675,1.7455-.7649,2.7095-1.1323a8.65641,8.65641,0,0,1,4.3034-.2289c-.7568,1.5019-1.4793,3.0179-2.1172,4.555-.5982,1.4412-1.2624,3.2783-2.0739,5.0631a2.27515,2.27515,0,0,0-1.4414,1.482,5.54568,5.54568,0,0,1-.3159-1.1396c-6.4001.4819-3.5919,2.6339-5.5508,7.0203.0226.0494.0494.09.0735.1363-.481.2128-.9731.4084-1.4733.5911a40.581,40.581,0,0,1-2.5774-3.973,30.05023,30.05023,0,0,0-3.9677-4.3498C664.0114,367.8911,664.1201,367.0427,664.3331,367.0034Zm-5.3869,12.8843c.0202-.1626.0453-.3225.0625-.4869a10.61767,10.61767,0,0,0-.3133-4.4721c-.2223-1.1294-1.5169-3.3982.8003-3.528-.7846-2.1741.5571-2.4704,1.9487-3.0828a.95879.95879,0,0,1,.6022.1036,28.017,28.017,0,0,0,2.289,3.6778c1.1512,1.5445,1.9954,3.7551,3.1019,5.5263C664.581,378.411,661.6193,378.9894,658.9462,379.8877Z" transform="translate(0 -190.66181)"/><path class="cls-1" d="M592.9152,370.0567c.0059-.0082.015-.016.0211-.0243-.0128-.0002-.0239.0009-.0368.0007Q592.7219,370.1912,592.9152,370.0567Z" transform="translate(0 -190.66181)"/><path class="cls-1" d="M694.8227,366.7289v-.4739c-1.7157,1.0325-.16,2.3733,1.1577,2.9647.861.3868,1.5043.3301,1.7808-.8321C698.147,366.7664,695.7918,365.0781,694.8227,366.7289Z" transform="translate(0 -190.66181)"/><path class="cls-1" d="M719.4677,352.2735l-.1185-.1183c-.7632.391-2.068,1.187-1.4322,2.1408.2915.4373,1.6182.6479,2.0768.8661,1.1995.5712,2.591,1.1278,3.2711-.5164C724.1334,352.5462,720.9469,351.2268,719.4677,352.2735Z" transform="translate(0 -190.66181)"/><path class="cls-1" d="M614.0276,369.7166c-.012-.6912-.8326-2.261-1.632-1.9177-.3583.1536-.3792,1.7156-.9102,2.1147-.4682.352-1.2309.1128-1.4839.7457-.2072.5186.7119,2.2764,1.1296,2.6379C612.9966,374.9121,616.1143,371.4845,614.0276,369.7166Z" transform="translate(0 -190.66181)"/><path class="cls-1" d="M602.7706,370.1735c-.8659.0134-1.2366.5546-2.665.5287-.6712.2827-1.5798,1.1025-1.0888,1.9014.3439.5594,2.044.7669,2.638.9159,1.3075.328,2.96.4495,3.2535-1.277C605.1452,370.8487,604.0374,370.1541,602.7706,370.1735Z" transform="translate(0 -190.66181)"/><path class="cls-1" d="M584.6536,321.8285c1.137-.2638,1.05-.7424,1.428-1.7623a2.56869,2.56869,0,0,1,.746-1.2536c.5105-.6195.8243-.6492.8864-1.5691.0576-.854-1.2073-3.701-2.2536-2.8854-2.0613,1.273-5.3444,4.2384-3.0182,6.8281A2.22954,2.22954,0,0,0,584.6536,321.8285Z" transform="translate(0 -190.66181)"/><path class="cls-1" d="M105.2492,449.6177c-.0204.0562-.0443.1113-.0646.1673C104.8212,450.1199,105.0342,449.8645,105.2492,449.6177Z" transform="translate(0 -190.66181)"/><path class="cls-1" d="M22.6628,316.1502c-1.0156,5.4644,6.0163,8.7861,10.6441,8.0158.3594,1.3404.3142,5.2104-.4162,6.4511-2.0648,3.5078-3.2994,1.2149-2.0908,5.8639.5136,1.976,1.6612,5.2519,3.9188,5.8782,4.5958,1.2752,7.3312-4.3949,10.954,2.1289.4962-1.246,5.4538-.8284,7.6378-1.5101,1.2267-.3828,2.0129-.0842,3.1909-.5822,1.6446-.6954,2.4765-2.4874,4.6207-2.5755,2.603,6.0225,6.6576-.0902,10.6941.0432a9.86763,9.86763,0,0,1,.4898-4.4735,8.50561,8.50561,0,0,0,2.2131.3501c1.3248,4.263,2.8669,8.4908,4.1492,12.6398-.0823-.0595-.1643-.1399-.2466-.1914a14.92149,14.92149,0,0,0-.6968,1.7375c-1.6029-.2209-3.0678-1.1948-4.553-1.9069a2.26247,2.26247,0,0,1-2.6053,2.7449c.1082.9385-.4843,1.786-.2634,2.7749-3.2486-.209-2.2341,2.4614-2.832,4.4594-.6675,2.2311-3.6677,3.9204,1.3906,6.0452,2.2445.943,4.7801.2325,7.232-.3084-.0617.1833-.1137.356-.1542.5138-.9618,3.7373,2.0759,6.7545,5.3352,7.8963,3.0105,1.0547,3.6646-.8558,4.6171-2.8674a7.93893,7.93893,0,0,0,2.8563,1.5827c-1.7114,2.3867,1.2023,3.8492,1.3629,2.0798,1.5941,3.0896,2.2209.5358,2.6615-1.2797,2.3976.8672,2.0872,1.589,3.725-.5825a8.762,8.762,0,0,1,1.0254-1.2133c.6188.1887,1.2242.3712,1.8022.548a24.37525,24.37525,0,0,1,12.5881,8.9659c.3518,7.9806-.3067,16.1604-.4912,24.1422-.2175,9.4056.8578,19.0499-.0763,28.4061-.6281,6.2907-3.957,11.8387-6.0966,17.6907.0959-.1102.1921-.2188.2379-.2724l31.5676,3.7858c-5.5877-10.7874-7.106-25.9184-7.9391-37.959-.6896-9.9673-3.1871-20.5668-2.344-30.4281.612-7.1576-.1371-14.3232-.2818-21.434a22.73269,22.73269,0,0,1,2.1495-4.5264,98.92766,98.92766,0,0,1,11.2197-15.471,4.78567,4.78567,0,0,0,.8731,1.4824c1.1224,1.3137,3.0022.4311,2.9485,2.627-.0193.7847.2965,3.5265,1.6866,2.1257.087,1.1648.2576,2.846,1.3148,3.6096,1.2971.9367,2.4035-.1554,2.6465-1.4955,1.8348.6111,2.0558,1.4514,3.6455-.1754,1.1493-1.1758,2.0194-1.7944,1.8892-3.6503,1.5074,2.5314,5.9773,1.9554,8.248,1.6452,2.5646-.3507,5.7568-.8284,4.5738-4.2541.5657-3.9718-2.4915-5.7739-6.059-6.1579-2.0654-.2221-7.6756-.9681-8.6374.5861a14.79975,14.79975,0,0,0-.9979-1.4756c2.1003-.8635,2.8807-3.6578,2.3302-5.7436a20.81525,20.81525,0,0,1,3.0006.4522,29.58154,29.58154,0,0,1,7.1419,2.5484c1.0079.498,1.4946,1.6744,2.7339,1.9173,1.2181.2384,2.1495-.9371,3.2081-.7597a5.17833,5.17833,0,0,1,4.2654,2.9631,4.84338,4.84338,0,0,0-.4498.5093c-1.9399,2.6314-1.3316,5.3873.3074,8.2321.8298,1.4402,2.3356,3.4974,4.1544,3.4709,2.1813-.0321,2.6653-2.3605,3.8781-3.6465a8.63455,8.63455,0,0,1,1.2056-.996,29.20982,29.20982,0,0,0,13.7811,3.158c-1.2261-1.6524-6.2707-2.5353-5.6961-5.1194.1386-.6233,3.8111-1.8917,4.465-1.825,2.8998.2944,11.0402,7.8413,10.5987.1664,2.5984-.0971,11.2256.6078,11.4786-3.0663a31.304,31.304,0,0,1,6.3645-2.1195c-1.5927-1.9343-3.9135-2.2674-6.299-1.8057-.2374-3.8813,4.7936-4.5889,7.4003-2.7701.2862-.301,1.5334-1.8396,1.8567-2.2912-2.3605-3.4325-7.8714-3.1515-1.8709-6.7003,4.5367-2.6833,7.4898,2.5153,9.569-4.4187,1.2838-4.2814-1.4702-8.1738-5.6257-9.6348-3.2731-1.1508-10.1289,2.9169-11.4923.8722-3.0242,3.1693-9.5207,1.5452-11.251-2.2063,3.5648-1.0666,3.4801-5.2769,4.8012-8.2185a2.54185,2.54185,0,0,1-.6273.0048c.4564-3.6049,4.2364-8.1378.8415-11.1336-1.6789-1.4815-4.9587-.2956-6.6337-1.8414-.9809-.9056-1.7108-5.3888-2.0113-6.7054-.4103-1.7971-.7618-2.8714-2.4168-3.7861-2.1478-1.1868-3.8226.5745-5.5656.0586-4.0017-1.1841-1.1052-3.8656,2.2262-3.9596-1.1298-4.1371-6.6465.8343-9.0017-2.1415-4.0116-5.0682,5.2701-4.2433,7.5485-3.8569.6412-2.777,3.7018-1.8584,5.667-.9633a18.04475,18.04475,0,0,1-.0726-4.7795c-.8587-.5361-2.9098-1.6226-3.2665-2.6466-.8763-2.5159.9649-1.7437,1.2204-3.6893.6511-4.9581-1.8642-5.0679-6.2224-3.654.2225-3.23-.1412-6.0115-4.0991-5.6022-1.8325.1896-3.2143,2.5299-4.9042,2.5803-1.2875.0384-1.3169-.8529-2.5468-1.1934-14.6781-4.065,6.1264-5.2441-1.024-12.8726-.3837.1408-1.0956.2893-1.4531.44,3.2808-5.4987-.642-11.0708-6.3569-5.994,1.0138-3.3664-2.208-4.2606-2.6937-5.938-.7358-2.5418,1.8695-4.1358,1.7763-6.8203-2.041-.2613-4.0727.8817-5.9506,1.6209,1.6286-2.1555,1.9838-6.7352.3193-9.0466-1.7731-2.4621-2.7502-1.539-5.3777-.6882-.2904-2.2287-.3159-7.355-2.3494-8.6981-2.5555-1.6878-4.3289,1.0815-7.0443,1.0196-1.722-6.9254-4.7364-2.7199-7.4165.0134-2.9306,2.9886-5.0399,1.8319-8.4134.0098-.8937-.4828-2.2602.1753-3.0217-.4766-.7364-.6307.2008-2.6243-.7457-3.2053-1.6255-.9978-3.6374.562-4.9912-.1941-2.1184-1.1833-.4234-3.8608-3.1506-5.1381-1.9997-.9365-5.14,1.2112-7.2105.6879-3.6164,4.9652-10.2083-2.0057-14.1457-1.8956-2.3827.0664-6.8866,1.8756-8.9454,2.963-4.1873,2.2111-4.9368,7.9548-9.0116,9.6348.9648,2.2543,3.6244,4.872,1.2187,6.4089-2.4665,1.5756-5.7613-.9647-6.7037-3.3196-1.4774,2.192-4.7458,2.4692-4.0175,5.5233-3.6071.6733-4.5928,6.7599-3.3252,8.8034,2.3807,3.8373,7.9822,4.4779,9.6901,9.4368a10.06251,10.06251,0,0,1-4.4833-.6805c.3305.6389.2471,2.0314.586,2.7059-4.9407,1.9408-5.4033-.6394-7.353-4.1472-1.3844-2.4909-2.3805-3.0904-5.6399-3.5655,1.9409-4.0022,4.0862-12.0433-2.2211-11.3944-5.46.5615-6.6918,7.6878-4.806,12.0615-.5705-.5799-.9647-.5549-1.5588-.924-2.5644,3.9248-1.7457,8.0967,1.0063,11.714-7.0911,1.275.1243,5.565-.7055,8.0173-.4528,1.3383-5.9024,5.0473-7.3297,5.7608,1.7123.9291,6.7567,4.7301,2.3745,5.3698,7.0482,5.2673-6.0654,8.113-1.0738,12.9898,1.8234,1.7813,5.799.0477,7.1244,2.385,3.1862,5.618-5.1808,5.6474-8.2174,4.4895.6815,6.0752-4.6356-1.9739-5.2168-2.5627-2.9332-2.9716-9.2928-.3676-5.2329,2.3597-1.7652-1.186-5.0989-1.6057-4.9635,1.9292.089,2.3233,4.8242,4.0147,6.4072,5.3554-1.0243,1.9611.0413,2.7976.0872,4.717.0297,1.241,2.2008,4.6883-1.9793,2.8728,2.2106,6.3777-6.7948,4.0186-3.5042-1.0368-2.2989-.1911-6.0548.3992-5.9661-2.9077-2.892.2632-2.4019,2.8241-1.5493,4.9858-4.859-3.2979-4.9393,2.8392-4.7011,6.7512.3361,5.5204,4.1461,7.3606,9.4569,7.6541-.7526,1.9093-1.9669,3.9221-1.0279,6.1353-5.4486,1.0815-11.5632-5.8001-7.6926,5.3108C23.1303,316.4699,23.0297,316.1913,22.6628,316.1502ZM127.1149,350.594a40.19461,40.19461,0,0,1,1.4953-8.5501c.5129-1.619.8134-3.8394,2.2502-5.0298,2.1545-1.7851,1.5013-.0991,3.1074-.6066,1.6091-.5081,2.7517-1.2339,3.9246-1.4586a7.34762,7.34762,0,0,1,1.4011,2.1825c.0214.0786.0354.1566.0533.2352-2.3756,2.1787-4.7413,4.3808-6.9582,6.6375C130.6155,345.8092,128.9264,348.471,127.1149,350.594Zm-24.0016-2.4993a40.064,40.064,0,0,0-5.2885,5.7978,54.11644,54.11644,0,0,1-3.4353,5.2956c-.6668-.2435-1.3227-.5042-1.9638-.7879.0321-.0616.0679-.1158.0979-.1816-2.6109-5.8466,1.1321-8.715-7.3985-9.3574a7.39429,7.39429,0,0,1-.4211,1.5191,3.03232,3.03232,0,0,0-1.9212-1.9754c-1.0817-2.379-1.967-4.8277-2.7643-6.7485-.8503-2.0489-1.8133-4.0695-2.822-6.0714a11.536,11.536,0,0,1,5.7359.3051c1.2849.4897,2.2592,2.1323,3.6115,1.5092,1.2874-.5932,1.8303-5.2453,1.8712-6.4636.0208.1911-.0333.9341-.0445,1.1124a8.57216,8.57216,0,0,0,1.2293-3.3757c-.1711,1.8846,1.9978,3.2146,1.7747,5.1843-.1787,1.5768-1.7127,2.7356-1.8244,3.848-.3128,3.1182,1.8674,5.0557,3.0885,7.8604.1935-.2572.1103-.384.3034-.7683,1.9659.5379,2.8806,3.1393,4.9674,3.1601,2.6174.0259,1.7139-2.2218,4.4739-1.7089C102.6673,346.3004,102.8122,347.4312,103.1133,348.0947Zm-4.8677,12.3115c1.4748-2.3608,2.5999-5.3072,4.1344-7.3659a37.34139,37.34139,0,0,0,3.051-4.9021,1.27693,1.27693,0,0,1,.8026-.1381c1.8549.8162,3.6433,1.2112,2.5975,4.1091,3.0885.1729,1.363,3.197,1.0667,4.7023a14.15149,14.15149,0,0,0-.4176,5.9609c.0229.2191.0564.4322.0833.6489C106.0005,362.2241,102.0529,361.4531,98.2456,360.4062Z" transform="translate(0 -190.66181)"/><path class="cls-1" d="M197.5758,350.3178c-.0079-.0111-.02-.0215-.0282-.0325.0171-.0003.0319.0012.0491.0009Q197.8334,350.49695,197.5758,350.3178Z" transform="translate(0 -190.66181)"/><path class="cls-1" d="M61.744,345.8821v-.6316c2.2869,1.3761.2132,3.1633-1.5431,3.9516-1.1477.5155-2.0051.4399-2.3736-1.1092C57.313,345.9321,60.4523,343.6817,61.744,345.8821Z" transform="translate(0 -190.66181)"/><path class="cls-1" d="M28.8948,326.6146l.158-.1577c1.0172.5212,2.7563,1.5821,1.9089,2.8535-.3885.5828-2.1569.8635-2.7682,1.1543-1.5987.7615-3.4534,1.5033-4.36-.6882C22.676,326.9781,26.9232,325.2194,28.8948,326.6146Z" transform="translate(0 -190.66181)"/><path class="cls-1" d="M169.4352,349.8644c.016-.9213,1.1097-3.0136,2.1753-2.5561.4775.2048.5054,2.2867,1.2132,2.8186.624.4692,1.6407.1504,1.9778.994.2763.6912-.9489,3.0342-1.5056,3.5161C170.8094,356.7895,166.6538,352.2208,169.4352,349.8644Z" transform="translate(0 -190.66181)"/><path class="cls-1" d="M184.4396,350.4734c1.1541.0179,1.6482.7392,3.5521.7046.8947.3769,2.1058,1.4696,1.4513,2.5344-.4584.7457-2.7244,1.0222-3.5161,1.2208-1.7428.4373-3.9455.5992-4.3366-1.7021C181.2745,351.3733,182.7511,350.4475,184.4396,350.4734Z" transform="translate(0 -190.66181)"/><path class="cls-1" d="M208.5875,286.0346c-1.5154-.3515-1.3995-.9894-1.9033-2.3489a3.423,3.423,0,0,0-.9944-1.6709c-.6804-.8257-1.0986-.8653-1.1814-2.0914-.0768-1.1383,1.6092-4.933,3.0038-3.8459,2.7475,1.6967,7.1235,5.6492,4.0229,9.101A2.97143,2.97143,0,0,1,208.5875,286.0346Z" transform="translate(0 -190.66181)"/><path class="cls-2" d="M34.4018,359.7788c-.1795-5.2002-.9627-10.5624-1.2307-15.8635-.2256-4.4633.1597-8.1748,2.373-12.1938.6724-1.221,1.3677-2.7629,2.1329-4.3021a38.59228,38.59228,0,0,1,1.6626-4.176c1.961-4.1053,6.2195-3.6935,10.4697-3.7084,5.2581-.0179,10.5609,2.6521,15.7128,3.6526,4.7287.9181,9.4846,1.8403,14.2837,2.5161,11.2534,1.5847,23.7341,2.5306,35.1036,1.0013,11.8333-1.5919,23.3277-5.0791,35.4695-4.4499,2.4309.1261,4.8603.9429,7.2461.9929,1.9806.042,3.3244-1.0766,5.2463-1.2397,2.3019-.1956,9.2499,3.0635,10.2119.2823-3.3846-.8328-5.1574-2.296-6.3884-5.957-1.0464-3.1117-.9379-8.0671,1.9406-10.0842-.9179,2.2731,1.8802,7.0168,3.492,8.7268,2.1437,2.2739,3.4562,1.862,5.9845.923,2.774-1.0307,5.7951-1.0456,8.9278-1.0491a21.51357,21.51357,0,0,1,4.3406.2342c1.9792.4099,3.4819,1.6401,5.6014,1.6859a5.95119,5.95119,0,0,0,4.9088-2.2288,8.87341,8.87341,0,0,0,1.3862-3.2992c.4548-1.9216-.3335-3.7722-.4015-5.6805a9.51457,9.51457,0,0,1,4.9742,8.252c.073,1.6676-.024,3.674-1.2628,5.1146-1.4844,1.7268-4.5567,3.9797-6.8141,4.3144l-.7406.9871a3.87458,3.87458,0,0,0,.0651,2.1333c1.5079-.6468,3.0068-.7079,4.5315-1.4701a11.49733,11.49733,0,0,1,4.8952-1.4849,9.78348,9.78348,0,0,1,3.0315.2628c1.0574.3156,2.2184,1.3853,3.3298,1.3772-2.1434,2.6395-3.3386,7.3206-7.1225,7.8608a17.85872,17.85872,0,0,1-7.4009-.5807c-.0338.0347-.068.0687-.1028.1024.3989,1.823-1.1698,3.4933-1.2475,5.2835-.0885,2.0347.574,3.7722-.1651,5.7802a31.9583,31.9583,0,0,0-1.7888,10.3623c-.1677,4.2413,1.7802,8.1778-2.1608,10.4211-3.7151,2.1148-7.0764,2.6907-10.0359-.6454-.5066-.5711-5.1929-7.9643-5.1045-8.1021-3.1291,4.8828-1.3931,13.0567-2.6922,18.6827-.6541,2.8324-2.2137,4.6562-3.3936,7.2758-1.1694,2.5963-2.2857,8.3302-5.1219,9.6192-.7381.3354-1.6714-.0871-2.4687.013a10.55823,10.55823,0,0,0-3.2126.996c-1.6192.6452-4.2111,2.6096-5.7966,2.4595-5.1845,5.4237-2.27,12.7874-5.8627,19.2526-2.2356,4.0236-2.9412,12.8356-.7396,17.0372,1.315,2.5096,5.1758,5.0306,5.5827,7.6636a13.40652,13.40652,0,0,1-2.1086.5245c1.2847.9154,1.6395,3.1247,1.3632,4.6039-3.7947.4455-6.4873-.2491-9.0826-2.6777-.9064-.8481-3.9795-1.9117-4.4056-2.5183-.8422-1.1985.1537-3.4372.3887-4.6948.8515-4.5585,2.0907-9.5994,2.0286-14.3286-.0611-4.6536-3.548-8.5434-4.3181-13.1378-.4635-2.764-.2298-5.2824-1.612-7.8427-1.6414-3.041-3.4328-5.6255-3.4859-9.2796-2.5193-.3183-5.2918.6166-7.8405.7071a34.43189,34.43189,0,0,1-10.8295-.863c-2.6106-.7454-5.1454-1.6137-7.7526-2.1658-3.6561-.7744-3.0563.2484-5.537,2.2391-3.8935,3.1243-8.5908,1.3173-12.1243-1.1843-3.1754-2.2479-5.8434-2.9516-8.769-5.9922-.978-1.0166-5.0818-4.9194-6.6088-4.3429-2.8068,1.0601-.4573,11.0935-4.1832,10.3351-2.1987.9043-2.8477,3.3528-4.9157,4.5665-1.2672.7442-3.7244.8217-4.4767,1.8395-.6945.9394-.5631,4.0094-.722,5.196-.2808,2.0959-.3998,4.309-.4993,6.4159-.1616,3.4196-.6707,7.1498-.191,10.5598.429,3.0517,2.1646,5.7741,3.2022,8.6939a9.70165,9.70165,0,0,0,3.9057,4.6899c1.6506,1.2045,3.4118,2.1535,2.4261,4.4056-2.3021-.5604-4.8071-.374-7.1224-.7098-3.2319-.4684-2.2386-2.2911-4.1929-3.6985-1.021-.7346-2.59.0038-3.4089-1.0338-.5816-.7377-.2756-2.9837-.2748-3.9002a64.89357,64.89357,0,0,0-.9536-10.6832c-.7893-4.7731-1.6005-10.3401-4.443-14.2261-.3618,3.0631-1.7039,5.4279-1.5415,8.637.1155,2.2826.654,4.5661.7591,6.8369.2082,4.5034-.1765,9.3105,1.9625,13.1202.9218,1.6419,7.135,8.6618,4.447,9.8595-.6091.2712-4.7169-.8993-5.6455-.9432a15.60872,15.60872,0,0,1-4.6889-.7962c-.1071-1.8754.3349-3.7378-.8217-5.3382-.4976-.6888-1.4206-.5585-1.9436-1.5243-.5001-.9237-.2245-2.8515-.234-3.8883a117.05218,117.05218,0,0,0-1.7346-21.0772c-.5486-2.8916-1.9511-5.7454-2.2743-8.616-.2888-2.5612,1.0193-3.8337,1.9724-6.1638a29.25225,29.25225,0,0,0,1.8445-15.3722c-1.1625-8.2909-4.1672-16.1841-5.613-24.4147-.056.7805-.1011,1.5614-.119,2.3419-.0552,2.4087.4653,4.7937.4447,7.1398-.0505,5.6702-3.3096,9.6941-1.6481,15.3715.8454,2.8886,1.637,5.0738.5933,8.022-.9246,2.6112-3.5178,4.2004-4.3203,6.5908a18.44132,18.44132,0,0,1-2.734-9.1138C27.7468,372.8177,34.6685,367.5139,34.4018,359.7788Z" transform="translate(0 -190.66181)"/><path class="cls-2" d="M691.009,426.0774a45.83228,45.83228,0,0,1-2.0267-8.9881c-.2919-1.9671.5613-4.2126.2268-6.0369-.3017-1.6457-1.5788-3.3416-2.0216-5.1314-.8401-3.3956.4769-5.7767,1.6098-8.9423a18.23752,18.23752,0,0,0,.7112-10.1607,40.0637,40.0637,0,0,0-4.7097-12.068c3.2551-.3976,6.0443-2.5531,6.2676-4.9525.3185-3.4248-3.3058-6.7502-6.585-6.5587.5474,1.9639,1.9502,3.6529.5964,5.7442a4.952,4.952,0,0,1-2.5467,1.7639c-1.0325-1.8657-1.7557-2.8002-4.6924-3.2196a98.09307,98.09307,0,0,0-14.979-.7665c-7.776.0569-16.4203,2.4681-24.0984.4273a57.12262,57.12262,0,0,0-9.9183-2.1241c-3.9452-.3736-7.886.1747-11.8491-.2118-3.2435-.3164-6.3778-.1975-9.4779-1.4393-2.1409-.8574-5.2651-1.2147-6.9913-2.814-1.3967-1.2942-1.0857-3.9594-.1904-5.4412a21.51461,21.51461,0,0,1,2.2548-2.6096,14.53043,14.53043,0,0,1,2.8401-2.5436c.3034-.2042,1.0415-.4788,1.034-.9346-.0172-1.0256-3.4519.2964-3.9224.5115a15.54638,15.54638,0,0,0-4.8497,3.5796c-.9007.9709-1.452,2.7628-2.4586,3.5422-1.4249,1.1033-1.8086-.5957-1.7871-1.7391.0332-1.7696.3847-3.4634.5422-5.2193.137-1.5261.3625-4.1051-.3571-5.5021-1.8429.2301-2.8398,4.6015-3.066,6.0412-.2652,1.688-.5763,3.352-.8046,5.0431-.3126,2.3162-.0396,5.7766-2.6196,6.8944a27.22932,27.22932,0,0,1-5.3916,1.2336c1.6664,1.1656,3.426,1.3918,3.341,3.2597-.0735,1.6191-1.1577,4.2483-1.7073,5.7856-.6482,1.8129-1.9973,2.8995-3.1455,4.5325-1.2805,1.8211-.5036,3.3018-1.1558,5.3061.9839.8294,1.9752,2.3998,3.0643,2.8868,1.4829.6638,3.97-1.1425,5.1143-.3179.9749.7023.3573,3.5802.8104,4.7022.8489,2.103,2.8226,3.6659,3.7693,5.7066.5722-3.0774,3.3895-4.7834,3.5068-8.0321.0806-2.2386-1.0872-4.5394-.3768-6.6781,1.5138.8827,3.3541-.013,5.0603.5015,2.852.86,4.5315,2.7658,6.6617,4.6867,1.8631,1.6802,2.5926,3.4646,4.1202,5.4592a41.99645,41.99645,0,0,0,4.9906,4.9465c2.2286,2.0695,2.6833,4.7256,4.4993,7.0245a17.88959,17.88959,0,0,0,3.3495,3.2569c.6615.432,1.7125.4188,2.4345,1.0231,4.5034,3.7666,4.9659,13.6366,3.3007,18.8255-.5934,1.8492-5.0854,6.0675-4.3566,7.8437.8252,2.0113,5.9476-.0155,7.6095.5781,1.3312-2.2734,1.3499-4.4355,3.2544-6.4664,2.837-3.0253.9883-5.7641.189-9.5918a19.85221,19.85221,0,0,1-.0898-5.9415c.0939-1.1311-.0793-5.7805.8063-6.2508.9078-.4823,5.538,1.2004,6.6187,1.4665,2.5824.6365,4.9606,1.5391,7.6494,1.6498a47.33691,47.33691,0,0,0,10.4675-.6151c3.2427-.627,5.654-2.5072,8.308-4.2319.7873,2.5057,1.0275,5.371,2.4194,7.6418.9031,1.4734,2.541,2.0328,3.4892,3.4045,1.6785,2.4282,1.0583,7.8168.5561,10.6123-.6234,3.4696-4.4113,4.4658-5.672,7.4259-1.0664,2.5028,1.6574,1.6312,3.2999,1.5468,2.2594-.1163,3.132.7357,4.4294-1.1324,1.1782-1.6969,3.07-3.4693,3.3629-5.469.3453-2.3574-.999-5.3058.5095-7.3513a17.54454,17.54454,0,0,1,2.2239,6.955c.0313,2.2851-2.4358,3.8432-2.7474,6.0897-.2492,1.797.8938,1.3969,2.6113,1.5268,3.2476.2453,3.002-.933,5.023-3.3975C691.7105,429.7423,692.2462,429.4383,691.009,426.0774Z" transform="translate(0 -190.66181)"/><path class="cls-2" d="M204.7472,392.6259c-2.0643,0-4.6205-.5987-6.4645.2922-1.479.7145-2.3062,2.1186-3.6197,3.0715-1.7664,1.2814-2.7666,1.4721-3.2624,3.7824-.3152,1.4684.7267,3.3059,1.7179,4.6127,1.7952,2.3667,4.0996,2.2834,6.8017,2.4231.165,3.2925-.3938,5.9804.6548,9.2737.9582,3.0092,3.2735,5.0853,3.88,8.2824.3516,1.8532.4136,3.7217.7831,5.5839.4164,2.0995-.6895,1.6973-2.0496,2.8624-.7336.6284-1.1807,1.6477-.3999,2.299.9931.8282,2.7233-.1356,3.7777-.1293,1.5168.0091,2.6905.9923,4.0278.0097.9923-.729.5687-.7989,1.8335-.9421,1.0651-.1205,2.1797-.0076,3.2388-.2284.7186-.1498,1.3453-.5439,2.0664-.6413-.1642.7252-.6365,2.1325.0677,2.5891a5.47036,5.47036,0,0,0,1.2919-.0706,27.06858,27.06858,0,0,1,2.7172.1961c1.255.1226,5.8135.5828,6.326-.2.5858-.8948-.8545-2.0736-.8872-2.928a4.0328,4.0328,0,0,1,.961-2.1341c1.7625-2.0505,4.4256-2.7924,4.8687-5.9083.2756-1.9373-1.1069-5.381-3.6309-4.4382,1.6041-3.7691-.1575-8.8798-2.7393-11.807-3.724-4.222-8.3479-6.2176-13.7585-7.4256a17.64624,17.64624,0,0,0-.3909-4.118c2.6909-.7712,5.3754-1.1206,7.5303-3.1042,2.374-2.1854,3.8125-5.3208,5.566-7.9361-2.8045-1.4892-6.2623-.3695-8.7275.8876a11.24517,11.24517,0,0,0,2.9979-8.8224c-1.4858.6861-3.15.95-4.6541,1.7049a14.46373,14.46373,0,0,0-6.1134,5.7646C208.0827,387.2808,207.5212,393.3115,204.7472,392.6259Z" transform="translate(0 -190.66181)"/><path class="cls-2" d="M530.8256,393.74c1.1835,3.8319-4.1888,4.8536-6.677,5.3259-3.3038.6272-5.3574,1.1893-7.6796,3.854-3.445,3.9531-5.8025,8.0341-5.7799,13.3943.015,3.5499,1.5945,7.9224,3.2365,11.0796.6442,1.2388,1.7693,2.5763,1.0897,3.9291-.3853.767-2.3971,1.6095-1.7441,2.9846.5427,1.1428,2.6596.5281,3.6068.5651.9176.0358,2.9166.7162,3.7949.2784,1.0228-.5097.3837-1.5738,1.5514-1.3175.5876.129.7301.7911,1.2625,1.0137a10.612,10.612,0,0,0,1.6101.2849,16.91385,16.91385,0,0,0,3.715.463c.7579-.0226,2.5158.3472,3.099-.2092.4663-.4451-.2058-1.0044.494-1.3763.4175-.2219,2.1332.2738,2.6962.291a29.05551,29.05551,0,0,0,6.3024-.0722c3.784-.756-1.2719-5.2727-3.4867-5.3827,1.2983-.9856,1.6181-4.0483,1.682-5.5848a26.21821,26.21821,0,0,0,.0038-3.1789c-.0745-.8843-.6686-1.908-.4427-2.6816.0436-.1495.8628-.7357,1.0176-.9595a7.61067,7.61067,0,0,0,.6623-1.7005,37.33188,37.33188,0,0,0,1.3522-4.7629c.4217-1.9751,1.0776-5.228-.1361-7.0105,2.9702-.0772,8.249-3.0876,6.0854-6.8552-1.8805-3.2746-5.7989-7.685-9.9796-6.5618,2.2673-3.6011.8075-9.9881-1.7515-13.0975-.439-.5334-2.4127-2.8468-3.2969-2.5165-1.0463.3909-.584,3.2987-.5326,4.0678.2373,3.5487.8524,7.5847.8436,10.8834a5.59815,5.59815,0,0,0-2.2965-2.7275,29.67944,29.67944,0,0,0-5.1047-3.6483c-1.9478-.9074-7.3551-2.6356-5.9923,1.1599,1.6573,4.616,4.8822,10.0134,10.4966,10.0429C530.4036,393.5259,530.5625,393.5909,530.8256,393.74Z" transform="translate(0 -190.66181)"/><path class="cls-2" d="M488.9133,380.2678c-1.1694-1.8409-1.8334-4.0258-3.6128-5.3902a5.657,5.657,0,0,0-5.8818-.2931,10.80081,10.80081,0,0,0-4.7863,6.5164c-.5479,2.9422.2931,6.0874.143,9.1389a8.48533,8.48533,0,0,1-2.8324,6.2402c-1.8866,1.7277-3.7623,1.1591-6.2014,1.2787-5.992.2937-11.4864.7996-16.8571,3.5009a19.35317,19.35317,0,0,0-4.1429,2.8014c-.9491.846-1.8193,2.653-2.9496,3.0927-.7926.3083-1.9454-.1322-3.0257.4901a8.68739,8.68739,0,0,0-2.2462,2.2459c-1.1522,1.2888-3.0597,3.0931-5.145,3.3155-2.6653.2844-8.119-.4609-10.2234,1.328.8248,1.2578,5.3232,1.5505,6.8086,1.6075-.8389.2179-2.3147,1.8304-1.5581,3.132.6354,1.093,3.0531.9933,4.0397,1.2327-3.7959,1.4791,2.2037,1.8822,3.1422,2.024a24.60306,24.60306,0,0,1,6.6513,2.2871c1.9444.9237,3.2034,2.3191,5.3325,2.898a9.85351,9.85351,0,0,0,5.4402.0694c.1822,1.6076.0593,3.6097.2644,5.0747-1.1143-.1484-1.547.5225-1.1058,1.4715.3694.7945,1.1995,1.0654,1.8215,1.5928a11.9326,11.9326,0,0,1,3.534,4.2698c.9337-.6016-.347-1.9574.4457-2.4347.7081-.4266,2.2505.329,3.1243-.0241a15.48139,15.48139,0,0,0-2.0607-2.0954c.3968-.4618,2.1564-.9115,1.8511-1.5174-.2155-.428-2.7463-.5012-3.2685-.6765a8.9816,8.9816,0,0,1-1.9722-1.0645c-.7765-.5123-.4997.1231-.6912-.7799a16.78633,16.78633,0,0,1,.1438-4.5226c.243-.0966.4839-.1916.7382-.2985,1.791-.7541,1.5361.0214,3.7029.6467a14.491,14.491,0,0,0,2.184.4631,6.95872,6.95872,0,0,0,.3061,2.645c-.8748.1848-2.087.0748-1.9083,1.2863.1024.6933,1.1566,1.4235,1.6839,1.844,1.4401,1.1488,3.3541,1.8718,4.6576,3.1802.3822-.4386.1803-1.0675.1307-1.6248,1.3899-.1829,2.8757-.6475,4.2439-.7096a21.111,21.111,0,0,0-1.9211-1.6567c.3035-.695,1.2818-.7231,1.4815-1.4715a15.20576,15.20576,0,0,0-3.2942-.2494c-.9656-.0025-2.7893-.5779-3.5306-.2478.0362-.9648.1125-1.9582.2074-2.9517a8.154,8.154,0,0,0,2.5266-.6935,9.87789,9.87789,0,0,0,4.7631-3.9292c.629-1.1263.4929-3.1701,1.2222-4.0321.8472-1.0012,3.6559-1.2998,4.8438-1.8678,2.214-1.0589,3.3374-2.9434,4.3507-5.1196,2.1504-4.6176,1.4687-9.3713,1.7071-14.2546.1039-2.1261.1179-4.262.1995-6.3811.0511-1.3276-.4947-3.5804.2759-4.7275,1.0384-1.5459,3.7905-.3354,4.6804-2.7316a22.99075,22.99075,0,0,0,4.0095.8954c1.2166.0614,1.9779-.4037,3.1322-.3801C493.8309,383.2931,489.755,381.5929,488.9133,380.2678Z" transform="translate(0 -190.66181)"/><path class="cls-2" d="M560.6721,427.2729c4.3991,1.3755,8.875,3.8442,13.4974,4.2708,3.56.3284,6.8309.0654,10.4332.7248,10.0736,1.8441,20.5553,2.8526,30.6043.2877,3.6759-.9383,7.5105-2.3923,11.2737-2.7316,4.6703-.4212,9.3659.5961,14.0601.2862,6.9514-.459,14.3661-3.7152,21.3362-2.9185a74.35752,74.35752,0,0,1,14.4064,2.988c5.506,1.9381,8.9981,1.8198,14.7896,2.0395,4.665.1769,9.5599-1.0732,14.187-.3547a79.0714,79.0714,0,0,0,12.6145,1.0214H750V500H0V432.8865c0-1.8743,29.2178,2.1874,31.3033,2.2283,8.3249.1634,16.0316-1.3436,24.0567-3.2952a159.18678,159.18678,0,0,1,21.6432-3.6922c4.6996-.4534,9.3372.7188,13.9731.1928,6.4839-.7357,12.3988-3.177,19.0547-3.4103,7.3112-.2564,14.5481,1.849,21.8754,1.9927,6.5268.1281,12.8601,1.2919,19.3258,1.3042,3.5091.0067,3.5891.381,6.1927,2.314,2.897,2.1508,4.7793,1.9067,8.413,1.3696,5.9752-.8833,11.6677.7908,17.6956-.3248,6.5819-1.218,14.4906.0855,21.3262-.2427,10.3826-.4984,19.5734-.5191,29.569-4.1084,7.1141-2.5545,15.3048-6.3227,22.8648-6.8984,6.053-.4609,10.8715,3.658,16.6232,4.8648,6.9122,1.4502,13.8341,2.4976,20.8459,3.315,5.6718.6612,10.5559,3.1572,16.3265,3.3313,6.1726.1863,11.4834,3.2602,17.8006,2.6002,2.985-.3118,5.7908-1.2611,8.8655-.9859,3.1534.2822,6.0297,1.4644,9.2931,1.3609,4.2892-.136,8.4788-1.5667,12.7975-1.2925,4.7668.3027,9.0674.9809,13.8317.1229,3.2124-.5785,6.37-1.8959,9.6128-2.2274,7.8697-.8045,15.953,2.6679,24.0603,2.1571,12.9848-.818,25.5717-3.1435,38.6267-2.4037,10.5147.5959,20.2081-.9485,30.5782-1.6012,4.3497-.2737,7.3724,1.1755,11.2668,2.692,3.6998,1.4407,6.9904,1.2823,10.8635.8883,4.1858-.4259,8.5621-1.3207,12.7766-.948,3.3527.2965,6.3368,1.3588,9.7631,1.1069,7.295-.5365,14.4394-3.4212,21.7433-4.3424C548.7171,428.2294,555.0388,425.5115,560.6721,427.2729Z" transform="translate(0 -190.66181)"/></svg>