<svg xmlns="http://www.w3.org/2000/svg" xmlns:xlink="http://www.w3.org/1999/xlink" viewBox="0 0 1829.99996 1785.42857"><defs><style>.cls-1{fill:none;}.cls-2{isolation:isolate;}.cls-3{fill:#f9efe4;}.cls-102,.cls-14,.cls-156,.cls-4{opacity:0.5;}.cls-5{opacity:0.8;}.cls-6{fill:url(#linear-gradient);}.cls-7{fill:url(#linear-gradient-2);}.cls-8{fill:url(#linear-gradient-3);}.cls-9{fill:url(#linear-gradient-4);}.cls-10{fill:url(#linear-gradient-5);}.cls-11{fill:url(#linear-gradient-6);}.cls-104,.cls-105,.cls-106,.cls-108,.cls-12,.cls-121,.cls-125,.cls-127,.cls-133,.cls-151,.cls-153,.cls-156,.cls-16,.cls-18,.cls-19,.cls-21,.cls-23,.cls-25,.cls-29,.cls-37,.cls-38,.cls-46,.cls-47,.cls-48,.cls-53,.cls-58,.cls-60,.cls-62,.cls-64{mix-blend-mode:multiply;}.cls-108,.cls-12,.cls-121,.cls-125,.cls-127,.cls-133,.cls-153,.cls-16,.cls-18,.cls-19,.cls-21,.cls-23,.cls-25,.cls-64{opacity:0.3;}.cls-12{fill:url(#linear-gradient-7);}.cls-13{fill:url(#linear-gradient-8);}.cls-102,.cls-118,.cls-14,.cls-15{fill:#fff;}.cls-16{fill:url(#linear-gradient-9);}.cls-17{fill:url(#linear-gradient-10);}.cls-18{fill:url(#linear-gradient-11);}.cls-19{fill:url(#linear-gradient-12);}.cls-20{fill:url(#linear-gradient-13);}.cls-21{fill:url(#linear-gradient-14);}.cls-22{fill:url(#linear-gradient-15);}.cls-23{fill:#d8dee8;}.cls-24{fill:url(#linear-gradient-16);}.cls-25{fill:url(#linear-gradient-17);}.cls-26{fill:url(#linear-gradient-18);}.cls-27{fill:url(#linear-gradient-19);}.cls-28{fill:url(#linear-gradient-20);}.cls-104,.cls-105,.cls-106,.cls-29,.cls-37,.cls-38,.cls-46,.cls-47,.cls-48{opacity:0.25;}.cls-29{fill:url(#linear-gradient-21);}.cls-30{fill:url(#linear-gradient-22);}.cls-31{fill:url(#linear-gradient-23);}.cls-32{fill:url(#linear-gradient-24);}.cls-33{fill:url(#linear-gradient-25);}.cls-34{fill:url(#linear-gradient-26);}.cls-35{fill:url(#linear-gradient-27);}.cls-36{fill:url(#linear-gradient-28);}.cls-37{fill:url(#linear-gradient-29);}.cls-38{fill:url(#linear-gradient-30);}.cls-39{fill:url(#linear-gradient-31);}.cls-40{fill:url(#linear-gradient-32);}.cls-41{fill:url(#linear-gradient-33);}.cls-42{fill:url(#linear-gradient-34);}.cls-43{fill:url(#linear-gradient-35);}.cls-44{fill:url(#linear-gradient-36);}.cls-45{fill:url(#linear-gradient-37);}.cls-46{fill:url(#linear-gradient-38);}.cls-47{fill:url(#linear-gradient-39);}.cls-48{fill:url(#linear-gradient-40);}.cls-49{fill:url(#linear-gradient-41);}.cls-50{fill:url(#linear-gradient-42);}.cls-51{fill:url(#linear-gradient-43);}.cls-52{fill:url(#linear-gradient-44);}.cls-53{opacity:0.4;}.cls-54{fill:url(#linear-gradient-45);}.cls-55{fill:url(#linear-gradient-46);}.cls-56{fill:url(#linear-gradient-47);}.cls-57{fill:url(#linear-gradient-48);}.cls-151,.cls-58,.cls-60,.cls-62{opacity:0.2;}.cls-58{fill:url(#linear-gradient-49);}.cls-59{fill:url(#linear-gradient-50);}.cls-60{fill:url(#linear-gradient-51);}.cls-61{fill:url(#linear-gradient-52);}.cls-62{fill:url(#linear-gradient-53);}.cls-63{fill:url(#linear-gradient-54);}.cls-64{fill:url(#linear-gradient-55);}.cls-65{fill:url(#linear-gradient-56);}.cls-66{fill:url(#linear-gradient-57);}.cls-67{fill:url(#linear-gradient-58);}.cls-68{fill:url(#linear-gradient-59);}.cls-69{fill:url(#linear-gradient-60);}.cls-70{fill:url(#linear-gradient-61);}.cls-71{fill:url(#linear-gradient-62);}.cls-72{fill:url(#linear-gradient-63);}.cls-73{fill:url(#linear-gradient-64);}.cls-74{fill:url(#linear-gradient-65);}.cls-75{fill:url(#linear-gradient-66);}.cls-76{fill:url(#linear-gradient-67);}.cls-77{fill:url(#linear-gradient-68);}.cls-78{fill:url(#linear-gradient-69);}.cls-79{fill:url(#linear-gradient-70);}.cls-80{fill:url(#linear-gradient-71);}.cls-81{fill:url(#linear-gradient-72);}.cls-82{fill:url(#linear-gradient-73);}.cls-83{fill:url(#linear-gradient-74);}.cls-84{fill:url(#linear-gradient-75);}.cls-85{fill:url(#linear-gradient-76);}.cls-86{fill:url(#linear-gradient-77);}.cls-87{fill:url(#linear-gradient-78);}.cls-88{fill:url(#linear-gradient-79);}.cls-89{fill:url(#linear-gradient-90);}.cls-90{fill:url(#linear-gradient-91);}.cls-91{fill:url(#linear-gradient-92);}.cls-92{fill:url(#linear-gradient-93);}.cls-93{fill:url(#linear-gradient-94);}.cls-94{fill:url(#linear-gradient-95);}.cls-95{fill:url(#linear-gradient-96);}.cls-96{fill:url(#linear-gradient-97);}.cls-97{fill:url(#linear-gradient-98);}.cls-98{fill:url(#linear-gradient-99);}.cls-99{fill:url(#linear-gradient-100);}.cls-100{fill:url(#linear-gradient-101);}.cls-101{fill:url(#linear-gradient-102);}.cls-102,.cls-118{mix-blend-mode:soft-light;}.cls-103{fill:url(#linear-gradient-103);}.cls-104{fill:url(#linear-gradient-104);}.cls-105{fill:url(#linear-gradient-105);}.cls-106{fill:url(#linear-gradient-106);}.cls-107{fill:url(#linear-gradient-107);}.cls-108{fill:url(#linear-gradient-108);}.cls-109{fill:url(#linear-gradient-109);}.cls-110{fill:url(#linear-gradient-110);}.cls-111{fill:url(#linear-gradient-111);}.cls-112{fill:url(#linear-gradient-112);}.cls-113{fill:url(#linear-gradient-113);}.cls-114{fill:url(#linear-gradient-114);}.cls-115{fill:url(#linear-gradient-115);}.cls-116{fill:url(#linear-gradient-116);}.cls-117{fill:url(#linear-gradient-117);}.cls-119{fill:url(#linear-gradient-118);}.cls-120{fill:url(#linear-gradient-119);}.cls-121{fill:url(#linear-gradient-120);}.cls-122{fill:url(#linear-gradient-121);}.cls-123{fill:url(#linear-gradient-122);}.cls-124{fill:url(#linear-gradient-123);}.cls-126{fill:#e6e6e6;}.cls-127{fill:url(#linear-gradient-124);}.cls-128{fill:url(#linear-gradient-125);}.cls-129{fill:url(#linear-gradient-126);}.cls-130{fill:url(#linear-gradient-127);}.cls-131{fill:url(#linear-gradient-128);}.cls-132{fill:url(#linear-gradient-129);}.cls-133{fill:url(#linear-gradient-130);}.cls-134{fill:url(#linear-gradient-131);}.cls-135{fill:url(#linear-gradient-132);}.cls-136{fill:url(#linear-gradient-133);}.cls-137{fill:url(#linear-gradient-137);}.cls-138{fill:url(#linear-gradient-138);}.cls-139{fill:url(#linear-gradient-139);}.cls-140{fill:url(#linear-gradient-140);}.cls-141{fill:url(#linear-gradient-141);}.cls-142{fill:url(#linear-gradient-142);}.cls-143{fill:url(#linear-gradient-143);}.cls-144{fill:url(#linear-gradient-144);}.cls-145{fill:url(#linear-gradient-145);}.cls-146{fill:url(#linear-gradient-146);}.cls-147{fill:url(#linear-gradient-147);}.cls-148{fill:url(#linear-gradient-148);}.cls-149{fill:url(#linear-gradient-149);}.cls-150{fill:url(#linear-gradient-150);}.cls-151{fill:url(#linear-gradient-151);}.cls-152{fill:url(#linear-gradient-152);}.cls-153{fill:url(#linear-gradient-153);}.cls-154{fill:url(#linear-gradient-154);}.cls-155{fill:url(#linear-gradient-155);}.cls-157{fill:url(#linear-gradient-156);}.cls-158{clip-path:url(#clip-path);}.cls-159{fill:url(#linear-gradient-157);}.cls-160{fill:url(#linear-gradient-158);}.cls-161{fill:url(#linear-gradient-159);}</style><linearGradient id="linear-gradient" x1="318.56514" y1="453.65676" x2="300.8718" y2="665.9787" gradientUnits="userSpaceOnUse"><stop offset="0" stop-color="#e4d6ca"/><stop offset="1" stop-color="#d4bdac"/></linearGradient><linearGradient id="linear-gradient-2" x1="623.95281" y1="359.14407" x2="620.41408" y2="649.31734" gradientUnits="userSpaceOnUse"><stop offset="0" stop-color="#d3c5cb"/><stop offset="1" stop-color="#ada0a6"/></linearGradient><linearGradient id="linear-gradient-3" x1="618.88859" y1="359.08185" x2="615.34986" y2="649.25538" xlink:href="#linear-gradient-2"/><linearGradient id="linear-gradient-4" x1="1322.35338" y1="537.30577" x2="1304.66004" y2="749.62771" xlink:href="#linear-gradient"/><linearGradient id="linear-gradient-5" x1="1631.6415" y1="371.43198" x2="1628.10278" y2="661.60525" xlink:href="#linear-gradient-2"/><linearGradient id="linear-gradient-6" x1="1626.57727" y1="371.37095" x2="1623.03854" y2="661.54448" xlink:href="#linear-gradient-2"/><linearGradient id="linear-gradient-7" x1="482.27461" y1="747.37589" x2="511.1828" y2="719.8443" gradientTransform="translate(181.9564 -1.87111) rotate(-2.26954)" gradientUnits="userSpaceOnUse"><stop offset="0" stop-color="#ef9f8e"/><stop offset="1" stop-color="#e68273"/></linearGradient><linearGradient id="linear-gradient-8" x1="671.0145" y1="465.32335" x2="627.46354" y2="1333.42777" gradientTransform="matrix(1, 0, 0, 1, 0, 0)" xlink:href="#linear-gradient-7"/><linearGradient id="linear-gradient-9" x1="517.3894" y1="681.84096" x2="698.08381" y2="681.84096" gradientTransform="matrix(1, 0, 0, 1, 0, 0)" xlink:href="#linear-gradient-7"/><linearGradient id="linear-gradient-10" x1="412.69059" y1="41.77735" x2="577.51611" y2="201.94678" gradientTransform="translate(83.2093 748.8672) rotate(-19.80297)" xlink:href="#linear-gradient-7"/><linearGradient id="linear-gradient-11" x1="423.78717" y1="121.50139" x2="523.29552" y2="121.50139" gradientTransform="translate(83.2093 748.8672) rotate(-19.80297)" xlink:href="#linear-gradient-7"/><linearGradient id="linear-gradient-12" x1="725.4164" y1="785.2805" x2="780.49937" y2="785.2805" gradientUnits="userSpaceOnUse"><stop offset="0" stop-color="#a6b2c7"/><stop offset="1" stop-color="#7595b6"/></linearGradient><linearGradient id="linear-gradient-13" x1="8577.49261" y1="-3468.15294" x2="8742.32835" y2="-3307.97358" gradientTransform="translate(-1921.4712 -8143.9652) rotate(94.63469)" gradientUnits="userSpaceOnUse"><stop offset="0" stop-color="#95afc7"/><stop offset="1" stop-color="#7595b6"/></linearGradient><linearGradient id="linear-gradient-14" x1="8588.58952" y1="-3388.42442" x2="8688.10563" y2="-3388.42442" gradientTransform="translate(-1921.4712 -8143.9652) rotate(94.63469)" xlink:href="#linear-gradient-12"/><linearGradient id="linear-gradient-15" x1="536.82509" y1="840.05945" x2="675.1314" y2="840.05945" gradientTransform="matrix(1, 0, 0, 1, 0, 0)" xlink:href="#linear-gradient-13"/><linearGradient id="linear-gradient-16" x1="598.10321" y1="835.00215" x2="626.22125" y2="835.00215" gradientTransform="matrix(1, 0, 0, 1, 0, 0)" xlink:href="#linear-gradient-13"/><linearGradient id="linear-gradient-17" x1="600.189" y1="834.95697" x2="626.22118" y2="834.95697" xlink:href="#linear-gradient-12"/><linearGradient id="linear-gradient-18" x1="675.8125" y1="465.56383" x2="632.26151" y2="1333.66886" gradientTransform="translate(834.71124 -230.1977) rotate(50.63085)" xlink:href="#linear-gradient-7"/><linearGradient id="linear-gradient-19" x1="2355.01421" y1="2131.29935" x2="1868.03596" y2="970.77173" gradientUnits="userSpaceOnUse"><stop offset="0" stop-color="#96888e"/><stop offset="1" stop-color="#706369"/></linearGradient><linearGradient id="linear-gradient-20" x1="1743.37234" y1="651.65601" x2="1662.93286" y2="2255.06205" xlink:href="#linear-gradient-19"/><linearGradient id="linear-gradient-21" x1="1718.93278" y1="880.02331" x2="1653.58628" y2="2182.57988" xlink:href="#linear-gradient-19"/><linearGradient id="linear-gradient-22" x1="1567.0746" y1="1517.47259" x2="1806.2977" y2="1517.47259" xlink:href="#linear-gradient"/><linearGradient id="linear-gradient-23" x1="1616.75078" y1="1599.26976" x2="1653.2445" y2="1599.26976" xlink:href="#linear-gradient"/><linearGradient id="linear-gradient-24" x1="1678.9374" y1="1595.21269" x2="1712.44944" y2="1595.21269" xlink:href="#linear-gradient"/><linearGradient id="linear-gradient-25" x1="1101.58541" y1="828.97198" x2="1032.60475" y2="2203.9685" xlink:href="#linear-gradient-19"/><linearGradient id="linear-gradient-26" x1="1910.2443" y1="2448.09131" x2="1328.38715" y2="1078.83011" xlink:href="#linear-gradient-19"/><linearGradient id="linear-gradient-27" x1="1538.59447" y1="2605.99745" x2="956.75155" y2="1236.76975" xlink:href="#linear-gradient-19"/><linearGradient id="linear-gradient-28" x1="1072.3956" y1="1898.05467" x2="1073.6277" y2="1898.05467" gradientUnits="userSpaceOnUse"><stop offset="0" stop-color="#5d535a"/><stop offset="1" stop-color="#464143"/></linearGradient><linearGradient id="linear-gradient-29" x1="835.22929" y1="1429.68662" x2="1202.36984" y2="1429.68662" xlink:href="#linear-gradient-19"/><linearGradient id="linear-gradient-30" x1="1214.67482" y1="1509.25145" x2="1724.92104" y2="1509.25145" xlink:href="#linear-gradient-19"/><linearGradient id="linear-gradient-31" x1="2143.01933" y1="2349.15365" x2="1561.17464" y2="979.9218" xlink:href="#linear-gradient-19"/><linearGradient id="linear-gradient-32" x1="848.07004" y1="601.52739" x2="669.40591" y2="992.05899" xlink:href="#linear-gradient-19"/><linearGradient id="linear-gradient-33" x1="1116.30549" y1="724.1711" x2="937.64482" y2="1114.69513" xlink:href="#linear-gradient-19"/><linearGradient id="linear-gradient-34" x1="1143.50666" y1="2199.1421" x2="754.55584" y2="760.34211" xlink:href="#linear-gradient-19"/><linearGradient id="linear-gradient-35" x1="759.05538" y1="1209.55666" x2="782.37033" y2="533.41167" xlink:href="#linear-gradient-2"/><linearGradient id="linear-gradient-36" x1="920.79466" y1="1215.13371" x2="944.10958" y2="538.98931" xlink:href="#linear-gradient-2"/><linearGradient id="linear-gradient-37" x1="2051.81959" y1="1568.2119" x2="2050.04089" y2="1702.2101" xlink:href="#linear-gradient-28"/><linearGradient id="linear-gradient-38" x1="1425.21788" y1="1083.31156" x2="1422.18416" y2="1311.8574" xlink:href="#linear-gradient-19"/><linearGradient id="linear-gradient-39" x1="1740.60229" y1="1195.54693" x2="1738.22126" y2="1374.9229" xlink:href="#linear-gradient-19"/><linearGradient id="linear-gradient-40" x1="1099.02474" y1="1173.15135" x2="1097.07112" y2="1320.32801" xlink:href="#linear-gradient-19"/><linearGradient id="linear-gradient-41" x1="1235.07696" y1="1973.33868" x2="1531.17286" y2="1973.33868" gradientUnits="userSpaceOnUse"><stop offset="0" stop-color="#799b91"/><stop offset="1" stop-color="#3e6764"/></linearGradient><linearGradient id="linear-gradient-42" x1="-455.51867" y1="1860.57991" x2="-426.3" y2="2149.8442" gradientTransform="matrix(-0.7683, -0.6401, -0.6401, 0.7683, 2352.0346, 117.7389)" gradientUnits="userSpaceOnUse"><stop offset="0" stop-color="#46736e"/><stop offset="0.9964" stop-color="#2f4f4f"/></linearGradient><linearGradient id="linear-gradient-43" x1="1154.36826" y1="1663.35117" x2="1369.04948" y2="1889.57402" xlink:href="#linear-gradient-41"/><linearGradient id="linear-gradient-44" x1="1241.98559" y1="1753.1072" x2="1791.00925" y2="1753.1072" xlink:href="#linear-gradient-41"/><linearGradient id="linear-gradient-45" x1="-528.31362" y1="1601.14491" x2="-154.79494" y2="1601.14491" xlink:href="#linear-gradient-42"/><linearGradient id="linear-gradient-46" x1="-667.51452" y1="1900.65314" x2="-108.19277" y2="1900.65314" xlink:href="#linear-gradient-42"/><linearGradient id="linear-gradient-47" x1="-590.05339" y1="1982.05174" x2="813.00644" y2="1168.32066" xlink:href="#linear-gradient-42"/><linearGradient id="linear-gradient-48" x1="1616.3587" y1="1714.10128" x2="1811.41845" y2="1760.26933" xlink:href="#linear-gradient-41"/><linearGradient id="linear-gradient-49" x1="-654.89155" y1="1657.97763" x2="-442.57442" y2="1657.97763" gradientTransform="matrix(-0.7683, -0.6401, -0.6401, 0.7683, 2352.0346, 117.7389)" xlink:href="#linear-gradient-41"/><linearGradient id="linear-gradient-50" x1="1483.80519" y1="1843.01132" x2="1124.84974" y2="1881.10014" xlink:href="#linear-gradient-41"/><linearGradient id="linear-gradient-51" x1="-431.32155" y1="2061.43153" x2="-159.70439" y2="2061.43153" gradientTransform="matrix(-0.7683, -0.6401, -0.6401, 0.7683, 2352.0346, 117.7389)" xlink:href="#linear-gradient-41"/><linearGradient id="linear-gradient-52" x1="1476.24544" y1="1786.19698" x2="1560.50205" y2="1549.58605" xlink:href="#linear-gradient-41"/><linearGradient id="linear-gradient-53" x1="-513.90789" y1="1736.65957" x2="-202.75963" y2="1736.65957" gradientTransform="matrix(-0.7683, -0.6401, -0.6401, 0.7683, 2352.0346, 117.7389)" xlink:href="#linear-gradient-41"/><linearGradient id="linear-gradient-54" x1="-628.08355" y1="1853.50572" x2="-632.77218" y2="2145.38371" gradientTransform="matrix(-0.7683, -0.6401, -0.6401, 0.7683, 2352.0346, 117.7389)" xlink:href="#linear-gradient-41"/><linearGradient id="linear-gradient-55" x1="1100.28984" y1="632.7544" x2="1132.77554" y2="601.81565" xlink:href="#linear-gradient-7"/><linearGradient id="linear-gradient-56" x1="1281.22096" y1="294.08389" x2="1232.28037" y2="1269.62021" gradientTransform="matrix(1, 0, 0, 1, 0, 0)" xlink:href="#linear-gradient-7"/><linearGradient id="linear-gradient-57" x1="5931.31445" y1="-281.51592" x2="5986.50802" y2="-172.56232" gradientTransform="translate(-3614.8928 -2506.453) rotate(34.57993)" xlink:href="#linear-gradient-19"/><linearGradient id="linear-gradient-58" x1="5911.65572" y1="-275.91555" x2="5964.00238" y2="-172.58182" gradientTransform="translate(-3614.8928 -2506.453) rotate(34.57993)" xlink:href="#linear-gradient-19"/><linearGradient id="linear-gradient-59" x1="5892.1755" y1="-268.08674" x2="5942.55856" y2="-168.62921" gradientTransform="translate(-3614.8928 -2506.453) rotate(34.57993)" xlink:href="#linear-gradient-19"/><linearGradient id="linear-gradient-60" x1="5873.97425" y1="-255.92928" x2="5915.49534" y2="-173.96551" gradientTransform="translate(-3614.8928 -2506.453) rotate(34.57993)" xlink:href="#linear-gradient-19"/><linearGradient id="linear-gradient-61" x1="5839.32088" y1="-213.70096" x2="5876.89869" y2="-213.70096" gradientTransform="translate(-3614.8928 -2506.453) rotate(34.57993)" xlink:href="#linear-gradient-19"/><linearGradient id="linear-gradient-62" x1="5788.86914" y1="-214.07685" x2="5806.52028" y2="-179.23301" gradientTransform="translate(-3614.8928 -2506.453) rotate(34.57993)" xlink:href="#linear-gradient-19"/><linearGradient id="linear-gradient-63" x1="5810.47524" y1="-207.27293" x2="5817.77769" y2="-192.85768" gradientTransform="translate(-3614.8928 -2506.453) rotate(34.57993)" xlink:href="#linear-gradient-19"/><linearGradient id="linear-gradient-64" x1="5755.56794" y1="-220.97257" x2="5787.11638" y2="-158.69509" gradientTransform="translate(-3614.8928 -2506.453) rotate(34.57993)" xlink:href="#linear-gradient-19"/><linearGradient id="linear-gradient-65" x1="5722.01152" y1="-229.31824" x2="5766.72751" y2="-141.04766" gradientTransform="translate(-3614.8928 -2506.453) rotate(34.57993)" xlink:href="#linear-gradient-19"/><linearGradient id="linear-gradient-66" x1="5687.59403" y1="-233.83932" x2="5742.85854" y2="-124.74567" gradientTransform="translate(-3614.8928 -2506.453) rotate(34.57993)" xlink:href="#linear-gradient-19"/><linearGradient id="linear-gradient-67" x1="5656.1834" y1="-234.88921" x2="5717.22344" y2="-114.39451" gradientTransform="translate(-3614.8928 -2506.453) rotate(34.57993)" xlink:href="#linear-gradient-19"/><linearGradient id="linear-gradient-68" x1="5625.52595" y1="-227.02761" x2="5689.59505" y2="-100.55347" gradientTransform="translate(-3614.8928 -2506.453) rotate(34.57993)" xlink:href="#linear-gradient-19"/><linearGradient id="linear-gradient-69" x1="5930.69793" y1="-284.70497" x2="5955.50048" y2="-284.70497" gradientTransform="translate(3416.83872 -4980.07685) rotate(112.14368)" gradientUnits="userSpaceOnUse"><stop offset="0" stop-color="#cbaf85"/><stop offset="1" stop-color="#ba7c44"/></linearGradient><linearGradient id="linear-gradient-70" x1="5904.34529" y1="-275.71386" x2="5929.14781" y2="-275.71386" gradientTransform="translate(-3614.8928 -2506.453) rotate(34.57993)" xlink:href="#linear-gradient-69"/><linearGradient id="linear-gradient-71" x1="5877.06254" y1="-263.93247" x2="5901.86509" y2="-263.93247" gradientTransform="translate(-3614.8928 -2506.453) rotate(34.57993)" xlink:href="#linear-gradient-69"/><linearGradient id="linear-gradient-72" x1="5852.26005" y1="-248.43068" x2="5877.06262" y2="-248.43068" gradientTransform="translate(-3614.8928 -2506.453) rotate(34.57993)" xlink:href="#linear-gradient-69"/><linearGradient id="linear-gradient-73" x1="5829.93784" y1="-229.8286" x2="5854.74047" y2="-229.8286" gradientTransform="translate(2985.64657 -4986.4676) rotate(108.74028)" xlink:href="#linear-gradient-69"/><linearGradient id="linear-gradient-74" x1="5810.71603" y1="-209.98644" x2="5835.51865" y2="-209.98644" gradientTransform="matrix(0.45538, 0.89038, -0.89038, 0.45538, -1539.67141, -4463.33807)" xlink:href="#linear-gradient-69"/><linearGradient id="linear-gradient-75" x1="5789.63396" y1="-188.28405" x2="5814.43651" y2="-188.28405" gradientTransform="translate(-3614.8928 -2506.453) rotate(34.57993)" xlink:href="#linear-gradient-69"/><linearGradient id="linear-gradient-76" x1="5768.55199" y1="-169.06187" x2="5793.35453" y2="-169.06187" gradientTransform="translate(-3614.8928 -2506.453) rotate(34.57993)" xlink:href="#linear-gradient-69"/><linearGradient id="linear-gradient-77" x1="5745.60973" y1="-147.0495" x2="5773.51263" y2="-147.0495" gradientTransform="translate(-1875.28193 -4224.02933) rotate(59.07546)" xlink:href="#linear-gradient-69"/><linearGradient id="linear-gradient-78" x1="5727.00795" y1="-130.30761" x2="5754.91079" y2="-130.30761" gradientTransform="translate(-3614.8928 -2506.453) rotate(34.57993)" xlink:href="#linear-gradient-69"/><linearGradient id="linear-gradient-79" x1="5707.16595" y1="-116.04599" x2="5735.06887" y2="-116.04599" gradientTransform="matrix(0.51543, 0.85703, -0.85703, 0.51543, -1886.51967, -4198.03438)" xlink:href="#linear-gradient-69"/><linearGradient id="linear-gradient-90" x1="1408.50017" y1="725.16939" x2="1499.97165" y2="458.00002" gradientTransform="translate(1747.67536 -910.23038) rotate(77.56375)" xlink:href="#linear-gradient-2"/><linearGradient id="linear-gradient-91" x1="1382.19498" y1="716.16342" x2="1473.66656" y2="448.99374" xlink:href="#linear-gradient-2"/><linearGradient id="linear-gradient-92" x1="1354.32906" y1="706.62291" x2="1445.8005" y2="439.45364" xlink:href="#linear-gradient-2"/><linearGradient id="linear-gradient-93" x1="1327.77127" y1="697.53006" x2="1419.24283" y2="430.36047" xlink:href="#linear-gradient-2"/><linearGradient id="linear-gradient-94" x1="1302.67999" y1="688.93962" x2="1394.15154" y2="421.77003" gradientTransform="translate(1561.0356 -824.70834) rotate(74.16036)" xlink:href="#linear-gradient-2"/><linearGradient id="linear-gradient-95" x1="1280.09595" y1="681.20734" x2="1371.56753" y2="414.03768" gradientTransform="translate(452.63898 -541.54564) rotate(28.33275)" xlink:href="#linear-gradient-2"/><linearGradient id="linear-gradient-96" x1="1255.34159" y1="672.73217" x2="1346.81314" y2="405.5626" xlink:href="#linear-gradient-2"/><linearGradient id="linear-gradient-97" x1="1231.22149" y1="664.47424" x2="1322.69327" y2="397.30399" xlink:href="#linear-gradient-2"/><linearGradient id="linear-gradient-98" x1="1206.10547" y1="655.87514" x2="1297.57661" y2="388.70677" gradientTransform="translate(375.0162 -444.35805) rotate(24.49553)" xlink:href="#linear-gradient-2"/><linearGradient id="linear-gradient-99" x1="1184.87897" y1="648.6078" x2="1276.35" y2="381.43974" xlink:href="#linear-gradient-2"/><linearGradient id="linear-gradient-100" x1="1163.15704" y1="641.1708" x2="1254.62806" y2="374.00277" gradientTransform="translate(370.28156 -422.24244) rotate(24.3969)" xlink:href="#linear-gradient-2"/><linearGradient id="linear-gradient-101" x1="1138.36311" y1="632.68204" x2="1229.83462" y2="365.51257" gradientTransform="translate(814.80685 -621.71602) rotate(46.27098)" xlink:href="#linear-gradient-2"/><linearGradient id="linear-gradient-102" x1="1114.83764" y1="624.62755" x2="1206.30911" y2="357.4582" gradientTransform="translate(1371.35891 -617.42223) rotate(71.94999)" xlink:href="#linear-gradient-2"/><linearGradient id="linear-gradient-103" x1="1286.61272" y1="294.35409" x2="1237.67209" y2="1269.89115" gradientTransform="matrix(0.63431, 0.77308, -0.77308, 0.63431, 953.88777, -749.90222)" xlink:href="#linear-gradient-7"/><linearGradient id="linear-gradient-104" x1="1082.837" y1="2024.28564" x2="1246.99231" y2="2024.28564" xlink:href="#linear-gradient-19"/><linearGradient id="linear-gradient-105" x1="1204.4039" y1="2063.62406" x2="1374.93412" y2="2063.62406" xlink:href="#linear-gradient-19"/><linearGradient id="linear-gradient-106" x1="1041.67168" y1="2098.01434" x2="1221.40493" y2="2098.01434" xlink:href="#linear-gradient-19"/><linearGradient id="linear-gradient-107" x1="1680.56479" y1="794.8662" x2="1709.47297" y2="767.33461" xlink:href="#linear-gradient-7"/><linearGradient id="linear-gradient-108" x1="1870.22665" y1="465.32335" x2="1826.6757" y2="1333.42776" gradientTransform="matrix(1, 0, 0, 1, 0, 0)" xlink:href="#linear-gradient-7"/><linearGradient id="linear-gradient-109" x1="5274.01387" y1="-1654.34673" x2="5317.04759" y2="-1654.34673" gradientTransform="matrix(-0.00004, 0.99995, -0.99995, -0.00004, 269.16169, -4399.30562)" xlink:href="#linear-gradient-28"/><linearGradient id="linear-gradient-110" x1="5289.68206" y1="-1653.96943" x2="5410.8302" y2="-1670.34079" gradientTransform="matrix(-0.00004, 0.99995, -0.99995, -0.00004, 267.73769, -4398.94614)" xlink:href="#linear-gradient-19"/><linearGradient id="linear-gradient-111" x1="5181.62855" y1="-1654.34422" x2="5296.71372" y2="-1654.34422" gradientTransform="translate(-2056.2209 -2969.2638) rotate(61.5153)" xlink:href="#linear-gradient-28"/><linearGradient id="linear-gradient-112" x1="5191.21127" y1="-1654.98902" x2="5229.87915" y2="-1654.98902" gradientTransform="translate(228.58454 -4389.33513) rotate(90.00255)" gradientUnits="userSpaceOnUse"><stop offset="0" stop-color="#86a1c3"/><stop offset="0.9964" stop-color="#415b7e"/></linearGradient><linearGradient id="linear-gradient-113" x1="5154.85026" y1="-1716.64134" x2="5069.22142" y2="-1516.63258" gradientTransform="translate(-2056.2209 -2969.2638) rotate(61.5153)" xlink:href="#linear-gradient-13"/><linearGradient id="linear-gradient-114" x1="4924.74719" y1="-1654.97915" x2="5046.36244" y2="-1654.97915" gradientTransform="translate(-2056.2209 -2969.2638) rotate(61.5153)" xlink:href="#linear-gradient-19"/><linearGradient id="linear-gradient-115" x1="1796.14999" y1="676.72333" x2="1813.75573" y2="676.72333" xlink:href="#linear-gradient-2"/><linearGradient id="linear-gradient-116" x1="1797.18644" y1="676.3122" x2="1812.27316" y2="676.3122" xlink:href="#linear-gradient-2"/><linearGradient id="linear-gradient-117" x1="1786.80712" y1="662.66311" x2="1807.25598" y2="662.66311" gradientTransform="translate(533.64682 -776.88674) rotate(28.48734)" xlink:href="#linear-gradient-2"/><linearGradient id="linear-gradient-118" x1="1875.02465" y1="465.56383" x2="1831.47366" y2="1333.66886" gradientTransform="translate(1273.25003 -1157.28014) rotate(50.63097)" xlink:href="#linear-gradient-7"/><linearGradient id="linear-gradient-119" x1="624.38542" y1="1380.8455" x2="644.1978" y2="1194.91285" gradientUnits="userSpaceOnUse"><stop offset="0.0036" stop-color="#ebeff2"/><stop offset="1" stop-color="#fff"/></linearGradient><linearGradient id="linear-gradient-120" x1="566.56566" y1="1158.84075" x2="697.49731" y2="1484.40061" xlink:href="#linear-gradient-12"/><linearGradient id="linear-gradient-121" x1="306.23218" y1="1365.05799" x2="531.72128" y2="1365.05799" gradientTransform="matrix(1, 0, 0, 1, 0, 0)" xlink:href="#linear-gradient-13"/><linearGradient id="linear-gradient-122" x1="688.1149" y1="1769.60213" x2="842.79063" y2="1778.12756" xlink:href="#linear-gradient-119"/><linearGradient id="linear-gradient-123" x1="152.49335" y1="1210.07473" x2="420.38173" y2="1671.82929" gradientTransform="matrix(1, 0, 0, 1, 0, 0)" xlink:href="#linear-gradient-13"/><linearGradient id="linear-gradient-124" x1="416.0042" y1="1933.45363" x2="641.35" y2="1933.45363" xlink:href="#linear-gradient-12"/><linearGradient id="linear-gradient-125" x1="438.9039" y1="1716.1778" x2="527.8799" y2="1716.1778" xlink:href="#linear-gradient-119"/><linearGradient id="linear-gradient-126" x1="438.9039" y1="1643.79645" x2="527.8799" y2="1643.79645" xlink:href="#linear-gradient-119"/><linearGradient id="linear-gradient-127" x1="438.9039" y1="1584.6122" x2="527.8799" y2="1584.6122" xlink:href="#linear-gradient-119"/><linearGradient id="linear-gradient-128" x1="438.9039" y1="1506.5808" x2="527.8799" y2="1506.5808" xlink:href="#linear-gradient-119"/><linearGradient id="linear-gradient-129" x1="352.88508" y1="1057.02454" x2="368.71792" y2="908.43855" xlink:href="#linear-gradient-119"/><linearGradient id="linear-gradient-130" x1="183.04898" y1="1008.73599" x2="306.35008" y2="1008.73599" xlink:href="#linear-gradient-12"/><linearGradient id="linear-gradient-131" x1="922.67024" y1="1921.90226" x2="922.68235" y2="1923.18603" gradientUnits="userSpaceOnUse"><stop offset="0" stop-color="#f6af9a"/><stop offset="0.9964" stop-color="#f89f8a"/></linearGradient><linearGradient id="linear-gradient-132" x1="922.58918" y1="1921.84595" x2="922.59803" y2="1922.7842" xlink:href="#linear-gradient-131"/><linearGradient id="linear-gradient-133" x1="980.09485" y1="1565.39879" x2="984.25285" y2="2006.15525" xlink:href="#linear-gradient-131"/><linearGradient id="linear-gradient-137" x1="-1199.49533" y1="1428.57236" x2="-1245.25571" y2="1601.93381" gradientTransform="matrix(0.9058, -0.4237, 0.4237, 0.9058, 1394.2163, -12.8356)" xlink:href="#linear-gradient-69"/><linearGradient id="linear-gradient-138" x1="869.86949" y1="1928.94236" x2="869.8816" y2="1930.22614" xlink:href="#linear-gradient-131"/><linearGradient id="linear-gradient-139" x1="869.78838" y1="1928.88605" x2="869.79723" y2="1929.8243" xlink:href="#linear-gradient-131"/><linearGradient id="linear-gradient-140" x1="927.29411" y1="1572.43889" x2="931.45211" y2="2013.19535" xlink:href="#linear-gradient-131"/><linearGradient id="linear-gradient-141" x1="721.67385" y1="1637.27064" x2="968.46581" y2="1953.58099" gradientTransform="matrix(1, 0, 0, 1, 0, 0)" xlink:href="#linear-gradient-69"/><linearGradient id="linear-gradient-142" x1="1185.93089" y1="1406.59991" x2="1183.83691" y2="1448.33941" gradientTransform="matrix(1, 0, 0, 1, 0, 0)" xlink:href="#linear-gradient-7"/><linearGradient id="linear-gradient-143" x1="1172.70071" y1="1307.32554" x2="1168.65252" y2="1388.01843" gradientTransform="matrix(1, 0, 0, 1, 0, 0)" xlink:href="#linear-gradient-7"/><linearGradient id="linear-gradient-144" x1="1211.78712" y1="1384.20978" x2="1210.19643" y2="1415.91711" xlink:href="#linear-gradient"/><linearGradient id="linear-gradient-145" x1="1550.80221" y1="1907.12636" x2="535.82959" y2="1375.30858" gradientTransform="matrix(1, 0, 0, 1, 0, 0)" xlink:href="#linear-gradient-69"/><linearGradient id="linear-gradient-146" x1="1329.73847" y1="1506.28516" x2="857.00989" y2="1673.13022" gradientTransform="matrix(1, 0, 0, 1, 0, 0)" xlink:href="#linear-gradient-69"/><linearGradient id="linear-gradient-147" x1="1454.69918" y1="1051.65853" x2="936.78413" y2="1719.03786" gradientTransform="matrix(1, 0, 0, 1, 0, 0)" xlink:href="#linear-gradient-69"/><linearGradient id="linear-gradient-148" x1="1749.41165" y1="1703.31657" x2="1880.3324" y2="2038.41086" gradientTransform="matrix(1, 0, 0, 1, 0, 0)" xlink:href="#linear-gradient-7"/><linearGradient id="linear-gradient-149" x1="1687.73454" y1="1727.41343" x2="1818.65497" y2="2062.50689" gradientTransform="matrix(1, 0, 0, 1, 0, 0)" xlink:href="#linear-gradient-7"/><linearGradient id="linear-gradient-150" x1="1807.83507" y1="1696.99149" x2="1891.87066" y2="1696.99149" gradientTransform="matrix(1, 0, 0, 1, 0, 0)" xlink:href="#linear-gradient-42"/><linearGradient id="linear-gradient-151" x1="1823.60302" y1="1697.021" x2="1891.87066" y2="1697.021" gradientTransform="matrix(1, 0, 0, 1, 0, 0)" xlink:href="#linear-gradient-42"/><linearGradient id="linear-gradient-152" x1="1766.41577" y1="1720.36736" x2="1827.83449" y2="1720.36736" gradientTransform="matrix(1, 0, 0, 1, 0, 0)" xlink:href="#linear-gradient-69"/><linearGradient id="linear-gradient-153" x1="1766.4324" y1="1687.17831" x2="1792.08725" y2="1687.17831" gradientTransform="matrix(1, 0, 0, 1, 0, 0)" xlink:href="#linear-gradient-69"/><linearGradient id="linear-gradient-154" x1="1933.52383" y1="1990.64063" x2="1849.37752" y2="1635.3553" xlink:href="#linear-gradient"/><linearGradient id="linear-gradient-155" x1="1894.7876" y1="1862.43007" x2="1918.16621" y2="2019.06758" gradientUnits="userSpaceOnUse"><stop offset="0" stop-color="#956f53"/><stop offset="1" stop-color="#71482f"/></linearGradient><linearGradient id="linear-gradient-156" x1="1914.86024" y1="1995.0611" x2="1830.71388" y2="1639.77555" xlink:href="#linear-gradient"/><clipPath id="clip-path" transform="translate(-335.00002 -357.28571)"><path class="cls-1" d="M1834.3309,1762.8967s64.2914-35.4576,110.2695-12.8583c45.978,22.5994,128.3879,15.0014,140.0772,90.2028,10.9397,70.3788.7793,246.2554-237.8781,221.9026,0,0,31.1716-71.305,29.613-144.9478C1874.854,1843.5532,1864.7232,1776.1446,1834.3309,1762.8967Z"/></clipPath><linearGradient id="linear-gradient-157" x1="2085.68699" y1="2138.30445" x2="1931.41896" y2="1902.22736" gradientUnits="userSpaceOnUse"><stop offset="0" stop-color="#f3e9e1"/><stop offset="1" stop-color="#e1d1c5"/></linearGradient><linearGradient id="linear-gradient-158" x1="1827.3173" y1="1925.82392" x2="2085.3749" y2="1925.82392" gradientTransform="matrix(1, 0, 0, 1, 0, 0)" xlink:href="#linear-gradient-7"/><linearGradient id="linear-gradient-159" x1="1935.13734" y1="1856.40768" x2="1958.51591" y2="2013.04496" xlink:href="#linear-gradient-155"/></defs><g class="cls-2"><g id="Illustration"><path class="cls-3" d="M1278.4741,357.6933c-468.4723-13.8335-874.268,326.0881-935.5769,772.1081-67.032,487.6621,301.9048,926.4407,755.8663,996.7175,564.652,87.4132,1112.3319-418.2801,1063.1559-966.8819C2124.8699,746.3137,1754.6855,371.7552,1278.4741,357.6933Z" transform="translate(-335.00002 -357.28571)"/><g class="cls-4"><g class="cls-5"><polygon class="cls-6" points="387.566 698.055 183.281 695.594 78.292 885.89 183.281 1075.188 387.566 1070.785 486.962 883.948 387.566 698.055"/><polygon class="cls-7" points="713.758 907.513 521.413 908.868 422.641 1095.339 521.413 1277.101 713.758 1269.285 807.42 1086.166 713.758 907.513"/><polygon class="cls-8" points="713.758 495.962 521.413 489.965 422.641 672.661 521.413 858.198 713.758 857.733 807.42 678.194 713.758 495.962"/></g><g class="cls-5"><polygon class="cls-9" points="1394.903 739.108 1190.619 736.647 1085.629 926.943 1190.619 1116.241 1394.903 1111.838 1494.3 925 1394.903 739.108"/><polygon class="cls-10" points="1721.095 948.566 1528.751 949.921 1429.979 1136.392 1528.751 1318.154 1721.095 1310.338 1814.758 1127.219 1721.095 948.566"/><polygon class="cls-11" points="1721.095 537.014 1528.751 531.018 1429.979 713.714 1528.751 899.251 1721.095 898.786 1814.758 719.247 1721.095 537.014"/></g></g><path class="cls-12" d="M882.5973,760.0138c4.8728,122.8305-91.1976,225.3108-215.7053,228.9288-125.769,3.6547-232.6869-94.7632-237.6494-219.8561C424.28,643.9935,523.2258,541.4558,649.085,540.0749,773.682,538.7077,877.7245,637.1833,882.5973,760.0138Z" transform="translate(-335.00002 -357.28571)"/><path class="cls-13" d="M877.9138,760.1075c4.7712,120.2693-89.307,220.5944-211.2091,224.1134-123.1109,3.5541-227.7491-92.7941-232.6063-215.2316-4.8573-122.4375,91.9765-222.8176,215.1739-224.1928C771.26,543.4348,873.1426,639.8382,877.9138,760.1075Z" transform="translate(-335.00002 -357.28571)"/><path class="cls-14" d="M855.2698,760.5607c4.2799,107.886-80.1598,197.8019-189.4697,200.857C555.5192,964.5,461.8718,878.1481,457.5228,768.5206c-4.349-109.6276,82.3039-199.5877,192.6541-200.9209C759.5556,566.2784,850.9898,652.6746,855.2698,760.5607Z" transform="translate(-335.00002 -357.28571)"/><path class="cls-15" d="M646.4351,618.9254l-57.203,20.5973c17.5315,19.8807,28.715,43.865,34.2987,69.6737l49.0491-17.6613a38.70008,38.70008,0,0,0,23.2325-49.3772h0A38.70022,38.70022,0,0,0,646.4351,618.9254Z" transform="translate(-335.00002 -357.28571)"/><path class="cls-16" d="M651.4855,666.9235c-6.1261,9.0244-17.504,10.5643-25.6528,9.2369-18.6217-4.375-42.5853-9.3834-55.2301,2.8405-15.0634,14.7649-32.016,24.2842-53.2132,24.3557.2548.9156.5325,1.8292.8594,2.7371a38.70014,38.70014,0,0,0,49.3773,23.2325l104.9538-37.7911a38.70008,38.70008,0,0,0,23.2325-49.3772,38.27275,38.27275,0,0,0-5.4426-10.0736A108.90035,108.90035,0,0,0,651.4855,666.9235Z" transform="translate(-335.00002 -357.28571)"/><path class="cls-17" d="M589.2321,639.5227l-47.7508,17.1938a38.70012,38.70012,0,0,0-23.2325,49.3772h0a38.70014,38.70014,0,0,0,49.3773,23.2325l55.9047-20.1298C617.9471,683.3877,606.7636,659.4034,589.2321,639.5227Z" transform="translate(-335.00002 -357.28571)"/><path class="cls-18" d="M611.2975,673.0709c-15.2408-2.7076-31.1755-3.2726-40.6949,5.93-15.0634,14.7649-32.016,24.2842-53.2132,24.3557q.1761.6333.3713,1.2647c.155.4918.312.9832.4881,1.4724a38.70014,38.70014,0,0,0,49.3773,23.2325l55.9047-20.1298A164.52609,164.52609,0,0,0,611.2975,673.0709Z" transform="translate(-335.00002 -357.28571)"/><path class="cls-15" d="M802.4641,843.9898l4.9098-60.5997c-25.3521,7.7376-51.8142,7.9982-77.6211,2.4059l-4.2099,51.9617a38.70009,38.70009,0,0,0,35.3445,41.5767h0A38.70014,38.70014,0,0,0,802.4641,843.9898Z" transform="translate(-335.00002 -357.28571)"/><path class="cls-19" d="M756.6759,828.7332c-5.682-9.3103-2.3775-20.3062,2.2018-27.176,11.686-15.1441,26.1585-34.8896,20.26-51.4584-7.2114-19.8217-8.8656-39.1937-.1625-58.522-.9389-.1467-1.8856-.2718-2.8474-.3497a38.70014,38.70014,0,0,0-41.5767,35.3446l-9.0082,111.186a38.70009,38.70009,0,0,0,35.3445,41.5767,38.27064,38.27064,0,0,0,11.4228-.7882A108.90174,108.90174,0,0,0,756.6759,828.7332Z" transform="translate(-335.00002 -357.28571)"/><path class="cls-20" d="M807.3739,783.3901l4.0984-50.5863a38.70009,38.70009,0,0,0-35.3445-41.5767h0a38.70014,38.70014,0,0,0-41.5767,35.3446l-4.7983,59.2243C755.5597,791.3883,782.0218,791.1277,807.3739,783.3901Z" transform="translate(-335.00002 -357.28571)"/><path class="cls-21" d="M767.703,789.6018c8.7695-12.7557,15.8754-27.0295,11.4347-39.503-7.2114-19.8217-8.8656-39.1937-.1625-58.522q-.64935-.1014-1.3049-.185c-.5119-.0623-1.0242-.1227-1.5425-.1647a38.70014,38.70014,0,0,0-41.5767,35.3446l-4.7983,59.2243A164.52524,164.52524,0,0,0,767.703,789.6018Z" transform="translate(-335.00002 -357.28571)"/><path class="cls-22" d="M674.3584,839.6071c6.0205,34.9103-24.0053,64.4615-59.4925,67.8052-36.119,3.4034-70.9136-23.0123-77.1294-59.0562-6.2159-36.0441,20.1016-73.5828,56.4177-75.8427C629.8351,770.2929,668.3379,804.6966,674.3584,839.6071Z" transform="translate(-335.00002 -357.28571)"/><path class="cls-15" d="M676.3152,830.898c6.0205,34.9104-17.4147,65.879-52.9017,69.2229-36.1191,3.4034-70.9137-23.0122-77.1295-59.0563-6.216-36.0441,18.6631-67.1253,54.9793-69.3853C636.9442,769.4589,670.2948,795.9876,676.3152,830.898Z" transform="translate(-335.00002 -357.28571)"/><path class="cls-23" d="M617.1245,894.7177a66.47635,66.47635,0,0,1-42.2539-15.6304,65.45043,65.45043,0,0,1-22.9714-38.9912c-2.7123-15.7278.9458-30.9068,10.3007-42.7402,9.402-11.8937,23.4007-18.9926,39.4172-19.9893,1.2668-.0784,2.554-.1184,3.8256-.1184,31.3109,0,59.9754,23.9913,65.2572,54.6181,2.6511,15.3733-.852,30.3275-9.8638,42.1075-8.9838,11.7429-22.464,19.0143-37.957,20.474C620.977,894.627,619.041,894.7177,617.1245,894.7177Z" transform="translate(-335.00002 -357.28571)"/><path class="cls-24" d="M603.1062,782.3659a5.21984,5.21984,0,0,0-4.9171,6.2243l16.1647,93.7334a6.526,6.526,0,0,0,6.9049,5.3026,5.36213,5.36213,0,0,0,4.8764-6.3586l-16.1178-93.4619A6.72036,6.72036,0,0,0,603.1062,782.3659Z" transform="translate(-335.00002 -357.28571)"/><path class="cls-25" d="M626.1351,881.2677l-16.1178-93.4622a6.72,6.72,0,0,0-6.9111-5.4395,5.46126,5.46126,0,0,0-2.9172,1.0479c.1892-.0311.3823-.0545.5795-.0674a6.72071,6.72071,0,0,1,6.9112,5.4402l16.1178,93.4614a5.36692,5.36692,0,0,1-2.0802,5.3127A5.34849,5.34849,0,0,0,626.1351,881.2677Z" transform="translate(-335.00002 -357.28571)"/><rect class="cls-26" x="452.60003" y="752.60975" width="416.1591" height="29.19849" transform="translate(-686.50925 434.02655) rotate(-50.63085)"/><path class="cls-27" d="M1896.734,1141.0465s111.8928-68.7061,127.597,9.8152c15.7043,78.5212-43.1867,178.5876,0,268.9112,43.1867,90.3235,21.5933,170.7985,21.5933,170.7985s3.9261-51.2768-12.7597-79.6171c-16.6857-28.3403-69.524-110.1333-59.1363-178.8394s24.7833-121.7079,16.2768-146.573c-8.5064-24.8651-43.841-9.8152-59.5453,3.2717C1915.0556,1201.9005,1896.734,1141.0465,1896.734,1141.0465Z" transform="translate(-335.00002 -357.28571)"/><path class="cls-28" d="M1735.4617,1762.6609c-15.7955,37.9464-30.0254,58.5322-33.2031,93.3007-3.1776,34.7684-58.4852,50.6109-110.6615,33.2031-52.1763-17.4079,17.3612-36.3811,17.3612-52.1763,0-15.7953,28.4598-30.0252,41.124-44.2551,12.6643-14.2299,41.1241-139.1683,37.9464-173.9368-3.1776-34.7684,0-121.7604,0-121.7604l87.3249-82.3439s18.5934,99.7517,29.5021,159.6122C1815.718,1634.2123,1751.2573,1724.7145,1735.4617,1762.6609Z" transform="translate(-335.00002 -357.28571)"/><path class="cls-29" d="M1744.9483,1648.4422c-42.6897,29.6456-34.3889,68.7778-41.5038,111.4675-7.115,42.6897-26.8942,137.5558-111.8474,129.255-52.1763-17.4079,17.3612-36.3811,17.3612-52.1763,0-15.7953,28.4598-30.0252,41.124-44.2551,12.6643-14.2299,41.1241-139.1683,37.9464-173.9368-3.1776-34.7684,0-121.7604,0-121.7604l93.6802,41.1243S1787.6381,1618.844,1744.9483,1648.4422Z" transform="translate(-335.00002 -357.28571)"/><path class="cls-30" d="M1567.0746,1533.4171s11.8582,53.3622,73.5211,59.2913,157.8319-11.8583,165.4812-98.4235S1620.4367,1431.4362,1567.0746,1533.4171Z" transform="translate(-335.00002 -357.28571)"/><path class="cls-31" d="M1631.1091,1579.6643s-24.507,33.5984-9.4866,38.737c15.0205,5.1385,31.622-33.2031,31.622-33.2031Z" transform="translate(-335.00002 -357.28571)"/><path class="cls-32" d="M1678.9374,1581.0347s3.0379,38.8178,24.6408,33.7546-2.7003-32.0668-5.4007-37.8051S1678.9374,1581.0347,1678.9374,1581.0347Z" transform="translate(-335.00002 -357.28571)"/><path class="cls-33" d="M1009.7367,1496.6565s0,141.1132,26.0882,188.5462c26.0881,47.4331,9.4866,75.8929-7.115,101.981-16.6015,26.0882-39.1322,48.6188-40.318,55.7338-1.1858,7.1149-46.2472,47.433,0,52.1763s80.6361-3.5575,104.3526-45.0614c23.7165-41.5038,13.0441-50.9904,14.2299-87.751s-7.469-67.5921,17.0175-118.5825c24.4864-50.9905,25.6722-144.6707,24.4864-156.529C1147.2925,1475.3117,1009.7367,1496.6565,1009.7367,1496.6565Z" transform="translate(-335.00002 -357.28571)"/><path class="cls-34" d="M1869.46,1461.0818c-65.2204,36.7606-53.3621-18.9732-156.5289,45.0613-103.1668,64.0346-289.3414,91.3086-429.2687,45.0614-29.0296-9.629-49.4249-14.6367-64.7943-16.3917-37.9927-4.2691-45.6311,10.136-78.8342,21.3173h-.0463c-16.9814,4.4725-40.6516,10.0833-78.4081,10.3204-2.6079.0475-5.2621.1085-7.9672.1085-151.7857-1.1858-144.6707-96.0211-157.7148-162.4273s-42.6897-157.6995-60.4771-193.2743c-4.9795-9.9611.8523-31.2746,11.812-56.6986,28.1726-65.2679,90.169-157.9362,90.169-157.9362s8.3008.0079,69.9637,18.9811c60.6207,18.6411,139.6448-9.7198,245.9892,14.1863,1.8019.3796,3.6038.8083,5.4057,1.2353,87.5148,20.9178,238.3972,57.1102,347.9193,46.1057,26.9914-2.7034,51.4676-8.2528,71.8628-17.6444,103.1668-47.433,173.1305.0002,173.1305.0002C2041.4046,1111.2631,1934.6804,1424.3212,1869.46,1461.0818Z" transform="translate(-335.00002 -357.28571)"/><path class="cls-35" d="M1218.8681,1534.935c-35.3385,65.837-7.0177,141.3028-1.612,194.1433,5.9292,58.1054,23.7165,92.4943,7.115,109.0959-16.6016,16.6015-9.4866,28.4598-29.6456,68.7779-20.1591,40.318-43.8756,33.2031-104.1164,14.2299-20.6315-6.4983-24.8562-14.7991-19.5431-23.1474.3335-.5691-.0974-1.1383-.0974-1.7075v-.0475c11.1813-12.4274,37.4277-24.5702,48.6699-30.2623,2.6079-1.3754,5.0746-2.3716,5.6443-2.9408,4.7433-4.7433,11.0048-14.2299,22.8631-29.6456,11.8582-15.4157,17.9536-24.9023,21.511-73.5212,3.5575-48.6188,6.0123-40.318-43.7924-101.9809-20.5852-25.4715-43.9266-59.813-64.3265-91.3561-28.9323-44.9189-51.822-84.1461-51.822-84.1461.9495-23.7165,47.0635-34.1993,97.5815-33.5351,73.1877.9962,155.6772,25.3293,123.9934,66.7382A137.31093,137.31093,0,0,0,1218.8681,1534.935Z" transform="translate(-335.00002 -357.28571)"/><path class="cls-36" d="M1072.3956,1898.0346a13.12812,13.12812,0,0,1,1.2321-1.7075C1072.9653,1900.4063,1072.6318,1900.7383,1072.3956,1898.0346Z" transform="translate(-335.00002 -357.28571)"/><path class="cls-37" d="M1199.4688,1715.6072c-2.6079-42.6423-33.6756-120.5272-59.4812-158.4736-5.6929-9.4866-11.1449-15.1314-15.9855-18.5939-14.1817-10.1494-7.8254-49.7937-16.6912-89.635-18.0203-80.97-117.1446-75.5788-154.4561-141.0114-28.7972-50.5012-16.7706-109.1624,3.9972-160.0959,15.6379-38.3526,83.0454-191.2533-26.3652-146.2214-24.5684,10.1488-49.4987,33.24-68.1242,51.5878-7.543,7.4305-24.8552,20.1755-27.0046,31.4402-2.262,11.8551,26.083,48.7337,22.82,53.0479-61.4803,81.2871,29.3605,210.8226,42.5565,295.5219,13.7824,88.463,58.5766,133.4464,152.8705,133.4464,2.7047,0,5.3628,0,7.9702-.0475,20.3999,31.5431,43.7851,65.8846,64.3702,91.3561,49.8047,61.6629,47.4341,53.3621,43.8767,101.9809-3.5575,48.6189-9.4861,58.1055-21.3444,73.5212-11.8582,15.4157-17.7871,24.9023-22.5304,29.6456a30.07388,30.07388,0,0,1-4.9794,2.9408c16.8841-1.3754,35.6675-2.087,51.6067-10.0557C1210.521,1836.9884,1202.6464,1767.7835,1199.4688,1715.6072Z" transform="translate(-335.00002 -357.28571)"/><path class="cls-38" d="M1218.8681,1534.935s-13.4702-76.2249,7.8746-69.1099c21.3449,7.1149,201.5903,109.0959,290.5272,59.2912,88.9369-49.8046,195.6612-96.7752,203.9619-76.2545,8.3008,20.5208,0,52.2445,0,52.2445S1499.149,1640.8055,1218.8681,1534.935Z" transform="translate(-335.00002 -357.28571)"/><path class="cls-39" d="M1672.613,1453.9668s67.592,85.3794,109.0959,137.5558c41.5039,52.1763,47.433,14.2299,43.8756,73.5211-3.5575,59.2913,2.3716,141.1132-9.4866,162.4581-11.8583,21.3448-54.548,48.6188-54.548,71.1495s52.1763,27.274,52.1763,27.274,33.2031-7.115,55.7338-55.7338c22.5307-48.6189-28.4598-77.0787,18.9732-138.7416s66.4062-90.1227,28.4598-136.3699-30.8315-186.1745,0-218.1918S1672.613,1453.9668,1672.613,1453.9668Z" transform="translate(-335.00002 -357.28571)"/><path class="cls-40" d="M770.2001,936.9471s-23.3841-43.8756-69.2046-42.6897c-45.8205,1.1858-88.5102-27.274-76.6519,8.3007,11.8582,35.5748,64.9853,93.6802,113.7217,93.6802C786.8016,996.2383,770.2001,936.9471,770.2001,936.9471Z" transform="translate(-335.00002 -357.28571)"/><path class="cls-41" d="M942.8232,957.0046s6.7757-10.0288,67.2528-32.5594c60.4771-22.5307,91.1389-28.138,85.2098-9.1648-5.9292,18.9732-45.5663,91.2585-87.1574,99.7702-41.5912,8.5117-64.6268.1609-64.6268.1609V959.0482Z" transform="translate(-335.00002 -357.28571)"/><path class="cls-42" d="M889.9684,876.47s-91.3085-20.1591-116.2109,29.6456c-24.9023,49.8047-42.6897,80.6361-34.3889,123.3258s-3.5575,88.9369-22.5307,100.7952c-18.9732,11.8582-15.4157,52.1763,13.0441,71.1495s75.8466,42.6897,103.7366,17.7873c27.89-24.9023,62.2789-106.7242,85.9954-117.3966,23.7165-10.6725,55.597-69.9637,47.9575-122.14C959.9321,927.4605,957.5604,884.7707,889.9684,876.47Z" transform="translate(-335.00002 -357.28571)"/><path class="cls-43" d="M797.474,897.2219s-37.3535-25.878-36.1676-44.3634c1.1858-18.4853-23.3356,10.5293-18.3803,34.2839,4.9552,23.7546,16.898,43.8755,35.8712,38.2429C797.7705,919.7526,798.6599,904.3369,797.474,897.2219Z" transform="translate(-335.00002 -357.28571)"/><path class="cls-44" d="M903.8824,916.1951s37.3535-25.878,36.1677-44.3634c-1.1859-18.4853,23.3355,10.5293,18.3803,34.2839-4.9553,23.7546-16.898,43.8755-35.8713,38.2429C903.5859,938.7258,902.6966,923.3101,903.8824,916.1951Z" transform="translate(-335.00002 -357.28571)"/><path class="cls-45" d="M2065.1211,1542.4546c-1.964-3.0213-43.4802-16.1524-41.1086,22.5845,2.3717,38.737,24.5071,88.401,5.5339,123.6508,0,0,11.463-3.4872,18.5779-19.6934-2.7669,12.6488-8.3008,19.6934-8.3008,19.6934s23.3213-14.5549,25.2976-28.7848c1.9764-14.2299,16.6016-16.28,13.637-51.5214C2075.7936,1573.1423,2072.5109,1553.8221,2065.1211,1542.4546Z" transform="translate(-335.00002 -357.28571)"/><path class="cls-46" d="M1593.1627,1180.8475c-47.433,9.4866-58.4852,77.4582-178.6797,104.4476-120.1482,26.9894-128.0692-110.8035-199.7884-162.9798-46.5298-33.8197.0972-70.9599,38.6597-92.9214,1.8019.3796,3.6038.8063,5.4057,1.2333,87.5148,20.9179,238.3972,57.1093,347.9193,46.1048,18.6443,6.4036,31.9709,12.7595,37.0941,18.7361C1672.2332,1128.6712,1640.5957,1171.3609,1593.1627,1180.8475Z" transform="translate(-335.00002 -357.28571)"/><path class="cls-47" d="M1664.3122,1240.9136s-63.244,66.4062-22.1354,104.3526,107.147-32.3852,162.6694-56.5106c55.5225-24.1255,58.6847-109.5049,22.3194-126.897S1670.6366,1161.8586,1664.3122,1240.9136Z" transform="translate(-335.00002 -357.28571)"/><path class="cls-48" d="M1033.4532,1139.7232s73.1627-9.4866,90.5364,50.9904c17.3737,60.4771,68.3642,19.0935,56.506,65.2805-11.8583,46.1871-47.433,67.9546-101.981,32.7615-54.548-35.1932-73.2421-44.6798-59.1517-79.0688C1033.4532,1175.2979,993.5502,1136.5898,1033.4532,1139.7232Z" transform="translate(-335.00002 -357.28571)"/><path class="cls-49" d="M1236.5976,1945.4854c-2.8225,15.1191-1.2423,30.8521.9131,45.9461,2.121,14.853,5.9608,29.2038,18.7739,38.4582a43.48972,43.48972,0,0,0,8.8858,5.0882c3.4628,1.4174,7.7417,1.9081,10.7982,4.1351,5.0399,3.672,7.188,11.5314,11.1677,16.3142a55.51492,55.51492,0,0,0,37.8146,19.7557c3.556.3574,7.3567.4835,10.6366,2.0344,3.7071,1.7528,6.5466,5.1544,9.7391,7.6545a32.652,32.652,0,0,0,20.5045,7.0071c7.1464.0599,14.2384-1.7802,21.0493-3.7876,8.0368-2.3689,16.053-4.8097,24.0789-7.2153,7.9934-2.3958,16.0506-4.6421,23.9844-7.2293,6.5634-2.1402,13.0254-4.9822,18.1079-9.7622,5.4954-5.1684,7.7574-12.042,10.4162-18.8851,1.2611-3.2459,2.6385-6.8885,5.3613-9.2176,2.6889-2.3001,6.3498-3.1632,9.7005-4.0029,13.7041-3.4347,26.6305-8.6376,36.4061-19.2774,8.4561-9.2038,12.9083-22.1851,10.9813-34.6499-.1709-1.1053-.4088-2.1931-.6802-3.2703a6.14855,6.14855,0,0,0,2.9497-3.4306c8.1838-25.0788-.7903-54.5102-22.7779-69.7824-6.1361-4.262-12.6133-6.3021-19.3613-9.2774-6.4569-2.847-9.5777-9.2717-14.1922-14.2625-9.9862-10.8006-22.8776-9.7251-36.1997-7.7637-6.0606.8922-11.8737,1.5178-17.6602-.9477-6.6589-2.8368-12.4879-7.2717-19.1125-10.1736a35.56025,35.56025,0,0,0-21.1924-2.7287c-6.4649,1.2405-12.7167,4.2244-19.3229,4.5993-7.3586.4176-14.5614-3.2221-21.6652-4.6552a72.81822,72.81822,0,0,0-19.9402-1.1287c-13.7563,1.0783-28.0986,6.077-38.7591,14.9969-5.7787,4.8352-10.8811,10.7501-13.5026,17.9133a44.97073,44.97073,0,0,0-2.3549,10.9811c-.3545,3.3466-.5415,6.6033-2.7278,9.3089-2.358,2.918-5.5836,5.1216-8.2446,7.7488a47.1879,47.1879,0,0,0-6.8171,8.7432A59.884,59.884,0,0,0,1236.5976,1945.4854Z" transform="translate(-335.00002 -357.28571)"/><path class="cls-50" d="M1252.492,1914.7472c12.6567,23.7735,27.9069,46.4817,40.2837,70.4481,8.1958,13.8861,22.0847,22.6329,35.1401,30.6855a54.72415,54.72415,0,0,0,47.9119,1.7975c30.5505-11.2537,49.5717-39.1705,83.8729-43.0646,22.817-2.078,45.0823-1.81,66.3874,4.6331a42.66675,42.66675,0,0,1-11.1522,33.2548c-9.7756,10.6399-22.702,15.8426-36.4061,19.2774-3.3508.8399-7.0115,1.7027-9.7005,4.0031-2.723,2.3286-4.1003,5.9711-5.3611,9.2173-2.6589,6.8431-4.9213,13.7167-10.4165,18.885-5.0823,4.7802-11.5444,7.6223-18.1081,9.7622-7.9338,2.5874-15.9909,4.8336-23.9843,7.2293-8.0256,2.4055-16.0423,4.8465-24.0788,7.2154-6.8108,2.0071-13.9031,3.8473-21.0491,3.7878a32.65242,32.65242,0,0,1-20.5044-7.0072c-3.1929-2.5006-6.0323-5.902-9.7394-7.6544-3.2801-1.551-7.0806-1.6772-10.6366-2.0347a55.51507,55.51507,0,0,1-37.8149-19.7556c-3.9794-4.7825-6.1275-12.6421-11.1673-16.3139-3.0566-2.2272-7.3355-2.7182-10.7986-4.1356a43.48893,43.48893,0,0,1-8.8856-5.0882c-12.8129-9.2539-16.6529-23.6051-18.7738-38.4577-2.1554-15.0943-3.7357-30.8276-.913-45.9465a59.88,59.88,0,0,1,7.7583-20.7631,47.20035,47.20035,0,0,1,6.817-8.7433C1251.5991,1915.5584,1252.0429,1915.1506,1252.492,1914.7472Z" transform="translate(-335.00002 -357.28571)"/><path class="cls-51" d="M1435.1886,1755.8754c-12.8524-14.8234-30.8572-25.8015-50.1796-28.8848,5.1957-19.4495-1.772-41.589-19.3347-53.9283-22.9087-16.0949-49.9863-13.4296-74.1085-3.064-20.2323-6.1631-43.0287-5.2462-62.3264,3.2123-42.664,18.7004-60.9577,67.2358-48.0594,109.7108a58.03964,58.03964,0,0,0-39.3544,39.2563c-7.1333,24.4226,2.906,49.0335,22.0863,64.7702,9.7359,7.9878,20.9311,13.8972,31.4111,20.8007,11.5306,7.5954,18.7709,17.0148,27.5057,27.4546,17.1019,20.4396,42.9664,32.2169,69.7346,30.7558,23.7507-1.2964,45.2468-13.5448,59.9163-31.6543,14.4028,8.2778,31.9135,9.981,48.3813,6.3181,23.4424-5.214,42.255-20.7788,53.1072-42.0531C1475.9335,1855.5094,1466.6293,1792.1367,1435.1886,1755.8754Z" transform="translate(-335.00002 -357.28571)"/><path class="cls-52" d="M1631.9989,1975.4429c12.6005-1.7771,47.8595-12.0923,66.3757-30.5449,19.5185-19.4511,16.2251-58.7572,24.1443-68.711,7.9192-9.9537,31.2738-16.9868,46.5205-35.7683,22.0725-27.1899,29.3172-64.622,13.3681-87.5836-6.8655-9.8841-26.9116-25.7202-24.1899-40.2141,3.0876-7.1336,25.7675-20.3999,22.6322-64.5492-2.5027-35.2398-22.8012-88.7486-92.5528-103.0092-13.6453-7.9455-11.9513-38.5684-47.637-53.3318-35.6857-14.7633-58.1571,7.9949-71.1783.4128-13.0213-7.5821-44.3693-26.6008-76.3376-27.4733-37.2407-1.0165-72.793,16.1202-99.9214,45.9215a141.9377,141.9377,0,0,0-17.3544,23.926c-2.065,3.5225-2.6313,4.8062-6.6872,4.9902-4.799.2175-9.4403.1475-14.2997.6635-17.2352,1.8302-37.3068,5.4085-52.9085,15.0874-31.5126,19.5497-49.7903,55.7149-51.8866,88.2868-1.9876,30.8832,28.967,86.2382,25.7063,95.482-3.2606,9.2439-35.2171,39.4331-33.7586,76.4424,1.8551,47.0744,25.1667,85.9092,67.7688,106.4947,18.7822,9.0755,70.6213,21.0711,84.3167,30.2283s10.9936,53.1159,32.4836,72.6268c23.3313,21.1826,48.8904,19.7868,84.7033,9.5907,19.3685-5.5142,31.0535-2.9507,47.0805-16.2386,18.476,5.6789,42.7827-4.5372,58.229-19.6471C1623.598,1991.6947,1619.3983,1977.2201,1631.9989,1975.4429Z" transform="translate(-335.00002 -357.28571)"/><g class="cls-53"><path class="cls-54" d="M1685.17,1592.1178c-49.1626-7.0746-84.7077,33.899-130.3964,39.6003-45.6886,5.7013-56.5305-54.1517-81.6717-84.9777-8.751-11.5251-20.5571-22.772-32.3619-25.5475a116.13332,116.13332,0,0,0-55.4344-.9625c2.4695-3.311,5.0934-6.5369,7.9172-9.6386,27.1285-29.8013,62.6806-46.9382,99.9211-45.9215,31.9684.8723,63.3164,19.8912,76.3378,27.4733,13.0213,7.5822,35.4925-15.1762,71.1782-.4127,35.6859,14.7632,33.992,45.3862,47.6371,53.3317,59.498,12.1642,83.0095,52.8841,90.1911,86.4651q-1.45305-1.10295-2.905-2.2063C1750.5824,1608.4943,1719.4726,1596.6951,1685.17,1592.1178Z" transform="translate(-335.00002 -357.28571)"/><path class="cls-55" d="M1301.9729,1555.2591c10.7169-6.6488,23.5427-10.4185,36.1096-12.7206-19.276,16.3331-46.632,37.9354-33.8423,61.1678,21.2541,38.8813,65.8366,63.3159,78.4816,109.1423,12.9233,48.8815-35.1222,79.4417-74.2817,97.6405-14.0252,6.6683-15.1341,19.8615-10.1326,32.4982,13.1988,34.9941,43.4779,63.0418,79.5864,70.5351,85.5493,17.6231,166.5089-6.693,253.0266-12.262,22.9139-2.0869,42.9144,14.5748,60.2758,27.6261q12.22725-10.8633,23.7097-22.4869c-2.6027,13.6609-6.6309,28.6324-16.5311,38.4985-18.5166,18.4525-53.7754,28.7676-66.3758,30.5449-12.6009,1.7769-8.4012,16.2516-15.383,23.0819-15.4467,15.1099-39.7533,25.3259-58.2291,19.6468-16.0272,13.288-27.7122,10.7246-47.0807,16.2391-35.8129,10.1958-61.372,11.5914-84.7031-9.5908-21.4901-19.5114-18.7884-63.4695-32.4837-72.6266-13.6953-9.1577-65.5345-21.1531-84.3166-30.2285-42.6022-20.5853-65.9139-59.4202-67.7689-106.4948-1.4587-37.0094,30.4981-67.1986,33.7585-76.4427,3.2607-9.2437-27.6939-64.5984-25.706-95.4817C1252.1825,1610.9738,1270.4604,1574.8085,1301.9729,1555.2591Z" transform="translate(-335.00002 -357.28571)"/></g><path class="cls-56" d="M1352.3262,1791.1506c126.0685,100.9848,161.9326,282.6345,161.9326,282.6345l117.3249-73.4061c-160.6812-184.4652-123.2124-260.6491-124.5642-339.4362,0,0-9.7738-19.1807-16.5498,2.8264-3.581,11.6302-8.4136,58.7213-.4778,111.0662-37.9487-56.1754-31.9915-105.2503-45.184-120.2783-4.4844-5.1084-16.9823-3.6677-16.9823-3.6677s18.2992,132.5014,90.4075,275.9158c0,0-80.5187-139.6629-125.7429-171.2783-8.4646-5.7492-14.2915,1.4787-7.5224,14.8542,0,0,20.7059,24.0641,43.6157,65.1258-40.4339-34.9765-47.2025-43.3881-61.4508-55.2593S1345.8084,1777.8605,1352.3262,1791.1506Z" transform="translate(-335.00002 -357.28571)"/><path class="cls-57" d="M1810.8667,1775.678c15.9582-3.5679,27.382-18.2648,30.3036-35.0588,3.5753-20.552-2.4095-42.5154-13.4409-59.9127-20.3661-32.1193-59.4338-46.7283-95.6589-38.7004-5.5952-11.0195-16.7288-19.2802-29.2542-20.2728a34.73553,34.73553,0,0,0-28.9266,11.876,65.86546,65.86546,0,0,0-19.0882,1.7458c-15.3208,3.8517-28.3268,17.6868-28.477,33.1798-21.1456,7.6474-32.4202,34.1071-33.9262,55.432-1.0753,15.2246,1.102,32.2356,12.5923,43.3851,4.7691,4.6277,11.1442,5.586,11.7347,12.7578.5621,6.8258,1.2581,13.4552,3.9119,19.8643a60.12769,60.12769,0,0,0,27.3121,29.7875,54.06407,54.06407,0,0,0,16.964,5.683c6.7163,1.0436,14.8398-1.58,21.1628.2583,3.6468,1.0604,7.0741,4.9498,10.1524,7.0852a46.06916,46.06916,0,0,0,9.2691,5.1898,46.86534,46.86534,0,0,0,19.4904,3.0192c12.7619-.6045,25.0267-6.1637,35.796-12.6743C1783.2184,1824.7597,1807.0557,1802.6967,1810.8667,1775.678Z" transform="translate(-335.00002 -357.28571)"/><path class="cls-58" d="M1630.0651,1765.025c5.9726,6.3872,14.7236,17.9124,19.0281,14.4398,39.2959-33.6139,89.9888-9.7358,133.8744-1.4105,25.8313,4.5787,39.4364-23.615,46.9325-42.7808a148.13779,148.13779,0,0,0,9.1386-29.2035,78.79566,78.79566,0,0,1,2.1318,34.5492c-2.9216,16.794-14.3455,31.4911-30.3039,35.0586-3.8109,27.0189-27.648,49.082-50.0826,62.6452-10.7692,6.5104-23.0342,12.0694-35.7959,12.6742a46.86632,46.86632,0,0,1-19.4902-3.0191,46.07526,46.07526,0,0,1-9.2694-5.1902c-3.0782-2.1351-6.5056-6.0247-10.1524-7.085-6.3232-1.8383-14.4464.7853-21.1628-.2584a54.06547,54.06547,0,0,1-16.9639-5.6827,60.12917,60.12917,0,0,1-27.3123-29.7878c-2.6534-6.409-3.3497-13.0384-3.9119-19.8642-.5904-7.1719-6.9656-8.1302-11.7345-12.7578-11.4902-11.1495-13.6678-28.1606-12.5922-43.385.0796-1.1258.1921-2.2687.3263-3.4194C1605.0076,1735.2131,1616.5648,1750.3482,1630.0651,1765.025Z" transform="translate(-335.00002 -357.28571)"/><path class="cls-59" d="M1396.1492,1727.3939c-13.7179-11.1073-30.4604-18.1061-46.8721-24.1754-16.1496-5.9723-32.7312-9.9356-49.0705-2.0584a49.90974,49.90974,0,0,0-9.9891,6.1892c-3.322,2.7207-6.1546,6.7714-10.0719,8.6399-6.459,3.081-15.5648.9561-22.5659,2.3603-16.9315,3.3963-30.9483,13.1595-40.5947,27.3752-2.303,3.3938-4.5063,7.161-7.8632,9.6243-3.794,2.7841-8.7783,3.792-13.0455,5.6485a37.47315,37.47315,0,0,0-18.2723,16.8677c-3.9639,7.1801-5.9805,15.3432-7.6748,23.3139-1.999,9.4054-3.9141,18.8295-5.8701,28.2439-1.948,9.3764-4.0819,18.7355-5.8043,28.1563-1.425,7.7934-2.0863,15.8679-.038,23.6086,2.2147,8.3696,7.9167,14.4071,13.3712,20.8285,2.5871,3.0459,5.5112,6.4258,6.3747,10.4461.8528,3.9702-.2758,8.1366-1.2585,11.9772-4.0189,15.7076-5.8283,31.5962-.4292,47.2743,4.6704,13.5621,15.3405,25.1465,28.9738,30.0101,1.2088.4312,2.4368.7853,3.6723,1.0997a7.05591,7.05591,0,0,0,1.8512,4.8511c20.8418,21.9586,55.4487,28.9772,82.8731,15.1271,7.6533-3.865,13.2504-9.2881,19.9393-14.4738,6.4004-4.9618,14.5894-4.6022,22.1472-6.5336,16.3557-4.1795,22.3118-17.7781,27.6091-32.2956,2.4099-6.6042,4.9538-12.8131,10.6029-17.3067,6.5004-5.1712,14.1605-8.632,20.7079-13.7331a40.81061,40.81061,0,0,0,14.3299-19.8989c2.2793-7.2027,2.6824-15.1425,5.9125-22.0149,3.598-7.6551,11.2059-12.9368,16.5326-19.3238a83.57,83.57,0,0,0,12.031-19.5091c6.4257-14.4732,9.2146-31.6793,6.0348-47.3112-1.7237-8.4735-4.9065-16.8542-10.7044-23.4128a51.61362,51.61362,0,0,0-9.7968-8.3749c-3.1841-2.1858-6.369-4.1534-7.9055-7.838-1.6572-3.9738-2.1193-8.433-3.3175-12.5538a54.1537,54.1537,0,0,0-5.1008-11.6562A68.72368,68.72368,0,0,0,1396.1492,1727.3939Z" transform="translate(-335.00002 -357.28571)"/><path class="cls-60" d="M1196.0764,1760.9978c4.2674-1.8567,9.2514-2.8649,13.0455-5.6487,3.3571-2.4635,5.5602-6.2309,7.8631-9.6242a64.3305,64.3305,0,0,1,30.7298-24.5492q-1.58745,2.51145-3.1705,5.0272c-1.3885,1.6668-3.193,7.222-3.7481,9.583-13.8833,25.1384-39.0149,53.6117-25.1233,79.3012,6.6683,14.0252,25.695,19.9937,33.0574,33.1855,12.5018,18.8848,4.7288,43.4668,9.0375,65.4082,2.2246,15.9702-.6887,34.7187,17.6438,41.5205a147.008,147.008,0,0,0,94.4624,1.3982c-2.8674,3.7978-4.6359,8.2491-6.3332,12.8997-5.297,14.517-11.2533,28.1159-27.6087,32.2957-7.5582,1.9311-15.7472,1.5714-22.1472,6.5332-6.689,5.1856-12.2862,10.6087-19.9394,14.4742-27.4245,13.8496-62.0315,6.831-82.8732-15.1277a7.05343,7.05343,0,0,1-1.8512-4.8508c-1.2353-.3143-2.4634-.6687-3.6726-1.0997-13.6329-4.8639-24.3033-16.4481-28.9736-30.0103-5.3988-15.6781-3.5897-31.5662.4294-47.274.9829-3.8409,2.1113-8.0071,1.2587-11.9772-.8637-4.0205-3.788-7.4003-6.375-10.446-5.4546-6.4217-11.1566-12.4594-13.3715-20.8288-2.0481-7.7404-1.3865-15.8152.0381-23.6086,1.7228-9.4207,3.8566-18.7795,5.8045-28.156,1.9562-9.4145,3.8708-18.8387,5.8703-28.2439,1.6943-7.9707,3.7109-16.134,7.6748-23.3141A37.471,37.471,0,0,1,1196.0764,1760.9978Z" transform="translate(-335.00002 -357.28571)"/><path class="cls-61" d="M1562.4423,1537.8485c-20.2871-.3686-41.1805,5.8842-56.9143,18.61-11.3627-17.4461-33.2058-27.3994-54.8401-22.4279-28.2195,6.4849-44.8962,29.1497-53.6079,54.8674-18.7313,11.2955-33.7917,29.4591-40.6333,50.1481-15.1255,45.7395,9.5447,93.3726,51.1264,112.8291a60.02473,60.02473,0,0,0,2.9699,57.4106c13.8468,22.3753,39.7146,31.6759,65.0801,27.8101,12.8754-1.9624,25.1618-6.4841,37.7181-9.7685,13.8148-3.6139,26.0652-2.6671,40.1337-2.1638,27.5446.9848,54.488-10.759,71.8768-32.3532,15.4285-19.1599,20.8762-44.1601,17.0958-67.9645,16.326-5.3504,29.7457-17.6376,38.3178-32.8338,12.2028-21.6322,13.2445-46.8625,4.3905-69.9203C1667.2349,1575.4218,1612.0694,1538.7493,1562.4423,1537.8485Z" transform="translate(-335.00002 -357.28571)"/><path class="cls-62" d="M1378.8305,1695.4899c12.9205,31.939,49.5841,37.0714,81.1084,36.5107,36.8014-1.8113,51.9451,37.6265,81.2503,54.981,5.6944,3.332,11.9439,4.3031,17.6369-.8361,25.2707-26.9457,18.8766-63.3297,14.9825-97.631-2.7797-13.6092,7.9121-23.0544,21.3822-27.3617,12.0816-2.6405,22.7761,4.8569,31.1097,11.7993,23.3814-31.7573,26.8507-77.1167,8.3024-110.8582,22.7213,15.1697,41.4481,36.2871,50.5527,59.9977,8.8543,23.0581,7.8126,48.2885-4.3903,69.9204-8.5722,15.196-21.9917,27.4835-38.3179,32.8339,3.7804,23.8043-1.6672,48.8045-17.0957,67.9644-17.3889,21.5943-44.3323,33.338-71.8768,32.3531-14.0685-.5032-26.3187-1.4499-40.1336,2.1641-12.5564,3.2842-24.8426,7.8061-37.7183,9.7682-25.3653,3.8662-51.2332-5.4346-65.0802-27.81a60.02629,60.02629,0,0,1-2.9698-57.4106c-41.5815-19.4565-66.2519-67.0894-51.1261-112.829a92.01943,92.01943,0,0,1,21.7936-35.2124C1367.6867,1633.191,1366.8289,1666.1169,1378.8305,1695.4899Z" transform="translate(-335.00002 -357.28571)"/><path class="cls-63" d="M1630.2339,1996.9699c-16.4556-13.7085-121.0482,32.5227-117.3249,73.406C1516.6324,2111.2592,1662.7157,2024.0291,1630.2339,1996.9699Z" transform="translate(-335.00002 -357.28571)"/><path class="cls-64" d="M1518.988,625.2436c5.4759,138.0313-102.4837,253.194-242.3997,257.2597-141.3335,4.1071-261.483-106.4905-267.0597-247.0642-5.5767-140.5738,105.6141-255.801,247.0489-257.3528C1396.5939,376.5499,1513.5122,487.2123,1518.988,625.2436Z" transform="translate(-335.00002 -357.28571)"/><path class="cls-65" d="M1513.725,625.3489c5.3617,135.1532-100.3592,247.8939-237.3472,251.8485-138.3464,3.9939-255.9341-104.2779-261.3924-241.8675-5.4584-137.5897,103.3591-250.3923,241.8026-251.9377C1393.8722,381.862,1508.3633,490.1958,1513.725,625.3489Z" transform="translate(-335.00002 -357.28571)"/><path class="cls-14" d="M1488.2786,625.8582c4.8096,121.2373-90.0799,222.2808-212.9174,225.714-123.9286,3.4636-229.1653-93.5747-234.0525-216.7691-4.8873-123.1945,92.4893-224.2875,216.4959-225.7857C1380.7194,407.5326,1483.469,504.6207,1488.2786,625.8582Z" transform="translate(-335.00002 -357.28571)"/><path class="cls-66" d="M1399.4212,747.3799a2.48106,2.48106,0,0,1-.9323-2.8595l39.4231-112.914a2.4803,2.4803,0,1,1,4.6833,1.6353l-39.423,112.9139a2.48283,2.48283,0,0,1-3.7511,1.2243Z" transform="translate(-335.00002 -357.28571)"/><path class="cls-67" d="M1388.3396,735.5985a2.481,2.481,0,0,1-1.0162-2.5719l23.7045-108.6858a2.48055,2.48055,0,0,1,4.8471,1.0574L1392.1705,734.084a2.4816,2.4816,0,0,1-3.8309,1.5145Z" transform="translate(-335.00002 -357.28571)"/><path class="cls-68" d="M1377.1086,727.8564a2.47926,2.47926,0,0,1-1.0709-2.1783l5.7853-106.7278a2.48039,2.48039,0,1,1,4.9535.2687l-5.7851,106.728a2.481,2.481,0,0,1-3.8828,1.9094Z" transform="translate(-335.00002 -357.28571)"/><path class="cls-69" d="M1365.1862,709.0932a2.47476,2.47476,0,0,1-1.0532-1.7255l-11.5144-89.2794a2.48043,2.48043,0,1,1,4.9201-.6347l11.5147,89.2796a2.48045,2.48045,0,0,1-3.8672,2.36Z" transform="translate(-335.00002 -357.28571)"/><path class="cls-70" d="M1333.9265,667.6982a3.59607,3.59607,0,0,1-3.3096-3.1763l-7.9148-41.9457c-.4134-2.1953.7318-4.3779,2.5624-4.8751,1.8305-.4975,3.6479.8809,4.0613,3.0749l7.9148,41.9456c.4134,2.1953-.7318,4.3779-2.5624,4.8751A2.86984,2.86984,0,0,1,1333.9265,667.6982Z" transform="translate(-335.00002 -357.28571)"/><path class="cls-71" d="M1239.6937,637.6516a2.48066,2.48066,0,0,1,.3941-4.3039l58.8936-26.4351a2.48032,2.48032,0,1,1,2.0315,4.5256l-58.8935,26.4351A2.479,2.479,0,0,1,1239.6937,637.6516Z" transform="translate(-335.00002 -357.28571)"/><path class="cls-72" d="M1267.6132,634.3019a2.48056,2.48056,0,0,1,.9284-4.4759l33.9898-6.6967a2.48049,2.48049,0,0,1,.959,4.8674l-33.9898,6.6967A2.47373,2.47373,0,0,1,1267.6132,634.3019Z" transform="translate(-335.00002 -357.28571)"/><path class="cls-73" d="M1209.5087,643.2056a2.48261,2.48261,0,0,1-.1717-3.9567l68.1285-56.2213a2.48048,2.48048,0,0,1,3.1575,3.8264l-68.1284,56.2213A2.48153,2.48153,0,0,1,1209.5087,643.2056Z" transform="translate(-335.00002 -357.28571)"/><path class="cls-74" d="M1184.6906,646.4326c-.0467-.0322-.0925-.066-.1375-.1018a2.48033,2.48033,0,0,1-.3985-3.4852l68.0691-85.6358a2.48046,2.48046,0,0,1,3.8836,3.0868l-68.0691,85.6358A2.48077,2.48077,0,0,1,1184.6906,646.4326Z" transform="translate(-335.00002 -357.28571)"/><path class="cls-75" d="M1160.2535,646.9103a2.48051,2.48051,0,0,1-.7485-3.2624l62.2546-109.9793a2.4805,2.4805,0,1,1,4.3175,2.4435l-62.2548,109.9794a2.48057,2.48057,0,0,1-3.3806.9368Q1160.3442,646.9731,1160.2535,646.9103Z" transform="translate(-335.00002 -357.28571)"/><path class="cls-76" d="M1135.5727,641.195a2.481,2.481,0,0,1-.8243-3.1171l59.3648-123.2689a2.48038,2.48038,0,1,1,4.4694,2.1526l-59.3648,123.269a2.4823,2.4823,0,0,1-3.6451.9644Z" transform="translate(-335.00002 -357.28571)"/><path class="cls-77" d="M1109.4848,637.5226a2.4815,2.4815,0,0,1-.9004-2.9442l51.2306-131.1356a2.48036,2.48036,0,1,1,4.6206,1.8052L1113.205,636.3837a2.48314,2.48314,0,0,1-3.7202,1.1389Z" transform="translate(-335.00002 -357.28571)"/><circle class="cls-78" cx="1440.25365" cy="632.42402" r="12.40224" transform="translate(177.50541 1545.40362) rotate(-77.56375)"/><path class="cls-79" d="M1423.6627,631.9085a12.40223,12.40223,0,1,1-3.1723-17.2502A12.40216,12.40216,0,0,1,1423.6627,631.9085Z" transform="translate(-335.00002 -357.28571)"/><path class="cls-80" d="M1394.511,626.1236a12.40225,12.40225,0,1,1-3.1724-17.2502A12.40216,12.40216,0,0,1,1394.511,626.1236Z" transform="translate(-335.00002 -357.28571)"/><path class="cls-81" d="M1365.2899,624.8098a12.40226,12.40226,0,1,1-3.1724-17.2501A12.40232,12.40232,0,0,1,1365.2899,624.8098Z" transform="translate(-335.00002 -357.28571)"/><circle class="cls-82" cx="1326.14" cy="620.41782" r="12.40226" transform="translate(32.31525 1369.57719) rotate(-74.16036)"/><circle class="cls-83" cx="1299.0503" cy="625.84557" r="12.40221" transform="translate(-476.40282 334.20469) rotate(-28.33275)"/><path class="cls-84" d="M1279.5843,638.788a12.40225,12.40225,0,1,1-3.1723-17.2501A12.40211,12.40211,0,0,1,1279.5843,638.788Z" transform="translate(-335.00002 -357.28571)"/><path class="cls-85" d="M1251.3149,642.6494a12.40225,12.40225,0,1,1-3.1724-17.2502A12.40241,12.40241,0,0,1,1251.3149,642.6494Z" transform="translate(-335.00002 -357.28571)"/><circle class="cls-86" cx="1210.99515" cy="641.59337" r="13.95248" transform="translate(-492.02162 202.56734) rotate(-24.49553)"/><path class="cls-87" d="M1197.6634,652.739a13.95252,13.95252,0,1,1-3.5689-19.4064A13.95249,13.95249,0,0,1,1197.6634,652.739Z" transform="translate(-335.00002 -357.28571)"/><circle class="cls-88" cx="1161.74298" cy="645.30095" r="13.95253" transform="translate(-497.80824 180.19972) rotate(-24.3969)"/><path class="cls-79" d="M1423.6627,631.9085a12.40223,12.40223,0,1,1-3.1723-17.2502A12.40216,12.40216,0,0,1,1423.6627,631.9085Z" transform="translate(-335.00002 -357.28571)"/><path class="cls-80" d="M1394.511,626.1236a12.40225,12.40225,0,1,1-3.1724-17.2502A12.40216,12.40216,0,0,1,1394.511,626.1236Z" transform="translate(-335.00002 -357.28571)"/><path class="cls-81" d="M1365.2899,624.8098a12.40226,12.40226,0,1,1-3.1724-17.2501A12.40232,12.40232,0,0,1,1365.2899,624.8098Z" transform="translate(-335.00002 -357.28571)"/><circle class="cls-82" cx="1326.14" cy="620.41782" r="12.40226" transform="translate(32.31525 1369.57719) rotate(-74.16036)"/><circle class="cls-83" cx="1299.0503" cy="625.84557" r="12.40221" transform="translate(-476.40282 334.20469) rotate(-28.33275)"/><path class="cls-84" d="M1279.5843,638.788a12.40225,12.40225,0,1,1-3.1723-17.2501A12.40211,12.40211,0,0,1,1279.5843,638.788Z" transform="translate(-335.00002 -357.28571)"/><path class="cls-85" d="M1251.3149,642.6494a12.40225,12.40225,0,1,1-3.1724-17.2502A12.40241,12.40241,0,0,1,1251.3149,642.6494Z" transform="translate(-335.00002 -357.28571)"/><circle class="cls-86" cx="1210.99515" cy="641.59337" r="13.95248" transform="translate(-492.02162 202.56734) rotate(-24.49553)"/><path class="cls-87" d="M1197.6634,652.739a13.95252,13.95252,0,1,1-3.5689-19.4064A13.95249,13.95249,0,0,1,1197.6634,652.739Z" transform="translate(-335.00002 -357.28571)"/><circle class="cls-88" cx="1161.74298" cy="645.30095" r="13.95253" transform="translate(-497.80824 180.19972) rotate(-24.3969)"/><circle class="cls-89" cx="1440.25365" cy="632.42402" r="12.40224" transform="translate(177.50541 1545.40362) rotate(-77.56375)"/><path class="cls-90" d="M1423.6627,631.9085a12.40223,12.40223,0,1,1-3.1723-17.2502A12.40216,12.40216,0,0,1,1423.6627,631.9085Z" transform="translate(-335.00002 -357.28571)"/><path class="cls-91" d="M1394.511,626.1236a12.40225,12.40225,0,1,1-3.1724-17.2502A12.40216,12.40216,0,0,1,1394.511,626.1236Z" transform="translate(-335.00002 -357.28571)"/><path class="cls-92" d="M1365.2899,624.8098a12.40226,12.40226,0,1,1-3.1724-17.2501A12.40232,12.40232,0,0,1,1365.2899,624.8098Z" transform="translate(-335.00002 -357.28571)"/><circle class="cls-93" cx="1326.14" cy="620.41782" r="12.40226" transform="translate(32.31525 1369.57719) rotate(-74.16036)"/><circle class="cls-94" cx="1299.0503" cy="625.84557" r="12.40221" transform="translate(-476.40282 334.20469) rotate(-28.33275)"/><path class="cls-95" d="M1279.5843,638.788a12.40225,12.40225,0,1,1-3.1723-17.2501A12.40211,12.40211,0,0,1,1279.5843,638.788Z" transform="translate(-335.00002 -357.28571)"/><path class="cls-96" d="M1251.3149,642.6494a12.40225,12.40225,0,1,1-3.1724-17.2502A12.40241,12.40241,0,0,1,1251.3149,642.6494Z" transform="translate(-335.00002 -357.28571)"/><circle class="cls-97" cx="1210.99515" cy="641.59337" r="13.95248" transform="translate(-492.02162 202.56734) rotate(-24.49553)"/><path class="cls-98" d="M1197.6634,652.739a13.95252,13.95252,0,1,1-3.5689-19.4064A13.95249,13.95249,0,0,1,1197.6634,652.739Z" transform="translate(-335.00002 -357.28571)"/><circle class="cls-99" cx="1161.74298" cy="645.30095" r="13.95253" transform="translate(-497.80824 180.19972) rotate(-24.3969)"/><circle class="cls-100" cx="1134.95073" cy="642.6489" r="15.81293" transform="translate(-448.97138 661.26794) rotate(-46.27098)"/><circle class="cls-101" cx="1110.97402" cy="635.9123" r="15.81293" transform="translate(-172.8747 1137.89015) rotate(-71.94999)"/><path class="cls-102" d="M1357.9831,696.5962a7.4414,7.4414,0,1,1-1.9035-10.3501A7.44159,7.44159,0,0,1,1357.9831,696.5962Z" transform="translate(-335.00002 -357.28571)"/><path class="cls-102" d="M1370.8537,709.6107a5.271,5.271,0,1,1-1.3483-7.3313A5.271,5.271,0,0,1,1370.8537,709.6107Z" transform="translate(-335.00002 -357.28571)"/><circle class="cls-102" cx="1339.25585" cy="667.49395" r="7.75145" transform="translate(-433.64009 -104.0498) rotate(-10.42027)"/><circle class="cls-15" cx="1164.15762" cy="500.85077" r="15.81287" transform="translate(-293.87432 730.85867) rotate(-50.88611)"/><circle class="cls-15" cx="1196.26863" cy="515.45408" r="15.81287" transform="translate(-293.3516 761.16397) rotate(-50.88611)"/><circle class="cls-15" cx="1223.83902" cy="534.45907" r="15.81289" transform="translate(341.34146 1395.23531) rotate(-89.38815)"/><circle class="cls-15" cx="919.08616" cy="201.03619" r="15.8129"/><circle class="cls-15" cx="1278.96495" cy="584.50955" r="15.81291" transform="translate(-419.62532 -116.32294) rotate(-10.42027)"/><circle class="cls-15" cx="1302.98122" cy="610.85577" r="15.81287" transform="translate(-327.98167 879.17782) rotate(-50.88611)"/><circle class="cls-15" cx="1398.481" cy="747.1076" r="14.88273" transform="translate(-447.06354 -92.02261) rotate(-10.42036)"/><path class="cls-15" d="M1398.481,747.1076a14.88268,14.88268,0,1,1-3.8068-20.7002A14.88283,14.88283,0,0,1,1398.481,747.1076Z" transform="translate(-335.00002 -357.28571)"/><path class="cls-15" d="M1386.1036,735.5628a14.88272,14.88272,0,1,1-3.8068-20.7002A14.88265,14.88265,0,0,1,1386.1036,735.5628Z" transform="translate(-335.00002 -357.28571)"/><path class="cls-15" d="M1372.1053,717.6286a14.88275,14.88275,0,1,1-3.8068-20.7002A14.88272,14.88272,0,0,1,1372.1053,717.6286Z" transform="translate(-335.00002 -357.28571)"/><circle class="cls-15" cx="1346.7159" cy="691.089" r="16.74299" transform="translate(-437.78627 -102.30591) rotate(-10.42049)"/><path class="cls-15" d="M1348.9491,680.2011a17.6732,17.6732,0,1,1-4.5207-24.5815A17.67323,17.67323,0,0,1,1348.9491,680.2011Z" transform="translate(-335.00002 -357.28571)"/><circle class="cls-15" cx="1316.72323" cy="641.59335" r="17.67319" transform="translate(-388.47054 -233.3517) rotate(-5.28179)"/><path class="cls-102" d="M1173.1619,502.5387a8.37155,8.37155,0,1,1-2.1413-11.6439A8.37147,8.37147,0,0,1,1173.1619,502.5387Z" transform="translate(-335.00002 -357.28571)"/><path class="cls-102" d="M1204.6037,515.9275a7.1313,7.1313,0,1,1-1.8241-9.9189A7.13127,7.13127,0,0,1,1204.6037,515.9275Z" transform="translate(-335.00002 -357.28571)"/><path class="cls-102" d="M1232.1742,534.9325a7.13131,7.13131,0,1,1-1.8242-9.9189A7.13132,7.13132,0,0,1,1232.1742,534.9325Z" transform="translate(-335.00002 -357.28571)"/><path class="cls-102" d="M1262.4213,558.7953a7.13131,7.13131,0,1,1-1.8241-9.9188A7.13121,7.13121,0,0,1,1262.4213,558.7953Z" transform="translate(-335.00002 -357.28571)"/><path class="cls-102" d="M1288.1625,584.8243a7.13127,7.13127,0,1,1-1.824-9.9188A7.13121,7.13121,0,0,1,1288.1625,584.8243Z" transform="translate(-335.00002 -357.28571)"/><path class="cls-102" d="M1311.3163,611.3292a7.13131,7.13131,0,1,1-1.8241-9.9188A7.13138,7.13138,0,0,1,1311.3163,611.3292Z" transform="translate(-335.00002 -357.28571)"/><path class="cls-102" d="M1327.3952,644.437a8.37152,8.37152,0,1,1-2.1413-11.6438A8.3714,8.3714,0,0,1,1327.3952,644.437Z" transform="translate(-335.00002 -357.28571)"/><rect class="cls-103" x="1035.77668" y="616.92325" width="467.66069" height="32.81199" transform="translate(-360.33429 855.81502) rotate(-50.63083)"/><path class="cls-15" d="M1224.1685,2054.5875c-53.0891,53.3411-111.0432-18.2888-112.7954-20.0408-1.2222-1.2099-25.0699-28.9266-28.5361-60.2733-1.4998-13.4739.7687-27.6158,10.2095-40.6233a10.3299,10.3299,0,0,1,.5798-.9327c3.8569-6.0753,27.6917-38.7454,78.7388-14.4319,23.0027,10.9405,44.7825,26.8721,58.7985,45.5264a89.64834,89.64834,0,0,1,8.6968,13.9277C1251.7335,2001.4859,1250.2466,2028.3833,1224.1685,2054.5875Z" transform="translate(-335.00002 -357.28571)"/><path class="cls-104" d="M1224.1685,2054.5875c-53.0891,53.3411-111.0432-18.2888-112.7954-20.0408-1.2222-1.2099-25.0699-28.9266-28.5361-60.2733,7.4868,11.1924,26.2922,29.9729,66.979,26.5444,51.6773-4.3483,76.2555-1.1217,90.0444-23.0782C1251.7335,2001.4859,1250.2466,2028.3833,1224.1685,2054.5875Z" transform="translate(-335.00002 -357.28571)"/><path class="cls-15" d="M1334.1022,2098.2107c-2.0291,1.4242-71.2138,62.2774-114.5599.7562-25.5734-36.3002-16.0199-67.6215,8.3946-90.6621,16.9652-16.0325,41.1151-28.057,65.6299-34.9767,54.4123-15.3646,72.3992,20.8601,75.1847,27.4897.2898.6555.416,1.0211.416,1.0211C1392.8379,2049.7726,1336.119,2096.7864,1334.1022,2098.2107Z" transform="translate(-335.00002 -357.28571)"/><path class="cls-105" d="M1334.1022,2098.2107c-2.0291,1.4242-71.2138,62.2774-114.5599.7562-25.5734-36.3002-16.0199-67.6215,8.3946-90.6621-13.1335,70.2685,48.7029,97.4431,100.0146,74.4405,38.2914-17.1417,41.7453-59.9709,40.8-81.9275.2898.6555.416,1.0211.416,1.0211C1392.8379,2049.7726,1336.119,2096.7864,1334.1022,2098.2107Z" transform="translate(-335.00002 -357.28571)"/><path class="cls-15" d="M1131.5522,2142.7034c-2.4575.1641-76.1294-.8443-87.7753-53.0258a9.63079,9.63079,0,0,1-.3152-1.0461,51.82537,51.82537,0,0,1-1.5127-18.982c1.5503-15.2007,10.348-35.7707,42.7916-49.6102,23.431-9.9952,49.7737-15.793,73.041-13.9528,28.4986,2.2183,52.3709,15.8813,60.6012,47.2279a94.72028,94.72028,0,0,1,2.8359,18.0871C1226.0838,2146.4973,1134.0355,2142.5397,1131.5522,2142.7034Z" transform="translate(-335.00002 -357.28571)"/><path class="cls-106" d="M1131.5522,2142.7034c-2.4575.1641-76.1294-.8443-87.7753-53.0258a9.63079,9.63079,0,0,1-.3152-1.0461,51.82537,51.82537,0,0,1-1.5127-18.982c12.6042,17.2803,39.8922,42.4006,92.7419,44.8206,81.2972,3.7308,83.6919-61.1557,83.6919-61.1557a94.72028,94.72028,0,0,1,2.8359,18.0871C1226.0838,2146.4973,1134.0355,2142.5397,1131.5522,2142.7034Z" transform="translate(-335.00002 -357.28571)"/><path class="cls-107" d="M2081.8095,760.0138c4.8728,122.8305-91.1976,225.3108-215.7053,228.9288-125.769,3.6547-232.6869-94.7632-237.6495-219.8561-4.9625-125.093,93.9833-227.6307,219.8424-229.0116C1972.8941,538.7077,2076.9366,637.1833,2081.8095,760.0138Z" transform="translate(-335.00002 -357.28571)"/><path class="cls-108" d="M2077.126,760.1075c4.7712,120.2693-89.3071,220.5944-211.2091,224.1134-123.1109,3.5541-227.7492-92.7941-232.6064-215.2316s91.9766-222.8176,215.174-224.1928C1970.4721,543.4348,2072.3548,639.8382,2077.126,760.1075Z" transform="translate(-335.00002 -357.28571)"/><path class="cls-14" d="M2054.4819,760.5607c4.28,107.886-80.1598,197.8019-189.4697,200.857C1754.7314,964.5,1661.084,878.1481,1656.735,768.5206c-4.3491-109.6276,82.3038-199.5877,192.6541-200.9209C1958.7678,566.2784,2050.202,652.6746,2054.4819,760.5607Z" transform="translate(-335.00002 -357.28571)"/><ellipse class="cls-109" cx="1923.22305" cy="896.0202" rx="32.27362" ry="21.51577" transform="translate(-529.51194 668.49462) rotate(-28.48689)"/><ellipse class="cls-110" cx="1921.76492" cy="893.33322" rx="32.27359" ry="21.51569" transform="translate(-528.40606 667.48747) rotate(-28.48726)"/><path class="cls-111" d="M1920.9062,896.6541l-53.2375-98.1033a1.731,1.731,0,0,1,.6958-2.3469l1.0684-.5798a1.73081,1.73081,0,0,1,2.3468.6958l53.2375,98.1032a1.7308,1.7308,0,0,1-.6958,2.3469l-1.0684.5798A1.73089,1.73089,0,0,1,1920.9062,896.6541Z" transform="translate(-335.00002 -357.28571)"/><ellipse class="cls-102" cx="1894.85872" cy="842.3974" rx="30.75347" ry="20.50238" transform="translate(-507.36972 648.4812) rotate(-28.48709)"/><ellipse class="cls-112" cx="1883.25798" cy="821.0201" rx="28.99954" ry="19.33295" transform="matrix(0.87892, -0.47696, 0.47696, 0.87892, -498.57766, 640.36557)"/><path class="cls-15" d="M1923.2248,827.0041l-89.2366-164.4407c-5.6676-10.4442-22.9622-12.019-38.6283-3.5175s-23.7715,23.8599-18.1037,34.3041l89.2365,164.4407c5.6677,10.4441,22.9622,12.0189,38.6283,3.5173C1920.7871,852.8066,1928.8924,837.4481,1923.2248,827.0041Z" transform="translate(-335.00002 -357.28571)"/><path class="cls-113" d="M1779.3117,692.2345c-2.3562-4.342-1.9781-9.9082,1.0644-15.6735,3.2063-6.0754,8.9238-11.5656,16.0994-15.4596,7.1755-3.8939,14.8948-5.6953,21.736-5.0724,6.4921.5912,11.3651,3.3078,13.7212,7.6497l76.9666,141.8302c2.3561,4.3418,1.9782,9.9081-1.0646,15.6735-3.2062,6.0754-8.9238,11.5657-16.0992,15.4595-7.1755,3.894-14.8949,5.6954-21.7359,5.0724-6.4923-.5912-11.3652-3.3079-13.7214-7.6497Z" transform="translate(-335.00002 -357.28571)"/><ellipse class="cls-102" cx="1805.62215" cy="677.95665" rx="32.2736" ry="21.51573" transform="translate(-439.74348 586.00053) rotate(-28.48684)"/><path class="cls-102" d="M1923.2248,827.0041l-84.6731-156.0314c-.8926,9.7-8.7882,20.454-21.0875,27.3366,6.0011,8.7786,15.3429,13.862,22.3687,30.2676,9.4135,21.9813-1.0256,27.6465,7.4744,48.0963,10.3385,24.873,29.0961,24.4649,40.5127,47.1966,4.3117,8.5852,8.2714,21.8581,5.4995,41.933a46.4329,46.4329,0,0,0,11.8015-4.4948C1920.7871,852.8066,1928.8924,837.4481,1923.2248,827.0041Z" transform="translate(-335.00002 -357.28571)"/><path class="cls-114" d="M1805.4229,675.1378l-56.8875-104.8295a1.16936,1.16936,0,0,0-2.0556,1.1154l56.8877,104.8296a1.1693,1.1693,0,1,0,2.0554-1.1155Z" transform="translate(-335.00002 -357.28571)"/><path class="cls-115" d="M1807.9468,682.2404c-4.5705,2.4802-9.616,2.0207-11.2695-1.0262-1.6535-3.047.7112-7.5277,5.2817-10.0079,4.5704-2.4802,9.6159-2.0208,11.2694,1.0261C1814.8819,675.2794,1812.5173,679.7601,1807.9468,682.2404Z" transform="translate(-335.00002 -357.28571)"/><path class="cls-116" d="M1807.2953,681.0399c-3.9165,2.1254-8.2401,1.7316-9.657-.8794s.6094-6.4506,4.5259-8.576c3.9166-2.1253,8.2402-1.7317,9.6571.8794C1813.2382,675.0749,1811.2119,678.9145,1807.2953,681.0399Z" transform="translate(-335.00002 -357.28571)"/><path class="cls-117" d="M1795.85794,646.52716h2.34722a2.8604,2.8604,0,0,1,2.8604,2.8604v26.55109a2.86048,2.86048,0,0,1-2.86048,2.86048h-2.34716a2.86037,2.86037,0,0,1-2.86037-2.86037V649.38754a2.86038,2.86038,0,0,1,2.86038-2.86038Z" transform="translate(-433.48683 580.06816) rotate(-28.48734)"/><path class="cls-118" d="M1804.2631,670.549l-10.0112-18.4481c-.9215-1.6981-2.3587-2.7002-3.2101-2.2382h-.0001c-.8514.462-.7946,2.2133.127,3.9113l10.0112,18.4482c.9214,1.6981,2.3587,2.7002,3.2101,2.2381h0C1805.2414,673.9983,1805.1847,672.2471,1804.2631,670.549Z" transform="translate(-335.00002 -357.28571)"/><rect class="cls-119" x="1651.81219" y="752.60973" width="416.15913" height="29.19853" transform="translate(-247.97257 1361.11156) rotate(-50.63097)"/><path class="cls-120" d="M745.8389,1352.8369l-231.0213-1.7058V1297.784a8.75112,8.75112,0,0,1,9.2486-8.737l213.5191,12.1596a8.75107,8.75107,0,0,1,8.2536,8.737Z" transform="translate(-335.00002 -357.28571)"/><path class="cls-121" d="M748.4841,1352.8369l-231.0214-13.1563V1297.784a8.75114,8.75114,0,0,1,9.2487-8.737l213.5191,12.1596a8.75114,8.75114,0,0,1,8.2536,8.737Z" transform="translate(-335.00002 -357.28571)"/><polygon class="cls-122" points="531.721 1680.349 306.232 1692.883 306.232 1037.233 531.721 1049.764 531.721 1680.349"/><path class="cls-123" d="M792.6658,1495.6034c-57.5799,14.5731,32.5673,89.3165-18.3009,104.9382-40.3901,12.4036-35.5767-100.0891-72.5367-68.155-37.434,32.3433,12.2664,128.7937,37.4552,202.8479,24.9721,73.4167,26.2746,179.4055-48.8744,160.8259a154.50869,154.50869,0,0,1-49.1767-21.2225v175.3305l225.489-12.5338V1520.5832C848.7937,1500.3791,823.0573,1487.9113,792.6658,1495.6034Z" transform="translate(-335.00002 -357.28571)"/><polygon class="cls-124" points="81.004 1524.475 81.004 1109.198 306.35 1037.65 306.35 1517.552 81.004 1524.475"/><polygon class="cls-15" points="306.35 1037.65 81.004 1109.198 183.049 979.822 183.049 979.822 306.35 1037.65"/><g class="cls-125"><polygon class="cls-126" points="183.049 979.822 81.004 1109.198 212.95 993.845 183.049 979.822"/></g><path class="cls-127" d="M416.0042,1881.7608v126.9977L641.35,2050.1683V1875.0368c-38.4404-24.3685-56.4514-51.9191-119.0108-57.9902C481.5312,1813.0866,442.9035,1848.053,416.0042,1881.7608Z" transform="translate(-335.00002 -357.28571)"/><path class="cls-128" d="M471.366,1694.4827v.2294l34.5915,13.2389v18.3415l-34.5915,15.4491v.2294l56.5139-.3196v19.6239l-88.976-1.3164v-19.2417l50.2981-22.9432v-.2339l-50.2981-19.7292v-19.6836l88.976-7.047v20.111Z" transform="translate(-335.00002 -357.28571)"/><path class="cls-129" d="M527.8799,1650.7256l-88.976,8.9344v-20.6793l88.976-11.0478Z" transform="translate(-335.00002 -357.28571)"/><path class="cls-130" d="M438.9039,1601.1627l70.4003-11.7995v-36.8135l18.5757-3.8401v58.8702l-88.976,12.935Z" transform="translate(-335.00002 -357.28571)"/><path class="cls-131" d="M438.9039,1534.2615l36.0457-8.8114v-.2303l-36.0457-15.6185v-21.7848l40.505,18.0271,48.471-45.7426v24.0112l-43.968,38.9144v.2327l43.968-10.7481v20.7205l-88.976,19.8289Z" transform="translate(-335.00002 -357.28571)"/><polygon class="cls-132" points="183.049 979.822 413.484 990.191 531.721 1049.764 306.35 1037.65 183.049 979.822"/><polygon class="cls-133" points="306.35 1037.65 183.049 979.822 200.316 1003.204 306.35 1037.65"/><path class="cls-134" d="M922.73,1923.3631h0c-.0395-.1852-.0722-.3317-.0962-.4495Z" transform="translate(-335.00002 -357.28571)"/><path class="cls-135" d="M922.6338,1922.9136l-.0722-.3285S922.5908,1922.7192,922.6338,1922.9136Z" transform="translate(-335.00002 -357.28571)"/><path class="cls-136" d="M1048.6233,2049.5269c-5.2801-5.2801-10.194-11.6602-39.8205-13.7137-29.6265-2.0533-34.3205-9.9734-36.9606-26.6936-2.64-16.7203-13.6401-79.9344-7.04-92.2546,6.6-12.3195-42.0653,6.4959-42.0722,6.4981.0791.3599.1788.8164.3094,1.4147,2.8463,13.0198,17.5538,79.9761,21.5225,91.0886,4.4,12.3202-12.3202,12.3202-22.0003,17.6003-9.6802,5.28,12.0073,2.64,22.7239,4.4,10.7165,1.76,13.3566,14.0802,13.3566,14.0802s2.64,29.9204,15.8402,6.1601c4.0219-7.2412,5.4966-11.5388,5.9469-13.8464.4985,1.3737,1.7618,3.2186,4.6132,5.0463,11.4402,7.3333,34.9066,13.7867,47.5207,12.3201,12.6141-1.4667,19.6542-6.4535,0-10.2668-4.847-.9404-8.6592-1.6471-11.6653-2.1807C1033.4861,2050.9509,1052.1795,2053.0834,1048.6233,2049.5269Z" transform="translate(-335.00002 -357.28571)"/><g class="cls-125"><path class="cls-134" d="M922.73,1923.3631h0c-.0395-.1852-.0722-.3317-.0962-.4495Z" transform="translate(-335.00002 -357.28571)"/><path class="cls-135" d="M922.6338,1922.9136l-.0722-.3285S922.5908,1922.7192,922.6338,1922.9136Z" transform="translate(-335.00002 -357.28571)"/><path class="cls-136" d="M1048.6233,2049.5269c-5.2801-5.2801-10.194-11.6602-39.8205-13.7137-29.6265-2.0533-34.3205-9.9734-36.9606-26.6936-2.64-16.7203-13.6401-79.9344-7.04-92.2546,6.6-12.3195-42.0653,6.4959-42.0722,6.4981.0791.3599.1788.8164.3094,1.4147,2.8463,13.0198,17.5538,79.9761,21.5225,91.0886,4.4,12.3202-12.3202,12.3202-22.0003,17.6003-9.6802,5.28,12.0073,2.64,22.7239,4.4,10.7165,1.76,13.3566,14.0802,13.3566,14.0802s2.64,29.9204,15.8402,6.1601c4.0219-7.2412,5.4966-11.5388,5.9469-13.8464.4985,1.3737,1.7618,3.2186,4.6132,5.0463,11.4402,7.3333,34.9066,13.7867,47.5207,12.3201,12.6141-1.4667,19.6542-6.4535,0-10.2668-4.847-.9404-8.6592-1.6471-11.6653-2.1807C1033.4861,2050.9509,1052.1795,2053.0834,1048.6233,2049.5269Z" transform="translate(-335.00002 -357.28571)"/></g><path class="cls-137" d="M858.4716,1868.6848s36.9758,91.515,94.9088,74.1328c57.9329-17.3821,10.9801-88.6863,29.4427-132.2966S853.3366,1838.0164,858.4716,1868.6848Z" transform="translate(-335.00002 -357.28571)"/><path class="cls-138" d="M869.9293,1930.4032h0c-.0396-.1852-.0722-.3317-.0963-.4495Z" transform="translate(-335.00002 -357.28571)"/><path class="cls-139" d="M869.833,1929.9537l-.0722-.3285S869.7901,1929.7593,869.833,1929.9537Z" transform="translate(-335.00002 -357.28571)"/><path class="cls-140" d="M995.8226,2056.567c-5.2801-5.2801-10.1941-11.6602-39.8206-13.7137-29.6265-2.0533-34.3204-9.9734-36.9605-26.6936-2.64-16.7203-13.6402-79.9344-7.0401-92.2546,6.6001-12.3195-42.0652,6.4959-42.0721,6.4981.079.3598.1787.8164.3094,1.4147,2.8462,13.0198,17.5538,79.9761,21.5224,91.0886,4.4001,12.3202-12.3201,12.3202-22.0003,17.6003-9.6801,5.28,12.0074,2.64,22.7239,4.4,10.7166,1.76,13.3566,14.0802,13.3566,14.0802s2.6401,29.9204,15.8403,6.1601c4.0219-7.2412,5.4966-11.5388,5.9469-13.8464.4985,1.3737,1.7618,3.2186,4.6132,5.0463,11.4402,7.3333,34.9066,13.7867,47.5207,12.3201,12.614-1.4667,19.6541-6.4535,0-10.2668-4.847-.9404-8.6592-1.6471-11.6654-2.1807C980.6853,2057.991,999.3787,2060.1235,995.8226,2056.567Z" transform="translate(-335.00002 -357.28571)"/><path class="cls-141" d="M824.0002,1834.5839s-5.2801,98.5614,54.5608,107.3615c59.8408,8.8001,47.5206-75.6811,82.7211-107.3615S832.3425,1804.6285,824.0002,1834.5839Z" transform="translate(-335.00002 -357.28571)"/><path class="cls-142" d="M1202.7865,1408.865s13.1125,37.6336-6.5412,39.3936c-19.6536,1.76-31.6804-5.2801-34.6138-1.76C1158.6982,1450.0186,1193.4875,1397.6319,1202.7865,1408.865Z" transform="translate(-335.00002 -357.28571)"/><path class="cls-143" d="M1206.3655,1384.8977s6.1601-31.2404-4.8401-45.7606c-11.0001-14.5202-18.0402-18.9203-21.1203-14.5202-3.08,4.4-28.6004-26.4004-30.8004-16.2803-2.2,10.1202-20.2786,12.1225-15.8402,27.7204s-10.1202,23.3204,6.1601,24.6404C1156.2048,1362.0174,1204.6578,1403.3736,1206.3655,1384.8977Z" transform="translate(-335.00002 -357.28571)"/><path class="cls-144" d="M1202.1121,1383.7244s18.1869,1.76,26.6937,24.347c0,0,2.3467,10.8534-4.9867,8.2134-7.3335-2.64-22.0003-4.9867-27.5738-3.2267C1190.6719,1414.8181,1189.2052,1385.7777,1202.1121,1383.7244Z" transform="translate(-335.00002 -357.28571)"/><path class="cls-145" d="M1204.1655,1371.6975c-14.0802-14.0802-51.0407-19.3602-51.0407-19.3602-95.9214-12.3202-172.4824,130.2418-190.9627,171.6023-18.4802,41.3606-105.6014,6.1601-155.7621,0s-66.0009-56.3208-111.7616-145.202c-27.533-53.4779-34.6745,16.6504-35.998,81.0045-2.9374-21.0919-9.0768-38.1084-21.2028-38.7639-19.0749-1.031-14.5924,56.2159-9.907,90.7291-10.3917-50.6273-17.6673-19.7416-17.6673-19.7416-29.3325,69.2277,12.908,127.8952,30.5083,181.8693,17.6002,53.974,1.1722,99.7346,86.8273,156.0554,85.6533,56.3207,179.5225,39.894,308.5903,24.6403,129.0696-15.2535,154.2961-267.2302,126.1357-328.8311-28.1604-61.6008,5.28-80.9611,21.1203-91.5212C1198.8854,1423.6182,1218.2456,1385.7777,1204.1655,1371.6975Z" transform="translate(-335.00002 -357.28571)"/><path class="cls-146" d="M978.2962,1574.1003c-15.6992-25.8901-59.8408,18.7735-91.5212,36.2629-31.6805,17.4892-66.8809-16.3161-110.8815-29.2228-23.5043-6.8944-25.7438,8.6442-21.66,26.4934-12.9699-3.7383-27.8149-4.3723-34.6608,7.5336-5.7012,9.9154,1.0708,24.0098,10.2507,35.5775-8.8843,2.9662-16.3592,16.0055-15.5308,47.7304,1.76,67.4677,163.0944,97.3881,264.0036,58.6675C1079.2037,1718.4223,978.2962,1574.1003,978.2962,1574.1003Z" transform="translate(-335.00002 -357.28571)"/><path class="cls-147" d="M992.3477,1468.037s-58.8312,64.0066-40.3157,68.16c18.5155,4.1535,39.1747-8.4549,40.3157,0s6.5178,53.6203,38.7789,41.0744c32.261-12.546,36.9209-13.9798,36.9209-13.9798s17.9228,46.2408,46.9577,33.3364,29.7518-18.2812,29.7518-18.2812,24.7335,30.8272,30.4688,15.0551c5.7352-15.7721,1.8866-38.678-5.1885-51.9761s-21.6231-50.2051-18.7971-63.1455c2.8259-12.9405,11.0981-33.7817,28.8332-42.1333s27.1666-36.6475,28.0114-42.3423c.8447-5.6948,5.4957-22.6453-15.9367-30.1774-22.6032-7.9435-70.3322-33.2876-136.6466,26.0147C1055.5015,1389.642,1001.2434,1448.4165,992.3477,1468.037Z" transform="translate(-335.00002 -357.28571)"/><path class="cls-148" d="M1810.173,1742.6352c-32.7355-2.5167-31.0171-10.3709-63.5121-11.6893-20.2432-.8212-63.3603-2.5704-94.294,20.2615-48.6366,35.8983-41.9028,113.9246-40.1334,134.4274,5.5393,64.186,42.4056,139.2333,107.1522,167.1575,30.1466,13.0018,63.0689,14.3781,91.9562,15.5858,29.5155,1.234,54.3904,2.274,79.4875-5.455,86.7467-26.7142,115.1884-139.4167,116.5037-144.9478,3.6686-15.4267,25.1264-105.6603-26.4958-156.2475-19.8244-19.4271-43.5504-26.2691-48.7056-27.6648C1888.4116,1722.2253,1869.7186,1747.2131,1810.173,1742.6352Z" transform="translate(-335.00002 -357.28571)"/><g class="cls-125"><path class="cls-149" d="M1791.0804,2037.5962c-7.4779-19.7452-3.4164-37.9341-17.9237-49.8745-15.8123-13.0147-33.5269-2.0152-54.5502-6.624-50.3282-11.0329-99.4349-107.0898-66.6293-169.885,19.9126-38.116,63.4265-51.386,68.9671-52.9917,52.843-15.3138,92.0344,15.3076,112.997-5.0654a28.25757,28.25757,0,0,0,6.79-10.7164,176.31925,176.31925,0,0,1-30.5583.196c-32.7355-2.5167-31.0171-10.3709-63.5121-11.6893-20.2432-.8212-63.3603-2.5704-94.294,20.2615-48.6366,35.8983-41.9028,113.9246-40.1334,134.4274,5.5393,64.186,42.4056,139.2333,107.1522,167.1575,30.1466,13.0018,63.0689,14.3781,91.9562,15.5858q1.31475.0549,2.6166.1092C1801.4121,2057.9757,1794.7306,2047.2346,1791.0804,2037.5962Z" transform="translate(-335.00002 -357.28571)"/></g><path class="cls-150" d="M1823.8105,1753.9349c-15.6274-6.6308-15.9741-32.3264-15.9754-33.5094-.019-17.4899,10.1921-34.428,22.5994-44.4195,13.3321-10.7362,25.8838-10.7807,32.3405-24.5477,2.9217-6.2297,3.4248-12.7734,5.8446-12.8582,2.8024-.0986,5.1145,8.5725,7.0137,15.1961,11.5286,40.2091,17.608,39.0535,15.9754,50.6538-2.7576,19.593-21.3258,31.594-32.7302,38.9645C1847.726,1750.6225,1835.1536,1758.748,1823.8105,1753.9349Z" transform="translate(-335.00002 -357.28571)"/><path class="cls-151" d="M1875.6333,1653.7962c-1.7942-6.2575-3.9572-14.3381-6.5537-15.1295,2.3473,8.6346,1.3768,14.7094-.46,19.026-3.9188,9.2103-11.2054,9.0828-16.7547,21.0408-5.2147,11.2372-.7227,15.5363-6.2343,26.4958-4.9555,9.8541-10.7326,10.6452-15.9754,17.9237-4.2196,5.858-7.5858,15.2197-5.3276,30.9824,11.2074,4.3573,23.5674-3.6221,34.5509-10.7209,11.4044-7.3705,29.9726-19.3715,32.7302-38.9645C1893.2413,1692.8497,1887.1619,1694.0053,1875.6333,1653.7962Z" transform="translate(-335.00002 -357.28571)"/><path class="cls-152" d="M1823.4209,1757.052a4.65966,4.65966,0,0,0,3.1171-1.1689c7.6141-7.2701-20.4029-42.0991-29.613-62.7328a15.47216,15.47216,0,0,0-4.2861-5.8446c-5.005-4.1267-11.646-3.7066-14.8065-3.5068-4.2621.2694-10.3576.6548-11.2997,3.5068-1.0439,3.1605,4.9098,7.3267,17.5341,17.534,11.7457,9.4968,17.6186,14.2456,19.0925,15.9754C1816.894,1736.9355,1816.1514,1756.8736,1823.4209,1757.052Z" transform="translate(-335.00002 -357.28571)"/><path class="cls-153" d="M1780.9496,1688.0849c6.6013.4315,9.8987,3.4703,10.9101,2.3379.4532-.5076.3398-1.737-1.3668-4.5718-4.6211-2.5579-9.9349-2.2245-12.6605-2.0521-4.2621.2694-10.3576.6548-11.2997,3.5068a2.29159,2.29159,0,0,0-.1003.4927,6.6855,6.6855,0,0,0,1.6589,1.0658C1771.6906,1690.4726,1774.1526,1687.6405,1780.9496,1688.0849Z" transform="translate(-335.00002 -357.28571)"/><path class="cls-154" d="M1834.3309,1762.8967s64.2914-35.4576,110.2695-12.8583c45.978,22.5994,60.0052,64.6811,53.3813,135.5964-6.624,70.9153-47.9263,168.7161-151.1822,176.509,0,0,31.1716-71.305,29.613-144.9478C1874.854,1843.5532,1864.7232,1776.1446,1834.3309,1762.8967Z" transform="translate(-335.00002 -357.28571)"/><path class="cls-155" d="M1885.764,1901.9999c6.4843-18.8419,14.0906-36.2712,20.2615-35.4577,3.4824.4593,5.6566,6.6156,5.8447,10.91C1912.3146,1887.599,1902.1572,1898.45,1885.764,1901.9999Z" transform="translate(-335.00002 -357.28571)"/><g class="cls-156"><path class="cls-157" d="M1925.1181,1876.673c8.4047-20.2559,24.5755-22.8913,28.8337-46.7574,3.1148-17.4568-.7652-42.7902-17.1443-55.3295-17.7499-13.5885-35.0031-.5343-64.6811-12.4687a84.90662,84.90662,0,0,1-16.3226-8.7674,179.17946,179.17946,0,0,0-21.4729,9.5467c30.3923,13.2479,40.5231,80.6565,42.0816,154.2993,1.5586,73.6428-29.613,144.9478-29.613,144.9478,40.9548-3.0909,72.1614-20.3429,95.3252-44.4598,6.3415-11.1254,8.6768-21.2714,8.71-30.352C1950.9765,1948.4463,1908.9728,1915.5845,1925.1181,1876.673Z" transform="translate(-335.00002 -357.28571)"/></g><g class="cls-158"><path class="cls-159" d="M1827.3173,2042.2719c29.8961-59.7674,63.6073-97.6596,89.6183-121.5691,15.5823-14.3236,25.2151-20.7003,46.3677-39.7438a703.80619,703.80619,0,0,0,79.1499-83.9059,10.08939,10.08939,0,0,1,16.2542.642c11.6792,17.3379,28.6175,49.6294,26.484,91.3247-1.5546,30.3805-13.4946,65.3545-45.9074,101.819C1940.252,2102.2498,1827.3173,2042.2719,1827.3173,2042.2719Z" transform="translate(-335.00002 -357.28571)"/><path class="cls-160" d="M2058.7074,1797.6949a10.07423,10.07423,0,0,0-11.5546-3.9268c7.9738,48.0511,15.233,154.6124-61.6398,212.2669-59.4449,44.5839-119.0229,44.09-158.1114,36.0699l-.0843.167s112.9347,59.9779,211.9667-51.4331c32.4128-36.4645,44.3528-71.4385,45.9074-101.819C2087.3249,1847.3244,2070.3866,1815.033,2058.7074,1797.6949Z" transform="translate(-335.00002 -357.28571)"/><path class="cls-161" d="M1925.1181,1932.7818c-2.589-5.2203,18.2492-27.3779,32.7302-21.8201,3.7611,1.4433,8.6267,5.3451,8.1825,9.3515C1964.8739,1930.7487,1928.0481,1938.6896,1925.1181,1932.7818Z" transform="translate(-335.00002 -357.28571)"/></g></g></g></svg>