<svg xmlns="http://www.w3.org/2000/svg" xmlns:xlink="http://www.w3.org/1999/xlink" viewBox="0 0 156.71613 101.59517"><defs><style>.cls-1{fill:none;}.cls-2{isolation:isolate;}.cls-3{clip-path:url(#clip-path);}.cls-4{fill:#ff9387;}.cls-5,.cls-7{fill:#fff;}.cls-6{fill:#2a2527;}.cls-7{opacity:0.2;}.cls-8{fill:#a46744;}.cls-11,.cls-8,.cls-9{opacity:0.5;}.cls-9{fill:#a84f6b;}.cls-10{fill:#d6d6d6;opacity:0.8;}.cls-10,.cls-11{mix-blend-mode:multiply;}.cls-11{fill:#774a2e;}.cls-12{fill:#4b2b16;}</style><clipPath id="clip-path" transform="translate(-267.89583 -159.21113)"><path class="cls-1" d="M318.62449,226.1297c-.2881.3399-.5449.7247-.8359,1.0118-1.875,1.8379-3.9629-.0303-5.9522,1.0625a5.59606,5.59606,0,0,1-3.4502,1.0156c-2.8271-.0039-5.6386.1758-8.2959-.4775-3.36229-.8272-6.7412-1.2793-9.9492-2.5528-1.3769-.5469-2.8105-1.2451-4.1406-1.8081-2.1221-.8994-3.5821-2.9648-5.9678-3.3965-1.0439-.1894-2.1885.1699-3.2383.0054-1.6621-.2627-.9013-.5781-1.6738-1.7891-.7617-1.1938-2.8125-1.5586-3.8457-2.6591a8.42925,8.42925,0,0,1-2.0586-4.2232c-.6738-3.5693,1.0781-13.8833,6.7969-11.9844.6094.2051.9101,1.2876,1.2597,1.708a4.599,4.599,0,0,0,2.1963,1.4405,12.6412,12.6412,0,0,0,5.09481.6386,9.39463,9.39463,0,0,0,6.17279-2.6782,4.927,4.927,0,0,0,1.667-3.352c.0693-1.0606-.1533-1.9878.4326-2.9483.8194-1.3423,2.4414-1.6987,2.7481-3.4155.4746-2.6431-2.14549-3.5561-4.001-4.5693-2.5234-1.3794-5.0703-2.732-6.5469-5.3706-1.5635-2.793-1.0351-5.8858-1.5254-8.9346-.4765-2.9649-2.65619-4.8018-5.0996-6.2256,5.3447-1.6328,11.2793,1.2227,16.1485,3.7319,2.3974,1.2359,4.9316,2.8833,7.4462,3.7237,3.0645,1.0239,6.417.2378,9.4248,1.3169,2.5303.9087,4.336.5869,6.9522-.0464a14.85776,14.85776,0,0,0,5.7549-2.6646c2.0537-1.5957,3.71581-3.6084,5.7314-5.164a23.25423,23.25423,0,0,1,3.1905-2.1099,7.21341,7.21341,0,0,0,2.6796-1.7383,5.676,5.676,0,0,0-.88469,5.0811c.29979.8769.61419,1.0996.38769,2.0693-.17869.7739-.7881,1.3511-.6612,2.207,2.21.065,4.5752.2461,6.77351.4688,1.93059.1953,4.50969,1.1348,6.40229.5698.8789-.2622,1.6426-.7446,2.55671-.9419,1.27139-.2744,2.56729-.4389,3.83979-.7182a67.32549,67.32549,0,0,0,6.75-2.0308c2.2559-.7495,4.583-1.2983,6.875-1.9658,2.0225-.5889,3.96-1.5503,6.0254-1.9434a73.41719,73.41719,0,0,1,13.8496-1.2158,34.32106,34.32106,0,0,1,6.6318.5,26.356,26.356,0,0,1,5.5899,2.0942c1.0664.4746,2.1699.9351,3.1806,1.5a9.39732,9.39732,0,0,1,2.4727,2.5035c1.2666,1.4267,3.0215,3.8774,5.1191,4.019.8399.0566,1.5889-.4702,2.4532-.4775a5.26072,5.26072,0,0,1,3.3437,1.0722c1.2031.9419,2.6631,1.9522,3.1846,3.4165,1.1074,3.1079-1.6846,7.3794-4.9443,4.2959-3.1836-3.0112,2.2685-6.0195,3.289-2.2265.3076,1.1377-.6426,2.7177-1.7148,1.2695.0595-.0928.164-.229.2363-.3408.2607.164.5195.061.7637.1479.122-.9092.13571-1.2954-.6026-1.7212a1.42962,1.42962,0,0,0-1.9824.4737c-.7695,1.3139.9619,2.3506,1.9844,2.5503,2.9521.5771,2.1855-2.6431,1.3389-4.2808-.97659-1.8916-2.9678-3.5947-5.1797-2.5708-3.0264,1.4019-.34089,7.3315.4795,9.4097,1.3642,3.4692,2.4589,7.2324,1.4472,11.061a43.33738,43.33738,0,0,1-2.5049,5.9448,55.88937,55.88937,0,0,1-3.25,6.8174c-1.1396,1.8789-3.0839,3.1621-4.0888,5.0523-1.1006,2.0693-1.6446,4.8066-2.5,7.0722-.9258,2.4448-2.3438,4.314-2.33989,7.0191.00489,1.9804-.73241,4.0761-.55081,6.0312.125,1.3486,1.1426,2.2842.0957,3.5674-2.121,2.5986-7.5341,1.7217-10.371,1.4199,1.2607-1.4219,1.7255-3.207,2.5312-4.8506a14.53594,14.53594,0,0,0,1.2754-6.3799q-.00585-3.72495,0-7.4443c0-1.4238.5293-2.5923-.7939-3.6767-1.6211.3105-1.6739,2.9043-1.76859,4.1074-.22361,2.8349-.43361,5.6943-.627,8.5029-.14451,2.0762.49419,5.7686-.89251,7.3848a8.11847,8.11847,0,0,1-3.5743,1.9306c-1.2177.2842-2.6904-.2627-3.833.1651-.2089-.7051-.9814-1.1192-1.4941-.4102-.0313-1.501.9561-3.2949,1.332-4.7705a87.17659,87.17659,0,0,0,2.0752-9.6738c.042-.2998.9561-4.23.919-4.2359-.5684-.0932-2.0967,1.2535-2.5742,1.6368a6.95342,6.95342,0,0,1-1.6563,1.1948c-.5811.2334-1.292.2705-1.875.5215a23.91549,23.91549,0,0,0-3.1211,2.0342,11.03273,11.03273,0,0,1-4.0039,1.2119,15.4,15.4,0,0,0-3.375.6562,11.541,11.541,0,0,1-3.125,1.2188,21.87172,21.87172,0,0,1-7.25.0136,45.82736,45.82736,0,0,1-7-1.4755c-1.4424-.4756-2.6436-1.5948-4.1875-1.8292-2.6582-.4023-.5967,3.3594-.3242,4.6192.4043,1.876.1523,4.0264.3555,5.9756a37.12632,37.12632,0,0,0,.8046,5.3183,23.42166,23.42166,0,0,1,1.1153,5.3164,5.96616,5.96616,0,0,1-6.1416,5.9229,1.48877,1.48877,0,0,0-.29889-1.21c-1.33881.7276-3.29681.3418-3.56151-1.0966a14.51543,14.51543,0,0,1,.4727-4.6797,28.07442,28.07442,0,0,0-.6153-12.8203c-.6425-2.1026-2.0302-6.4502-4.2832-7.3038-1.916-.7255-3.5859,1.6954-4.1211,3.253-.6474,1.8877-.0859,4.3896-.0449,6.3545.0469,2.291-.958,3.9199-2.1025,5.7783-.332.541-.2871,1.2988-.57519,1.7666-.418.6836-.76951.5488-1.48831,1.0469-1.2373.8574-1.96,2.6367-2.7646,3.8398a9.33132,9.33132,0,0,1-3.1924,3.2422c-1.2744.6406-2.9336.5937-4.2041,1.1914-.8828-.6533-.294-1.5273-.0811-2.2705-1.3017-.1182-2.47749.2402-3.7734.1435-.0684-.9277,1.542-2.4003,2.0928-3.1572.9043-1.2422,1.7177-2.501,2.5048-3.8252a69.33986,69.33986,0,0,0,4.1485-7.4023,24.72833,24.72833,0,0,0,2.29781-7.4805c.11719-1.4726-.35641-3.5156-2.15131-3.8603A1.665,1.665,0,0,0,318.62449,226.1297Z"/></clipPath></defs><g class="cls-2"><g id="Layer_1" data-name="Layer 1"><g class="cls-3"><path class="cls-4" d="M318.62449,226.1297c-.2881.3399-.5449.7247-.8359,1.0118-1.875,1.8379-3.9629-.0303-5.9522,1.0625a5.59606,5.59606,0,0,1-3.4502,1.0156c-2.8271-.0039-5.6386.1758-8.2959-.4775-3.36229-.8272-6.7412-1.2793-9.9492-2.5528-1.3769-.5469-2.8105-1.2451-4.1406-1.8081-2.1221-.8994-3.5821-2.9648-5.9678-3.3965-1.0439-.1894-2.1885.1699-3.2383.0054-1.6621-.2627-.9013-.5781-1.6738-1.7891-.7617-1.1938-2.8125-1.5586-3.8457-2.6591a8.42925,8.42925,0,0,1-2.0586-4.2232c-.6738-3.5693,1.0781-13.8833,6.7969-11.9844.6094.2051.9101,1.2876,1.2597,1.708a4.599,4.599,0,0,0,2.1963,1.4405,12.6412,12.6412,0,0,0,5.09481.6386,9.39463,9.39463,0,0,0,6.17279-2.6782,4.927,4.927,0,0,0,1.667-3.352c.0693-1.0606-.1533-1.9878.4326-2.9483.8194-1.3423,2.4414-1.6987,2.7481-3.4155.4746-2.6431-2.14549-3.5561-4.001-4.5693-2.5234-1.3794-5.0703-2.732-6.5469-5.3706-1.5635-2.793-1.0351-5.8858-1.5254-8.9346-.4765-2.9649-2.65619-4.8018-5.0996-6.2256,5.3447-1.6328,11.2793,1.2227,16.1485,3.7319,2.3974,1.2359,4.9316,2.8833,7.4462,3.7237,3.0645,1.0239,6.417.2378,9.4248,1.3169,2.5303.9087,4.336.5869,6.9522-.0464a14.85776,14.85776,0,0,0,5.7549-2.6646c2.0537-1.5957,3.71581-3.6084,5.7314-5.164a23.25423,23.25423,0,0,1,3.1905-2.1099,7.21341,7.21341,0,0,0,2.6796-1.7383,5.676,5.676,0,0,0-.88469,5.0811c.29979.8769.61419,1.0996.38769,2.0693-.17869.7739-.7881,1.3511-.6612,2.207a24.304,24.304,0,0,0,2.9473.0977,12.29018,12.29018,0,0,0,1.24321-.2563,21.94789,21.94789,0,0,0,2.88179-.6465c4.3145-1.4385,8.3867-3.7525,12.7471-5.2222,3.03611-1.0234,5.78811-2.6597,8.9033-3.5005a94.28543,94.28543,0,0,1,13.4814-2.5937,73.608,73.608,0,0,1,10.9991-.4092,21.32505,21.32505,0,0,1,9.3691,2.5942,49.15342,49.15342,0,0,1,7.5938,5.0615c1.4892,1.1631,2.2929,2.7373,3.5039,4.104a11.0003,11.0003,0,0,0,3.7773,2.4029c.5078.2178.9824.4365,1.5.6216a8.85954,8.85954,0,0,1,2.916,1.1806c1.2031.9419,2.6631,1.9522,3.1846,3.4165,1.1074,3.1079-1.6846,7.3794-4.9443,4.2959-3.1836-3.0112,2.2685-6.0195,3.289-2.2265.3076,1.1377-.6426,2.7177-1.7148,1.2695.0595-.0928.164-.229.2363-.3408.2607.164.5195.061.7637.1479.122-.9092.13571-1.2954-.6026-1.7212a1.42962,1.42962,0,0,0-1.9824.4737c-.7695,1.3139.9619,2.3506,1.9844,2.5503,2.9521.5771,2.1855-2.6431,1.3389-4.2808-.97659-1.8916-2.9678-3.5947-5.1797-2.5708-3.0264,1.4019-.34089,7.3315.4795,9.4097,1.3642,3.4692,2.4589,7.2324,1.4472,11.061a43.33738,43.33738,0,0,1-2.5049,5.9448,55.88937,55.88937,0,0,1-3.25,6.8174c-1.1396,1.8789-3.0839,3.1621-4.0888,5.0523-1.1006,2.0693-1.6446,4.8066-2.5,7.0722-.9258,2.4448-2.3438,4.314-2.33989,7.0191.00489,1.9804-.73241,4.0761-.55081,6.0312.125,1.3486,1.1426,2.2842.0957,3.5674-2.121,2.5986-7.5341,1.7217-10.371,1.4199,1.2607-1.4219,1.7255-3.207,2.5312-4.8506a14.53594,14.53594,0,0,0,1.2754-6.3799c-.001-.7558-.3018-1.33-.3477-2.0722-.04779-.7744.1504-1.542.0879-2.3174-.0361-.4521-.2119-2.0063-.6533-2.252-.85939-.4794-1.998,4.2129-2.04,4.793q-.12165,1.66845-.23639,3.3379c-.14451,2.0762.49419,5.7686-.89251,7.3848a8.11847,8.11847,0,0,1-3.5743,1.9306c-1.2177.2842-2.6904-.2627-3.833.1651-.2089-.7051-.9814-1.1192-1.4941-.4102-.0313-1.501.9561-3.2949,1.332-4.7705.5235-2.0537,1.04591-4.1084,1.4707-6.1855.3496-1.7119.794-3.6172.2715-5.3467-.6592-.4497-1.8408.5688-2.4512.8877a20.54272,20.54272,0,0,1-3.5273,1.3096c-3.67479,1.1171-7.55179,1.9316-11.125,3.3125a30.73444,30.73444,0,0,1-4.7471,1.3164,22.48685,22.48685,0,0,1-5.6582.6523c-2.332-.1377-4.1963-1.2754-6.3447-2.125a9.28228,9.28228,0,0,0-3-.75c-1.9512-.0674-.8545,1.7803-.4717,2.6416.7901,1.7793.2422,4.2549.4405,6.1553a37.12632,37.12632,0,0,0,.8046,5.3183,23.42166,23.42166,0,0,1,1.1153,5.3164,5.96616,5.96616,0,0,1-6.1416,5.9229,1.48877,1.48877,0,0,0-.29889-1.21c-1.33881.7276-3.29681.3418-3.56151-1.0966a14.51543,14.51543,0,0,1,.4727-4.6797,28.07442,28.07442,0,0,0-.6153-12.8203c-.6425-2.1026-2.0302-6.4502-4.2832-7.3038-1.916-.7255-3.5859,1.6954-4.1211,3.253-.6474,1.8877-.0859,4.3896-.0449,6.3545.0469,2.291-.958,3.9199-2.1025,5.7783-.332.541-.2871,1.2988-.57519,1.7666-.418.6836-.76951.5488-1.48831,1.0469-1.2373.8574-1.96,2.6367-2.7646,3.8398a9.33132,9.33132,0,0,1-3.1924,3.2422c-1.2744.6406-2.9336.5937-4.2041,1.1914-.8828-.6533-.294-1.5273-.0811-2.2705-1.3017-.1182-2.47749.2402-3.7734.1435-.0684-.9277,1.542-2.4003,2.0928-3.1572.9043-1.2422,1.7177-2.501,2.5048-3.8252a69.33986,69.33986,0,0,0,4.1485-7.4023,24.72833,24.72833,0,0,0,2.29781-7.4805c.11719-1.4726-.35641-3.5156-2.15131-3.8603A1.665,1.665,0,0,0,318.62449,226.1297Z" transform="translate(-267.89583 -159.21113)"/><path class="cls-5" d="M306.93109,198.7523c.0957-.4092,6.0977,1.3794,5.5977-2.8081C310.90379,194.7567,307.44189,196.5643,306.93109,198.7523Z" transform="translate(-267.89583 -159.21113)"/><path class="cls-6" d="M312.15089,197.1361a1.47705,1.47705,0,1,1-1.4766-1.4756A1.47669,1.47669,0,0,1,312.15089,197.1361Z" transform="translate(-267.89583 -159.21113)"/><path class="cls-7" d="M333.90179,166.2562c-1.8964.7236-3.75579,3.0484-5.2636,4.4087a49.529,49.529,0,0,0-5.5655,6.605c-1.1914,1.5288-6.0449,13.3364-2.01069,12.9433-.50291,1.4136-2.48051,1.0328-3.72361.92-.8721-2.9278-5.8037-2.3174-7.584-.8838-1.1826.9536-.7842,2.0429-1.8115,3.1064-.625.648-1.7764.4746-2.4483,1.042-.8672.7315-.5068,1.271-1.0049,1.9888-.7754,1.1157-2.4414,2.1968-3.0654,3.4643-.7305,1.4869-.3945,2.9092.0078,4.503.4346,1.7202,1.833,7.7124-.3457,8.6054-2.6806-2.5849-3.3076-5.5673-7.7051-5.1421-1.3388.129-1.5966.5523-2.7011,1.0469a10.9536,10.9536,0,0,1-2.2246.6768,5.18737,5.18737,0,0,0-2.9698,1.4028c-.7695.7857-.3515,1.8335-1.8183,2.042-1.4571-2.4199-1.56349-5.5332-3.7071-7.6792-1.5839-1.5845-4.5019-2.2246-4.5273-4.7207,2.12891,1.1021,4.166,1.6875,6.249,2.9976,2.08691,1.312,3.749,2.042,6.1563.7705a18.07776,18.07776,0,0,0,5.291-5.1011c.8467-1.4424-.1553-1.7915-.0156-2.9419.166-1.3647.9677-1.6934,2.0761-2.6177,2.5586-2.1318,1.8858-3.3325.1827-5.9726-.6573-1.0181-1.459-1.9981-2.085-3.0137-.7734-1.2534-.60059-2.1348-.9277-3.5762-.9385-4.1362-2.0557-10.0683-6.5801-12.1045-1.96679-.8867-4.1475-1.7236-5.878-2.3466,5.3125-.6353,9.6163,2.1079,14.1641,4.1562a31.99983,31.99983,0,0,0,7.20411,2.4238,14.11205,14.11205,0,0,1,3.55569.8687c1.414.7734,1.7588,1.583,3.4482,1.8257,5.5498.7983,9.834-1.7486,14.4678-4.2427a47.285,47.285,0,0,0,6.2168-4.1641c1.5234-1.1474,3.18751-3.2324,4.9433-3.7143Z" transform="translate(-267.89583 -159.21113)"/><path class="cls-7" d="M334.94189,161.7533c-4.00389-.4702-9.6221,5.1733-12.5371,7.5244-1.8574,1.4985-4.0684,3.6333-6.2422,4.521-2.4649,1.0059-5.6533.2671-8.2354.0688-3.0644-.2343-4.7246-1.4096-7.6191-2.5024-2.7393-1.0342-5.6123-1.6743-8.3125-2.6855-5.4189-2.0313-9.6699-4.9126-15.93159-3.8267a17.5669,17.5669,0,0,0-4.05081,1.7671c7.5556-.1851,14.2324.6816,18.5107,7.6972,1.4522,2.3819,1.4863,7.6705,3.8018,9.3501,3.3496,2.4283,3.7744-5.1982,7.6611-4.1982-.1934,1.4282.7529,1.5039,1.4287,2.3818.3731.481.71.1856,1.0567,1.0215.248.6011-.1807,1.4507.0605,2.0943.918,2.456,3.9307,2.3906,5.751,1.291.98531-.5947,1.1904-1.5254,2.4922-1.7378,1.3906-.2261,2.2168,1.2676,3.82711.5327,1.89649-.8677,3.25979-4.3252,4.22459-5.9902a39.07536,39.07536,0,0,1,9.169-10.1299,52.20984,52.20984,0,0,1,4.8476-3.8111c1.3106-.8051,4.8789-1.6186,4.5459-3.6626a3.86667,3.86667,0,0,1-2.37109-.3974Z" transform="translate(-267.89583 -159.21113)"/><path class="cls-7" d="M269.82959,199.5047c5.5137-3.1098,9.6816,2.3145,11.4199,6.9366a29.01511,29.01511,0,0,0,3.3877,6.31c1.8105,2.6421.666,3.1294-.918,5.3863,2.4864.7031,4.4971-.9776,5.9385-2.6172,1.4336-1.6309,1.0752-1.521,2.9522-.6909.4834.2138.2705.7998,1.1084.9604.8398.1606,1.1865-.605,1.8369-.6035,1.4131.0019.8457.0371,2.0683,1.2012.8448.8042,1.753,1.7915,2.6768,2.521,2.7363,2.1606,5.7539.8427,3.917-2.5083-.4971-.9053-2.0108-1.0928-1.377-2.2647.4893-.9043,2.6543-.707,3.3946-.4038,2.1044.8633,3.0214,4.4297,5.7959,3.731.3876-1.7613-.4004-3.1099-1.4004-4.4307-1.5069-1.9873-2.8457-4.2827-2.6495-6.897,4.1387-.7485,1.9034-1.5674-.1396-3.4277-1.8486-1.6841-2.6318-3.5103-1.5615-5.6187.9883-1.9443,2.8213-3.8291,5.1103-3.8178,1.7696.0102,6.3741,2.8608,6.6407-.6412,3.6084-.3066,2.9921-2.8481,3.0576-5.9394a19.79872,19.79872,0,0,1,2.3388-8.0435,63.3692,63.3692,0,0,1,3.8955-7.5503c1.8184-2.7402,4.57331-4.4668,7.1954-6.3203,1.6943-1.1972,6.5586-3.6694,3.8076-5.0996-3.2813-1.7046-5.8672,1.6963-8.2344,3.3872-1.90429,1.3589-4.0205,2.2491-5.9805,3.5391-2.1582,1.418-3.7382,3.3999-5.8711,4.771-3.4423,2.2153-8.7353,3.9087-12.7275,2.415-3.0977-1.1601-5.6426-3.7534-8.668-5.2031a44.33644,44.33644,0,0,0-9.706-3.0122c-5.9326-1.3501-11.9727-2.5034-17.2813.9512,5.4395.6596,14.3399-.3452,17.7217,4.9272,1.6748,2.6118,2.0147,5.5278,2.9473,8.3193a26.24044,26.24044,0,0,0,3.82611,6.9366c3.34089,4.7509,1.003,9.3877-3.31731,12.2007-1.8926,1.2319-2.8916,4.1372-5.6202,3.6352-2.7226-.5015-4.788-3.1074-7.6181-3.7314-2.1846-.4825-4.8106-.7295-6.9278.3452Z" transform="translate(-267.89583 -159.21113)"/><path class="cls-7" d="M332.26609,188.1522c-1.6875,2.5029-3.9902,2.8638-6.2598,4.5132-1.0839.7856-1.3086,2.019-2.7558,2.4224-1.4492.4043-2.7207-.4556-4.1797.3193-.208,1.1631,1.0625,1.8276,1.6689,2.7134a16.90854,16.90854,0,0,1,1.8096,4.0781c1.2822,3.7314,1.2139,8.2075,2.3496,12.2163.2822.9971,1.1192,4.2954,2.4053,4.4995,1.9004.3023,1.5127-2.5776,1.4023-3.8247a54.81247,54.81247,0,0,1,.0537-9.6455c3.2256-.2568,3.1514.624,5.0479,2.812,1.6992,1.9595,2.4853,1.8325,2.5703,4.7031,2.1387-.3676,1.2188,2.2007,3.35161,1.8365.40619,1.6836.997,3.0131.67579,4.7959-.2979,1.6367-1.6875,3.06-1.2559,4.7949,3.6494.7197,4.4687-7.5493,4.709-9.5664.4892-4.1026.792-9.6524,6.0595-9.4282,4.8174.2055,3.3125,4.2436,3.0245,7.9731-.1866,2.418-.043,4.9736-.2852,7.2148,3.5518-.3608,3.1856,2.5689,6.5537-.1728a4.63223,4.63223,0,0,0,.3809,1.9038c4.4258.6079,6.5459-3.5459,8.8672-6.5474,3.0361-3.9272,3.8564-6.7622,3.4629-11.8422-.2608-3.3467-2.0293-9.9732,3.2539-6.7647,1.8105,1.1011,3.7255,1.9424,5.4814,3.1372,1.0234.6953,3.1182,2.6797,4.502,2.3599,1.6191-.3726,2.5527-3.1587,2.4589-4.6035-.208-3.1958-2.6044-4.8868-4.9765-6.5303-1.74809-1.2085-2.5547-1.7403-2.2539-4.0596.3271-2.52,1.0791-1.9433,3.04-1.7905,1.6221.1255,3.1084.1933,3.1152-1.751.0069-2.1313-2.58-1.793-2.7929-3.4556-.1201-.9462,1.9492-3.1015,2.6992-3.5659,1.4805-.916,2.44431-.582,3.98931.0952a20.84054,20.84054,0,0,1,8.31339,6.5796c1.1797,1.5064,1.1094,3.1192,2.0694,4.5122,1.8603,2.6929,1.8349-1.0537,2.7724-2.0942,2.3867-2.6465,8.1553,2.7998,9.2705,5.2041,1.2481,2.687,1.0166,7.1641.3916,9.9883,2.6231.5327,4.1426-5.1348,4.458-6.8716.627-3.4541,4.4024-4.2065,6.1583-7.2744,1.6796-2.9351.121-4.9151-.9629-7.6206-2.003-4.9961-5.6954-7.5991-10.4756-9.6104-3.791-1.5957-7.3174-3.8496-11.335-4.6728-2.78509-.5708-5.6367-.71-8.4053-1.2149a39.80922,39.80922,0,0,0-7.5254-1.1245c-5.6093.02-10.7812-.333-16.0156,1.9917-3.8437,1.708-7.7129,3.1328-11.7002,4.502a42.46678,42.46678,0,0,1-10.7363,2.165c-3.1924.2705-9.6387-1.1797-11.40529,2.4136-.956,1.9448-.539,4.8369-.748,6.9477A15.48265,15.48265,0,0,1,332.26609,188.1522Z" transform="translate(-267.89583 -159.21113)"/><path class="cls-8" d="M326.02289,173.8846a22.8837,22.8837,0,0,0-2.8564,5.1861,24.59065,24.59065,0,0,0-2.3721,13.1089c3.1143.2622,6.7354-.1446,8.2237-3.3414-1.1993-.3623-4.8243,1.5914-5.1836.2857-.5-1.813,4.0498-2.6187,4.1338-4.1065a14.36275,14.36275,0,0,0-2.6788-.4658c.2256-1.5239,3.169-2.1255,3.3536-3.4707.2734-1.9892-3.5704-.3603-3.4229-2.7202.165-2.6582,6.0762-3.8306,6.5615-6.501a2.97174,2.97174,0,0,0-2.3281.9424c.7031-.6274,4.1592-3.521,2.8428-4.2378C330.314,167.4862,326.94679,172.808,326.02289,173.8846Z" transform="translate(-267.89583 -159.21113)"/><path class="cls-8" d="M282.99069,169.0262c3.5625-.1269,5.2158,4.6846,5.9072,7.2549a35.99428,35.99428,0,0,0,1.4434,4.8677c.6016,1.4121,2.0391,3.147,1.6035,4.813-1.3613-.4009-2.3154-1.9693-3.3262-2.8213-1.38859-1.1694-2.7021-1.6914-2.80459-3.6714.999.0591,1.55659,1.0591,2.666.9346.02339-2.4033-4-3.3843-3.35061-5.791.3848.2055,1.2217.0942,1.6201.2485.56351-2.1802-2.3242-4.3706-3.7588-5.835Z" transform="translate(-267.89583 -159.21113)"/><path class="cls-9" d="M278.58539,205.2963c.4219.8129.9971,1.582,1.3731,2.4345,1.0508,2.3828,3.9297,9.1499.26951,10.4834-3.64451,1.3286-8.89061-.333-10.32031-3.8955-.831-2.0747-.1982-4.6401-.0781-6.8481.1328-2.4112.5908-5.9571,3.3603-6.7012C276.93109,199.764,277.37259,202.9608,278.58539,205.2963Z" transform="translate(-267.89583 -159.21113)"/><path class="cls-9" d="M279.07179,220.9676c1.039-.2368,1.9199-.7812,2.07421-1.665-.78421-.4336-5.00781-1.0913-5.74421-.3521C273.65479,220.7025,278.146,221.1771,279.07179,220.9676Z" transform="translate(-267.89583 -159.21113)"/><path class="cls-10" d="M285.41649,222.0184c.3086-.0176.6133-.0293.9141-.0317,2.2568-.0156,4.4638.8159,6.7041.9922,2.2158.1743,4.3877-.5288,6.5205-.2095a13.49039,13.49039,0,0,1,.8047,3.0049c1.7968.2461,3.4267-.4248,5.1435-.5645a6.3181,6.3181,0,0,1,2.7002-.0058c.5508.2636.4053,1.1406,1.0147,1.4091a7.04559,7.04559,0,0,0,4.8642-.1904,26.86009,26.86009,0,0,0,6.2188-3.8008c3.5263-3.0688.6943-6.4267,2.5771-9.8945a2.39387,2.39387,0,0,1,.9209,0c.6768,2.1475,2.2305,11.7002,5.5996,7.4805,2.041-2.5542-1.6846-12.3614,1.66511-13.3672,1.36029,4.5913-.44731,8.8584.00579,13.4575a5.55088,5.55088,0,0,0,2.876,4.7808c1.7129,1.1679,4.4863,2.998,4.043,5.5615-1.3926-1.084-4.2041-4.1826-6.0762-2.3018-.8662.8711-.3369,2.5469-.4268,3.7217-.1113,1.4727-.7382,2.7373-.9697,4.1563-.4922,3.0136-.7725,5.4687-2.2432,8.2343a53.80634,53.80634,0,0,1-4.8281,7.3321c-3.42279,4.4482-9.2353,11.0117-15.1894,5.6445a28.40837,28.40837,0,0,1-3.0987-3.8945c-1.4023-1.8409-1.8476-2.291-.6836-4.1553,1.6153-2.5859,3.3995-5.6641,5.1778-8.043,1.5058-2.0176,9.2402-8.4004,5.5478-10.7617-1.8281-1.168-5.3799.1289-7.2715.4385a44.192,44.192,0,0,1-7.1963.3555,29.745,29.745,0,0,1-12.6298-3.0303c-1.2696-.5567-9.1309-4.0215-8.2266-5.6275C281.66749,222.4852,283.59329,222.1273,285.41649,222.0184Z" transform="translate(-267.89583 -159.21113)"/><path class="cls-10" d="M347.75539,235.5243a25.99383,25.99383,0,0,1-2.4327-8.3125c-.2675-1.6113-.38469-7.4629,2.7295-6.8736.0879,1.0767-.5214,4.4483.4659,5.0708,1.2744.8028,3.3037-1.8344,4.3447-2.2998.9326,1.1856.0264,2.4248,1.8213,3.0801,1.4375.5254,3.1054-.5381,4.1445-1.394,1.6982-1.396,4.8828-5.9434,4.2197-1.0904,2.3535-.2402,3.3076-2.1518,5.0664-3.3769.044.1968.0899.394.1358.5923,6.4619,1.7055,8.6758-13.6031,14.4238-13.7525.5234,1.9405-2.3945,7.3037,2.1475,4.8916,1.9355-1.0283,4.165-4.2763,6.165-4.5439-.0635.5981.1885,1.3799.1133,1.9809,2.4766.6163,5.3574-4.5224,6.8818-6.1811.583-.6343,1.7422-3.3066,3.03911-2.3731,1.25289.9019-.34471,3.2598-.88281,4.1202-1.16119,1.8589-3.3643,3.166-4.2403,5.1782a49.33277,49.33277,0,0,0-2.00189,7.0044c-.47461,1.8764-2.13091,5.2715-1.82621,7.1948a31.24189,31.24189,0,0,0,1.0381,3.1177,12.14763,12.14763,0,0,1,.28711,4.4248c-.23731,2.417-1.23051,5.0049-1.57811,7.4287-.166,1.1533-.0235,2.7207-.8555,3.6631a2.05657,2.05657,0,0,1-1.291.7519c-1.6758.4893-.8799.0772-1.7451-.6836-.2305-.2041.124-1.1377.2051-1.3574-1.0088,2.085-3.7637,2.7002-5.7412,3.5137-2.4766,1.0176-5.6485,3.0928-7.8965.2685-1.9278-2.4238.1045-5.2021.8935-7.6191.8623-2.6484,2.1895-5.2187,2.9326-7.8887,2.1768-7.8266-10.6425-2.289-13.9375-.8476q-4.75485,2.083-9.3525,4.4941c-1.8291.9531-5.2539,1.0957-6.2344,2.8565Z" transform="translate(-267.89583 -159.21113)"/><path class="cls-5" d="M310.69769,243.1434a1.07379,1.07379,0,0,1-1.039.6914Z" transform="translate(-267.89583 -159.21113)"/><path class="cls-11" d="M304.11669,245.2215c3.5664.3243,7.3867-1.6757,11.083-1.7324,3.4365-.0508,3.96,1.5528,4.9102,4.4346,7.0312.9619-1.9717,10.2666-4.545,11.5742-3.3877,1.7217-6.6982,2.21-8.7646-1.4619-1.6035-2.8535-1.48929-6.04-2.6836-9.0049Z" transform="translate(-267.89583 -159.21113)"/><path class="cls-11" d="M339.42429,245.5506c1.2451-.0986,1.1123.9776,2.0039,1.1495,1.6719.3232,2.4971-1.7891,4.2305-1.8418,3.7021-.1104,4.0488,7.7226,2.1738,9.4619-2.22749,2.0635-8.4199,3.4365-10.9141,1.251C334.35109,253.3202,335.479,245.8622,339.42429,245.5506Z" transform="translate(-267.89583 -159.21113)"/><path class="cls-11" d="M374.77,243.8348c1.39749-1.9472,5.00979-12.457,8.251-12.0683.24319,1.1308,2.97359,1.3232,3.86819,1.33.7431.0059,1.2216-.5322,2.166-.4287a12.96809,12.96809,0,0,1,2.2793.8389,2.50012,2.50012,0,0,0,.4931,1.6172,5.07149,5.07149,0,0,1,1.9287-.9512,10.17726,10.17726,0,0,0-.2304,1.9903,6.06815,6.06815,0,0,0,4.372-.9688c1.0137-.6885,2.2198-3.9375,3.5557-1.7656,1.1035,1.791.0635,8.1972-1.123,9.7041-2.7764,3.5234-9.584,4.4082-13.6993,4.0888-3.8701-.2988-6.8789-2.4902-10.4755-3.3867Z" transform="translate(-267.89583 -159.21113)"/><path class="cls-12" d="M278.07369,212.1839c0,1.4136-.5176,2.5596-1.1582,2.5596-.6387,0-1.1582-1.146-1.1582-2.5596,0-1.413.5195-2.5595,1.1582-2.5595C277.55609,209.6244,278.07369,210.7709,278.07369,212.1839Z" transform="translate(-267.89583 -159.21113)"/><path class="cls-12" d="M273.17139,211.723c0,1.4126-.5186,2.5586-1.1582,2.5586-.6397,0-1.15819-1.146-1.15819-2.5586,0-1.4145.51849-2.561,1.15819-2.561C272.65279,209.162,273.17139,210.3085,273.17139,211.723Z" transform="translate(-267.89583 -159.21113)"/><path class="cls-7" d="M272.55909,207.4081a3.65291,3.65291,0,0,0-2.3213-.5699c-.7246,1.3311.4453,4.9288-.459,5.8506-1.8359,1.8741-1.7012-3.498-1.75779-4.1787-.31061-3.7554-.37111-9.229,3.90529-10.727,7.3584-2.5791,10.0254,12.873,9.6269,17.6015a2.20893,2.20893,0,0,1-1.2724,0c-.7989-.2563-.2051-7.4614-1.8389-8.8359C277.04639,205.3744,270.16359,203.4442,272.55909,207.4081Z" transform="translate(-267.89583 -159.21113)"/><path class="cls-7" d="M295.02779,193.8783c-2.5527,2.8081-1.1963,3.3794,1.8955,2.2402,2.7608-1.0161,4.7403,1.4834,6.9336-.3379,2.249-1.8662,2.4668-2.6933,5.7246-2.9331,1.0987-.0805,8.3311-.0517,6.9512-2.624-1.0478-1.9556-5.9834.1108-7.4775-1.8892-1.8096-2.4223,3.3007-4.6963,4.8535-6.06,2.3496-2.0611,5.4121-5.145,6.4512-8-3.1416-.523-6.503,3.3974-8.959,4.8823-1.293.7813-3.6377,2.0757-5.2227,1.6626-1.5967-.4155-2.6474-3.0229-3.78419-4.1543a16.65351,16.65351,0,0,0-6.02631-4.0688c-2.9834-.9371-4.4444,1.3667-1.2578,2.727,3.6513,1.5596,4.1406,2.4053,3.5537,6.3315C298.022,185.9349,298.15089,190.4413,295.02779,193.8783Z" transform="translate(-267.89583 -159.21113)"/><path class="cls-7" d="M289.22509,203.3153c4.37891-2.5786,9.5644,2.4995,8.2598,7.2197-2.6016.7974-3.6143-4.6196-7.168-3.7046-.2803,1.0738,1.0703,5.4737-2.0615,3.7046-1.8516-1.0454-1.084-5.0805-4.1748-4.7431-.0323.7568-.0674,1.562-.10159,2.3183-2.00291.1187-2.14361-1.1723-2.98051-2.4565-.7978-1.2217-1.9472-2.2198-2.7793-3.4551a9.91426,9.91426,0,0,0-3.1845-3.4722c-1.4854-.9511-3.97269-1.4414-5.1348-2.7817-1.67289-1.9253.0957-3.5615,2.3555-3.3735,1.9961.1665,3.1201,2.2041,4.7724,3.2187,1.7901,1.1006,3.1963,2.1133,4.9239,3.376,2.1757,1.5888,3.7646.5346,6.23431.685Z" transform="translate(-267.89583 -159.21113)"/><path class="cls-7" d="M299.96139,177.6854c3.5127,2.1182,1.64361,4.9331.251,7.6187a26.51419,26.51419,0,0,0-1.2139,3.7324c-.3183.8843-1.2998,1.6909-1.7549,2.7612,1.73341,1.4688,4.4737-.9131,6.2569-1.2207,2.4951-.4292,5.0771.2217,6.8164-2.0762-1.6553-.9365-6.918-1.4609-2.7354-3.6284,2.3438-1.2153,6.3819-2.5844,7.2461-5.4033-3.01459-.25-5.2998,1.4033-7.9404,1.3311-2.2646-.0616-4.5137-2.2461-6.5791-3.1148Z" transform="translate(-267.89583 -159.21113)"/><path class="cls-7" d="M325.24459,205.7391c.2412,2.3594.128,5.1275,1.6377,7.02.8574,1.0738,1.4649.4395,1.833,2.3306a19.40009,19.40009,0,0,0,.6865,3.7915,20.97018,20.97018,0,0,0,3.5489,5.8179c1.3476,1.5068,2.8408,2.2617,3.7334,4.2344a16.15874,16.15874,0,0,1,1.374,6.9365c-.0049,2.7051.3477,5.2285.3477,7.9648,0,2.3242-.3633,5.2578.7695,7.2305,1.88871-.8838,1.165-4.4629,1.3066-6.1904.1739-2.0987.8369-4.3721.6768-6.458,1.77931,2.1562,1.7588-1.4414,1.749-2.5469a8.54545,8.54545,0,0,1,1.2266-4.2158c.5713-1.1114.9541-2.5821,2.2656-3.0264,1.2568-.4248,2.7695.2676,4.0068.6328a35.25264,35.25264,0,0,0,3.9971,1.249,16.59525,16.59525,0,0,0,5.5273-.0976,106.64667,106.64667,0,0,0,11.126-2.7803c3.8535-1.1621,7.96291-2.0527,11.5967-3.8442,1.9375-.9556,3.8184-1.6651,5.7539-2.4024.9395-.3579,2.3447-1.0093,3.3652-.6821,1.4112.4521.6543,2.9888.6524,4.0845-.0049,2.7837.4736,5.561.0088,8.313-.2832,1.6777-1.8789,7.2988,1.747,5.9033,1.9815-.7627,2.7071-4.8408,3.1856-6.5967.8232-3.0234,1.916-5.9609,2.6767-9.0137a54.22512,54.22512,0,0,0,1.377-9.3432,13.48978,13.48978,0,0,1,.7881-4.0767c.7539-1.4478,1.60351-1.0986,2.6924-1.8794,1.6299-1.1675,1.0732-1.7515,1.7334-3.3926.5752-1.435,2.0175-2.2685,3.0381-3.81a16.991,16.991,0,0,0,2.84961-7.6206c.86229-5.8252.85539-10.958-1.03031-16.6338-.8213-2.4737-1.8389-5.732-3.8018-7.6289-3.0332-2.9283-7.3232-4.5762-11.206-5.9546-10.0332-3.562-19.1817-1.4903-28.9951,1.5571-6.3614,1.9761-13.0342,2.5347-19.38679,4.5117-2.36911.7373-4.86321,1.125-7.26461,1.7217-2.0469.5083-5.1289.5659-5.9121,3.0317-.708,2.2276-.0899,5.2652-.32129,7.6197a28.54478,28.54478,0,0,1-1.99321,7.6191,12.533,12.533,0,0,1-4.3281,4.7725c-1.6328,1.1723-4.2851,1.6875-4.956,3.8515C322.562,200.2123,324.98969,203.2474,325.24459,205.7391Z" transform="translate(-267.89583 -159.21113)"/><path class="cls-5" d="M275.02489,219.246h0Z" transform="translate(-267.89583 -159.21113)"/><path class="cls-7" d="M271.562,219.5926c2.26949.418,5.60939-.5107,7.96579-.7011,2.9873-.2408,5.5596.5063,8.3125.7182,2.6231.2032,6.1582-.7949,8.6582-.0259,2.0342.627.4893.9488,1.6358,2.1812.84271.9072,2.747.6772,3.9062.5977a12.80677,12.80677,0,0,0,3.5498-.9522c1.5225-.4975,1.84871-.0088,3.09871.1914a10.696,10.696,0,0,0,7.47359-1.7407c4.7861-3.6274,1.77541-9.2944,2.208-14.4155a4.256,4.256,0,0,1,1.9639.0068c1.374,3.1279,4.4306,5.8662,5.332,9.2139.457,1.6963.3779,3.8628,2.2539,5.0205,2.64361,1.6313,3.7568-.7842,3.6084-3.1836,2.0693.7407,1.8096,5.7949.5547,7.1597-1.8828,2.0468-4.8438.8911-6.5889,2.7597-2.2939,2.4541-3.1523,1.6914-6.4844,2.1758-2.7978.4082-5.4785,1.6348-8.33,2.085a81.79994,81.79994,0,0,1-19.74119.6064c-4.87991-.4824-10.90821-3.3887-15.13481-5.8965-1.69919-1.0078-3.24019-3.4223-5.2813-3.7236Z" transform="translate(-267.89583 -159.21113)"/><path class="cls-8" d="M335.43509,164.4271c-6.8946,4.0918-10.625,12.2173-12.91509,19.417-.96971,3.0464-3.46191,9.521,2.30569,8.7598,2.5566-.3374,8.0459-4.2232,7.2959-7.3184-3.2129-.7256.5586-4.9263,0-6.9263-2.7432-.5854.2226-4.0473.6435-5.6225.7022-2.6299.4825-5.0908,1.7461-7.3862Z" transform="translate(-267.89583 -159.21113)"/><path class="cls-8" d="M280.48879,167.659c6.44921-1.5273,10.9677,14.0889,11.9453,17.9278-3.2705.7954-8.2793-4.3941-9.5215-6.9614-1.1543-2.3829-1.1582-10.7193-4.7334-10.9664Z" transform="translate(-267.89583 -159.21113)"/><path class="cls-10" d="M307.14209,195.2357c2.0703-1.3091,3.6152-1.0508,5.541-.207,4.2568,1.8628.4863,3.8764-2.1172,4.667-1.3066.3964-3.3867,1.1997-4.4863.1518C304.61769,198.4588,305.74849,196.119,307.14209,195.2357Z" transform="translate(-267.89583 -159.21113)"/></g><path class="cls-7" d="M300.80419,175.5087c6.5,1.791,11.8789,1.4682,18.4121,1.0058-.5674,3.436-5.459,2.8516-7.4316,4.8594-1.8106,1.8418.0341,3.084-1.6309,4.8691-1.2402,1.3282-3.166.6011-4.71779,1.2837-1.87591.8238-4.30471,7.8941-6.83491,5.4238-2.3125-2.2573,3.45991-6.2641,3.0547-9.0498-1.67779-.727-4.8516.0738-4.0137-2.7817,1.6601.0376,5.3408-.0884,4.9287-2.2983-.80179-.2691-1.4541-.7017-2.2275-1.0039Z" transform="translate(-267.89583 -159.21113)"/><path class="cls-7" d="M349.61079,195.8236c2.70221,3.6626,4.2364-1.084,2.9307-3.6943-.8447-1.6875-6.1699-7.5513-.4854-6.4605,1.9532.3745,3.3614,5.4673,5.4493,3.7236,2.666-2.227-2.4952-6.5937,1.9414-7.4155,1.333-.2485,6.4443,1.0147,7.2939,1.9351,1.6904,1.831,1.2246,6.5322,5.5527,5.3681,1.76861-3.2421-4.2236-9.3388-.4052-11.0239,2.3545-1.0371,5.4687,2.8926,7.3174,1.7744,2.1416-1.2939-.8741-4.8091-.7569-6.3008,1.7071-.1508,3.5586.1167,5.1094-.3935,1.92091-.6304,2.67191-1.9282,5-1.5454,1.46.2397,8.37791,4.1025,6.5762-.4488-1.3936-3.5195-7.4268-1.2578-9.8321-1.0156-3.7285.376-7.0117.8438-10.6201,1.5005-3.5058.6392-6.7656,2.0488-10.2617,3.2197-1.7773.5967-3.7383.7666-5.4385,1.3736-1.7451.6245-2.87689,2.1313-4.6152,2.6899-2.8965.9307-6.9971-.664-10.1113-.3501-2.4756.2481-2.5899-.4018-1.4727,2.0806,1.042,2.3135,3.1436,3.9629,4.0684,6.4419C347.87649,190.0355,347.814,193.3866,349.61079,195.8236Z" transform="translate(-267.89583 -159.21113)"/></g></g></svg>